G75*
%MOIN*%
%OFA0B0*%
%FSLAX25Y25*%
%IPPOS*%
%LPD*%
%AMOC8*
5,1,8,0,0,1.08239X$1,22.5*
%
%ADD10R,0.00984X0.00098*%
%ADD11R,0.01083X0.00098*%
%ADD12R,0.01280X0.00098*%
%ADD13R,0.01969X0.00098*%
%ADD14R,0.02067X0.00098*%
%ADD15R,0.02559X0.00098*%
%ADD16R,0.02461X0.00098*%
%ADD17R,0.02953X0.00098*%
%ADD18R,0.02854X0.00098*%
%ADD19R,0.03150X0.00098*%
%ADD20R,0.03248X0.00098*%
%ADD21R,0.03445X0.00098*%
%ADD22R,0.03740X0.00098*%
%ADD23R,0.04035X0.00098*%
%ADD24R,0.01181X0.00098*%
%ADD25R,0.01673X0.00098*%
%ADD26R,0.04232X0.00098*%
%ADD27R,0.00591X0.00098*%
%ADD28R,0.01378X0.00098*%
%ADD29R,0.04331X0.00098*%
%ADD30R,0.00295X0.00098*%
%ADD31R,0.00689X0.00098*%
%ADD32R,0.04429X0.00098*%
%ADD33R,0.01476X0.00098*%
%ADD34R,0.04626X0.00098*%
%ADD35R,0.04823X0.00098*%
%ADD36R,0.02264X0.00098*%
%ADD37R,0.04921X0.00098*%
%ADD38R,0.02165X0.00098*%
%ADD39R,0.02756X0.00098*%
%ADD40R,0.03543X0.00098*%
%ADD41R,0.01772X0.00098*%
%ADD42R,0.01870X0.00098*%
%ADD43R,0.01575X0.00098*%
%ADD44R,0.03051X0.00098*%
%ADD45R,0.03642X0.00098*%
%ADD46R,0.02362X0.00098*%
%ADD47R,0.00394X0.00098*%
%ADD48R,0.00197X0.00098*%
%ADD49R,0.02657X0.00098*%
%ADD50R,0.00787X0.00098*%
%ADD51R,0.07087X0.00098*%
%ADD52R,0.10138X0.00098*%
%ADD53R,0.00886X0.00098*%
%ADD54R,0.10236X0.00098*%
%ADD55R,0.07185X0.00098*%
%ADD56R,0.06791X0.00098*%
%ADD57R,0.00492X0.00098*%
%ADD58R,0.03346X0.00098*%
%ADD59R,0.03839X0.00098*%
%ADD60R,0.04724X0.00098*%
%ADD61R,0.04528X0.00098*%
%ADD62R,0.05020X0.00098*%
%ADD63R,0.04134X0.00098*%
%ADD64R,0.03937X0.00098*%
%ADD65R,0.08563X0.00098*%
%ADD66R,0.08760X0.00098*%
%ADD67R,0.08858X0.00098*%
%ADD68R,0.06102X0.00098*%
%ADD69R,0.05906X0.00098*%
%ADD70R,0.05807X0.00098*%
%ADD71R,0.06004X0.00098*%
%ADD72R,0.08957X0.00098*%
%ADD73R,0.08465X0.00098*%
%ADD74R,0.08661X0.00098*%
%ADD75R,0.06201X0.00098*%
%ADD76R,0.05217X0.00098*%
%ADD77R,0.05315X0.00098*%
%ADD78R,0.05512X0.00098*%
%ADD79R,0.05610X0.00098*%
%ADD80R,0.06299X0.00098*%
%ADD81R,0.06398X0.00098*%
%ADD82R,0.06496X0.00098*%
%ADD83R,0.06594X0.00098*%
%ADD84R,0.05709X0.00098*%
%ADD85R,0.05413X0.00098*%
%ADD86R,0.03650X0.05224*%
%ADD87R,0.04831X0.04437*%
%ADD88R,0.05224X0.03650*%
%ADD89R,0.06012X0.06799*%
%ADD90R,0.12311X0.06012*%
%ADD91R,0.06012X0.12311*%
%ADD92R,0.05500X0.06287*%
%ADD93C,0.01331*%
%ADD94R,0.09500X0.11500*%
%ADD95R,0.09161X0.02862*%
%ADD96C,0.06500*%
%ADD97C,0.17500*%
%ADD98R,0.06012X0.01878*%
%ADD99R,0.07980X0.07587*%
%ADD100R,0.07980X0.07980*%
%ADD101C,0.06799*%
%ADD102C,0.13000*%
%ADD103C,0.08100*%
%ADD104R,0.12311X0.30028*%
%ADD105R,0.05224X0.05224*%
%ADD106R,0.03256X0.03256*%
%ADD107R,0.06012X0.04437*%
%ADD108R,0.06406X0.03256*%
%ADD109R,0.02862X0.04437*%
%ADD110R,0.03650X0.04437*%
%ADD111C,0.04043*%
%ADD112C,0.03500*%
%ADD113C,0.05000*%
%ADD114R,0.08100X0.15500*%
%ADD115R,0.02000X0.05000*%
%ADD116R,0.09300X0.05300*%
%ADD117R,0.09161X0.14673*%
%ADD118R,0.05500X0.02700*%
%ADD119R,0.02700X0.05500*%
%ADD120C,0.02272*%
%ADD121R,0.13760X0.06040*%
%ADD122C,0.03869*%
D10*
X0047392Y0184944D03*
X0048868Y0186322D03*
X0048868Y0186421D03*
X0048868Y0186519D03*
X0052116Y0189373D03*
X0053396Y0187307D03*
X0053396Y0187208D03*
X0053396Y0187110D03*
X0053396Y0187011D03*
X0053396Y0186913D03*
X0055758Y0187011D03*
X0055758Y0187110D03*
X0055758Y0187208D03*
X0055758Y0187307D03*
X0055758Y0187405D03*
X0055758Y0188192D03*
X0055758Y0188291D03*
X0055758Y0188389D03*
X0054577Y0189669D03*
X0057726Y0187897D03*
X0057726Y0187799D03*
X0055758Y0186224D03*
X0055758Y0186125D03*
X0055758Y0186027D03*
X0060581Y0187503D03*
X0060581Y0188192D03*
X0062254Y0188389D03*
X0062254Y0188488D03*
X0062254Y0187307D03*
X0064715Y0188291D03*
X0064715Y0188389D03*
X0064715Y0188488D03*
X0064616Y0188685D03*
X0064813Y0188192D03*
X0042274Y0203251D03*
X0041683Y0211814D03*
D11*
X0043504Y0207484D03*
X0043504Y0207385D03*
X0043504Y0207287D03*
X0043504Y0207188D03*
X0043504Y0206499D03*
X0043504Y0206401D03*
X0043504Y0206303D03*
X0040157Y0194196D03*
X0046161Y0188586D03*
X0046161Y0188488D03*
X0046063Y0188389D03*
X0046063Y0188291D03*
X0046063Y0188192D03*
X0046063Y0188094D03*
X0046063Y0187996D03*
X0046063Y0187897D03*
X0046063Y0187799D03*
X0046063Y0187700D03*
X0046161Y0187602D03*
X0046161Y0187503D03*
X0048917Y0187700D03*
X0048917Y0187799D03*
X0048917Y0187897D03*
X0048917Y0187996D03*
X0048917Y0188094D03*
X0048917Y0188192D03*
X0048917Y0188291D03*
X0048917Y0188389D03*
X0048917Y0189373D03*
X0048917Y0189472D03*
X0048917Y0189570D03*
X0048917Y0189669D03*
X0050886Y0189669D03*
X0050886Y0189570D03*
X0050886Y0189472D03*
X0050886Y0189373D03*
X0050886Y0189275D03*
X0050886Y0189177D03*
X0052067Y0189177D03*
X0052067Y0189275D03*
X0050886Y0187897D03*
X0050886Y0187799D03*
X0050886Y0187700D03*
X0050886Y0187602D03*
X0050886Y0187503D03*
X0050886Y0187405D03*
X0050886Y0187307D03*
X0050886Y0187208D03*
X0050886Y0187110D03*
X0050886Y0187011D03*
X0050886Y0186913D03*
X0050886Y0186814D03*
X0050886Y0186716D03*
X0050886Y0186618D03*
X0050886Y0186519D03*
X0050886Y0186421D03*
X0050886Y0186322D03*
X0050886Y0186224D03*
X0050886Y0186125D03*
X0050886Y0186027D03*
X0048917Y0186618D03*
X0048917Y0186716D03*
X0048917Y0186814D03*
X0048819Y0186224D03*
X0048819Y0186125D03*
X0053445Y0186814D03*
X0053445Y0187405D03*
X0053543Y0187503D03*
X0055709Y0187503D03*
X0055709Y0186913D03*
X0055709Y0188488D03*
X0055709Y0188586D03*
X0055610Y0188685D03*
X0057776Y0188291D03*
X0057776Y0188192D03*
X0057776Y0188094D03*
X0057776Y0187996D03*
X0057776Y0187700D03*
X0057776Y0187602D03*
X0057776Y0187503D03*
X0057776Y0187405D03*
X0057776Y0186322D03*
X0057776Y0186224D03*
X0057776Y0186125D03*
X0057776Y0186027D03*
X0057776Y0185929D03*
X0057776Y0185830D03*
X0057776Y0185732D03*
X0057776Y0185633D03*
X0057776Y0185535D03*
X0057776Y0185436D03*
X0057776Y0185338D03*
X0057776Y0185240D03*
X0057776Y0185141D03*
X0057776Y0185043D03*
X0057776Y0184944D03*
X0060531Y0187307D03*
X0060531Y0187405D03*
X0060630Y0187602D03*
X0060630Y0187700D03*
X0060630Y0187799D03*
X0060630Y0187897D03*
X0060630Y0187996D03*
X0060630Y0188094D03*
X0060531Y0188291D03*
X0060531Y0188389D03*
X0062205Y0188291D03*
X0062205Y0188192D03*
X0062303Y0188586D03*
X0062402Y0188685D03*
X0062205Y0187405D03*
X0062303Y0187208D03*
X0062303Y0187110D03*
X0062402Y0187011D03*
X0064665Y0188586D03*
X0064567Y0188783D03*
X0066634Y0187011D03*
X0066634Y0186913D03*
X0066634Y0186814D03*
X0066634Y0186716D03*
X0066634Y0186618D03*
X0066634Y0186519D03*
X0066634Y0186421D03*
X0066634Y0186322D03*
X0066634Y0186224D03*
X0066634Y0186125D03*
X0066634Y0186027D03*
X0057776Y0189373D03*
X0057776Y0189472D03*
X0057776Y0189570D03*
X0057776Y0189669D03*
D12*
X0057874Y0188586D03*
X0057874Y0187110D03*
X0059449Y0186027D03*
X0060335Y0186913D03*
X0060335Y0188783D03*
X0059449Y0189669D03*
X0055610Y0186716D03*
X0053642Y0186618D03*
X0050984Y0188291D03*
X0048819Y0188586D03*
X0048819Y0188685D03*
X0048819Y0187503D03*
X0047146Y0186421D03*
X0046260Y0187307D03*
X0046260Y0188783D03*
X0037303Y0185043D03*
X0042323Y0203448D03*
X0043012Y0204629D03*
X0043110Y0204826D03*
X0043110Y0204925D03*
X0043209Y0205023D03*
X0043209Y0205122D03*
X0043307Y0205318D03*
X0043406Y0205712D03*
X0043307Y0208468D03*
X0043209Y0208763D03*
X0043110Y0209059D03*
X0043012Y0209255D03*
X0043012Y0209354D03*
X0042913Y0209452D03*
X0042913Y0209551D03*
X0042815Y0209748D03*
X0042717Y0209944D03*
X0042618Y0210141D03*
X0041732Y0211519D03*
X0047047Y0204531D03*
D13*
X0046801Y0201775D03*
X0046801Y0199019D03*
X0043652Y0199019D03*
X0042766Y0200594D03*
X0041781Y0195673D03*
X0038533Y0195673D03*
X0037648Y0197149D03*
X0036270Y0194492D03*
X0033711Y0196165D03*
X0033612Y0196263D03*
X0033612Y0196362D03*
X0033612Y0196460D03*
X0033514Y0196559D03*
X0033120Y0194590D03*
X0030955Y0198133D03*
X0034990Y0199314D03*
X0036171Y0201578D03*
X0046604Y0196066D03*
X0046604Y0193310D03*
X0049754Y0196066D03*
X0047195Y0189472D03*
X0047392Y0185043D03*
X0054183Y0186224D03*
X0059498Y0186224D03*
X0063632Y0186125D03*
X0038927Y0186519D03*
X0035679Y0186519D03*
X0036270Y0191834D03*
X0033120Y0191834D03*
D14*
X0035827Y0189275D03*
X0035827Y0186421D03*
X0037303Y0185141D03*
X0038780Y0186421D03*
X0039370Y0188881D03*
X0040748Y0190653D03*
X0041437Y0192917D03*
X0044488Y0192917D03*
X0043012Y0188783D03*
X0049705Y0193310D03*
X0041732Y0198330D03*
X0037795Y0200200D03*
X0036319Y0201480D03*
X0034154Y0200791D03*
X0031004Y0200889D03*
X0036319Y0204334D03*
X0037795Y0205614D03*
X0039272Y0204334D03*
X0063484Y0189472D03*
D15*
X0063632Y0186322D03*
X0054577Y0189275D03*
X0054478Y0189373D03*
X0047293Y0185141D03*
X0040699Y0190456D03*
X0039419Y0189078D03*
X0033219Y0196657D03*
X0035285Y0199118D03*
X0040502Y0202562D03*
D16*
X0037795Y0200299D03*
X0033957Y0196066D03*
X0040157Y0194393D03*
X0043012Y0188881D03*
X0037303Y0185240D03*
D17*
X0037352Y0190358D03*
X0042963Y0193999D03*
X0042372Y0200889D03*
X0046998Y0204728D03*
X0049065Y0210338D03*
X0063632Y0186519D03*
X0047293Y0185240D03*
D18*
X0043012Y0188980D03*
X0037303Y0185338D03*
X0040157Y0194492D03*
X0034154Y0195968D03*
X0033071Y0196755D03*
X0035433Y0199019D03*
X0037795Y0200397D03*
X0040650Y0202464D03*
X0037795Y0205417D03*
X0054823Y0187996D03*
X0063484Y0189078D03*
D19*
X0054675Y0187799D03*
X0054675Y0187700D03*
X0054675Y0186421D03*
X0054675Y0186322D03*
X0047392Y0185436D03*
X0047293Y0185338D03*
X0042963Y0189078D03*
X0040797Y0202366D03*
D20*
X0042224Y0200988D03*
X0040157Y0199413D03*
X0037795Y0200496D03*
X0034449Y0195771D03*
X0032776Y0196952D03*
X0037303Y0190259D03*
X0043012Y0193901D03*
X0047539Y0185633D03*
X0047441Y0185535D03*
X0054626Y0186519D03*
X0037303Y0185436D03*
X0037795Y0205318D03*
D21*
X0037795Y0205220D03*
X0037795Y0200594D03*
X0034646Y0195574D03*
X0032677Y0197051D03*
X0032579Y0197149D03*
X0040157Y0194688D03*
X0043012Y0189177D03*
X0037303Y0185535D03*
X0058957Y0186421D03*
X0058957Y0189275D03*
D22*
X0047589Y0188980D03*
X0047589Y0187110D03*
X0037352Y0185633D03*
X0036959Y0197641D03*
X0042077Y0201086D03*
X0045719Y0197838D03*
X0047687Y0197248D03*
D23*
X0047933Y0196952D03*
X0045472Y0198133D03*
X0045276Y0202464D03*
X0040157Y0199118D03*
X0037795Y0200791D03*
X0037795Y0205023D03*
X0032579Y0201578D03*
X0040157Y0194984D03*
X0043012Y0193606D03*
X0048130Y0192622D03*
X0037303Y0185732D03*
X0034646Y0191145D03*
D24*
X0046211Y0188685D03*
X0046211Y0187405D03*
X0046506Y0185732D03*
X0048671Y0185929D03*
X0048770Y0186027D03*
X0048868Y0187602D03*
X0048868Y0188488D03*
X0050935Y0188192D03*
X0050935Y0188094D03*
X0050935Y0187996D03*
X0053494Y0186716D03*
X0055659Y0186814D03*
X0057825Y0187208D03*
X0057825Y0187307D03*
X0057825Y0188389D03*
X0057825Y0188488D03*
X0060384Y0188685D03*
X0060482Y0188586D03*
X0060482Y0188488D03*
X0060482Y0187208D03*
X0060482Y0187110D03*
X0060384Y0187011D03*
X0062451Y0186913D03*
X0062549Y0186814D03*
X0064321Y0186716D03*
X0064419Y0188881D03*
X0062549Y0188881D03*
X0062451Y0188783D03*
X0042274Y0203350D03*
X0043258Y0205220D03*
X0043356Y0205417D03*
X0043356Y0205515D03*
X0043356Y0205614D03*
X0043455Y0205810D03*
X0043455Y0205909D03*
X0043455Y0206007D03*
X0043455Y0206106D03*
X0043455Y0206204D03*
X0043553Y0206598D03*
X0043553Y0206696D03*
X0043553Y0206795D03*
X0043553Y0206893D03*
X0043553Y0206992D03*
X0043553Y0207090D03*
X0043455Y0207582D03*
X0043455Y0207681D03*
X0043455Y0207779D03*
X0043455Y0207877D03*
X0043455Y0207976D03*
X0043356Y0208074D03*
X0043356Y0208173D03*
X0043356Y0208271D03*
X0043356Y0208370D03*
X0043258Y0208566D03*
X0043258Y0208665D03*
X0043159Y0208862D03*
X0043159Y0208960D03*
X0043061Y0209157D03*
X0041683Y0211618D03*
X0041683Y0211716D03*
D25*
X0039665Y0203940D03*
X0035925Y0203940D03*
X0035925Y0201873D03*
X0034449Y0200496D03*
X0034843Y0199413D03*
X0032579Y0202267D03*
X0030709Y0200594D03*
X0030610Y0198527D03*
X0030709Y0198429D03*
X0032874Y0194393D03*
X0032776Y0194295D03*
X0032776Y0192129D03*
X0032874Y0192031D03*
X0036516Y0192129D03*
X0037303Y0190653D03*
X0035433Y0188881D03*
X0035433Y0186814D03*
X0035531Y0186716D03*
X0039173Y0186814D03*
X0044783Y0190358D03*
X0044882Y0190456D03*
X0044882Y0192523D03*
X0044783Y0192622D03*
X0046260Y0193704D03*
X0046260Y0195771D03*
X0046358Y0195870D03*
X0042028Y0195968D03*
X0041929Y0195870D03*
X0042126Y0197936D03*
X0042028Y0198035D03*
X0043406Y0199314D03*
X0043307Y0199413D03*
X0042913Y0200496D03*
X0040157Y0199807D03*
X0037795Y0197051D03*
X0038287Y0195968D03*
X0038386Y0195870D03*
X0036614Y0194098D03*
X0036516Y0194196D03*
X0041142Y0192622D03*
X0047146Y0189570D03*
X0048622Y0187208D03*
X0048327Y0185732D03*
X0047146Y0186519D03*
X0054134Y0186125D03*
X0058071Y0186814D03*
X0059449Y0186125D03*
X0058071Y0188881D03*
X0050000Y0193606D03*
X0050098Y0195673D03*
X0050000Y0195771D03*
X0047047Y0199216D03*
X0047146Y0199314D03*
X0047146Y0201381D03*
D26*
X0045276Y0202366D03*
X0045276Y0198330D03*
X0048130Y0196755D03*
X0048130Y0192720D03*
X0043012Y0193507D03*
X0040157Y0195082D03*
X0040157Y0199019D03*
X0037795Y0200889D03*
X0037795Y0204925D03*
X0032579Y0201480D03*
X0034646Y0191244D03*
X0037303Y0185830D03*
X0049213Y0210141D03*
D27*
X0041683Y0212011D03*
X0042274Y0203055D03*
X0053691Y0188783D03*
X0046309Y0185830D03*
D28*
X0046407Y0187208D03*
X0046407Y0188881D03*
X0047195Y0189669D03*
X0045128Y0191047D03*
X0045128Y0191145D03*
X0045226Y0191440D03*
X0045226Y0191539D03*
X0045128Y0191933D03*
X0046014Y0194196D03*
X0046014Y0194295D03*
X0046014Y0194393D03*
X0045915Y0194688D03*
X0046014Y0195082D03*
X0046014Y0195181D03*
X0042274Y0196460D03*
X0042372Y0196854D03*
X0042372Y0196952D03*
X0042372Y0197051D03*
X0042372Y0197149D03*
X0043061Y0200102D03*
X0043061Y0200200D03*
X0043061Y0200299D03*
X0043061Y0200397D03*
X0040010Y0202956D03*
X0040010Y0203055D03*
X0040010Y0203153D03*
X0039911Y0203448D03*
X0042372Y0203547D03*
X0042372Y0203645D03*
X0042766Y0204236D03*
X0042864Y0204334D03*
X0042864Y0204433D03*
X0042963Y0204531D03*
X0043061Y0204728D03*
X0047392Y0200889D03*
X0047392Y0200791D03*
X0047490Y0200397D03*
X0047392Y0200003D03*
X0047392Y0199905D03*
X0050344Y0195082D03*
X0050344Y0194984D03*
X0050344Y0194885D03*
X0050344Y0194787D03*
X0050344Y0194688D03*
X0050344Y0194590D03*
X0050344Y0194492D03*
X0050344Y0194393D03*
X0051033Y0188389D03*
X0048770Y0187405D03*
X0048573Y0185830D03*
X0053691Y0187602D03*
X0054183Y0186027D03*
X0055561Y0187602D03*
X0055463Y0188783D03*
X0057923Y0188685D03*
X0057923Y0187011D03*
X0060187Y0186814D03*
X0060187Y0188881D03*
X0063533Y0189669D03*
X0064321Y0188980D03*
X0042963Y0188685D03*
X0040797Y0191145D03*
X0040797Y0191244D03*
X0040797Y0191342D03*
X0040797Y0191440D03*
X0040797Y0191539D03*
X0040797Y0191637D03*
X0040797Y0191736D03*
X0040797Y0191834D03*
X0040896Y0192129D03*
X0039518Y0187996D03*
X0039518Y0187897D03*
X0039518Y0187799D03*
X0039518Y0187700D03*
X0039518Y0187602D03*
X0039419Y0187307D03*
X0035187Y0187405D03*
X0035089Y0187700D03*
X0035089Y0187799D03*
X0035089Y0187897D03*
X0035089Y0187996D03*
X0035187Y0188389D03*
X0036860Y0192917D03*
X0036860Y0193015D03*
X0036860Y0193114D03*
X0036860Y0193212D03*
X0036860Y0193310D03*
X0036860Y0193409D03*
X0032530Y0193606D03*
X0032530Y0193704D03*
X0032431Y0193310D03*
X0032431Y0193212D03*
X0032431Y0193114D03*
X0032530Y0192818D03*
X0032530Y0192720D03*
X0037943Y0196854D03*
X0037943Y0196952D03*
X0034695Y0199905D03*
X0035679Y0202366D03*
X0035581Y0202661D03*
X0035581Y0202759D03*
X0035581Y0202858D03*
X0035581Y0202956D03*
X0035581Y0203055D03*
X0035581Y0203153D03*
X0035679Y0203448D03*
X0030364Y0199807D03*
X0030364Y0199708D03*
X0030364Y0199610D03*
X0030364Y0199511D03*
X0030364Y0199413D03*
X0030364Y0199314D03*
X0030364Y0199216D03*
X0042864Y0209649D03*
X0042766Y0209846D03*
X0042667Y0210043D03*
X0042569Y0210240D03*
X0042470Y0210338D03*
X0042470Y0210436D03*
X0042372Y0210535D03*
X0042274Y0210633D03*
X0042175Y0210830D03*
X0041781Y0211421D03*
X0049065Y0210535D03*
D29*
X0045226Y0198429D03*
X0048179Y0196657D03*
X0034695Y0195181D03*
X0032530Y0197543D03*
X0037352Y0185929D03*
D30*
X0046161Y0185929D03*
D31*
X0047146Y0186322D03*
X0052264Y0189669D03*
X0054134Y0185929D03*
X0059449Y0185929D03*
X0059449Y0189767D03*
X0063484Y0189767D03*
X0064469Y0186814D03*
X0063583Y0185929D03*
D32*
X0048130Y0192818D03*
X0048130Y0196559D03*
X0045276Y0198527D03*
X0045276Y0202267D03*
X0040157Y0198921D03*
X0037795Y0200988D03*
X0037795Y0201086D03*
X0037795Y0204826D03*
X0032579Y0201381D03*
X0032579Y0197641D03*
X0034646Y0195082D03*
X0034646Y0191342D03*
X0037303Y0186027D03*
X0043012Y0193409D03*
X0040157Y0195181D03*
D33*
X0042224Y0196263D03*
X0042224Y0196362D03*
X0042323Y0196559D03*
X0042323Y0196657D03*
X0042323Y0196755D03*
X0042323Y0197248D03*
X0042323Y0197346D03*
X0042323Y0197444D03*
X0042224Y0197543D03*
X0042224Y0197641D03*
X0043209Y0199610D03*
X0043209Y0199708D03*
X0043110Y0199807D03*
X0043110Y0199905D03*
X0043110Y0200003D03*
X0040059Y0202858D03*
X0039961Y0203251D03*
X0039961Y0203350D03*
X0039862Y0203547D03*
X0039862Y0203645D03*
X0042421Y0203744D03*
X0042520Y0203842D03*
X0042520Y0203940D03*
X0042618Y0204039D03*
X0042717Y0204137D03*
X0037795Y0205712D03*
X0035728Y0203645D03*
X0035728Y0203547D03*
X0035630Y0203350D03*
X0035630Y0203251D03*
X0035630Y0202562D03*
X0035630Y0202464D03*
X0035728Y0202267D03*
X0035728Y0202169D03*
X0034646Y0200102D03*
X0034646Y0200003D03*
X0034744Y0199807D03*
X0034744Y0199708D03*
X0034744Y0199610D03*
X0034744Y0199511D03*
X0030512Y0198822D03*
X0030512Y0198724D03*
X0030413Y0198921D03*
X0030413Y0199019D03*
X0030413Y0199118D03*
X0030413Y0199905D03*
X0030413Y0200003D03*
X0030413Y0200102D03*
X0030512Y0200200D03*
X0030512Y0200299D03*
X0032677Y0194098D03*
X0032579Y0193901D03*
X0032579Y0193803D03*
X0032480Y0193507D03*
X0032480Y0193409D03*
X0032480Y0193015D03*
X0032480Y0192917D03*
X0032579Y0192622D03*
X0032579Y0192523D03*
X0032677Y0192326D03*
X0036713Y0192425D03*
X0036713Y0192523D03*
X0036811Y0192622D03*
X0036811Y0192720D03*
X0036811Y0192818D03*
X0036811Y0193507D03*
X0036811Y0193606D03*
X0036811Y0193704D03*
X0036713Y0193901D03*
X0038091Y0196362D03*
X0038091Y0196460D03*
X0037992Y0196559D03*
X0037992Y0196657D03*
X0037992Y0196755D03*
X0037795Y0200102D03*
X0046161Y0195574D03*
X0046063Y0195377D03*
X0046063Y0195279D03*
X0045965Y0194984D03*
X0045965Y0194885D03*
X0045965Y0194787D03*
X0045965Y0194590D03*
X0045965Y0194492D03*
X0046063Y0194098D03*
X0046063Y0193999D03*
X0045079Y0192228D03*
X0045079Y0192129D03*
X0045079Y0192031D03*
X0045177Y0191834D03*
X0045177Y0191736D03*
X0045177Y0191637D03*
X0045177Y0191342D03*
X0045177Y0191244D03*
X0045079Y0190948D03*
X0045079Y0190850D03*
X0044980Y0190653D03*
X0040846Y0190948D03*
X0040846Y0191047D03*
X0040846Y0191933D03*
X0040846Y0192031D03*
X0040945Y0192228D03*
X0039370Y0188586D03*
X0039370Y0188488D03*
X0039469Y0188389D03*
X0039469Y0188291D03*
X0039469Y0188192D03*
X0039469Y0188094D03*
X0039469Y0187503D03*
X0039469Y0187405D03*
X0039370Y0187208D03*
X0039370Y0187110D03*
X0035236Y0187110D03*
X0035236Y0187208D03*
X0035236Y0187307D03*
X0035138Y0187503D03*
X0035138Y0187602D03*
X0035138Y0188094D03*
X0035138Y0188192D03*
X0035138Y0188291D03*
X0035236Y0188488D03*
X0035236Y0188586D03*
X0048720Y0188783D03*
X0048720Y0187307D03*
X0051083Y0188488D03*
X0050197Y0193901D03*
X0050197Y0193999D03*
X0050295Y0194098D03*
X0050295Y0194196D03*
X0050295Y0194295D03*
X0050295Y0195181D03*
X0050295Y0195279D03*
X0050197Y0195377D03*
X0050197Y0195476D03*
X0047244Y0199511D03*
X0047343Y0199708D03*
X0047343Y0199807D03*
X0047441Y0200102D03*
X0047441Y0200200D03*
X0047441Y0200299D03*
X0047441Y0200496D03*
X0047441Y0200594D03*
X0047441Y0200692D03*
X0047343Y0200988D03*
X0047343Y0201086D03*
X0042224Y0210732D03*
X0042126Y0210929D03*
X0042028Y0211027D03*
X0041929Y0211125D03*
X0041831Y0211322D03*
X0057972Y0188783D03*
X0057972Y0186913D03*
X0062697Y0188980D03*
X0063583Y0186027D03*
D34*
X0048130Y0192917D03*
X0048130Y0196460D03*
X0045276Y0198625D03*
X0040157Y0198822D03*
X0040157Y0195279D03*
X0034646Y0194984D03*
X0034646Y0191440D03*
X0037303Y0186125D03*
X0032579Y0201283D03*
X0037795Y0204629D03*
X0037795Y0204728D03*
D35*
X0037795Y0204531D03*
X0032579Y0201086D03*
X0040157Y0195476D03*
X0040157Y0195377D03*
X0043012Y0193114D03*
X0048130Y0193114D03*
X0037303Y0186224D03*
X0034646Y0191637D03*
X0049311Y0210043D03*
D36*
X0047047Y0204629D03*
X0045276Y0203055D03*
X0042618Y0200692D03*
X0040157Y0199708D03*
X0035138Y0199216D03*
X0032579Y0202169D03*
X0033268Y0191736D03*
X0034646Y0190555D03*
X0040748Y0190555D03*
X0047146Y0189373D03*
X0047146Y0186716D03*
X0051476Y0188783D03*
X0051476Y0188881D03*
X0051476Y0188980D03*
X0051476Y0189078D03*
X0048130Y0192031D03*
X0049508Y0193212D03*
X0046752Y0196165D03*
X0063583Y0186224D03*
D37*
X0048179Y0196263D03*
X0045226Y0198822D03*
X0042963Y0193015D03*
X0034695Y0194787D03*
X0037352Y0186322D03*
D38*
X0037352Y0190555D03*
X0036073Y0191736D03*
X0036171Y0194590D03*
X0038730Y0195574D03*
X0041585Y0195574D03*
X0042963Y0194196D03*
X0044439Y0190062D03*
X0049557Y0196165D03*
X0046703Y0198921D03*
X0043848Y0198921D03*
X0041585Y0198429D03*
X0040404Y0202661D03*
X0034006Y0200889D03*
X0031152Y0198035D03*
X0059498Y0189373D03*
X0059498Y0186322D03*
D39*
X0063632Y0186421D03*
X0063533Y0189177D03*
X0054774Y0188881D03*
X0054675Y0188980D03*
X0054675Y0189078D03*
X0048179Y0192129D03*
X0040699Y0190358D03*
X0037352Y0197346D03*
D40*
X0040896Y0202267D03*
X0042963Y0193803D03*
X0047687Y0189275D03*
X0047687Y0189177D03*
X0047687Y0186913D03*
X0059006Y0186618D03*
X0059006Y0186519D03*
X0059006Y0189078D03*
X0059006Y0189177D03*
X0063435Y0187503D03*
D41*
X0049951Y0193507D03*
X0049951Y0195870D03*
X0049852Y0195968D03*
X0046407Y0193507D03*
X0046309Y0193606D03*
X0044734Y0192720D03*
X0044734Y0190259D03*
X0048179Y0191933D03*
X0041191Y0192720D03*
X0040797Y0190751D03*
X0039124Y0186716D03*
X0039026Y0186618D03*
X0035581Y0186618D03*
X0035482Y0188980D03*
X0035581Y0189078D03*
X0034695Y0190456D03*
X0036368Y0191933D03*
X0036467Y0192031D03*
X0036467Y0194295D03*
X0038435Y0195771D03*
X0041880Y0195771D03*
X0041978Y0198133D03*
X0043455Y0199216D03*
X0043553Y0199118D03*
X0046998Y0201578D03*
X0047096Y0201480D03*
X0045226Y0203153D03*
X0039616Y0204039D03*
X0039518Y0204137D03*
X0036073Y0204137D03*
X0035974Y0204039D03*
X0035974Y0201775D03*
X0036073Y0201677D03*
X0034400Y0200594D03*
X0030758Y0200692D03*
X0030758Y0198330D03*
X0030856Y0198232D03*
D42*
X0030906Y0200791D03*
X0034252Y0200692D03*
X0036122Y0204236D03*
X0039469Y0204236D03*
X0040256Y0202759D03*
X0041831Y0198232D03*
X0040157Y0194295D03*
X0041339Y0192818D03*
X0044685Y0192818D03*
X0046457Y0193409D03*
X0046457Y0195968D03*
X0049803Y0193409D03*
X0051280Y0188685D03*
X0054528Y0189570D03*
X0059449Y0189472D03*
X0063484Y0189570D03*
X0047146Y0186618D03*
X0044587Y0190161D03*
X0039370Y0188783D03*
X0035630Y0189177D03*
X0032972Y0191933D03*
X0032972Y0194492D03*
X0036417Y0194393D03*
X0046949Y0199118D03*
X0046949Y0201677D03*
D43*
X0047195Y0201283D03*
X0047293Y0201185D03*
X0047293Y0199610D03*
X0047195Y0199413D03*
X0046211Y0195673D03*
X0046112Y0195476D03*
X0046112Y0193901D03*
X0046211Y0193803D03*
X0044931Y0192425D03*
X0045030Y0192326D03*
X0045030Y0190751D03*
X0044931Y0190555D03*
X0040896Y0190850D03*
X0040994Y0192326D03*
X0040994Y0192425D03*
X0041093Y0192523D03*
X0042963Y0194295D03*
X0042077Y0196066D03*
X0042175Y0196165D03*
X0042175Y0197740D03*
X0042175Y0197838D03*
X0043258Y0199511D03*
X0039813Y0203744D03*
X0039715Y0203842D03*
X0035876Y0203842D03*
X0035778Y0203744D03*
X0035778Y0202070D03*
X0035876Y0201972D03*
X0034498Y0200397D03*
X0034596Y0200299D03*
X0034596Y0200200D03*
X0030659Y0200496D03*
X0030561Y0200397D03*
X0030561Y0198625D03*
X0032726Y0194196D03*
X0032628Y0193999D03*
X0032628Y0192425D03*
X0032726Y0192228D03*
X0036565Y0192228D03*
X0036663Y0192326D03*
X0036762Y0193803D03*
X0036663Y0193999D03*
X0038238Y0196066D03*
X0038140Y0196165D03*
X0038140Y0196263D03*
X0039321Y0188685D03*
X0039321Y0187011D03*
X0039222Y0186913D03*
X0035384Y0186913D03*
X0035285Y0187011D03*
X0035285Y0188685D03*
X0035384Y0188783D03*
X0048671Y0188881D03*
X0051132Y0188586D03*
X0055463Y0186618D03*
X0059498Y0189570D03*
X0062746Y0186716D03*
X0050148Y0193803D03*
X0050049Y0193704D03*
X0050148Y0195574D03*
X0041880Y0211224D03*
D44*
X0045276Y0202858D03*
X0040157Y0199511D03*
X0037205Y0197444D03*
X0034350Y0195870D03*
X0032874Y0196854D03*
X0032579Y0201972D03*
X0040157Y0194590D03*
X0040650Y0190259D03*
X0039370Y0189177D03*
X0034646Y0190751D03*
X0048130Y0192228D03*
X0054724Y0187897D03*
X0063583Y0186618D03*
D45*
X0063484Y0187602D03*
X0063484Y0187700D03*
X0063484Y0187799D03*
X0063484Y0187897D03*
X0063484Y0187996D03*
X0063484Y0188094D03*
X0059055Y0188980D03*
X0059055Y0186716D03*
X0047638Y0187011D03*
X0047638Y0189078D03*
X0048130Y0192425D03*
X0047539Y0197346D03*
X0045866Y0197740D03*
X0045276Y0202661D03*
X0046949Y0204826D03*
X0049114Y0210240D03*
X0040157Y0199314D03*
X0035728Y0198822D03*
X0032579Y0197248D03*
X0034646Y0195476D03*
X0034646Y0190948D03*
X0040157Y0194787D03*
X0032579Y0201775D03*
D46*
X0037451Y0197248D03*
X0039419Y0188980D03*
X0047096Y0186814D03*
X0054478Y0189472D03*
X0046801Y0193212D03*
X0046604Y0201873D03*
X0049065Y0210436D03*
X0063533Y0189373D03*
D47*
X0064518Y0186913D03*
X0052411Y0189767D03*
X0042963Y0194393D03*
D48*
X0053494Y0188685D03*
X0064518Y0187011D03*
D49*
X0063484Y0189275D03*
X0054921Y0188094D03*
X0054626Y0189177D03*
X0043012Y0194098D03*
X0037303Y0190456D03*
X0034646Y0190653D03*
X0040157Y0199610D03*
X0042520Y0200791D03*
X0045276Y0202956D03*
X0037795Y0205515D03*
X0032579Y0202070D03*
D50*
X0032530Y0202366D03*
X0042274Y0203153D03*
X0045226Y0203251D03*
X0041683Y0211913D03*
X0047195Y0189767D03*
X0052215Y0189570D03*
X0054380Y0188192D03*
D51*
X0041289Y0189275D03*
D52*
X0040354Y0189964D03*
X0040059Y0189570D03*
X0039961Y0189472D03*
X0039862Y0189373D03*
D53*
X0034646Y0190358D03*
X0040157Y0199905D03*
X0048130Y0191834D03*
X0052165Y0189472D03*
D54*
X0040305Y0189866D03*
X0040207Y0189767D03*
X0040108Y0189669D03*
D55*
X0038976Y0190062D03*
D56*
X0038976Y0190161D03*
D57*
X0037303Y0190751D03*
D58*
X0034695Y0190850D03*
X0034498Y0195673D03*
X0037057Y0197543D03*
X0035581Y0198921D03*
X0032530Y0201873D03*
X0045226Y0202759D03*
X0046014Y0197641D03*
X0047392Y0197444D03*
X0048179Y0192326D03*
D59*
X0048130Y0192523D03*
X0043012Y0193704D03*
X0040157Y0194885D03*
X0040157Y0199216D03*
X0037795Y0200692D03*
X0037795Y0205122D03*
X0032579Y0201677D03*
X0045276Y0202562D03*
X0034646Y0191047D03*
D60*
X0034695Y0191539D03*
X0034695Y0194885D03*
X0032530Y0201185D03*
X0045226Y0198724D03*
X0048179Y0196362D03*
X0048179Y0193015D03*
X0042963Y0193212D03*
X0046801Y0205023D03*
D61*
X0042963Y0193310D03*
D62*
X0034646Y0194688D03*
X0032579Y0200988D03*
X0037795Y0204433D03*
D63*
X0032530Y0197444D03*
X0034695Y0195279D03*
X0045325Y0198232D03*
X0046703Y0197543D03*
X0048081Y0196854D03*
X0046900Y0204925D03*
D64*
X0045522Y0198035D03*
X0045620Y0197936D03*
X0047785Y0197149D03*
X0047884Y0197051D03*
X0034695Y0195377D03*
X0032530Y0197346D03*
D65*
X0034547Y0197740D03*
X0043307Y0202070D03*
D66*
X0043307Y0201972D03*
X0038189Y0198724D03*
X0038189Y0198625D03*
X0034547Y0197838D03*
D67*
X0034498Y0197936D03*
X0039715Y0201381D03*
D68*
X0035974Y0198035D03*
X0047293Y0205909D03*
X0047392Y0206007D03*
X0048671Y0209059D03*
D69*
X0048868Y0209354D03*
X0047195Y0205712D03*
X0041585Y0201677D03*
X0041388Y0201578D03*
X0036467Y0198330D03*
X0036171Y0198133D03*
D70*
X0036319Y0198232D03*
X0047047Y0205515D03*
X0047146Y0205614D03*
X0048917Y0209452D03*
D71*
X0048819Y0209255D03*
X0048720Y0209157D03*
X0047244Y0205810D03*
X0041732Y0201775D03*
X0041240Y0201480D03*
X0036614Y0198429D03*
D72*
X0038189Y0198527D03*
D73*
X0039715Y0201185D03*
X0043356Y0202169D03*
D74*
X0039715Y0201283D03*
D75*
X0041929Y0201873D03*
X0047441Y0206106D03*
X0047441Y0206204D03*
X0047539Y0206303D03*
X0048524Y0208763D03*
X0048622Y0208960D03*
D76*
X0049311Y0209944D03*
X0046752Y0205122D03*
D77*
X0046801Y0205220D03*
D78*
X0046900Y0205318D03*
X0049163Y0209748D03*
D79*
X0046949Y0205417D03*
D80*
X0047589Y0206401D03*
X0048376Y0208468D03*
X0048474Y0208665D03*
X0048573Y0208862D03*
D81*
X0048425Y0208566D03*
X0048327Y0208370D03*
X0047736Y0206795D03*
X0047736Y0206696D03*
X0047638Y0206598D03*
X0047638Y0206499D03*
D82*
X0047785Y0206893D03*
X0047884Y0207090D03*
X0047884Y0207188D03*
X0048081Y0207681D03*
X0048179Y0207976D03*
X0048179Y0208074D03*
X0048278Y0208173D03*
X0048278Y0208271D03*
D83*
X0048130Y0207877D03*
X0048130Y0207779D03*
X0048031Y0207582D03*
X0048031Y0207484D03*
X0047933Y0207385D03*
X0047933Y0207287D03*
X0047835Y0206992D03*
D84*
X0048967Y0209551D03*
X0049065Y0209649D03*
D85*
X0049213Y0209846D03*
D86*
X0078957Y0184059D03*
X0086043Y0184059D03*
X0059793Y0171559D03*
X0052707Y0171559D03*
X0047293Y0171559D03*
X0040207Y0171559D03*
X0040207Y0179059D03*
X0047293Y0179059D03*
X0047293Y0161559D03*
X0052707Y0161559D03*
X0059793Y0161559D03*
X0047293Y0154059D03*
X0040207Y0154059D03*
X0040207Y0161559D03*
X0062707Y0146559D03*
X0069793Y0146559D03*
X0068957Y0111559D03*
X0076043Y0111559D03*
X0082707Y0111559D03*
X0089793Y0111559D03*
X0076043Y0104059D03*
X0068957Y0104059D03*
X0118957Y0112809D03*
X0126043Y0112809D03*
X0126043Y0126559D03*
X0118957Y0126559D03*
X0145207Y0119059D03*
X0152293Y0119059D03*
X0152293Y0111559D03*
X0145207Y0111559D03*
X0145207Y0104059D03*
X0152293Y0104059D03*
X0152293Y0096559D03*
X0145207Y0096559D03*
X0145207Y0087809D03*
X0152293Y0087809D03*
X0152293Y0079059D03*
X0145207Y0079059D03*
X0071043Y0062809D03*
X0063957Y0062809D03*
X0118957Y0147809D03*
X0126043Y0147809D03*
X0126043Y0160309D03*
X0118957Y0160309D03*
X0118957Y0167809D03*
X0126043Y0167809D03*
X0246457Y0129059D03*
X0253543Y0129059D03*
D87*
X0167096Y0062809D03*
X0160404Y0062809D03*
X0160404Y0054059D03*
X0167096Y0054059D03*
X0167096Y0045309D03*
X0160404Y0045309D03*
X0160404Y0036559D03*
X0167096Y0036559D03*
X0125846Y0139059D03*
X0119154Y0139059D03*
D88*
X0098750Y0142765D03*
X0098750Y0149852D03*
X0116250Y0179265D03*
X0116250Y0186352D03*
X0161250Y0101352D03*
X0161250Y0094265D03*
X0130000Y0072602D03*
X0130000Y0065515D03*
X0121250Y0065515D03*
X0121250Y0072602D03*
X0091250Y0074265D03*
X0091250Y0081352D03*
X0150000Y0047602D03*
X0150000Y0040515D03*
X0255000Y0148015D03*
X0263750Y0148015D03*
X0263750Y0155102D03*
X0255000Y0155102D03*
D89*
X0045512Y0124059D03*
X0034488Y0124059D03*
D90*
X0118051Y0049059D03*
X0136949Y0049059D03*
D91*
X0073750Y0074610D03*
X0073750Y0093507D03*
D92*
X0055965Y0107809D03*
X0039035Y0107809D03*
D93*
X0122197Y0177803D02*
X0125303Y0177803D01*
X0122197Y0177803D02*
X0122197Y0180909D01*
X0125303Y0180909D01*
X0125303Y0177803D01*
X0125303Y0179133D02*
X0122197Y0179133D01*
X0122197Y0180463D02*
X0125303Y0180463D01*
X0125303Y0184708D02*
X0122197Y0184708D01*
X0122197Y0187814D01*
X0125303Y0187814D01*
X0125303Y0184708D01*
X0125303Y0186038D02*
X0122197Y0186038D01*
X0122197Y0187368D02*
X0125303Y0187368D01*
X0244994Y0138112D02*
X0244994Y0135006D01*
X0244994Y0138112D02*
X0248100Y0138112D01*
X0248100Y0135006D01*
X0244994Y0135006D01*
X0244994Y0136336D02*
X0248100Y0136336D01*
X0248100Y0137666D02*
X0244994Y0137666D01*
X0251900Y0138112D02*
X0251900Y0135006D01*
X0251900Y0138112D02*
X0255006Y0138112D01*
X0255006Y0135006D01*
X0251900Y0135006D01*
X0251900Y0136336D02*
X0255006Y0136336D01*
X0255006Y0137666D02*
X0251900Y0137666D01*
D94*
X0046805Y0139059D03*
X0030695Y0139059D03*
D95*
X0068514Y0137809D03*
X0068514Y0132809D03*
X0068514Y0127809D03*
X0068514Y0122809D03*
X0088986Y0122809D03*
X0088986Y0127809D03*
X0088986Y0132809D03*
X0088986Y0137809D03*
X0108514Y0099059D03*
X0108514Y0094059D03*
X0108514Y0089059D03*
X0108514Y0084059D03*
X0128986Y0084059D03*
X0128986Y0089059D03*
X0128986Y0094059D03*
X0128986Y0099059D03*
D96*
X0180000Y0056559D03*
X0190000Y0056559D03*
X0200000Y0056559D03*
X0210000Y0056559D03*
X0220000Y0056559D03*
X0230000Y0056559D03*
X0240000Y0056559D03*
X0250000Y0056559D03*
X0250000Y0046559D03*
X0240000Y0046559D03*
X0230000Y0046559D03*
X0220000Y0046559D03*
X0210000Y0046559D03*
X0200000Y0046559D03*
X0190000Y0046559D03*
X0180000Y0046559D03*
X0180000Y0036559D03*
X0190000Y0036559D03*
X0200000Y0036559D03*
X0210000Y0036559D03*
X0220000Y0036559D03*
X0230000Y0036559D03*
X0240000Y0036559D03*
X0250000Y0036559D03*
X0245000Y0169059D03*
X0235000Y0169059D03*
X0225000Y0169059D03*
X0215000Y0169059D03*
X0205000Y0169059D03*
X0195000Y0169059D03*
X0185000Y0169059D03*
X0175000Y0169059D03*
X0165000Y0169059D03*
X0155000Y0169059D03*
X0145000Y0169059D03*
X0135000Y0169059D03*
X0135000Y0179059D03*
X0145000Y0179059D03*
X0145000Y0189059D03*
X0135000Y0189059D03*
X0155000Y0189059D03*
X0165000Y0189059D03*
X0175000Y0189059D03*
X0185000Y0189059D03*
X0195000Y0189059D03*
X0205000Y0189059D03*
X0215000Y0189059D03*
X0225000Y0189059D03*
X0235000Y0189059D03*
X0245000Y0189059D03*
X0255000Y0189059D03*
X0265000Y0189059D03*
X0265000Y0179059D03*
X0255000Y0179059D03*
X0245000Y0179059D03*
X0235000Y0179059D03*
X0225000Y0179059D03*
X0215000Y0179059D03*
X0205000Y0179059D03*
X0195000Y0179059D03*
X0185000Y0179059D03*
X0175000Y0179059D03*
X0165000Y0179059D03*
X0155000Y0179059D03*
X0255000Y0169059D03*
X0265000Y0169059D03*
D97*
X0047126Y0018055D03*
X0058937Y0036559D03*
X0035315Y0036559D03*
D98*
X0032933Y0160190D03*
X0032933Y0162749D03*
X0032933Y0165309D03*
X0032933Y0167868D03*
X0032933Y0170427D03*
D99*
X0022500Y0181057D03*
X0022500Y0149560D03*
D100*
X0022500Y0160309D03*
X0022500Y0170309D03*
D101*
X0265000Y0088370D03*
X0265000Y0080496D03*
X0265000Y0072622D03*
X0265000Y0064748D03*
D102*
X0275000Y0036559D03*
X0275000Y0146559D03*
X0075000Y0206559D03*
X0070000Y0016559D03*
D103*
X0125000Y0016559D03*
X0135000Y0016559D03*
X0145000Y0016559D03*
X0155000Y0016559D03*
X0165000Y0016559D03*
X0175000Y0016559D03*
X0185000Y0016559D03*
X0195000Y0016559D03*
X0215000Y0016559D03*
X0225000Y0016559D03*
X0235000Y0016559D03*
X0245000Y0016559D03*
X0255000Y0016559D03*
X0265000Y0016559D03*
X0265551Y0106362D03*
X0275551Y0106362D03*
X0275551Y0116362D03*
X0275551Y0126362D03*
X0265551Y0126362D03*
X0265551Y0116362D03*
X0265000Y0206559D03*
X0255000Y0206559D03*
X0245000Y0206559D03*
X0235000Y0206559D03*
X0225000Y0206559D03*
X0215000Y0206559D03*
X0205000Y0206559D03*
X0195000Y0206559D03*
X0179000Y0206559D03*
X0169000Y0206559D03*
X0159000Y0206559D03*
X0149000Y0206559D03*
X0139000Y0206559D03*
X0129000Y0206559D03*
X0119000Y0206559D03*
X0109000Y0206559D03*
X0099000Y0206559D03*
X0089000Y0206559D03*
D104*
X0083657Y0051309D03*
X0103343Y0051309D03*
D105*
X0103366Y0160309D03*
X0103366Y0167809D03*
X0111634Y0167809D03*
X0111634Y0160309D03*
D106*
X0106358Y0148868D03*
X0106358Y0143749D03*
X0113642Y0146309D03*
D107*
X0109331Y0134049D03*
X0100669Y0130309D03*
X0109331Y0126568D03*
X0109331Y0120299D03*
X0100669Y0116559D03*
X0109331Y0112818D03*
D108*
X0028140Y0115417D03*
X0028140Y0103606D03*
X0028140Y0097700D03*
D109*
X0017313Y0092188D03*
X0017313Y0120929D03*
D110*
X0025581Y0120929D03*
X0025581Y0092188D03*
D111*
X0021250Y0100653D03*
X0021250Y0112464D03*
D112*
X0085094Y0016361D03*
X0104779Y0016361D03*
D113*
X0108716Y0026203D03*
X0081157Y0026203D03*
D114*
X0118750Y0091559D03*
D115*
X0091250Y0154759D03*
X0088750Y0154759D03*
X0086250Y0154759D03*
X0083750Y0154759D03*
X0081250Y0154759D03*
X0078750Y0154759D03*
X0076250Y0154759D03*
X0073750Y0154759D03*
X0071250Y0154759D03*
X0068750Y0154759D03*
X0068750Y0175859D03*
X0071250Y0175859D03*
X0073750Y0175859D03*
X0076250Y0175859D03*
X0078750Y0175859D03*
X0081250Y0175859D03*
X0083750Y0175859D03*
X0086250Y0175859D03*
X0088750Y0175859D03*
X0091250Y0175859D03*
D116*
X0052200Y0080659D03*
X0052200Y0071559D03*
X0052200Y0062459D03*
D117*
X0027799Y0071559D03*
D118*
G36*
X0178606Y0110164D02*
X0182494Y0114052D01*
X0184404Y0112142D01*
X0180516Y0108254D01*
X0178606Y0110164D01*
G37*
G36*
X0180833Y0107937D02*
X0184721Y0111825D01*
X0186631Y0109915D01*
X0182743Y0106027D01*
X0180833Y0107937D01*
G37*
G36*
X0183060Y0105710D02*
X0186948Y0109598D01*
X0188858Y0107688D01*
X0184970Y0103800D01*
X0183060Y0105710D01*
G37*
G36*
X0185287Y0103483D02*
X0189175Y0107371D01*
X0191085Y0105461D01*
X0187197Y0101573D01*
X0185287Y0103483D01*
G37*
G36*
X0187514Y0101256D02*
X0191402Y0105144D01*
X0193312Y0103234D01*
X0189424Y0099346D01*
X0187514Y0101256D01*
G37*
G36*
X0189742Y0099029D02*
X0193630Y0102917D01*
X0195540Y0101007D01*
X0191652Y0097119D01*
X0189742Y0099029D01*
G37*
G36*
X0191969Y0096802D02*
X0195857Y0100690D01*
X0197767Y0098780D01*
X0193879Y0094892D01*
X0191969Y0096802D01*
G37*
G36*
X0194196Y0094575D02*
X0198084Y0098463D01*
X0199994Y0096553D01*
X0196106Y0092665D01*
X0194196Y0094575D01*
G37*
G36*
X0218096Y0118475D02*
X0221984Y0122363D01*
X0223894Y0120453D01*
X0220006Y0116565D01*
X0218096Y0118475D01*
G37*
G36*
X0215869Y0120702D02*
X0219757Y0124590D01*
X0221667Y0122680D01*
X0217779Y0118792D01*
X0215869Y0120702D01*
G37*
G36*
X0213642Y0122929D02*
X0217530Y0126817D01*
X0219440Y0124907D01*
X0215552Y0121019D01*
X0213642Y0122929D01*
G37*
G36*
X0211415Y0125156D02*
X0215303Y0129044D01*
X0217213Y0127134D01*
X0213325Y0123246D01*
X0211415Y0125156D01*
G37*
G36*
X0209188Y0127383D02*
X0213076Y0131271D01*
X0214986Y0129361D01*
X0211098Y0125473D01*
X0209188Y0127383D01*
G37*
G36*
X0206960Y0129610D02*
X0210848Y0133498D01*
X0212758Y0131588D01*
X0208870Y0127700D01*
X0206960Y0129610D01*
G37*
G36*
X0204733Y0131837D02*
X0208621Y0135725D01*
X0210531Y0133815D01*
X0206643Y0129927D01*
X0204733Y0131837D01*
G37*
G36*
X0202506Y0134065D02*
X0206394Y0137953D01*
X0208304Y0136043D01*
X0204416Y0132155D01*
X0202506Y0134065D01*
G37*
D119*
G36*
X0194196Y0136043D02*
X0196106Y0137953D01*
X0199994Y0134065D01*
X0198084Y0132155D01*
X0194196Y0136043D01*
G37*
G36*
X0191969Y0133815D02*
X0193879Y0135725D01*
X0197767Y0131837D01*
X0195857Y0129927D01*
X0191969Y0133815D01*
G37*
G36*
X0189742Y0131588D02*
X0191652Y0133498D01*
X0195540Y0129610D01*
X0193630Y0127700D01*
X0189742Y0131588D01*
G37*
G36*
X0187514Y0129361D02*
X0189424Y0131271D01*
X0193312Y0127383D01*
X0191402Y0125473D01*
X0187514Y0129361D01*
G37*
G36*
X0185287Y0127134D02*
X0187197Y0129044D01*
X0191085Y0125156D01*
X0189175Y0123246D01*
X0185287Y0127134D01*
G37*
G36*
X0183060Y0124907D02*
X0184970Y0126817D01*
X0188858Y0122929D01*
X0186948Y0121019D01*
X0183060Y0124907D01*
G37*
G36*
X0180833Y0122680D02*
X0182743Y0124590D01*
X0186631Y0120702D01*
X0184721Y0118792D01*
X0180833Y0122680D01*
G37*
G36*
X0178606Y0120453D02*
X0180516Y0122363D01*
X0184404Y0118475D01*
X0182494Y0116565D01*
X0178606Y0120453D01*
G37*
G36*
X0204733Y0098780D02*
X0206643Y0100690D01*
X0210531Y0096802D01*
X0208621Y0094892D01*
X0204733Y0098780D01*
G37*
G36*
X0202506Y0096553D02*
X0204416Y0098463D01*
X0208304Y0094575D01*
X0206394Y0092665D01*
X0202506Y0096553D01*
G37*
G36*
X0206960Y0101007D02*
X0208870Y0102917D01*
X0212758Y0099029D01*
X0210848Y0097119D01*
X0206960Y0101007D01*
G37*
G36*
X0209188Y0103234D02*
X0211098Y0105144D01*
X0214986Y0101256D01*
X0213076Y0099346D01*
X0209188Y0103234D01*
G37*
G36*
X0211415Y0105461D02*
X0213325Y0107371D01*
X0217213Y0103483D01*
X0215303Y0101573D01*
X0211415Y0105461D01*
G37*
G36*
X0213642Y0107688D02*
X0215552Y0109598D01*
X0219440Y0105710D01*
X0217530Y0103800D01*
X0213642Y0107688D01*
G37*
G36*
X0215869Y0109915D02*
X0217779Y0111825D01*
X0221667Y0107937D01*
X0219757Y0106027D01*
X0215869Y0109915D01*
G37*
G36*
X0218096Y0112142D02*
X0220006Y0114052D01*
X0223894Y0110164D01*
X0221984Y0108254D01*
X0218096Y0112142D01*
G37*
D120*
X0215066Y0134693D02*
X0219116Y0138743D01*
X0215775Y0142084D02*
X0211725Y0138034D01*
X0208384Y0141374D02*
X0212434Y0145424D01*
D121*
G36*
X0211035Y0147059D02*
X0220764Y0137330D01*
X0216493Y0133059D01*
X0206764Y0142788D01*
X0211035Y0147059D01*
G37*
D122*
X0213750Y0156559D03*
X0195394Y0142484D03*
X0191250Y0145309D03*
X0186250Y0145309D03*
X0181250Y0145309D03*
X0176250Y0145309D03*
X0170000Y0145309D03*
X0165000Y0144059D03*
X0158750Y0145309D03*
X0153750Y0141559D03*
X0142925Y0153447D03*
X0137500Y0145309D03*
X0132500Y0151559D03*
X0130000Y0160309D03*
X0113750Y0153559D03*
X0103000Y0153559D03*
X0093750Y0143809D03*
X0098794Y0134863D03*
X0118733Y0131179D03*
X0096250Y0114059D03*
X0097500Y0104059D03*
X0098750Y0099059D03*
X0092500Y0086559D03*
X0102000Y0075059D03*
X0108694Y0079614D03*
X0115000Y0079059D03*
X0123166Y0076860D03*
X0126250Y0080309D03*
X0133750Y0080309D03*
X0140000Y0076559D03*
X0138500Y0085559D03*
X0141000Y0100309D03*
X0138646Y0108188D03*
X0156250Y0111559D03*
X0157500Y0106559D03*
X0167500Y0101559D03*
X0173750Y0097809D03*
X0176250Y0101559D03*
X0180000Y0095309D03*
X0186250Y0094059D03*
X0175000Y0086559D03*
X0185000Y0081059D03*
X0193750Y0072809D03*
X0183750Y0071559D03*
X0168750Y0074059D03*
X0158750Y0074059D03*
X0140000Y0065309D03*
X0118750Y0101559D03*
X0081250Y0122809D03*
X0068750Y0141559D03*
X0077500Y0145309D03*
X0061500Y0155559D03*
X0051250Y0149059D03*
X0042500Y0149059D03*
X0060000Y0134059D03*
X0053750Y0132809D03*
X0077500Y0160309D03*
X0082500Y0167059D03*
X0085915Y0169718D03*
X0088750Y0160309D03*
X0098750Y0171559D03*
X0103750Y0177809D03*
X0091250Y0181309D03*
X0167500Y0124059D03*
X0163750Y0117809D03*
X0174500Y0114809D03*
X0185000Y0116559D03*
X0191250Y0115309D03*
X0205000Y0107809D03*
X0203750Y0104059D03*
X0222500Y0102809D03*
X0225000Y0106559D03*
X0225000Y0112809D03*
X0237000Y0109309D03*
X0241250Y0109559D03*
X0245000Y0111559D03*
X0237500Y0122809D03*
X0227500Y0122809D03*
X0223750Y0126559D03*
X0237500Y0132809D03*
X0235000Y0151559D03*
X0240000Y0151559D03*
X0225000Y0094059D03*
X0232500Y0087809D03*
X0223750Y0085309D03*
X0209500Y0074309D03*
X0206000Y0063059D03*
X0208750Y0029059D03*
X0202500Y0029059D03*
X0190000Y0029059D03*
X0218750Y0029059D03*
X0230000Y0029059D03*
X0238750Y0029059D03*
X0140000Y0024059D03*
X0128750Y0024059D03*
X0112500Y0011559D03*
X0071250Y0055309D03*
X0057500Y0055309D03*
X0055000Y0089059D03*
X0043750Y0089059D03*
X0056250Y0096559D03*
M02*
