%
M48
M72
T01C0.01969
T02C0.02756
T03C0.03150
T04C0.03543
T05C0.04000
T06C0.04724
T07C0.11800
T08C0.12500
%
T01
X91250Y181309
X103750Y177809
X98750Y171559
X85915Y169718
X82500Y167059
X77500Y160309
X88750Y160309
X103000Y153559
X113750Y153559
X130000Y160309
X132500Y151559
X137500Y145309
X142925Y153447
X158750Y145309
X153750Y141559
X165000Y144059
X170000Y145309
X176250Y145309
X181250Y145309
X186250Y145309
X191250Y145309
X195394Y142484
X213750Y156559
X235000Y151559
X240000Y151559
X237500Y132809
X237500Y122809
X227500Y122809
X223750Y126559
X225000Y112809
X225000Y106559
X222500Y102809
X225000Y94059
X232500Y87809
X223750Y85309
X209500Y74309
X206000Y63059
X193750Y72809
X183750Y71559
X185000Y81059
X175000Y86559
X180000Y95309
X186250Y94059
X176250Y101559
X173750Y97809
X167500Y101559
X157500Y106559
X156250Y111559
X163750Y117809
X167500Y124059
X174500Y114809
X185000Y116559
X191250Y115309
X205000Y107809
X203750Y104059
X237000Y109309
X241250Y109559
X245000Y111559
X168750Y74059
X158750Y74059
X140000Y76559
X133750Y80309
X138500Y85559
X126250Y80309
X123166Y76860
X115000Y79059
X108694Y79614
X102000Y75059
X92500Y86559
X98750Y99059
X97500Y104059
X96250Y114059
X81250Y122809
X98794Y134863
X93750Y143809
X77500Y145309
X68750Y141559
X60000Y134059
X53750Y132809
X51250Y149059
X42500Y149059
X61500Y155559
X118733Y131179
X138646Y108188
X141000Y100309
X118750Y101559
X140000Y65309
X190000Y29059
X202500Y29059
X208750Y29059
X218750Y29059
X230000Y29059
X238750Y29059
X140000Y24059
X128750Y24059
X112500Y11559
X57500Y55309
X71250Y55309
X55000Y89059
X43750Y89059
X56250Y96559
T02
X265000Y64748
X265000Y72622
X265000Y80496
X265000Y88370
T03
X104779Y16361
X85094Y16361
T04
X21250Y100653
X21250Y112464
T05
X250000Y36559
X240000Y36559
X230000Y36559
X220000Y36559
X210000Y36559
X200000Y36559
X190000Y36559
X180000Y36559
X180000Y46559
X190000Y46559
X200000Y46559
X200000Y56559
X190000Y56559
X180000Y56559
X210000Y56559
X220000Y56559
X230000Y56559
X240000Y56559
X250000Y56559
X250000Y46559
X240000Y46559
X230000Y46559
X220000Y46559
X210000Y46559
X215000Y16559
X225000Y16559
X235000Y16559
X245000Y16559
X255000Y16559
X265000Y16559
X195000Y16559
X185000Y16559
X175000Y16559
X165000Y16559
X155000Y16559
X145000Y16559
X135000Y16559
X125000Y16559
X135000Y169059
X145000Y169059
X155000Y169059
X165000Y169059
X175000Y169059
X185000Y169059
X195000Y169059
X205000Y169059
X215000Y169059
X225000Y169059
X235000Y169059
X245000Y169059
X255000Y169059
X265000Y169059
X265000Y179059
X265000Y189059
X255000Y189059
X245000Y189059
X235000Y189059
X225000Y189059
X215000Y189059
X205000Y189059
X195000Y189059
X185000Y189059
X175000Y189059
X165000Y189059
X155000Y189059
X145000Y189059
X135000Y189059
X135000Y179059
X145000Y179059
X155000Y179059
X165000Y179059
X175000Y179059
X185000Y179059
X195000Y179059
X205000Y179059
X215000Y179059
X225000Y179059
X235000Y179059
X245000Y179059
X255000Y179059
X255000Y206559
X245000Y206559
X235000Y206559
X225000Y206559
X215000Y206559
X205000Y206559
X195000Y206559
X179000Y206559
X169000Y206559
X159000Y206559
X149000Y206559
X139000Y206559
X129000Y206559
X119000Y206559
X109000Y206559
X99000Y206559
X89000Y206559
X265000Y206559
X265551Y126362
X275551Y126362
X275551Y116362
X265551Y116362
X265551Y106362
X275551Y106362
T06
X108716Y26203
X81157Y26203
T07
X47126Y18055
X58937Y36559
X35315Y36559
T08
X75000Y206559
X275000Y146559
X275000Y36559
X70000Y16559
M30
