%TF.GenerationSoftware,KiCad,Pcbnew,4.0.7*%
%TF.CreationDate,2018-07-15T20:27:14+02:00*%
%TF.ProjectId,Grape,47726170652E6B696361645F70636200,rev?*%
%TF.FileFunction,Soldermask,Top*%
%FSLAX46Y46*%
G04 Gerber Fmt 4.6, Leading zero omitted, Abs format (unit mm)*
G04 Created by KiCad (PCBNEW 4.0.7) date 07/15/18 20:27:14*
%MOMM*%
%LPD*%
G01*
G04 APERTURE LIST*
%ADD10C,0.150000*%
%ADD11C,0.010000*%
%ADD12C,2.000000*%
%ADD13C,2.133600*%
%ADD14C,3.378200*%
%ADD15R,1.100000X1.350000*%
%ADD16R,2.050000X1.600000*%
%ADD17R,0.900000X0.850000*%
%ADD18R,3.600000X1.700000*%
%ADD19R,1.700000X3.600000*%
%ADD20R,1.350000X1.100000*%
%ADD21R,2.600000X1.900000*%
%ADD22R,0.900000X0.900000*%
%ADD23C,4.900000*%
%ADD24R,4.900000X4.900000*%
%ADD25R,3.100000X7.600000*%
%ADD26R,0.800000X1.400000*%
%ADD27R,1.300000X1.300000*%
%ADD28R,1.800000X1.800000*%
%ADD29O,1.800000X1.800000*%
%ADD30R,1.800000X1.300000*%
%ADD31O,1.800000X1.300000*%
%ADD32R,0.800000X0.550000*%
%ADD33R,1.000000X0.900000*%
%ADD34R,1.400000X0.800000*%
%ADD35C,2.200000*%
%ADD36C,1.850000*%
%ADD37C,1.000000*%
%ADD38R,1.600000X0.800000*%
%ADD39R,0.900000X1.100000*%
%ADD40R,0.506400X1.370000*%
%ADD41R,1.650000X0.700000*%
%ADD42R,2.100000X3.900000*%
%ADD43R,2.100000X1.600000*%
%ADD44R,1.300000X1.700000*%
%ADD45C,0.652780*%
%ADD46R,2.000000X1.600000*%
%ADD47C,1.550000*%
%ADD48R,1.450000X0.500000*%
%ADD49O,2.000000X1.300000*%
%ADD50R,2.000000X1.300000*%
G04 APERTURE END LIST*
D10*
D11*
G36*
X7984085Y-6464626D02*
X8108426Y-6514580D01*
X8125680Y-6526148D01*
X8176830Y-6561164D01*
X8198885Y-6567189D01*
X8204091Y-6544748D01*
X8204200Y-6529529D01*
X8209809Y-6499237D01*
X8234728Y-6483456D01*
X8291093Y-6477623D01*
X8343900Y-6477000D01*
X8483600Y-6477000D01*
X8482493Y-6864350D01*
X8479647Y-7072827D01*
X8471150Y-7237492D01*
X8455074Y-7365198D01*
X8429489Y-7462796D01*
X8392466Y-7537138D01*
X8342075Y-7595076D01*
X8276389Y-7643462D01*
X8260414Y-7653083D01*
X8173828Y-7685163D01*
X8055006Y-7704891D01*
X7921251Y-7711180D01*
X7789863Y-7702942D01*
X7707992Y-7687804D01*
X7610520Y-7661084D01*
X7555380Y-7637811D01*
X7535287Y-7610523D01*
X7542959Y-7571758D01*
X7559823Y-7536008D01*
X7588507Y-7480689D01*
X7605640Y-7449696D01*
X7606741Y-7448105D01*
X7632212Y-7450362D01*
X7693048Y-7462967D01*
X7767679Y-7481084D01*
X7913649Y-7503347D01*
X8035353Y-7491535D01*
X8127714Y-7447959D01*
X8185655Y-7374932D01*
X8204200Y-7282334D01*
X8201633Y-7233646D01*
X8187405Y-7229205D01*
X8160757Y-7253414D01*
X8082253Y-7308167D01*
X7980729Y-7349439D01*
X7883912Y-7365997D01*
X7882835Y-7366000D01*
X7780159Y-7345840D01*
X7672486Y-7293082D01*
X7579896Y-7219306D01*
X7538407Y-7167347D01*
X7502380Y-7093829D01*
X7484584Y-7009638D01*
X7480300Y-6908800D01*
X7747000Y-6908800D01*
X7767503Y-7013315D01*
X7822275Y-7088764D01*
X7901204Y-7130802D01*
X7994181Y-7135088D01*
X8091094Y-7097276D01*
X8126051Y-7071642D01*
X8187512Y-6992600D01*
X8206923Y-6904224D01*
X8188707Y-6817683D01*
X8137291Y-6744151D01*
X8057100Y-6694798D01*
X7970981Y-6680200D01*
X7865442Y-6701201D01*
X7790726Y-6760919D01*
X7751666Y-6854420D01*
X7747000Y-6908800D01*
X7480300Y-6908800D01*
X7495883Y-6756319D01*
X7545089Y-6638388D01*
X7631597Y-6548518D01*
X7711596Y-6501094D01*
X7848073Y-6459904D01*
X7984085Y-6464626D01*
X7984085Y-6464626D01*
G37*
X7984085Y-6464626D02*
X8108426Y-6514580D01*
X8125680Y-6526148D01*
X8176830Y-6561164D01*
X8198885Y-6567189D01*
X8204091Y-6544748D01*
X8204200Y-6529529D01*
X8209809Y-6499237D01*
X8234728Y-6483456D01*
X8291093Y-6477623D01*
X8343900Y-6477000D01*
X8483600Y-6477000D01*
X8482493Y-6864350D01*
X8479647Y-7072827D01*
X8471150Y-7237492D01*
X8455074Y-7365198D01*
X8429489Y-7462796D01*
X8392466Y-7537138D01*
X8342075Y-7595076D01*
X8276389Y-7643462D01*
X8260414Y-7653083D01*
X8173828Y-7685163D01*
X8055006Y-7704891D01*
X7921251Y-7711180D01*
X7789863Y-7702942D01*
X7707992Y-7687804D01*
X7610520Y-7661084D01*
X7555380Y-7637811D01*
X7535287Y-7610523D01*
X7542959Y-7571758D01*
X7559823Y-7536008D01*
X7588507Y-7480689D01*
X7605640Y-7449696D01*
X7606741Y-7448105D01*
X7632212Y-7450362D01*
X7693048Y-7462967D01*
X7767679Y-7481084D01*
X7913649Y-7503347D01*
X8035353Y-7491535D01*
X8127714Y-7447959D01*
X8185655Y-7374932D01*
X8204200Y-7282334D01*
X8201633Y-7233646D01*
X8187405Y-7229205D01*
X8160757Y-7253414D01*
X8082253Y-7308167D01*
X7980729Y-7349439D01*
X7883912Y-7365997D01*
X7882835Y-7366000D01*
X7780159Y-7345840D01*
X7672486Y-7293082D01*
X7579896Y-7219306D01*
X7538407Y-7167347D01*
X7502380Y-7093829D01*
X7484584Y-7009638D01*
X7480300Y-6908800D01*
X7747000Y-6908800D01*
X7767503Y-7013315D01*
X7822275Y-7088764D01*
X7901204Y-7130802D01*
X7994181Y-7135088D01*
X8091094Y-7097276D01*
X8126051Y-7071642D01*
X8187512Y-6992600D01*
X8206923Y-6904224D01*
X8188707Y-6817683D01*
X8137291Y-6744151D01*
X8057100Y-6694798D01*
X7970981Y-6680200D01*
X7865442Y-6701201D01*
X7790726Y-6760919D01*
X7751666Y-6854420D01*
X7747000Y-6908800D01*
X7480300Y-6908800D01*
X7495883Y-6756319D01*
X7545089Y-6638388D01*
X7631597Y-6548518D01*
X7711596Y-6501094D01*
X7848073Y-6459904D01*
X7984085Y-6464626D01*
G36*
X11217055Y-6490432D02*
X11329444Y-6559769D01*
X11419199Y-6665085D01*
X11428879Y-6681663D01*
X11480118Y-6821475D01*
X11494346Y-6977898D01*
X11471562Y-7132749D01*
X11428879Y-7239320D01*
X11345440Y-7346260D01*
X11236753Y-7419889D01*
X11113939Y-7457281D01*
X10988119Y-7455509D01*
X10870415Y-7411645D01*
X10843156Y-7393461D01*
X10769600Y-7339079D01*
X10769600Y-7721600D01*
X10490200Y-7721600D01*
X10490200Y-6994369D01*
X10764375Y-6994369D01*
X10791063Y-7084463D01*
X10840220Y-7161226D01*
X10907480Y-7215852D01*
X10988474Y-7239537D01*
X11078835Y-7223474D01*
X11101206Y-7212847D01*
X11159378Y-7158032D01*
X11204385Y-7072869D01*
X11226130Y-6977716D01*
X11226800Y-6959600D01*
X11208178Y-6846857D01*
X11158195Y-6759362D01*
X11085670Y-6702624D01*
X10999424Y-6682155D01*
X10908275Y-6703467D01*
X10862800Y-6732155D01*
X10795877Y-6809410D01*
X10764524Y-6899749D01*
X10764375Y-6994369D01*
X10490200Y-6994369D01*
X10490200Y-6477000D01*
X10629900Y-6477000D01*
X10710461Y-6479109D01*
X10752430Y-6488479D01*
X10767942Y-6509673D01*
X10769600Y-6529529D01*
X10771701Y-6562252D01*
X10786171Y-6566704D01*
X10825255Y-6542356D01*
X10848119Y-6526148D01*
X10965990Y-6470835D01*
X11092436Y-6459859D01*
X11217055Y-6490432D01*
X11217055Y-6490432D01*
G37*
X11217055Y-6490432D02*
X11329444Y-6559769D01*
X11419199Y-6665085D01*
X11428879Y-6681663D01*
X11480118Y-6821475D01*
X11494346Y-6977898D01*
X11471562Y-7132749D01*
X11428879Y-7239320D01*
X11345440Y-7346260D01*
X11236753Y-7419889D01*
X11113939Y-7457281D01*
X10988119Y-7455509D01*
X10870415Y-7411645D01*
X10843156Y-7393461D01*
X10769600Y-7339079D01*
X10769600Y-7721600D01*
X10490200Y-7721600D01*
X10490200Y-6994369D01*
X10764375Y-6994369D01*
X10791063Y-7084463D01*
X10840220Y-7161226D01*
X10907480Y-7215852D01*
X10988474Y-7239537D01*
X11078835Y-7223474D01*
X11101206Y-7212847D01*
X11159378Y-7158032D01*
X11204385Y-7072869D01*
X11226130Y-6977716D01*
X11226800Y-6959600D01*
X11208178Y-6846857D01*
X11158195Y-6759362D01*
X11085670Y-6702624D01*
X10999424Y-6682155D01*
X10908275Y-6703467D01*
X10862800Y-6732155D01*
X10795877Y-6809410D01*
X10764524Y-6899749D01*
X10764375Y-6994369D01*
X10490200Y-6994369D01*
X10490200Y-6477000D01*
X10629900Y-6477000D01*
X10710461Y-6479109D01*
X10752430Y-6488479D01*
X10767942Y-6509673D01*
X10769600Y-6529529D01*
X10771701Y-6562252D01*
X10786171Y-6566704D01*
X10825255Y-6542356D01*
X10848119Y-6526148D01*
X10965990Y-6470835D01*
X11092436Y-6459859D01*
X11217055Y-6490432D01*
G36*
X7022661Y-5301310D02*
X7174101Y-5363250D01*
X7308621Y-5456588D01*
X7419774Y-5579045D01*
X7501114Y-5728345D01*
X7546196Y-5902212D01*
X7553199Y-6007100D01*
X7531043Y-6204909D01*
X7463844Y-6379292D01*
X7351877Y-6529772D01*
X7195419Y-6655875D01*
X7165766Y-6674058D01*
X7086772Y-6712749D01*
X6999124Y-6736324D01*
X6883859Y-6749491D01*
X6854210Y-6751383D01*
X6747711Y-6755624D01*
X6671047Y-6750897D01*
X6603509Y-6733316D01*
X6524388Y-6698993D01*
X6492527Y-6683487D01*
X6409997Y-6644133D01*
X6345443Y-6615707D01*
X6312149Y-6604039D01*
X6311446Y-6604000D01*
X6280263Y-6616568D01*
X6222506Y-6648623D01*
X6184046Y-6672186D01*
X6076267Y-6740373D01*
X6089251Y-6883562D01*
X6082651Y-7072106D01*
X6031260Y-7250188D01*
X5939615Y-7409099D01*
X5812253Y-7540132D01*
X5712906Y-7605987D01*
X5581511Y-7657507D01*
X5428118Y-7686927D01*
X5272267Y-7692492D01*
X5133495Y-7672447D01*
X5098226Y-7661219D01*
X4923281Y-7571114D01*
X4784277Y-7446606D01*
X4684014Y-7291791D01*
X4625292Y-7110766D01*
X4614031Y-6989292D01*
X4966015Y-6989292D01*
X4997240Y-7104577D01*
X5062020Y-7204213D01*
X5152216Y-7281449D01*
X5259688Y-7329534D01*
X5376296Y-7341716D01*
X5493900Y-7311243D01*
X5506711Y-7304913D01*
X5620451Y-7221544D01*
X5693934Y-7116949D01*
X5727301Y-7000370D01*
X5720689Y-6881051D01*
X5674238Y-6768232D01*
X5588086Y-6671157D01*
X5496313Y-6613675D01*
X5374774Y-6581823D01*
X5251841Y-6594002D01*
X5138395Y-6644951D01*
X5045318Y-6729406D01*
X4983490Y-6842104D01*
X4976485Y-6865111D01*
X4966015Y-6989292D01*
X4614031Y-6989292D01*
X4610100Y-6946900D01*
X4633252Y-6754966D01*
X4699441Y-6584682D01*
X4803764Y-6440889D01*
X4941317Y-6328432D01*
X5107197Y-6252153D01*
X5296502Y-6216895D01*
X5351033Y-6215036D01*
X5468989Y-6219589D01*
X5561234Y-6237404D01*
X5652195Y-6273564D01*
X5667082Y-6280807D01*
X5800997Y-6347080D01*
X6069159Y-6184900D01*
X6069879Y-6043460D01*
X6072385Y-6020480D01*
X6428871Y-6020480D01*
X6452087Y-6139375D01*
X6483954Y-6199589D01*
X6584418Y-6311957D01*
X6701054Y-6378580D01*
X6829031Y-6397803D01*
X6963515Y-6367968D01*
X6968851Y-6365777D01*
X7077349Y-6295853D01*
X7151172Y-6197729D01*
X7188603Y-6081857D01*
X7187929Y-5958691D01*
X7147434Y-5838686D01*
X7071762Y-5738327D01*
X7010962Y-5687330D01*
X6949232Y-5659718D01*
X6864242Y-5646487D01*
X6839232Y-5644543D01*
X6745087Y-5642196D01*
X6678776Y-5654403D01*
X6618310Y-5685810D01*
X6606580Y-5693702D01*
X6508756Y-5786761D01*
X6448641Y-5899315D01*
X6428871Y-6020480D01*
X6072385Y-6020480D01*
X6091354Y-5846554D01*
X6151945Y-5672437D01*
X6237260Y-5542261D01*
X6376613Y-5413061D01*
X6531276Y-5326643D01*
X6694802Y-5280730D01*
X6860746Y-5273044D01*
X7022661Y-5301310D01*
X7022661Y-5301310D01*
G37*
X7022661Y-5301310D02*
X7174101Y-5363250D01*
X7308621Y-5456588D01*
X7419774Y-5579045D01*
X7501114Y-5728345D01*
X7546196Y-5902212D01*
X7553199Y-6007100D01*
X7531043Y-6204909D01*
X7463844Y-6379292D01*
X7351877Y-6529772D01*
X7195419Y-6655875D01*
X7165766Y-6674058D01*
X7086772Y-6712749D01*
X6999124Y-6736324D01*
X6883859Y-6749491D01*
X6854210Y-6751383D01*
X6747711Y-6755624D01*
X6671047Y-6750897D01*
X6603509Y-6733316D01*
X6524388Y-6698993D01*
X6492527Y-6683487D01*
X6409997Y-6644133D01*
X6345443Y-6615707D01*
X6312149Y-6604039D01*
X6311446Y-6604000D01*
X6280263Y-6616568D01*
X6222506Y-6648623D01*
X6184046Y-6672186D01*
X6076267Y-6740373D01*
X6089251Y-6883562D01*
X6082651Y-7072106D01*
X6031260Y-7250188D01*
X5939615Y-7409099D01*
X5812253Y-7540132D01*
X5712906Y-7605987D01*
X5581511Y-7657507D01*
X5428118Y-7686927D01*
X5272267Y-7692492D01*
X5133495Y-7672447D01*
X5098226Y-7661219D01*
X4923281Y-7571114D01*
X4784277Y-7446606D01*
X4684014Y-7291791D01*
X4625292Y-7110766D01*
X4614031Y-6989292D01*
X4966015Y-6989292D01*
X4997240Y-7104577D01*
X5062020Y-7204213D01*
X5152216Y-7281449D01*
X5259688Y-7329534D01*
X5376296Y-7341716D01*
X5493900Y-7311243D01*
X5506711Y-7304913D01*
X5620451Y-7221544D01*
X5693934Y-7116949D01*
X5727301Y-7000370D01*
X5720689Y-6881051D01*
X5674238Y-6768232D01*
X5588086Y-6671157D01*
X5496313Y-6613675D01*
X5374774Y-6581823D01*
X5251841Y-6594002D01*
X5138395Y-6644951D01*
X5045318Y-6729406D01*
X4983490Y-6842104D01*
X4976485Y-6865111D01*
X4966015Y-6989292D01*
X4614031Y-6989292D01*
X4610100Y-6946900D01*
X4633252Y-6754966D01*
X4699441Y-6584682D01*
X4803764Y-6440889D01*
X4941317Y-6328432D01*
X5107197Y-6252153D01*
X5296502Y-6216895D01*
X5351033Y-6215036D01*
X5468989Y-6219589D01*
X5561234Y-6237404D01*
X5652195Y-6273564D01*
X5667082Y-6280807D01*
X5800997Y-6347080D01*
X6069159Y-6184900D01*
X6069879Y-6043460D01*
X6072385Y-6020480D01*
X6428871Y-6020480D01*
X6452087Y-6139375D01*
X6483954Y-6199589D01*
X6584418Y-6311957D01*
X6701054Y-6378580D01*
X6829031Y-6397803D01*
X6963515Y-6367968D01*
X6968851Y-6365777D01*
X7077349Y-6295853D01*
X7151172Y-6197729D01*
X7188603Y-6081857D01*
X7187929Y-5958691D01*
X7147434Y-5838686D01*
X7071762Y-5738327D01*
X7010962Y-5687330D01*
X6949232Y-5659718D01*
X6864242Y-5646487D01*
X6839232Y-5644543D01*
X6745087Y-5642196D01*
X6678776Y-5654403D01*
X6618310Y-5685810D01*
X6606580Y-5693702D01*
X6508756Y-5786761D01*
X6448641Y-5899315D01*
X6428871Y-6020480D01*
X6072385Y-6020480D01*
X6091354Y-5846554D01*
X6151945Y-5672437D01*
X6237260Y-5542261D01*
X6376613Y-5413061D01*
X6531276Y-5326643D01*
X6694802Y-5280730D01*
X6860746Y-5273044D01*
X7022661Y-5301310D01*
G36*
X9907664Y-6493067D02*
X9982992Y-6500981D01*
X10036557Y-6518340D01*
X10075545Y-6542305D01*
X10136107Y-6594528D01*
X10179739Y-6654708D01*
X10208993Y-6731802D01*
X10226424Y-6834767D01*
X10234585Y-6972562D01*
X10236160Y-7105650D01*
X10236200Y-7442200D01*
X10109200Y-7442200D01*
X10030808Y-7438601D01*
X9992077Y-7425486D01*
X9982200Y-7401178D01*
X9977803Y-7375444D01*
X9955813Y-7378987D01*
X9917561Y-7402510D01*
X9823876Y-7440965D01*
X9708005Y-7457557D01*
X9594463Y-7450411D01*
X9532993Y-7431912D01*
X9448033Y-7369190D01*
X9395197Y-7280822D01*
X9374551Y-7179143D01*
X9378810Y-7141481D01*
X9631499Y-7141481D01*
X9644019Y-7209974D01*
X9691503Y-7256789D01*
X9761594Y-7278711D01*
X9841931Y-7272529D01*
X9920155Y-7235029D01*
X9937285Y-7220973D01*
X9973936Y-7157518D01*
X9977052Y-7113325D01*
X9949355Y-7056707D01*
X9891616Y-7024577D01*
X9817663Y-7015808D01*
X9741321Y-7029274D01*
X9676419Y-7063847D01*
X9636784Y-7118401D01*
X9631499Y-7141481D01*
X9378810Y-7141481D01*
X9386162Y-7076489D01*
X9430097Y-6985196D01*
X9506421Y-6917601D01*
X9530152Y-6906027D01*
X9605575Y-6886726D01*
X9711707Y-6875525D01*
X9798050Y-6873841D01*
X9902590Y-6872587D01*
X9961929Y-6861897D01*
X9981349Y-6837983D01*
X9966135Y-6797055D01*
X9946153Y-6767604D01*
X9909733Y-6736418D01*
X9850112Y-6721458D01*
X9774703Y-6718300D01*
X9683091Y-6721848D01*
X9602168Y-6730876D01*
X9572470Y-6737075D01*
X9529087Y-6744543D01*
X9504149Y-6727605D01*
X9485276Y-6675062D01*
X9479537Y-6653016D01*
X9465389Y-6586993D01*
X9471086Y-6551998D01*
X9502248Y-6530292D01*
X9520967Y-6522239D01*
X9578243Y-6508671D01*
X9668675Y-6498071D01*
X9774630Y-6492378D01*
X9796145Y-6491999D01*
X9907664Y-6493067D01*
X9907664Y-6493067D01*
G37*
X9907664Y-6493067D02*
X9982992Y-6500981D01*
X10036557Y-6518340D01*
X10075545Y-6542305D01*
X10136107Y-6594528D01*
X10179739Y-6654708D01*
X10208993Y-6731802D01*
X10226424Y-6834767D01*
X10234585Y-6972562D01*
X10236160Y-7105650D01*
X10236200Y-7442200D01*
X10109200Y-7442200D01*
X10030808Y-7438601D01*
X9992077Y-7425486D01*
X9982200Y-7401178D01*
X9977803Y-7375444D01*
X9955813Y-7378987D01*
X9917561Y-7402510D01*
X9823876Y-7440965D01*
X9708005Y-7457557D01*
X9594463Y-7450411D01*
X9532993Y-7431912D01*
X9448033Y-7369190D01*
X9395197Y-7280822D01*
X9374551Y-7179143D01*
X9378810Y-7141481D01*
X9631499Y-7141481D01*
X9644019Y-7209974D01*
X9691503Y-7256789D01*
X9761594Y-7278711D01*
X9841931Y-7272529D01*
X9920155Y-7235029D01*
X9937285Y-7220973D01*
X9973936Y-7157518D01*
X9977052Y-7113325D01*
X9949355Y-7056707D01*
X9891616Y-7024577D01*
X9817663Y-7015808D01*
X9741321Y-7029274D01*
X9676419Y-7063847D01*
X9636784Y-7118401D01*
X9631499Y-7141481D01*
X9378810Y-7141481D01*
X9386162Y-7076489D01*
X9430097Y-6985196D01*
X9506421Y-6917601D01*
X9530152Y-6906027D01*
X9605575Y-6886726D01*
X9711707Y-6875525D01*
X9798050Y-6873841D01*
X9902590Y-6872587D01*
X9961929Y-6861897D01*
X9981349Y-6837983D01*
X9966135Y-6797055D01*
X9946153Y-6767604D01*
X9909733Y-6736418D01*
X9850112Y-6721458D01*
X9774703Y-6718300D01*
X9683091Y-6721848D01*
X9602168Y-6730876D01*
X9572470Y-6737075D01*
X9529087Y-6744543D01*
X9504149Y-6727605D01*
X9485276Y-6675062D01*
X9479537Y-6653016D01*
X9465389Y-6586993D01*
X9471086Y-6551998D01*
X9502248Y-6530292D01*
X9520967Y-6522239D01*
X9578243Y-6508671D01*
X9668675Y-6498071D01*
X9774630Y-6492378D01*
X9796145Y-6491999D01*
X9907664Y-6493067D01*
G36*
X12266454Y-6483990D02*
X12384798Y-6550687D01*
X12477194Y-6652416D01*
X12536945Y-6784037D01*
X12557206Y-6920520D01*
X12560300Y-7048500D01*
X12236450Y-7055608D01*
X12114885Y-7059985D01*
X12014133Y-7066864D01*
X11943716Y-7075355D01*
X11913157Y-7084564D01*
X11912600Y-7085942D01*
X11927807Y-7119165D01*
X11965055Y-7170014D01*
X11971418Y-7177547D01*
X12026860Y-7225711D01*
X12095530Y-7244397D01*
X12135690Y-7245927D01*
X12220647Y-7235451D01*
X12295375Y-7209608D01*
X12306379Y-7203183D01*
X12352419Y-7177304D01*
X12387574Y-7178815D01*
X12434684Y-7210276D01*
X12445502Y-7218769D01*
X12494149Y-7261143D01*
X12519734Y-7291134D01*
X12520794Y-7294420D01*
X12501162Y-7324395D01*
X12448060Y-7363356D01*
X12375690Y-7402734D01*
X12298253Y-7433959D01*
X12280900Y-7439175D01*
X12158740Y-7463179D01*
X12051736Y-7457891D01*
X11954641Y-7430550D01*
X11826927Y-7361622D01*
X11732040Y-7263409D01*
X11669762Y-7144520D01*
X11639877Y-7013566D01*
X11642167Y-6879156D01*
X11653329Y-6837027D01*
X11912600Y-6837027D01*
X11918100Y-6860310D01*
X11941314Y-6874244D01*
X11992313Y-6881144D01*
X12081169Y-6883321D01*
X12114478Y-6883400D01*
X12316357Y-6883400D01*
X12289524Y-6806428D01*
X12246771Y-6738738D01*
X12180968Y-6688550D01*
X12109679Y-6666807D01*
X12072958Y-6671464D01*
X12005876Y-6709135D01*
X11948026Y-6764226D01*
X11915231Y-6820404D01*
X11912600Y-6837027D01*
X11653329Y-6837027D01*
X11676414Y-6749903D01*
X11742403Y-6634414D01*
X11839915Y-6541302D01*
X11968733Y-6479177D01*
X11978710Y-6476269D01*
X12128860Y-6457470D01*
X12266454Y-6483990D01*
X12266454Y-6483990D01*
G37*
X12266454Y-6483990D02*
X12384798Y-6550687D01*
X12477194Y-6652416D01*
X12536945Y-6784037D01*
X12557206Y-6920520D01*
X12560300Y-7048500D01*
X12236450Y-7055608D01*
X12114885Y-7059985D01*
X12014133Y-7066864D01*
X11943716Y-7075355D01*
X11913157Y-7084564D01*
X11912600Y-7085942D01*
X11927807Y-7119165D01*
X11965055Y-7170014D01*
X11971418Y-7177547D01*
X12026860Y-7225711D01*
X12095530Y-7244397D01*
X12135690Y-7245927D01*
X12220647Y-7235451D01*
X12295375Y-7209608D01*
X12306379Y-7203183D01*
X12352419Y-7177304D01*
X12387574Y-7178815D01*
X12434684Y-7210276D01*
X12445502Y-7218769D01*
X12494149Y-7261143D01*
X12519734Y-7291134D01*
X12520794Y-7294420D01*
X12501162Y-7324395D01*
X12448060Y-7363356D01*
X12375690Y-7402734D01*
X12298253Y-7433959D01*
X12280900Y-7439175D01*
X12158740Y-7463179D01*
X12051736Y-7457891D01*
X11954641Y-7430550D01*
X11826927Y-7361622D01*
X11732040Y-7263409D01*
X11669762Y-7144520D01*
X11639877Y-7013566D01*
X11642167Y-6879156D01*
X11653329Y-6837027D01*
X11912600Y-6837027D01*
X11918100Y-6860310D01*
X11941314Y-6874244D01*
X11992313Y-6881144D01*
X12081169Y-6883321D01*
X12114478Y-6883400D01*
X12316357Y-6883400D01*
X12289524Y-6806428D01*
X12246771Y-6738738D01*
X12180968Y-6688550D01*
X12109679Y-6666807D01*
X12072958Y-6671464D01*
X12005876Y-6709135D01*
X11948026Y-6764226D01*
X11915231Y-6820404D01*
X11912600Y-6837027D01*
X11653329Y-6837027D01*
X11676414Y-6749903D01*
X11742403Y-6634414D01*
X11839915Y-6541302D01*
X11968733Y-6479177D01*
X11978710Y-6476269D01*
X12128860Y-6457470D01*
X12266454Y-6483990D01*
G36*
X9296400Y-6585298D02*
X9294982Y-6665587D01*
X9285676Y-6709009D01*
X9260904Y-6729494D01*
X9213088Y-6740975D01*
X9211562Y-6741262D01*
X9133377Y-6771781D01*
X9065512Y-6822265D01*
X9038117Y-6855695D01*
X9019769Y-6893954D01*
X9008185Y-6948247D01*
X9001081Y-7029776D01*
X8996175Y-7149744D01*
X8995702Y-7164776D01*
X8987105Y-7442200D01*
X8712200Y-7442200D01*
X8712200Y-6477000D01*
X8851900Y-6477000D01*
X8931763Y-6478269D01*
X8973331Y-6486648D01*
X8989108Y-6508994D01*
X8991599Y-6552163D01*
X8991600Y-6553600D01*
X8991600Y-6630201D01*
X9061450Y-6553537D01*
X9128189Y-6498997D01*
X9202123Y-6463881D01*
X9213850Y-6461061D01*
X9296400Y-6445250D01*
X9296400Y-6585298D01*
X9296400Y-6585298D01*
G37*
X9296400Y-6585298D02*
X9294982Y-6665587D01*
X9285676Y-6709009D01*
X9260904Y-6729494D01*
X9213088Y-6740975D01*
X9211562Y-6741262D01*
X9133377Y-6771781D01*
X9065512Y-6822265D01*
X9038117Y-6855695D01*
X9019769Y-6893954D01*
X9008185Y-6948247D01*
X9001081Y-7029776D01*
X8996175Y-7149744D01*
X8995702Y-7164776D01*
X8987105Y-7442200D01*
X8712200Y-7442200D01*
X8712200Y-6477000D01*
X8851900Y-6477000D01*
X8931763Y-6478269D01*
X8973331Y-6486648D01*
X8989108Y-6508994D01*
X8991599Y-6552163D01*
X8991600Y-6553600D01*
X8991600Y-6630201D01*
X9061450Y-6553537D01*
X9128189Y-6498997D01*
X9202123Y-6463881D01*
X9213850Y-6461061D01*
X9296400Y-6445250D01*
X9296400Y-6585298D01*
G36*
X13055600Y-7442200D02*
X12776200Y-7442200D01*
X12776200Y-7162800D01*
X13055600Y-7162800D01*
X13055600Y-7442200D01*
X13055600Y-7442200D01*
G37*
X13055600Y-7442200D02*
X12776200Y-7442200D01*
X12776200Y-7162800D01*
X13055600Y-7162800D01*
X13055600Y-7442200D01*
G36*
X4371713Y-3250010D02*
X4527116Y-3331143D01*
X4662115Y-3445887D01*
X4768898Y-3588543D01*
X4839653Y-3753413D01*
X4853756Y-3811676D01*
X4883535Y-3963040D01*
X5461983Y-4145222D01*
X5566332Y-4050949D01*
X5715096Y-3940281D01*
X5871076Y-3875012D01*
X6047280Y-3850072D01*
X6083300Y-3849474D01*
X6277025Y-3872827D01*
X6449723Y-3939756D01*
X6596195Y-4045565D01*
X6711244Y-4185559D01*
X6789670Y-4355043D01*
X6823584Y-4518111D01*
X6822464Y-4700155D01*
X6777058Y-4864352D01*
X6684882Y-5017374D01*
X6603225Y-5109491D01*
X6455314Y-5230539D01*
X6296910Y-5304055D01*
X6120669Y-5333212D01*
X6083300Y-5334000D01*
X5901908Y-5309859D01*
X5733264Y-5241776D01*
X5585014Y-5136263D01*
X5464805Y-4999829D01*
X5380284Y-4838985D01*
X5344743Y-4705186D01*
X5329042Y-4606997D01*
X5176430Y-4559513D01*
X5700426Y-4559513D01*
X5710236Y-4675227D01*
X5766938Y-4794460D01*
X5773274Y-4804111D01*
X5867312Y-4903213D01*
X5983884Y-4960476D01*
X6113199Y-4972914D01*
X6231351Y-4943753D01*
X6333777Y-4876890D01*
X6415360Y-4778402D01*
X6461596Y-4666053D01*
X6462716Y-4660409D01*
X6459817Y-4549703D01*
X6417257Y-4436779D01*
X6343040Y-4336982D01*
X6261100Y-4273967D01*
X6128627Y-4224340D01*
X6000728Y-4221405D01*
X5885282Y-4262736D01*
X5790165Y-4345909D01*
X5736333Y-4435578D01*
X5700426Y-4559513D01*
X5176430Y-4559513D01*
X5023265Y-4511857D01*
X4717489Y-4416716D01*
X4647129Y-4484125D01*
X4576770Y-4551533D01*
X4620722Y-4680836D01*
X4647137Y-4752866D01*
X4674350Y-4794698D01*
X4717513Y-4819135D01*
X4791776Y-4838984D01*
X4813803Y-4844009D01*
X5000806Y-4910025D01*
X5157828Y-5013497D01*
X5280617Y-5149222D01*
X5364921Y-5311996D01*
X5406489Y-5496616D01*
X5410200Y-5573968D01*
X5387027Y-5755533D01*
X5321955Y-5919946D01*
X5221651Y-6062419D01*
X5092784Y-6178165D01*
X4942022Y-6262396D01*
X4776032Y-6310323D01*
X4601484Y-6317158D01*
X4428044Y-6279195D01*
X4249890Y-6190630D01*
X4106456Y-6066564D01*
X4001013Y-5910707D01*
X3936833Y-5726771D01*
X3935474Y-5720352D01*
X3925254Y-5578404D01*
X4284264Y-5578404D01*
X4306035Y-5701204D01*
X4365358Y-5806174D01*
X4452756Y-5888147D01*
X4558755Y-5941958D01*
X4673880Y-5962439D01*
X4788654Y-5944424D01*
X4873031Y-5899440D01*
X4972952Y-5804400D01*
X5027394Y-5698553D01*
X5041900Y-5588000D01*
X5020746Y-5463490D01*
X4963284Y-5360680D01*
X4878509Y-5282063D01*
X4775416Y-5230132D01*
X4663001Y-5207382D01*
X4550261Y-5216307D01*
X4446190Y-5259401D01*
X4359784Y-5339158D01*
X4327830Y-5390026D01*
X4298766Y-5472938D01*
X4284545Y-5566306D01*
X4284264Y-5578404D01*
X3925254Y-5578404D01*
X3922827Y-5544712D01*
X3952594Y-5366771D01*
X4020517Y-5200278D01*
X4122340Y-5058982D01*
X4148169Y-5033295D01*
X4211773Y-4973890D01*
X4167317Y-4843102D01*
X4138623Y-4766737D01*
X4110115Y-4725217D01*
X4067784Y-4704613D01*
X4017730Y-4694366D01*
X3826536Y-4638497D01*
X3663930Y-4543655D01*
X3534213Y-4414482D01*
X3441688Y-4255621D01*
X3390654Y-4071715D01*
X3383924Y-4010247D01*
X3384511Y-3998465D01*
X3737276Y-3998465D01*
X3775760Y-4115165D01*
X3828801Y-4193618D01*
X3935714Y-4286520D01*
X4057740Y-4334058D01*
X4187085Y-4334462D01*
X4292093Y-4298910D01*
X4396810Y-4221373D01*
X4464482Y-4119553D01*
X4495069Y-4003908D01*
X4488534Y-3884894D01*
X4444835Y-3772967D01*
X4363934Y-3678584D01*
X4294608Y-3633224D01*
X4165399Y-3590105D01*
X4043438Y-3589919D01*
X3934294Y-3625966D01*
X3843536Y-3691544D01*
X3776734Y-3779954D01*
X3739457Y-3884494D01*
X3737276Y-3998465D01*
X3384511Y-3998465D01*
X3393581Y-3816744D01*
X3448297Y-3640055D01*
X3543602Y-3485697D01*
X3675028Y-3359188D01*
X3838105Y-3266048D01*
X4028362Y-3211794D01*
X4030943Y-3211378D01*
X4203718Y-3208189D01*
X4371713Y-3250010D01*
X4371713Y-3250010D01*
G37*
X4371713Y-3250010D02*
X4527116Y-3331143D01*
X4662115Y-3445887D01*
X4768898Y-3588543D01*
X4839653Y-3753413D01*
X4853756Y-3811676D01*
X4883535Y-3963040D01*
X5461983Y-4145222D01*
X5566332Y-4050949D01*
X5715096Y-3940281D01*
X5871076Y-3875012D01*
X6047280Y-3850072D01*
X6083300Y-3849474D01*
X6277025Y-3872827D01*
X6449723Y-3939756D01*
X6596195Y-4045565D01*
X6711244Y-4185559D01*
X6789670Y-4355043D01*
X6823584Y-4518111D01*
X6822464Y-4700155D01*
X6777058Y-4864352D01*
X6684882Y-5017374D01*
X6603225Y-5109491D01*
X6455314Y-5230539D01*
X6296910Y-5304055D01*
X6120669Y-5333212D01*
X6083300Y-5334000D01*
X5901908Y-5309859D01*
X5733264Y-5241776D01*
X5585014Y-5136263D01*
X5464805Y-4999829D01*
X5380284Y-4838985D01*
X5344743Y-4705186D01*
X5329042Y-4606997D01*
X5176430Y-4559513D01*
X5700426Y-4559513D01*
X5710236Y-4675227D01*
X5766938Y-4794460D01*
X5773274Y-4804111D01*
X5867312Y-4903213D01*
X5983884Y-4960476D01*
X6113199Y-4972914D01*
X6231351Y-4943753D01*
X6333777Y-4876890D01*
X6415360Y-4778402D01*
X6461596Y-4666053D01*
X6462716Y-4660409D01*
X6459817Y-4549703D01*
X6417257Y-4436779D01*
X6343040Y-4336982D01*
X6261100Y-4273967D01*
X6128627Y-4224340D01*
X6000728Y-4221405D01*
X5885282Y-4262736D01*
X5790165Y-4345909D01*
X5736333Y-4435578D01*
X5700426Y-4559513D01*
X5176430Y-4559513D01*
X5023265Y-4511857D01*
X4717489Y-4416716D01*
X4647129Y-4484125D01*
X4576770Y-4551533D01*
X4620722Y-4680836D01*
X4647137Y-4752866D01*
X4674350Y-4794698D01*
X4717513Y-4819135D01*
X4791776Y-4838984D01*
X4813803Y-4844009D01*
X5000806Y-4910025D01*
X5157828Y-5013497D01*
X5280617Y-5149222D01*
X5364921Y-5311996D01*
X5406489Y-5496616D01*
X5410200Y-5573968D01*
X5387027Y-5755533D01*
X5321955Y-5919946D01*
X5221651Y-6062419D01*
X5092784Y-6178165D01*
X4942022Y-6262396D01*
X4776032Y-6310323D01*
X4601484Y-6317158D01*
X4428044Y-6279195D01*
X4249890Y-6190630D01*
X4106456Y-6066564D01*
X4001013Y-5910707D01*
X3936833Y-5726771D01*
X3935474Y-5720352D01*
X3925254Y-5578404D01*
X4284264Y-5578404D01*
X4306035Y-5701204D01*
X4365358Y-5806174D01*
X4452756Y-5888147D01*
X4558755Y-5941958D01*
X4673880Y-5962439D01*
X4788654Y-5944424D01*
X4873031Y-5899440D01*
X4972952Y-5804400D01*
X5027394Y-5698553D01*
X5041900Y-5588000D01*
X5020746Y-5463490D01*
X4963284Y-5360680D01*
X4878509Y-5282063D01*
X4775416Y-5230132D01*
X4663001Y-5207382D01*
X4550261Y-5216307D01*
X4446190Y-5259401D01*
X4359784Y-5339158D01*
X4327830Y-5390026D01*
X4298766Y-5472938D01*
X4284545Y-5566306D01*
X4284264Y-5578404D01*
X3925254Y-5578404D01*
X3922827Y-5544712D01*
X3952594Y-5366771D01*
X4020517Y-5200278D01*
X4122340Y-5058982D01*
X4148169Y-5033295D01*
X4211773Y-4973890D01*
X4167317Y-4843102D01*
X4138623Y-4766737D01*
X4110115Y-4725217D01*
X4067784Y-4704613D01*
X4017730Y-4694366D01*
X3826536Y-4638497D01*
X3663930Y-4543655D01*
X3534213Y-4414482D01*
X3441688Y-4255621D01*
X3390654Y-4071715D01*
X3383924Y-4010247D01*
X3384511Y-3998465D01*
X3737276Y-3998465D01*
X3775760Y-4115165D01*
X3828801Y-4193618D01*
X3935714Y-4286520D01*
X4057740Y-4334058D01*
X4187085Y-4334462D01*
X4292093Y-4298910D01*
X4396810Y-4221373D01*
X4464482Y-4119553D01*
X4495069Y-4003908D01*
X4488534Y-3884894D01*
X4444835Y-3772967D01*
X4363934Y-3678584D01*
X4294608Y-3633224D01*
X4165399Y-3590105D01*
X4043438Y-3589919D01*
X3934294Y-3625966D01*
X3843536Y-3691544D01*
X3776734Y-3779954D01*
X3739457Y-3884494D01*
X3737276Y-3998465D01*
X3384511Y-3998465D01*
X3393581Y-3816744D01*
X3448297Y-3640055D01*
X3543602Y-3485697D01*
X3675028Y-3359188D01*
X3838105Y-3266048D01*
X4028362Y-3211794D01*
X4030943Y-3211378D01*
X4203718Y-3208189D01*
X4371713Y-3250010D01*
G36*
X5676259Y-2359129D02*
X5847844Y-2424744D01*
X5991390Y-2531579D01*
X6104323Y-2677572D01*
X6184074Y-2860660D01*
X6199124Y-2914356D01*
X6240681Y-3079443D01*
X6524173Y-3170079D01*
X6807664Y-3260715D01*
X6889982Y-3182495D01*
X7039377Y-3072161D01*
X7202720Y-3005730D01*
X7372789Y-2980925D01*
X7542363Y-2995468D01*
X7704220Y-3047084D01*
X7851139Y-3133495D01*
X7975900Y-3252424D01*
X8071281Y-3401595D01*
X8128919Y-3573129D01*
X8142502Y-3760721D01*
X8107241Y-3947361D01*
X8024624Y-4125198D01*
X8024298Y-4125724D01*
X7946610Y-4250949D01*
X7990362Y-4347974D01*
X8020265Y-4406598D01*
X8052611Y-4435076D01*
X8105944Y-4444250D01*
X8156304Y-4445000D01*
X8332003Y-4469251D01*
X8500070Y-4537591D01*
X8649885Y-4643396D01*
X8770823Y-4780040D01*
X8816554Y-4856701D01*
X8864438Y-4994161D01*
X8885711Y-5154534D01*
X8879021Y-5316658D01*
X8853279Y-5431446D01*
X8789757Y-5561600D01*
X8692535Y-5689374D01*
X8576239Y-5798240D01*
X8468987Y-5865631D01*
X8306023Y-5918251D01*
X8129665Y-5934617D01*
X7959527Y-5913636D01*
X7904605Y-5897099D01*
X7733225Y-5811183D01*
X7594756Y-5691972D01*
X7491721Y-5546774D01*
X7426641Y-5382897D01*
X7402039Y-5207648D01*
X7407427Y-5155121D01*
X7766263Y-5155121D01*
X7775135Y-5279953D01*
X7821754Y-5384895D01*
X7905725Y-5477701D01*
X8013615Y-5547541D01*
X8131993Y-5583586D01*
X8154368Y-5585709D01*
X8198905Y-5576044D01*
X8267655Y-5548914D01*
X8305281Y-5530850D01*
X8420079Y-5453667D01*
X8491346Y-5357835D01*
X8525429Y-5234339D01*
X8527510Y-5215242D01*
X8529087Y-5124743D01*
X8509144Y-5055622D01*
X8479513Y-5006135D01*
X8377585Y-4890767D01*
X8264282Y-4824734D01*
X8140097Y-4808197D01*
X8005520Y-4841320D01*
X7993973Y-4846273D01*
X7877393Y-4922842D01*
X7800272Y-5028206D01*
X7766263Y-5155121D01*
X7407427Y-5155121D01*
X7420435Y-5028336D01*
X7484351Y-4852269D01*
X7521564Y-4787000D01*
X7598644Y-4665458D01*
X7554664Y-4567929D01*
X7524657Y-4509010D01*
X7492332Y-4480384D01*
X7439128Y-4471157D01*
X7388495Y-4470400D01*
X7211133Y-4446712D01*
X7045985Y-4380113D01*
X6900728Y-4277302D01*
X6783037Y-4144977D01*
X6700590Y-3989835D01*
X6662998Y-3837366D01*
X6654799Y-3768131D01*
X7016507Y-3768131D01*
X7055091Y-3890036D01*
X7105401Y-3965018D01*
X7212795Y-4059460D01*
X7333120Y-4105597D01*
X7462214Y-4102546D01*
X7569840Y-4063673D01*
X7679156Y-3982689D01*
X7749490Y-3877295D01*
X7779199Y-3757526D01*
X7766638Y-3633420D01*
X7710160Y-3515015D01*
X7668075Y-3464288D01*
X7555560Y-3377991D01*
X7434237Y-3341278D01*
X7305840Y-3354585D01*
X7274026Y-3365323D01*
X7153103Y-3434687D01*
X7068130Y-3531149D01*
X7021726Y-3645400D01*
X7016507Y-3768131D01*
X6654799Y-3768131D01*
X6648601Y-3715807D01*
X6357340Y-3622652D01*
X6066079Y-3529496D01*
X6017071Y-3591799D01*
X5968919Y-3635463D01*
X5891885Y-3687624D01*
X5812074Y-3732051D01*
X5632372Y-3796012D01*
X5450908Y-3813649D01*
X5274901Y-3788059D01*
X5111574Y-3722337D01*
X4968147Y-3619580D01*
X4851842Y-3482883D01*
X4769879Y-3315344D01*
X4758836Y-3280456D01*
X4730680Y-3098984D01*
X4731755Y-3087278D01*
X5086742Y-3087278D01*
X5112868Y-3202236D01*
X5173686Y-3303328D01*
X5261142Y-3383734D01*
X5367183Y-3436634D01*
X5483754Y-3455207D01*
X5602803Y-3432633D01*
X5637035Y-3417212D01*
X5731102Y-3347609D01*
X5808196Y-3252376D01*
X5853453Y-3150462D01*
X5856205Y-3137807D01*
X5854779Y-3011923D01*
X5804943Y-2889442D01*
X5725810Y-2792168D01*
X5671847Y-2744069D01*
X5623653Y-2717935D01*
X5562073Y-2707151D01*
X5473700Y-2705100D01*
X5381651Y-2707427D01*
X5321190Y-2718818D01*
X5273161Y-2745888D01*
X5221589Y-2792168D01*
X5160662Y-2863529D01*
X5113892Y-2939800D01*
X5103362Y-2965274D01*
X5086742Y-3087278D01*
X4731755Y-3087278D01*
X4747395Y-2917075D01*
X4805678Y-2745044D01*
X4902225Y-2593203D01*
X5013029Y-2486867D01*
X5143117Y-2404025D01*
X5275023Y-2356388D01*
X5428183Y-2337698D01*
X5479206Y-2336799D01*
X5676259Y-2359129D01*
X5676259Y-2359129D01*
G37*
X5676259Y-2359129D02*
X5847844Y-2424744D01*
X5991390Y-2531579D01*
X6104323Y-2677572D01*
X6184074Y-2860660D01*
X6199124Y-2914356D01*
X6240681Y-3079443D01*
X6524173Y-3170079D01*
X6807664Y-3260715D01*
X6889982Y-3182495D01*
X7039377Y-3072161D01*
X7202720Y-3005730D01*
X7372789Y-2980925D01*
X7542363Y-2995468D01*
X7704220Y-3047084D01*
X7851139Y-3133495D01*
X7975900Y-3252424D01*
X8071281Y-3401595D01*
X8128919Y-3573129D01*
X8142502Y-3760721D01*
X8107241Y-3947361D01*
X8024624Y-4125198D01*
X8024298Y-4125724D01*
X7946610Y-4250949D01*
X7990362Y-4347974D01*
X8020265Y-4406598D01*
X8052611Y-4435076D01*
X8105944Y-4444250D01*
X8156304Y-4445000D01*
X8332003Y-4469251D01*
X8500070Y-4537591D01*
X8649885Y-4643396D01*
X8770823Y-4780040D01*
X8816554Y-4856701D01*
X8864438Y-4994161D01*
X8885711Y-5154534D01*
X8879021Y-5316658D01*
X8853279Y-5431446D01*
X8789757Y-5561600D01*
X8692535Y-5689374D01*
X8576239Y-5798240D01*
X8468987Y-5865631D01*
X8306023Y-5918251D01*
X8129665Y-5934617D01*
X7959527Y-5913636D01*
X7904605Y-5897099D01*
X7733225Y-5811183D01*
X7594756Y-5691972D01*
X7491721Y-5546774D01*
X7426641Y-5382897D01*
X7402039Y-5207648D01*
X7407427Y-5155121D01*
X7766263Y-5155121D01*
X7775135Y-5279953D01*
X7821754Y-5384895D01*
X7905725Y-5477701D01*
X8013615Y-5547541D01*
X8131993Y-5583586D01*
X8154368Y-5585709D01*
X8198905Y-5576044D01*
X8267655Y-5548914D01*
X8305281Y-5530850D01*
X8420079Y-5453667D01*
X8491346Y-5357835D01*
X8525429Y-5234339D01*
X8527510Y-5215242D01*
X8529087Y-5124743D01*
X8509144Y-5055622D01*
X8479513Y-5006135D01*
X8377585Y-4890767D01*
X8264282Y-4824734D01*
X8140097Y-4808197D01*
X8005520Y-4841320D01*
X7993973Y-4846273D01*
X7877393Y-4922842D01*
X7800272Y-5028206D01*
X7766263Y-5155121D01*
X7407427Y-5155121D01*
X7420435Y-5028336D01*
X7484351Y-4852269D01*
X7521564Y-4787000D01*
X7598644Y-4665458D01*
X7554664Y-4567929D01*
X7524657Y-4509010D01*
X7492332Y-4480384D01*
X7439128Y-4471157D01*
X7388495Y-4470400D01*
X7211133Y-4446712D01*
X7045985Y-4380113D01*
X6900728Y-4277302D01*
X6783037Y-4144977D01*
X6700590Y-3989835D01*
X6662998Y-3837366D01*
X6654799Y-3768131D01*
X7016507Y-3768131D01*
X7055091Y-3890036D01*
X7105401Y-3965018D01*
X7212795Y-4059460D01*
X7333120Y-4105597D01*
X7462214Y-4102546D01*
X7569840Y-4063673D01*
X7679156Y-3982689D01*
X7749490Y-3877295D01*
X7779199Y-3757526D01*
X7766638Y-3633420D01*
X7710160Y-3515015D01*
X7668075Y-3464288D01*
X7555560Y-3377991D01*
X7434237Y-3341278D01*
X7305840Y-3354585D01*
X7274026Y-3365323D01*
X7153103Y-3434687D01*
X7068130Y-3531149D01*
X7021726Y-3645400D01*
X7016507Y-3768131D01*
X6654799Y-3768131D01*
X6648601Y-3715807D01*
X6357340Y-3622652D01*
X6066079Y-3529496D01*
X6017071Y-3591799D01*
X5968919Y-3635463D01*
X5891885Y-3687624D01*
X5812074Y-3732051D01*
X5632372Y-3796012D01*
X5450908Y-3813649D01*
X5274901Y-3788059D01*
X5111574Y-3722337D01*
X4968147Y-3619580D01*
X4851842Y-3482883D01*
X4769879Y-3315344D01*
X4758836Y-3280456D01*
X4730680Y-3098984D01*
X4731755Y-3087278D01*
X5086742Y-3087278D01*
X5112868Y-3202236D01*
X5173686Y-3303328D01*
X5261142Y-3383734D01*
X5367183Y-3436634D01*
X5483754Y-3455207D01*
X5602803Y-3432633D01*
X5637035Y-3417212D01*
X5731102Y-3347609D01*
X5808196Y-3252376D01*
X5853453Y-3150462D01*
X5856205Y-3137807D01*
X5854779Y-3011923D01*
X5804943Y-2889442D01*
X5725810Y-2792168D01*
X5671847Y-2744069D01*
X5623653Y-2717935D01*
X5562073Y-2707151D01*
X5473700Y-2705100D01*
X5381651Y-2707427D01*
X5321190Y-2718818D01*
X5273161Y-2745888D01*
X5221589Y-2792168D01*
X5160662Y-2863529D01*
X5113892Y-2939800D01*
X5103362Y-2965274D01*
X5086742Y-3087278D01*
X4731755Y-3087278D01*
X4747395Y-2917075D01*
X4805678Y-2745044D01*
X4902225Y-2593203D01*
X5013029Y-2486867D01*
X5143117Y-2404025D01*
X5275023Y-2356388D01*
X5428183Y-2337698D01*
X5479206Y-2336799D01*
X5676259Y-2359129D01*
G36*
X6509668Y-717338D02*
X6585867Y-768261D01*
X6654696Y-844102D01*
X6819683Y-1084085D01*
X6947098Y-1338981D01*
X7036081Y-1602556D01*
X7085775Y-1868580D01*
X7095320Y-2130819D01*
X7063858Y-2383041D01*
X6990530Y-2619014D01*
X6919017Y-2762427D01*
X6825271Y-2902703D01*
X6736156Y-2996829D01*
X6653196Y-3043892D01*
X6577917Y-3042981D01*
X6519036Y-3001549D01*
X6482480Y-2936609D01*
X6488414Y-2863935D01*
X6537903Y-2776321D01*
X6555764Y-2753042D01*
X6684714Y-2551500D01*
X6768902Y-2329110D01*
X6805707Y-2093348D01*
X6807200Y-2034812D01*
X6789462Y-1856929D01*
X6739819Y-1658479D01*
X6663627Y-1453429D01*
X6566240Y-1255740D01*
X6453014Y-1079379D01*
X6428485Y-1047319D01*
X6356958Y-941598D01*
X6328210Y-857225D01*
X6341343Y-789605D01*
X6371050Y-753236D01*
X6439503Y-712791D01*
X6509668Y-717338D01*
X6509668Y-717338D01*
G37*
X6509668Y-717338D02*
X6585867Y-768261D01*
X6654696Y-844102D01*
X6819683Y-1084085D01*
X6947098Y-1338981D01*
X7036081Y-1602556D01*
X7085775Y-1868580D01*
X7095320Y-2130819D01*
X7063858Y-2383041D01*
X6990530Y-2619014D01*
X6919017Y-2762427D01*
X6825271Y-2902703D01*
X6736156Y-2996829D01*
X6653196Y-3043892D01*
X6577917Y-3042981D01*
X6519036Y-3001549D01*
X6482480Y-2936609D01*
X6488414Y-2863935D01*
X6537903Y-2776321D01*
X6555764Y-2753042D01*
X6684714Y-2551500D01*
X6768902Y-2329110D01*
X6805707Y-2093348D01*
X6807200Y-2034812D01*
X6789462Y-1856929D01*
X6739819Y-1658479D01*
X6663627Y-1453429D01*
X6566240Y-1255740D01*
X6453014Y-1079379D01*
X6428485Y-1047319D01*
X6356958Y-941598D01*
X6328210Y-857225D01*
X6341343Y-789605D01*
X6371050Y-753236D01*
X6439503Y-712791D01*
X6509668Y-717338D01*
G36*
X8448169Y-1097740D02*
X8544712Y-1112651D01*
X8659856Y-1134372D01*
X8782112Y-1160339D01*
X8899991Y-1187991D01*
X9002005Y-1214763D01*
X9076664Y-1238095D01*
X9112195Y-1255128D01*
X9113043Y-1285955D01*
X9100641Y-1354846D01*
X9077836Y-1451684D01*
X9047473Y-1566349D01*
X9012400Y-1688724D01*
X8975461Y-1808691D01*
X8939504Y-1916132D01*
X8907375Y-2000927D01*
X8893901Y-2031126D01*
X8781916Y-2207409D01*
X8630167Y-2365232D01*
X8448571Y-2496746D01*
X8247042Y-2594101D01*
X8139811Y-2628064D01*
X7998853Y-2655815D01*
X7856983Y-2663197D01*
X7701428Y-2649518D01*
X7519418Y-2614085D01*
X7418085Y-2588932D01*
X7303427Y-2558199D01*
X7207761Y-2531104D01*
X7141260Y-2510627D01*
X7114221Y-2499888D01*
X7113067Y-2468788D01*
X7125156Y-2399825D01*
X7147627Y-2303319D01*
X7177618Y-2189586D01*
X7212267Y-2068944D01*
X7248711Y-1951711D01*
X7284088Y-1848203D01*
X7315536Y-1768740D01*
X7319397Y-1760262D01*
X7438191Y-1563500D01*
X7594669Y-1394930D01*
X7781531Y-1259143D01*
X7991475Y-1160730D01*
X8217200Y-1104284D01*
X8381717Y-1092200D01*
X8448169Y-1097740D01*
X8448169Y-1097740D01*
G37*
X8448169Y-1097740D02*
X8544712Y-1112651D01*
X8659856Y-1134372D01*
X8782112Y-1160339D01*
X8899991Y-1187991D01*
X9002005Y-1214763D01*
X9076664Y-1238095D01*
X9112195Y-1255128D01*
X9113043Y-1285955D01*
X9100641Y-1354846D01*
X9077836Y-1451684D01*
X9047473Y-1566349D01*
X9012400Y-1688724D01*
X8975461Y-1808691D01*
X8939504Y-1916132D01*
X8907375Y-2000927D01*
X8893901Y-2031126D01*
X8781916Y-2207409D01*
X8630167Y-2365232D01*
X8448571Y-2496746D01*
X8247042Y-2594101D01*
X8139811Y-2628064D01*
X7998853Y-2655815D01*
X7856983Y-2663197D01*
X7701428Y-2649518D01*
X7519418Y-2614085D01*
X7418085Y-2588932D01*
X7303427Y-2558199D01*
X7207761Y-2531104D01*
X7141260Y-2510627D01*
X7114221Y-2499888D01*
X7113067Y-2468788D01*
X7125156Y-2399825D01*
X7147627Y-2303319D01*
X7177618Y-2189586D01*
X7212267Y-2068944D01*
X7248711Y-1951711D01*
X7284088Y-1848203D01*
X7315536Y-1768740D01*
X7319397Y-1760262D01*
X7438191Y-1563500D01*
X7594669Y-1394930D01*
X7781531Y-1259143D01*
X7991475Y-1160730D01*
X8217200Y-1104284D01*
X8381717Y-1092200D01*
X8448169Y-1097740D01*
D12*
X11557000Y-2413000D03*
X6731000Y-30607000D03*
D13*
X35687000Y-50927000D03*
X38227000Y-50927000D03*
X50927000Y-50927000D03*
X53467000Y-50927000D03*
X56007000Y-50927000D03*
X58547000Y-50927000D03*
X61087000Y-50927000D03*
X63627000Y-50927000D03*
X24003000Y-2667000D03*
X63627000Y-2667000D03*
X61087000Y-2667000D03*
X58547000Y-2667000D03*
X56007000Y-2667000D03*
X53467000Y-2667000D03*
X50927000Y-2667000D03*
X48387000Y-2667000D03*
X45847000Y-2667000D03*
X41783000Y-2667000D03*
X39243000Y-2667000D03*
X36703000Y-2667000D03*
X34163000Y-2667000D03*
X31623000Y-2667000D03*
X29083000Y-2667000D03*
X40767000Y-50927000D03*
X43307000Y-50927000D03*
X26543000Y-2667000D03*
X66306700Y-28115260D03*
X30607000Y-50927000D03*
X63766700Y-23037800D03*
X66306700Y-25577800D03*
X28067000Y-50927000D03*
X33147000Y-50927000D03*
X63766700Y-28115260D03*
X63766700Y-25577800D03*
X18923000Y-2667000D03*
X21463000Y-2667000D03*
X66306700Y-23037800D03*
X45847000Y-50927000D03*
D14*
X15367000Y-2667000D03*
X66167000Y-17907000D03*
X66167000Y-45847000D03*
X14097000Y-50927000D03*
D15*
X18145000Y-8509000D03*
X16145000Y-8509000D03*
X8239000Y-16129000D03*
X6239000Y-16129000D03*
D16*
X7852000Y-23241000D03*
X5102000Y-23241000D03*
D15*
X6239000Y-9779000D03*
X8239000Y-9779000D03*
D17*
X38596000Y-39243000D03*
X37096000Y-39243000D03*
X28055000Y-19939000D03*
X26555000Y-19939000D03*
D18*
X26129000Y-42291000D03*
X31529000Y-42291000D03*
D15*
X32909000Y-30734000D03*
X34909000Y-30734000D03*
D19*
X14859000Y-31336000D03*
X14859000Y-36736000D03*
D15*
X32909000Y-28829000D03*
X34909000Y-28829000D03*
X32909000Y-25019000D03*
X34909000Y-25019000D03*
D17*
X38596000Y-45974000D03*
X37096000Y-45974000D03*
X38596000Y-43688000D03*
X37096000Y-43688000D03*
X38596000Y-41529000D03*
X37096000Y-41529000D03*
D15*
X32909000Y-35179000D03*
X34909000Y-35179000D03*
D20*
X19304000Y-36560000D03*
X19304000Y-34560000D03*
D15*
X9541000Y-14224000D03*
X11541000Y-14224000D03*
X9541000Y-11684000D03*
X11541000Y-11684000D03*
X15605000Y-28448000D03*
X13605000Y-28448000D03*
X11954000Y-18034000D03*
X13954000Y-18034000D03*
X12335000Y-39624000D03*
X14335000Y-39624000D03*
D21*
X10382000Y-27432000D03*
X6382000Y-27432000D03*
D22*
X27559000Y-9690000D03*
X27559000Y-8090000D03*
X58890000Y-20574000D03*
X60490000Y-20574000D03*
D19*
X8155000Y-19685000D03*
X3275000Y-19685000D03*
D23*
X5711000Y-45339000D03*
D24*
X11811000Y-45339000D03*
D23*
X8001000Y-50419000D03*
D25*
X17693000Y-42164000D03*
X22693000Y-42164000D03*
D26*
X32959000Y-33020000D03*
X34859000Y-33020000D03*
D27*
X24595000Y-12573000D03*
X22395000Y-12573000D03*
X24595000Y-14478000D03*
X22395000Y-14478000D03*
D28*
X63500000Y-12319000D03*
D29*
X63500000Y-9779000D03*
X63500000Y-7239000D03*
D28*
X50800000Y-12319000D03*
D29*
X50800000Y-9779000D03*
X50800000Y-7239000D03*
D28*
X38100000Y-12319000D03*
D29*
X38100000Y-9779000D03*
X38100000Y-7239000D03*
D28*
X41910000Y-40894000D03*
D29*
X41910000Y-43434000D03*
X41910000Y-45974000D03*
D28*
X59690000Y-40894000D03*
D29*
X59690000Y-43434000D03*
X59690000Y-45974000D03*
D28*
X60960000Y-12319000D03*
D29*
X60960000Y-9779000D03*
X60960000Y-7239000D03*
D28*
X48260000Y-12319000D03*
D29*
X48260000Y-9779000D03*
X48260000Y-7239000D03*
D28*
X35560000Y-12319000D03*
D29*
X35560000Y-9779000D03*
X35560000Y-7239000D03*
D28*
X44450000Y-40894000D03*
D29*
X44450000Y-43434000D03*
X44450000Y-45974000D03*
D28*
X57150000Y-40894000D03*
D29*
X57150000Y-43434000D03*
X57150000Y-45974000D03*
D28*
X58420000Y-12319000D03*
D29*
X58420000Y-9779000D03*
X58420000Y-7239000D03*
D28*
X45720000Y-12319000D03*
D29*
X45720000Y-9779000D03*
X45720000Y-7239000D03*
D28*
X33020000Y-12319000D03*
D29*
X33020000Y-9779000D03*
X33020000Y-7239000D03*
D28*
X46990000Y-40894000D03*
D29*
X46990000Y-43434000D03*
X46990000Y-45974000D03*
D28*
X55880000Y-12319000D03*
D29*
X55880000Y-9779000D03*
X55880000Y-7239000D03*
D28*
X43180000Y-12319000D03*
D29*
X43180000Y-9779000D03*
X43180000Y-7239000D03*
D28*
X30480000Y-12319000D03*
D29*
X30480000Y-9779000D03*
X30480000Y-7239000D03*
D28*
X49530000Y-40894000D03*
D29*
X49530000Y-43434000D03*
X49530000Y-45974000D03*
D28*
X53340000Y-12319000D03*
D29*
X53340000Y-9779000D03*
X53340000Y-7239000D03*
D28*
X40640000Y-12319000D03*
D29*
X40640000Y-9779000D03*
X40640000Y-7239000D03*
D28*
X52070000Y-40894000D03*
D29*
X52070000Y-43434000D03*
X52070000Y-45974000D03*
D28*
X54610000Y-40894000D03*
D29*
X54610000Y-43434000D03*
X54610000Y-45974000D03*
D30*
X63500000Y-38989000D03*
D31*
X63500000Y-36989000D03*
X63500000Y-34989000D03*
X63500000Y-32989000D03*
D32*
X23130000Y-17384000D03*
X23130000Y-18684000D03*
X25130000Y-18034000D03*
D33*
X23860000Y-23175000D03*
X23860000Y-21275000D03*
X21860000Y-22225000D03*
X23860000Y-26731000D03*
X23860000Y-24831000D03*
X21860000Y-25781000D03*
D26*
X26228000Y-14478000D03*
X28128000Y-14478000D03*
D34*
X25654000Y-7940000D03*
X25654000Y-9840000D03*
X34861500Y-43119000D03*
X34861500Y-45019000D03*
D26*
X26228000Y-12573000D03*
X28128000Y-12573000D03*
D34*
X63119000Y-15814000D03*
X63119000Y-17714000D03*
X60960000Y-15814000D03*
X60960000Y-17714000D03*
X26924000Y-36388000D03*
X26924000Y-38288000D03*
D26*
X58740000Y-22479000D03*
X60640000Y-22479000D03*
D34*
X37211000Y-31430000D03*
X37211000Y-29530000D03*
X28448000Y-38288000D03*
X28448000Y-36388000D03*
D26*
X34859000Y-26924000D03*
X32959000Y-26924000D03*
X8189000Y-11684000D03*
X6289000Y-11684000D03*
X8189000Y-14224000D03*
X6289000Y-14224000D03*
D34*
X21209000Y-19111000D03*
X21209000Y-17211000D03*
D26*
X26355000Y-17780000D03*
X28255000Y-17780000D03*
X26355000Y-26543000D03*
X28255000Y-26543000D03*
X13655000Y-26543000D03*
X15555000Y-26543000D03*
X17211000Y-26543000D03*
X19111000Y-26543000D03*
X26355000Y-23114000D03*
X28255000Y-23114000D03*
D35*
X16719000Y-48437000D03*
D36*
X17979000Y-50927000D03*
X22479000Y-50927000D03*
D35*
X23729000Y-48437000D03*
D37*
X1829000Y-26313000D03*
X1829000Y-29313000D03*
D38*
X3589000Y-25563000D03*
X3589000Y-28563000D03*
X3589000Y-30063000D03*
D39*
X729000Y-24163000D03*
X729000Y-31463000D03*
X2939000Y-31463000D03*
X2939000Y-24163000D03*
D40*
X19304000Y-10160000D03*
X18669000Y-10160000D03*
X18008600Y-10160000D03*
X17348200Y-10160000D03*
X16713200Y-10160000D03*
X16052800Y-10160000D03*
X15392400Y-10160000D03*
X14757400Y-10160000D03*
X14097000Y-10160000D03*
X13462000Y-10160000D03*
X13462000Y-15494000D03*
X14097000Y-15494000D03*
X14757400Y-15494000D03*
X15392400Y-15494000D03*
X16052800Y-15494000D03*
X16713200Y-15494000D03*
X17348200Y-15494000D03*
X18008600Y-15494000D03*
X18669000Y-15494000D03*
X19304000Y-15494000D03*
D41*
X13175000Y-19812000D03*
X13175000Y-21082000D03*
X13175000Y-22352000D03*
X13175000Y-23622000D03*
X18575000Y-23622000D03*
X18575000Y-22352000D03*
X18575000Y-21082000D03*
X18575000Y-19812000D03*
D42*
X3073000Y-36703000D03*
D43*
X9373000Y-36703000D03*
X9373000Y-34403000D03*
X9373000Y-39003000D03*
D10*
G36*
X52473334Y-23670845D02*
X52932953Y-24130464D01*
X51730872Y-25332545D01*
X51271253Y-24872926D01*
X52473334Y-23670845D01*
X52473334Y-23670845D01*
G37*
G36*
X51907648Y-23105160D02*
X52367267Y-23564779D01*
X51165186Y-24766860D01*
X50705567Y-24307241D01*
X51907648Y-23105160D01*
X51907648Y-23105160D01*
G37*
G36*
X51341963Y-22539474D02*
X51801582Y-22999093D01*
X50599501Y-24201174D01*
X50139882Y-23741555D01*
X51341963Y-22539474D01*
X51341963Y-22539474D01*
G37*
G36*
X50776278Y-21973789D02*
X51235897Y-22433408D01*
X50033816Y-23635489D01*
X49574197Y-23175870D01*
X50776278Y-21973789D01*
X50776278Y-21973789D01*
G37*
G36*
X50210592Y-21408103D02*
X50670211Y-21867722D01*
X49468130Y-23069803D01*
X49008511Y-22610184D01*
X50210592Y-21408103D01*
X50210592Y-21408103D01*
G37*
G36*
X49644907Y-20842418D02*
X50104526Y-21302037D01*
X48902445Y-22504118D01*
X48442826Y-22044499D01*
X49644907Y-20842418D01*
X49644907Y-20842418D01*
G37*
G36*
X49079221Y-20276733D02*
X49538840Y-20736352D01*
X48336759Y-21938433D01*
X47877140Y-21478814D01*
X49079221Y-20276733D01*
X49079221Y-20276733D01*
G37*
G36*
X48513536Y-19711047D02*
X48973155Y-20170666D01*
X47771074Y-21372747D01*
X47311455Y-20913128D01*
X48513536Y-19711047D01*
X48513536Y-19711047D01*
G37*
G36*
X45260845Y-20170666D02*
X45720464Y-19711047D01*
X46922545Y-20913128D01*
X46462926Y-21372747D01*
X45260845Y-20170666D01*
X45260845Y-20170666D01*
G37*
G36*
X44695160Y-20736352D02*
X45154779Y-20276733D01*
X46356860Y-21478814D01*
X45897241Y-21938433D01*
X44695160Y-20736352D01*
X44695160Y-20736352D01*
G37*
G36*
X44129474Y-21302037D02*
X44589093Y-20842418D01*
X45791174Y-22044499D01*
X45331555Y-22504118D01*
X44129474Y-21302037D01*
X44129474Y-21302037D01*
G37*
G36*
X43563789Y-21867722D02*
X44023408Y-21408103D01*
X45225489Y-22610184D01*
X44765870Y-23069803D01*
X43563789Y-21867722D01*
X43563789Y-21867722D01*
G37*
G36*
X42998103Y-22433408D02*
X43457722Y-21973789D01*
X44659803Y-23175870D01*
X44200184Y-23635489D01*
X42998103Y-22433408D01*
X42998103Y-22433408D01*
G37*
G36*
X42432418Y-22999093D02*
X42892037Y-22539474D01*
X44094118Y-23741555D01*
X43634499Y-24201174D01*
X42432418Y-22999093D01*
X42432418Y-22999093D01*
G37*
G36*
X41866733Y-23564779D02*
X42326352Y-23105160D01*
X43528433Y-24307241D01*
X43068814Y-24766860D01*
X41866733Y-23564779D01*
X41866733Y-23564779D01*
G37*
G36*
X41301047Y-24130464D02*
X41760666Y-23670845D01*
X42962747Y-24872926D01*
X42503128Y-25332545D01*
X41301047Y-24130464D01*
X41301047Y-24130464D01*
G37*
G36*
X42503128Y-25721455D02*
X42962747Y-26181074D01*
X41760666Y-27383155D01*
X41301047Y-26923536D01*
X42503128Y-25721455D01*
X42503128Y-25721455D01*
G37*
G36*
X43068814Y-26287140D02*
X43528433Y-26746759D01*
X42326352Y-27948840D01*
X41866733Y-27489221D01*
X43068814Y-26287140D01*
X43068814Y-26287140D01*
G37*
G36*
X43634499Y-26852826D02*
X44094118Y-27312445D01*
X42892037Y-28514526D01*
X42432418Y-28054907D01*
X43634499Y-26852826D01*
X43634499Y-26852826D01*
G37*
G36*
X44200184Y-27418511D02*
X44659803Y-27878130D01*
X43457722Y-29080211D01*
X42998103Y-28620592D01*
X44200184Y-27418511D01*
X44200184Y-27418511D01*
G37*
G36*
X44765870Y-27984197D02*
X45225489Y-28443816D01*
X44023408Y-29645897D01*
X43563789Y-29186278D01*
X44765870Y-27984197D01*
X44765870Y-27984197D01*
G37*
G36*
X45331555Y-28549882D02*
X45791174Y-29009501D01*
X44589093Y-30211582D01*
X44129474Y-29751963D01*
X45331555Y-28549882D01*
X45331555Y-28549882D01*
G37*
G36*
X45897241Y-29115567D02*
X46356860Y-29575186D01*
X45154779Y-30777267D01*
X44695160Y-30317648D01*
X45897241Y-29115567D01*
X45897241Y-29115567D01*
G37*
G36*
X46462926Y-29681253D02*
X46922545Y-30140872D01*
X45720464Y-31342953D01*
X45260845Y-30883334D01*
X46462926Y-29681253D01*
X46462926Y-29681253D01*
G37*
G36*
X47311455Y-30140872D02*
X47771074Y-29681253D01*
X48973155Y-30883334D01*
X48513536Y-31342953D01*
X47311455Y-30140872D01*
X47311455Y-30140872D01*
G37*
G36*
X47877140Y-29575186D02*
X48336759Y-29115567D01*
X49538840Y-30317648D01*
X49079221Y-30777267D01*
X47877140Y-29575186D01*
X47877140Y-29575186D01*
G37*
G36*
X48442826Y-29009501D02*
X48902445Y-28549882D01*
X50104526Y-29751963D01*
X49644907Y-30211582D01*
X48442826Y-29009501D01*
X48442826Y-29009501D01*
G37*
G36*
X49008511Y-28443816D02*
X49468130Y-27984197D01*
X50670211Y-29186278D01*
X50210592Y-29645897D01*
X49008511Y-28443816D01*
X49008511Y-28443816D01*
G37*
G36*
X49574197Y-27878130D02*
X50033816Y-27418511D01*
X51235897Y-28620592D01*
X50776278Y-29080211D01*
X49574197Y-27878130D01*
X49574197Y-27878130D01*
G37*
G36*
X50139882Y-27312445D02*
X50599501Y-26852826D01*
X51801582Y-28054907D01*
X51341963Y-28514526D01*
X50139882Y-27312445D01*
X50139882Y-27312445D01*
G37*
G36*
X50705567Y-26746759D02*
X51165186Y-26287140D01*
X52367267Y-27489221D01*
X51907648Y-27948840D01*
X50705567Y-26746759D01*
X50705567Y-26746759D01*
G37*
G36*
X51271253Y-26181074D02*
X51730872Y-25721455D01*
X52932953Y-26923536D01*
X52473334Y-27383155D01*
X51271253Y-26181074D01*
X51271253Y-26181074D01*
G37*
D41*
X23335000Y-29718000D03*
X23335000Y-30988000D03*
X23335000Y-32258000D03*
X23335000Y-33528000D03*
X28735000Y-33528000D03*
X28735000Y-32258000D03*
X28735000Y-30988000D03*
X28735000Y-29718000D03*
D44*
X26635000Y-32423000D03*
X26635000Y-30823000D03*
X25435000Y-32423000D03*
X25435000Y-30823000D03*
D45*
X50752167Y-20539305D02*
X51781305Y-19510167D01*
X49904431Y-19691569D02*
X50933569Y-18662431D01*
X49056695Y-18843833D02*
X50085833Y-17814695D01*
D46*
X1301000Y-13319000D03*
D47*
X4001000Y-9819000D03*
D48*
X4001000Y-11669000D03*
X4001000Y-11019000D03*
X4001000Y-13619000D03*
X4001000Y-12969000D03*
X4001000Y-12319000D03*
D47*
X4001000Y-14819000D03*
D46*
X1301000Y-11319000D03*
D49*
X1301000Y-8819000D03*
X1301000Y-15819000D03*
D50*
X1301000Y-15219000D03*
X1301000Y-9419000D03*
D12*
X62865000Y-45847000D03*
M02*
