%TF.GenerationSoftware,KiCad,Pcbnew,4.0.7*%
%TF.CreationDate,2018-06-08T10:12:50+02:00*%
%TF.ProjectId,Grape,47726170652E6B696361645F70636200,rev?*%
%TF.FileFunction,Legend,Top*%
%FSLAX46Y46*%
G04 Gerber Fmt 4.6, Leading zero omitted, Abs format (unit mm)*
G04 Created by KiCad (PCBNEW 4.0.7) date 06/08/18 10:12:50*
%MOMM*%
%LPD*%
G01*
G04 APERTURE LIST*
%ADD10C,0.150000*%
%ADD11C,0.127000*%
%ADD12C,0.100000*%
%ADD13C,0.200000*%
%ADD14C,0.120000*%
%ADD15C,0.203200*%
%ADD16C,0.010000*%
G04 APERTURE END LIST*
D10*
D11*
X146685000Y-65508143D02*
X146732619Y-65555762D01*
X146685000Y-65603381D01*
X146637381Y-65555762D01*
X146685000Y-65508143D01*
X146685000Y-65603381D01*
X149479000Y-65508143D02*
X149526619Y-65555762D01*
X149479000Y-65603381D01*
X149431381Y-65555762D01*
X149479000Y-65508143D01*
X149479000Y-65603381D01*
X151511000Y-65508143D02*
X151558619Y-65555762D01*
X151511000Y-65603381D01*
X151463381Y-65555762D01*
X151511000Y-65508143D01*
X151511000Y-65603381D01*
X160655000Y-65508143D02*
X160702619Y-65555762D01*
X160655000Y-65603381D01*
X160607381Y-65555762D01*
X160655000Y-65508143D01*
X160655000Y-65603381D01*
X163195000Y-65508143D02*
X163242619Y-65555762D01*
X163195000Y-65603381D01*
X163147381Y-65555762D01*
X163195000Y-65508143D01*
X163195000Y-65603381D01*
X168275000Y-65508143D02*
X168322619Y-65555762D01*
X168275000Y-65603381D01*
X168227381Y-65555762D01*
X168275000Y-65508143D01*
X168275000Y-65603381D01*
X168148000Y-75160143D02*
X168195619Y-75207762D01*
X168148000Y-75255381D01*
X168100381Y-75207762D01*
X168148000Y-75160143D01*
X168148000Y-75255381D01*
X163068000Y-75160143D02*
X163115619Y-75207762D01*
X163068000Y-75255381D01*
X163020381Y-75207762D01*
X163068000Y-75160143D01*
X163068000Y-75255381D01*
X160528000Y-75160143D02*
X160575619Y-75207762D01*
X160528000Y-75255381D01*
X160480381Y-75207762D01*
X160528000Y-75160143D01*
X160528000Y-75255381D01*
X152908000Y-75160143D02*
X152955619Y-75207762D01*
X152908000Y-75255381D01*
X152860381Y-75207762D01*
X152908000Y-75160143D01*
X152908000Y-75255381D01*
X150876000Y-75160143D02*
X150923619Y-75207762D01*
X150876000Y-75255381D01*
X150828381Y-75207762D01*
X150876000Y-75160143D01*
X150876000Y-75255381D01*
X148082000Y-75160143D02*
X148129619Y-75207762D01*
X148082000Y-75255381D01*
X148034381Y-75207762D01*
X148082000Y-75160143D01*
X148082000Y-75255381D01*
X176276000Y-114300000D02*
X112776000Y-114300000D01*
X177800000Y-112776000D02*
X177800000Y-111760000D01*
X177800000Y-112776000D02*
X176276000Y-114300000D01*
X176276000Y-60960000D02*
X112776000Y-60960000D01*
X111760000Y-61976000D02*
X111760000Y-113284000D01*
X111760000Y-113284000D02*
G75*
G03X112776000Y-114300000I1016000J0D01*
G01*
X112776000Y-60960000D02*
G75*
G03X111760000Y-61976000I0J-1016000D01*
G01*
X156384762Y-108926381D02*
X156718095Y-109926381D01*
X157051429Y-108926381D01*
X157384762Y-109926381D02*
X157384762Y-108926381D01*
X157860952Y-109926381D02*
X157860952Y-108926381D01*
X158432381Y-109926381D01*
X158432381Y-108926381D01*
X152908096Y-108974000D02*
X152812858Y-108926381D01*
X152670001Y-108926381D01*
X152527143Y-108974000D01*
X152431905Y-109069238D01*
X152384286Y-109164476D01*
X152336667Y-109354952D01*
X152336667Y-109497810D01*
X152384286Y-109688286D01*
X152431905Y-109783524D01*
X152527143Y-109878762D01*
X152670001Y-109926381D01*
X152765239Y-109926381D01*
X152908096Y-109878762D01*
X152955715Y-109831143D01*
X152955715Y-109497810D01*
X152765239Y-109497810D01*
X153384286Y-109926381D02*
X153384286Y-108926381D01*
X153955715Y-109926381D01*
X153955715Y-108926381D01*
X154431905Y-109926381D02*
X154431905Y-108926381D01*
X154670000Y-108926381D01*
X154812858Y-108974000D01*
X154908096Y-109069238D01*
X154955715Y-109164476D01*
X155003334Y-109354952D01*
X155003334Y-109497810D01*
X154955715Y-109688286D01*
X154908096Y-109783524D01*
X154812858Y-109878762D01*
X154670000Y-109926381D01*
X154431905Y-109926381D01*
X149312381Y-109664476D02*
X149312381Y-110140667D01*
X149788571Y-110188286D01*
X149740952Y-110140667D01*
X149693333Y-110045429D01*
X149693333Y-109807333D01*
X149740952Y-109712095D01*
X149788571Y-109664476D01*
X149883810Y-109616857D01*
X150121905Y-109616857D01*
X150217143Y-109664476D01*
X150264762Y-109712095D01*
X150312381Y-109807333D01*
X150312381Y-110045429D01*
X150264762Y-110140667D01*
X150217143Y-110188286D01*
X149312381Y-109331143D02*
X150312381Y-108997810D01*
X149312381Y-108664476D01*
X146772381Y-110204095D02*
X146772381Y-109585047D01*
X147153333Y-109918381D01*
X147153333Y-109775523D01*
X147200952Y-109680285D01*
X147248571Y-109632666D01*
X147343810Y-109585047D01*
X147581905Y-109585047D01*
X147677143Y-109632666D01*
X147724762Y-109680285D01*
X147772381Y-109775523D01*
X147772381Y-110061238D01*
X147724762Y-110156476D01*
X147677143Y-110204095D01*
X146772381Y-109299333D02*
X147772381Y-108966000D01*
X146772381Y-108632666D01*
X146772381Y-108394571D02*
X146772381Y-107775523D01*
X147153333Y-108108857D01*
X147153333Y-107965999D01*
X147200952Y-107870761D01*
X147248571Y-107823142D01*
X147343810Y-107775523D01*
X147581905Y-107775523D01*
X147677143Y-107823142D01*
X147724762Y-107870761D01*
X147772381Y-107965999D01*
X147772381Y-108251714D01*
X147724762Y-108346952D01*
X147677143Y-108394571D01*
X145232381Y-109910381D02*
X144756190Y-110243715D01*
X145232381Y-110481810D02*
X144232381Y-110481810D01*
X144232381Y-110100857D01*
X144280000Y-110005619D01*
X144327619Y-109958000D01*
X144422857Y-109910381D01*
X144565714Y-109910381D01*
X144660952Y-109958000D01*
X144708571Y-110005619D01*
X144756190Y-110100857D01*
X144756190Y-110481810D01*
X144708571Y-109481810D02*
X144708571Y-109148476D01*
X145232381Y-109005619D02*
X145232381Y-109481810D01*
X144232381Y-109481810D01*
X144232381Y-109005619D01*
X145184762Y-108624667D02*
X145232381Y-108481810D01*
X145232381Y-108243714D01*
X145184762Y-108148476D01*
X145137143Y-108100857D01*
X145041905Y-108053238D01*
X144946667Y-108053238D01*
X144851429Y-108100857D01*
X144803810Y-108148476D01*
X144756190Y-108243714D01*
X144708571Y-108434191D01*
X144660952Y-108529429D01*
X144613333Y-108577048D01*
X144518095Y-108624667D01*
X144422857Y-108624667D01*
X144327619Y-108577048D01*
X144280000Y-108529429D01*
X144232381Y-108434191D01*
X144232381Y-108196095D01*
X144280000Y-108053238D01*
X144708571Y-107624667D02*
X144708571Y-107291333D01*
X145232381Y-107148476D02*
X145232381Y-107624667D01*
X144232381Y-107624667D01*
X144232381Y-107148476D01*
X144232381Y-106862762D02*
X144232381Y-106291333D01*
X145232381Y-106577048D02*
X144232381Y-106577048D01*
X142692381Y-110362762D02*
X141692381Y-110362762D01*
X141692381Y-109696096D02*
X141692381Y-109505619D01*
X141740000Y-109410381D01*
X141835238Y-109315143D01*
X142025714Y-109267524D01*
X142359048Y-109267524D01*
X142549524Y-109315143D01*
X142644762Y-109410381D01*
X142692381Y-109505619D01*
X142692381Y-109696096D01*
X142644762Y-109791334D01*
X142549524Y-109886572D01*
X142359048Y-109934191D01*
X142025714Y-109934191D01*
X141835238Y-109886572D01*
X141740000Y-109791334D01*
X141692381Y-109696096D01*
X142692381Y-108267524D02*
X142216190Y-108600858D01*
X142692381Y-108838953D02*
X141692381Y-108838953D01*
X141692381Y-108458000D01*
X141740000Y-108362762D01*
X141787619Y-108315143D01*
X141882857Y-108267524D01*
X142025714Y-108267524D01*
X142120952Y-108315143D01*
X142168571Y-108362762D01*
X142216190Y-108458000D01*
X142216190Y-108838953D01*
X142168571Y-107838953D02*
X142168571Y-107505619D01*
X142692381Y-107362762D02*
X142692381Y-107838953D01*
X141692381Y-107838953D01*
X141692381Y-107362762D01*
X142168571Y-106600857D02*
X142168571Y-106934191D01*
X142692381Y-106934191D02*
X141692381Y-106934191D01*
X141692381Y-106458000D01*
X130960762Y-67738476D02*
X131008381Y-67595619D01*
X131008381Y-67357523D01*
X130960762Y-67262285D01*
X130913143Y-67214666D01*
X130817905Y-67167047D01*
X130722667Y-67167047D01*
X130627429Y-67214666D01*
X130579810Y-67262285D01*
X130532190Y-67357523D01*
X130484571Y-67548000D01*
X130436952Y-67643238D01*
X130389333Y-67690857D01*
X130294095Y-67738476D01*
X130198857Y-67738476D01*
X130103619Y-67690857D01*
X130056000Y-67643238D01*
X130008381Y-67548000D01*
X130008381Y-67309904D01*
X130056000Y-67167047D01*
X130913143Y-66167047D02*
X130960762Y-66214666D01*
X131008381Y-66357523D01*
X131008381Y-66452761D01*
X130960762Y-66595619D01*
X130865524Y-66690857D01*
X130770286Y-66738476D01*
X130579810Y-66786095D01*
X130436952Y-66786095D01*
X130246476Y-66738476D01*
X130151238Y-66690857D01*
X130056000Y-66595619D01*
X130008381Y-66452761D01*
X130008381Y-66357523D01*
X130056000Y-66214666D01*
X130103619Y-66167047D01*
X131008381Y-65262285D02*
X131008381Y-65738476D01*
X130008381Y-65738476D01*
X133500762Y-67762286D02*
X133548381Y-67619429D01*
X133548381Y-67381333D01*
X133500762Y-67286095D01*
X133453143Y-67238476D01*
X133357905Y-67190857D01*
X133262667Y-67190857D01*
X133167429Y-67238476D01*
X133119810Y-67286095D01*
X133072190Y-67381333D01*
X133024571Y-67571810D01*
X132976952Y-67667048D01*
X132929333Y-67714667D01*
X132834095Y-67762286D01*
X132738857Y-67762286D01*
X132643619Y-67714667D01*
X132596000Y-67667048D01*
X132548381Y-67571810D01*
X132548381Y-67333714D01*
X132596000Y-67190857D01*
X133548381Y-66762286D02*
X132548381Y-66762286D01*
X132548381Y-66524191D01*
X132596000Y-66381333D01*
X132691238Y-66286095D01*
X132786476Y-66238476D01*
X132976952Y-66190857D01*
X133119810Y-66190857D01*
X133310286Y-66238476D01*
X133405524Y-66286095D01*
X133500762Y-66381333D01*
X133548381Y-66524191D01*
X133548381Y-66762286D01*
X133262667Y-65809905D02*
X133262667Y-65333714D01*
X133548381Y-65905143D02*
X132548381Y-65571810D01*
X133548381Y-65238476D01*
X135802667Y-68167048D02*
X135802667Y-67690857D01*
X136088381Y-68262286D02*
X135088381Y-67928953D01*
X136088381Y-67595619D01*
X136088381Y-66690857D02*
X135612190Y-67024191D01*
X136088381Y-67262286D02*
X135088381Y-67262286D01*
X135088381Y-66881333D01*
X135136000Y-66786095D01*
X135183619Y-66738476D01*
X135278857Y-66690857D01*
X135421714Y-66690857D01*
X135516952Y-66738476D01*
X135564571Y-66786095D01*
X135612190Y-66881333D01*
X135612190Y-67262286D01*
X135564571Y-66262286D02*
X135564571Y-65928952D01*
X136088381Y-65786095D02*
X136088381Y-66262286D01*
X135088381Y-66262286D01*
X135088381Y-65786095D01*
X135564571Y-65024190D02*
X135564571Y-65357524D01*
X136088381Y-65357524D02*
X135088381Y-65357524D01*
X135088381Y-64881333D01*
X137676000Y-67055904D02*
X137628381Y-67151142D01*
X137628381Y-67293999D01*
X137676000Y-67436857D01*
X137771238Y-67532095D01*
X137866476Y-67579714D01*
X138056952Y-67627333D01*
X138199810Y-67627333D01*
X138390286Y-67579714D01*
X138485524Y-67532095D01*
X138580762Y-67436857D01*
X138628381Y-67293999D01*
X138628381Y-67198761D01*
X138580762Y-67055904D01*
X138533143Y-67008285D01*
X138199810Y-67008285D01*
X138199810Y-67198761D01*
X138628381Y-66579714D02*
X137628381Y-66579714D01*
X138628381Y-66008285D01*
X137628381Y-66008285D01*
X138628381Y-65532095D02*
X137628381Y-65532095D01*
X137628381Y-65294000D01*
X137676000Y-65151142D01*
X137771238Y-65055904D01*
X137866476Y-65008285D01*
X138056952Y-64960666D01*
X138199810Y-64960666D01*
X138390286Y-65008285D01*
X138485524Y-65055904D01*
X138580762Y-65151142D01*
X138628381Y-65294000D01*
X138628381Y-65532095D01*
D12*
X176192667Y-65758190D02*
X176026000Y-65520095D01*
X175906953Y-65758190D02*
X175906953Y-65258190D01*
X176097429Y-65258190D01*
X176145048Y-65282000D01*
X176168857Y-65305810D01*
X176192667Y-65353429D01*
X176192667Y-65424857D01*
X176168857Y-65472476D01*
X176145048Y-65496286D01*
X176097429Y-65520095D01*
X175906953Y-65520095D01*
X176359334Y-65258190D02*
X176692667Y-65758190D01*
X176692667Y-65258190D02*
X176359334Y-65758190D01*
D11*
X175212381Y-64984381D02*
X175307620Y-64984381D01*
X175402858Y-65032000D01*
X175450477Y-65079619D01*
X175498096Y-65174857D01*
X175545715Y-65365333D01*
X175545715Y-65603429D01*
X175498096Y-65793905D01*
X175450477Y-65889143D01*
X175402858Y-65936762D01*
X175307620Y-65984381D01*
X175212381Y-65984381D01*
X175117143Y-65936762D01*
X175069524Y-65889143D01*
X175021905Y-65793905D01*
X174974286Y-65603429D01*
X174974286Y-65365333D01*
X175021905Y-65174857D01*
X175069524Y-65079619D01*
X175117143Y-65032000D01*
X175212381Y-64984381D01*
D12*
X173101048Y-65258190D02*
X173386762Y-65258190D01*
X173243905Y-65758190D02*
X173243905Y-65258190D01*
X173505810Y-65258190D02*
X173839143Y-65758190D01*
X173839143Y-65258190D02*
X173505810Y-65758190D01*
D11*
X173005715Y-65984381D02*
X172434286Y-65984381D01*
X172720000Y-65984381D02*
X172720000Y-64984381D01*
X172624762Y-65127238D01*
X172529524Y-65222476D01*
X172434286Y-65270095D01*
X169894286Y-65079619D02*
X169941905Y-65032000D01*
X170037143Y-64984381D01*
X170275239Y-64984381D01*
X170370477Y-65032000D01*
X170418096Y-65079619D01*
X170465715Y-65174857D01*
X170465715Y-65270095D01*
X170418096Y-65412952D01*
X169846667Y-65984381D01*
X170465715Y-65984381D01*
X167306667Y-64984381D02*
X167925715Y-64984381D01*
X167592381Y-65365333D01*
X167735239Y-65365333D01*
X167830477Y-65412952D01*
X167878096Y-65460571D01*
X167925715Y-65555810D01*
X167925715Y-65793905D01*
X167878096Y-65889143D01*
X167830477Y-65936762D01*
X167735239Y-65984381D01*
X167449524Y-65984381D01*
X167354286Y-65936762D01*
X167306667Y-65889143D01*
X165290477Y-65317714D02*
X165290477Y-65984381D01*
X165052381Y-64936762D02*
X164814286Y-65651048D01*
X165433334Y-65651048D01*
X162798096Y-64984381D02*
X162321905Y-64984381D01*
X162274286Y-65460571D01*
X162321905Y-65412952D01*
X162417143Y-65365333D01*
X162655239Y-65365333D01*
X162750477Y-65412952D01*
X162798096Y-65460571D01*
X162845715Y-65555810D01*
X162845715Y-65793905D01*
X162798096Y-65889143D01*
X162750477Y-65936762D01*
X162655239Y-65984381D01*
X162417143Y-65984381D01*
X162321905Y-65936762D01*
X162274286Y-65889143D01*
X160210477Y-64984381D02*
X160020000Y-64984381D01*
X159924762Y-65032000D01*
X159877143Y-65079619D01*
X159781905Y-65222476D01*
X159734286Y-65412952D01*
X159734286Y-65793905D01*
X159781905Y-65889143D01*
X159829524Y-65936762D01*
X159924762Y-65984381D01*
X160115239Y-65984381D01*
X160210477Y-65936762D01*
X160258096Y-65889143D01*
X160305715Y-65793905D01*
X160305715Y-65555810D01*
X160258096Y-65460571D01*
X160210477Y-65412952D01*
X160115239Y-65365333D01*
X159924762Y-65365333D01*
X159829524Y-65412952D01*
X159781905Y-65460571D01*
X159734286Y-65555810D01*
X157146667Y-64984381D02*
X157813334Y-64984381D01*
X157384762Y-65984381D01*
X153320762Y-65412952D02*
X153225524Y-65365333D01*
X153177905Y-65317714D01*
X153130286Y-65222476D01*
X153130286Y-65174857D01*
X153177905Y-65079619D01*
X153225524Y-65032000D01*
X153320762Y-64984381D01*
X153511239Y-64984381D01*
X153606477Y-65032000D01*
X153654096Y-65079619D01*
X153701715Y-65174857D01*
X153701715Y-65222476D01*
X153654096Y-65317714D01*
X153606477Y-65365333D01*
X153511239Y-65412952D01*
X153320762Y-65412952D01*
X153225524Y-65460571D01*
X153177905Y-65508190D01*
X153130286Y-65603429D01*
X153130286Y-65793905D01*
X153177905Y-65889143D01*
X153225524Y-65936762D01*
X153320762Y-65984381D01*
X153511239Y-65984381D01*
X153606477Y-65936762D01*
X153654096Y-65889143D01*
X153701715Y-65793905D01*
X153701715Y-65603429D01*
X153654096Y-65508190D01*
X153606477Y-65460571D01*
X153511239Y-65412952D01*
X150685524Y-65984381D02*
X150876000Y-65984381D01*
X150971239Y-65936762D01*
X151018858Y-65889143D01*
X151114096Y-65746286D01*
X151161715Y-65555810D01*
X151161715Y-65174857D01*
X151114096Y-65079619D01*
X151066477Y-65032000D01*
X150971239Y-64984381D01*
X150780762Y-64984381D01*
X150685524Y-65032000D01*
X150637905Y-65079619D01*
X150590286Y-65174857D01*
X150590286Y-65412952D01*
X150637905Y-65508190D01*
X150685524Y-65555810D01*
X150780762Y-65603429D01*
X150971239Y-65603429D01*
X151066477Y-65555810D01*
X151114096Y-65508190D01*
X151161715Y-65412952D01*
X148145524Y-65984381D02*
X147574095Y-65984381D01*
X147859809Y-65984381D02*
X147859809Y-64984381D01*
X147764571Y-65127238D01*
X147669333Y-65222476D01*
X147574095Y-65270095D01*
X148764571Y-64984381D02*
X148859810Y-64984381D01*
X148955048Y-65032000D01*
X149002667Y-65079619D01*
X149050286Y-65174857D01*
X149097905Y-65365333D01*
X149097905Y-65603429D01*
X149050286Y-65793905D01*
X149002667Y-65889143D01*
X148955048Y-65936762D01*
X148859810Y-65984381D01*
X148764571Y-65984381D01*
X148669333Y-65936762D01*
X148621714Y-65889143D01*
X148574095Y-65793905D01*
X148526476Y-65603429D01*
X148526476Y-65365333D01*
X148574095Y-65174857D01*
X148621714Y-65079619D01*
X148669333Y-65032000D01*
X148764571Y-64984381D01*
X145605524Y-65984381D02*
X145034095Y-65984381D01*
X145319809Y-65984381D02*
X145319809Y-64984381D01*
X145224571Y-65127238D01*
X145129333Y-65222476D01*
X145034095Y-65270095D01*
X146557905Y-65984381D02*
X145986476Y-65984381D01*
X146272190Y-65984381D02*
X146272190Y-64984381D01*
X146176952Y-65127238D01*
X146081714Y-65222476D01*
X145986476Y-65270095D01*
X143065524Y-65984381D02*
X142494095Y-65984381D01*
X142779809Y-65984381D02*
X142779809Y-64984381D01*
X142684571Y-65127238D01*
X142589333Y-65222476D01*
X142494095Y-65270095D01*
X143446476Y-65079619D02*
X143494095Y-65032000D01*
X143589333Y-64984381D01*
X143827429Y-64984381D01*
X143922667Y-65032000D01*
X143970286Y-65079619D01*
X144017905Y-65174857D01*
X144017905Y-65270095D01*
X143970286Y-65412952D01*
X143398857Y-65984381D01*
X144017905Y-65984381D01*
X140525524Y-65984381D02*
X139954095Y-65984381D01*
X140239809Y-65984381D02*
X140239809Y-64984381D01*
X140144571Y-65127238D01*
X140049333Y-65222476D01*
X139954095Y-65270095D01*
X140858857Y-64984381D02*
X141477905Y-64984381D01*
X141144571Y-65365333D01*
X141287429Y-65365333D01*
X141382667Y-65412952D01*
X141430286Y-65460571D01*
X141477905Y-65555810D01*
X141477905Y-65793905D01*
X141430286Y-65889143D01*
X141382667Y-65936762D01*
X141287429Y-65984381D01*
X141001714Y-65984381D01*
X140906476Y-65936762D01*
X140858857Y-65889143D01*
D12*
X176065667Y-75537190D02*
X175899000Y-75299095D01*
X175779953Y-75537190D02*
X175779953Y-75037190D01*
X175970429Y-75037190D01*
X176018048Y-75061000D01*
X176041857Y-75084810D01*
X176065667Y-75132429D01*
X176065667Y-75203857D01*
X176041857Y-75251476D01*
X176018048Y-75275286D01*
X175970429Y-75299095D01*
X175779953Y-75299095D01*
X176232334Y-75037190D02*
X176565667Y-75537190D01*
X176565667Y-75037190D02*
X176232334Y-75537190D01*
X173101048Y-75037190D02*
X173386762Y-75037190D01*
X173243905Y-75537190D02*
X173243905Y-75037190D01*
X173505810Y-75037190D02*
X173839143Y-75537190D01*
X173839143Y-75037190D02*
X173505810Y-75537190D01*
D11*
X175085381Y-74699881D02*
X175180620Y-74699881D01*
X175275858Y-74747500D01*
X175323477Y-74795119D01*
X175371096Y-74890357D01*
X175418715Y-75080833D01*
X175418715Y-75318929D01*
X175371096Y-75509405D01*
X175323477Y-75604643D01*
X175275858Y-75652262D01*
X175180620Y-75699881D01*
X175085381Y-75699881D01*
X174990143Y-75652262D01*
X174942524Y-75604643D01*
X174894905Y-75509405D01*
X174847286Y-75318929D01*
X174847286Y-75080833D01*
X174894905Y-74890357D01*
X174942524Y-74795119D01*
X174990143Y-74747500D01*
X175085381Y-74699881D01*
X172878715Y-75699881D02*
X172307286Y-75699881D01*
X172593000Y-75699881D02*
X172593000Y-74699881D01*
X172497762Y-74842738D01*
X172402524Y-74937976D01*
X172307286Y-74985595D01*
X138463428Y-72089929D02*
X138463428Y-71489929D01*
X138606285Y-71489929D01*
X138692000Y-71518500D01*
X138749142Y-71575643D01*
X138777714Y-71632786D01*
X138806285Y-71747071D01*
X138806285Y-71832786D01*
X138777714Y-71947071D01*
X138749142Y-72004214D01*
X138692000Y-72061357D01*
X138606285Y-72089929D01*
X138463428Y-72089929D01*
X139377714Y-72089929D02*
X139034857Y-72089929D01*
X139206285Y-72089929D02*
X139206285Y-71489929D01*
X139149142Y-71575643D01*
X139092000Y-71632786D01*
X139034857Y-71661357D01*
X139577714Y-71489929D02*
X139949143Y-71489929D01*
X139749143Y-71718500D01*
X139834857Y-71718500D01*
X139892000Y-71747071D01*
X139920571Y-71775643D01*
X139949143Y-71832786D01*
X139949143Y-71975643D01*
X139920571Y-72032786D01*
X139892000Y-72061357D01*
X139834857Y-72089929D01*
X139663429Y-72089929D01*
X139606286Y-72061357D01*
X139577714Y-72032786D01*
X135282000Y-76979429D02*
X135082000Y-76693714D01*
X134939143Y-76979429D02*
X134939143Y-76379429D01*
X135167715Y-76379429D01*
X135224857Y-76408000D01*
X135253429Y-76436571D01*
X135282000Y-76493714D01*
X135282000Y-76579429D01*
X135253429Y-76636571D01*
X135224857Y-76665143D01*
X135167715Y-76693714D01*
X134939143Y-76693714D01*
X135482000Y-76379429D02*
X135882000Y-76979429D01*
X135882000Y-76379429D02*
X135482000Y-76979429D01*
X134924857Y-71680429D02*
X135267714Y-71680429D01*
X135096285Y-72280429D02*
X135096285Y-71680429D01*
X135410571Y-71680429D02*
X135810571Y-72280429D01*
X135810571Y-71680429D02*
X135410571Y-72280429D01*
X169937286Y-80217929D02*
X169937286Y-79617929D01*
X170165858Y-79617929D01*
X170223000Y-79646500D01*
X170251572Y-79675071D01*
X170280143Y-79732214D01*
X170280143Y-79817929D01*
X170251572Y-79875071D01*
X170223000Y-79903643D01*
X170165858Y-79932214D01*
X169937286Y-79932214D01*
X170651572Y-79617929D02*
X170765858Y-79617929D01*
X170823000Y-79646500D01*
X170880143Y-79703643D01*
X170908715Y-79817929D01*
X170908715Y-80017929D01*
X170880143Y-80132214D01*
X170823000Y-80189357D01*
X170765858Y-80217929D01*
X170651572Y-80217929D01*
X170594429Y-80189357D01*
X170537286Y-80132214D01*
X170508715Y-80017929D01*
X170508715Y-79817929D01*
X170537286Y-79703643D01*
X170594429Y-79646500D01*
X170651572Y-79617929D01*
X171108714Y-79617929D02*
X171251571Y-80217929D01*
X171365857Y-79789357D01*
X171480143Y-80217929D01*
X171623000Y-79617929D01*
X171851571Y-79903643D02*
X172051571Y-79903643D01*
X172137285Y-80217929D02*
X171851571Y-80217929D01*
X171851571Y-79617929D01*
X172137285Y-79617929D01*
X172737285Y-80217929D02*
X172537285Y-79932214D01*
X172394428Y-80217929D02*
X172394428Y-79617929D01*
X172623000Y-79617929D01*
X172680142Y-79646500D01*
X172708714Y-79675071D01*
X172737285Y-79732214D01*
X172737285Y-79817929D01*
X172708714Y-79875071D01*
X172680142Y-79903643D01*
X172623000Y-79932214D01*
X172394428Y-79932214D01*
X175426667Y-110315286D02*
X175426667Y-109839095D01*
X175712381Y-110410524D02*
X174712381Y-110077191D01*
X175712381Y-109743857D01*
X174712381Y-108934333D02*
X174712381Y-109410524D01*
X175188571Y-109458143D01*
X175140952Y-109410524D01*
X175093333Y-109315286D01*
X175093333Y-109077190D01*
X175140952Y-108981952D01*
X175188571Y-108934333D01*
X175283810Y-108886714D01*
X175521905Y-108886714D01*
X175617143Y-108934333D01*
X175664762Y-108981952D01*
X175712381Y-109077190D01*
X175712381Y-109315286D01*
X175664762Y-109410524D01*
X175617143Y-109458143D01*
X172886667Y-110315286D02*
X172886667Y-109839095D01*
X173172381Y-110410524D02*
X172172381Y-110077191D01*
X173172381Y-109743857D01*
X172505714Y-108981952D02*
X173172381Y-108981952D01*
X172124762Y-109220048D02*
X172839048Y-109458143D01*
X172839048Y-108839095D01*
X170346667Y-110315286D02*
X170346667Y-109839095D01*
X170632381Y-110410524D02*
X169632381Y-110077191D01*
X170632381Y-109743857D01*
X169632381Y-109505762D02*
X169632381Y-108886714D01*
X170013333Y-109220048D01*
X170013333Y-109077190D01*
X170060952Y-108981952D01*
X170108571Y-108934333D01*
X170203810Y-108886714D01*
X170441905Y-108886714D01*
X170537143Y-108934333D01*
X170584762Y-108981952D01*
X170632381Y-109077190D01*
X170632381Y-109362905D01*
X170584762Y-109458143D01*
X170537143Y-109505762D01*
X167806667Y-110315286D02*
X167806667Y-109839095D01*
X168092381Y-110410524D02*
X167092381Y-110077191D01*
X168092381Y-109743857D01*
X167187619Y-109458143D02*
X167140000Y-109410524D01*
X167092381Y-109315286D01*
X167092381Y-109077190D01*
X167140000Y-108981952D01*
X167187619Y-108934333D01*
X167282857Y-108886714D01*
X167378095Y-108886714D01*
X167520952Y-108934333D01*
X168092381Y-109505762D01*
X168092381Y-108886714D01*
X165266667Y-110315286D02*
X165266667Y-109839095D01*
X165552381Y-110410524D02*
X164552381Y-110077191D01*
X165552381Y-109743857D01*
X165552381Y-108886714D02*
X165552381Y-109458143D01*
X165552381Y-109172429D02*
X164552381Y-109172429D01*
X164695238Y-109267667D01*
X164790476Y-109362905D01*
X164838095Y-109458143D01*
X162726667Y-110315286D02*
X162726667Y-109839095D01*
X163012381Y-110410524D02*
X162012381Y-110077191D01*
X163012381Y-109743857D01*
X162012381Y-109220048D02*
X162012381Y-109124809D01*
X162060000Y-109029571D01*
X162107619Y-108981952D01*
X162202857Y-108934333D01*
X162393333Y-108886714D01*
X162631429Y-108886714D01*
X162821905Y-108934333D01*
X162917143Y-108981952D01*
X162964762Y-109029571D01*
X163012381Y-109124809D01*
X163012381Y-109220048D01*
X162964762Y-109315286D01*
X162917143Y-109362905D01*
X162821905Y-109410524D01*
X162631429Y-109458143D01*
X162393333Y-109458143D01*
X162202857Y-109410524D01*
X162107619Y-109362905D01*
X162060000Y-109315286D01*
X162012381Y-109220048D01*
D13*
X173926500Y-82629286D02*
X174021739Y-82724524D01*
X173926500Y-82819762D01*
X173831262Y-82724524D01*
X173926500Y-82629286D01*
X173926500Y-82819762D01*
D11*
X169767286Y-74795119D02*
X169814905Y-74747500D01*
X169910143Y-74699881D01*
X170148239Y-74699881D01*
X170243477Y-74747500D01*
X170291096Y-74795119D01*
X170338715Y-74890357D01*
X170338715Y-74985595D01*
X170291096Y-75128452D01*
X169719667Y-75699881D01*
X170338715Y-75699881D01*
X167179667Y-74699881D02*
X167798715Y-74699881D01*
X167465381Y-75080833D01*
X167608239Y-75080833D01*
X167703477Y-75128452D01*
X167751096Y-75176071D01*
X167798715Y-75271310D01*
X167798715Y-75509405D01*
X167751096Y-75604643D01*
X167703477Y-75652262D01*
X167608239Y-75699881D01*
X167322524Y-75699881D01*
X167227286Y-75652262D01*
X167179667Y-75604643D01*
X165163477Y-75033214D02*
X165163477Y-75699881D01*
X164925381Y-74652262D02*
X164687286Y-75366548D01*
X165306334Y-75366548D01*
X162671096Y-74699881D02*
X162194905Y-74699881D01*
X162147286Y-75176071D01*
X162194905Y-75128452D01*
X162290143Y-75080833D01*
X162528239Y-75080833D01*
X162623477Y-75128452D01*
X162671096Y-75176071D01*
X162718715Y-75271310D01*
X162718715Y-75509405D01*
X162671096Y-75604643D01*
X162623477Y-75652262D01*
X162528239Y-75699881D01*
X162290143Y-75699881D01*
X162194905Y-75652262D01*
X162147286Y-75604643D01*
X160083477Y-74699881D02*
X159893000Y-74699881D01*
X159797762Y-74747500D01*
X159750143Y-74795119D01*
X159654905Y-74937976D01*
X159607286Y-75128452D01*
X159607286Y-75509405D01*
X159654905Y-75604643D01*
X159702524Y-75652262D01*
X159797762Y-75699881D01*
X159988239Y-75699881D01*
X160083477Y-75652262D01*
X160131096Y-75604643D01*
X160178715Y-75509405D01*
X160178715Y-75271310D01*
X160131096Y-75176071D01*
X160083477Y-75128452D01*
X159988239Y-75080833D01*
X159797762Y-75080833D01*
X159702524Y-75128452D01*
X159654905Y-75176071D01*
X159607286Y-75271310D01*
X157019667Y-74699881D02*
X157686334Y-74699881D01*
X157257762Y-75699881D01*
X154717762Y-75128452D02*
X154622524Y-75080833D01*
X154574905Y-75033214D01*
X154527286Y-74937976D01*
X154527286Y-74890357D01*
X154574905Y-74795119D01*
X154622524Y-74747500D01*
X154717762Y-74699881D01*
X154908239Y-74699881D01*
X155003477Y-74747500D01*
X155051096Y-74795119D01*
X155098715Y-74890357D01*
X155098715Y-74937976D01*
X155051096Y-75033214D01*
X155003477Y-75080833D01*
X154908239Y-75128452D01*
X154717762Y-75128452D01*
X154622524Y-75176071D01*
X154574905Y-75223690D01*
X154527286Y-75318929D01*
X154527286Y-75509405D01*
X154574905Y-75604643D01*
X154622524Y-75652262D01*
X154717762Y-75699881D01*
X154908239Y-75699881D01*
X155003477Y-75652262D01*
X155051096Y-75604643D01*
X155098715Y-75509405D01*
X155098715Y-75318929D01*
X155051096Y-75223690D01*
X155003477Y-75176071D01*
X154908239Y-75128452D01*
X152082524Y-75699881D02*
X152273000Y-75699881D01*
X152368239Y-75652262D01*
X152415858Y-75604643D01*
X152511096Y-75461786D01*
X152558715Y-75271310D01*
X152558715Y-74890357D01*
X152511096Y-74795119D01*
X152463477Y-74747500D01*
X152368239Y-74699881D01*
X152177762Y-74699881D01*
X152082524Y-74747500D01*
X152034905Y-74795119D01*
X151987286Y-74890357D01*
X151987286Y-75128452D01*
X152034905Y-75223690D01*
X152082524Y-75271310D01*
X152177762Y-75318929D01*
X152368239Y-75318929D01*
X152463477Y-75271310D01*
X152511096Y-75223690D01*
X152558715Y-75128452D01*
X149542524Y-75699881D02*
X148971095Y-75699881D01*
X149256809Y-75699881D02*
X149256809Y-74699881D01*
X149161571Y-74842738D01*
X149066333Y-74937976D01*
X148971095Y-74985595D01*
X150161571Y-74699881D02*
X150256810Y-74699881D01*
X150352048Y-74747500D01*
X150399667Y-74795119D01*
X150447286Y-74890357D01*
X150494905Y-75080833D01*
X150494905Y-75318929D01*
X150447286Y-75509405D01*
X150399667Y-75604643D01*
X150352048Y-75652262D01*
X150256810Y-75699881D01*
X150161571Y-75699881D01*
X150066333Y-75652262D01*
X150018714Y-75604643D01*
X149971095Y-75509405D01*
X149923476Y-75318929D01*
X149923476Y-75080833D01*
X149971095Y-74890357D01*
X150018714Y-74795119D01*
X150066333Y-74747500D01*
X150161571Y-74699881D01*
X147002524Y-75699881D02*
X146431095Y-75699881D01*
X146716809Y-75699881D02*
X146716809Y-74699881D01*
X146621571Y-74842738D01*
X146526333Y-74937976D01*
X146431095Y-74985595D01*
X147954905Y-75699881D02*
X147383476Y-75699881D01*
X147669190Y-75699881D02*
X147669190Y-74699881D01*
X147573952Y-74842738D01*
X147478714Y-74937976D01*
X147383476Y-74985595D01*
X144462524Y-75699881D02*
X143891095Y-75699881D01*
X144176809Y-75699881D02*
X144176809Y-74699881D01*
X144081571Y-74842738D01*
X143986333Y-74937976D01*
X143891095Y-74985595D01*
X144843476Y-74795119D02*
X144891095Y-74747500D01*
X144986333Y-74699881D01*
X145224429Y-74699881D01*
X145319667Y-74747500D01*
X145367286Y-74795119D01*
X145414905Y-74890357D01*
X145414905Y-74985595D01*
X145367286Y-75128452D01*
X144795857Y-75699881D01*
X145414905Y-75699881D01*
X141922524Y-75699881D02*
X141351095Y-75699881D01*
X141636809Y-75699881D02*
X141636809Y-74699881D01*
X141541571Y-74842738D01*
X141446333Y-74937976D01*
X141351095Y-74985595D01*
X142255857Y-74699881D02*
X142874905Y-74699881D01*
X142541571Y-75080833D01*
X142684429Y-75080833D01*
X142779667Y-75128452D01*
X142827286Y-75176071D01*
X142874905Y-75271310D01*
X142874905Y-75509405D01*
X142827286Y-75604643D01*
X142779667Y-75652262D01*
X142684429Y-75699881D01*
X142398714Y-75699881D01*
X142303476Y-75652262D01*
X142255857Y-75604643D01*
X170608714Y-99480667D02*
X171084905Y-99480667D01*
X170513476Y-99766381D02*
X170846809Y-98766381D01*
X171180143Y-99766381D01*
X171418238Y-98766381D02*
X172084905Y-98766381D01*
X171656333Y-99766381D01*
X168068714Y-99480667D02*
X168544905Y-99480667D01*
X167973476Y-99766381D02*
X168306809Y-98766381D01*
X168640143Y-99766381D01*
X169402048Y-98766381D02*
X169211571Y-98766381D01*
X169116333Y-98814000D01*
X169068714Y-98861619D01*
X168973476Y-99004476D01*
X168925857Y-99194952D01*
X168925857Y-99575905D01*
X168973476Y-99671143D01*
X169021095Y-99718762D01*
X169116333Y-99766381D01*
X169306810Y-99766381D01*
X169402048Y-99718762D01*
X169449667Y-99671143D01*
X169497286Y-99575905D01*
X169497286Y-99337810D01*
X169449667Y-99242571D01*
X169402048Y-99194952D01*
X169306810Y-99147333D01*
X169116333Y-99147333D01*
X169021095Y-99194952D01*
X168973476Y-99242571D01*
X168925857Y-99337810D01*
X165528714Y-99480667D02*
X166004905Y-99480667D01*
X165433476Y-99766381D02*
X165766809Y-98766381D01*
X166100143Y-99766381D01*
X166909667Y-98766381D02*
X166433476Y-98766381D01*
X166385857Y-99242571D01*
X166433476Y-99194952D01*
X166528714Y-99147333D01*
X166766810Y-99147333D01*
X166862048Y-99194952D01*
X166909667Y-99242571D01*
X166957286Y-99337810D01*
X166957286Y-99575905D01*
X166909667Y-99671143D01*
X166862048Y-99718762D01*
X166766810Y-99766381D01*
X166528714Y-99766381D01*
X166433476Y-99718762D01*
X166385857Y-99671143D01*
X162988714Y-99480667D02*
X163464905Y-99480667D01*
X162893476Y-99766381D02*
X163226809Y-98766381D01*
X163560143Y-99766381D01*
X164322048Y-99099714D02*
X164322048Y-99766381D01*
X164083952Y-98718762D02*
X163845857Y-99433048D01*
X164464905Y-99433048D01*
X160448714Y-99480667D02*
X160924905Y-99480667D01*
X160353476Y-99766381D02*
X160686809Y-98766381D01*
X161020143Y-99766381D01*
X161258238Y-98766381D02*
X161877286Y-98766381D01*
X161543952Y-99147333D01*
X161686810Y-99147333D01*
X161782048Y-99194952D01*
X161829667Y-99242571D01*
X161877286Y-99337810D01*
X161877286Y-99575905D01*
X161829667Y-99671143D01*
X161782048Y-99718762D01*
X161686810Y-99766381D01*
X161401095Y-99766381D01*
X161305857Y-99718762D01*
X161258238Y-99671143D01*
X157908714Y-99480667D02*
X158384905Y-99480667D01*
X157813476Y-99766381D02*
X158146809Y-98766381D01*
X158480143Y-99766381D01*
X158765857Y-98861619D02*
X158813476Y-98814000D01*
X158908714Y-98766381D01*
X159146810Y-98766381D01*
X159242048Y-98814000D01*
X159289667Y-98861619D01*
X159337286Y-98956857D01*
X159337286Y-99052095D01*
X159289667Y-99194952D01*
X158718238Y-99766381D01*
X159337286Y-99766381D01*
X155368714Y-99480667D02*
X155844905Y-99480667D01*
X155273476Y-99766381D02*
X155606809Y-98766381D01*
X155940143Y-99766381D01*
X156797286Y-99766381D02*
X156225857Y-99766381D01*
X156511571Y-99766381D02*
X156511571Y-98766381D01*
X156416333Y-98909238D01*
X156321095Y-99004476D01*
X156225857Y-99052095D01*
X152828714Y-99544167D02*
X153304905Y-99544167D01*
X152733476Y-99829881D02*
X153066809Y-98829881D01*
X153400143Y-99829881D01*
X153923952Y-98829881D02*
X154019191Y-98829881D01*
X154114429Y-98877500D01*
X154162048Y-98925119D01*
X154209667Y-99020357D01*
X154257286Y-99210833D01*
X154257286Y-99448929D01*
X154209667Y-99639405D01*
X154162048Y-99734643D01*
X154114429Y-99782262D01*
X154019191Y-99829881D01*
X153923952Y-99829881D01*
X153828714Y-99782262D01*
X153781095Y-99734643D01*
X153733476Y-99639405D01*
X153685857Y-99448929D01*
X153685857Y-99210833D01*
X153733476Y-99020357D01*
X153781095Y-98925119D01*
X153828714Y-98877500D01*
X153923952Y-98829881D01*
X180340000Y-109220000D02*
X177800000Y-111760000D01*
X180340000Y-76454000D02*
X180340000Y-109220000D01*
X177800000Y-73914000D02*
X180340000Y-76454000D01*
X177800000Y-62484000D02*
X177800000Y-73914000D01*
X176276000Y-60960000D02*
X177800000Y-62484000D01*
D14*
X128278000Y-70192000D02*
X129278000Y-70192000D01*
X129278000Y-68492000D02*
X128278000Y-68492000D01*
X118372000Y-77812000D02*
X119372000Y-77812000D01*
X119372000Y-76112000D02*
X118372000Y-76112000D01*
X120760000Y-85124000D02*
X116510000Y-85124000D01*
X120760000Y-83024000D02*
X116510000Y-83024000D01*
X120760000Y-85124000D02*
X120760000Y-83024000D01*
X119372000Y-69762000D02*
X118372000Y-69762000D01*
X118372000Y-71462000D02*
X119372000Y-71462000D01*
X149829000Y-100676000D02*
X149129000Y-100676000D01*
X149129000Y-99476000D02*
X149829000Y-99476000D01*
X139288000Y-81372000D02*
X138588000Y-81372000D01*
X138588000Y-80172000D02*
X139288000Y-80172000D01*
X143762000Y-106424000D02*
X143762000Y-104244000D01*
X143762000Y-99824000D02*
X143762000Y-102004000D01*
X137162000Y-105664000D02*
X137162000Y-104244000D01*
X137162000Y-100584000D02*
X137162000Y-102004000D01*
X143762000Y-106424000D02*
X137922000Y-106424000D01*
X137922000Y-106424000D02*
X137162000Y-105664000D01*
X137162000Y-100584000D02*
X137922000Y-99824000D01*
X137922000Y-99824000D02*
X143762000Y-99824000D01*
X146042000Y-90717000D02*
X145042000Y-90717000D01*
X145042000Y-92417000D02*
X146042000Y-92417000D01*
X123192000Y-98169000D02*
X125372000Y-98169000D01*
X129792000Y-98169000D02*
X127612000Y-98169000D01*
X123952000Y-91569000D02*
X125372000Y-91569000D01*
X129032000Y-91569000D02*
X127612000Y-91569000D01*
X123192000Y-98169000D02*
X123192000Y-92329000D01*
X123192000Y-92329000D02*
X123952000Y-91569000D01*
X129032000Y-91569000D02*
X129792000Y-92329000D01*
X129792000Y-92329000D02*
X129792000Y-98169000D01*
X146042000Y-88812000D02*
X145042000Y-88812000D01*
X145042000Y-90512000D02*
X146042000Y-90512000D01*
X146042000Y-85002000D02*
X145042000Y-85002000D01*
X145042000Y-86702000D02*
X146042000Y-86702000D01*
X149829000Y-107407000D02*
X149129000Y-107407000D01*
X149129000Y-106207000D02*
X149829000Y-106207000D01*
X149829000Y-105121000D02*
X149129000Y-105121000D01*
X149129000Y-103921000D02*
X149829000Y-103921000D01*
X149829000Y-102962000D02*
X149129000Y-102962000D01*
X149129000Y-101762000D02*
X149829000Y-101762000D01*
X146042000Y-95162000D02*
X145042000Y-95162000D01*
X145042000Y-96862000D02*
X146042000Y-96862000D01*
X130087000Y-95893000D02*
X130087000Y-96893000D01*
X131787000Y-96893000D02*
X131787000Y-95893000D01*
X122674000Y-74207000D02*
X121674000Y-74207000D01*
X121674000Y-75907000D02*
X122674000Y-75907000D01*
X122674000Y-71667000D02*
X121674000Y-71667000D01*
X121674000Y-73367000D02*
X122674000Y-73367000D01*
X125738000Y-90131000D02*
X126738000Y-90131000D01*
X126738000Y-88431000D02*
X125738000Y-88431000D01*
X125087000Y-78017000D02*
X124087000Y-78017000D01*
X124087000Y-79717000D02*
X125087000Y-79717000D01*
X125468000Y-99607000D02*
X124468000Y-99607000D01*
X124468000Y-101307000D02*
X125468000Y-101307000D01*
X123415000Y-89915000D02*
X123415000Y-86615000D01*
X123415000Y-86615000D02*
X118015000Y-86615000D01*
X123415000Y-89915000D02*
X118015000Y-89915000D01*
X139692000Y-68423000D02*
X138692000Y-68423000D01*
X138692000Y-68423000D02*
X138692000Y-70523000D01*
X139692000Y-68423000D02*
X139692000Y-70523000D01*
X172623000Y-81907000D02*
X172623000Y-80907000D01*
X172623000Y-80907000D02*
X170523000Y-80907000D01*
X172623000Y-81907000D02*
X170523000Y-81907000D01*
X119078000Y-78638000D02*
X115618000Y-78638000D01*
X119078000Y-82398000D02*
X115618000Y-82398000D01*
X113294000Y-101772000D02*
X113294000Y-110572000D01*
X117094000Y-110572000D02*
X109394000Y-110572000D01*
X109394000Y-110572000D02*
X109394000Y-101772000D01*
X109394000Y-101772000D02*
X109594000Y-101772000D01*
X122994000Y-108722000D02*
X122994000Y-110572000D01*
X122994000Y-110572000D02*
X122144000Y-110572000D01*
X109494000Y-101772000D02*
X122994000Y-101772000D01*
X122994000Y-101772000D02*
X122994000Y-103622000D01*
X131426000Y-106797000D02*
X132226000Y-106797000D01*
X131426000Y-99197000D02*
X132276000Y-99197000D01*
X146142000Y-94733000D02*
X144942000Y-94733000D01*
X144942000Y-92973000D02*
X146142000Y-92973000D01*
X133328000Y-72706000D02*
X133328000Y-74106000D01*
X133328000Y-74106000D02*
X136128000Y-74106000D01*
X133328000Y-72706000D02*
X136128000Y-72706000D01*
X133328000Y-74611000D02*
X133328000Y-76011000D01*
X133328000Y-76011000D02*
X136128000Y-76011000D01*
X133328000Y-74611000D02*
X136128000Y-74611000D01*
X176463000Y-66742000D02*
X173803000Y-66742000D01*
X176463000Y-71882000D02*
X176463000Y-66742000D01*
X173803000Y-71882000D02*
X173803000Y-66742000D01*
X176463000Y-71882000D02*
X173803000Y-71882000D01*
X176463000Y-73152000D02*
X176463000Y-74482000D01*
X176463000Y-74482000D02*
X175133000Y-74482000D01*
X163763000Y-66742000D02*
X161103000Y-66742000D01*
X163763000Y-71882000D02*
X163763000Y-66742000D01*
X161103000Y-71882000D02*
X161103000Y-66742000D01*
X163763000Y-71882000D02*
X161103000Y-71882000D01*
X163763000Y-73152000D02*
X163763000Y-74482000D01*
X163763000Y-74482000D02*
X162433000Y-74482000D01*
X151063000Y-66742000D02*
X148403000Y-66742000D01*
X151063000Y-71882000D02*
X151063000Y-66742000D01*
X148403000Y-71882000D02*
X148403000Y-66742000D01*
X151063000Y-71882000D02*
X148403000Y-71882000D01*
X151063000Y-73152000D02*
X151063000Y-74482000D01*
X151063000Y-74482000D02*
X149733000Y-74482000D01*
X152213000Y-108137000D02*
X154873000Y-108137000D01*
X152213000Y-102997000D02*
X152213000Y-108137000D01*
X154873000Y-102997000D02*
X154873000Y-108137000D01*
X152213000Y-102997000D02*
X154873000Y-102997000D01*
X152213000Y-101727000D02*
X152213000Y-100397000D01*
X152213000Y-100397000D02*
X153543000Y-100397000D01*
X169993000Y-108137000D02*
X172653000Y-108137000D01*
X169993000Y-102997000D02*
X169993000Y-108137000D01*
X172653000Y-102997000D02*
X172653000Y-108137000D01*
X169993000Y-102997000D02*
X172653000Y-102997000D01*
X169993000Y-101727000D02*
X169993000Y-100397000D01*
X169993000Y-100397000D02*
X171323000Y-100397000D01*
X173923000Y-66742000D02*
X171263000Y-66742000D01*
X173923000Y-71882000D02*
X173923000Y-66742000D01*
X171263000Y-71882000D02*
X171263000Y-66742000D01*
X173923000Y-71882000D02*
X171263000Y-71882000D01*
X173923000Y-73152000D02*
X173923000Y-74482000D01*
X173923000Y-74482000D02*
X172593000Y-74482000D01*
X161223000Y-66742000D02*
X158563000Y-66742000D01*
X161223000Y-71882000D02*
X161223000Y-66742000D01*
X158563000Y-71882000D02*
X158563000Y-66742000D01*
X161223000Y-71882000D02*
X158563000Y-71882000D01*
X161223000Y-73152000D02*
X161223000Y-74482000D01*
X161223000Y-74482000D02*
X159893000Y-74482000D01*
X148523000Y-66742000D02*
X145863000Y-66742000D01*
X148523000Y-71882000D02*
X148523000Y-66742000D01*
X145863000Y-71882000D02*
X145863000Y-66742000D01*
X148523000Y-71882000D02*
X145863000Y-71882000D01*
X148523000Y-73152000D02*
X148523000Y-74482000D01*
X148523000Y-74482000D02*
X147193000Y-74482000D01*
X154753000Y-108137000D02*
X157413000Y-108137000D01*
X154753000Y-102997000D02*
X154753000Y-108137000D01*
X157413000Y-102997000D02*
X157413000Y-108137000D01*
X154753000Y-102997000D02*
X157413000Y-102997000D01*
X154753000Y-101727000D02*
X154753000Y-100397000D01*
X154753000Y-100397000D02*
X156083000Y-100397000D01*
X167453000Y-108137000D02*
X170113000Y-108137000D01*
X167453000Y-102997000D02*
X167453000Y-108137000D01*
X170113000Y-102997000D02*
X170113000Y-108137000D01*
X167453000Y-102997000D02*
X170113000Y-102997000D01*
X167453000Y-101727000D02*
X167453000Y-100397000D01*
X167453000Y-100397000D02*
X168783000Y-100397000D01*
X171383000Y-66742000D02*
X168723000Y-66742000D01*
X171383000Y-71882000D02*
X171383000Y-66742000D01*
X168723000Y-71882000D02*
X168723000Y-66742000D01*
X171383000Y-71882000D02*
X168723000Y-71882000D01*
X171383000Y-73152000D02*
X171383000Y-74482000D01*
X171383000Y-74482000D02*
X170053000Y-74482000D01*
X158683000Y-66742000D02*
X156023000Y-66742000D01*
X158683000Y-71882000D02*
X158683000Y-66742000D01*
X156023000Y-71882000D02*
X156023000Y-66742000D01*
X158683000Y-71882000D02*
X156023000Y-71882000D01*
X158683000Y-73152000D02*
X158683000Y-74482000D01*
X158683000Y-74482000D02*
X157353000Y-74482000D01*
X145983000Y-66742000D02*
X143323000Y-66742000D01*
X145983000Y-71882000D02*
X145983000Y-66742000D01*
X143323000Y-71882000D02*
X143323000Y-66742000D01*
X145983000Y-71882000D02*
X143323000Y-71882000D01*
X145983000Y-73152000D02*
X145983000Y-74482000D01*
X145983000Y-74482000D02*
X144653000Y-74482000D01*
X157293000Y-108137000D02*
X159953000Y-108137000D01*
X157293000Y-102997000D02*
X157293000Y-108137000D01*
X159953000Y-102997000D02*
X159953000Y-108137000D01*
X157293000Y-102997000D02*
X159953000Y-102997000D01*
X157293000Y-101727000D02*
X157293000Y-100397000D01*
X157293000Y-100397000D02*
X158623000Y-100397000D01*
X168843000Y-66742000D02*
X166183000Y-66742000D01*
X168843000Y-71882000D02*
X168843000Y-66742000D01*
X166183000Y-71882000D02*
X166183000Y-66742000D01*
X168843000Y-71882000D02*
X166183000Y-71882000D01*
X168843000Y-73152000D02*
X168843000Y-74482000D01*
X168843000Y-74482000D02*
X167513000Y-74482000D01*
X156143000Y-66742000D02*
X153483000Y-66742000D01*
X156143000Y-71882000D02*
X156143000Y-66742000D01*
X153483000Y-71882000D02*
X153483000Y-66742000D01*
X156143000Y-71882000D02*
X153483000Y-71882000D01*
X156143000Y-73152000D02*
X156143000Y-74482000D01*
X156143000Y-74482000D02*
X154813000Y-74482000D01*
X143443000Y-66742000D02*
X140783000Y-66742000D01*
X143443000Y-71882000D02*
X143443000Y-66742000D01*
X140783000Y-71882000D02*
X140783000Y-66742000D01*
X143443000Y-71882000D02*
X140783000Y-71882000D01*
X143443000Y-73152000D02*
X143443000Y-74482000D01*
X143443000Y-74482000D02*
X142113000Y-74482000D01*
X159833000Y-108137000D02*
X162493000Y-108137000D01*
X159833000Y-102997000D02*
X159833000Y-108137000D01*
X162493000Y-102997000D02*
X162493000Y-108137000D01*
X159833000Y-102997000D02*
X162493000Y-102997000D01*
X159833000Y-101727000D02*
X159833000Y-100397000D01*
X159833000Y-100397000D02*
X161163000Y-100397000D01*
X166303000Y-66742000D02*
X163643000Y-66742000D01*
X166303000Y-71882000D02*
X166303000Y-66742000D01*
X163643000Y-71882000D02*
X163643000Y-66742000D01*
X166303000Y-71882000D02*
X163643000Y-71882000D01*
X166303000Y-73152000D02*
X166303000Y-74482000D01*
X166303000Y-74482000D02*
X164973000Y-74482000D01*
X153603000Y-66742000D02*
X150943000Y-66742000D01*
X153603000Y-71882000D02*
X153603000Y-66742000D01*
X150943000Y-71882000D02*
X150943000Y-66742000D01*
X153603000Y-71882000D02*
X150943000Y-71882000D01*
X153603000Y-73152000D02*
X153603000Y-74482000D01*
X153603000Y-74482000D02*
X152273000Y-74482000D01*
X162373000Y-108137000D02*
X165033000Y-108137000D01*
X162373000Y-102997000D02*
X162373000Y-108137000D01*
X165033000Y-102997000D02*
X165033000Y-108137000D01*
X162373000Y-102997000D02*
X165033000Y-102997000D01*
X162373000Y-101727000D02*
X162373000Y-100397000D01*
X162373000Y-100397000D02*
X163703000Y-100397000D01*
X164913000Y-108137000D02*
X167573000Y-108137000D01*
X164913000Y-102997000D02*
X164913000Y-108137000D01*
X167573000Y-102997000D02*
X167573000Y-108137000D01*
X164913000Y-102997000D02*
X167573000Y-102997000D01*
X164913000Y-101727000D02*
X164913000Y-100397000D01*
X164913000Y-100397000D02*
X166243000Y-100397000D01*
X181483000Y-99322000D02*
X177133000Y-99322000D01*
X177133000Y-99322000D02*
X177133000Y-94322000D01*
X177133000Y-94322000D02*
X181483000Y-94322000D01*
X175283000Y-100622000D02*
X175283000Y-100972000D01*
X175283000Y-100972000D02*
X173683000Y-100972000D01*
X173683000Y-100972000D02*
X173683000Y-101872000D01*
X173683000Y-101872000D02*
X181483000Y-101872000D01*
X181483000Y-101872000D02*
X181483000Y-91772000D01*
X181483000Y-91772000D02*
X173683000Y-91772000D01*
X173683000Y-91772000D02*
X173683000Y-92672000D01*
X173683000Y-92672000D02*
X175283000Y-92672000D01*
X175283000Y-92672000D02*
X175283000Y-93022000D01*
X175283000Y-101872000D02*
X175283000Y-100972000D01*
X175283000Y-91772000D02*
X175283000Y-92672000D01*
X177633000Y-101122000D02*
X179233000Y-101122000D01*
X179233000Y-101122000D02*
X179233000Y-100122000D01*
X179233000Y-100122000D02*
X177633000Y-100122000D01*
X177633000Y-100122000D02*
X177633000Y-101122000D01*
X177633000Y-92522000D02*
X179233000Y-92522000D01*
X179233000Y-92522000D02*
X179233000Y-93522000D01*
X179233000Y-93522000D02*
X177633000Y-93522000D01*
X177633000Y-93522000D02*
X177633000Y-92522000D01*
X179233000Y-100122000D02*
X181483000Y-100122000D01*
X179233000Y-100622000D02*
X181483000Y-100622000D01*
X175283000Y-100622000D02*
X174083000Y-100622000D01*
X136493000Y-79367000D02*
X136493000Y-80027000D01*
X136493000Y-77707000D02*
X136493000Y-78367000D01*
X136493000Y-77707000D02*
X134463000Y-77707000D01*
X135083000Y-80027000D02*
X136493000Y-80027000D01*
X133733000Y-81478000D02*
X133733000Y-82408000D01*
X133733000Y-84638000D02*
X133733000Y-83708000D01*
X133733000Y-84638000D02*
X135893000Y-84638000D01*
X133733000Y-81478000D02*
X135193000Y-81478000D01*
X133733000Y-85034000D02*
X133733000Y-85964000D01*
X133733000Y-88194000D02*
X133733000Y-87264000D01*
X133733000Y-88194000D02*
X135893000Y-88194000D01*
X133733000Y-85034000D02*
X135193000Y-85034000D01*
X139411000Y-76191000D02*
X138211000Y-76191000D01*
X138211000Y-74431000D02*
X139411000Y-74431000D01*
X136407000Y-70323000D02*
X136407000Y-69123000D01*
X138167000Y-69123000D02*
X138167000Y-70323000D01*
X145614500Y-105502000D02*
X145614500Y-104302000D01*
X147374500Y-104302000D02*
X147374500Y-105502000D01*
X139411000Y-74286000D02*
X138211000Y-74286000D01*
X138211000Y-72526000D02*
X139411000Y-72526000D01*
X173872000Y-78197000D02*
X173872000Y-76997000D01*
X175632000Y-76997000D02*
X175632000Y-78197000D01*
X171713000Y-78197000D02*
X171713000Y-76997000D01*
X173473000Y-76997000D02*
X173473000Y-78197000D01*
X137677000Y-98771000D02*
X137677000Y-97571000D01*
X139437000Y-97571000D02*
X139437000Y-98771000D01*
X171923000Y-84192000D02*
X170723000Y-84192000D01*
X170723000Y-82432000D02*
X171923000Y-82432000D01*
X149724000Y-90713000D02*
X149724000Y-91913000D01*
X147964000Y-91913000D02*
X147964000Y-90713000D01*
X140961000Y-97571000D02*
X140961000Y-98771000D01*
X139201000Y-98771000D02*
X139201000Y-97571000D01*
X144942000Y-86877000D02*
X146142000Y-86877000D01*
X146142000Y-88637000D02*
X144942000Y-88637000D01*
X118272000Y-71637000D02*
X119472000Y-71637000D01*
X119472000Y-73397000D02*
X118272000Y-73397000D01*
X118272000Y-74177000D02*
X119472000Y-74177000D01*
X119472000Y-75937000D02*
X118272000Y-75937000D01*
X133722000Y-78394000D02*
X133722000Y-79594000D01*
X131962000Y-79594000D02*
X131962000Y-78394000D01*
X139538000Y-79493000D02*
X138338000Y-79493000D01*
X138338000Y-77733000D02*
X139538000Y-77733000D01*
X139538000Y-88256000D02*
X138338000Y-88256000D01*
X138338000Y-86496000D02*
X139538000Y-86496000D01*
X126838000Y-88256000D02*
X125638000Y-88256000D01*
X125638000Y-86496000D02*
X126838000Y-86496000D01*
X130394000Y-88256000D02*
X129194000Y-88256000D01*
X129194000Y-86496000D02*
X130394000Y-86496000D01*
X139538000Y-84827000D02*
X138338000Y-84827000D01*
X138338000Y-83067000D02*
X139538000Y-83067000D01*
X135202000Y-110790000D02*
X135202000Y-110560000D01*
X135722000Y-114460000D02*
X128002000Y-114460000D01*
X128002000Y-114460000D02*
X128002000Y-110560000D01*
X135722000Y-107450000D02*
X135202000Y-107450000D01*
X135722000Y-114460000D02*
X135722000Y-110560000D01*
X128522000Y-110790000D02*
X128522000Y-110560000D01*
X135202000Y-107960000D02*
X135202000Y-107450000D01*
X135722000Y-107960000D02*
X135722000Y-107450000D01*
X129062000Y-110790000D02*
X128522000Y-110790000D01*
X128522000Y-107960000D02*
X128522000Y-107450000D01*
X128522000Y-107450000D02*
X128002000Y-107450000D01*
X128002000Y-107960000D02*
X128002000Y-107450000D01*
X135202000Y-110790000D02*
X134662000Y-110790000D01*
X133562000Y-110790000D02*
X130162000Y-110790000D01*
X114912000Y-90046000D02*
X114912000Y-90246000D01*
X110772000Y-87246000D02*
X110562000Y-87446000D01*
X110772000Y-88546000D02*
X110562000Y-88346000D01*
X112062000Y-87246000D02*
X110772000Y-87246000D01*
X110562000Y-87446000D02*
X110562000Y-88346000D01*
X110772000Y-88546000D02*
X112062000Y-88546000D01*
X112062000Y-85796000D02*
X112062000Y-91496000D01*
X114912000Y-87046000D02*
X114912000Y-88746000D01*
X113862000Y-85196000D02*
X113072000Y-85196000D01*
X113072000Y-92096000D02*
X113862000Y-92096000D01*
D10*
X124206000Y-75438000D02*
X131826000Y-75438000D01*
X131826000Y-71882000D02*
X124206000Y-71882000D01*
X124206000Y-75438000D02*
X124206000Y-71882000D01*
X131826000Y-71882000D02*
X131826000Y-75438000D01*
X131677210Y-72390000D02*
G75*
G03X131677210Y-72390000I-359210J0D01*
G01*
X131826000Y-74295000D02*
X131064000Y-74295000D01*
X131064000Y-74295000D02*
X131064000Y-73025000D01*
X131064000Y-73025000D02*
X131826000Y-73025000D01*
X125433000Y-79975000D02*
X125433000Y-80025000D01*
X129583000Y-79975000D02*
X129583000Y-80120000D01*
X129583000Y-85125000D02*
X129583000Y-84980000D01*
X125433000Y-85125000D02*
X125433000Y-84980000D01*
X125433000Y-79975000D02*
X129583000Y-79975000D01*
X125433000Y-85125000D02*
X129583000Y-85125000D01*
X125433000Y-80025000D02*
X124033000Y-80025000D01*
D14*
X115946000Y-94126000D02*
X115946000Y-95386000D01*
X115946000Y-100946000D02*
X115946000Y-99686000D01*
X119706000Y-94126000D02*
X115946000Y-94126000D01*
X121956000Y-100946000D02*
X115946000Y-100946000D01*
D10*
X163876524Y-86360000D02*
X163717425Y-86200901D01*
X158750000Y-91486524D02*
X158520190Y-91256714D01*
X153623476Y-86360000D02*
X153853286Y-86589810D01*
X158750000Y-81233476D02*
X158979810Y-81463286D01*
X163876524Y-86360000D02*
X163646714Y-86589810D01*
X158750000Y-81233476D02*
X158520190Y-81463286D01*
X153623476Y-86360000D02*
X153853286Y-86130190D01*
X158750000Y-91486524D02*
X158979810Y-91256714D01*
X163717425Y-86200901D02*
X164725052Y-85193274D01*
X135593000Y-89881000D02*
X135593000Y-89931000D01*
X139743000Y-89881000D02*
X139743000Y-90026000D01*
X139743000Y-95031000D02*
X139743000Y-94886000D01*
X135593000Y-95031000D02*
X135593000Y-94886000D01*
X135593000Y-89881000D02*
X139743000Y-89881000D01*
X135593000Y-95031000D02*
X139743000Y-95031000D01*
X135593000Y-89931000D02*
X134193000Y-89931000D01*
D15*
X160264929Y-79153284D02*
X161180915Y-78237297D01*
X163830091Y-80886473D02*
X162914105Y-81802459D01*
D16*
G36*
X156513202Y-77177851D02*
X156580859Y-77180318D01*
X156630295Y-77186772D01*
X156661057Y-77202746D01*
X156672696Y-77233776D01*
X156664760Y-77285398D01*
X156636799Y-77363148D01*
X156588362Y-77472560D01*
X156518998Y-77619169D01*
X156468727Y-77724000D01*
X156433085Y-77799660D01*
X156408082Y-77855291D01*
X156399891Y-77876400D01*
X156388956Y-77904194D01*
X156362125Y-77964599D01*
X156326619Y-78041500D01*
X156269919Y-78165761D01*
X156229768Y-78260788D01*
X156208840Y-78320084D01*
X156206404Y-78333600D01*
X156191342Y-78360106D01*
X156166153Y-78390750D01*
X156142910Y-78424288D01*
X156146500Y-78435200D01*
X156147174Y-78450813D01*
X156121100Y-78486000D01*
X156094340Y-78522555D01*
X156095700Y-78536800D01*
X156097324Y-78552157D01*
X156076046Y-78581250D01*
X156044727Y-78620595D01*
X156035795Y-78638400D01*
X156024339Y-78680463D01*
X155992032Y-78760331D01*
X155941841Y-78870939D01*
X155910344Y-78936850D01*
X155874291Y-79015094D01*
X155851771Y-79071793D01*
X155847301Y-79095474D01*
X155847817Y-79095600D01*
X155843967Y-79111407D01*
X155816300Y-79146400D01*
X155789540Y-79182955D01*
X155790900Y-79197200D01*
X155791574Y-79212813D01*
X155765500Y-79248000D01*
X155738740Y-79284555D01*
X155740100Y-79298800D01*
X155740774Y-79314413D01*
X155714700Y-79349600D01*
X155686494Y-79386291D01*
X155684847Y-79400400D01*
X155684439Y-79419657D01*
X155663252Y-79467425D01*
X155655155Y-79482403D01*
X155624985Y-79529379D01*
X155591005Y-79554090D01*
X155536499Y-79563926D01*
X155465878Y-79566062D01*
X155370585Y-79561881D01*
X155319619Y-79545829D01*
X155308923Y-79532566D01*
X155307930Y-79482287D01*
X155314178Y-79467957D01*
X155332633Y-79432606D01*
X155334589Y-79425800D01*
X155343098Y-79402598D01*
X155367534Y-79347021D01*
X155409480Y-79255616D01*
X155470517Y-79124930D01*
X155540946Y-78975398D01*
X155580516Y-78888590D01*
X155608645Y-78821035D01*
X155620581Y-78784347D01*
X155620394Y-78781214D01*
X155630039Y-78757204D01*
X155661486Y-78717266D01*
X155690980Y-78679372D01*
X155693670Y-78663800D01*
X155694309Y-78644495D01*
X155715734Y-78596344D01*
X155725729Y-78577875D01*
X155755227Y-78512254D01*
X155752510Y-78472379D01*
X155745615Y-78463575D01*
X155731841Y-78439320D01*
X155738956Y-78435200D01*
X155740471Y-78419622D01*
X155714700Y-78384400D01*
X155687940Y-78347844D01*
X155689300Y-78333600D01*
X155689974Y-78317986D01*
X155663900Y-78282800D01*
X155637140Y-78246244D01*
X155638500Y-78232000D01*
X155639174Y-78216386D01*
X155613100Y-78181200D01*
X155586340Y-78144644D01*
X155587700Y-78130400D01*
X155588374Y-78114786D01*
X155562300Y-78079600D01*
X155535540Y-78043044D01*
X155536900Y-78028800D01*
X155537574Y-78013186D01*
X155511500Y-77978000D01*
X155484740Y-77941444D01*
X155486100Y-77927200D01*
X155486774Y-77911586D01*
X155460700Y-77876400D01*
X155433674Y-77839819D01*
X155434473Y-77825600D01*
X155436987Y-77809863D01*
X155420473Y-77784937D01*
X155390261Y-77737939D01*
X155382081Y-77715087D01*
X155369511Y-77680784D01*
X155339536Y-77612516D01*
X155297331Y-77521826D01*
X155269563Y-77464066D01*
X155217904Y-77352945D01*
X155189470Y-77277939D01*
X155181852Y-77231303D01*
X155189993Y-77208127D01*
X155233553Y-77187489D01*
X155307663Y-77178483D01*
X155393461Y-77180965D01*
X155472081Y-77194787D01*
X155511870Y-77210619D01*
X155542022Y-77233001D01*
X155539313Y-77240627D01*
X155537269Y-77256829D01*
X155564579Y-77294718D01*
X155564713Y-77294866D01*
X155597521Y-77336508D01*
X155606459Y-77358487D01*
X155608650Y-77379482D01*
X155626860Y-77429785D01*
X155663041Y-77514084D01*
X155719145Y-77637066D01*
X155750605Y-77704554D01*
X155788277Y-77788209D01*
X155814306Y-77852273D01*
X155823825Y-77884630D01*
X155823504Y-77886037D01*
X155833215Y-77910011D01*
X155864686Y-77949933D01*
X155893072Y-77987719D01*
X155893326Y-78003400D01*
X155890417Y-78019011D01*
X155905459Y-78041813D01*
X155941418Y-78065923D01*
X155971257Y-78052077D01*
X155998379Y-78019627D01*
X156000931Y-78007313D01*
X156008774Y-77977494D01*
X156033421Y-77915612D01*
X156068051Y-77838300D01*
X156122261Y-77720372D01*
X156156253Y-77640563D01*
X156172861Y-77591724D01*
X156175207Y-77567916D01*
X156188009Y-77539219D01*
X156220286Y-77498066D01*
X156248672Y-77460280D01*
X156248926Y-77444600D01*
X156246412Y-77428863D01*
X156262926Y-77403937D01*
X156293806Y-77352745D01*
X156302083Y-77326412D01*
X156319559Y-77277980D01*
X156345376Y-77231733D01*
X156376915Y-77196589D01*
X156422080Y-77180320D01*
X156497913Y-77177456D01*
X156513202Y-77177851D01*
X156513202Y-77177851D01*
G37*
X156513202Y-77177851D02*
X156580859Y-77180318D01*
X156630295Y-77186772D01*
X156661057Y-77202746D01*
X156672696Y-77233776D01*
X156664760Y-77285398D01*
X156636799Y-77363148D01*
X156588362Y-77472560D01*
X156518998Y-77619169D01*
X156468727Y-77724000D01*
X156433085Y-77799660D01*
X156408082Y-77855291D01*
X156399891Y-77876400D01*
X156388956Y-77904194D01*
X156362125Y-77964599D01*
X156326619Y-78041500D01*
X156269919Y-78165761D01*
X156229768Y-78260788D01*
X156208840Y-78320084D01*
X156206404Y-78333600D01*
X156191342Y-78360106D01*
X156166153Y-78390750D01*
X156142910Y-78424288D01*
X156146500Y-78435200D01*
X156147174Y-78450813D01*
X156121100Y-78486000D01*
X156094340Y-78522555D01*
X156095700Y-78536800D01*
X156097324Y-78552157D01*
X156076046Y-78581250D01*
X156044727Y-78620595D01*
X156035795Y-78638400D01*
X156024339Y-78680463D01*
X155992032Y-78760331D01*
X155941841Y-78870939D01*
X155910344Y-78936850D01*
X155874291Y-79015094D01*
X155851771Y-79071793D01*
X155847301Y-79095474D01*
X155847817Y-79095600D01*
X155843967Y-79111407D01*
X155816300Y-79146400D01*
X155789540Y-79182955D01*
X155790900Y-79197200D01*
X155791574Y-79212813D01*
X155765500Y-79248000D01*
X155738740Y-79284555D01*
X155740100Y-79298800D01*
X155740774Y-79314413D01*
X155714700Y-79349600D01*
X155686494Y-79386291D01*
X155684847Y-79400400D01*
X155684439Y-79419657D01*
X155663252Y-79467425D01*
X155655155Y-79482403D01*
X155624985Y-79529379D01*
X155591005Y-79554090D01*
X155536499Y-79563926D01*
X155465878Y-79566062D01*
X155370585Y-79561881D01*
X155319619Y-79545829D01*
X155308923Y-79532566D01*
X155307930Y-79482287D01*
X155314178Y-79467957D01*
X155332633Y-79432606D01*
X155334589Y-79425800D01*
X155343098Y-79402598D01*
X155367534Y-79347021D01*
X155409480Y-79255616D01*
X155470517Y-79124930D01*
X155540946Y-78975398D01*
X155580516Y-78888590D01*
X155608645Y-78821035D01*
X155620581Y-78784347D01*
X155620394Y-78781214D01*
X155630039Y-78757204D01*
X155661486Y-78717266D01*
X155690980Y-78679372D01*
X155693670Y-78663800D01*
X155694309Y-78644495D01*
X155715734Y-78596344D01*
X155725729Y-78577875D01*
X155755227Y-78512254D01*
X155752510Y-78472379D01*
X155745615Y-78463575D01*
X155731841Y-78439320D01*
X155738956Y-78435200D01*
X155740471Y-78419622D01*
X155714700Y-78384400D01*
X155687940Y-78347844D01*
X155689300Y-78333600D01*
X155689974Y-78317986D01*
X155663900Y-78282800D01*
X155637140Y-78246244D01*
X155638500Y-78232000D01*
X155639174Y-78216386D01*
X155613100Y-78181200D01*
X155586340Y-78144644D01*
X155587700Y-78130400D01*
X155588374Y-78114786D01*
X155562300Y-78079600D01*
X155535540Y-78043044D01*
X155536900Y-78028800D01*
X155537574Y-78013186D01*
X155511500Y-77978000D01*
X155484740Y-77941444D01*
X155486100Y-77927200D01*
X155486774Y-77911586D01*
X155460700Y-77876400D01*
X155433674Y-77839819D01*
X155434473Y-77825600D01*
X155436987Y-77809863D01*
X155420473Y-77784937D01*
X155390261Y-77737939D01*
X155382081Y-77715087D01*
X155369511Y-77680784D01*
X155339536Y-77612516D01*
X155297331Y-77521826D01*
X155269563Y-77464066D01*
X155217904Y-77352945D01*
X155189470Y-77277939D01*
X155181852Y-77231303D01*
X155189993Y-77208127D01*
X155233553Y-77187489D01*
X155307663Y-77178483D01*
X155393461Y-77180965D01*
X155472081Y-77194787D01*
X155511870Y-77210619D01*
X155542022Y-77233001D01*
X155539313Y-77240627D01*
X155537269Y-77256829D01*
X155564579Y-77294718D01*
X155564713Y-77294866D01*
X155597521Y-77336508D01*
X155606459Y-77358487D01*
X155608650Y-77379482D01*
X155626860Y-77429785D01*
X155663041Y-77514084D01*
X155719145Y-77637066D01*
X155750605Y-77704554D01*
X155788277Y-77788209D01*
X155814306Y-77852273D01*
X155823825Y-77884630D01*
X155823504Y-77886037D01*
X155833215Y-77910011D01*
X155864686Y-77949933D01*
X155893072Y-77987719D01*
X155893326Y-78003400D01*
X155890417Y-78019011D01*
X155905459Y-78041813D01*
X155941418Y-78065923D01*
X155971257Y-78052077D01*
X155998379Y-78019627D01*
X156000931Y-78007313D01*
X156008774Y-77977494D01*
X156033421Y-77915612D01*
X156068051Y-77838300D01*
X156122261Y-77720372D01*
X156156253Y-77640563D01*
X156172861Y-77591724D01*
X156175207Y-77567916D01*
X156188009Y-77539219D01*
X156220286Y-77498066D01*
X156248672Y-77460280D01*
X156248926Y-77444600D01*
X156246412Y-77428863D01*
X156262926Y-77403937D01*
X156293806Y-77352745D01*
X156302083Y-77326412D01*
X156319559Y-77277980D01*
X156345376Y-77231733D01*
X156376915Y-77196589D01*
X156422080Y-77180320D01*
X156497913Y-77177456D01*
X156513202Y-77177851D01*
G36*
X143691981Y-77166972D02*
X143732766Y-77197582D01*
X143753898Y-77227028D01*
X143751858Y-77236608D01*
X143755655Y-77263229D01*
X143774834Y-77290138D01*
X143804184Y-77327784D01*
X143811204Y-77343000D01*
X143822360Y-77383616D01*
X143853973Y-77462962D01*
X143903369Y-77574541D01*
X143931419Y-77635100D01*
X143968241Y-77714434D01*
X143995195Y-77773972D01*
X144006205Y-77800200D01*
X144031384Y-77869137D01*
X144062384Y-77920505D01*
X144090275Y-77940488D01*
X144095842Y-77938884D01*
X144113213Y-77915683D01*
X144110526Y-77909660D01*
X144110424Y-77880279D01*
X144125178Y-77821740D01*
X144133110Y-77797903D01*
X144151524Y-77736862D01*
X144156037Y-77701853D01*
X144153463Y-77698600D01*
X144153853Y-77683122D01*
X144165991Y-77665811D01*
X144189099Y-77618994D01*
X144207697Y-77550661D01*
X144208306Y-77547299D01*
X144223457Y-77480681D01*
X144239681Y-77435626D01*
X144240619Y-77434037D01*
X144259209Y-77386290D01*
X144265328Y-77358295D01*
X144281954Y-77299024D01*
X144304505Y-77243995D01*
X144332805Y-77201663D01*
X144375657Y-77181901D01*
X144450142Y-77176341D01*
X144546847Y-77182629D01*
X144601705Y-77203525D01*
X144611530Y-77237299D01*
X144599403Y-77257470D01*
X144583879Y-77286294D01*
X144589500Y-77292200D01*
X144591784Y-77307827D01*
X144576800Y-77330300D01*
X144557085Y-77361160D01*
X144559379Y-77368400D01*
X144558031Y-77390598D01*
X144542677Y-77450176D01*
X144516207Y-77536604D01*
X144498338Y-77590650D01*
X144463077Y-77698596D01*
X144433348Y-77796526D01*
X144413854Y-77868675D01*
X144409945Y-77886962D01*
X144394812Y-77949963D01*
X144379580Y-77988562D01*
X144361056Y-78036197D01*
X144354779Y-78064906D01*
X144333981Y-78124438D01*
X144319184Y-78147456D01*
X144302216Y-78175845D01*
X144305476Y-78181200D01*
X144304869Y-78203156D01*
X144290190Y-78261199D01*
X144264488Y-78343587D01*
X144259300Y-78359000D01*
X144232436Y-78444574D01*
X144216748Y-78508122D01*
X144215076Y-78537772D01*
X144216363Y-78538585D01*
X144211109Y-78547368D01*
X144183505Y-78560052D01*
X144130391Y-78570176D01*
X144079304Y-78565527D01*
X144050517Y-78549076D01*
X144049621Y-78540425D01*
X144041293Y-78511700D01*
X144015285Y-78448774D01*
X143976411Y-78362996D01*
X143956713Y-78321439D01*
X143912496Y-78227139D01*
X143877691Y-78148734D01*
X143857695Y-78098561D01*
X143855036Y-78089051D01*
X143836230Y-78045991D01*
X143816926Y-78018662D01*
X143797952Y-77986592D01*
X143802926Y-77978000D01*
X143802992Y-77962360D01*
X143776700Y-77927200D01*
X143749940Y-77890644D01*
X143751300Y-77876400D01*
X143752924Y-77861042D01*
X143731646Y-77831950D01*
X143700224Y-77792592D01*
X143691140Y-77774800D01*
X143683053Y-77743829D01*
X143668671Y-77702115D01*
X143655207Y-77674238D01*
X143640416Y-77674302D01*
X143618482Y-77708320D01*
X143583592Y-77782303D01*
X143577055Y-77796833D01*
X143541647Y-77878279D01*
X143516418Y-77941162D01*
X143507004Y-77971117D01*
X143491185Y-78003409D01*
X143466153Y-78035150D01*
X143442910Y-78068688D01*
X143446500Y-78079600D01*
X143448124Y-78094957D01*
X143426846Y-78124050D01*
X143393995Y-78169048D01*
X143383876Y-78193900D01*
X143370521Y-78238292D01*
X143340907Y-78308391D01*
X143301988Y-78390294D01*
X143260718Y-78470101D01*
X143224053Y-78533910D01*
X143198946Y-78567819D01*
X143195803Y-78569836D01*
X143150491Y-78570014D01*
X143116300Y-78560470D01*
X143083286Y-78544181D01*
X143082869Y-78538585D01*
X143082447Y-78515507D01*
X143067785Y-78454461D01*
X143041534Y-78365388D01*
X143014700Y-78282800D01*
X142980966Y-78178941D01*
X142956263Y-78095606D01*
X142943364Y-78042658D01*
X142943290Y-78028800D01*
X142942260Y-78013232D01*
X142929415Y-77995056D01*
X142901225Y-77940979D01*
X142893820Y-77912506D01*
X142878972Y-77857249D01*
X142869240Y-77836520D01*
X142852057Y-77792214D01*
X142839983Y-77741689D01*
X142825031Y-77681285D01*
X142811499Y-77647799D01*
X142795007Y-77604434D01*
X142782836Y-77552919D01*
X142763851Y-77489247D01*
X142743384Y-77451738D01*
X142727402Y-77424075D01*
X142731063Y-77419200D01*
X142732612Y-77398075D01*
X142719072Y-77345004D01*
X142710493Y-77319282D01*
X142691444Y-77252801D01*
X142694786Y-77209886D01*
X142727076Y-77186755D01*
X142794872Y-77179627D01*
X142904732Y-77184719D01*
X142939128Y-77187425D01*
X142978998Y-77215311D01*
X143013990Y-77288633D01*
X143041265Y-77400417D01*
X143059527Y-77467480D01*
X143082608Y-77513411D01*
X143098943Y-77541235D01*
X143095523Y-77546200D01*
X143096004Y-77568116D01*
X143110567Y-77625897D01*
X143136142Y-77707589D01*
X143139540Y-77717650D01*
X143168839Y-77804877D01*
X143190952Y-77872747D01*
X143201361Y-77907373D01*
X143201527Y-77908150D01*
X143217759Y-77927198D01*
X143217900Y-77927200D01*
X143232388Y-77908366D01*
X143232409Y-77908150D01*
X143249182Y-77875477D01*
X143268700Y-77851000D01*
X143297661Y-77810797D01*
X143304045Y-77793401D01*
X143314677Y-77762956D01*
X143342272Y-77698680D01*
X143381650Y-77612461D01*
X143397855Y-77578041D01*
X143440836Y-77485181D01*
X143474420Y-77408319D01*
X143493144Y-77360121D01*
X143495163Y-77352451D01*
X143513969Y-77309391D01*
X143533273Y-77282062D01*
X143552247Y-77249992D01*
X143547273Y-77241400D01*
X143546863Y-77225853D01*
X143571242Y-77193094D01*
X143616611Y-77158012D01*
X143648817Y-77149757D01*
X143691981Y-77166972D01*
X143691981Y-77166972D01*
G37*
X143691981Y-77166972D02*
X143732766Y-77197582D01*
X143753898Y-77227028D01*
X143751858Y-77236608D01*
X143755655Y-77263229D01*
X143774834Y-77290138D01*
X143804184Y-77327784D01*
X143811204Y-77343000D01*
X143822360Y-77383616D01*
X143853973Y-77462962D01*
X143903369Y-77574541D01*
X143931419Y-77635100D01*
X143968241Y-77714434D01*
X143995195Y-77773972D01*
X144006205Y-77800200D01*
X144031384Y-77869137D01*
X144062384Y-77920505D01*
X144090275Y-77940488D01*
X144095842Y-77938884D01*
X144113213Y-77915683D01*
X144110526Y-77909660D01*
X144110424Y-77880279D01*
X144125178Y-77821740D01*
X144133110Y-77797903D01*
X144151524Y-77736862D01*
X144156037Y-77701853D01*
X144153463Y-77698600D01*
X144153853Y-77683122D01*
X144165991Y-77665811D01*
X144189099Y-77618994D01*
X144207697Y-77550661D01*
X144208306Y-77547299D01*
X144223457Y-77480681D01*
X144239681Y-77435626D01*
X144240619Y-77434037D01*
X144259209Y-77386290D01*
X144265328Y-77358295D01*
X144281954Y-77299024D01*
X144304505Y-77243995D01*
X144332805Y-77201663D01*
X144375657Y-77181901D01*
X144450142Y-77176341D01*
X144546847Y-77182629D01*
X144601705Y-77203525D01*
X144611530Y-77237299D01*
X144599403Y-77257470D01*
X144583879Y-77286294D01*
X144589500Y-77292200D01*
X144591784Y-77307827D01*
X144576800Y-77330300D01*
X144557085Y-77361160D01*
X144559379Y-77368400D01*
X144558031Y-77390598D01*
X144542677Y-77450176D01*
X144516207Y-77536604D01*
X144498338Y-77590650D01*
X144463077Y-77698596D01*
X144433348Y-77796526D01*
X144413854Y-77868675D01*
X144409945Y-77886962D01*
X144394812Y-77949963D01*
X144379580Y-77988562D01*
X144361056Y-78036197D01*
X144354779Y-78064906D01*
X144333981Y-78124438D01*
X144319184Y-78147456D01*
X144302216Y-78175845D01*
X144305476Y-78181200D01*
X144304869Y-78203156D01*
X144290190Y-78261199D01*
X144264488Y-78343587D01*
X144259300Y-78359000D01*
X144232436Y-78444574D01*
X144216748Y-78508122D01*
X144215076Y-78537772D01*
X144216363Y-78538585D01*
X144211109Y-78547368D01*
X144183505Y-78560052D01*
X144130391Y-78570176D01*
X144079304Y-78565527D01*
X144050517Y-78549076D01*
X144049621Y-78540425D01*
X144041293Y-78511700D01*
X144015285Y-78448774D01*
X143976411Y-78362996D01*
X143956713Y-78321439D01*
X143912496Y-78227139D01*
X143877691Y-78148734D01*
X143857695Y-78098561D01*
X143855036Y-78089051D01*
X143836230Y-78045991D01*
X143816926Y-78018662D01*
X143797952Y-77986592D01*
X143802926Y-77978000D01*
X143802992Y-77962360D01*
X143776700Y-77927200D01*
X143749940Y-77890644D01*
X143751300Y-77876400D01*
X143752924Y-77861042D01*
X143731646Y-77831950D01*
X143700224Y-77792592D01*
X143691140Y-77774800D01*
X143683053Y-77743829D01*
X143668671Y-77702115D01*
X143655207Y-77674238D01*
X143640416Y-77674302D01*
X143618482Y-77708320D01*
X143583592Y-77782303D01*
X143577055Y-77796833D01*
X143541647Y-77878279D01*
X143516418Y-77941162D01*
X143507004Y-77971117D01*
X143491185Y-78003409D01*
X143466153Y-78035150D01*
X143442910Y-78068688D01*
X143446500Y-78079600D01*
X143448124Y-78094957D01*
X143426846Y-78124050D01*
X143393995Y-78169048D01*
X143383876Y-78193900D01*
X143370521Y-78238292D01*
X143340907Y-78308391D01*
X143301988Y-78390294D01*
X143260718Y-78470101D01*
X143224053Y-78533910D01*
X143198946Y-78567819D01*
X143195803Y-78569836D01*
X143150491Y-78570014D01*
X143116300Y-78560470D01*
X143083286Y-78544181D01*
X143082869Y-78538585D01*
X143082447Y-78515507D01*
X143067785Y-78454461D01*
X143041534Y-78365388D01*
X143014700Y-78282800D01*
X142980966Y-78178941D01*
X142956263Y-78095606D01*
X142943364Y-78042658D01*
X142943290Y-78028800D01*
X142942260Y-78013232D01*
X142929415Y-77995056D01*
X142901225Y-77940979D01*
X142893820Y-77912506D01*
X142878972Y-77857249D01*
X142869240Y-77836520D01*
X142852057Y-77792214D01*
X142839983Y-77741689D01*
X142825031Y-77681285D01*
X142811499Y-77647799D01*
X142795007Y-77604434D01*
X142782836Y-77552919D01*
X142763851Y-77489247D01*
X142743384Y-77451738D01*
X142727402Y-77424075D01*
X142731063Y-77419200D01*
X142732612Y-77398075D01*
X142719072Y-77345004D01*
X142710493Y-77319282D01*
X142691444Y-77252801D01*
X142694786Y-77209886D01*
X142727076Y-77186755D01*
X142794872Y-77179627D01*
X142904732Y-77184719D01*
X142939128Y-77187425D01*
X142978998Y-77215311D01*
X143013990Y-77288633D01*
X143041265Y-77400417D01*
X143059527Y-77467480D01*
X143082608Y-77513411D01*
X143098943Y-77541235D01*
X143095523Y-77546200D01*
X143096004Y-77568116D01*
X143110567Y-77625897D01*
X143136142Y-77707589D01*
X143139540Y-77717650D01*
X143168839Y-77804877D01*
X143190952Y-77872747D01*
X143201361Y-77907373D01*
X143201527Y-77908150D01*
X143217759Y-77927198D01*
X143217900Y-77927200D01*
X143232388Y-77908366D01*
X143232409Y-77908150D01*
X143249182Y-77875477D01*
X143268700Y-77851000D01*
X143297661Y-77810797D01*
X143304045Y-77793401D01*
X143314677Y-77762956D01*
X143342272Y-77698680D01*
X143381650Y-77612461D01*
X143397855Y-77578041D01*
X143440836Y-77485181D01*
X143474420Y-77408319D01*
X143493144Y-77360121D01*
X143495163Y-77352451D01*
X143513969Y-77309391D01*
X143533273Y-77282062D01*
X143552247Y-77249992D01*
X143547273Y-77241400D01*
X143546863Y-77225853D01*
X143571242Y-77193094D01*
X143616611Y-77158012D01*
X143648817Y-77149757D01*
X143691981Y-77166972D01*
G36*
X145789165Y-77171067D02*
X145840988Y-77238513D01*
X145884900Y-77343000D01*
X145905101Y-77393699D01*
X145942649Y-77479325D01*
X145992763Y-77589077D01*
X146014219Y-77635100D01*
X146051041Y-77714434D01*
X146077995Y-77773972D01*
X146089005Y-77800200D01*
X146100133Y-77830341D01*
X146122280Y-77885284D01*
X146122689Y-77886272D01*
X146151551Y-77935720D01*
X146175448Y-77934774D01*
X146193029Y-77883711D01*
X146195093Y-77871388D01*
X146214677Y-77810653D01*
X146231415Y-77783143D01*
X146248203Y-77754766D01*
X146244736Y-77749400D01*
X146243257Y-77728250D01*
X146256834Y-77675021D01*
X146265900Y-77647800D01*
X146284672Y-77585931D01*
X146289682Y-77549926D01*
X146287063Y-77546200D01*
X146287453Y-77530722D01*
X146299591Y-77513411D01*
X146322595Y-77466724D01*
X146341300Y-77398188D01*
X146342100Y-77393799D01*
X146360193Y-77324844D01*
X146383226Y-77275938D01*
X146384608Y-77274188D01*
X146398770Y-77246500D01*
X146392900Y-77241400D01*
X146389672Y-77226095D01*
X146401472Y-77208273D01*
X146443333Y-77188505D01*
X146513911Y-77178701D01*
X146592044Y-77179194D01*
X146656570Y-77190315D01*
X146681652Y-77203876D01*
X146690959Y-77247403D01*
X146678570Y-77292200D01*
X146656468Y-77348892D01*
X146646001Y-77381100D01*
X146635958Y-77417982D01*
X146616399Y-77486462D01*
X146599020Y-77546200D01*
X146576795Y-77625451D01*
X146562126Y-77684299D01*
X146558558Y-77705216D01*
X146548197Y-77739085D01*
X146522365Y-77795388D01*
X146519762Y-77800466D01*
X146496577Y-77851195D01*
X146491259Y-77875928D01*
X146492334Y-77876400D01*
X146490543Y-77898377D01*
X146474978Y-77956469D01*
X146448853Y-78038919D01*
X146443700Y-78054200D01*
X146416443Y-78139528D01*
X146399697Y-78202486D01*
X146396510Y-78231333D01*
X146397523Y-78232000D01*
X146396637Y-78247559D01*
X146383815Y-78265743D01*
X146354710Y-78319743D01*
X146346360Y-78348293D01*
X146329219Y-78410019D01*
X146310737Y-78460600D01*
X146294455Y-78513005D01*
X146293996Y-78540262D01*
X146284440Y-78558964D01*
X146243945Y-78569868D01*
X146192203Y-78569312D01*
X146168364Y-78563625D01*
X146129455Y-78539113D01*
X146121277Y-78523108D01*
X146114510Y-78488862D01*
X146094659Y-78434095D01*
X146058617Y-78351333D01*
X146003273Y-78233107D01*
X145982909Y-78190578D01*
X145939510Y-78099459D01*
X145905698Y-78026941D01*
X145886684Y-77984268D01*
X145884374Y-77978000D01*
X145873313Y-77950187D01*
X145846650Y-77889302D01*
X145810098Y-77808386D01*
X145809156Y-77806327D01*
X145736423Y-77647354D01*
X145659096Y-77806327D01*
X145620341Y-77887132D01*
X145591926Y-77948520D01*
X145579777Y-77977675D01*
X145579712Y-77978000D01*
X145568664Y-78005797D01*
X145541750Y-78066208D01*
X145506219Y-78143100D01*
X145445204Y-78276905D01*
X145407123Y-78368940D01*
X145392439Y-78418032D01*
X145394164Y-78426183D01*
X145385607Y-78444993D01*
X145357794Y-78479044D01*
X145329357Y-78520039D01*
X145327052Y-78541985D01*
X145322016Y-78557868D01*
X145287039Y-78569037D01*
X145242978Y-78571428D01*
X145214552Y-78563901D01*
X145197084Y-78536134D01*
X145169790Y-78474320D01*
X145136698Y-78389897D01*
X145101838Y-78294306D01*
X145069238Y-78198985D01*
X145042928Y-78115375D01*
X145026936Y-78054915D01*
X145025291Y-78029044D01*
X145026090Y-78028800D01*
X145025060Y-78013232D01*
X145012215Y-77995056D01*
X144985428Y-77943788D01*
X144972892Y-77899806D01*
X144962439Y-77850545D01*
X144956512Y-77831950D01*
X144947886Y-77806550D01*
X144932340Y-77769709D01*
X144924162Y-77755750D01*
X144913109Y-77727721D01*
X144916687Y-77724000D01*
X144915305Y-77702029D01*
X144900044Y-77643954D01*
X144874065Y-77561526D01*
X144868900Y-77546200D01*
X144841052Y-77460802D01*
X144822797Y-77397826D01*
X144817500Y-77369045D01*
X144818106Y-77368400D01*
X144814729Y-77348958D01*
X144793277Y-77301896D01*
X144791861Y-77299152D01*
X144770811Y-77233613D01*
X144781361Y-77204478D01*
X144823407Y-77187230D01*
X144892780Y-77178689D01*
X144968949Y-77179048D01*
X145031384Y-77188496D01*
X145057056Y-77201923D01*
X145078052Y-77243594D01*
X145106139Y-77317701D01*
X145135753Y-77407482D01*
X145161329Y-77496174D01*
X145176275Y-77561087D01*
X145191525Y-77622795D01*
X145206061Y-77658720D01*
X145226071Y-77709116D01*
X145228179Y-77719633D01*
X145242550Y-77772108D01*
X145251759Y-77795833D01*
X145272868Y-77858668D01*
X145279690Y-77887557D01*
X145292201Y-77933197D01*
X145299513Y-77947179D01*
X145313997Y-77932363D01*
X145340267Y-77886248D01*
X145370694Y-77824477D01*
X145397647Y-77762696D01*
X145413497Y-77716548D01*
X145414552Y-77711300D01*
X145433408Y-77674286D01*
X145461259Y-77638783D01*
X145491335Y-77599731D01*
X145497727Y-77581704D01*
X145502688Y-77551886D01*
X145525610Y-77488103D01*
X145561827Y-77401874D01*
X145606674Y-77304717D01*
X145625272Y-77266800D01*
X145679742Y-77184751D01*
X145734895Y-77152993D01*
X145789165Y-77171067D01*
X145789165Y-77171067D01*
G37*
X145789165Y-77171067D02*
X145840988Y-77238513D01*
X145884900Y-77343000D01*
X145905101Y-77393699D01*
X145942649Y-77479325D01*
X145992763Y-77589077D01*
X146014219Y-77635100D01*
X146051041Y-77714434D01*
X146077995Y-77773972D01*
X146089005Y-77800200D01*
X146100133Y-77830341D01*
X146122280Y-77885284D01*
X146122689Y-77886272D01*
X146151551Y-77935720D01*
X146175448Y-77934774D01*
X146193029Y-77883711D01*
X146195093Y-77871388D01*
X146214677Y-77810653D01*
X146231415Y-77783143D01*
X146248203Y-77754766D01*
X146244736Y-77749400D01*
X146243257Y-77728250D01*
X146256834Y-77675021D01*
X146265900Y-77647800D01*
X146284672Y-77585931D01*
X146289682Y-77549926D01*
X146287063Y-77546200D01*
X146287453Y-77530722D01*
X146299591Y-77513411D01*
X146322595Y-77466724D01*
X146341300Y-77398188D01*
X146342100Y-77393799D01*
X146360193Y-77324844D01*
X146383226Y-77275938D01*
X146384608Y-77274188D01*
X146398770Y-77246500D01*
X146392900Y-77241400D01*
X146389672Y-77226095D01*
X146401472Y-77208273D01*
X146443333Y-77188505D01*
X146513911Y-77178701D01*
X146592044Y-77179194D01*
X146656570Y-77190315D01*
X146681652Y-77203876D01*
X146690959Y-77247403D01*
X146678570Y-77292200D01*
X146656468Y-77348892D01*
X146646001Y-77381100D01*
X146635958Y-77417982D01*
X146616399Y-77486462D01*
X146599020Y-77546200D01*
X146576795Y-77625451D01*
X146562126Y-77684299D01*
X146558558Y-77705216D01*
X146548197Y-77739085D01*
X146522365Y-77795388D01*
X146519762Y-77800466D01*
X146496577Y-77851195D01*
X146491259Y-77875928D01*
X146492334Y-77876400D01*
X146490543Y-77898377D01*
X146474978Y-77956469D01*
X146448853Y-78038919D01*
X146443700Y-78054200D01*
X146416443Y-78139528D01*
X146399697Y-78202486D01*
X146396510Y-78231333D01*
X146397523Y-78232000D01*
X146396637Y-78247559D01*
X146383815Y-78265743D01*
X146354710Y-78319743D01*
X146346360Y-78348293D01*
X146329219Y-78410019D01*
X146310737Y-78460600D01*
X146294455Y-78513005D01*
X146293996Y-78540262D01*
X146284440Y-78558964D01*
X146243945Y-78569868D01*
X146192203Y-78569312D01*
X146168364Y-78563625D01*
X146129455Y-78539113D01*
X146121277Y-78523108D01*
X146114510Y-78488862D01*
X146094659Y-78434095D01*
X146058617Y-78351333D01*
X146003273Y-78233107D01*
X145982909Y-78190578D01*
X145939510Y-78099459D01*
X145905698Y-78026941D01*
X145886684Y-77984268D01*
X145884374Y-77978000D01*
X145873313Y-77950187D01*
X145846650Y-77889302D01*
X145810098Y-77808386D01*
X145809156Y-77806327D01*
X145736423Y-77647354D01*
X145659096Y-77806327D01*
X145620341Y-77887132D01*
X145591926Y-77948520D01*
X145579777Y-77977675D01*
X145579712Y-77978000D01*
X145568664Y-78005797D01*
X145541750Y-78066208D01*
X145506219Y-78143100D01*
X145445204Y-78276905D01*
X145407123Y-78368940D01*
X145392439Y-78418032D01*
X145394164Y-78426183D01*
X145385607Y-78444993D01*
X145357794Y-78479044D01*
X145329357Y-78520039D01*
X145327052Y-78541985D01*
X145322016Y-78557868D01*
X145287039Y-78569037D01*
X145242978Y-78571428D01*
X145214552Y-78563901D01*
X145197084Y-78536134D01*
X145169790Y-78474320D01*
X145136698Y-78389897D01*
X145101838Y-78294306D01*
X145069238Y-78198985D01*
X145042928Y-78115375D01*
X145026936Y-78054915D01*
X145025291Y-78029044D01*
X145026090Y-78028800D01*
X145025060Y-78013232D01*
X145012215Y-77995056D01*
X144985428Y-77943788D01*
X144972892Y-77899806D01*
X144962439Y-77850545D01*
X144956512Y-77831950D01*
X144947886Y-77806550D01*
X144932340Y-77769709D01*
X144924162Y-77755750D01*
X144913109Y-77727721D01*
X144916687Y-77724000D01*
X144915305Y-77702029D01*
X144900044Y-77643954D01*
X144874065Y-77561526D01*
X144868900Y-77546200D01*
X144841052Y-77460802D01*
X144822797Y-77397826D01*
X144817500Y-77369045D01*
X144818106Y-77368400D01*
X144814729Y-77348958D01*
X144793277Y-77301896D01*
X144791861Y-77299152D01*
X144770811Y-77233613D01*
X144781361Y-77204478D01*
X144823407Y-77187230D01*
X144892780Y-77178689D01*
X144968949Y-77179048D01*
X145031384Y-77188496D01*
X145057056Y-77201923D01*
X145078052Y-77243594D01*
X145106139Y-77317701D01*
X145135753Y-77407482D01*
X145161329Y-77496174D01*
X145176275Y-77561087D01*
X145191525Y-77622795D01*
X145206061Y-77658720D01*
X145226071Y-77709116D01*
X145228179Y-77719633D01*
X145242550Y-77772108D01*
X145251759Y-77795833D01*
X145272868Y-77858668D01*
X145279690Y-77887557D01*
X145292201Y-77933197D01*
X145299513Y-77947179D01*
X145313997Y-77932363D01*
X145340267Y-77886248D01*
X145370694Y-77824477D01*
X145397647Y-77762696D01*
X145413497Y-77716548D01*
X145414552Y-77711300D01*
X145433408Y-77674286D01*
X145461259Y-77638783D01*
X145491335Y-77599731D01*
X145497727Y-77581704D01*
X145502688Y-77551886D01*
X145525610Y-77488103D01*
X145561827Y-77401874D01*
X145606674Y-77304717D01*
X145625272Y-77266800D01*
X145679742Y-77184751D01*
X145734895Y-77152993D01*
X145789165Y-77171067D01*
G36*
X147810641Y-77149203D02*
X147855650Y-77166410D01*
X147897629Y-77196751D01*
X147919545Y-77226289D01*
X147917458Y-77236608D01*
X147921983Y-77262896D01*
X147946181Y-77296488D01*
X147970608Y-77331030D01*
X147967700Y-77343000D01*
X147967025Y-77358613D01*
X147993100Y-77393800D01*
X148019859Y-77430355D01*
X148018500Y-77444600D01*
X148016875Y-77459957D01*
X148038153Y-77489050D01*
X148070286Y-77531230D01*
X148079899Y-77552671D01*
X148084916Y-77572548D01*
X148100153Y-77613216D01*
X148128765Y-77682491D01*
X148173907Y-77788194D01*
X148190032Y-77825600D01*
X148211194Y-77879364D01*
X148219571Y-77908150D01*
X148236303Y-77932996D01*
X148263277Y-77923348D01*
X148279989Y-77889100D01*
X148292000Y-77830474D01*
X148298692Y-77806283D01*
X148309662Y-77768373D01*
X148310907Y-77762186D01*
X148319669Y-77732866D01*
X148339616Y-77673772D01*
X148348575Y-77648153D01*
X148367401Y-77586158D01*
X148372487Y-77550001D01*
X148369863Y-77546200D01*
X148370253Y-77530722D01*
X148382391Y-77513411D01*
X148405395Y-77466724D01*
X148424100Y-77398188D01*
X148424900Y-77393799D01*
X148442993Y-77324844D01*
X148466026Y-77275938D01*
X148467408Y-77274188D01*
X148481570Y-77246500D01*
X148475700Y-77241400D01*
X148472472Y-77226095D01*
X148484272Y-77208273D01*
X148525477Y-77188961D01*
X148595807Y-77178899D01*
X148674303Y-77178847D01*
X148740004Y-77189564D01*
X148760090Y-77198276D01*
X148776072Y-77223485D01*
X148769239Y-77273545D01*
X148754867Y-77318258D01*
X148736197Y-77379891D01*
X148731328Y-77415611D01*
X148733936Y-77419200D01*
X148733589Y-77434660D01*
X148721615Y-77451738D01*
X148695694Y-77501641D01*
X148682637Y-77546988D01*
X148669591Y-77599342D01*
X148645190Y-77684558D01*
X148613906Y-77787225D01*
X148601785Y-77825600D01*
X148570366Y-77924878D01*
X148545047Y-78006364D01*
X148529725Y-78057458D01*
X148527189Y-78066900D01*
X148512679Y-78110940D01*
X148502980Y-78134766D01*
X148481535Y-78198584D01*
X148475687Y-78223666D01*
X148465896Y-78265749D01*
X148461768Y-78276450D01*
X148451674Y-78302987D01*
X148450300Y-78308200D01*
X148439984Y-78338164D01*
X148438831Y-78339950D01*
X148430437Y-78366829D01*
X148424912Y-78392733D01*
X148406578Y-78457906D01*
X148397300Y-78481633D01*
X148379875Y-78530051D01*
X148376293Y-78547078D01*
X148353122Y-78569958D01*
X148306732Y-78576971D01*
X148266535Y-78565802D01*
X148242875Y-78537438D01*
X148209724Y-78482876D01*
X148174155Y-78416122D01*
X148143243Y-78351187D01*
X148124062Y-78302077D01*
X148123608Y-78282800D01*
X148121693Y-78267075D01*
X148094700Y-78232000D01*
X148067940Y-78195444D01*
X148069300Y-78181200D01*
X148069974Y-78165586D01*
X148043900Y-78130400D01*
X148017140Y-78093844D01*
X148018500Y-78079600D01*
X148020124Y-78064242D01*
X147998846Y-78035150D01*
X147966713Y-77992969D01*
X147957100Y-77971528D01*
X147946933Y-77937838D01*
X147923473Y-77877472D01*
X147914979Y-77857228D01*
X147881495Y-77778005D01*
X147852084Y-77707203D01*
X147848573Y-77698600D01*
X147822768Y-77635100D01*
X147798453Y-77698600D01*
X147783142Y-77746426D01*
X147782019Y-77765783D01*
X147772984Y-77784635D01*
X147741513Y-77822933D01*
X147713383Y-77860695D01*
X147713700Y-77876400D01*
X147714374Y-77892013D01*
X147688300Y-77927200D01*
X147659547Y-77963941D01*
X147656782Y-77978000D01*
X147653840Y-77998759D01*
X147632510Y-78053391D01*
X147597310Y-78130425D01*
X147594255Y-78136750D01*
X147550794Y-78227596D01*
X147513005Y-78308720D01*
X147490613Y-78359000D01*
X147468961Y-78410407D01*
X147458411Y-78435200D01*
X147446916Y-78466898D01*
X147434884Y-78502701D01*
X147397620Y-78553630D01*
X147341269Y-78574698D01*
X147297584Y-78564044D01*
X147278590Y-78535867D01*
X147251438Y-78476675D01*
X147220933Y-78399792D01*
X147191881Y-78318542D01*
X147169086Y-78246250D01*
X147157354Y-78196241D01*
X147159523Y-78181200D01*
X147157973Y-78165381D01*
X147142200Y-78143100D01*
X147124467Y-78112382D01*
X147129500Y-78105000D01*
X147131784Y-78089372D01*
X147116800Y-78066900D01*
X147097055Y-78036037D01*
X147099309Y-78028800D01*
X147097564Y-78006463D01*
X147081848Y-77946031D01*
X147054934Y-77857367D01*
X147027900Y-77774800D01*
X146994166Y-77670941D01*
X146969463Y-77587606D01*
X146956564Y-77534658D01*
X146956490Y-77520800D01*
X146955460Y-77505232D01*
X146942615Y-77487056D01*
X146913510Y-77433056D01*
X146905160Y-77404506D01*
X146888003Y-77342794D01*
X146869480Y-77292200D01*
X146856066Y-77231518D01*
X146879882Y-77194928D01*
X146945349Y-77178704D01*
X147006021Y-77177189D01*
X147082420Y-77182377D01*
X147127724Y-77201200D01*
X147161505Y-77243575D01*
X147171622Y-77261115D01*
X147198467Y-77313847D01*
X147207546Y-77341699D01*
X147206310Y-77343000D01*
X147207050Y-77364202D01*
X147221956Y-77417548D01*
X147231100Y-77444600D01*
X147249872Y-77506468D01*
X147254882Y-77542473D01*
X147252263Y-77546200D01*
X147252610Y-77561660D01*
X147264584Y-77578738D01*
X147289509Y-77627680D01*
X147304036Y-77679919D01*
X147318987Y-77740637D01*
X147332700Y-77774800D01*
X147349177Y-77818139D01*
X147361402Y-77869896D01*
X147374144Y-77924196D01*
X147384736Y-77949603D01*
X147399216Y-77934920D01*
X147425106Y-77888717D01*
X147454967Y-77826645D01*
X147481360Y-77764357D01*
X147496846Y-77717506D01*
X147497989Y-77711300D01*
X147516326Y-77674325D01*
X147544059Y-77638783D01*
X147574720Y-77597157D01*
X147581654Y-77575283D01*
X147589597Y-77546534D01*
X147615109Y-77483346D01*
X147653516Y-77396955D01*
X147674807Y-77351289D01*
X147732237Y-77239426D01*
X147777728Y-77171245D01*
X147809697Y-77149102D01*
X147810641Y-77149203D01*
X147810641Y-77149203D01*
G37*
X147810641Y-77149203D02*
X147855650Y-77166410D01*
X147897629Y-77196751D01*
X147919545Y-77226289D01*
X147917458Y-77236608D01*
X147921983Y-77262896D01*
X147946181Y-77296488D01*
X147970608Y-77331030D01*
X147967700Y-77343000D01*
X147967025Y-77358613D01*
X147993100Y-77393800D01*
X148019859Y-77430355D01*
X148018500Y-77444600D01*
X148016875Y-77459957D01*
X148038153Y-77489050D01*
X148070286Y-77531230D01*
X148079899Y-77552671D01*
X148084916Y-77572548D01*
X148100153Y-77613216D01*
X148128765Y-77682491D01*
X148173907Y-77788194D01*
X148190032Y-77825600D01*
X148211194Y-77879364D01*
X148219571Y-77908150D01*
X148236303Y-77932996D01*
X148263277Y-77923348D01*
X148279989Y-77889100D01*
X148292000Y-77830474D01*
X148298692Y-77806283D01*
X148309662Y-77768373D01*
X148310907Y-77762186D01*
X148319669Y-77732866D01*
X148339616Y-77673772D01*
X148348575Y-77648153D01*
X148367401Y-77586158D01*
X148372487Y-77550001D01*
X148369863Y-77546200D01*
X148370253Y-77530722D01*
X148382391Y-77513411D01*
X148405395Y-77466724D01*
X148424100Y-77398188D01*
X148424900Y-77393799D01*
X148442993Y-77324844D01*
X148466026Y-77275938D01*
X148467408Y-77274188D01*
X148481570Y-77246500D01*
X148475700Y-77241400D01*
X148472472Y-77226095D01*
X148484272Y-77208273D01*
X148525477Y-77188961D01*
X148595807Y-77178899D01*
X148674303Y-77178847D01*
X148740004Y-77189564D01*
X148760090Y-77198276D01*
X148776072Y-77223485D01*
X148769239Y-77273545D01*
X148754867Y-77318258D01*
X148736197Y-77379891D01*
X148731328Y-77415611D01*
X148733936Y-77419200D01*
X148733589Y-77434660D01*
X148721615Y-77451738D01*
X148695694Y-77501641D01*
X148682637Y-77546988D01*
X148669591Y-77599342D01*
X148645190Y-77684558D01*
X148613906Y-77787225D01*
X148601785Y-77825600D01*
X148570366Y-77924878D01*
X148545047Y-78006364D01*
X148529725Y-78057458D01*
X148527189Y-78066900D01*
X148512679Y-78110940D01*
X148502980Y-78134766D01*
X148481535Y-78198584D01*
X148475687Y-78223666D01*
X148465896Y-78265749D01*
X148461768Y-78276450D01*
X148451674Y-78302987D01*
X148450300Y-78308200D01*
X148439984Y-78338164D01*
X148438831Y-78339950D01*
X148430437Y-78366829D01*
X148424912Y-78392733D01*
X148406578Y-78457906D01*
X148397300Y-78481633D01*
X148379875Y-78530051D01*
X148376293Y-78547078D01*
X148353122Y-78569958D01*
X148306732Y-78576971D01*
X148266535Y-78565802D01*
X148242875Y-78537438D01*
X148209724Y-78482876D01*
X148174155Y-78416122D01*
X148143243Y-78351187D01*
X148124062Y-78302077D01*
X148123608Y-78282800D01*
X148121693Y-78267075D01*
X148094700Y-78232000D01*
X148067940Y-78195444D01*
X148069300Y-78181200D01*
X148069974Y-78165586D01*
X148043900Y-78130400D01*
X148017140Y-78093844D01*
X148018500Y-78079600D01*
X148020124Y-78064242D01*
X147998846Y-78035150D01*
X147966713Y-77992969D01*
X147957100Y-77971528D01*
X147946933Y-77937838D01*
X147923473Y-77877472D01*
X147914979Y-77857228D01*
X147881495Y-77778005D01*
X147852084Y-77707203D01*
X147848573Y-77698600D01*
X147822768Y-77635100D01*
X147798453Y-77698600D01*
X147783142Y-77746426D01*
X147782019Y-77765783D01*
X147772984Y-77784635D01*
X147741513Y-77822933D01*
X147713383Y-77860695D01*
X147713700Y-77876400D01*
X147714374Y-77892013D01*
X147688300Y-77927200D01*
X147659547Y-77963941D01*
X147656782Y-77978000D01*
X147653840Y-77998759D01*
X147632510Y-78053391D01*
X147597310Y-78130425D01*
X147594255Y-78136750D01*
X147550794Y-78227596D01*
X147513005Y-78308720D01*
X147490613Y-78359000D01*
X147468961Y-78410407D01*
X147458411Y-78435200D01*
X147446916Y-78466898D01*
X147434884Y-78502701D01*
X147397620Y-78553630D01*
X147341269Y-78574698D01*
X147297584Y-78564044D01*
X147278590Y-78535867D01*
X147251438Y-78476675D01*
X147220933Y-78399792D01*
X147191881Y-78318542D01*
X147169086Y-78246250D01*
X147157354Y-78196241D01*
X147159523Y-78181200D01*
X147157973Y-78165381D01*
X147142200Y-78143100D01*
X147124467Y-78112382D01*
X147129500Y-78105000D01*
X147131784Y-78089372D01*
X147116800Y-78066900D01*
X147097055Y-78036037D01*
X147099309Y-78028800D01*
X147097564Y-78006463D01*
X147081848Y-77946031D01*
X147054934Y-77857367D01*
X147027900Y-77774800D01*
X146994166Y-77670941D01*
X146969463Y-77587606D01*
X146956564Y-77534658D01*
X146956490Y-77520800D01*
X146955460Y-77505232D01*
X146942615Y-77487056D01*
X146913510Y-77433056D01*
X146905160Y-77404506D01*
X146888003Y-77342794D01*
X146869480Y-77292200D01*
X146856066Y-77231518D01*
X146879882Y-77194928D01*
X146945349Y-77178704D01*
X147006021Y-77177189D01*
X147082420Y-77182377D01*
X147127724Y-77201200D01*
X147161505Y-77243575D01*
X147171622Y-77261115D01*
X147198467Y-77313847D01*
X147207546Y-77341699D01*
X147206310Y-77343000D01*
X147207050Y-77364202D01*
X147221956Y-77417548D01*
X147231100Y-77444600D01*
X147249872Y-77506468D01*
X147254882Y-77542473D01*
X147252263Y-77546200D01*
X147252610Y-77561660D01*
X147264584Y-77578738D01*
X147289509Y-77627680D01*
X147304036Y-77679919D01*
X147318987Y-77740637D01*
X147332700Y-77774800D01*
X147349177Y-77818139D01*
X147361402Y-77869896D01*
X147374144Y-77924196D01*
X147384736Y-77949603D01*
X147399216Y-77934920D01*
X147425106Y-77888717D01*
X147454967Y-77826645D01*
X147481360Y-77764357D01*
X147496846Y-77717506D01*
X147497989Y-77711300D01*
X147516326Y-77674325D01*
X147544059Y-77638783D01*
X147574720Y-77597157D01*
X147581654Y-77575283D01*
X147589597Y-77546534D01*
X147615109Y-77483346D01*
X147653516Y-77396955D01*
X147674807Y-77351289D01*
X147732237Y-77239426D01*
X147777728Y-77171245D01*
X147809697Y-77149102D01*
X147810641Y-77149203D01*
G36*
X149321922Y-78129367D02*
X149385925Y-78177277D01*
X149433172Y-78252318D01*
X149449472Y-78346529D01*
X149434571Y-78440077D01*
X149390162Y-78511340D01*
X149311597Y-78555784D01*
X149212778Y-78573912D01*
X149118872Y-78562163D01*
X149096582Y-78552880D01*
X149055384Y-78524089D01*
X149044606Y-78504142D01*
X149032473Y-78471882D01*
X149013013Y-78448185D01*
X148981427Y-78384576D01*
X148984883Y-78305687D01*
X149017186Y-78225898D01*
X149072139Y-78159593D01*
X149143545Y-78121154D01*
X149154957Y-78118736D01*
X149250965Y-78110704D01*
X149321922Y-78129367D01*
X149321922Y-78129367D01*
G37*
X149321922Y-78129367D02*
X149385925Y-78177277D01*
X149433172Y-78252318D01*
X149449472Y-78346529D01*
X149434571Y-78440077D01*
X149390162Y-78511340D01*
X149311597Y-78555784D01*
X149212778Y-78573912D01*
X149118872Y-78562163D01*
X149096582Y-78552880D01*
X149055384Y-78524089D01*
X149044606Y-78504142D01*
X149032473Y-78471882D01*
X149013013Y-78448185D01*
X148981427Y-78384576D01*
X148984883Y-78305687D01*
X149017186Y-78225898D01*
X149072139Y-78159593D01*
X149143545Y-78121154D01*
X149154957Y-78118736D01*
X149250965Y-78110704D01*
X149321922Y-78129367D01*
G36*
X157084779Y-78099540D02*
X157086257Y-78100724D01*
X157107904Y-78115301D01*
X157147220Y-78123285D01*
X157189399Y-78127225D01*
X157215714Y-78142338D01*
X157213300Y-78155800D01*
X157214191Y-78179254D01*
X157222531Y-78181200D01*
X157246207Y-78202812D01*
X157271917Y-78255887D01*
X157275592Y-78266441D01*
X157288089Y-78373609D01*
X157251250Y-78468811D01*
X157206756Y-78518753D01*
X157153905Y-78548825D01*
X157083562Y-78568960D01*
X157014710Y-78576092D01*
X156966332Y-78567154D01*
X156957345Y-78559037D01*
X156926677Y-78548147D01*
X156913094Y-78553157D01*
X156895916Y-78558089D01*
X156900620Y-78550868D01*
X156898422Y-78520492D01*
X156871247Y-78481058D01*
X156818655Y-78399815D01*
X156815270Y-78318345D01*
X156832666Y-78273525D01*
X156853073Y-78224241D01*
X156854648Y-78199315D01*
X156860858Y-78176758D01*
X156904882Y-78146373D01*
X156975976Y-78115248D01*
X156988890Y-78110759D01*
X157048228Y-78096935D01*
X157084779Y-78099540D01*
X157084779Y-78099540D01*
G37*
X157084779Y-78099540D02*
X157086257Y-78100724D01*
X157107904Y-78115301D01*
X157147220Y-78123285D01*
X157189399Y-78127225D01*
X157215714Y-78142338D01*
X157213300Y-78155800D01*
X157214191Y-78179254D01*
X157222531Y-78181200D01*
X157246207Y-78202812D01*
X157271917Y-78255887D01*
X157275592Y-78266441D01*
X157288089Y-78373609D01*
X157251250Y-78468811D01*
X157206756Y-78518753D01*
X157153905Y-78548825D01*
X157083562Y-78568960D01*
X157014710Y-78576092D01*
X156966332Y-78567154D01*
X156957345Y-78559037D01*
X156926677Y-78548147D01*
X156913094Y-78553157D01*
X156895916Y-78558089D01*
X156900620Y-78550868D01*
X156898422Y-78520492D01*
X156871247Y-78481058D01*
X156818655Y-78399815D01*
X156815270Y-78318345D01*
X156832666Y-78273525D01*
X156853073Y-78224241D01*
X156854648Y-78199315D01*
X156860858Y-78176758D01*
X156904882Y-78146373D01*
X156975976Y-78115248D01*
X156988890Y-78110759D01*
X157048228Y-78096935D01*
X157084779Y-78099540D01*
G36*
X158461662Y-77182573D02*
X158470600Y-77185402D01*
X158531280Y-77213539D01*
X158603133Y-77258785D01*
X158675493Y-77312554D01*
X158737693Y-77366263D01*
X158779068Y-77411327D01*
X158788951Y-77439163D01*
X158787787Y-77440678D01*
X158791468Y-77467050D01*
X158806257Y-77489275D01*
X158828013Y-77521095D01*
X158843294Y-77562443D01*
X158855333Y-77626400D01*
X158867365Y-77726047D01*
X158869300Y-77744228D01*
X158874799Y-77808856D01*
X158871779Y-77857512D01*
X158854176Y-77892444D01*
X158815923Y-77915898D01*
X158750956Y-77930122D01*
X158653208Y-77937362D01*
X158516615Y-77939866D01*
X158341120Y-77939894D01*
X157883813Y-77938834D01*
X157899123Y-77999834D01*
X157951962Y-78112242D01*
X158042313Y-78202736D01*
X158158321Y-78261382D01*
X158229302Y-78276523D01*
X158337646Y-78275096D01*
X158449623Y-78252072D01*
X158543196Y-78212875D01*
X158572780Y-78191973D01*
X158601884Y-78173077D01*
X158631100Y-78176776D01*
X158671202Y-78208581D01*
X158732806Y-78273831D01*
X158804512Y-78352955D01*
X158721917Y-78430147D01*
X158641352Y-78487992D01*
X158547849Y-78532305D01*
X158530033Y-78537938D01*
X158429330Y-78558120D01*
X158308942Y-78570999D01*
X158191958Y-78574931D01*
X158102300Y-78568418D01*
X158047278Y-78551250D01*
X157976309Y-78519092D01*
X157898796Y-78477749D01*
X157824142Y-78433021D01*
X157761751Y-78390713D01*
X157721025Y-78356626D01*
X157711368Y-78336563D01*
X157721776Y-78333600D01*
X157721970Y-78317800D01*
X157693763Y-78279468D01*
X157691057Y-78276450D01*
X157631685Y-78180673D01*
X157590007Y-78050736D01*
X157570097Y-77901421D01*
X157569255Y-77834439D01*
X157586096Y-77711808D01*
X157909352Y-77711808D01*
X158228129Y-77711808D01*
X158360012Y-77711390D01*
X158449157Y-77709258D01*
X158503624Y-77704092D01*
X158531473Y-77694573D01*
X158540765Y-77679381D01*
X158540056Y-77660754D01*
X158520098Y-77599818D01*
X158495229Y-77555500D01*
X158450576Y-77510650D01*
X158384725Y-77463426D01*
X158315968Y-77425128D01*
X158262597Y-77407055D01*
X158254700Y-77406919D01*
X158128215Y-77438220D01*
X158022792Y-77501059D01*
X157949402Y-77587409D01*
X157925088Y-77648054D01*
X157909352Y-77711808D01*
X157586096Y-77711808D01*
X157588074Y-77697408D01*
X157633126Y-77556482D01*
X157697097Y-77429231D01*
X157772672Y-77333230D01*
X157781032Y-77325635D01*
X157931095Y-77226979D01*
X158102800Y-77168573D01*
X158283779Y-77152933D01*
X158461662Y-77182573D01*
X158461662Y-77182573D01*
G37*
X158461662Y-77182573D02*
X158470600Y-77185402D01*
X158531280Y-77213539D01*
X158603133Y-77258785D01*
X158675493Y-77312554D01*
X158737693Y-77366263D01*
X158779068Y-77411327D01*
X158788951Y-77439163D01*
X158787787Y-77440678D01*
X158791468Y-77467050D01*
X158806257Y-77489275D01*
X158828013Y-77521095D01*
X158843294Y-77562443D01*
X158855333Y-77626400D01*
X158867365Y-77726047D01*
X158869300Y-77744228D01*
X158874799Y-77808856D01*
X158871779Y-77857512D01*
X158854176Y-77892444D01*
X158815923Y-77915898D01*
X158750956Y-77930122D01*
X158653208Y-77937362D01*
X158516615Y-77939866D01*
X158341120Y-77939894D01*
X157883813Y-77938834D01*
X157899123Y-77999834D01*
X157951962Y-78112242D01*
X158042313Y-78202736D01*
X158158321Y-78261382D01*
X158229302Y-78276523D01*
X158337646Y-78275096D01*
X158449623Y-78252072D01*
X158543196Y-78212875D01*
X158572780Y-78191973D01*
X158601884Y-78173077D01*
X158631100Y-78176776D01*
X158671202Y-78208581D01*
X158732806Y-78273831D01*
X158804512Y-78352955D01*
X158721917Y-78430147D01*
X158641352Y-78487992D01*
X158547849Y-78532305D01*
X158530033Y-78537938D01*
X158429330Y-78558120D01*
X158308942Y-78570999D01*
X158191958Y-78574931D01*
X158102300Y-78568418D01*
X158047278Y-78551250D01*
X157976309Y-78519092D01*
X157898796Y-78477749D01*
X157824142Y-78433021D01*
X157761751Y-78390713D01*
X157721025Y-78356626D01*
X157711368Y-78336563D01*
X157721776Y-78333600D01*
X157721970Y-78317800D01*
X157693763Y-78279468D01*
X157691057Y-78276450D01*
X157631685Y-78180673D01*
X157590007Y-78050736D01*
X157570097Y-77901421D01*
X157569255Y-77834439D01*
X157586096Y-77711808D01*
X157909352Y-77711808D01*
X158228129Y-77711808D01*
X158360012Y-77711390D01*
X158449157Y-77709258D01*
X158503624Y-77704092D01*
X158531473Y-77694573D01*
X158540765Y-77679381D01*
X158540056Y-77660754D01*
X158520098Y-77599818D01*
X158495229Y-77555500D01*
X158450576Y-77510650D01*
X158384725Y-77463426D01*
X158315968Y-77425128D01*
X158262597Y-77407055D01*
X158254700Y-77406919D01*
X158128215Y-77438220D01*
X158022792Y-77501059D01*
X157949402Y-77587409D01*
X157925088Y-77648054D01*
X157909352Y-77711808D01*
X157586096Y-77711808D01*
X157588074Y-77697408D01*
X157633126Y-77556482D01*
X157697097Y-77429231D01*
X157772672Y-77333230D01*
X157781032Y-77325635D01*
X157931095Y-77226979D01*
X158102800Y-77168573D01*
X158283779Y-77152933D01*
X158461662Y-77182573D01*
G36*
X159613600Y-77159375D02*
X159745233Y-77169281D01*
X159862040Y-77193518D01*
X159952030Y-77228657D01*
X160002821Y-77270644D01*
X160009424Y-77324987D01*
X159982356Y-77401950D01*
X159943713Y-77465921D01*
X159900315Y-77492382D01*
X159869785Y-77495400D01*
X159809440Y-77486610D01*
X159776216Y-77470056D01*
X159736596Y-77454573D01*
X159663181Y-77443395D01*
X159572911Y-77438192D01*
X159482722Y-77440637D01*
X159480250Y-77440842D01*
X159446348Y-77464257D01*
X159435931Y-77514225D01*
X159449817Y-77571836D01*
X159473134Y-77605306D01*
X159512471Y-77633194D01*
X159584558Y-77674803D01*
X159676021Y-77722559D01*
X159708084Y-77738333D01*
X159819508Y-77797609D01*
X159918214Y-77859856D01*
X159996194Y-77918937D01*
X160045441Y-77968709D01*
X160057949Y-78003032D01*
X160056697Y-78005669D01*
X160062292Y-78034598D01*
X160070385Y-78041243D01*
X160086163Y-78074357D01*
X160095293Y-78138742D01*
X160096200Y-78168500D01*
X160090781Y-78239875D01*
X160077157Y-78287660D01*
X160070385Y-78295756D01*
X160054114Y-78323653D01*
X160056697Y-78331330D01*
X160047277Y-78359306D01*
X160007902Y-78405128D01*
X159950398Y-78457743D01*
X159886589Y-78506096D01*
X159840303Y-78533617D01*
X159772842Y-78553500D01*
X159674579Y-78567199D01*
X159565281Y-78573368D01*
X159464715Y-78570665D01*
X159410400Y-78562843D01*
X159331939Y-78538233D01*
X159248350Y-78502303D01*
X159175150Y-78462893D01*
X159127856Y-78427844D01*
X159119213Y-78415721D01*
X159123020Y-78363677D01*
X159159347Y-78289114D01*
X159203199Y-78227403D01*
X159229266Y-78201809D01*
X159259222Y-78201156D01*
X159311235Y-78226274D01*
X159323074Y-78232884D01*
X159418013Y-78270589D01*
X159526128Y-78290582D01*
X159627090Y-78290633D01*
X159692039Y-78273361D01*
X159747075Y-78228157D01*
X159752400Y-78173467D01*
X159708169Y-78109499D01*
X159614537Y-78036462D01*
X159471658Y-77954565D01*
X159444857Y-77940962D01*
X159288062Y-77845438D01*
X159180825Y-77740132D01*
X159122702Y-77624220D01*
X159113247Y-77496877D01*
X159142439Y-77380865D01*
X159172229Y-77314272D01*
X159199004Y-77273179D01*
X159209010Y-77266800D01*
X159244046Y-77251773D01*
X159281891Y-77224097D01*
X159330974Y-77191084D01*
X159392514Y-77170882D01*
X159478886Y-77161078D01*
X159602467Y-77159256D01*
X159613600Y-77159375D01*
X159613600Y-77159375D01*
G37*
X159613600Y-77159375D02*
X159745233Y-77169281D01*
X159862040Y-77193518D01*
X159952030Y-77228657D01*
X160002821Y-77270644D01*
X160009424Y-77324987D01*
X159982356Y-77401950D01*
X159943713Y-77465921D01*
X159900315Y-77492382D01*
X159869785Y-77495400D01*
X159809440Y-77486610D01*
X159776216Y-77470056D01*
X159736596Y-77454573D01*
X159663181Y-77443395D01*
X159572911Y-77438192D01*
X159482722Y-77440637D01*
X159480250Y-77440842D01*
X159446348Y-77464257D01*
X159435931Y-77514225D01*
X159449817Y-77571836D01*
X159473134Y-77605306D01*
X159512471Y-77633194D01*
X159584558Y-77674803D01*
X159676021Y-77722559D01*
X159708084Y-77738333D01*
X159819508Y-77797609D01*
X159918214Y-77859856D01*
X159996194Y-77918937D01*
X160045441Y-77968709D01*
X160057949Y-78003032D01*
X160056697Y-78005669D01*
X160062292Y-78034598D01*
X160070385Y-78041243D01*
X160086163Y-78074357D01*
X160095293Y-78138742D01*
X160096200Y-78168500D01*
X160090781Y-78239875D01*
X160077157Y-78287660D01*
X160070385Y-78295756D01*
X160054114Y-78323653D01*
X160056697Y-78331330D01*
X160047277Y-78359306D01*
X160007902Y-78405128D01*
X159950398Y-78457743D01*
X159886589Y-78506096D01*
X159840303Y-78533617D01*
X159772842Y-78553500D01*
X159674579Y-78567199D01*
X159565281Y-78573368D01*
X159464715Y-78570665D01*
X159410400Y-78562843D01*
X159331939Y-78538233D01*
X159248350Y-78502303D01*
X159175150Y-78462893D01*
X159127856Y-78427844D01*
X159119213Y-78415721D01*
X159123020Y-78363677D01*
X159159347Y-78289114D01*
X159203199Y-78227403D01*
X159229266Y-78201809D01*
X159259222Y-78201156D01*
X159311235Y-78226274D01*
X159323074Y-78232884D01*
X159418013Y-78270589D01*
X159526128Y-78290582D01*
X159627090Y-78290633D01*
X159692039Y-78273361D01*
X159747075Y-78228157D01*
X159752400Y-78173467D01*
X159708169Y-78109499D01*
X159614537Y-78036462D01*
X159471658Y-77954565D01*
X159444857Y-77940962D01*
X159288062Y-77845438D01*
X159180825Y-77740132D01*
X159122702Y-77624220D01*
X159113247Y-77496877D01*
X159142439Y-77380865D01*
X159172229Y-77314272D01*
X159199004Y-77273179D01*
X159209010Y-77266800D01*
X159244046Y-77251773D01*
X159281891Y-77224097D01*
X159330974Y-77191084D01*
X159392514Y-77170882D01*
X159478886Y-77161078D01*
X159602467Y-77159256D01*
X159613600Y-77159375D01*
G36*
X150610523Y-76142376D02*
X150725014Y-76163046D01*
X150787100Y-76182442D01*
X150842712Y-76206391D01*
X150866241Y-76221569D01*
X150863300Y-76223999D01*
X150857322Y-76235927D01*
X150870245Y-76246705D01*
X150904932Y-76292904D01*
X150911988Y-76353760D01*
X150888612Y-76403232D01*
X150887205Y-76404440D01*
X150862524Y-76438504D01*
X150863300Y-76453999D01*
X150856629Y-76483825D01*
X150836445Y-76506007D01*
X150803402Y-76522194D01*
X150759425Y-76514442D01*
X150694624Y-76483485D01*
X150572279Y-76437613D01*
X150465107Y-76436213D01*
X150377915Y-76478111D01*
X150315513Y-76562134D01*
X150308862Y-76577607D01*
X150292917Y-76639249D01*
X150280456Y-76728120D01*
X150271849Y-76832244D01*
X150267469Y-76939641D01*
X150267686Y-77038336D01*
X150272872Y-77116350D01*
X150283397Y-77161707D01*
X150290554Y-77168375D01*
X150328115Y-77170489D01*
X150400531Y-77172938D01*
X150488650Y-77175113D01*
X150579848Y-77179418D01*
X150651819Y-77187217D01*
X150687956Y-77196431D01*
X150706186Y-77233452D01*
X150710956Y-77298161D01*
X150703742Y-77369693D01*
X150686019Y-77427180D01*
X150670268Y-77446702D01*
X150628385Y-77457896D01*
X150551806Y-77466083D01*
X150456615Y-77469586D01*
X150450550Y-77469611D01*
X150266400Y-77470000D01*
X150266400Y-77989200D01*
X150265541Y-78178069D01*
X150262777Y-78320976D01*
X150257823Y-78422731D01*
X150250397Y-78488146D01*
X150240215Y-78522033D01*
X150234650Y-78528283D01*
X150184441Y-78543334D01*
X150110493Y-78549421D01*
X150034054Y-78546665D01*
X149976367Y-78535187D01*
X149961687Y-78526727D01*
X149952894Y-78492730D01*
X149945697Y-78413354D01*
X149940351Y-78294002D01*
X149937109Y-78140077D01*
X149936200Y-77985620D01*
X149936200Y-77470000D01*
X149862077Y-77470000D01*
X149776453Y-77463683D01*
X149729589Y-77437339D01*
X149710436Y-77379871D01*
X149707600Y-77314882D01*
X149709156Y-77243923D01*
X149721641Y-77204850D01*
X149756775Y-77187909D01*
X149826282Y-77183349D01*
X149866350Y-77182807D01*
X149936200Y-77181949D01*
X149938403Y-76925924D01*
X149940900Y-76763919D01*
X149945696Y-76645187D01*
X149953555Y-76562224D01*
X149965241Y-76507529D01*
X149981518Y-76473597D01*
X149984913Y-76469214D01*
X150001843Y-76434621D01*
X149999034Y-76423700D01*
X150008891Y-76400766D01*
X150047193Y-76353167D01*
X150104642Y-76292242D01*
X150166090Y-76233756D01*
X150212599Y-76195007D01*
X150233883Y-76184416D01*
X150261365Y-76181774D01*
X150310297Y-76161035D01*
X150385492Y-76140577D01*
X150491458Y-76134622D01*
X150610523Y-76142376D01*
X150610523Y-76142376D01*
G37*
X150610523Y-76142376D02*
X150725014Y-76163046D01*
X150787100Y-76182442D01*
X150842712Y-76206391D01*
X150866241Y-76221569D01*
X150863300Y-76223999D01*
X150857322Y-76235927D01*
X150870245Y-76246705D01*
X150904932Y-76292904D01*
X150911988Y-76353760D01*
X150888612Y-76403232D01*
X150887205Y-76404440D01*
X150862524Y-76438504D01*
X150863300Y-76453999D01*
X150856629Y-76483825D01*
X150836445Y-76506007D01*
X150803402Y-76522194D01*
X150759425Y-76514442D01*
X150694624Y-76483485D01*
X150572279Y-76437613D01*
X150465107Y-76436213D01*
X150377915Y-76478111D01*
X150315513Y-76562134D01*
X150308862Y-76577607D01*
X150292917Y-76639249D01*
X150280456Y-76728120D01*
X150271849Y-76832244D01*
X150267469Y-76939641D01*
X150267686Y-77038336D01*
X150272872Y-77116350D01*
X150283397Y-77161707D01*
X150290554Y-77168375D01*
X150328115Y-77170489D01*
X150400531Y-77172938D01*
X150488650Y-77175113D01*
X150579848Y-77179418D01*
X150651819Y-77187217D01*
X150687956Y-77196431D01*
X150706186Y-77233452D01*
X150710956Y-77298161D01*
X150703742Y-77369693D01*
X150686019Y-77427180D01*
X150670268Y-77446702D01*
X150628385Y-77457896D01*
X150551806Y-77466083D01*
X150456615Y-77469586D01*
X150450550Y-77469611D01*
X150266400Y-77470000D01*
X150266400Y-77989200D01*
X150265541Y-78178069D01*
X150262777Y-78320976D01*
X150257823Y-78422731D01*
X150250397Y-78488146D01*
X150240215Y-78522033D01*
X150234650Y-78528283D01*
X150184441Y-78543334D01*
X150110493Y-78549421D01*
X150034054Y-78546665D01*
X149976367Y-78535187D01*
X149961687Y-78526727D01*
X149952894Y-78492730D01*
X149945697Y-78413354D01*
X149940351Y-78294002D01*
X149937109Y-78140077D01*
X149936200Y-77985620D01*
X149936200Y-77470000D01*
X149862077Y-77470000D01*
X149776453Y-77463683D01*
X149729589Y-77437339D01*
X149710436Y-77379871D01*
X149707600Y-77314882D01*
X149709156Y-77243923D01*
X149721641Y-77204850D01*
X149756775Y-77187909D01*
X149826282Y-77183349D01*
X149866350Y-77182807D01*
X149936200Y-77181949D01*
X149938403Y-76925924D01*
X149940900Y-76763919D01*
X149945696Y-76645187D01*
X149953555Y-76562224D01*
X149965241Y-76507529D01*
X149981518Y-76473597D01*
X149984913Y-76469214D01*
X150001843Y-76434621D01*
X149999034Y-76423700D01*
X150008891Y-76400766D01*
X150047193Y-76353167D01*
X150104642Y-76292242D01*
X150166090Y-76233756D01*
X150212599Y-76195007D01*
X150233883Y-76184416D01*
X150261365Y-76181774D01*
X150310297Y-76161035D01*
X150385492Y-76140577D01*
X150491458Y-76134622D01*
X150610523Y-76142376D01*
G36*
X151777413Y-77167735D02*
X151852794Y-77191999D01*
X151881755Y-77232016D01*
X151880792Y-77248859D01*
X151859612Y-77316041D01*
X151828292Y-77382481D01*
X151797427Y-77426528D01*
X151791552Y-77431187D01*
X151774451Y-77460238D01*
X151777406Y-77469525D01*
X151771985Y-77484735D01*
X151737818Y-77481913D01*
X151701500Y-77466727D01*
X151637056Y-77453839D01*
X151549246Y-77464931D01*
X151455816Y-77494173D01*
X151374515Y-77535731D01*
X151323088Y-77583775D01*
X151318396Y-77592611D01*
X151312067Y-77631177D01*
X151306335Y-77711240D01*
X151301615Y-77823496D01*
X151298321Y-77958643D01*
X151297025Y-78071489D01*
X151295109Y-78215687D01*
X151291453Y-78342023D01*
X151286465Y-78441813D01*
X151280558Y-78506372D01*
X151275493Y-78526772D01*
X151237232Y-78540800D01*
X151170079Y-78547974D01*
X151093068Y-78548341D01*
X151025235Y-78541947D01*
X150985614Y-78528839D01*
X150983124Y-78526059D01*
X150977348Y-78492311D01*
X150972614Y-78416447D01*
X150968924Y-78306915D01*
X150966278Y-78172164D01*
X150964678Y-78020642D01*
X150964127Y-77860798D01*
X150964625Y-77701079D01*
X150966174Y-77549935D01*
X150968775Y-77415814D01*
X150972430Y-77307164D01*
X150977140Y-77232434D01*
X150982887Y-77200100D01*
X151024049Y-77177326D01*
X151083208Y-77178898D01*
X151145680Y-77198792D01*
X151196779Y-77230986D01*
X151221819Y-77269458D01*
X151216587Y-77295941D01*
X151212482Y-77316940D01*
X151242138Y-77307749D01*
X151300214Y-77270604D01*
X151330244Y-77248389D01*
X151390205Y-77205040D01*
X151440852Y-77178911D01*
X151498476Y-77165591D01*
X151579365Y-77160670D01*
X151657220Y-77159865D01*
X151777413Y-77167735D01*
X151777413Y-77167735D01*
G37*
X151777413Y-77167735D02*
X151852794Y-77191999D01*
X151881755Y-77232016D01*
X151880792Y-77248859D01*
X151859612Y-77316041D01*
X151828292Y-77382481D01*
X151797427Y-77426528D01*
X151791552Y-77431187D01*
X151774451Y-77460238D01*
X151777406Y-77469525D01*
X151771985Y-77484735D01*
X151737818Y-77481913D01*
X151701500Y-77466727D01*
X151637056Y-77453839D01*
X151549246Y-77464931D01*
X151455816Y-77494173D01*
X151374515Y-77535731D01*
X151323088Y-77583775D01*
X151318396Y-77592611D01*
X151312067Y-77631177D01*
X151306335Y-77711240D01*
X151301615Y-77823496D01*
X151298321Y-77958643D01*
X151297025Y-78071489D01*
X151295109Y-78215687D01*
X151291453Y-78342023D01*
X151286465Y-78441813D01*
X151280558Y-78506372D01*
X151275493Y-78526772D01*
X151237232Y-78540800D01*
X151170079Y-78547974D01*
X151093068Y-78548341D01*
X151025235Y-78541947D01*
X150985614Y-78528839D01*
X150983124Y-78526059D01*
X150977348Y-78492311D01*
X150972614Y-78416447D01*
X150968924Y-78306915D01*
X150966278Y-78172164D01*
X150964678Y-78020642D01*
X150964127Y-77860798D01*
X150964625Y-77701079D01*
X150966174Y-77549935D01*
X150968775Y-77415814D01*
X150972430Y-77307164D01*
X150977140Y-77232434D01*
X150982887Y-77200100D01*
X151024049Y-77177326D01*
X151083208Y-77178898D01*
X151145680Y-77198792D01*
X151196779Y-77230986D01*
X151221819Y-77269458D01*
X151216587Y-77295941D01*
X151212482Y-77316940D01*
X151242138Y-77307749D01*
X151300214Y-77270604D01*
X151330244Y-77248389D01*
X151390205Y-77205040D01*
X151440852Y-77178911D01*
X151498476Y-77165591D01*
X151579365Y-77160670D01*
X151657220Y-77159865D01*
X151777413Y-77167735D01*
G36*
X152345800Y-77180234D02*
X152402174Y-77190711D01*
X152420162Y-77201913D01*
X152426467Y-77236426D01*
X152431382Y-77312375D01*
X152434953Y-77421487D01*
X152437225Y-77555490D01*
X152438241Y-77706111D01*
X152438048Y-77865077D01*
X152436689Y-78024116D01*
X152434210Y-78174953D01*
X152430656Y-78309317D01*
X152426072Y-78418934D01*
X152420502Y-78495532D01*
X152413991Y-78530838D01*
X152412948Y-78532054D01*
X152365616Y-78545144D01*
X152293590Y-78549722D01*
X152218295Y-78546217D01*
X152161160Y-78535056D01*
X152146087Y-78526727D01*
X152137101Y-78493109D01*
X152129960Y-78417665D01*
X152124627Y-78308747D01*
X152121062Y-78174705D01*
X152119225Y-78023887D01*
X152119077Y-77864646D01*
X152120579Y-77705330D01*
X152123691Y-77554290D01*
X152128373Y-77419876D01*
X152134587Y-77310437D01*
X152142293Y-77234325D01*
X152151452Y-77199888D01*
X152152350Y-77199116D01*
X152201006Y-77184229D01*
X152272116Y-77178004D01*
X152345800Y-77180234D01*
X152345800Y-77180234D01*
G37*
X152345800Y-77180234D02*
X152402174Y-77190711D01*
X152420162Y-77201913D01*
X152426467Y-77236426D01*
X152431382Y-77312375D01*
X152434953Y-77421487D01*
X152437225Y-77555490D01*
X152438241Y-77706111D01*
X152438048Y-77865077D01*
X152436689Y-78024116D01*
X152434210Y-78174953D01*
X152430656Y-78309317D01*
X152426072Y-78418934D01*
X152420502Y-78495532D01*
X152413991Y-78530838D01*
X152412948Y-78532054D01*
X152365616Y-78545144D01*
X152293590Y-78549722D01*
X152218295Y-78546217D01*
X152161160Y-78535056D01*
X152146087Y-78526727D01*
X152137101Y-78493109D01*
X152129960Y-78417665D01*
X152124627Y-78308747D01*
X152121062Y-78174705D01*
X152119225Y-78023887D01*
X152119077Y-77864646D01*
X152120579Y-77705330D01*
X152123691Y-77554290D01*
X152128373Y-77419876D01*
X152134587Y-77310437D01*
X152142293Y-77234325D01*
X152151452Y-77199888D01*
X152152350Y-77199116D01*
X152201006Y-77184229D01*
X152272116Y-77178004D01*
X152345800Y-77180234D01*
G36*
X153537206Y-77179606D02*
X153649408Y-77182966D01*
X153734536Y-77188163D01*
X153782858Y-77195251D01*
X153788387Y-77197530D01*
X153806804Y-77215334D01*
X153810649Y-77242232D01*
X153797076Y-77285480D01*
X153763241Y-77352331D01*
X153706298Y-77450042D01*
X153658507Y-77528703D01*
X153625700Y-77584557D01*
X153607803Y-77619396D01*
X153606864Y-77622400D01*
X153592952Y-77649070D01*
X153559406Y-77703997D01*
X153530300Y-77749400D01*
X153488436Y-77815349D01*
X153460645Y-77862428D01*
X153454100Y-77876400D01*
X153440531Y-77903311D01*
X153407755Y-77957988D01*
X153383406Y-77996545D01*
X153343550Y-78062817D01*
X153318623Y-78112374D01*
X153314400Y-78126785D01*
X153297000Y-78160337D01*
X153276300Y-78181200D01*
X153244807Y-78214777D01*
X153248831Y-78237316D01*
X153292593Y-78250648D01*
X153380316Y-78256604D01*
X153452022Y-78257400D01*
X153555543Y-78259160D01*
X153642405Y-78263842D01*
X153697769Y-78270545D01*
X153706022Y-78272817D01*
X153729744Y-78303874D01*
X153743975Y-78363472D01*
X153748154Y-78433812D01*
X153741718Y-78497092D01*
X153724107Y-78535510D01*
X153714450Y-78539879D01*
X153679513Y-78541108D01*
X153602880Y-78542561D01*
X153493654Y-78544106D01*
X153360938Y-78545608D01*
X153253099Y-78546615D01*
X153078646Y-78546882D01*
X152949955Y-78544098D01*
X152862059Y-78537960D01*
X152809996Y-78528166D01*
X152791810Y-78518581D01*
X152771765Y-78467028D01*
X152785676Y-78403798D01*
X152821844Y-78356721D01*
X152852432Y-78316234D01*
X152857200Y-78297179D01*
X152873210Y-78258209D01*
X152908989Y-78211389D01*
X152939970Y-78172802D01*
X152943758Y-78155836D01*
X152943152Y-78155800D01*
X152944652Y-78140093D01*
X152971500Y-78105000D01*
X152999476Y-78068330D01*
X153000653Y-78054200D01*
X153005018Y-78035544D01*
X153033109Y-77986923D01*
X153073100Y-77927200D01*
X153117668Y-77861053D01*
X153144940Y-77815116D01*
X153149300Y-77800200D01*
X153155646Y-77781488D01*
X153185187Y-77732736D01*
X153225500Y-77673200D01*
X153269592Y-77607124D01*
X153295749Y-77561194D01*
X153298773Y-77546200D01*
X153297962Y-77530806D01*
X153309728Y-77513728D01*
X153313449Y-77497909D01*
X153287868Y-77488324D01*
X153225928Y-77483872D01*
X153120574Y-77483453D01*
X153115988Y-77483498D01*
X152981598Y-77482629D01*
X152890009Y-77474391D01*
X152833361Y-77455167D01*
X152803795Y-77421340D01*
X152793450Y-77369291D01*
X152793038Y-77334860D01*
X152797924Y-77262251D01*
X152807671Y-77211007D01*
X152811203Y-77202958D01*
X152840430Y-77194978D01*
X152910706Y-77188456D01*
X153012299Y-77183445D01*
X153135477Y-77180001D01*
X153270509Y-77178177D01*
X153407663Y-77178027D01*
X153537206Y-77179606D01*
X153537206Y-77179606D01*
G37*
X153537206Y-77179606D02*
X153649408Y-77182966D01*
X153734536Y-77188163D01*
X153782858Y-77195251D01*
X153788387Y-77197530D01*
X153806804Y-77215334D01*
X153810649Y-77242232D01*
X153797076Y-77285480D01*
X153763241Y-77352331D01*
X153706298Y-77450042D01*
X153658507Y-77528703D01*
X153625700Y-77584557D01*
X153607803Y-77619396D01*
X153606864Y-77622400D01*
X153592952Y-77649070D01*
X153559406Y-77703997D01*
X153530300Y-77749400D01*
X153488436Y-77815349D01*
X153460645Y-77862428D01*
X153454100Y-77876400D01*
X153440531Y-77903311D01*
X153407755Y-77957988D01*
X153383406Y-77996545D01*
X153343550Y-78062817D01*
X153318623Y-78112374D01*
X153314400Y-78126785D01*
X153297000Y-78160337D01*
X153276300Y-78181200D01*
X153244807Y-78214777D01*
X153248831Y-78237316D01*
X153292593Y-78250648D01*
X153380316Y-78256604D01*
X153452022Y-78257400D01*
X153555543Y-78259160D01*
X153642405Y-78263842D01*
X153697769Y-78270545D01*
X153706022Y-78272817D01*
X153729744Y-78303874D01*
X153743975Y-78363472D01*
X153748154Y-78433812D01*
X153741718Y-78497092D01*
X153724107Y-78535510D01*
X153714450Y-78539879D01*
X153679513Y-78541108D01*
X153602880Y-78542561D01*
X153493654Y-78544106D01*
X153360938Y-78545608D01*
X153253099Y-78546615D01*
X153078646Y-78546882D01*
X152949955Y-78544098D01*
X152862059Y-78537960D01*
X152809996Y-78528166D01*
X152791810Y-78518581D01*
X152771765Y-78467028D01*
X152785676Y-78403798D01*
X152821844Y-78356721D01*
X152852432Y-78316234D01*
X152857200Y-78297179D01*
X152873210Y-78258209D01*
X152908989Y-78211389D01*
X152939970Y-78172802D01*
X152943758Y-78155836D01*
X152943152Y-78155800D01*
X152944652Y-78140093D01*
X152971500Y-78105000D01*
X152999476Y-78068330D01*
X153000653Y-78054200D01*
X153005018Y-78035544D01*
X153033109Y-77986923D01*
X153073100Y-77927200D01*
X153117668Y-77861053D01*
X153144940Y-77815116D01*
X153149300Y-77800200D01*
X153155646Y-77781488D01*
X153185187Y-77732736D01*
X153225500Y-77673200D01*
X153269592Y-77607124D01*
X153295749Y-77561194D01*
X153298773Y-77546200D01*
X153297962Y-77530806D01*
X153309728Y-77513728D01*
X153313449Y-77497909D01*
X153287868Y-77488324D01*
X153225928Y-77483872D01*
X153120574Y-77483453D01*
X153115988Y-77483498D01*
X152981598Y-77482629D01*
X152890009Y-77474391D01*
X152833361Y-77455167D01*
X152803795Y-77421340D01*
X152793450Y-77369291D01*
X152793038Y-77334860D01*
X152797924Y-77262251D01*
X152807671Y-77211007D01*
X152811203Y-77202958D01*
X152840430Y-77194978D01*
X152910706Y-77188456D01*
X153012299Y-77183445D01*
X153135477Y-77180001D01*
X153270509Y-77178177D01*
X153407663Y-77178027D01*
X153537206Y-77179606D01*
G36*
X154720938Y-77178313D02*
X154859249Y-77181790D01*
X154956131Y-77190198D01*
X155016261Y-77205410D01*
X155044317Y-77229300D01*
X155044977Y-77263741D01*
X155022920Y-77310607D01*
X154990977Y-77359897D01*
X154951847Y-77422191D01*
X154930848Y-77465658D01*
X154929994Y-77476928D01*
X154922827Y-77499616D01*
X154902513Y-77520290D01*
X154870231Y-77557334D01*
X154863800Y-77575214D01*
X154851040Y-77608247D01*
X154818508Y-77667134D01*
X154794793Y-77705454D01*
X154754854Y-77769480D01*
X154729112Y-77814256D01*
X154724100Y-77825600D01*
X154710634Y-77852724D01*
X154678381Y-77907128D01*
X154657900Y-77939900D01*
X154615222Y-78009045D01*
X154582893Y-78064831D01*
X154575198Y-78079600D01*
X154549094Y-78129942D01*
X154520643Y-78181200D01*
X154484278Y-78244700D01*
X154976864Y-78270100D01*
X154978868Y-78392318D01*
X154974905Y-78467354D01*
X154962572Y-78519592D01*
X154954086Y-78531534D01*
X154917655Y-78538985D01*
X154841840Y-78544407D01*
X154736719Y-78547879D01*
X154612367Y-78549476D01*
X154478862Y-78549277D01*
X154346280Y-78547356D01*
X154224697Y-78543792D01*
X154124191Y-78538662D01*
X154054839Y-78532042D01*
X154027001Y-78524460D01*
X154013028Y-78472221D01*
X154028256Y-78412774D01*
X154055661Y-78380981D01*
X154073157Y-78362706D01*
X154066113Y-78359388D01*
X154064064Y-78343469D01*
X154091348Y-78305716D01*
X154091513Y-78305533D01*
X154125831Y-78261532D01*
X154137239Y-78235683D01*
X154148271Y-78206444D01*
X154179290Y-78150819D01*
X154199896Y-78117700D01*
X154238646Y-78055482D01*
X154262950Y-78012751D01*
X154266900Y-78003400D01*
X154280603Y-77976736D01*
X154314008Y-77921823D01*
X154343100Y-77876400D01*
X154384963Y-77810450D01*
X154412754Y-77763371D01*
X154419300Y-77749400D01*
X154432874Y-77722356D01*
X154465423Y-77668105D01*
X154486303Y-77635100D01*
X154525815Y-77569771D01*
X154551058Y-77520711D01*
X154555310Y-77508100D01*
X154533220Y-77495648D01*
X154467774Y-77486965D01*
X154366332Y-77482897D01*
X154334303Y-77482700D01*
X154206368Y-77478795D01*
X154116149Y-77467608D01*
X154071533Y-77451100D01*
X154049686Y-77407540D01*
X154038946Y-77337067D01*
X154040226Y-77262536D01*
X154054442Y-77206804D01*
X154061369Y-77197164D01*
X154091485Y-77191263D01*
X154163951Y-77186041D01*
X154270319Y-77181839D01*
X154402139Y-77179001D01*
X154536518Y-77177893D01*
X154720938Y-77178313D01*
X154720938Y-77178313D01*
G37*
X154720938Y-77178313D02*
X154859249Y-77181790D01*
X154956131Y-77190198D01*
X155016261Y-77205410D01*
X155044317Y-77229300D01*
X155044977Y-77263741D01*
X155022920Y-77310607D01*
X154990977Y-77359897D01*
X154951847Y-77422191D01*
X154930848Y-77465658D01*
X154929994Y-77476928D01*
X154922827Y-77499616D01*
X154902513Y-77520290D01*
X154870231Y-77557334D01*
X154863800Y-77575214D01*
X154851040Y-77608247D01*
X154818508Y-77667134D01*
X154794793Y-77705454D01*
X154754854Y-77769480D01*
X154729112Y-77814256D01*
X154724100Y-77825600D01*
X154710634Y-77852724D01*
X154678381Y-77907128D01*
X154657900Y-77939900D01*
X154615222Y-78009045D01*
X154582893Y-78064831D01*
X154575198Y-78079600D01*
X154549094Y-78129942D01*
X154520643Y-78181200D01*
X154484278Y-78244700D01*
X154976864Y-78270100D01*
X154978868Y-78392318D01*
X154974905Y-78467354D01*
X154962572Y-78519592D01*
X154954086Y-78531534D01*
X154917655Y-78538985D01*
X154841840Y-78544407D01*
X154736719Y-78547879D01*
X154612367Y-78549476D01*
X154478862Y-78549277D01*
X154346280Y-78547356D01*
X154224697Y-78543792D01*
X154124191Y-78538662D01*
X154054839Y-78532042D01*
X154027001Y-78524460D01*
X154013028Y-78472221D01*
X154028256Y-78412774D01*
X154055661Y-78380981D01*
X154073157Y-78362706D01*
X154066113Y-78359388D01*
X154064064Y-78343469D01*
X154091348Y-78305716D01*
X154091513Y-78305533D01*
X154125831Y-78261532D01*
X154137239Y-78235683D01*
X154148271Y-78206444D01*
X154179290Y-78150819D01*
X154199896Y-78117700D01*
X154238646Y-78055482D01*
X154262950Y-78012751D01*
X154266900Y-78003400D01*
X154280603Y-77976736D01*
X154314008Y-77921823D01*
X154343100Y-77876400D01*
X154384963Y-77810450D01*
X154412754Y-77763371D01*
X154419300Y-77749400D01*
X154432874Y-77722356D01*
X154465423Y-77668105D01*
X154486303Y-77635100D01*
X154525815Y-77569771D01*
X154551058Y-77520711D01*
X154555310Y-77508100D01*
X154533220Y-77495648D01*
X154467774Y-77486965D01*
X154366332Y-77482897D01*
X154334303Y-77482700D01*
X154206368Y-77478795D01*
X154116149Y-77467608D01*
X154071533Y-77451100D01*
X154049686Y-77407540D01*
X154038946Y-77337067D01*
X154040226Y-77262536D01*
X154054442Y-77206804D01*
X154061369Y-77197164D01*
X154091485Y-77191263D01*
X154163951Y-77186041D01*
X154270319Y-77181839D01*
X154402139Y-77179001D01*
X154536518Y-77177893D01*
X154720938Y-77178313D01*
G36*
X152306867Y-76235630D02*
X152391069Y-76263742D01*
X152440634Y-76316713D01*
X152466937Y-76406765D01*
X152467104Y-76407794D01*
X152459061Y-76491195D01*
X152414544Y-76560296D01*
X152346027Y-76608733D01*
X152265981Y-76630146D01*
X152186879Y-76618171D01*
X152131485Y-76578995D01*
X152102776Y-76525119D01*
X152085014Y-76451708D01*
X152084450Y-76446463D01*
X152087360Y-76373832D01*
X152120232Y-76315777D01*
X152147273Y-76287680D01*
X152204993Y-76242179D01*
X152260066Y-76229881D01*
X152306867Y-76235630D01*
X152306867Y-76235630D01*
G37*
X152306867Y-76235630D02*
X152391069Y-76263742D01*
X152440634Y-76316713D01*
X152466937Y-76406765D01*
X152467104Y-76407794D01*
X152459061Y-76491195D01*
X152414544Y-76560296D01*
X152346027Y-76608733D01*
X152265981Y-76630146D01*
X152186879Y-76618171D01*
X152131485Y-76578995D01*
X152102776Y-76525119D01*
X152085014Y-76451708D01*
X152084450Y-76446463D01*
X152087360Y-76373832D01*
X152120232Y-76315777D01*
X152147273Y-76287680D01*
X152204993Y-76242179D01*
X152260066Y-76229881D01*
X152306867Y-76235630D01*
D14*
X115934000Y-69252000D02*
X115934000Y-69702000D01*
X114084000Y-69252000D02*
X115934000Y-69252000D01*
X111534000Y-77052000D02*
X111784000Y-77052000D01*
X111534000Y-69252000D02*
X111784000Y-69252000D01*
X114084000Y-77052000D02*
X115934000Y-77052000D01*
X115934000Y-77052000D02*
X115934000Y-76602000D01*
X116484000Y-71452000D02*
X116484000Y-71902000D01*
X116484000Y-71452000D02*
X116034000Y-71452000D01*
D10*
X129794143Y-97035857D02*
X129841762Y-97083476D01*
X129889381Y-97226333D01*
X129889381Y-97321571D01*
X129841762Y-97464429D01*
X129746524Y-97559667D01*
X129651286Y-97607286D01*
X129460810Y-97654905D01*
X129317952Y-97654905D01*
X129127476Y-97607286D01*
X129032238Y-97559667D01*
X128937000Y-97464429D01*
X128889381Y-97321571D01*
X128889381Y-97226333D01*
X128937000Y-97083476D01*
X128984619Y-97035857D01*
X129889381Y-96083476D02*
X129889381Y-96654905D01*
X129889381Y-96369191D02*
X128889381Y-96369191D01*
X129032238Y-96464429D01*
X129127476Y-96559667D01*
X129175095Y-96654905D01*
X128889381Y-95226333D02*
X128889381Y-95416810D01*
X128937000Y-95512048D01*
X128984619Y-95559667D01*
X129127476Y-95654905D01*
X129317952Y-95702524D01*
X129698905Y-95702524D01*
X129794143Y-95654905D01*
X129841762Y-95607286D01*
X129889381Y-95512048D01*
X129889381Y-95321571D01*
X129841762Y-95226333D01*
X129794143Y-95178714D01*
X129698905Y-95131095D01*
X129460810Y-95131095D01*
X129365571Y-95178714D01*
X129317952Y-95226333D01*
X129270333Y-95321571D01*
X129270333Y-95512048D01*
X129317952Y-95607286D01*
X129365571Y-95654905D01*
X129460810Y-95702524D01*
M02*
