%TF.GenerationSoftware,KiCad,Pcbnew,4.0.7*%
%TF.CreationDate,2018-07-15T20:27:14+02:00*%
%TF.ProjectId,Grape,47726170652E6B696361645F70636200,rev?*%
%TF.FileFunction,Legend,Top*%
%FSLAX46Y46*%
G04 Gerber Fmt 4.6, Leading zero omitted, Abs format (unit mm)*
G04 Created by KiCad (PCBNEW 4.0.7) date 07/15/18 20:27:14*
%MOMM*%
%LPD*%
G01*
G04 APERTURE LIST*
%ADD10C,0.150000*%
%ADD11C,0.127000*%
%ADD12C,0.100000*%
%ADD13C,0.200000*%
%ADD14C,0.120000*%
%ADD15C,0.203200*%
%ADD16C,0.010000*%
G04 APERTURE END LIST*
D10*
D11*
X35052000Y-4675143D02*
X35099619Y-4722762D01*
X35052000Y-4770381D01*
X35004381Y-4722762D01*
X35052000Y-4675143D01*
X35052000Y-4770381D01*
X37846000Y-4675143D02*
X37893619Y-4722762D01*
X37846000Y-4770381D01*
X37798381Y-4722762D01*
X37846000Y-4675143D01*
X37846000Y-4770381D01*
X39878000Y-4675143D02*
X39925619Y-4722762D01*
X39878000Y-4770381D01*
X39830381Y-4722762D01*
X39878000Y-4675143D01*
X39878000Y-4770381D01*
X49022000Y-4675143D02*
X49069619Y-4722762D01*
X49022000Y-4770381D01*
X48974381Y-4722762D01*
X49022000Y-4675143D01*
X49022000Y-4770381D01*
X51562000Y-4675143D02*
X51609619Y-4722762D01*
X51562000Y-4770381D01*
X51514381Y-4722762D01*
X51562000Y-4675143D01*
X51562000Y-4770381D01*
X56642000Y-4675143D02*
X56689619Y-4722762D01*
X56642000Y-4770381D01*
X56594381Y-4722762D01*
X56642000Y-4675143D01*
X56642000Y-4770381D01*
X56515000Y-14327143D02*
X56562619Y-14374762D01*
X56515000Y-14422381D01*
X56467381Y-14374762D01*
X56515000Y-14327143D01*
X56515000Y-14422381D01*
X51435000Y-14327143D02*
X51482619Y-14374762D01*
X51435000Y-14422381D01*
X51387381Y-14374762D01*
X51435000Y-14327143D01*
X51435000Y-14422381D01*
X48895000Y-14327143D02*
X48942619Y-14374762D01*
X48895000Y-14422381D01*
X48847381Y-14374762D01*
X48895000Y-14327143D01*
X48895000Y-14422381D01*
X41275000Y-14327143D02*
X41322619Y-14374762D01*
X41275000Y-14422381D01*
X41227381Y-14374762D01*
X41275000Y-14327143D01*
X41275000Y-14422381D01*
X39243000Y-14327143D02*
X39290619Y-14374762D01*
X39243000Y-14422381D01*
X39195381Y-14374762D01*
X39243000Y-14327143D01*
X39243000Y-14422381D01*
X36449000Y-14327143D02*
X36496619Y-14374762D01*
X36449000Y-14422381D01*
X36401381Y-14374762D01*
X36449000Y-14327143D01*
X36449000Y-14422381D01*
X44751762Y-48093381D02*
X45085095Y-49093381D01*
X45418429Y-48093381D01*
X45751762Y-49093381D02*
X45751762Y-48093381D01*
X46227952Y-49093381D02*
X46227952Y-48093381D01*
X46799381Y-49093381D01*
X46799381Y-48093381D01*
X41275096Y-48141000D02*
X41179858Y-48093381D01*
X41037001Y-48093381D01*
X40894143Y-48141000D01*
X40798905Y-48236238D01*
X40751286Y-48331476D01*
X40703667Y-48521952D01*
X40703667Y-48664810D01*
X40751286Y-48855286D01*
X40798905Y-48950524D01*
X40894143Y-49045762D01*
X41037001Y-49093381D01*
X41132239Y-49093381D01*
X41275096Y-49045762D01*
X41322715Y-48998143D01*
X41322715Y-48664810D01*
X41132239Y-48664810D01*
X41751286Y-49093381D02*
X41751286Y-48093381D01*
X42322715Y-49093381D01*
X42322715Y-48093381D01*
X42798905Y-49093381D02*
X42798905Y-48093381D01*
X43037000Y-48093381D01*
X43179858Y-48141000D01*
X43275096Y-48236238D01*
X43322715Y-48331476D01*
X43370334Y-48521952D01*
X43370334Y-48664810D01*
X43322715Y-48855286D01*
X43275096Y-48950524D01*
X43179858Y-49045762D01*
X43037000Y-49093381D01*
X42798905Y-49093381D01*
X37679381Y-48831476D02*
X37679381Y-49307667D01*
X38155571Y-49355286D01*
X38107952Y-49307667D01*
X38060333Y-49212429D01*
X38060333Y-48974333D01*
X38107952Y-48879095D01*
X38155571Y-48831476D01*
X38250810Y-48783857D01*
X38488905Y-48783857D01*
X38584143Y-48831476D01*
X38631762Y-48879095D01*
X38679381Y-48974333D01*
X38679381Y-49212429D01*
X38631762Y-49307667D01*
X38584143Y-49355286D01*
X37679381Y-48498143D02*
X38679381Y-48164810D01*
X37679381Y-47831476D01*
X35139381Y-49371095D02*
X35139381Y-48752047D01*
X35520333Y-49085381D01*
X35520333Y-48942523D01*
X35567952Y-48847285D01*
X35615571Y-48799666D01*
X35710810Y-48752047D01*
X35948905Y-48752047D01*
X36044143Y-48799666D01*
X36091762Y-48847285D01*
X36139381Y-48942523D01*
X36139381Y-49228238D01*
X36091762Y-49323476D01*
X36044143Y-49371095D01*
X35139381Y-48466333D02*
X36139381Y-48133000D01*
X35139381Y-47799666D01*
X35139381Y-47561571D02*
X35139381Y-46942523D01*
X35520333Y-47275857D01*
X35520333Y-47132999D01*
X35567952Y-47037761D01*
X35615571Y-46990142D01*
X35710810Y-46942523D01*
X35948905Y-46942523D01*
X36044143Y-46990142D01*
X36091762Y-47037761D01*
X36139381Y-47132999D01*
X36139381Y-47418714D01*
X36091762Y-47513952D01*
X36044143Y-47561571D01*
X33599381Y-49077381D02*
X33123190Y-49410715D01*
X33599381Y-49648810D02*
X32599381Y-49648810D01*
X32599381Y-49267857D01*
X32647000Y-49172619D01*
X32694619Y-49125000D01*
X32789857Y-49077381D01*
X32932714Y-49077381D01*
X33027952Y-49125000D01*
X33075571Y-49172619D01*
X33123190Y-49267857D01*
X33123190Y-49648810D01*
X33075571Y-48648810D02*
X33075571Y-48315476D01*
X33599381Y-48172619D02*
X33599381Y-48648810D01*
X32599381Y-48648810D01*
X32599381Y-48172619D01*
X33551762Y-47791667D02*
X33599381Y-47648810D01*
X33599381Y-47410714D01*
X33551762Y-47315476D01*
X33504143Y-47267857D01*
X33408905Y-47220238D01*
X33313667Y-47220238D01*
X33218429Y-47267857D01*
X33170810Y-47315476D01*
X33123190Y-47410714D01*
X33075571Y-47601191D01*
X33027952Y-47696429D01*
X32980333Y-47744048D01*
X32885095Y-47791667D01*
X32789857Y-47791667D01*
X32694619Y-47744048D01*
X32647000Y-47696429D01*
X32599381Y-47601191D01*
X32599381Y-47363095D01*
X32647000Y-47220238D01*
X33075571Y-46791667D02*
X33075571Y-46458333D01*
X33599381Y-46315476D02*
X33599381Y-46791667D01*
X32599381Y-46791667D01*
X32599381Y-46315476D01*
X32599381Y-46029762D02*
X32599381Y-45458333D01*
X33599381Y-45744048D02*
X32599381Y-45744048D01*
X31059381Y-49529762D02*
X30059381Y-49529762D01*
X30059381Y-48863096D02*
X30059381Y-48672619D01*
X30107000Y-48577381D01*
X30202238Y-48482143D01*
X30392714Y-48434524D01*
X30726048Y-48434524D01*
X30916524Y-48482143D01*
X31011762Y-48577381D01*
X31059381Y-48672619D01*
X31059381Y-48863096D01*
X31011762Y-48958334D01*
X30916524Y-49053572D01*
X30726048Y-49101191D01*
X30392714Y-49101191D01*
X30202238Y-49053572D01*
X30107000Y-48958334D01*
X30059381Y-48863096D01*
X31059381Y-47434524D02*
X30583190Y-47767858D01*
X31059381Y-48005953D02*
X30059381Y-48005953D01*
X30059381Y-47625000D01*
X30107000Y-47529762D01*
X30154619Y-47482143D01*
X30249857Y-47434524D01*
X30392714Y-47434524D01*
X30487952Y-47482143D01*
X30535571Y-47529762D01*
X30583190Y-47625000D01*
X30583190Y-48005953D01*
X30535571Y-47005953D02*
X30535571Y-46672619D01*
X31059381Y-46529762D02*
X31059381Y-47005953D01*
X30059381Y-47005953D01*
X30059381Y-46529762D01*
X30535571Y-45767857D02*
X30535571Y-46101191D01*
X31059381Y-46101191D02*
X30059381Y-46101191D01*
X30059381Y-45625000D01*
X19327762Y-6905476D02*
X19375381Y-6762619D01*
X19375381Y-6524523D01*
X19327762Y-6429285D01*
X19280143Y-6381666D01*
X19184905Y-6334047D01*
X19089667Y-6334047D01*
X18994429Y-6381666D01*
X18946810Y-6429285D01*
X18899190Y-6524523D01*
X18851571Y-6715000D01*
X18803952Y-6810238D01*
X18756333Y-6857857D01*
X18661095Y-6905476D01*
X18565857Y-6905476D01*
X18470619Y-6857857D01*
X18423000Y-6810238D01*
X18375381Y-6715000D01*
X18375381Y-6476904D01*
X18423000Y-6334047D01*
X19280143Y-5334047D02*
X19327762Y-5381666D01*
X19375381Y-5524523D01*
X19375381Y-5619761D01*
X19327762Y-5762619D01*
X19232524Y-5857857D01*
X19137286Y-5905476D01*
X18946810Y-5953095D01*
X18803952Y-5953095D01*
X18613476Y-5905476D01*
X18518238Y-5857857D01*
X18423000Y-5762619D01*
X18375381Y-5619761D01*
X18375381Y-5524523D01*
X18423000Y-5381666D01*
X18470619Y-5334047D01*
X19375381Y-4429285D02*
X19375381Y-4905476D01*
X18375381Y-4905476D01*
X21867762Y-6929286D02*
X21915381Y-6786429D01*
X21915381Y-6548333D01*
X21867762Y-6453095D01*
X21820143Y-6405476D01*
X21724905Y-6357857D01*
X21629667Y-6357857D01*
X21534429Y-6405476D01*
X21486810Y-6453095D01*
X21439190Y-6548333D01*
X21391571Y-6738810D01*
X21343952Y-6834048D01*
X21296333Y-6881667D01*
X21201095Y-6929286D01*
X21105857Y-6929286D01*
X21010619Y-6881667D01*
X20963000Y-6834048D01*
X20915381Y-6738810D01*
X20915381Y-6500714D01*
X20963000Y-6357857D01*
X21915381Y-5929286D02*
X20915381Y-5929286D01*
X20915381Y-5691191D01*
X20963000Y-5548333D01*
X21058238Y-5453095D01*
X21153476Y-5405476D01*
X21343952Y-5357857D01*
X21486810Y-5357857D01*
X21677286Y-5405476D01*
X21772524Y-5453095D01*
X21867762Y-5548333D01*
X21915381Y-5691191D01*
X21915381Y-5929286D01*
X21629667Y-4976905D02*
X21629667Y-4500714D01*
X21915381Y-5072143D02*
X20915381Y-4738810D01*
X21915381Y-4405476D01*
X24169667Y-7334048D02*
X24169667Y-6857857D01*
X24455381Y-7429286D02*
X23455381Y-7095953D01*
X24455381Y-6762619D01*
X24455381Y-5857857D02*
X23979190Y-6191191D01*
X24455381Y-6429286D02*
X23455381Y-6429286D01*
X23455381Y-6048333D01*
X23503000Y-5953095D01*
X23550619Y-5905476D01*
X23645857Y-5857857D01*
X23788714Y-5857857D01*
X23883952Y-5905476D01*
X23931571Y-5953095D01*
X23979190Y-6048333D01*
X23979190Y-6429286D01*
X23931571Y-5429286D02*
X23931571Y-5095952D01*
X24455381Y-4953095D02*
X24455381Y-5429286D01*
X23455381Y-5429286D01*
X23455381Y-4953095D01*
X23931571Y-4191190D02*
X23931571Y-4524524D01*
X24455381Y-4524524D02*
X23455381Y-4524524D01*
X23455381Y-4048333D01*
X26043000Y-6222904D02*
X25995381Y-6318142D01*
X25995381Y-6460999D01*
X26043000Y-6603857D01*
X26138238Y-6699095D01*
X26233476Y-6746714D01*
X26423952Y-6794333D01*
X26566810Y-6794333D01*
X26757286Y-6746714D01*
X26852524Y-6699095D01*
X26947762Y-6603857D01*
X26995381Y-6460999D01*
X26995381Y-6365761D01*
X26947762Y-6222904D01*
X26900143Y-6175285D01*
X26566810Y-6175285D01*
X26566810Y-6365761D01*
X26995381Y-5746714D02*
X25995381Y-5746714D01*
X26995381Y-5175285D01*
X25995381Y-5175285D01*
X26995381Y-4699095D02*
X25995381Y-4699095D01*
X25995381Y-4461000D01*
X26043000Y-4318142D01*
X26138238Y-4222904D01*
X26233476Y-4175285D01*
X26423952Y-4127666D01*
X26566810Y-4127666D01*
X26757286Y-4175285D01*
X26852524Y-4222904D01*
X26947762Y-4318142D01*
X26995381Y-4461000D01*
X26995381Y-4699095D01*
D12*
X64559667Y-4925190D02*
X64393000Y-4687095D01*
X64273953Y-4925190D02*
X64273953Y-4425190D01*
X64464429Y-4425190D01*
X64512048Y-4449000D01*
X64535857Y-4472810D01*
X64559667Y-4520429D01*
X64559667Y-4591857D01*
X64535857Y-4639476D01*
X64512048Y-4663286D01*
X64464429Y-4687095D01*
X64273953Y-4687095D01*
X64726334Y-4425190D02*
X65059667Y-4925190D01*
X65059667Y-4425190D02*
X64726334Y-4925190D01*
D11*
X63579381Y-4151381D02*
X63674620Y-4151381D01*
X63769858Y-4199000D01*
X63817477Y-4246619D01*
X63865096Y-4341857D01*
X63912715Y-4532333D01*
X63912715Y-4770429D01*
X63865096Y-4960905D01*
X63817477Y-5056143D01*
X63769858Y-5103762D01*
X63674620Y-5151381D01*
X63579381Y-5151381D01*
X63484143Y-5103762D01*
X63436524Y-5056143D01*
X63388905Y-4960905D01*
X63341286Y-4770429D01*
X63341286Y-4532333D01*
X63388905Y-4341857D01*
X63436524Y-4246619D01*
X63484143Y-4199000D01*
X63579381Y-4151381D01*
D12*
X61468048Y-4425190D02*
X61753762Y-4425190D01*
X61610905Y-4925190D02*
X61610905Y-4425190D01*
X61872810Y-4425190D02*
X62206143Y-4925190D01*
X62206143Y-4425190D02*
X61872810Y-4925190D01*
D11*
X61372715Y-5151381D02*
X60801286Y-5151381D01*
X61087000Y-5151381D02*
X61087000Y-4151381D01*
X60991762Y-4294238D01*
X60896524Y-4389476D01*
X60801286Y-4437095D01*
X58261286Y-4246619D02*
X58308905Y-4199000D01*
X58404143Y-4151381D01*
X58642239Y-4151381D01*
X58737477Y-4199000D01*
X58785096Y-4246619D01*
X58832715Y-4341857D01*
X58832715Y-4437095D01*
X58785096Y-4579952D01*
X58213667Y-5151381D01*
X58832715Y-5151381D01*
X55673667Y-4151381D02*
X56292715Y-4151381D01*
X55959381Y-4532333D01*
X56102239Y-4532333D01*
X56197477Y-4579952D01*
X56245096Y-4627571D01*
X56292715Y-4722810D01*
X56292715Y-4960905D01*
X56245096Y-5056143D01*
X56197477Y-5103762D01*
X56102239Y-5151381D01*
X55816524Y-5151381D01*
X55721286Y-5103762D01*
X55673667Y-5056143D01*
X53657477Y-4484714D02*
X53657477Y-5151381D01*
X53419381Y-4103762D02*
X53181286Y-4818048D01*
X53800334Y-4818048D01*
X51165096Y-4151381D02*
X50688905Y-4151381D01*
X50641286Y-4627571D01*
X50688905Y-4579952D01*
X50784143Y-4532333D01*
X51022239Y-4532333D01*
X51117477Y-4579952D01*
X51165096Y-4627571D01*
X51212715Y-4722810D01*
X51212715Y-4960905D01*
X51165096Y-5056143D01*
X51117477Y-5103762D01*
X51022239Y-5151381D01*
X50784143Y-5151381D01*
X50688905Y-5103762D01*
X50641286Y-5056143D01*
X48577477Y-4151381D02*
X48387000Y-4151381D01*
X48291762Y-4199000D01*
X48244143Y-4246619D01*
X48148905Y-4389476D01*
X48101286Y-4579952D01*
X48101286Y-4960905D01*
X48148905Y-5056143D01*
X48196524Y-5103762D01*
X48291762Y-5151381D01*
X48482239Y-5151381D01*
X48577477Y-5103762D01*
X48625096Y-5056143D01*
X48672715Y-4960905D01*
X48672715Y-4722810D01*
X48625096Y-4627571D01*
X48577477Y-4579952D01*
X48482239Y-4532333D01*
X48291762Y-4532333D01*
X48196524Y-4579952D01*
X48148905Y-4627571D01*
X48101286Y-4722810D01*
X45513667Y-4151381D02*
X46180334Y-4151381D01*
X45751762Y-5151381D01*
X41687762Y-4579952D02*
X41592524Y-4532333D01*
X41544905Y-4484714D01*
X41497286Y-4389476D01*
X41497286Y-4341857D01*
X41544905Y-4246619D01*
X41592524Y-4199000D01*
X41687762Y-4151381D01*
X41878239Y-4151381D01*
X41973477Y-4199000D01*
X42021096Y-4246619D01*
X42068715Y-4341857D01*
X42068715Y-4389476D01*
X42021096Y-4484714D01*
X41973477Y-4532333D01*
X41878239Y-4579952D01*
X41687762Y-4579952D01*
X41592524Y-4627571D01*
X41544905Y-4675190D01*
X41497286Y-4770429D01*
X41497286Y-4960905D01*
X41544905Y-5056143D01*
X41592524Y-5103762D01*
X41687762Y-5151381D01*
X41878239Y-5151381D01*
X41973477Y-5103762D01*
X42021096Y-5056143D01*
X42068715Y-4960905D01*
X42068715Y-4770429D01*
X42021096Y-4675190D01*
X41973477Y-4627571D01*
X41878239Y-4579952D01*
X39052524Y-5151381D02*
X39243000Y-5151381D01*
X39338239Y-5103762D01*
X39385858Y-5056143D01*
X39481096Y-4913286D01*
X39528715Y-4722810D01*
X39528715Y-4341857D01*
X39481096Y-4246619D01*
X39433477Y-4199000D01*
X39338239Y-4151381D01*
X39147762Y-4151381D01*
X39052524Y-4199000D01*
X39004905Y-4246619D01*
X38957286Y-4341857D01*
X38957286Y-4579952D01*
X39004905Y-4675190D01*
X39052524Y-4722810D01*
X39147762Y-4770429D01*
X39338239Y-4770429D01*
X39433477Y-4722810D01*
X39481096Y-4675190D01*
X39528715Y-4579952D01*
X36512524Y-5151381D02*
X35941095Y-5151381D01*
X36226809Y-5151381D02*
X36226809Y-4151381D01*
X36131571Y-4294238D01*
X36036333Y-4389476D01*
X35941095Y-4437095D01*
X37131571Y-4151381D02*
X37226810Y-4151381D01*
X37322048Y-4199000D01*
X37369667Y-4246619D01*
X37417286Y-4341857D01*
X37464905Y-4532333D01*
X37464905Y-4770429D01*
X37417286Y-4960905D01*
X37369667Y-5056143D01*
X37322048Y-5103762D01*
X37226810Y-5151381D01*
X37131571Y-5151381D01*
X37036333Y-5103762D01*
X36988714Y-5056143D01*
X36941095Y-4960905D01*
X36893476Y-4770429D01*
X36893476Y-4532333D01*
X36941095Y-4341857D01*
X36988714Y-4246619D01*
X37036333Y-4199000D01*
X37131571Y-4151381D01*
X33972524Y-5151381D02*
X33401095Y-5151381D01*
X33686809Y-5151381D02*
X33686809Y-4151381D01*
X33591571Y-4294238D01*
X33496333Y-4389476D01*
X33401095Y-4437095D01*
X34924905Y-5151381D02*
X34353476Y-5151381D01*
X34639190Y-5151381D02*
X34639190Y-4151381D01*
X34543952Y-4294238D01*
X34448714Y-4389476D01*
X34353476Y-4437095D01*
X31432524Y-5151381D02*
X30861095Y-5151381D01*
X31146809Y-5151381D02*
X31146809Y-4151381D01*
X31051571Y-4294238D01*
X30956333Y-4389476D01*
X30861095Y-4437095D01*
X31813476Y-4246619D02*
X31861095Y-4199000D01*
X31956333Y-4151381D01*
X32194429Y-4151381D01*
X32289667Y-4199000D01*
X32337286Y-4246619D01*
X32384905Y-4341857D01*
X32384905Y-4437095D01*
X32337286Y-4579952D01*
X31765857Y-5151381D01*
X32384905Y-5151381D01*
X28892524Y-5151381D02*
X28321095Y-5151381D01*
X28606809Y-5151381D02*
X28606809Y-4151381D01*
X28511571Y-4294238D01*
X28416333Y-4389476D01*
X28321095Y-4437095D01*
X29225857Y-4151381D02*
X29844905Y-4151381D01*
X29511571Y-4532333D01*
X29654429Y-4532333D01*
X29749667Y-4579952D01*
X29797286Y-4627571D01*
X29844905Y-4722810D01*
X29844905Y-4960905D01*
X29797286Y-5056143D01*
X29749667Y-5103762D01*
X29654429Y-5151381D01*
X29368714Y-5151381D01*
X29273476Y-5103762D01*
X29225857Y-5056143D01*
D12*
X64432667Y-14704190D02*
X64266000Y-14466095D01*
X64146953Y-14704190D02*
X64146953Y-14204190D01*
X64337429Y-14204190D01*
X64385048Y-14228000D01*
X64408857Y-14251810D01*
X64432667Y-14299429D01*
X64432667Y-14370857D01*
X64408857Y-14418476D01*
X64385048Y-14442286D01*
X64337429Y-14466095D01*
X64146953Y-14466095D01*
X64599334Y-14204190D02*
X64932667Y-14704190D01*
X64932667Y-14204190D02*
X64599334Y-14704190D01*
X61468048Y-14204190D02*
X61753762Y-14204190D01*
X61610905Y-14704190D02*
X61610905Y-14204190D01*
X61872810Y-14204190D02*
X62206143Y-14704190D01*
X62206143Y-14204190D02*
X61872810Y-14704190D01*
D11*
X63452381Y-13866881D02*
X63547620Y-13866881D01*
X63642858Y-13914500D01*
X63690477Y-13962119D01*
X63738096Y-14057357D01*
X63785715Y-14247833D01*
X63785715Y-14485929D01*
X63738096Y-14676405D01*
X63690477Y-14771643D01*
X63642858Y-14819262D01*
X63547620Y-14866881D01*
X63452381Y-14866881D01*
X63357143Y-14819262D01*
X63309524Y-14771643D01*
X63261905Y-14676405D01*
X63214286Y-14485929D01*
X63214286Y-14247833D01*
X63261905Y-14057357D01*
X63309524Y-13962119D01*
X63357143Y-13914500D01*
X63452381Y-13866881D01*
X61245715Y-14866881D02*
X60674286Y-14866881D01*
X60960000Y-14866881D02*
X60960000Y-13866881D01*
X60864762Y-14009738D01*
X60769524Y-14104976D01*
X60674286Y-14152595D01*
X26830428Y-11256929D02*
X26830428Y-10656929D01*
X26973285Y-10656929D01*
X27059000Y-10685500D01*
X27116142Y-10742643D01*
X27144714Y-10799786D01*
X27173285Y-10914071D01*
X27173285Y-10999786D01*
X27144714Y-11114071D01*
X27116142Y-11171214D01*
X27059000Y-11228357D01*
X26973285Y-11256929D01*
X26830428Y-11256929D01*
X27744714Y-11256929D02*
X27401857Y-11256929D01*
X27573285Y-11256929D02*
X27573285Y-10656929D01*
X27516142Y-10742643D01*
X27459000Y-10799786D01*
X27401857Y-10828357D01*
X27944714Y-10656929D02*
X28316143Y-10656929D01*
X28116143Y-10885500D01*
X28201857Y-10885500D01*
X28259000Y-10914071D01*
X28287571Y-10942643D01*
X28316143Y-10999786D01*
X28316143Y-11142643D01*
X28287571Y-11199786D01*
X28259000Y-11228357D01*
X28201857Y-11256929D01*
X28030429Y-11256929D01*
X27973286Y-11228357D01*
X27944714Y-11199786D01*
X23649000Y-16146429D02*
X23449000Y-15860714D01*
X23306143Y-16146429D02*
X23306143Y-15546429D01*
X23534715Y-15546429D01*
X23591857Y-15575000D01*
X23620429Y-15603571D01*
X23649000Y-15660714D01*
X23649000Y-15746429D01*
X23620429Y-15803571D01*
X23591857Y-15832143D01*
X23534715Y-15860714D01*
X23306143Y-15860714D01*
X23849000Y-15546429D02*
X24249000Y-16146429D01*
X24249000Y-15546429D02*
X23849000Y-16146429D01*
X23291857Y-10847429D02*
X23634714Y-10847429D01*
X23463285Y-11447429D02*
X23463285Y-10847429D01*
X23777571Y-10847429D02*
X24177571Y-11447429D01*
X24177571Y-10847429D02*
X23777571Y-11447429D01*
X58304286Y-19384929D02*
X58304286Y-18784929D01*
X58532858Y-18784929D01*
X58590000Y-18813500D01*
X58618572Y-18842071D01*
X58647143Y-18899214D01*
X58647143Y-18984929D01*
X58618572Y-19042071D01*
X58590000Y-19070643D01*
X58532858Y-19099214D01*
X58304286Y-19099214D01*
X59018572Y-18784929D02*
X59132858Y-18784929D01*
X59190000Y-18813500D01*
X59247143Y-18870643D01*
X59275715Y-18984929D01*
X59275715Y-19184929D01*
X59247143Y-19299214D01*
X59190000Y-19356357D01*
X59132858Y-19384929D01*
X59018572Y-19384929D01*
X58961429Y-19356357D01*
X58904286Y-19299214D01*
X58875715Y-19184929D01*
X58875715Y-18984929D01*
X58904286Y-18870643D01*
X58961429Y-18813500D01*
X59018572Y-18784929D01*
X59475714Y-18784929D02*
X59618571Y-19384929D01*
X59732857Y-18956357D01*
X59847143Y-19384929D01*
X59990000Y-18784929D01*
X60218571Y-19070643D02*
X60418571Y-19070643D01*
X60504285Y-19384929D02*
X60218571Y-19384929D01*
X60218571Y-18784929D01*
X60504285Y-18784929D01*
X61104285Y-19384929D02*
X60904285Y-19099214D01*
X60761428Y-19384929D02*
X60761428Y-18784929D01*
X60990000Y-18784929D01*
X61047142Y-18813500D01*
X61075714Y-18842071D01*
X61104285Y-18899214D01*
X61104285Y-18984929D01*
X61075714Y-19042071D01*
X61047142Y-19070643D01*
X60990000Y-19099214D01*
X60761428Y-19099214D01*
X63793667Y-49482286D02*
X63793667Y-49006095D01*
X64079381Y-49577524D02*
X63079381Y-49244191D01*
X64079381Y-48910857D01*
X63079381Y-48101333D02*
X63079381Y-48577524D01*
X63555571Y-48625143D01*
X63507952Y-48577524D01*
X63460333Y-48482286D01*
X63460333Y-48244190D01*
X63507952Y-48148952D01*
X63555571Y-48101333D01*
X63650810Y-48053714D01*
X63888905Y-48053714D01*
X63984143Y-48101333D01*
X64031762Y-48148952D01*
X64079381Y-48244190D01*
X64079381Y-48482286D01*
X64031762Y-48577524D01*
X63984143Y-48625143D01*
X61253667Y-49482286D02*
X61253667Y-49006095D01*
X61539381Y-49577524D02*
X60539381Y-49244191D01*
X61539381Y-48910857D01*
X60872714Y-48148952D02*
X61539381Y-48148952D01*
X60491762Y-48387048D02*
X61206048Y-48625143D01*
X61206048Y-48006095D01*
X58713667Y-49482286D02*
X58713667Y-49006095D01*
X58999381Y-49577524D02*
X57999381Y-49244191D01*
X58999381Y-48910857D01*
X57999381Y-48672762D02*
X57999381Y-48053714D01*
X58380333Y-48387048D01*
X58380333Y-48244190D01*
X58427952Y-48148952D01*
X58475571Y-48101333D01*
X58570810Y-48053714D01*
X58808905Y-48053714D01*
X58904143Y-48101333D01*
X58951762Y-48148952D01*
X58999381Y-48244190D01*
X58999381Y-48529905D01*
X58951762Y-48625143D01*
X58904143Y-48672762D01*
X56173667Y-49482286D02*
X56173667Y-49006095D01*
X56459381Y-49577524D02*
X55459381Y-49244191D01*
X56459381Y-48910857D01*
X55554619Y-48625143D02*
X55507000Y-48577524D01*
X55459381Y-48482286D01*
X55459381Y-48244190D01*
X55507000Y-48148952D01*
X55554619Y-48101333D01*
X55649857Y-48053714D01*
X55745095Y-48053714D01*
X55887952Y-48101333D01*
X56459381Y-48672762D01*
X56459381Y-48053714D01*
X53633667Y-49482286D02*
X53633667Y-49006095D01*
X53919381Y-49577524D02*
X52919381Y-49244191D01*
X53919381Y-48910857D01*
X53919381Y-48053714D02*
X53919381Y-48625143D01*
X53919381Y-48339429D02*
X52919381Y-48339429D01*
X53062238Y-48434667D01*
X53157476Y-48529905D01*
X53205095Y-48625143D01*
X51093667Y-49482286D02*
X51093667Y-49006095D01*
X51379381Y-49577524D02*
X50379381Y-49244191D01*
X51379381Y-48910857D01*
X50379381Y-48387048D02*
X50379381Y-48291809D01*
X50427000Y-48196571D01*
X50474619Y-48148952D01*
X50569857Y-48101333D01*
X50760333Y-48053714D01*
X50998429Y-48053714D01*
X51188905Y-48101333D01*
X51284143Y-48148952D01*
X51331762Y-48196571D01*
X51379381Y-48291809D01*
X51379381Y-48387048D01*
X51331762Y-48482286D01*
X51284143Y-48529905D01*
X51188905Y-48577524D01*
X50998429Y-48625143D01*
X50760333Y-48625143D01*
X50569857Y-48577524D01*
X50474619Y-48529905D01*
X50427000Y-48482286D01*
X50379381Y-48387048D01*
D13*
X62293500Y-21796286D02*
X62388739Y-21891524D01*
X62293500Y-21986762D01*
X62198262Y-21891524D01*
X62293500Y-21796286D01*
X62293500Y-21986762D01*
D11*
X58134286Y-13962119D02*
X58181905Y-13914500D01*
X58277143Y-13866881D01*
X58515239Y-13866881D01*
X58610477Y-13914500D01*
X58658096Y-13962119D01*
X58705715Y-14057357D01*
X58705715Y-14152595D01*
X58658096Y-14295452D01*
X58086667Y-14866881D01*
X58705715Y-14866881D01*
X55546667Y-13866881D02*
X56165715Y-13866881D01*
X55832381Y-14247833D01*
X55975239Y-14247833D01*
X56070477Y-14295452D01*
X56118096Y-14343071D01*
X56165715Y-14438310D01*
X56165715Y-14676405D01*
X56118096Y-14771643D01*
X56070477Y-14819262D01*
X55975239Y-14866881D01*
X55689524Y-14866881D01*
X55594286Y-14819262D01*
X55546667Y-14771643D01*
X53530477Y-14200214D02*
X53530477Y-14866881D01*
X53292381Y-13819262D02*
X53054286Y-14533548D01*
X53673334Y-14533548D01*
X51038096Y-13866881D02*
X50561905Y-13866881D01*
X50514286Y-14343071D01*
X50561905Y-14295452D01*
X50657143Y-14247833D01*
X50895239Y-14247833D01*
X50990477Y-14295452D01*
X51038096Y-14343071D01*
X51085715Y-14438310D01*
X51085715Y-14676405D01*
X51038096Y-14771643D01*
X50990477Y-14819262D01*
X50895239Y-14866881D01*
X50657143Y-14866881D01*
X50561905Y-14819262D01*
X50514286Y-14771643D01*
X48450477Y-13866881D02*
X48260000Y-13866881D01*
X48164762Y-13914500D01*
X48117143Y-13962119D01*
X48021905Y-14104976D01*
X47974286Y-14295452D01*
X47974286Y-14676405D01*
X48021905Y-14771643D01*
X48069524Y-14819262D01*
X48164762Y-14866881D01*
X48355239Y-14866881D01*
X48450477Y-14819262D01*
X48498096Y-14771643D01*
X48545715Y-14676405D01*
X48545715Y-14438310D01*
X48498096Y-14343071D01*
X48450477Y-14295452D01*
X48355239Y-14247833D01*
X48164762Y-14247833D01*
X48069524Y-14295452D01*
X48021905Y-14343071D01*
X47974286Y-14438310D01*
X45386667Y-13866881D02*
X46053334Y-13866881D01*
X45624762Y-14866881D01*
X43084762Y-14295452D02*
X42989524Y-14247833D01*
X42941905Y-14200214D01*
X42894286Y-14104976D01*
X42894286Y-14057357D01*
X42941905Y-13962119D01*
X42989524Y-13914500D01*
X43084762Y-13866881D01*
X43275239Y-13866881D01*
X43370477Y-13914500D01*
X43418096Y-13962119D01*
X43465715Y-14057357D01*
X43465715Y-14104976D01*
X43418096Y-14200214D01*
X43370477Y-14247833D01*
X43275239Y-14295452D01*
X43084762Y-14295452D01*
X42989524Y-14343071D01*
X42941905Y-14390690D01*
X42894286Y-14485929D01*
X42894286Y-14676405D01*
X42941905Y-14771643D01*
X42989524Y-14819262D01*
X43084762Y-14866881D01*
X43275239Y-14866881D01*
X43370477Y-14819262D01*
X43418096Y-14771643D01*
X43465715Y-14676405D01*
X43465715Y-14485929D01*
X43418096Y-14390690D01*
X43370477Y-14343071D01*
X43275239Y-14295452D01*
X40449524Y-14866881D02*
X40640000Y-14866881D01*
X40735239Y-14819262D01*
X40782858Y-14771643D01*
X40878096Y-14628786D01*
X40925715Y-14438310D01*
X40925715Y-14057357D01*
X40878096Y-13962119D01*
X40830477Y-13914500D01*
X40735239Y-13866881D01*
X40544762Y-13866881D01*
X40449524Y-13914500D01*
X40401905Y-13962119D01*
X40354286Y-14057357D01*
X40354286Y-14295452D01*
X40401905Y-14390690D01*
X40449524Y-14438310D01*
X40544762Y-14485929D01*
X40735239Y-14485929D01*
X40830477Y-14438310D01*
X40878096Y-14390690D01*
X40925715Y-14295452D01*
X37909524Y-14866881D02*
X37338095Y-14866881D01*
X37623809Y-14866881D02*
X37623809Y-13866881D01*
X37528571Y-14009738D01*
X37433333Y-14104976D01*
X37338095Y-14152595D01*
X38528571Y-13866881D02*
X38623810Y-13866881D01*
X38719048Y-13914500D01*
X38766667Y-13962119D01*
X38814286Y-14057357D01*
X38861905Y-14247833D01*
X38861905Y-14485929D01*
X38814286Y-14676405D01*
X38766667Y-14771643D01*
X38719048Y-14819262D01*
X38623810Y-14866881D01*
X38528571Y-14866881D01*
X38433333Y-14819262D01*
X38385714Y-14771643D01*
X38338095Y-14676405D01*
X38290476Y-14485929D01*
X38290476Y-14247833D01*
X38338095Y-14057357D01*
X38385714Y-13962119D01*
X38433333Y-13914500D01*
X38528571Y-13866881D01*
X35369524Y-14866881D02*
X34798095Y-14866881D01*
X35083809Y-14866881D02*
X35083809Y-13866881D01*
X34988571Y-14009738D01*
X34893333Y-14104976D01*
X34798095Y-14152595D01*
X36321905Y-14866881D02*
X35750476Y-14866881D01*
X36036190Y-14866881D02*
X36036190Y-13866881D01*
X35940952Y-14009738D01*
X35845714Y-14104976D01*
X35750476Y-14152595D01*
X32829524Y-14866881D02*
X32258095Y-14866881D01*
X32543809Y-14866881D02*
X32543809Y-13866881D01*
X32448571Y-14009738D01*
X32353333Y-14104976D01*
X32258095Y-14152595D01*
X33210476Y-13962119D02*
X33258095Y-13914500D01*
X33353333Y-13866881D01*
X33591429Y-13866881D01*
X33686667Y-13914500D01*
X33734286Y-13962119D01*
X33781905Y-14057357D01*
X33781905Y-14152595D01*
X33734286Y-14295452D01*
X33162857Y-14866881D01*
X33781905Y-14866881D01*
X30289524Y-14866881D02*
X29718095Y-14866881D01*
X30003809Y-14866881D02*
X30003809Y-13866881D01*
X29908571Y-14009738D01*
X29813333Y-14104976D01*
X29718095Y-14152595D01*
X30622857Y-13866881D02*
X31241905Y-13866881D01*
X30908571Y-14247833D01*
X31051429Y-14247833D01*
X31146667Y-14295452D01*
X31194286Y-14343071D01*
X31241905Y-14438310D01*
X31241905Y-14676405D01*
X31194286Y-14771643D01*
X31146667Y-14819262D01*
X31051429Y-14866881D01*
X30765714Y-14866881D01*
X30670476Y-14819262D01*
X30622857Y-14771643D01*
X58975714Y-38647667D02*
X59451905Y-38647667D01*
X58880476Y-38933381D02*
X59213809Y-37933381D01*
X59547143Y-38933381D01*
X59785238Y-37933381D02*
X60451905Y-37933381D01*
X60023333Y-38933381D01*
X56435714Y-38647667D02*
X56911905Y-38647667D01*
X56340476Y-38933381D02*
X56673809Y-37933381D01*
X57007143Y-38933381D01*
X57769048Y-37933381D02*
X57578571Y-37933381D01*
X57483333Y-37981000D01*
X57435714Y-38028619D01*
X57340476Y-38171476D01*
X57292857Y-38361952D01*
X57292857Y-38742905D01*
X57340476Y-38838143D01*
X57388095Y-38885762D01*
X57483333Y-38933381D01*
X57673810Y-38933381D01*
X57769048Y-38885762D01*
X57816667Y-38838143D01*
X57864286Y-38742905D01*
X57864286Y-38504810D01*
X57816667Y-38409571D01*
X57769048Y-38361952D01*
X57673810Y-38314333D01*
X57483333Y-38314333D01*
X57388095Y-38361952D01*
X57340476Y-38409571D01*
X57292857Y-38504810D01*
X53895714Y-38647667D02*
X54371905Y-38647667D01*
X53800476Y-38933381D02*
X54133809Y-37933381D01*
X54467143Y-38933381D01*
X55276667Y-37933381D02*
X54800476Y-37933381D01*
X54752857Y-38409571D01*
X54800476Y-38361952D01*
X54895714Y-38314333D01*
X55133810Y-38314333D01*
X55229048Y-38361952D01*
X55276667Y-38409571D01*
X55324286Y-38504810D01*
X55324286Y-38742905D01*
X55276667Y-38838143D01*
X55229048Y-38885762D01*
X55133810Y-38933381D01*
X54895714Y-38933381D01*
X54800476Y-38885762D01*
X54752857Y-38838143D01*
X51355714Y-38647667D02*
X51831905Y-38647667D01*
X51260476Y-38933381D02*
X51593809Y-37933381D01*
X51927143Y-38933381D01*
X52689048Y-38266714D02*
X52689048Y-38933381D01*
X52450952Y-37885762D02*
X52212857Y-38600048D01*
X52831905Y-38600048D01*
X48815714Y-38647667D02*
X49291905Y-38647667D01*
X48720476Y-38933381D02*
X49053809Y-37933381D01*
X49387143Y-38933381D01*
X49625238Y-37933381D02*
X50244286Y-37933381D01*
X49910952Y-38314333D01*
X50053810Y-38314333D01*
X50149048Y-38361952D01*
X50196667Y-38409571D01*
X50244286Y-38504810D01*
X50244286Y-38742905D01*
X50196667Y-38838143D01*
X50149048Y-38885762D01*
X50053810Y-38933381D01*
X49768095Y-38933381D01*
X49672857Y-38885762D01*
X49625238Y-38838143D01*
X46275714Y-38647667D02*
X46751905Y-38647667D01*
X46180476Y-38933381D02*
X46513809Y-37933381D01*
X46847143Y-38933381D01*
X47132857Y-38028619D02*
X47180476Y-37981000D01*
X47275714Y-37933381D01*
X47513810Y-37933381D01*
X47609048Y-37981000D01*
X47656667Y-38028619D01*
X47704286Y-38123857D01*
X47704286Y-38219095D01*
X47656667Y-38361952D01*
X47085238Y-38933381D01*
X47704286Y-38933381D01*
X43735714Y-38647667D02*
X44211905Y-38647667D01*
X43640476Y-38933381D02*
X43973809Y-37933381D01*
X44307143Y-38933381D01*
X45164286Y-38933381D02*
X44592857Y-38933381D01*
X44878571Y-38933381D02*
X44878571Y-37933381D01*
X44783333Y-38076238D01*
X44688095Y-38171476D01*
X44592857Y-38219095D01*
X41195714Y-38711167D02*
X41671905Y-38711167D01*
X41100476Y-38996881D02*
X41433809Y-37996881D01*
X41767143Y-38996881D01*
X42290952Y-37996881D02*
X42386191Y-37996881D01*
X42481429Y-38044500D01*
X42529048Y-38092119D01*
X42576667Y-38187357D01*
X42624286Y-38377833D01*
X42624286Y-38615929D01*
X42576667Y-38806405D01*
X42529048Y-38901643D01*
X42481429Y-38949262D01*
X42386191Y-38996881D01*
X42290952Y-38996881D01*
X42195714Y-38949262D01*
X42148095Y-38901643D01*
X42100476Y-38806405D01*
X42052857Y-38615929D01*
X42052857Y-38377833D01*
X42100476Y-38187357D01*
X42148095Y-38092119D01*
X42195714Y-38044500D01*
X42290952Y-37996881D01*
D14*
X16645000Y-9359000D02*
X17645000Y-9359000D01*
X17645000Y-7659000D02*
X16645000Y-7659000D01*
X6739000Y-16979000D02*
X7739000Y-16979000D01*
X7739000Y-15279000D02*
X6739000Y-15279000D01*
X9127000Y-24291000D02*
X4877000Y-24291000D01*
X9127000Y-22191000D02*
X4877000Y-22191000D01*
X9127000Y-24291000D02*
X9127000Y-22191000D01*
X7739000Y-8929000D02*
X6739000Y-8929000D01*
X6739000Y-10629000D02*
X7739000Y-10629000D01*
X38196000Y-39843000D02*
X37496000Y-39843000D01*
X37496000Y-38643000D02*
X38196000Y-38643000D01*
X27655000Y-20539000D02*
X26955000Y-20539000D01*
X26955000Y-19339000D02*
X27655000Y-19339000D01*
X32129000Y-45591000D02*
X32129000Y-43411000D01*
X32129000Y-38991000D02*
X32129000Y-41171000D01*
X25529000Y-44831000D02*
X25529000Y-43411000D01*
X25529000Y-39751000D02*
X25529000Y-41171000D01*
X32129000Y-45591000D02*
X26289000Y-45591000D01*
X26289000Y-45591000D02*
X25529000Y-44831000D01*
X25529000Y-39751000D02*
X26289000Y-38991000D01*
X26289000Y-38991000D02*
X32129000Y-38991000D01*
X34409000Y-29884000D02*
X33409000Y-29884000D01*
X33409000Y-31584000D02*
X34409000Y-31584000D01*
X11559000Y-37336000D02*
X13739000Y-37336000D01*
X18159000Y-37336000D02*
X15979000Y-37336000D01*
X12319000Y-30736000D02*
X13739000Y-30736000D01*
X17399000Y-30736000D02*
X15979000Y-30736000D01*
X11559000Y-37336000D02*
X11559000Y-31496000D01*
X11559000Y-31496000D02*
X12319000Y-30736000D01*
X17399000Y-30736000D02*
X18159000Y-31496000D01*
X18159000Y-31496000D02*
X18159000Y-37336000D01*
X34409000Y-27979000D02*
X33409000Y-27979000D01*
X33409000Y-29679000D02*
X34409000Y-29679000D01*
X34409000Y-24169000D02*
X33409000Y-24169000D01*
X33409000Y-25869000D02*
X34409000Y-25869000D01*
X38196000Y-46574000D02*
X37496000Y-46574000D01*
X37496000Y-45374000D02*
X38196000Y-45374000D01*
X38196000Y-44288000D02*
X37496000Y-44288000D01*
X37496000Y-43088000D02*
X38196000Y-43088000D01*
X38196000Y-42129000D02*
X37496000Y-42129000D01*
X37496000Y-40929000D02*
X38196000Y-40929000D01*
X34409000Y-34329000D02*
X33409000Y-34329000D01*
X33409000Y-36029000D02*
X34409000Y-36029000D01*
X18454000Y-35060000D02*
X18454000Y-36060000D01*
X20154000Y-36060000D02*
X20154000Y-35060000D01*
X11041000Y-13374000D02*
X10041000Y-13374000D01*
X10041000Y-15074000D02*
X11041000Y-15074000D01*
X11041000Y-10834000D02*
X10041000Y-10834000D01*
X10041000Y-12534000D02*
X11041000Y-12534000D01*
X14105000Y-29298000D02*
X15105000Y-29298000D01*
X15105000Y-27598000D02*
X14105000Y-27598000D01*
X13454000Y-17184000D02*
X12454000Y-17184000D01*
X12454000Y-18884000D02*
X13454000Y-18884000D01*
X13835000Y-38774000D02*
X12835000Y-38774000D01*
X12835000Y-40474000D02*
X13835000Y-40474000D01*
X11782000Y-29082000D02*
X11782000Y-25782000D01*
X11782000Y-25782000D02*
X6382000Y-25782000D01*
X11782000Y-29082000D02*
X6382000Y-29082000D01*
X28059000Y-7590000D02*
X27059000Y-7590000D01*
X27059000Y-7590000D02*
X27059000Y-9690000D01*
X28059000Y-7590000D02*
X28059000Y-9690000D01*
X60990000Y-21074000D02*
X60990000Y-20074000D01*
X60990000Y-20074000D02*
X58890000Y-20074000D01*
X60990000Y-21074000D02*
X58890000Y-21074000D01*
X7445000Y-17805000D02*
X3985000Y-17805000D01*
X7445000Y-21565000D02*
X3985000Y-21565000D01*
X1661000Y-40939000D02*
X1661000Y-49739000D01*
X5461000Y-49739000D02*
X-2239000Y-49739000D01*
X-2239000Y-49739000D02*
X-2239000Y-40939000D01*
X-2239000Y-40939000D02*
X-2039000Y-40939000D01*
X11361000Y-47889000D02*
X11361000Y-49739000D01*
X11361000Y-49739000D02*
X10511000Y-49739000D01*
X-2139000Y-40939000D02*
X11361000Y-40939000D01*
X11361000Y-40939000D02*
X11361000Y-42789000D01*
X19793000Y-45964000D02*
X20593000Y-45964000D01*
X19793000Y-38364000D02*
X20643000Y-38364000D01*
X34509000Y-33900000D02*
X33309000Y-33900000D01*
X33309000Y-32140000D02*
X34509000Y-32140000D01*
X21695000Y-11873000D02*
X21695000Y-13273000D01*
X21695000Y-13273000D02*
X24495000Y-13273000D01*
X21695000Y-11873000D02*
X24495000Y-11873000D01*
X21695000Y-13778000D02*
X21695000Y-15178000D01*
X21695000Y-15178000D02*
X24495000Y-15178000D01*
X21695000Y-13778000D02*
X24495000Y-13778000D01*
X64830000Y-5909000D02*
X62170000Y-5909000D01*
X64830000Y-11049000D02*
X64830000Y-5909000D01*
X62170000Y-11049000D02*
X62170000Y-5909000D01*
X64830000Y-11049000D02*
X62170000Y-11049000D01*
X64830000Y-12319000D02*
X64830000Y-13649000D01*
X64830000Y-13649000D02*
X63500000Y-13649000D01*
X52130000Y-5909000D02*
X49470000Y-5909000D01*
X52130000Y-11049000D02*
X52130000Y-5909000D01*
X49470000Y-11049000D02*
X49470000Y-5909000D01*
X52130000Y-11049000D02*
X49470000Y-11049000D01*
X52130000Y-12319000D02*
X52130000Y-13649000D01*
X52130000Y-13649000D02*
X50800000Y-13649000D01*
X39430000Y-5909000D02*
X36770000Y-5909000D01*
X39430000Y-11049000D02*
X39430000Y-5909000D01*
X36770000Y-11049000D02*
X36770000Y-5909000D01*
X39430000Y-11049000D02*
X36770000Y-11049000D01*
X39430000Y-12319000D02*
X39430000Y-13649000D01*
X39430000Y-13649000D02*
X38100000Y-13649000D01*
X40580000Y-47304000D02*
X43240000Y-47304000D01*
X40580000Y-42164000D02*
X40580000Y-47304000D01*
X43240000Y-42164000D02*
X43240000Y-47304000D01*
X40580000Y-42164000D02*
X43240000Y-42164000D01*
X40580000Y-40894000D02*
X40580000Y-39564000D01*
X40580000Y-39564000D02*
X41910000Y-39564000D01*
X58360000Y-47304000D02*
X61020000Y-47304000D01*
X58360000Y-42164000D02*
X58360000Y-47304000D01*
X61020000Y-42164000D02*
X61020000Y-47304000D01*
X58360000Y-42164000D02*
X61020000Y-42164000D01*
X58360000Y-40894000D02*
X58360000Y-39564000D01*
X58360000Y-39564000D02*
X59690000Y-39564000D01*
X62290000Y-5909000D02*
X59630000Y-5909000D01*
X62290000Y-11049000D02*
X62290000Y-5909000D01*
X59630000Y-11049000D02*
X59630000Y-5909000D01*
X62290000Y-11049000D02*
X59630000Y-11049000D01*
X62290000Y-12319000D02*
X62290000Y-13649000D01*
X62290000Y-13649000D02*
X60960000Y-13649000D01*
X49590000Y-5909000D02*
X46930000Y-5909000D01*
X49590000Y-11049000D02*
X49590000Y-5909000D01*
X46930000Y-11049000D02*
X46930000Y-5909000D01*
X49590000Y-11049000D02*
X46930000Y-11049000D01*
X49590000Y-12319000D02*
X49590000Y-13649000D01*
X49590000Y-13649000D02*
X48260000Y-13649000D01*
X36890000Y-5909000D02*
X34230000Y-5909000D01*
X36890000Y-11049000D02*
X36890000Y-5909000D01*
X34230000Y-11049000D02*
X34230000Y-5909000D01*
X36890000Y-11049000D02*
X34230000Y-11049000D01*
X36890000Y-12319000D02*
X36890000Y-13649000D01*
X36890000Y-13649000D02*
X35560000Y-13649000D01*
X43120000Y-47304000D02*
X45780000Y-47304000D01*
X43120000Y-42164000D02*
X43120000Y-47304000D01*
X45780000Y-42164000D02*
X45780000Y-47304000D01*
X43120000Y-42164000D02*
X45780000Y-42164000D01*
X43120000Y-40894000D02*
X43120000Y-39564000D01*
X43120000Y-39564000D02*
X44450000Y-39564000D01*
X55820000Y-47304000D02*
X58480000Y-47304000D01*
X55820000Y-42164000D02*
X55820000Y-47304000D01*
X58480000Y-42164000D02*
X58480000Y-47304000D01*
X55820000Y-42164000D02*
X58480000Y-42164000D01*
X55820000Y-40894000D02*
X55820000Y-39564000D01*
X55820000Y-39564000D02*
X57150000Y-39564000D01*
X59750000Y-5909000D02*
X57090000Y-5909000D01*
X59750000Y-11049000D02*
X59750000Y-5909000D01*
X57090000Y-11049000D02*
X57090000Y-5909000D01*
X59750000Y-11049000D02*
X57090000Y-11049000D01*
X59750000Y-12319000D02*
X59750000Y-13649000D01*
X59750000Y-13649000D02*
X58420000Y-13649000D01*
X47050000Y-5909000D02*
X44390000Y-5909000D01*
X47050000Y-11049000D02*
X47050000Y-5909000D01*
X44390000Y-11049000D02*
X44390000Y-5909000D01*
X47050000Y-11049000D02*
X44390000Y-11049000D01*
X47050000Y-12319000D02*
X47050000Y-13649000D01*
X47050000Y-13649000D02*
X45720000Y-13649000D01*
X34350000Y-5909000D02*
X31690000Y-5909000D01*
X34350000Y-11049000D02*
X34350000Y-5909000D01*
X31690000Y-11049000D02*
X31690000Y-5909000D01*
X34350000Y-11049000D02*
X31690000Y-11049000D01*
X34350000Y-12319000D02*
X34350000Y-13649000D01*
X34350000Y-13649000D02*
X33020000Y-13649000D01*
X45660000Y-47304000D02*
X48320000Y-47304000D01*
X45660000Y-42164000D02*
X45660000Y-47304000D01*
X48320000Y-42164000D02*
X48320000Y-47304000D01*
X45660000Y-42164000D02*
X48320000Y-42164000D01*
X45660000Y-40894000D02*
X45660000Y-39564000D01*
X45660000Y-39564000D02*
X46990000Y-39564000D01*
X57210000Y-5909000D02*
X54550000Y-5909000D01*
X57210000Y-11049000D02*
X57210000Y-5909000D01*
X54550000Y-11049000D02*
X54550000Y-5909000D01*
X57210000Y-11049000D02*
X54550000Y-11049000D01*
X57210000Y-12319000D02*
X57210000Y-13649000D01*
X57210000Y-13649000D02*
X55880000Y-13649000D01*
X44510000Y-5909000D02*
X41850000Y-5909000D01*
X44510000Y-11049000D02*
X44510000Y-5909000D01*
X41850000Y-11049000D02*
X41850000Y-5909000D01*
X44510000Y-11049000D02*
X41850000Y-11049000D01*
X44510000Y-12319000D02*
X44510000Y-13649000D01*
X44510000Y-13649000D02*
X43180000Y-13649000D01*
X31810000Y-5909000D02*
X29150000Y-5909000D01*
X31810000Y-11049000D02*
X31810000Y-5909000D01*
X29150000Y-11049000D02*
X29150000Y-5909000D01*
X31810000Y-11049000D02*
X29150000Y-11049000D01*
X31810000Y-12319000D02*
X31810000Y-13649000D01*
X31810000Y-13649000D02*
X30480000Y-13649000D01*
X48200000Y-47304000D02*
X50860000Y-47304000D01*
X48200000Y-42164000D02*
X48200000Y-47304000D01*
X50860000Y-42164000D02*
X50860000Y-47304000D01*
X48200000Y-42164000D02*
X50860000Y-42164000D01*
X48200000Y-40894000D02*
X48200000Y-39564000D01*
X48200000Y-39564000D02*
X49530000Y-39564000D01*
X54670000Y-5909000D02*
X52010000Y-5909000D01*
X54670000Y-11049000D02*
X54670000Y-5909000D01*
X52010000Y-11049000D02*
X52010000Y-5909000D01*
X54670000Y-11049000D02*
X52010000Y-11049000D01*
X54670000Y-12319000D02*
X54670000Y-13649000D01*
X54670000Y-13649000D02*
X53340000Y-13649000D01*
X41970000Y-5909000D02*
X39310000Y-5909000D01*
X41970000Y-11049000D02*
X41970000Y-5909000D01*
X39310000Y-11049000D02*
X39310000Y-5909000D01*
X41970000Y-11049000D02*
X39310000Y-11049000D01*
X41970000Y-12319000D02*
X41970000Y-13649000D01*
X41970000Y-13649000D02*
X40640000Y-13649000D01*
X50740000Y-47304000D02*
X53400000Y-47304000D01*
X50740000Y-42164000D02*
X50740000Y-47304000D01*
X53400000Y-42164000D02*
X53400000Y-47304000D01*
X50740000Y-42164000D02*
X53400000Y-42164000D01*
X50740000Y-40894000D02*
X50740000Y-39564000D01*
X50740000Y-39564000D02*
X52070000Y-39564000D01*
X53280000Y-47304000D02*
X55940000Y-47304000D01*
X53280000Y-42164000D02*
X53280000Y-47304000D01*
X55940000Y-42164000D02*
X55940000Y-47304000D01*
X53280000Y-42164000D02*
X55940000Y-42164000D01*
X53280000Y-40894000D02*
X53280000Y-39564000D01*
X53280000Y-39564000D02*
X54610000Y-39564000D01*
X69850000Y-38489000D02*
X65500000Y-38489000D01*
X65500000Y-38489000D02*
X65500000Y-33489000D01*
X65500000Y-33489000D02*
X69850000Y-33489000D01*
X63650000Y-39789000D02*
X63650000Y-40139000D01*
X63650000Y-40139000D02*
X62050000Y-40139000D01*
X62050000Y-40139000D02*
X62050000Y-41039000D01*
X62050000Y-41039000D02*
X69850000Y-41039000D01*
X69850000Y-41039000D02*
X69850000Y-30939000D01*
X69850000Y-30939000D02*
X62050000Y-30939000D01*
X62050000Y-30939000D02*
X62050000Y-31839000D01*
X62050000Y-31839000D02*
X63650000Y-31839000D01*
X63650000Y-31839000D02*
X63650000Y-32189000D01*
X63650000Y-41039000D02*
X63650000Y-40139000D01*
X63650000Y-30939000D02*
X63650000Y-31839000D01*
X66000000Y-40289000D02*
X67600000Y-40289000D01*
X67600000Y-40289000D02*
X67600000Y-39289000D01*
X67600000Y-39289000D02*
X66000000Y-39289000D01*
X66000000Y-39289000D02*
X66000000Y-40289000D01*
X66000000Y-31689000D02*
X67600000Y-31689000D01*
X67600000Y-31689000D02*
X67600000Y-32689000D01*
X67600000Y-32689000D02*
X66000000Y-32689000D01*
X66000000Y-32689000D02*
X66000000Y-31689000D01*
X67600000Y-39289000D02*
X69850000Y-39289000D01*
X67600000Y-39789000D02*
X69850000Y-39789000D01*
X63650000Y-39789000D02*
X62450000Y-39789000D01*
X24860000Y-18534000D02*
X24860000Y-19194000D01*
X24860000Y-16874000D02*
X24860000Y-17534000D01*
X24860000Y-16874000D02*
X22830000Y-16874000D01*
X23450000Y-19194000D02*
X24860000Y-19194000D01*
X22100000Y-20645000D02*
X22100000Y-21575000D01*
X22100000Y-23805000D02*
X22100000Y-22875000D01*
X22100000Y-23805000D02*
X24260000Y-23805000D01*
X22100000Y-20645000D02*
X23560000Y-20645000D01*
X22100000Y-24201000D02*
X22100000Y-25131000D01*
X22100000Y-27361000D02*
X22100000Y-26431000D01*
X22100000Y-27361000D02*
X24260000Y-27361000D01*
X22100000Y-24201000D02*
X23560000Y-24201000D01*
X27778000Y-15358000D02*
X26578000Y-15358000D01*
X26578000Y-13598000D02*
X27778000Y-13598000D01*
X24774000Y-9490000D02*
X24774000Y-8290000D01*
X26534000Y-8290000D02*
X26534000Y-9490000D01*
X33981500Y-44669000D02*
X33981500Y-43469000D01*
X35741500Y-43469000D02*
X35741500Y-44669000D01*
X27778000Y-13453000D02*
X26578000Y-13453000D01*
X26578000Y-11693000D02*
X27778000Y-11693000D01*
X62239000Y-17364000D02*
X62239000Y-16164000D01*
X63999000Y-16164000D02*
X63999000Y-17364000D01*
X60080000Y-17364000D02*
X60080000Y-16164000D01*
X61840000Y-16164000D02*
X61840000Y-17364000D01*
X26044000Y-37938000D02*
X26044000Y-36738000D01*
X27804000Y-36738000D02*
X27804000Y-37938000D01*
X60290000Y-23359000D02*
X59090000Y-23359000D01*
X59090000Y-21599000D02*
X60290000Y-21599000D01*
X38091000Y-29880000D02*
X38091000Y-31080000D01*
X36331000Y-31080000D02*
X36331000Y-29880000D01*
X29328000Y-36738000D02*
X29328000Y-37938000D01*
X27568000Y-37938000D02*
X27568000Y-36738000D01*
X33309000Y-26044000D02*
X34509000Y-26044000D01*
X34509000Y-27804000D02*
X33309000Y-27804000D01*
X6639000Y-10804000D02*
X7839000Y-10804000D01*
X7839000Y-12564000D02*
X6639000Y-12564000D01*
X6639000Y-13344000D02*
X7839000Y-13344000D01*
X7839000Y-15104000D02*
X6639000Y-15104000D01*
X22089000Y-17561000D02*
X22089000Y-18761000D01*
X20329000Y-18761000D02*
X20329000Y-17561000D01*
X27905000Y-18660000D02*
X26705000Y-18660000D01*
X26705000Y-16900000D02*
X27905000Y-16900000D01*
X27905000Y-27423000D02*
X26705000Y-27423000D01*
X26705000Y-25663000D02*
X27905000Y-25663000D01*
X15205000Y-27423000D02*
X14005000Y-27423000D01*
X14005000Y-25663000D02*
X15205000Y-25663000D01*
X18761000Y-27423000D02*
X17561000Y-27423000D01*
X17561000Y-25663000D02*
X18761000Y-25663000D01*
X27905000Y-23994000D02*
X26705000Y-23994000D01*
X26705000Y-22234000D02*
X27905000Y-22234000D01*
X23569000Y-49957000D02*
X23569000Y-49727000D01*
X24089000Y-53627000D02*
X16369000Y-53627000D01*
X16369000Y-53627000D02*
X16369000Y-49727000D01*
X24089000Y-46617000D02*
X23569000Y-46617000D01*
X24089000Y-53627000D02*
X24089000Y-49727000D01*
X16889000Y-49957000D02*
X16889000Y-49727000D01*
X23569000Y-47127000D02*
X23569000Y-46617000D01*
X24089000Y-47127000D02*
X24089000Y-46617000D01*
X17429000Y-49957000D02*
X16889000Y-49957000D01*
X16889000Y-47127000D02*
X16889000Y-46617000D01*
X16889000Y-46617000D02*
X16369000Y-46617000D01*
X16369000Y-47127000D02*
X16369000Y-46617000D01*
X23569000Y-49957000D02*
X23029000Y-49957000D01*
X21929000Y-49957000D02*
X18529000Y-49957000D01*
X3279000Y-29213000D02*
X3279000Y-29413000D01*
X-861000Y-26413000D02*
X-1071000Y-26613000D01*
X-861000Y-27713000D02*
X-1071000Y-27513000D01*
X429000Y-26413000D02*
X-861000Y-26413000D01*
X-1071000Y-26613000D02*
X-1071000Y-27513000D01*
X-861000Y-27713000D02*
X429000Y-27713000D01*
X429000Y-24963000D02*
X429000Y-30663000D01*
X3279000Y-26213000D02*
X3279000Y-27913000D01*
X2229000Y-24363000D02*
X1439000Y-24363000D01*
X1439000Y-31263000D02*
X2229000Y-31263000D01*
D10*
X12573000Y-14605000D02*
X20193000Y-14605000D01*
X20193000Y-11049000D02*
X12573000Y-11049000D01*
X12573000Y-14605000D02*
X12573000Y-11049000D01*
X20193000Y-11049000D02*
X20193000Y-14605000D01*
X20044210Y-11557000D02*
G75*
G03X20044210Y-11557000I-359210J0D01*
G01*
X20193000Y-13462000D02*
X19431000Y-13462000D01*
X19431000Y-13462000D02*
X19431000Y-12192000D01*
X19431000Y-12192000D02*
X20193000Y-12192000D01*
X13800000Y-19142000D02*
X13800000Y-19192000D01*
X17950000Y-19142000D02*
X17950000Y-19287000D01*
X17950000Y-24292000D02*
X17950000Y-24147000D01*
X13800000Y-24292000D02*
X13800000Y-24147000D01*
X13800000Y-19142000D02*
X17950000Y-19142000D01*
X13800000Y-24292000D02*
X17950000Y-24292000D01*
X13800000Y-19192000D02*
X12400000Y-19192000D01*
D14*
X4313000Y-33293000D02*
X4313000Y-34553000D01*
X4313000Y-40113000D02*
X4313000Y-38853000D01*
X8073000Y-33293000D02*
X4313000Y-33293000D01*
X10323000Y-40113000D02*
X4313000Y-40113000D01*
D10*
X52243524Y-25527000D02*
X52084425Y-25367901D01*
X47117000Y-30653524D02*
X46887190Y-30423714D01*
X41990476Y-25527000D02*
X42220286Y-25756810D01*
X47117000Y-20400476D02*
X47346810Y-20630286D01*
X52243524Y-25527000D02*
X52013714Y-25756810D01*
X47117000Y-20400476D02*
X46887190Y-20630286D01*
X41990476Y-25527000D02*
X42220286Y-25297190D01*
X47117000Y-30653524D02*
X47346810Y-30423714D01*
X52084425Y-25367901D02*
X53092052Y-24360274D01*
X23960000Y-29048000D02*
X23960000Y-29098000D01*
X28110000Y-29048000D02*
X28110000Y-29193000D01*
X28110000Y-34198000D02*
X28110000Y-34053000D01*
X23960000Y-34198000D02*
X23960000Y-34053000D01*
X23960000Y-29048000D02*
X28110000Y-29048000D01*
X23960000Y-34198000D02*
X28110000Y-34198000D01*
X23960000Y-29098000D02*
X22560000Y-29098000D01*
D15*
X48631929Y-18320284D02*
X49547915Y-17404297D01*
X52197091Y-20053473D02*
X51281105Y-20969459D01*
D16*
G36*
X44880202Y-16344851D02*
X44947859Y-16347318D01*
X44997295Y-16353772D01*
X45028057Y-16369746D01*
X45039696Y-16400776D01*
X45031760Y-16452398D01*
X45003799Y-16530148D01*
X44955362Y-16639560D01*
X44885998Y-16786169D01*
X44835727Y-16891000D01*
X44800085Y-16966660D01*
X44775082Y-17022291D01*
X44766891Y-17043400D01*
X44755956Y-17071194D01*
X44729125Y-17131599D01*
X44693619Y-17208500D01*
X44636919Y-17332761D01*
X44596768Y-17427788D01*
X44575840Y-17487084D01*
X44573404Y-17500600D01*
X44558342Y-17527106D01*
X44533153Y-17557750D01*
X44509910Y-17591288D01*
X44513500Y-17602200D01*
X44514174Y-17617813D01*
X44488100Y-17653000D01*
X44461340Y-17689555D01*
X44462700Y-17703800D01*
X44464324Y-17719157D01*
X44443046Y-17748250D01*
X44411727Y-17787595D01*
X44402795Y-17805400D01*
X44391339Y-17847463D01*
X44359032Y-17927331D01*
X44308841Y-18037939D01*
X44277344Y-18103850D01*
X44241291Y-18182094D01*
X44218771Y-18238793D01*
X44214301Y-18262474D01*
X44214817Y-18262600D01*
X44210967Y-18278407D01*
X44183300Y-18313400D01*
X44156540Y-18349955D01*
X44157900Y-18364200D01*
X44158574Y-18379813D01*
X44132500Y-18415000D01*
X44105740Y-18451555D01*
X44107100Y-18465800D01*
X44107774Y-18481413D01*
X44081700Y-18516600D01*
X44053494Y-18553291D01*
X44051847Y-18567400D01*
X44051439Y-18586657D01*
X44030252Y-18634425D01*
X44022155Y-18649403D01*
X43991985Y-18696379D01*
X43958005Y-18721090D01*
X43903499Y-18730926D01*
X43832878Y-18733062D01*
X43737585Y-18728881D01*
X43686619Y-18712829D01*
X43675923Y-18699566D01*
X43674930Y-18649287D01*
X43681178Y-18634957D01*
X43699633Y-18599606D01*
X43701589Y-18592800D01*
X43710098Y-18569598D01*
X43734534Y-18514021D01*
X43776480Y-18422616D01*
X43837517Y-18291930D01*
X43907946Y-18142398D01*
X43947516Y-18055590D01*
X43975645Y-17988035D01*
X43987581Y-17951347D01*
X43987394Y-17948214D01*
X43997039Y-17924204D01*
X44028486Y-17884266D01*
X44057980Y-17846372D01*
X44060670Y-17830800D01*
X44061309Y-17811495D01*
X44082734Y-17763344D01*
X44092729Y-17744875D01*
X44122227Y-17679254D01*
X44119510Y-17639379D01*
X44112615Y-17630575D01*
X44098841Y-17606320D01*
X44105956Y-17602200D01*
X44107471Y-17586622D01*
X44081700Y-17551400D01*
X44054940Y-17514844D01*
X44056300Y-17500600D01*
X44056974Y-17484986D01*
X44030900Y-17449800D01*
X44004140Y-17413244D01*
X44005500Y-17399000D01*
X44006174Y-17383386D01*
X43980100Y-17348200D01*
X43953340Y-17311644D01*
X43954700Y-17297400D01*
X43955374Y-17281786D01*
X43929300Y-17246600D01*
X43902540Y-17210044D01*
X43903900Y-17195800D01*
X43904574Y-17180186D01*
X43878500Y-17145000D01*
X43851740Y-17108444D01*
X43853100Y-17094200D01*
X43853774Y-17078586D01*
X43827700Y-17043400D01*
X43800674Y-17006819D01*
X43801473Y-16992600D01*
X43803987Y-16976863D01*
X43787473Y-16951937D01*
X43757261Y-16904939D01*
X43749081Y-16882087D01*
X43736511Y-16847784D01*
X43706536Y-16779516D01*
X43664331Y-16688826D01*
X43636563Y-16631066D01*
X43584904Y-16519945D01*
X43556470Y-16444939D01*
X43548852Y-16398303D01*
X43556993Y-16375127D01*
X43600553Y-16354489D01*
X43674663Y-16345483D01*
X43760461Y-16347965D01*
X43839081Y-16361787D01*
X43878870Y-16377619D01*
X43909022Y-16400001D01*
X43906313Y-16407627D01*
X43904269Y-16423829D01*
X43931579Y-16461718D01*
X43931713Y-16461866D01*
X43964521Y-16503508D01*
X43973459Y-16525487D01*
X43975650Y-16546482D01*
X43993860Y-16596785D01*
X44030041Y-16681084D01*
X44086145Y-16804066D01*
X44117605Y-16871554D01*
X44155277Y-16955209D01*
X44181306Y-17019273D01*
X44190825Y-17051630D01*
X44190504Y-17053037D01*
X44200215Y-17077011D01*
X44231686Y-17116933D01*
X44260072Y-17154719D01*
X44260326Y-17170400D01*
X44257417Y-17186011D01*
X44272459Y-17208813D01*
X44308418Y-17232923D01*
X44338257Y-17219077D01*
X44365379Y-17186627D01*
X44367931Y-17174313D01*
X44375774Y-17144494D01*
X44400421Y-17082612D01*
X44435051Y-17005300D01*
X44489261Y-16887372D01*
X44523253Y-16807563D01*
X44539861Y-16758724D01*
X44542207Y-16734916D01*
X44555009Y-16706219D01*
X44587286Y-16665066D01*
X44615672Y-16627280D01*
X44615926Y-16611600D01*
X44613412Y-16595863D01*
X44629926Y-16570937D01*
X44660806Y-16519745D01*
X44669083Y-16493412D01*
X44686559Y-16444980D01*
X44712376Y-16398733D01*
X44743915Y-16363589D01*
X44789080Y-16347320D01*
X44864913Y-16344456D01*
X44880202Y-16344851D01*
X44880202Y-16344851D01*
G37*
X44880202Y-16344851D02*
X44947859Y-16347318D01*
X44997295Y-16353772D01*
X45028057Y-16369746D01*
X45039696Y-16400776D01*
X45031760Y-16452398D01*
X45003799Y-16530148D01*
X44955362Y-16639560D01*
X44885998Y-16786169D01*
X44835727Y-16891000D01*
X44800085Y-16966660D01*
X44775082Y-17022291D01*
X44766891Y-17043400D01*
X44755956Y-17071194D01*
X44729125Y-17131599D01*
X44693619Y-17208500D01*
X44636919Y-17332761D01*
X44596768Y-17427788D01*
X44575840Y-17487084D01*
X44573404Y-17500600D01*
X44558342Y-17527106D01*
X44533153Y-17557750D01*
X44509910Y-17591288D01*
X44513500Y-17602200D01*
X44514174Y-17617813D01*
X44488100Y-17653000D01*
X44461340Y-17689555D01*
X44462700Y-17703800D01*
X44464324Y-17719157D01*
X44443046Y-17748250D01*
X44411727Y-17787595D01*
X44402795Y-17805400D01*
X44391339Y-17847463D01*
X44359032Y-17927331D01*
X44308841Y-18037939D01*
X44277344Y-18103850D01*
X44241291Y-18182094D01*
X44218771Y-18238793D01*
X44214301Y-18262474D01*
X44214817Y-18262600D01*
X44210967Y-18278407D01*
X44183300Y-18313400D01*
X44156540Y-18349955D01*
X44157900Y-18364200D01*
X44158574Y-18379813D01*
X44132500Y-18415000D01*
X44105740Y-18451555D01*
X44107100Y-18465800D01*
X44107774Y-18481413D01*
X44081700Y-18516600D01*
X44053494Y-18553291D01*
X44051847Y-18567400D01*
X44051439Y-18586657D01*
X44030252Y-18634425D01*
X44022155Y-18649403D01*
X43991985Y-18696379D01*
X43958005Y-18721090D01*
X43903499Y-18730926D01*
X43832878Y-18733062D01*
X43737585Y-18728881D01*
X43686619Y-18712829D01*
X43675923Y-18699566D01*
X43674930Y-18649287D01*
X43681178Y-18634957D01*
X43699633Y-18599606D01*
X43701589Y-18592800D01*
X43710098Y-18569598D01*
X43734534Y-18514021D01*
X43776480Y-18422616D01*
X43837517Y-18291930D01*
X43907946Y-18142398D01*
X43947516Y-18055590D01*
X43975645Y-17988035D01*
X43987581Y-17951347D01*
X43987394Y-17948214D01*
X43997039Y-17924204D01*
X44028486Y-17884266D01*
X44057980Y-17846372D01*
X44060670Y-17830800D01*
X44061309Y-17811495D01*
X44082734Y-17763344D01*
X44092729Y-17744875D01*
X44122227Y-17679254D01*
X44119510Y-17639379D01*
X44112615Y-17630575D01*
X44098841Y-17606320D01*
X44105956Y-17602200D01*
X44107471Y-17586622D01*
X44081700Y-17551400D01*
X44054940Y-17514844D01*
X44056300Y-17500600D01*
X44056974Y-17484986D01*
X44030900Y-17449800D01*
X44004140Y-17413244D01*
X44005500Y-17399000D01*
X44006174Y-17383386D01*
X43980100Y-17348200D01*
X43953340Y-17311644D01*
X43954700Y-17297400D01*
X43955374Y-17281786D01*
X43929300Y-17246600D01*
X43902540Y-17210044D01*
X43903900Y-17195800D01*
X43904574Y-17180186D01*
X43878500Y-17145000D01*
X43851740Y-17108444D01*
X43853100Y-17094200D01*
X43853774Y-17078586D01*
X43827700Y-17043400D01*
X43800674Y-17006819D01*
X43801473Y-16992600D01*
X43803987Y-16976863D01*
X43787473Y-16951937D01*
X43757261Y-16904939D01*
X43749081Y-16882087D01*
X43736511Y-16847784D01*
X43706536Y-16779516D01*
X43664331Y-16688826D01*
X43636563Y-16631066D01*
X43584904Y-16519945D01*
X43556470Y-16444939D01*
X43548852Y-16398303D01*
X43556993Y-16375127D01*
X43600553Y-16354489D01*
X43674663Y-16345483D01*
X43760461Y-16347965D01*
X43839081Y-16361787D01*
X43878870Y-16377619D01*
X43909022Y-16400001D01*
X43906313Y-16407627D01*
X43904269Y-16423829D01*
X43931579Y-16461718D01*
X43931713Y-16461866D01*
X43964521Y-16503508D01*
X43973459Y-16525487D01*
X43975650Y-16546482D01*
X43993860Y-16596785D01*
X44030041Y-16681084D01*
X44086145Y-16804066D01*
X44117605Y-16871554D01*
X44155277Y-16955209D01*
X44181306Y-17019273D01*
X44190825Y-17051630D01*
X44190504Y-17053037D01*
X44200215Y-17077011D01*
X44231686Y-17116933D01*
X44260072Y-17154719D01*
X44260326Y-17170400D01*
X44257417Y-17186011D01*
X44272459Y-17208813D01*
X44308418Y-17232923D01*
X44338257Y-17219077D01*
X44365379Y-17186627D01*
X44367931Y-17174313D01*
X44375774Y-17144494D01*
X44400421Y-17082612D01*
X44435051Y-17005300D01*
X44489261Y-16887372D01*
X44523253Y-16807563D01*
X44539861Y-16758724D01*
X44542207Y-16734916D01*
X44555009Y-16706219D01*
X44587286Y-16665066D01*
X44615672Y-16627280D01*
X44615926Y-16611600D01*
X44613412Y-16595863D01*
X44629926Y-16570937D01*
X44660806Y-16519745D01*
X44669083Y-16493412D01*
X44686559Y-16444980D01*
X44712376Y-16398733D01*
X44743915Y-16363589D01*
X44789080Y-16347320D01*
X44864913Y-16344456D01*
X44880202Y-16344851D01*
G36*
X32058981Y-16333972D02*
X32099766Y-16364582D01*
X32120898Y-16394028D01*
X32118858Y-16403608D01*
X32122655Y-16430229D01*
X32141834Y-16457138D01*
X32171184Y-16494784D01*
X32178204Y-16510000D01*
X32189360Y-16550616D01*
X32220973Y-16629962D01*
X32270369Y-16741541D01*
X32298419Y-16802100D01*
X32335241Y-16881434D01*
X32362195Y-16940972D01*
X32373205Y-16967200D01*
X32398384Y-17036137D01*
X32429384Y-17087505D01*
X32457275Y-17107488D01*
X32462842Y-17105884D01*
X32480213Y-17082683D01*
X32477526Y-17076660D01*
X32477424Y-17047279D01*
X32492178Y-16988740D01*
X32500110Y-16964903D01*
X32518524Y-16903862D01*
X32523037Y-16868853D01*
X32520463Y-16865600D01*
X32520853Y-16850122D01*
X32532991Y-16832811D01*
X32556099Y-16785994D01*
X32574697Y-16717661D01*
X32575306Y-16714299D01*
X32590457Y-16647681D01*
X32606681Y-16602626D01*
X32607619Y-16601037D01*
X32626209Y-16553290D01*
X32632328Y-16525295D01*
X32648954Y-16466024D01*
X32671505Y-16410995D01*
X32699805Y-16368663D01*
X32742657Y-16348901D01*
X32817142Y-16343341D01*
X32913847Y-16349629D01*
X32968705Y-16370525D01*
X32978530Y-16404299D01*
X32966403Y-16424470D01*
X32950879Y-16453294D01*
X32956500Y-16459200D01*
X32958784Y-16474827D01*
X32943800Y-16497300D01*
X32924085Y-16528160D01*
X32926379Y-16535400D01*
X32925031Y-16557598D01*
X32909677Y-16617176D01*
X32883207Y-16703604D01*
X32865338Y-16757650D01*
X32830077Y-16865596D01*
X32800348Y-16963526D01*
X32780854Y-17035675D01*
X32776945Y-17053962D01*
X32761812Y-17116963D01*
X32746580Y-17155562D01*
X32728056Y-17203197D01*
X32721779Y-17231906D01*
X32700981Y-17291438D01*
X32686184Y-17314456D01*
X32669216Y-17342845D01*
X32672476Y-17348200D01*
X32671869Y-17370156D01*
X32657190Y-17428199D01*
X32631488Y-17510587D01*
X32626300Y-17526000D01*
X32599436Y-17611574D01*
X32583748Y-17675122D01*
X32582076Y-17704772D01*
X32583363Y-17705585D01*
X32578109Y-17714368D01*
X32550505Y-17727052D01*
X32497391Y-17737176D01*
X32446304Y-17732527D01*
X32417517Y-17716076D01*
X32416621Y-17707425D01*
X32408293Y-17678700D01*
X32382285Y-17615774D01*
X32343411Y-17529996D01*
X32323713Y-17488439D01*
X32279496Y-17394139D01*
X32244691Y-17315734D01*
X32224695Y-17265561D01*
X32222036Y-17256051D01*
X32203230Y-17212991D01*
X32183926Y-17185662D01*
X32164952Y-17153592D01*
X32169926Y-17145000D01*
X32169992Y-17129360D01*
X32143700Y-17094200D01*
X32116940Y-17057644D01*
X32118300Y-17043400D01*
X32119924Y-17028042D01*
X32098646Y-16998950D01*
X32067224Y-16959592D01*
X32058140Y-16941800D01*
X32050053Y-16910829D01*
X32035671Y-16869115D01*
X32022207Y-16841238D01*
X32007416Y-16841302D01*
X31985482Y-16875320D01*
X31950592Y-16949303D01*
X31944055Y-16963833D01*
X31908647Y-17045279D01*
X31883418Y-17108162D01*
X31874004Y-17138117D01*
X31858185Y-17170409D01*
X31833153Y-17202150D01*
X31809910Y-17235688D01*
X31813500Y-17246600D01*
X31815124Y-17261957D01*
X31793846Y-17291050D01*
X31760995Y-17336048D01*
X31750876Y-17360900D01*
X31737521Y-17405292D01*
X31707907Y-17475391D01*
X31668988Y-17557294D01*
X31627718Y-17637101D01*
X31591053Y-17700910D01*
X31565946Y-17734819D01*
X31562803Y-17736836D01*
X31517491Y-17737014D01*
X31483300Y-17727470D01*
X31450286Y-17711181D01*
X31449869Y-17705585D01*
X31449447Y-17682507D01*
X31434785Y-17621461D01*
X31408534Y-17532388D01*
X31381700Y-17449800D01*
X31347966Y-17345941D01*
X31323263Y-17262606D01*
X31310364Y-17209658D01*
X31310290Y-17195800D01*
X31309260Y-17180232D01*
X31296415Y-17162056D01*
X31268225Y-17107979D01*
X31260820Y-17079506D01*
X31245972Y-17024249D01*
X31236240Y-17003520D01*
X31219057Y-16959214D01*
X31206983Y-16908689D01*
X31192031Y-16848285D01*
X31178499Y-16814799D01*
X31162007Y-16771434D01*
X31149836Y-16719919D01*
X31130851Y-16656247D01*
X31110384Y-16618738D01*
X31094402Y-16591075D01*
X31098063Y-16586200D01*
X31099612Y-16565075D01*
X31086072Y-16512004D01*
X31077493Y-16486282D01*
X31058444Y-16419801D01*
X31061786Y-16376886D01*
X31094076Y-16353755D01*
X31161872Y-16346627D01*
X31271732Y-16351719D01*
X31306128Y-16354425D01*
X31345998Y-16382311D01*
X31380990Y-16455633D01*
X31408265Y-16567417D01*
X31426527Y-16634480D01*
X31449608Y-16680411D01*
X31465943Y-16708235D01*
X31462523Y-16713200D01*
X31463004Y-16735116D01*
X31477567Y-16792897D01*
X31503142Y-16874589D01*
X31506540Y-16884650D01*
X31535839Y-16971877D01*
X31557952Y-17039747D01*
X31568361Y-17074373D01*
X31568527Y-17075150D01*
X31584759Y-17094198D01*
X31584900Y-17094200D01*
X31599388Y-17075366D01*
X31599409Y-17075150D01*
X31616182Y-17042477D01*
X31635700Y-17018000D01*
X31664661Y-16977797D01*
X31671045Y-16960401D01*
X31681677Y-16929956D01*
X31709272Y-16865680D01*
X31748650Y-16779461D01*
X31764855Y-16745041D01*
X31807836Y-16652181D01*
X31841420Y-16575319D01*
X31860144Y-16527121D01*
X31862163Y-16519451D01*
X31880969Y-16476391D01*
X31900273Y-16449062D01*
X31919247Y-16416992D01*
X31914273Y-16408400D01*
X31913863Y-16392853D01*
X31938242Y-16360094D01*
X31983611Y-16325012D01*
X32015817Y-16316757D01*
X32058981Y-16333972D01*
X32058981Y-16333972D01*
G37*
X32058981Y-16333972D02*
X32099766Y-16364582D01*
X32120898Y-16394028D01*
X32118858Y-16403608D01*
X32122655Y-16430229D01*
X32141834Y-16457138D01*
X32171184Y-16494784D01*
X32178204Y-16510000D01*
X32189360Y-16550616D01*
X32220973Y-16629962D01*
X32270369Y-16741541D01*
X32298419Y-16802100D01*
X32335241Y-16881434D01*
X32362195Y-16940972D01*
X32373205Y-16967200D01*
X32398384Y-17036137D01*
X32429384Y-17087505D01*
X32457275Y-17107488D01*
X32462842Y-17105884D01*
X32480213Y-17082683D01*
X32477526Y-17076660D01*
X32477424Y-17047279D01*
X32492178Y-16988740D01*
X32500110Y-16964903D01*
X32518524Y-16903862D01*
X32523037Y-16868853D01*
X32520463Y-16865600D01*
X32520853Y-16850122D01*
X32532991Y-16832811D01*
X32556099Y-16785994D01*
X32574697Y-16717661D01*
X32575306Y-16714299D01*
X32590457Y-16647681D01*
X32606681Y-16602626D01*
X32607619Y-16601037D01*
X32626209Y-16553290D01*
X32632328Y-16525295D01*
X32648954Y-16466024D01*
X32671505Y-16410995D01*
X32699805Y-16368663D01*
X32742657Y-16348901D01*
X32817142Y-16343341D01*
X32913847Y-16349629D01*
X32968705Y-16370525D01*
X32978530Y-16404299D01*
X32966403Y-16424470D01*
X32950879Y-16453294D01*
X32956500Y-16459200D01*
X32958784Y-16474827D01*
X32943800Y-16497300D01*
X32924085Y-16528160D01*
X32926379Y-16535400D01*
X32925031Y-16557598D01*
X32909677Y-16617176D01*
X32883207Y-16703604D01*
X32865338Y-16757650D01*
X32830077Y-16865596D01*
X32800348Y-16963526D01*
X32780854Y-17035675D01*
X32776945Y-17053962D01*
X32761812Y-17116963D01*
X32746580Y-17155562D01*
X32728056Y-17203197D01*
X32721779Y-17231906D01*
X32700981Y-17291438D01*
X32686184Y-17314456D01*
X32669216Y-17342845D01*
X32672476Y-17348200D01*
X32671869Y-17370156D01*
X32657190Y-17428199D01*
X32631488Y-17510587D01*
X32626300Y-17526000D01*
X32599436Y-17611574D01*
X32583748Y-17675122D01*
X32582076Y-17704772D01*
X32583363Y-17705585D01*
X32578109Y-17714368D01*
X32550505Y-17727052D01*
X32497391Y-17737176D01*
X32446304Y-17732527D01*
X32417517Y-17716076D01*
X32416621Y-17707425D01*
X32408293Y-17678700D01*
X32382285Y-17615774D01*
X32343411Y-17529996D01*
X32323713Y-17488439D01*
X32279496Y-17394139D01*
X32244691Y-17315734D01*
X32224695Y-17265561D01*
X32222036Y-17256051D01*
X32203230Y-17212991D01*
X32183926Y-17185662D01*
X32164952Y-17153592D01*
X32169926Y-17145000D01*
X32169992Y-17129360D01*
X32143700Y-17094200D01*
X32116940Y-17057644D01*
X32118300Y-17043400D01*
X32119924Y-17028042D01*
X32098646Y-16998950D01*
X32067224Y-16959592D01*
X32058140Y-16941800D01*
X32050053Y-16910829D01*
X32035671Y-16869115D01*
X32022207Y-16841238D01*
X32007416Y-16841302D01*
X31985482Y-16875320D01*
X31950592Y-16949303D01*
X31944055Y-16963833D01*
X31908647Y-17045279D01*
X31883418Y-17108162D01*
X31874004Y-17138117D01*
X31858185Y-17170409D01*
X31833153Y-17202150D01*
X31809910Y-17235688D01*
X31813500Y-17246600D01*
X31815124Y-17261957D01*
X31793846Y-17291050D01*
X31760995Y-17336048D01*
X31750876Y-17360900D01*
X31737521Y-17405292D01*
X31707907Y-17475391D01*
X31668988Y-17557294D01*
X31627718Y-17637101D01*
X31591053Y-17700910D01*
X31565946Y-17734819D01*
X31562803Y-17736836D01*
X31517491Y-17737014D01*
X31483300Y-17727470D01*
X31450286Y-17711181D01*
X31449869Y-17705585D01*
X31449447Y-17682507D01*
X31434785Y-17621461D01*
X31408534Y-17532388D01*
X31381700Y-17449800D01*
X31347966Y-17345941D01*
X31323263Y-17262606D01*
X31310364Y-17209658D01*
X31310290Y-17195800D01*
X31309260Y-17180232D01*
X31296415Y-17162056D01*
X31268225Y-17107979D01*
X31260820Y-17079506D01*
X31245972Y-17024249D01*
X31236240Y-17003520D01*
X31219057Y-16959214D01*
X31206983Y-16908689D01*
X31192031Y-16848285D01*
X31178499Y-16814799D01*
X31162007Y-16771434D01*
X31149836Y-16719919D01*
X31130851Y-16656247D01*
X31110384Y-16618738D01*
X31094402Y-16591075D01*
X31098063Y-16586200D01*
X31099612Y-16565075D01*
X31086072Y-16512004D01*
X31077493Y-16486282D01*
X31058444Y-16419801D01*
X31061786Y-16376886D01*
X31094076Y-16353755D01*
X31161872Y-16346627D01*
X31271732Y-16351719D01*
X31306128Y-16354425D01*
X31345998Y-16382311D01*
X31380990Y-16455633D01*
X31408265Y-16567417D01*
X31426527Y-16634480D01*
X31449608Y-16680411D01*
X31465943Y-16708235D01*
X31462523Y-16713200D01*
X31463004Y-16735116D01*
X31477567Y-16792897D01*
X31503142Y-16874589D01*
X31506540Y-16884650D01*
X31535839Y-16971877D01*
X31557952Y-17039747D01*
X31568361Y-17074373D01*
X31568527Y-17075150D01*
X31584759Y-17094198D01*
X31584900Y-17094200D01*
X31599388Y-17075366D01*
X31599409Y-17075150D01*
X31616182Y-17042477D01*
X31635700Y-17018000D01*
X31664661Y-16977797D01*
X31671045Y-16960401D01*
X31681677Y-16929956D01*
X31709272Y-16865680D01*
X31748650Y-16779461D01*
X31764855Y-16745041D01*
X31807836Y-16652181D01*
X31841420Y-16575319D01*
X31860144Y-16527121D01*
X31862163Y-16519451D01*
X31880969Y-16476391D01*
X31900273Y-16449062D01*
X31919247Y-16416992D01*
X31914273Y-16408400D01*
X31913863Y-16392853D01*
X31938242Y-16360094D01*
X31983611Y-16325012D01*
X32015817Y-16316757D01*
X32058981Y-16333972D01*
G36*
X34156165Y-16338067D02*
X34207988Y-16405513D01*
X34251900Y-16510000D01*
X34272101Y-16560699D01*
X34309649Y-16646325D01*
X34359763Y-16756077D01*
X34381219Y-16802100D01*
X34418041Y-16881434D01*
X34444995Y-16940972D01*
X34456005Y-16967200D01*
X34467133Y-16997341D01*
X34489280Y-17052284D01*
X34489689Y-17053272D01*
X34518551Y-17102720D01*
X34542448Y-17101774D01*
X34560029Y-17050711D01*
X34562093Y-17038388D01*
X34581677Y-16977653D01*
X34598415Y-16950143D01*
X34615203Y-16921766D01*
X34611736Y-16916400D01*
X34610257Y-16895250D01*
X34623834Y-16842021D01*
X34632900Y-16814800D01*
X34651672Y-16752931D01*
X34656682Y-16716926D01*
X34654063Y-16713200D01*
X34654453Y-16697722D01*
X34666591Y-16680411D01*
X34689595Y-16633724D01*
X34708300Y-16565188D01*
X34709100Y-16560799D01*
X34727193Y-16491844D01*
X34750226Y-16442938D01*
X34751608Y-16441188D01*
X34765770Y-16413500D01*
X34759900Y-16408400D01*
X34756672Y-16393095D01*
X34768472Y-16375273D01*
X34810333Y-16355505D01*
X34880911Y-16345701D01*
X34959044Y-16346194D01*
X35023570Y-16357315D01*
X35048652Y-16370876D01*
X35057959Y-16414403D01*
X35045570Y-16459200D01*
X35023468Y-16515892D01*
X35013001Y-16548100D01*
X35002958Y-16584982D01*
X34983399Y-16653462D01*
X34966020Y-16713200D01*
X34943795Y-16792451D01*
X34929126Y-16851299D01*
X34925558Y-16872216D01*
X34915197Y-16906085D01*
X34889365Y-16962388D01*
X34886762Y-16967466D01*
X34863577Y-17018195D01*
X34858259Y-17042928D01*
X34859334Y-17043400D01*
X34857543Y-17065377D01*
X34841978Y-17123469D01*
X34815853Y-17205919D01*
X34810700Y-17221200D01*
X34783443Y-17306528D01*
X34766697Y-17369486D01*
X34763510Y-17398333D01*
X34764523Y-17399000D01*
X34763637Y-17414559D01*
X34750815Y-17432743D01*
X34721710Y-17486743D01*
X34713360Y-17515293D01*
X34696219Y-17577019D01*
X34677737Y-17627600D01*
X34661455Y-17680005D01*
X34660996Y-17707262D01*
X34651440Y-17725964D01*
X34610945Y-17736868D01*
X34559203Y-17736312D01*
X34535364Y-17730625D01*
X34496455Y-17706113D01*
X34488277Y-17690108D01*
X34481510Y-17655862D01*
X34461659Y-17601095D01*
X34425617Y-17518333D01*
X34370273Y-17400107D01*
X34349909Y-17357578D01*
X34306510Y-17266459D01*
X34272698Y-17193941D01*
X34253684Y-17151268D01*
X34251374Y-17145000D01*
X34240313Y-17117187D01*
X34213650Y-17056302D01*
X34177098Y-16975386D01*
X34176156Y-16973327D01*
X34103423Y-16814354D01*
X34026096Y-16973327D01*
X33987341Y-17054132D01*
X33958926Y-17115520D01*
X33946777Y-17144675D01*
X33946712Y-17145000D01*
X33935664Y-17172797D01*
X33908750Y-17233208D01*
X33873219Y-17310100D01*
X33812204Y-17443905D01*
X33774123Y-17535940D01*
X33759439Y-17585032D01*
X33761164Y-17593183D01*
X33752607Y-17611993D01*
X33724794Y-17646044D01*
X33696357Y-17687039D01*
X33694052Y-17708985D01*
X33689016Y-17724868D01*
X33654039Y-17736037D01*
X33609978Y-17738428D01*
X33581552Y-17730901D01*
X33564084Y-17703134D01*
X33536790Y-17641320D01*
X33503698Y-17556897D01*
X33468838Y-17461306D01*
X33436238Y-17365985D01*
X33409928Y-17282375D01*
X33393936Y-17221915D01*
X33392291Y-17196044D01*
X33393090Y-17195800D01*
X33392060Y-17180232D01*
X33379215Y-17162056D01*
X33352428Y-17110788D01*
X33339892Y-17066806D01*
X33329439Y-17017545D01*
X33323512Y-16998950D01*
X33314886Y-16973550D01*
X33299340Y-16936709D01*
X33291162Y-16922750D01*
X33280109Y-16894721D01*
X33283687Y-16891000D01*
X33282305Y-16869029D01*
X33267044Y-16810954D01*
X33241065Y-16728526D01*
X33235900Y-16713200D01*
X33208052Y-16627802D01*
X33189797Y-16564826D01*
X33184500Y-16536045D01*
X33185106Y-16535400D01*
X33181729Y-16515958D01*
X33160277Y-16468896D01*
X33158861Y-16466152D01*
X33137811Y-16400613D01*
X33148361Y-16371478D01*
X33190407Y-16354230D01*
X33259780Y-16345689D01*
X33335949Y-16346048D01*
X33398384Y-16355496D01*
X33424056Y-16368923D01*
X33445052Y-16410594D01*
X33473139Y-16484701D01*
X33502753Y-16574482D01*
X33528329Y-16663174D01*
X33543275Y-16728087D01*
X33558525Y-16789795D01*
X33573061Y-16825720D01*
X33593071Y-16876116D01*
X33595179Y-16886633D01*
X33609550Y-16939108D01*
X33618759Y-16962833D01*
X33639868Y-17025668D01*
X33646690Y-17054557D01*
X33659201Y-17100197D01*
X33666513Y-17114179D01*
X33680997Y-17099363D01*
X33707267Y-17053248D01*
X33737694Y-16991477D01*
X33764647Y-16929696D01*
X33780497Y-16883548D01*
X33781552Y-16878300D01*
X33800408Y-16841286D01*
X33828259Y-16805783D01*
X33858335Y-16766731D01*
X33864727Y-16748704D01*
X33869688Y-16718886D01*
X33892610Y-16655103D01*
X33928827Y-16568874D01*
X33973674Y-16471717D01*
X33992272Y-16433800D01*
X34046742Y-16351751D01*
X34101895Y-16319993D01*
X34156165Y-16338067D01*
X34156165Y-16338067D01*
G37*
X34156165Y-16338067D02*
X34207988Y-16405513D01*
X34251900Y-16510000D01*
X34272101Y-16560699D01*
X34309649Y-16646325D01*
X34359763Y-16756077D01*
X34381219Y-16802100D01*
X34418041Y-16881434D01*
X34444995Y-16940972D01*
X34456005Y-16967200D01*
X34467133Y-16997341D01*
X34489280Y-17052284D01*
X34489689Y-17053272D01*
X34518551Y-17102720D01*
X34542448Y-17101774D01*
X34560029Y-17050711D01*
X34562093Y-17038388D01*
X34581677Y-16977653D01*
X34598415Y-16950143D01*
X34615203Y-16921766D01*
X34611736Y-16916400D01*
X34610257Y-16895250D01*
X34623834Y-16842021D01*
X34632900Y-16814800D01*
X34651672Y-16752931D01*
X34656682Y-16716926D01*
X34654063Y-16713200D01*
X34654453Y-16697722D01*
X34666591Y-16680411D01*
X34689595Y-16633724D01*
X34708300Y-16565188D01*
X34709100Y-16560799D01*
X34727193Y-16491844D01*
X34750226Y-16442938D01*
X34751608Y-16441188D01*
X34765770Y-16413500D01*
X34759900Y-16408400D01*
X34756672Y-16393095D01*
X34768472Y-16375273D01*
X34810333Y-16355505D01*
X34880911Y-16345701D01*
X34959044Y-16346194D01*
X35023570Y-16357315D01*
X35048652Y-16370876D01*
X35057959Y-16414403D01*
X35045570Y-16459200D01*
X35023468Y-16515892D01*
X35013001Y-16548100D01*
X35002958Y-16584982D01*
X34983399Y-16653462D01*
X34966020Y-16713200D01*
X34943795Y-16792451D01*
X34929126Y-16851299D01*
X34925558Y-16872216D01*
X34915197Y-16906085D01*
X34889365Y-16962388D01*
X34886762Y-16967466D01*
X34863577Y-17018195D01*
X34858259Y-17042928D01*
X34859334Y-17043400D01*
X34857543Y-17065377D01*
X34841978Y-17123469D01*
X34815853Y-17205919D01*
X34810700Y-17221200D01*
X34783443Y-17306528D01*
X34766697Y-17369486D01*
X34763510Y-17398333D01*
X34764523Y-17399000D01*
X34763637Y-17414559D01*
X34750815Y-17432743D01*
X34721710Y-17486743D01*
X34713360Y-17515293D01*
X34696219Y-17577019D01*
X34677737Y-17627600D01*
X34661455Y-17680005D01*
X34660996Y-17707262D01*
X34651440Y-17725964D01*
X34610945Y-17736868D01*
X34559203Y-17736312D01*
X34535364Y-17730625D01*
X34496455Y-17706113D01*
X34488277Y-17690108D01*
X34481510Y-17655862D01*
X34461659Y-17601095D01*
X34425617Y-17518333D01*
X34370273Y-17400107D01*
X34349909Y-17357578D01*
X34306510Y-17266459D01*
X34272698Y-17193941D01*
X34253684Y-17151268D01*
X34251374Y-17145000D01*
X34240313Y-17117187D01*
X34213650Y-17056302D01*
X34177098Y-16975386D01*
X34176156Y-16973327D01*
X34103423Y-16814354D01*
X34026096Y-16973327D01*
X33987341Y-17054132D01*
X33958926Y-17115520D01*
X33946777Y-17144675D01*
X33946712Y-17145000D01*
X33935664Y-17172797D01*
X33908750Y-17233208D01*
X33873219Y-17310100D01*
X33812204Y-17443905D01*
X33774123Y-17535940D01*
X33759439Y-17585032D01*
X33761164Y-17593183D01*
X33752607Y-17611993D01*
X33724794Y-17646044D01*
X33696357Y-17687039D01*
X33694052Y-17708985D01*
X33689016Y-17724868D01*
X33654039Y-17736037D01*
X33609978Y-17738428D01*
X33581552Y-17730901D01*
X33564084Y-17703134D01*
X33536790Y-17641320D01*
X33503698Y-17556897D01*
X33468838Y-17461306D01*
X33436238Y-17365985D01*
X33409928Y-17282375D01*
X33393936Y-17221915D01*
X33392291Y-17196044D01*
X33393090Y-17195800D01*
X33392060Y-17180232D01*
X33379215Y-17162056D01*
X33352428Y-17110788D01*
X33339892Y-17066806D01*
X33329439Y-17017545D01*
X33323512Y-16998950D01*
X33314886Y-16973550D01*
X33299340Y-16936709D01*
X33291162Y-16922750D01*
X33280109Y-16894721D01*
X33283687Y-16891000D01*
X33282305Y-16869029D01*
X33267044Y-16810954D01*
X33241065Y-16728526D01*
X33235900Y-16713200D01*
X33208052Y-16627802D01*
X33189797Y-16564826D01*
X33184500Y-16536045D01*
X33185106Y-16535400D01*
X33181729Y-16515958D01*
X33160277Y-16468896D01*
X33158861Y-16466152D01*
X33137811Y-16400613D01*
X33148361Y-16371478D01*
X33190407Y-16354230D01*
X33259780Y-16345689D01*
X33335949Y-16346048D01*
X33398384Y-16355496D01*
X33424056Y-16368923D01*
X33445052Y-16410594D01*
X33473139Y-16484701D01*
X33502753Y-16574482D01*
X33528329Y-16663174D01*
X33543275Y-16728087D01*
X33558525Y-16789795D01*
X33573061Y-16825720D01*
X33593071Y-16876116D01*
X33595179Y-16886633D01*
X33609550Y-16939108D01*
X33618759Y-16962833D01*
X33639868Y-17025668D01*
X33646690Y-17054557D01*
X33659201Y-17100197D01*
X33666513Y-17114179D01*
X33680997Y-17099363D01*
X33707267Y-17053248D01*
X33737694Y-16991477D01*
X33764647Y-16929696D01*
X33780497Y-16883548D01*
X33781552Y-16878300D01*
X33800408Y-16841286D01*
X33828259Y-16805783D01*
X33858335Y-16766731D01*
X33864727Y-16748704D01*
X33869688Y-16718886D01*
X33892610Y-16655103D01*
X33928827Y-16568874D01*
X33973674Y-16471717D01*
X33992272Y-16433800D01*
X34046742Y-16351751D01*
X34101895Y-16319993D01*
X34156165Y-16338067D01*
G36*
X36177641Y-16316203D02*
X36222650Y-16333410D01*
X36264629Y-16363751D01*
X36286545Y-16393289D01*
X36284458Y-16403608D01*
X36288983Y-16429896D01*
X36313181Y-16463488D01*
X36337608Y-16498030D01*
X36334700Y-16510000D01*
X36334025Y-16525613D01*
X36360100Y-16560800D01*
X36386859Y-16597355D01*
X36385500Y-16611600D01*
X36383875Y-16626957D01*
X36405153Y-16656050D01*
X36437286Y-16698230D01*
X36446899Y-16719671D01*
X36451916Y-16739548D01*
X36467153Y-16780216D01*
X36495765Y-16849491D01*
X36540907Y-16955194D01*
X36557032Y-16992600D01*
X36578194Y-17046364D01*
X36586571Y-17075150D01*
X36603303Y-17099996D01*
X36630277Y-17090348D01*
X36646989Y-17056100D01*
X36659000Y-16997474D01*
X36665692Y-16973283D01*
X36676662Y-16935373D01*
X36677907Y-16929186D01*
X36686669Y-16899866D01*
X36706616Y-16840772D01*
X36715575Y-16815153D01*
X36734401Y-16753158D01*
X36739487Y-16717001D01*
X36736863Y-16713200D01*
X36737253Y-16697722D01*
X36749391Y-16680411D01*
X36772395Y-16633724D01*
X36791100Y-16565188D01*
X36791900Y-16560799D01*
X36809993Y-16491844D01*
X36833026Y-16442938D01*
X36834408Y-16441188D01*
X36848570Y-16413500D01*
X36842700Y-16408400D01*
X36839472Y-16393095D01*
X36851272Y-16375273D01*
X36892477Y-16355961D01*
X36962807Y-16345899D01*
X37041303Y-16345847D01*
X37107004Y-16356564D01*
X37127090Y-16365276D01*
X37143072Y-16390485D01*
X37136239Y-16440545D01*
X37121867Y-16485258D01*
X37103197Y-16546891D01*
X37098328Y-16582611D01*
X37100936Y-16586200D01*
X37100589Y-16601660D01*
X37088615Y-16618738D01*
X37062694Y-16668641D01*
X37049637Y-16713988D01*
X37036591Y-16766342D01*
X37012190Y-16851558D01*
X36980906Y-16954225D01*
X36968785Y-16992600D01*
X36937366Y-17091878D01*
X36912047Y-17173364D01*
X36896725Y-17224458D01*
X36894189Y-17233900D01*
X36879679Y-17277940D01*
X36869980Y-17301766D01*
X36848535Y-17365584D01*
X36842687Y-17390666D01*
X36832896Y-17432749D01*
X36828768Y-17443450D01*
X36818674Y-17469987D01*
X36817300Y-17475200D01*
X36806984Y-17505164D01*
X36805831Y-17506950D01*
X36797437Y-17533829D01*
X36791912Y-17559733D01*
X36773578Y-17624906D01*
X36764300Y-17648633D01*
X36746875Y-17697051D01*
X36743293Y-17714078D01*
X36720122Y-17736958D01*
X36673732Y-17743971D01*
X36633535Y-17732802D01*
X36609875Y-17704438D01*
X36576724Y-17649876D01*
X36541155Y-17583122D01*
X36510243Y-17518187D01*
X36491062Y-17469077D01*
X36490608Y-17449800D01*
X36488693Y-17434075D01*
X36461700Y-17399000D01*
X36434940Y-17362444D01*
X36436300Y-17348200D01*
X36436974Y-17332586D01*
X36410900Y-17297400D01*
X36384140Y-17260844D01*
X36385500Y-17246600D01*
X36387124Y-17231242D01*
X36365846Y-17202150D01*
X36333713Y-17159969D01*
X36324100Y-17138528D01*
X36313933Y-17104838D01*
X36290473Y-17044472D01*
X36281979Y-17024228D01*
X36248495Y-16945005D01*
X36219084Y-16874203D01*
X36215573Y-16865600D01*
X36189768Y-16802100D01*
X36165453Y-16865600D01*
X36150142Y-16913426D01*
X36149019Y-16932783D01*
X36139984Y-16951635D01*
X36108513Y-16989933D01*
X36080383Y-17027695D01*
X36080700Y-17043400D01*
X36081374Y-17059013D01*
X36055300Y-17094200D01*
X36026547Y-17130941D01*
X36023782Y-17145000D01*
X36020840Y-17165759D01*
X35999510Y-17220391D01*
X35964310Y-17297425D01*
X35961255Y-17303750D01*
X35917794Y-17394596D01*
X35880005Y-17475720D01*
X35857613Y-17526000D01*
X35835961Y-17577407D01*
X35825411Y-17602200D01*
X35813916Y-17633898D01*
X35801884Y-17669701D01*
X35764620Y-17720630D01*
X35708269Y-17741698D01*
X35664584Y-17731044D01*
X35645590Y-17702867D01*
X35618438Y-17643675D01*
X35587933Y-17566792D01*
X35558881Y-17485542D01*
X35536086Y-17413250D01*
X35524354Y-17363241D01*
X35526523Y-17348200D01*
X35524973Y-17332381D01*
X35509200Y-17310100D01*
X35491467Y-17279382D01*
X35496500Y-17272000D01*
X35498784Y-17256372D01*
X35483800Y-17233900D01*
X35464055Y-17203037D01*
X35466309Y-17195800D01*
X35464564Y-17173463D01*
X35448848Y-17113031D01*
X35421934Y-17024367D01*
X35394900Y-16941800D01*
X35361166Y-16837941D01*
X35336463Y-16754606D01*
X35323564Y-16701658D01*
X35323490Y-16687800D01*
X35322460Y-16672232D01*
X35309615Y-16654056D01*
X35280510Y-16600056D01*
X35272160Y-16571506D01*
X35255003Y-16509794D01*
X35236480Y-16459200D01*
X35223066Y-16398518D01*
X35246882Y-16361928D01*
X35312349Y-16345704D01*
X35373021Y-16344189D01*
X35449420Y-16349377D01*
X35494724Y-16368200D01*
X35528505Y-16410575D01*
X35538622Y-16428115D01*
X35565467Y-16480847D01*
X35574546Y-16508699D01*
X35573310Y-16510000D01*
X35574050Y-16531202D01*
X35588956Y-16584548D01*
X35598100Y-16611600D01*
X35616872Y-16673468D01*
X35621882Y-16709473D01*
X35619263Y-16713200D01*
X35619610Y-16728660D01*
X35631584Y-16745738D01*
X35656509Y-16794680D01*
X35671036Y-16846919D01*
X35685987Y-16907637D01*
X35699700Y-16941800D01*
X35716177Y-16985139D01*
X35728402Y-17036896D01*
X35741144Y-17091196D01*
X35751736Y-17116603D01*
X35766216Y-17101920D01*
X35792106Y-17055717D01*
X35821967Y-16993645D01*
X35848360Y-16931357D01*
X35863846Y-16884506D01*
X35864989Y-16878300D01*
X35883326Y-16841325D01*
X35911059Y-16805783D01*
X35941720Y-16764157D01*
X35948654Y-16742283D01*
X35956597Y-16713534D01*
X35982109Y-16650346D01*
X36020516Y-16563955D01*
X36041807Y-16518289D01*
X36099237Y-16406426D01*
X36144728Y-16338245D01*
X36176697Y-16316102D01*
X36177641Y-16316203D01*
X36177641Y-16316203D01*
G37*
X36177641Y-16316203D02*
X36222650Y-16333410D01*
X36264629Y-16363751D01*
X36286545Y-16393289D01*
X36284458Y-16403608D01*
X36288983Y-16429896D01*
X36313181Y-16463488D01*
X36337608Y-16498030D01*
X36334700Y-16510000D01*
X36334025Y-16525613D01*
X36360100Y-16560800D01*
X36386859Y-16597355D01*
X36385500Y-16611600D01*
X36383875Y-16626957D01*
X36405153Y-16656050D01*
X36437286Y-16698230D01*
X36446899Y-16719671D01*
X36451916Y-16739548D01*
X36467153Y-16780216D01*
X36495765Y-16849491D01*
X36540907Y-16955194D01*
X36557032Y-16992600D01*
X36578194Y-17046364D01*
X36586571Y-17075150D01*
X36603303Y-17099996D01*
X36630277Y-17090348D01*
X36646989Y-17056100D01*
X36659000Y-16997474D01*
X36665692Y-16973283D01*
X36676662Y-16935373D01*
X36677907Y-16929186D01*
X36686669Y-16899866D01*
X36706616Y-16840772D01*
X36715575Y-16815153D01*
X36734401Y-16753158D01*
X36739487Y-16717001D01*
X36736863Y-16713200D01*
X36737253Y-16697722D01*
X36749391Y-16680411D01*
X36772395Y-16633724D01*
X36791100Y-16565188D01*
X36791900Y-16560799D01*
X36809993Y-16491844D01*
X36833026Y-16442938D01*
X36834408Y-16441188D01*
X36848570Y-16413500D01*
X36842700Y-16408400D01*
X36839472Y-16393095D01*
X36851272Y-16375273D01*
X36892477Y-16355961D01*
X36962807Y-16345899D01*
X37041303Y-16345847D01*
X37107004Y-16356564D01*
X37127090Y-16365276D01*
X37143072Y-16390485D01*
X37136239Y-16440545D01*
X37121867Y-16485258D01*
X37103197Y-16546891D01*
X37098328Y-16582611D01*
X37100936Y-16586200D01*
X37100589Y-16601660D01*
X37088615Y-16618738D01*
X37062694Y-16668641D01*
X37049637Y-16713988D01*
X37036591Y-16766342D01*
X37012190Y-16851558D01*
X36980906Y-16954225D01*
X36968785Y-16992600D01*
X36937366Y-17091878D01*
X36912047Y-17173364D01*
X36896725Y-17224458D01*
X36894189Y-17233900D01*
X36879679Y-17277940D01*
X36869980Y-17301766D01*
X36848535Y-17365584D01*
X36842687Y-17390666D01*
X36832896Y-17432749D01*
X36828768Y-17443450D01*
X36818674Y-17469987D01*
X36817300Y-17475200D01*
X36806984Y-17505164D01*
X36805831Y-17506950D01*
X36797437Y-17533829D01*
X36791912Y-17559733D01*
X36773578Y-17624906D01*
X36764300Y-17648633D01*
X36746875Y-17697051D01*
X36743293Y-17714078D01*
X36720122Y-17736958D01*
X36673732Y-17743971D01*
X36633535Y-17732802D01*
X36609875Y-17704438D01*
X36576724Y-17649876D01*
X36541155Y-17583122D01*
X36510243Y-17518187D01*
X36491062Y-17469077D01*
X36490608Y-17449800D01*
X36488693Y-17434075D01*
X36461700Y-17399000D01*
X36434940Y-17362444D01*
X36436300Y-17348200D01*
X36436974Y-17332586D01*
X36410900Y-17297400D01*
X36384140Y-17260844D01*
X36385500Y-17246600D01*
X36387124Y-17231242D01*
X36365846Y-17202150D01*
X36333713Y-17159969D01*
X36324100Y-17138528D01*
X36313933Y-17104838D01*
X36290473Y-17044472D01*
X36281979Y-17024228D01*
X36248495Y-16945005D01*
X36219084Y-16874203D01*
X36215573Y-16865600D01*
X36189768Y-16802100D01*
X36165453Y-16865600D01*
X36150142Y-16913426D01*
X36149019Y-16932783D01*
X36139984Y-16951635D01*
X36108513Y-16989933D01*
X36080383Y-17027695D01*
X36080700Y-17043400D01*
X36081374Y-17059013D01*
X36055300Y-17094200D01*
X36026547Y-17130941D01*
X36023782Y-17145000D01*
X36020840Y-17165759D01*
X35999510Y-17220391D01*
X35964310Y-17297425D01*
X35961255Y-17303750D01*
X35917794Y-17394596D01*
X35880005Y-17475720D01*
X35857613Y-17526000D01*
X35835961Y-17577407D01*
X35825411Y-17602200D01*
X35813916Y-17633898D01*
X35801884Y-17669701D01*
X35764620Y-17720630D01*
X35708269Y-17741698D01*
X35664584Y-17731044D01*
X35645590Y-17702867D01*
X35618438Y-17643675D01*
X35587933Y-17566792D01*
X35558881Y-17485542D01*
X35536086Y-17413250D01*
X35524354Y-17363241D01*
X35526523Y-17348200D01*
X35524973Y-17332381D01*
X35509200Y-17310100D01*
X35491467Y-17279382D01*
X35496500Y-17272000D01*
X35498784Y-17256372D01*
X35483800Y-17233900D01*
X35464055Y-17203037D01*
X35466309Y-17195800D01*
X35464564Y-17173463D01*
X35448848Y-17113031D01*
X35421934Y-17024367D01*
X35394900Y-16941800D01*
X35361166Y-16837941D01*
X35336463Y-16754606D01*
X35323564Y-16701658D01*
X35323490Y-16687800D01*
X35322460Y-16672232D01*
X35309615Y-16654056D01*
X35280510Y-16600056D01*
X35272160Y-16571506D01*
X35255003Y-16509794D01*
X35236480Y-16459200D01*
X35223066Y-16398518D01*
X35246882Y-16361928D01*
X35312349Y-16345704D01*
X35373021Y-16344189D01*
X35449420Y-16349377D01*
X35494724Y-16368200D01*
X35528505Y-16410575D01*
X35538622Y-16428115D01*
X35565467Y-16480847D01*
X35574546Y-16508699D01*
X35573310Y-16510000D01*
X35574050Y-16531202D01*
X35588956Y-16584548D01*
X35598100Y-16611600D01*
X35616872Y-16673468D01*
X35621882Y-16709473D01*
X35619263Y-16713200D01*
X35619610Y-16728660D01*
X35631584Y-16745738D01*
X35656509Y-16794680D01*
X35671036Y-16846919D01*
X35685987Y-16907637D01*
X35699700Y-16941800D01*
X35716177Y-16985139D01*
X35728402Y-17036896D01*
X35741144Y-17091196D01*
X35751736Y-17116603D01*
X35766216Y-17101920D01*
X35792106Y-17055717D01*
X35821967Y-16993645D01*
X35848360Y-16931357D01*
X35863846Y-16884506D01*
X35864989Y-16878300D01*
X35883326Y-16841325D01*
X35911059Y-16805783D01*
X35941720Y-16764157D01*
X35948654Y-16742283D01*
X35956597Y-16713534D01*
X35982109Y-16650346D01*
X36020516Y-16563955D01*
X36041807Y-16518289D01*
X36099237Y-16406426D01*
X36144728Y-16338245D01*
X36176697Y-16316102D01*
X36177641Y-16316203D01*
G36*
X37688922Y-17296367D02*
X37752925Y-17344277D01*
X37800172Y-17419318D01*
X37816472Y-17513529D01*
X37801571Y-17607077D01*
X37757162Y-17678340D01*
X37678597Y-17722784D01*
X37579778Y-17740912D01*
X37485872Y-17729163D01*
X37463582Y-17719880D01*
X37422384Y-17691089D01*
X37411606Y-17671142D01*
X37399473Y-17638882D01*
X37380013Y-17615185D01*
X37348427Y-17551576D01*
X37351883Y-17472687D01*
X37384186Y-17392898D01*
X37439139Y-17326593D01*
X37510545Y-17288154D01*
X37521957Y-17285736D01*
X37617965Y-17277704D01*
X37688922Y-17296367D01*
X37688922Y-17296367D01*
G37*
X37688922Y-17296367D02*
X37752925Y-17344277D01*
X37800172Y-17419318D01*
X37816472Y-17513529D01*
X37801571Y-17607077D01*
X37757162Y-17678340D01*
X37678597Y-17722784D01*
X37579778Y-17740912D01*
X37485872Y-17729163D01*
X37463582Y-17719880D01*
X37422384Y-17691089D01*
X37411606Y-17671142D01*
X37399473Y-17638882D01*
X37380013Y-17615185D01*
X37348427Y-17551576D01*
X37351883Y-17472687D01*
X37384186Y-17392898D01*
X37439139Y-17326593D01*
X37510545Y-17288154D01*
X37521957Y-17285736D01*
X37617965Y-17277704D01*
X37688922Y-17296367D01*
G36*
X45451779Y-17266540D02*
X45453257Y-17267724D01*
X45474904Y-17282301D01*
X45514220Y-17290285D01*
X45556399Y-17294225D01*
X45582714Y-17309338D01*
X45580300Y-17322800D01*
X45581191Y-17346254D01*
X45589531Y-17348200D01*
X45613207Y-17369812D01*
X45638917Y-17422887D01*
X45642592Y-17433441D01*
X45655089Y-17540609D01*
X45618250Y-17635811D01*
X45573756Y-17685753D01*
X45520905Y-17715825D01*
X45450562Y-17735960D01*
X45381710Y-17743092D01*
X45333332Y-17734154D01*
X45324345Y-17726037D01*
X45293677Y-17715147D01*
X45280094Y-17720157D01*
X45262916Y-17725089D01*
X45267620Y-17717868D01*
X45265422Y-17687492D01*
X45238247Y-17648058D01*
X45185655Y-17566815D01*
X45182270Y-17485345D01*
X45199666Y-17440525D01*
X45220073Y-17391241D01*
X45221648Y-17366315D01*
X45227858Y-17343758D01*
X45271882Y-17313373D01*
X45342976Y-17282248D01*
X45355890Y-17277759D01*
X45415228Y-17263935D01*
X45451779Y-17266540D01*
X45451779Y-17266540D01*
G37*
X45451779Y-17266540D02*
X45453257Y-17267724D01*
X45474904Y-17282301D01*
X45514220Y-17290285D01*
X45556399Y-17294225D01*
X45582714Y-17309338D01*
X45580300Y-17322800D01*
X45581191Y-17346254D01*
X45589531Y-17348200D01*
X45613207Y-17369812D01*
X45638917Y-17422887D01*
X45642592Y-17433441D01*
X45655089Y-17540609D01*
X45618250Y-17635811D01*
X45573756Y-17685753D01*
X45520905Y-17715825D01*
X45450562Y-17735960D01*
X45381710Y-17743092D01*
X45333332Y-17734154D01*
X45324345Y-17726037D01*
X45293677Y-17715147D01*
X45280094Y-17720157D01*
X45262916Y-17725089D01*
X45267620Y-17717868D01*
X45265422Y-17687492D01*
X45238247Y-17648058D01*
X45185655Y-17566815D01*
X45182270Y-17485345D01*
X45199666Y-17440525D01*
X45220073Y-17391241D01*
X45221648Y-17366315D01*
X45227858Y-17343758D01*
X45271882Y-17313373D01*
X45342976Y-17282248D01*
X45355890Y-17277759D01*
X45415228Y-17263935D01*
X45451779Y-17266540D01*
G36*
X46828662Y-16349573D02*
X46837600Y-16352402D01*
X46898280Y-16380539D01*
X46970133Y-16425785D01*
X47042493Y-16479554D01*
X47104693Y-16533263D01*
X47146068Y-16578327D01*
X47155951Y-16606163D01*
X47154787Y-16607678D01*
X47158468Y-16634050D01*
X47173257Y-16656275D01*
X47195013Y-16688095D01*
X47210294Y-16729443D01*
X47222333Y-16793400D01*
X47234365Y-16893047D01*
X47236300Y-16911228D01*
X47241799Y-16975856D01*
X47238779Y-17024512D01*
X47221176Y-17059444D01*
X47182923Y-17082898D01*
X47117956Y-17097122D01*
X47020208Y-17104362D01*
X46883615Y-17106866D01*
X46708120Y-17106894D01*
X46250813Y-17105834D01*
X46266123Y-17166834D01*
X46318962Y-17279242D01*
X46409313Y-17369736D01*
X46525321Y-17428382D01*
X46596302Y-17443523D01*
X46704646Y-17442096D01*
X46816623Y-17419072D01*
X46910196Y-17379875D01*
X46939780Y-17358973D01*
X46968884Y-17340077D01*
X46998100Y-17343776D01*
X47038202Y-17375581D01*
X47099806Y-17440831D01*
X47171512Y-17519955D01*
X47088917Y-17597147D01*
X47008352Y-17654992D01*
X46914849Y-17699305D01*
X46897033Y-17704938D01*
X46796330Y-17725120D01*
X46675942Y-17737999D01*
X46558958Y-17741931D01*
X46469300Y-17735418D01*
X46414278Y-17718250D01*
X46343309Y-17686092D01*
X46265796Y-17644749D01*
X46191142Y-17600021D01*
X46128751Y-17557713D01*
X46088025Y-17523626D01*
X46078368Y-17503563D01*
X46088776Y-17500600D01*
X46088970Y-17484800D01*
X46060763Y-17446468D01*
X46058057Y-17443450D01*
X45998685Y-17347673D01*
X45957007Y-17217736D01*
X45937097Y-17068421D01*
X45936255Y-17001439D01*
X45953096Y-16878808D01*
X46276352Y-16878808D01*
X46595129Y-16878808D01*
X46727012Y-16878390D01*
X46816157Y-16876258D01*
X46870624Y-16871092D01*
X46898473Y-16861573D01*
X46907765Y-16846381D01*
X46907056Y-16827754D01*
X46887098Y-16766818D01*
X46862229Y-16722500D01*
X46817576Y-16677650D01*
X46751725Y-16630426D01*
X46682968Y-16592128D01*
X46629597Y-16574055D01*
X46621700Y-16573919D01*
X46495215Y-16605220D01*
X46389792Y-16668059D01*
X46316402Y-16754409D01*
X46292088Y-16815054D01*
X46276352Y-16878808D01*
X45953096Y-16878808D01*
X45955074Y-16864408D01*
X46000126Y-16723482D01*
X46064097Y-16596231D01*
X46139672Y-16500230D01*
X46148032Y-16492635D01*
X46298095Y-16393979D01*
X46469800Y-16335573D01*
X46650779Y-16319933D01*
X46828662Y-16349573D01*
X46828662Y-16349573D01*
G37*
X46828662Y-16349573D02*
X46837600Y-16352402D01*
X46898280Y-16380539D01*
X46970133Y-16425785D01*
X47042493Y-16479554D01*
X47104693Y-16533263D01*
X47146068Y-16578327D01*
X47155951Y-16606163D01*
X47154787Y-16607678D01*
X47158468Y-16634050D01*
X47173257Y-16656275D01*
X47195013Y-16688095D01*
X47210294Y-16729443D01*
X47222333Y-16793400D01*
X47234365Y-16893047D01*
X47236300Y-16911228D01*
X47241799Y-16975856D01*
X47238779Y-17024512D01*
X47221176Y-17059444D01*
X47182923Y-17082898D01*
X47117956Y-17097122D01*
X47020208Y-17104362D01*
X46883615Y-17106866D01*
X46708120Y-17106894D01*
X46250813Y-17105834D01*
X46266123Y-17166834D01*
X46318962Y-17279242D01*
X46409313Y-17369736D01*
X46525321Y-17428382D01*
X46596302Y-17443523D01*
X46704646Y-17442096D01*
X46816623Y-17419072D01*
X46910196Y-17379875D01*
X46939780Y-17358973D01*
X46968884Y-17340077D01*
X46998100Y-17343776D01*
X47038202Y-17375581D01*
X47099806Y-17440831D01*
X47171512Y-17519955D01*
X47088917Y-17597147D01*
X47008352Y-17654992D01*
X46914849Y-17699305D01*
X46897033Y-17704938D01*
X46796330Y-17725120D01*
X46675942Y-17737999D01*
X46558958Y-17741931D01*
X46469300Y-17735418D01*
X46414278Y-17718250D01*
X46343309Y-17686092D01*
X46265796Y-17644749D01*
X46191142Y-17600021D01*
X46128751Y-17557713D01*
X46088025Y-17523626D01*
X46078368Y-17503563D01*
X46088776Y-17500600D01*
X46088970Y-17484800D01*
X46060763Y-17446468D01*
X46058057Y-17443450D01*
X45998685Y-17347673D01*
X45957007Y-17217736D01*
X45937097Y-17068421D01*
X45936255Y-17001439D01*
X45953096Y-16878808D01*
X46276352Y-16878808D01*
X46595129Y-16878808D01*
X46727012Y-16878390D01*
X46816157Y-16876258D01*
X46870624Y-16871092D01*
X46898473Y-16861573D01*
X46907765Y-16846381D01*
X46907056Y-16827754D01*
X46887098Y-16766818D01*
X46862229Y-16722500D01*
X46817576Y-16677650D01*
X46751725Y-16630426D01*
X46682968Y-16592128D01*
X46629597Y-16574055D01*
X46621700Y-16573919D01*
X46495215Y-16605220D01*
X46389792Y-16668059D01*
X46316402Y-16754409D01*
X46292088Y-16815054D01*
X46276352Y-16878808D01*
X45953096Y-16878808D01*
X45955074Y-16864408D01*
X46000126Y-16723482D01*
X46064097Y-16596231D01*
X46139672Y-16500230D01*
X46148032Y-16492635D01*
X46298095Y-16393979D01*
X46469800Y-16335573D01*
X46650779Y-16319933D01*
X46828662Y-16349573D01*
G36*
X47980600Y-16326375D02*
X48112233Y-16336281D01*
X48229040Y-16360518D01*
X48319030Y-16395657D01*
X48369821Y-16437644D01*
X48376424Y-16491987D01*
X48349356Y-16568950D01*
X48310713Y-16632921D01*
X48267315Y-16659382D01*
X48236785Y-16662400D01*
X48176440Y-16653610D01*
X48143216Y-16637056D01*
X48103596Y-16621573D01*
X48030181Y-16610395D01*
X47939911Y-16605192D01*
X47849722Y-16607637D01*
X47847250Y-16607842D01*
X47813348Y-16631257D01*
X47802931Y-16681225D01*
X47816817Y-16738836D01*
X47840134Y-16772306D01*
X47879471Y-16800194D01*
X47951558Y-16841803D01*
X48043021Y-16889559D01*
X48075084Y-16905333D01*
X48186508Y-16964609D01*
X48285214Y-17026856D01*
X48363194Y-17085937D01*
X48412441Y-17135709D01*
X48424949Y-17170032D01*
X48423697Y-17172669D01*
X48429292Y-17201598D01*
X48437385Y-17208243D01*
X48453163Y-17241357D01*
X48462293Y-17305742D01*
X48463200Y-17335500D01*
X48457781Y-17406875D01*
X48444157Y-17454660D01*
X48437385Y-17462756D01*
X48421114Y-17490653D01*
X48423697Y-17498330D01*
X48414277Y-17526306D01*
X48374902Y-17572128D01*
X48317398Y-17624743D01*
X48253589Y-17673096D01*
X48207303Y-17700617D01*
X48139842Y-17720500D01*
X48041579Y-17734199D01*
X47932281Y-17740368D01*
X47831715Y-17737665D01*
X47777400Y-17729843D01*
X47698939Y-17705233D01*
X47615350Y-17669303D01*
X47542150Y-17629893D01*
X47494856Y-17594844D01*
X47486213Y-17582721D01*
X47490020Y-17530677D01*
X47526347Y-17456114D01*
X47570199Y-17394403D01*
X47596266Y-17368809D01*
X47626222Y-17368156D01*
X47678235Y-17393274D01*
X47690074Y-17399884D01*
X47785013Y-17437589D01*
X47893128Y-17457582D01*
X47994090Y-17457633D01*
X48059039Y-17440361D01*
X48114075Y-17395157D01*
X48119400Y-17340467D01*
X48075169Y-17276499D01*
X47981537Y-17203462D01*
X47838658Y-17121565D01*
X47811857Y-17107962D01*
X47655062Y-17012438D01*
X47547825Y-16907132D01*
X47489702Y-16791220D01*
X47480247Y-16663877D01*
X47509439Y-16547865D01*
X47539229Y-16481272D01*
X47566004Y-16440179D01*
X47576010Y-16433800D01*
X47611046Y-16418773D01*
X47648891Y-16391097D01*
X47697974Y-16358084D01*
X47759514Y-16337882D01*
X47845886Y-16328078D01*
X47969467Y-16326256D01*
X47980600Y-16326375D01*
X47980600Y-16326375D01*
G37*
X47980600Y-16326375D02*
X48112233Y-16336281D01*
X48229040Y-16360518D01*
X48319030Y-16395657D01*
X48369821Y-16437644D01*
X48376424Y-16491987D01*
X48349356Y-16568950D01*
X48310713Y-16632921D01*
X48267315Y-16659382D01*
X48236785Y-16662400D01*
X48176440Y-16653610D01*
X48143216Y-16637056D01*
X48103596Y-16621573D01*
X48030181Y-16610395D01*
X47939911Y-16605192D01*
X47849722Y-16607637D01*
X47847250Y-16607842D01*
X47813348Y-16631257D01*
X47802931Y-16681225D01*
X47816817Y-16738836D01*
X47840134Y-16772306D01*
X47879471Y-16800194D01*
X47951558Y-16841803D01*
X48043021Y-16889559D01*
X48075084Y-16905333D01*
X48186508Y-16964609D01*
X48285214Y-17026856D01*
X48363194Y-17085937D01*
X48412441Y-17135709D01*
X48424949Y-17170032D01*
X48423697Y-17172669D01*
X48429292Y-17201598D01*
X48437385Y-17208243D01*
X48453163Y-17241357D01*
X48462293Y-17305742D01*
X48463200Y-17335500D01*
X48457781Y-17406875D01*
X48444157Y-17454660D01*
X48437385Y-17462756D01*
X48421114Y-17490653D01*
X48423697Y-17498330D01*
X48414277Y-17526306D01*
X48374902Y-17572128D01*
X48317398Y-17624743D01*
X48253589Y-17673096D01*
X48207303Y-17700617D01*
X48139842Y-17720500D01*
X48041579Y-17734199D01*
X47932281Y-17740368D01*
X47831715Y-17737665D01*
X47777400Y-17729843D01*
X47698939Y-17705233D01*
X47615350Y-17669303D01*
X47542150Y-17629893D01*
X47494856Y-17594844D01*
X47486213Y-17582721D01*
X47490020Y-17530677D01*
X47526347Y-17456114D01*
X47570199Y-17394403D01*
X47596266Y-17368809D01*
X47626222Y-17368156D01*
X47678235Y-17393274D01*
X47690074Y-17399884D01*
X47785013Y-17437589D01*
X47893128Y-17457582D01*
X47994090Y-17457633D01*
X48059039Y-17440361D01*
X48114075Y-17395157D01*
X48119400Y-17340467D01*
X48075169Y-17276499D01*
X47981537Y-17203462D01*
X47838658Y-17121565D01*
X47811857Y-17107962D01*
X47655062Y-17012438D01*
X47547825Y-16907132D01*
X47489702Y-16791220D01*
X47480247Y-16663877D01*
X47509439Y-16547865D01*
X47539229Y-16481272D01*
X47566004Y-16440179D01*
X47576010Y-16433800D01*
X47611046Y-16418773D01*
X47648891Y-16391097D01*
X47697974Y-16358084D01*
X47759514Y-16337882D01*
X47845886Y-16328078D01*
X47969467Y-16326256D01*
X47980600Y-16326375D01*
G36*
X38977523Y-15309376D02*
X39092014Y-15330046D01*
X39154100Y-15349442D01*
X39209712Y-15373391D01*
X39233241Y-15388569D01*
X39230300Y-15390999D01*
X39224322Y-15402927D01*
X39237245Y-15413705D01*
X39271932Y-15459904D01*
X39278988Y-15520760D01*
X39255612Y-15570232D01*
X39254205Y-15571440D01*
X39229524Y-15605504D01*
X39230300Y-15620999D01*
X39223629Y-15650825D01*
X39203445Y-15673007D01*
X39170402Y-15689194D01*
X39126425Y-15681442D01*
X39061624Y-15650485D01*
X38939279Y-15604613D01*
X38832107Y-15603213D01*
X38744915Y-15645111D01*
X38682513Y-15729134D01*
X38675862Y-15744607D01*
X38659917Y-15806249D01*
X38647456Y-15895120D01*
X38638849Y-15999244D01*
X38634469Y-16106641D01*
X38634686Y-16205336D01*
X38639872Y-16283350D01*
X38650397Y-16328707D01*
X38657554Y-16335375D01*
X38695115Y-16337489D01*
X38767531Y-16339938D01*
X38855650Y-16342113D01*
X38946848Y-16346418D01*
X39018819Y-16354217D01*
X39054956Y-16363431D01*
X39073186Y-16400452D01*
X39077956Y-16465161D01*
X39070742Y-16536693D01*
X39053019Y-16594180D01*
X39037268Y-16613702D01*
X38995385Y-16624896D01*
X38918806Y-16633083D01*
X38823615Y-16636586D01*
X38817550Y-16636611D01*
X38633400Y-16637000D01*
X38633400Y-17156200D01*
X38632541Y-17345069D01*
X38629777Y-17487976D01*
X38624823Y-17589731D01*
X38617397Y-17655146D01*
X38607215Y-17689033D01*
X38601650Y-17695283D01*
X38551441Y-17710334D01*
X38477493Y-17716421D01*
X38401054Y-17713665D01*
X38343367Y-17702187D01*
X38328687Y-17693727D01*
X38319894Y-17659730D01*
X38312697Y-17580354D01*
X38307351Y-17461002D01*
X38304109Y-17307077D01*
X38303200Y-17152620D01*
X38303200Y-16637000D01*
X38229077Y-16637000D01*
X38143453Y-16630683D01*
X38096589Y-16604339D01*
X38077436Y-16546871D01*
X38074600Y-16481882D01*
X38076156Y-16410923D01*
X38088641Y-16371850D01*
X38123775Y-16354909D01*
X38193282Y-16350349D01*
X38233350Y-16349807D01*
X38303200Y-16348949D01*
X38305403Y-16092924D01*
X38307900Y-15930919D01*
X38312696Y-15812187D01*
X38320555Y-15729224D01*
X38332241Y-15674529D01*
X38348518Y-15640597D01*
X38351913Y-15636214D01*
X38368843Y-15601621D01*
X38366034Y-15590700D01*
X38375891Y-15567766D01*
X38414193Y-15520167D01*
X38471642Y-15459242D01*
X38533090Y-15400756D01*
X38579599Y-15362007D01*
X38600883Y-15351416D01*
X38628365Y-15348774D01*
X38677297Y-15328035D01*
X38752492Y-15307577D01*
X38858458Y-15301622D01*
X38977523Y-15309376D01*
X38977523Y-15309376D01*
G37*
X38977523Y-15309376D02*
X39092014Y-15330046D01*
X39154100Y-15349442D01*
X39209712Y-15373391D01*
X39233241Y-15388569D01*
X39230300Y-15390999D01*
X39224322Y-15402927D01*
X39237245Y-15413705D01*
X39271932Y-15459904D01*
X39278988Y-15520760D01*
X39255612Y-15570232D01*
X39254205Y-15571440D01*
X39229524Y-15605504D01*
X39230300Y-15620999D01*
X39223629Y-15650825D01*
X39203445Y-15673007D01*
X39170402Y-15689194D01*
X39126425Y-15681442D01*
X39061624Y-15650485D01*
X38939279Y-15604613D01*
X38832107Y-15603213D01*
X38744915Y-15645111D01*
X38682513Y-15729134D01*
X38675862Y-15744607D01*
X38659917Y-15806249D01*
X38647456Y-15895120D01*
X38638849Y-15999244D01*
X38634469Y-16106641D01*
X38634686Y-16205336D01*
X38639872Y-16283350D01*
X38650397Y-16328707D01*
X38657554Y-16335375D01*
X38695115Y-16337489D01*
X38767531Y-16339938D01*
X38855650Y-16342113D01*
X38946848Y-16346418D01*
X39018819Y-16354217D01*
X39054956Y-16363431D01*
X39073186Y-16400452D01*
X39077956Y-16465161D01*
X39070742Y-16536693D01*
X39053019Y-16594180D01*
X39037268Y-16613702D01*
X38995385Y-16624896D01*
X38918806Y-16633083D01*
X38823615Y-16636586D01*
X38817550Y-16636611D01*
X38633400Y-16637000D01*
X38633400Y-17156200D01*
X38632541Y-17345069D01*
X38629777Y-17487976D01*
X38624823Y-17589731D01*
X38617397Y-17655146D01*
X38607215Y-17689033D01*
X38601650Y-17695283D01*
X38551441Y-17710334D01*
X38477493Y-17716421D01*
X38401054Y-17713665D01*
X38343367Y-17702187D01*
X38328687Y-17693727D01*
X38319894Y-17659730D01*
X38312697Y-17580354D01*
X38307351Y-17461002D01*
X38304109Y-17307077D01*
X38303200Y-17152620D01*
X38303200Y-16637000D01*
X38229077Y-16637000D01*
X38143453Y-16630683D01*
X38096589Y-16604339D01*
X38077436Y-16546871D01*
X38074600Y-16481882D01*
X38076156Y-16410923D01*
X38088641Y-16371850D01*
X38123775Y-16354909D01*
X38193282Y-16350349D01*
X38233350Y-16349807D01*
X38303200Y-16348949D01*
X38305403Y-16092924D01*
X38307900Y-15930919D01*
X38312696Y-15812187D01*
X38320555Y-15729224D01*
X38332241Y-15674529D01*
X38348518Y-15640597D01*
X38351913Y-15636214D01*
X38368843Y-15601621D01*
X38366034Y-15590700D01*
X38375891Y-15567766D01*
X38414193Y-15520167D01*
X38471642Y-15459242D01*
X38533090Y-15400756D01*
X38579599Y-15362007D01*
X38600883Y-15351416D01*
X38628365Y-15348774D01*
X38677297Y-15328035D01*
X38752492Y-15307577D01*
X38858458Y-15301622D01*
X38977523Y-15309376D01*
G36*
X40144413Y-16334735D02*
X40219794Y-16358999D01*
X40248755Y-16399016D01*
X40247792Y-16415859D01*
X40226612Y-16483041D01*
X40195292Y-16549481D01*
X40164427Y-16593528D01*
X40158552Y-16598187D01*
X40141451Y-16627238D01*
X40144406Y-16636525D01*
X40138985Y-16651735D01*
X40104818Y-16648913D01*
X40068500Y-16633727D01*
X40004056Y-16620839D01*
X39916246Y-16631931D01*
X39822816Y-16661173D01*
X39741515Y-16702731D01*
X39690088Y-16750775D01*
X39685396Y-16759611D01*
X39679067Y-16798177D01*
X39673335Y-16878240D01*
X39668615Y-16990496D01*
X39665321Y-17125643D01*
X39664025Y-17238489D01*
X39662109Y-17382687D01*
X39658453Y-17509023D01*
X39653465Y-17608813D01*
X39647558Y-17673372D01*
X39642493Y-17693772D01*
X39604232Y-17707800D01*
X39537079Y-17714974D01*
X39460068Y-17715341D01*
X39392235Y-17708947D01*
X39352614Y-17695839D01*
X39350124Y-17693059D01*
X39344348Y-17659311D01*
X39339614Y-17583447D01*
X39335924Y-17473915D01*
X39333278Y-17339164D01*
X39331678Y-17187642D01*
X39331127Y-17027798D01*
X39331625Y-16868079D01*
X39333174Y-16716935D01*
X39335775Y-16582814D01*
X39339430Y-16474164D01*
X39344140Y-16399434D01*
X39349887Y-16367100D01*
X39391049Y-16344326D01*
X39450208Y-16345898D01*
X39512680Y-16365792D01*
X39563779Y-16397986D01*
X39588819Y-16436458D01*
X39583587Y-16462941D01*
X39579482Y-16483940D01*
X39609138Y-16474749D01*
X39667214Y-16437604D01*
X39697244Y-16415389D01*
X39757205Y-16372040D01*
X39807852Y-16345911D01*
X39865476Y-16332591D01*
X39946365Y-16327670D01*
X40024220Y-16326865D01*
X40144413Y-16334735D01*
X40144413Y-16334735D01*
G37*
X40144413Y-16334735D02*
X40219794Y-16358999D01*
X40248755Y-16399016D01*
X40247792Y-16415859D01*
X40226612Y-16483041D01*
X40195292Y-16549481D01*
X40164427Y-16593528D01*
X40158552Y-16598187D01*
X40141451Y-16627238D01*
X40144406Y-16636525D01*
X40138985Y-16651735D01*
X40104818Y-16648913D01*
X40068500Y-16633727D01*
X40004056Y-16620839D01*
X39916246Y-16631931D01*
X39822816Y-16661173D01*
X39741515Y-16702731D01*
X39690088Y-16750775D01*
X39685396Y-16759611D01*
X39679067Y-16798177D01*
X39673335Y-16878240D01*
X39668615Y-16990496D01*
X39665321Y-17125643D01*
X39664025Y-17238489D01*
X39662109Y-17382687D01*
X39658453Y-17509023D01*
X39653465Y-17608813D01*
X39647558Y-17673372D01*
X39642493Y-17693772D01*
X39604232Y-17707800D01*
X39537079Y-17714974D01*
X39460068Y-17715341D01*
X39392235Y-17708947D01*
X39352614Y-17695839D01*
X39350124Y-17693059D01*
X39344348Y-17659311D01*
X39339614Y-17583447D01*
X39335924Y-17473915D01*
X39333278Y-17339164D01*
X39331678Y-17187642D01*
X39331127Y-17027798D01*
X39331625Y-16868079D01*
X39333174Y-16716935D01*
X39335775Y-16582814D01*
X39339430Y-16474164D01*
X39344140Y-16399434D01*
X39349887Y-16367100D01*
X39391049Y-16344326D01*
X39450208Y-16345898D01*
X39512680Y-16365792D01*
X39563779Y-16397986D01*
X39588819Y-16436458D01*
X39583587Y-16462941D01*
X39579482Y-16483940D01*
X39609138Y-16474749D01*
X39667214Y-16437604D01*
X39697244Y-16415389D01*
X39757205Y-16372040D01*
X39807852Y-16345911D01*
X39865476Y-16332591D01*
X39946365Y-16327670D01*
X40024220Y-16326865D01*
X40144413Y-16334735D01*
G36*
X40712800Y-16347234D02*
X40769174Y-16357711D01*
X40787162Y-16368913D01*
X40793467Y-16403426D01*
X40798382Y-16479375D01*
X40801953Y-16588487D01*
X40804225Y-16722490D01*
X40805241Y-16873111D01*
X40805048Y-17032077D01*
X40803689Y-17191116D01*
X40801210Y-17341953D01*
X40797656Y-17476317D01*
X40793072Y-17585934D01*
X40787502Y-17662532D01*
X40780991Y-17697838D01*
X40779948Y-17699054D01*
X40732616Y-17712144D01*
X40660590Y-17716722D01*
X40585295Y-17713217D01*
X40528160Y-17702056D01*
X40513087Y-17693727D01*
X40504101Y-17660109D01*
X40496960Y-17584665D01*
X40491627Y-17475747D01*
X40488062Y-17341705D01*
X40486225Y-17190887D01*
X40486077Y-17031646D01*
X40487579Y-16872330D01*
X40490691Y-16721290D01*
X40495373Y-16586876D01*
X40501587Y-16477437D01*
X40509293Y-16401325D01*
X40518452Y-16366888D01*
X40519350Y-16366116D01*
X40568006Y-16351229D01*
X40639116Y-16345004D01*
X40712800Y-16347234D01*
X40712800Y-16347234D01*
G37*
X40712800Y-16347234D02*
X40769174Y-16357711D01*
X40787162Y-16368913D01*
X40793467Y-16403426D01*
X40798382Y-16479375D01*
X40801953Y-16588487D01*
X40804225Y-16722490D01*
X40805241Y-16873111D01*
X40805048Y-17032077D01*
X40803689Y-17191116D01*
X40801210Y-17341953D01*
X40797656Y-17476317D01*
X40793072Y-17585934D01*
X40787502Y-17662532D01*
X40780991Y-17697838D01*
X40779948Y-17699054D01*
X40732616Y-17712144D01*
X40660590Y-17716722D01*
X40585295Y-17713217D01*
X40528160Y-17702056D01*
X40513087Y-17693727D01*
X40504101Y-17660109D01*
X40496960Y-17584665D01*
X40491627Y-17475747D01*
X40488062Y-17341705D01*
X40486225Y-17190887D01*
X40486077Y-17031646D01*
X40487579Y-16872330D01*
X40490691Y-16721290D01*
X40495373Y-16586876D01*
X40501587Y-16477437D01*
X40509293Y-16401325D01*
X40518452Y-16366888D01*
X40519350Y-16366116D01*
X40568006Y-16351229D01*
X40639116Y-16345004D01*
X40712800Y-16347234D01*
G36*
X41904206Y-16346606D02*
X42016408Y-16349966D01*
X42101536Y-16355163D01*
X42149858Y-16362251D01*
X42155387Y-16364530D01*
X42173804Y-16382334D01*
X42177649Y-16409232D01*
X42164076Y-16452480D01*
X42130241Y-16519331D01*
X42073298Y-16617042D01*
X42025507Y-16695703D01*
X41992700Y-16751557D01*
X41974803Y-16786396D01*
X41973864Y-16789400D01*
X41959952Y-16816070D01*
X41926406Y-16870997D01*
X41897300Y-16916400D01*
X41855436Y-16982349D01*
X41827645Y-17029428D01*
X41821100Y-17043400D01*
X41807531Y-17070311D01*
X41774755Y-17124988D01*
X41750406Y-17163545D01*
X41710550Y-17229817D01*
X41685623Y-17279374D01*
X41681400Y-17293785D01*
X41664000Y-17327337D01*
X41643300Y-17348200D01*
X41611807Y-17381777D01*
X41615831Y-17404316D01*
X41659593Y-17417648D01*
X41747316Y-17423604D01*
X41819022Y-17424400D01*
X41922543Y-17426160D01*
X42009405Y-17430842D01*
X42064769Y-17437545D01*
X42073022Y-17439817D01*
X42096744Y-17470874D01*
X42110975Y-17530472D01*
X42115154Y-17600812D01*
X42108718Y-17664092D01*
X42091107Y-17702510D01*
X42081450Y-17706879D01*
X42046513Y-17708108D01*
X41969880Y-17709561D01*
X41860654Y-17711106D01*
X41727938Y-17712608D01*
X41620099Y-17713615D01*
X41445646Y-17713882D01*
X41316955Y-17711098D01*
X41229059Y-17704960D01*
X41176996Y-17695166D01*
X41158810Y-17685581D01*
X41138765Y-17634028D01*
X41152676Y-17570798D01*
X41188844Y-17523721D01*
X41219432Y-17483234D01*
X41224200Y-17464179D01*
X41240210Y-17425209D01*
X41275989Y-17378389D01*
X41306970Y-17339802D01*
X41310758Y-17322836D01*
X41310152Y-17322800D01*
X41311652Y-17307093D01*
X41338500Y-17272000D01*
X41366476Y-17235330D01*
X41367653Y-17221200D01*
X41372018Y-17202544D01*
X41400109Y-17153923D01*
X41440100Y-17094200D01*
X41484668Y-17028053D01*
X41511940Y-16982116D01*
X41516300Y-16967200D01*
X41522646Y-16948488D01*
X41552187Y-16899736D01*
X41592500Y-16840200D01*
X41636592Y-16774124D01*
X41662749Y-16728194D01*
X41665773Y-16713200D01*
X41664962Y-16697806D01*
X41676728Y-16680728D01*
X41680449Y-16664909D01*
X41654868Y-16655324D01*
X41592928Y-16650872D01*
X41487574Y-16650453D01*
X41482988Y-16650498D01*
X41348598Y-16649629D01*
X41257009Y-16641391D01*
X41200361Y-16622167D01*
X41170795Y-16588340D01*
X41160450Y-16536291D01*
X41160038Y-16501860D01*
X41164924Y-16429251D01*
X41174671Y-16378007D01*
X41178203Y-16369958D01*
X41207430Y-16361978D01*
X41277706Y-16355456D01*
X41379299Y-16350445D01*
X41502477Y-16347001D01*
X41637509Y-16345177D01*
X41774663Y-16345027D01*
X41904206Y-16346606D01*
X41904206Y-16346606D01*
G37*
X41904206Y-16346606D02*
X42016408Y-16349966D01*
X42101536Y-16355163D01*
X42149858Y-16362251D01*
X42155387Y-16364530D01*
X42173804Y-16382334D01*
X42177649Y-16409232D01*
X42164076Y-16452480D01*
X42130241Y-16519331D01*
X42073298Y-16617042D01*
X42025507Y-16695703D01*
X41992700Y-16751557D01*
X41974803Y-16786396D01*
X41973864Y-16789400D01*
X41959952Y-16816070D01*
X41926406Y-16870997D01*
X41897300Y-16916400D01*
X41855436Y-16982349D01*
X41827645Y-17029428D01*
X41821100Y-17043400D01*
X41807531Y-17070311D01*
X41774755Y-17124988D01*
X41750406Y-17163545D01*
X41710550Y-17229817D01*
X41685623Y-17279374D01*
X41681400Y-17293785D01*
X41664000Y-17327337D01*
X41643300Y-17348200D01*
X41611807Y-17381777D01*
X41615831Y-17404316D01*
X41659593Y-17417648D01*
X41747316Y-17423604D01*
X41819022Y-17424400D01*
X41922543Y-17426160D01*
X42009405Y-17430842D01*
X42064769Y-17437545D01*
X42073022Y-17439817D01*
X42096744Y-17470874D01*
X42110975Y-17530472D01*
X42115154Y-17600812D01*
X42108718Y-17664092D01*
X42091107Y-17702510D01*
X42081450Y-17706879D01*
X42046513Y-17708108D01*
X41969880Y-17709561D01*
X41860654Y-17711106D01*
X41727938Y-17712608D01*
X41620099Y-17713615D01*
X41445646Y-17713882D01*
X41316955Y-17711098D01*
X41229059Y-17704960D01*
X41176996Y-17695166D01*
X41158810Y-17685581D01*
X41138765Y-17634028D01*
X41152676Y-17570798D01*
X41188844Y-17523721D01*
X41219432Y-17483234D01*
X41224200Y-17464179D01*
X41240210Y-17425209D01*
X41275989Y-17378389D01*
X41306970Y-17339802D01*
X41310758Y-17322836D01*
X41310152Y-17322800D01*
X41311652Y-17307093D01*
X41338500Y-17272000D01*
X41366476Y-17235330D01*
X41367653Y-17221200D01*
X41372018Y-17202544D01*
X41400109Y-17153923D01*
X41440100Y-17094200D01*
X41484668Y-17028053D01*
X41511940Y-16982116D01*
X41516300Y-16967200D01*
X41522646Y-16948488D01*
X41552187Y-16899736D01*
X41592500Y-16840200D01*
X41636592Y-16774124D01*
X41662749Y-16728194D01*
X41665773Y-16713200D01*
X41664962Y-16697806D01*
X41676728Y-16680728D01*
X41680449Y-16664909D01*
X41654868Y-16655324D01*
X41592928Y-16650872D01*
X41487574Y-16650453D01*
X41482988Y-16650498D01*
X41348598Y-16649629D01*
X41257009Y-16641391D01*
X41200361Y-16622167D01*
X41170795Y-16588340D01*
X41160450Y-16536291D01*
X41160038Y-16501860D01*
X41164924Y-16429251D01*
X41174671Y-16378007D01*
X41178203Y-16369958D01*
X41207430Y-16361978D01*
X41277706Y-16355456D01*
X41379299Y-16350445D01*
X41502477Y-16347001D01*
X41637509Y-16345177D01*
X41774663Y-16345027D01*
X41904206Y-16346606D01*
G36*
X43087938Y-16345313D02*
X43226249Y-16348790D01*
X43323131Y-16357198D01*
X43383261Y-16372410D01*
X43411317Y-16396300D01*
X43411977Y-16430741D01*
X43389920Y-16477607D01*
X43357977Y-16526897D01*
X43318847Y-16589191D01*
X43297848Y-16632658D01*
X43296994Y-16643928D01*
X43289827Y-16666616D01*
X43269513Y-16687290D01*
X43237231Y-16724334D01*
X43230800Y-16742214D01*
X43218040Y-16775247D01*
X43185508Y-16834134D01*
X43161793Y-16872454D01*
X43121854Y-16936480D01*
X43096112Y-16981256D01*
X43091100Y-16992600D01*
X43077634Y-17019724D01*
X43045381Y-17074128D01*
X43024900Y-17106900D01*
X42982222Y-17176045D01*
X42949893Y-17231831D01*
X42942198Y-17246600D01*
X42916094Y-17296942D01*
X42887643Y-17348200D01*
X42851278Y-17411700D01*
X43343864Y-17437100D01*
X43345868Y-17559318D01*
X43341905Y-17634354D01*
X43329572Y-17686592D01*
X43321086Y-17698534D01*
X43284655Y-17705985D01*
X43208840Y-17711407D01*
X43103719Y-17714879D01*
X42979367Y-17716476D01*
X42845862Y-17716277D01*
X42713280Y-17714356D01*
X42591697Y-17710792D01*
X42491191Y-17705662D01*
X42421839Y-17699042D01*
X42394001Y-17691460D01*
X42380028Y-17639221D01*
X42395256Y-17579774D01*
X42422661Y-17547981D01*
X42440157Y-17529706D01*
X42433113Y-17526388D01*
X42431064Y-17510469D01*
X42458348Y-17472716D01*
X42458513Y-17472533D01*
X42492831Y-17428532D01*
X42504239Y-17402683D01*
X42515271Y-17373444D01*
X42546290Y-17317819D01*
X42566896Y-17284700D01*
X42605646Y-17222482D01*
X42629950Y-17179751D01*
X42633900Y-17170400D01*
X42647603Y-17143736D01*
X42681008Y-17088823D01*
X42710100Y-17043400D01*
X42751963Y-16977450D01*
X42779754Y-16930371D01*
X42786300Y-16916400D01*
X42799874Y-16889356D01*
X42832423Y-16835105D01*
X42853303Y-16802100D01*
X42892815Y-16736771D01*
X42918058Y-16687711D01*
X42922310Y-16675100D01*
X42900220Y-16662648D01*
X42834774Y-16653965D01*
X42733332Y-16649897D01*
X42701303Y-16649700D01*
X42573368Y-16645795D01*
X42483149Y-16634608D01*
X42438533Y-16618100D01*
X42416686Y-16574540D01*
X42405946Y-16504067D01*
X42407226Y-16429536D01*
X42421442Y-16373804D01*
X42428369Y-16364164D01*
X42458485Y-16358263D01*
X42530951Y-16353041D01*
X42637319Y-16348839D01*
X42769139Y-16346001D01*
X42903518Y-16344893D01*
X43087938Y-16345313D01*
X43087938Y-16345313D01*
G37*
X43087938Y-16345313D02*
X43226249Y-16348790D01*
X43323131Y-16357198D01*
X43383261Y-16372410D01*
X43411317Y-16396300D01*
X43411977Y-16430741D01*
X43389920Y-16477607D01*
X43357977Y-16526897D01*
X43318847Y-16589191D01*
X43297848Y-16632658D01*
X43296994Y-16643928D01*
X43289827Y-16666616D01*
X43269513Y-16687290D01*
X43237231Y-16724334D01*
X43230800Y-16742214D01*
X43218040Y-16775247D01*
X43185508Y-16834134D01*
X43161793Y-16872454D01*
X43121854Y-16936480D01*
X43096112Y-16981256D01*
X43091100Y-16992600D01*
X43077634Y-17019724D01*
X43045381Y-17074128D01*
X43024900Y-17106900D01*
X42982222Y-17176045D01*
X42949893Y-17231831D01*
X42942198Y-17246600D01*
X42916094Y-17296942D01*
X42887643Y-17348200D01*
X42851278Y-17411700D01*
X43343864Y-17437100D01*
X43345868Y-17559318D01*
X43341905Y-17634354D01*
X43329572Y-17686592D01*
X43321086Y-17698534D01*
X43284655Y-17705985D01*
X43208840Y-17711407D01*
X43103719Y-17714879D01*
X42979367Y-17716476D01*
X42845862Y-17716277D01*
X42713280Y-17714356D01*
X42591697Y-17710792D01*
X42491191Y-17705662D01*
X42421839Y-17699042D01*
X42394001Y-17691460D01*
X42380028Y-17639221D01*
X42395256Y-17579774D01*
X42422661Y-17547981D01*
X42440157Y-17529706D01*
X42433113Y-17526388D01*
X42431064Y-17510469D01*
X42458348Y-17472716D01*
X42458513Y-17472533D01*
X42492831Y-17428532D01*
X42504239Y-17402683D01*
X42515271Y-17373444D01*
X42546290Y-17317819D01*
X42566896Y-17284700D01*
X42605646Y-17222482D01*
X42629950Y-17179751D01*
X42633900Y-17170400D01*
X42647603Y-17143736D01*
X42681008Y-17088823D01*
X42710100Y-17043400D01*
X42751963Y-16977450D01*
X42779754Y-16930371D01*
X42786300Y-16916400D01*
X42799874Y-16889356D01*
X42832423Y-16835105D01*
X42853303Y-16802100D01*
X42892815Y-16736771D01*
X42918058Y-16687711D01*
X42922310Y-16675100D01*
X42900220Y-16662648D01*
X42834774Y-16653965D01*
X42733332Y-16649897D01*
X42701303Y-16649700D01*
X42573368Y-16645795D01*
X42483149Y-16634608D01*
X42438533Y-16618100D01*
X42416686Y-16574540D01*
X42405946Y-16504067D01*
X42407226Y-16429536D01*
X42421442Y-16373804D01*
X42428369Y-16364164D01*
X42458485Y-16358263D01*
X42530951Y-16353041D01*
X42637319Y-16348839D01*
X42769139Y-16346001D01*
X42903518Y-16344893D01*
X43087938Y-16345313D01*
G36*
X40673867Y-15402630D02*
X40758069Y-15430742D01*
X40807634Y-15483713D01*
X40833937Y-15573765D01*
X40834104Y-15574794D01*
X40826061Y-15658195D01*
X40781544Y-15727296D01*
X40713027Y-15775733D01*
X40632981Y-15797146D01*
X40553879Y-15785171D01*
X40498485Y-15745995D01*
X40469776Y-15692119D01*
X40452014Y-15618708D01*
X40451450Y-15613463D01*
X40454360Y-15540832D01*
X40487232Y-15482777D01*
X40514273Y-15454680D01*
X40571993Y-15409179D01*
X40627066Y-15396881D01*
X40673867Y-15402630D01*
X40673867Y-15402630D01*
G37*
X40673867Y-15402630D02*
X40758069Y-15430742D01*
X40807634Y-15483713D01*
X40833937Y-15573765D01*
X40834104Y-15574794D01*
X40826061Y-15658195D01*
X40781544Y-15727296D01*
X40713027Y-15775733D01*
X40632981Y-15797146D01*
X40553879Y-15785171D01*
X40498485Y-15745995D01*
X40469776Y-15692119D01*
X40452014Y-15618708D01*
X40451450Y-15613463D01*
X40454360Y-15540832D01*
X40487232Y-15482777D01*
X40514273Y-15454680D01*
X40571993Y-15409179D01*
X40627066Y-15396881D01*
X40673867Y-15402630D01*
D14*
X4301000Y-8419000D02*
X4301000Y-8869000D01*
X2451000Y-8419000D02*
X4301000Y-8419000D01*
X-99000Y-16219000D02*
X151000Y-16219000D01*
X-99000Y-8419000D02*
X151000Y-8419000D01*
X2451000Y-16219000D02*
X4301000Y-16219000D01*
X4301000Y-16219000D02*
X4301000Y-15769000D01*
X4851000Y-10619000D02*
X4851000Y-11069000D01*
X4851000Y-10619000D02*
X4401000Y-10619000D01*
M02*
