%TF.GenerationSoftware,KiCad,Pcbnew,4.0.7*%
%TF.CreationDate,2018-07-15T20:27:14+02:00*%
%TF.ProjectId,Grape,47726170652E6B696361645F70636200,rev?*%
%TF.FileFunction,Copper,L1,Top,Signal*%
%FSLAX46Y46*%
G04 Gerber Fmt 4.6, Leading zero omitted, Abs format (unit mm)*
G04 Created by KiCad (PCBNEW 4.0.7) date 07/15/18 20:27:14*
%MOMM*%
%LPD*%
G01*
G04 APERTURE LIST*
%ADD10C,0.150000*%
%ADD11C,0.200000*%
%ADD12C,0.254000*%
%ADD13C,1.000000*%
%ADD14C,1.930400*%
%ADD15R,1.000000X1.250000*%
%ADD16R,1.950000X1.500000*%
%ADD17R,0.800000X0.750000*%
%ADD18R,3.500000X1.600000*%
%ADD19R,1.600000X3.500000*%
%ADD20R,1.250000X1.000000*%
%ADD21R,2.500000X1.800000*%
%ADD22R,0.800000X0.800000*%
%ADD23C,4.800000*%
%ADD24R,4.800000X4.800000*%
%ADD25R,3.000000X7.500000*%
%ADD26R,0.700000X1.300000*%
%ADD27R,1.200000X1.200000*%
%ADD28R,1.700000X1.700000*%
%ADD29O,1.700000X1.700000*%
%ADD30R,1.700000X1.200000*%
%ADD31O,1.700000X1.200000*%
%ADD32R,0.700000X0.450000*%
%ADD33R,0.900000X0.800000*%
%ADD34R,1.300000X0.700000*%
%ADD35C,2.100000*%
%ADD36C,1.750000*%
%ADD37R,1.500000X0.700000*%
%ADD38R,0.800000X1.000000*%
%ADD39R,0.406400X1.270000*%
%ADD40R,1.550000X0.600000*%
%ADD41R,2.000000X3.800000*%
%ADD42R,2.000000X1.500000*%
%ADD43R,2.950000X4.500000*%
%ADD44R,1.200000X1.600000*%
%ADD45C,0.600000*%
%ADD46C,0.449580*%
%ADD47R,1.900000X1.500000*%
%ADD48C,1.450000*%
%ADD49R,1.350000X0.400000*%
%ADD50O,1.900000X1.200000*%
%ADD51R,1.900000X1.200000*%
%ADD52C,0.685800*%
%ADD53C,0.800000*%
%ADD54C,0.152400*%
%ADD55C,0.300000*%
%ADD56C,0.600000*%
G04 APERTURE END LIST*
D10*
D11*
X984429Y-51982714D02*
X1222524Y-52649381D01*
X1460620Y-51982714D01*
X1793953Y-51744619D02*
X1841572Y-51697000D01*
X1936810Y-51649381D01*
X2174906Y-51649381D01*
X2270144Y-51697000D01*
X2317763Y-51744619D01*
X2365382Y-51839857D01*
X2365382Y-51935095D01*
X2317763Y-52077952D01*
X1746334Y-52649381D01*
X2365382Y-52649381D01*
X2793953Y-52554143D02*
X2841572Y-52601762D01*
X2793953Y-52649381D01*
X2746334Y-52601762D01*
X2793953Y-52554143D01*
X2793953Y-52649381D01*
X3460619Y-51649381D02*
X3555858Y-51649381D01*
X3651096Y-51697000D01*
X3698715Y-51744619D01*
X3746334Y-51839857D01*
X3793953Y-52030333D01*
X3793953Y-52268429D01*
X3746334Y-52458905D01*
X3698715Y-52554143D01*
X3651096Y-52601762D01*
X3555858Y-52649381D01*
X3460619Y-52649381D01*
X3365381Y-52601762D01*
X3317762Y-52554143D01*
X3270143Y-52458905D01*
X3222524Y-52268429D01*
X3222524Y-52030333D01*
X3270143Y-51839857D01*
X3317762Y-51744619D01*
X3365381Y-51697000D01*
X3460619Y-51649381D01*
D12*
X51266736Y-20024736D02*
X50548316Y-20743157D01*
X51985157Y-19306316D02*
X51266736Y-20024736D01*
X49571264Y-18329264D02*
X48852843Y-19047684D01*
X49571264Y-18329264D02*
X50289684Y-17610843D01*
X50419000Y-19177000D02*
X49700580Y-19895420D01*
X50419000Y-19177000D02*
X51137420Y-18458580D01*
D13*
X11557000Y-2413000D03*
X6731000Y-30607000D03*
D14*
X35687000Y-50927000D03*
X38227000Y-50927000D03*
X50927000Y-50927000D03*
X53467000Y-50927000D03*
X56007000Y-50927000D03*
X58547000Y-50927000D03*
X61087000Y-50927000D03*
X63627000Y-50927000D03*
X24003000Y-2667000D03*
X63627000Y-2667000D03*
X61087000Y-2667000D03*
X58547000Y-2667000D03*
X56007000Y-2667000D03*
X53467000Y-2667000D03*
X50927000Y-2667000D03*
X48387000Y-2667000D03*
X45847000Y-2667000D03*
X41783000Y-2667000D03*
X39243000Y-2667000D03*
X36703000Y-2667000D03*
X34163000Y-2667000D03*
X31623000Y-2667000D03*
X29083000Y-2667000D03*
X40767000Y-50927000D03*
X43307000Y-50927000D03*
X26543000Y-2667000D03*
X66306700Y-28115260D03*
X30607000Y-50927000D03*
X63766700Y-23037800D03*
X66306700Y-25577800D03*
X28067000Y-50927000D03*
X33147000Y-50927000D03*
X63766700Y-28115260D03*
X63766700Y-25577800D03*
X18923000Y-2667000D03*
X21463000Y-2667000D03*
X66306700Y-23037800D03*
X45847000Y-50927000D03*
D15*
X18145000Y-8509000D03*
X16145000Y-8509000D03*
X8239000Y-16129000D03*
X6239000Y-16129000D03*
D16*
X7852000Y-23241000D03*
X5102000Y-23241000D03*
D15*
X6239000Y-9779000D03*
X8239000Y-9779000D03*
D17*
X38596000Y-39243000D03*
X37096000Y-39243000D03*
X28055000Y-19939000D03*
X26555000Y-19939000D03*
D18*
X26129000Y-42291000D03*
X31529000Y-42291000D03*
D15*
X32909000Y-30734000D03*
X34909000Y-30734000D03*
D19*
X14859000Y-31336000D03*
X14859000Y-36736000D03*
D15*
X32909000Y-28829000D03*
X34909000Y-28829000D03*
X32909000Y-25019000D03*
X34909000Y-25019000D03*
D17*
X38596000Y-45974000D03*
X37096000Y-45974000D03*
X38596000Y-43688000D03*
X37096000Y-43688000D03*
X38596000Y-41529000D03*
X37096000Y-41529000D03*
D15*
X32909000Y-35179000D03*
X34909000Y-35179000D03*
D20*
X19304000Y-36560000D03*
X19304000Y-34560000D03*
D15*
X9541000Y-14224000D03*
X11541000Y-14224000D03*
X9541000Y-11684000D03*
X11541000Y-11684000D03*
X15605000Y-28448000D03*
X13605000Y-28448000D03*
X11954000Y-18034000D03*
X13954000Y-18034000D03*
X12335000Y-39624000D03*
X14335000Y-39624000D03*
D21*
X10382000Y-27432000D03*
X6382000Y-27432000D03*
D22*
X27559000Y-9690000D03*
X27559000Y-8090000D03*
X58890000Y-20574000D03*
X60490000Y-20574000D03*
D19*
X8155000Y-19685000D03*
X3275000Y-19685000D03*
D23*
X5711000Y-45339000D03*
D24*
X11811000Y-45339000D03*
D23*
X8001000Y-50419000D03*
D25*
X17693000Y-42164000D03*
X22693000Y-42164000D03*
D26*
X32959000Y-33020000D03*
X34859000Y-33020000D03*
D27*
X24595000Y-12573000D03*
X22395000Y-12573000D03*
X24595000Y-14478000D03*
X22395000Y-14478000D03*
D28*
X63500000Y-12319000D03*
D29*
X63500000Y-9779000D03*
X63500000Y-7239000D03*
D28*
X50800000Y-12319000D03*
D29*
X50800000Y-9779000D03*
X50800000Y-7239000D03*
D28*
X38100000Y-12319000D03*
D29*
X38100000Y-9779000D03*
X38100000Y-7239000D03*
D28*
X41910000Y-40894000D03*
D29*
X41910000Y-43434000D03*
X41910000Y-45974000D03*
D28*
X59690000Y-40894000D03*
D29*
X59690000Y-43434000D03*
X59690000Y-45974000D03*
D28*
X60960000Y-12319000D03*
D29*
X60960000Y-9779000D03*
X60960000Y-7239000D03*
D28*
X48260000Y-12319000D03*
D29*
X48260000Y-9779000D03*
X48260000Y-7239000D03*
D28*
X35560000Y-12319000D03*
D29*
X35560000Y-9779000D03*
X35560000Y-7239000D03*
D28*
X44450000Y-40894000D03*
D29*
X44450000Y-43434000D03*
X44450000Y-45974000D03*
D28*
X57150000Y-40894000D03*
D29*
X57150000Y-43434000D03*
X57150000Y-45974000D03*
D28*
X58420000Y-12319000D03*
D29*
X58420000Y-9779000D03*
X58420000Y-7239000D03*
D28*
X45720000Y-12319000D03*
D29*
X45720000Y-9779000D03*
X45720000Y-7239000D03*
D28*
X33020000Y-12319000D03*
D29*
X33020000Y-9779000D03*
X33020000Y-7239000D03*
D28*
X46990000Y-40894000D03*
D29*
X46990000Y-43434000D03*
X46990000Y-45974000D03*
D28*
X55880000Y-12319000D03*
D29*
X55880000Y-9779000D03*
X55880000Y-7239000D03*
D28*
X43180000Y-12319000D03*
D29*
X43180000Y-9779000D03*
X43180000Y-7239000D03*
D28*
X30480000Y-12319000D03*
D29*
X30480000Y-9779000D03*
X30480000Y-7239000D03*
D28*
X49530000Y-40894000D03*
D29*
X49530000Y-43434000D03*
X49530000Y-45974000D03*
D28*
X53340000Y-12319000D03*
D29*
X53340000Y-9779000D03*
X53340000Y-7239000D03*
D28*
X40640000Y-12319000D03*
D29*
X40640000Y-9779000D03*
X40640000Y-7239000D03*
D28*
X52070000Y-40894000D03*
D29*
X52070000Y-43434000D03*
X52070000Y-45974000D03*
D28*
X54610000Y-40894000D03*
D29*
X54610000Y-43434000D03*
X54610000Y-45974000D03*
D30*
X63500000Y-38989000D03*
D31*
X63500000Y-36989000D03*
X63500000Y-34989000D03*
X63500000Y-32989000D03*
D32*
X23130000Y-17384000D03*
X23130000Y-18684000D03*
X25130000Y-18034000D03*
D33*
X23860000Y-23175000D03*
X23860000Y-21275000D03*
X21860000Y-22225000D03*
X23860000Y-26731000D03*
X23860000Y-24831000D03*
X21860000Y-25781000D03*
D26*
X26228000Y-14478000D03*
X28128000Y-14478000D03*
D34*
X25654000Y-7940000D03*
X25654000Y-9840000D03*
X34861500Y-43119000D03*
X34861500Y-45019000D03*
D26*
X26228000Y-12573000D03*
X28128000Y-12573000D03*
D34*
X63119000Y-15814000D03*
X63119000Y-17714000D03*
X60960000Y-15814000D03*
X60960000Y-17714000D03*
X26924000Y-36388000D03*
X26924000Y-38288000D03*
D26*
X58740000Y-22479000D03*
X60640000Y-22479000D03*
D34*
X37211000Y-31430000D03*
X37211000Y-29530000D03*
X28448000Y-38288000D03*
X28448000Y-36388000D03*
D26*
X34859000Y-26924000D03*
X32959000Y-26924000D03*
X8189000Y-11684000D03*
X6289000Y-11684000D03*
X8189000Y-14224000D03*
X6289000Y-14224000D03*
D34*
X21209000Y-19111000D03*
X21209000Y-17211000D03*
D26*
X26355000Y-17780000D03*
X28255000Y-17780000D03*
X26355000Y-26543000D03*
X28255000Y-26543000D03*
X13655000Y-26543000D03*
X15555000Y-26543000D03*
X17211000Y-26543000D03*
X19111000Y-26543000D03*
X26355000Y-23114000D03*
X28255000Y-23114000D03*
D35*
X16719000Y-48437000D03*
D36*
X17979000Y-50927000D03*
X22479000Y-50927000D03*
D35*
X23729000Y-48437000D03*
D37*
X3589000Y-25563000D03*
X3589000Y-28563000D03*
X3589000Y-30063000D03*
D38*
X729000Y-24163000D03*
X729000Y-31463000D03*
X2939000Y-31463000D03*
X2939000Y-24163000D03*
D39*
X19304000Y-10160000D03*
X18669000Y-10160000D03*
X18008600Y-10160000D03*
X17348200Y-10160000D03*
X16713200Y-10160000D03*
X16052800Y-10160000D03*
X15392400Y-10160000D03*
X14757400Y-10160000D03*
X14097000Y-10160000D03*
X13462000Y-10160000D03*
X13462000Y-15494000D03*
X14097000Y-15494000D03*
X14757400Y-15494000D03*
X15392400Y-15494000D03*
X16052800Y-15494000D03*
X16713200Y-15494000D03*
X17348200Y-15494000D03*
X18008600Y-15494000D03*
X18669000Y-15494000D03*
X19304000Y-15494000D03*
D40*
X13175000Y-19812000D03*
X13175000Y-21082000D03*
X13175000Y-22352000D03*
X13175000Y-23622000D03*
X18575000Y-23622000D03*
X18575000Y-22352000D03*
X18575000Y-21082000D03*
X18575000Y-19812000D03*
D41*
X3073000Y-36703000D03*
D42*
X9373000Y-36703000D03*
X9373000Y-34403000D03*
X9373000Y-39003000D03*
D10*
G36*
X52473334Y-23741555D02*
X52862243Y-24130464D01*
X51730872Y-25261835D01*
X51341963Y-24872926D01*
X52473334Y-23741555D01*
X52473334Y-23741555D01*
G37*
G36*
X51907648Y-23175870D02*
X52296557Y-23564779D01*
X51165186Y-24696150D01*
X50776277Y-24307241D01*
X51907648Y-23175870D01*
X51907648Y-23175870D01*
G37*
G36*
X51341963Y-22610184D02*
X51730872Y-22999093D01*
X50599501Y-24130464D01*
X50210592Y-23741555D01*
X51341963Y-22610184D01*
X51341963Y-22610184D01*
G37*
G36*
X50776278Y-22044499D02*
X51165187Y-22433408D01*
X50033816Y-23564779D01*
X49644907Y-23175870D01*
X50776278Y-22044499D01*
X50776278Y-22044499D01*
G37*
G36*
X50210592Y-21478813D02*
X50599501Y-21867722D01*
X49468130Y-22999093D01*
X49079221Y-22610184D01*
X50210592Y-21478813D01*
X50210592Y-21478813D01*
G37*
G36*
X49644907Y-20913128D02*
X50033816Y-21302037D01*
X48902445Y-22433408D01*
X48513536Y-22044499D01*
X49644907Y-20913128D01*
X49644907Y-20913128D01*
G37*
G36*
X49079221Y-20347443D02*
X49468130Y-20736352D01*
X48336759Y-21867723D01*
X47947850Y-21478814D01*
X49079221Y-20347443D01*
X49079221Y-20347443D01*
G37*
G36*
X48513536Y-19781757D02*
X48902445Y-20170666D01*
X47771074Y-21302037D01*
X47382165Y-20913128D01*
X48513536Y-19781757D01*
X48513536Y-19781757D01*
G37*
G36*
X45331555Y-20170666D02*
X45720464Y-19781757D01*
X46851835Y-20913128D01*
X46462926Y-21302037D01*
X45331555Y-20170666D01*
X45331555Y-20170666D01*
G37*
G36*
X44765870Y-20736352D02*
X45154779Y-20347443D01*
X46286150Y-21478814D01*
X45897241Y-21867723D01*
X44765870Y-20736352D01*
X44765870Y-20736352D01*
G37*
G36*
X44200184Y-21302037D02*
X44589093Y-20913128D01*
X45720464Y-22044499D01*
X45331555Y-22433408D01*
X44200184Y-21302037D01*
X44200184Y-21302037D01*
G37*
G36*
X43634499Y-21867722D02*
X44023408Y-21478813D01*
X45154779Y-22610184D01*
X44765870Y-22999093D01*
X43634499Y-21867722D01*
X43634499Y-21867722D01*
G37*
G36*
X43068813Y-22433408D02*
X43457722Y-22044499D01*
X44589093Y-23175870D01*
X44200184Y-23564779D01*
X43068813Y-22433408D01*
X43068813Y-22433408D01*
G37*
G36*
X42503128Y-22999093D02*
X42892037Y-22610184D01*
X44023408Y-23741555D01*
X43634499Y-24130464D01*
X42503128Y-22999093D01*
X42503128Y-22999093D01*
G37*
G36*
X41937443Y-23564779D02*
X42326352Y-23175870D01*
X43457723Y-24307241D01*
X43068814Y-24696150D01*
X41937443Y-23564779D01*
X41937443Y-23564779D01*
G37*
G36*
X41371757Y-24130464D02*
X41760666Y-23741555D01*
X42892037Y-24872926D01*
X42503128Y-25261835D01*
X41371757Y-24130464D01*
X41371757Y-24130464D01*
G37*
G36*
X42503128Y-25792165D02*
X42892037Y-26181074D01*
X41760666Y-27312445D01*
X41371757Y-26923536D01*
X42503128Y-25792165D01*
X42503128Y-25792165D01*
G37*
G36*
X43068814Y-26357850D02*
X43457723Y-26746759D01*
X42326352Y-27878130D01*
X41937443Y-27489221D01*
X43068814Y-26357850D01*
X43068814Y-26357850D01*
G37*
G36*
X43634499Y-26923536D02*
X44023408Y-27312445D01*
X42892037Y-28443816D01*
X42503128Y-28054907D01*
X43634499Y-26923536D01*
X43634499Y-26923536D01*
G37*
G36*
X44200184Y-27489221D02*
X44589093Y-27878130D01*
X43457722Y-29009501D01*
X43068813Y-28620592D01*
X44200184Y-27489221D01*
X44200184Y-27489221D01*
G37*
G36*
X44765870Y-28054907D02*
X45154779Y-28443816D01*
X44023408Y-29575187D01*
X43634499Y-29186278D01*
X44765870Y-28054907D01*
X44765870Y-28054907D01*
G37*
G36*
X45331555Y-28620592D02*
X45720464Y-29009501D01*
X44589093Y-30140872D01*
X44200184Y-29751963D01*
X45331555Y-28620592D01*
X45331555Y-28620592D01*
G37*
G36*
X45897241Y-29186277D02*
X46286150Y-29575186D01*
X45154779Y-30706557D01*
X44765870Y-30317648D01*
X45897241Y-29186277D01*
X45897241Y-29186277D01*
G37*
G36*
X46462926Y-29751963D02*
X46851835Y-30140872D01*
X45720464Y-31272243D01*
X45331555Y-30883334D01*
X46462926Y-29751963D01*
X46462926Y-29751963D01*
G37*
G36*
X47382165Y-30140872D02*
X47771074Y-29751963D01*
X48902445Y-30883334D01*
X48513536Y-31272243D01*
X47382165Y-30140872D01*
X47382165Y-30140872D01*
G37*
G36*
X47947850Y-29575186D02*
X48336759Y-29186277D01*
X49468130Y-30317648D01*
X49079221Y-30706557D01*
X47947850Y-29575186D01*
X47947850Y-29575186D01*
G37*
G36*
X48513536Y-29009501D02*
X48902445Y-28620592D01*
X50033816Y-29751963D01*
X49644907Y-30140872D01*
X48513536Y-29009501D01*
X48513536Y-29009501D01*
G37*
G36*
X49079221Y-28443816D02*
X49468130Y-28054907D01*
X50599501Y-29186278D01*
X50210592Y-29575187D01*
X49079221Y-28443816D01*
X49079221Y-28443816D01*
G37*
G36*
X49644907Y-27878130D02*
X50033816Y-27489221D01*
X51165187Y-28620592D01*
X50776278Y-29009501D01*
X49644907Y-27878130D01*
X49644907Y-27878130D01*
G37*
G36*
X50210592Y-27312445D02*
X50599501Y-26923536D01*
X51730872Y-28054907D01*
X51341963Y-28443816D01*
X50210592Y-27312445D01*
X50210592Y-27312445D01*
G37*
G36*
X50776277Y-26746759D02*
X51165186Y-26357850D01*
X52296557Y-27489221D01*
X51907648Y-27878130D01*
X50776277Y-26746759D01*
X50776277Y-26746759D01*
G37*
G36*
X51341963Y-26181074D02*
X51730872Y-25792165D01*
X52862243Y-26923536D01*
X52473334Y-27312445D01*
X51341963Y-26181074D01*
X51341963Y-26181074D01*
G37*
D43*
X26035000Y-31623000D03*
D40*
X23335000Y-29718000D03*
X23335000Y-30988000D03*
X23335000Y-32258000D03*
X23335000Y-33528000D03*
X28735000Y-33528000D03*
X28735000Y-32258000D03*
X28735000Y-30988000D03*
X28735000Y-29718000D03*
D44*
X26635000Y-32423000D03*
X26635000Y-30823000D03*
X25435000Y-32423000D03*
X25435000Y-30823000D03*
D45*
X25435000Y-30423000D03*
X25435000Y-31223000D03*
X26635000Y-31223000D03*
X26635000Y-30423000D03*
X25435000Y-32823000D03*
X25435000Y-32023000D03*
X26635000Y-32023000D03*
X26635000Y-32823000D03*
D46*
X50752167Y-20539305D02*
X51781305Y-19510167D01*
X49904431Y-19691569D02*
X50933569Y-18662431D01*
X49056695Y-18843833D02*
X50085833Y-17814695D01*
D45*
X12573000Y-26416000D03*
X20320000Y-48768000D03*
X29019500Y-48323500D03*
X10477500Y-9842500D03*
X54546500Y-19050000D03*
X40259000Y-39243000D03*
X66548000Y-33909000D03*
X66548000Y-38417500D03*
X66548000Y-42164000D03*
X2921000Y-48704500D03*
X23050500Y-36004500D03*
X24765000Y-36004500D03*
X33147000Y-37909500D03*
D47*
X1301000Y-13319000D03*
D48*
X4001000Y-9819000D03*
D49*
X4001000Y-11669000D03*
X4001000Y-11019000D03*
X4001000Y-13619000D03*
X4001000Y-12969000D03*
X4001000Y-12319000D03*
D48*
X4001000Y-14819000D03*
D47*
X1301000Y-11319000D03*
D50*
X1301000Y-8819000D03*
X1301000Y-15819000D03*
D51*
X1301000Y-15219000D03*
X1301000Y-9419000D03*
D13*
X62865000Y-45847000D03*
D52*
X6350000Y-38608000D03*
X16637000Y-23622000D03*
X15621000Y-21209000D03*
X14668500Y-16891000D03*
X43307000Y-29845000D03*
X38862000Y-29527500D03*
X10541000Y-15367000D03*
X12954000Y-16891000D03*
X56261000Y-23622000D03*
X56388000Y-21082000D03*
X21209000Y-20828000D03*
X16002000Y-14224000D03*
X12192000Y-15621000D03*
X2794000Y-17208500D03*
X3175000Y-8255000D03*
X24003000Y-6667500D03*
X22860000Y-9144000D03*
X20637500Y-9652000D03*
X29781500Y-17589500D03*
X47879000Y-26416000D03*
X27305000Y-24193500D03*
X28765500Y-40449500D03*
X17145000Y-32512000D03*
X23876000Y-28321000D03*
X30226000Y-28194000D03*
X11811000Y-24384000D03*
X10668000Y-21336000D03*
X10477500Y-18796000D03*
X17018000Y-19812000D03*
X21082000Y-29718000D03*
X19558000Y-32893000D03*
X21526500Y-6477000D03*
X29972000Y-16573500D03*
X39941500Y-17081500D03*
X46863000Y-23876000D03*
X55118000Y-32512000D03*
X52959000Y-33147000D03*
X48006000Y-24066500D03*
X41783000Y-14224000D03*
X29464000Y-15176500D03*
X22034500Y-8318500D03*
X20574000Y-7874000D03*
X20002500Y-6477000D03*
X62230000Y-24003000D03*
X53276500Y-23368000D03*
X52768500Y-22669500D03*
X45974000Y-18669000D03*
X44704000Y-18161000D03*
X43434000Y-18034000D03*
X42037000Y-17907000D03*
X40767000Y-17907000D03*
X39243000Y-18034000D03*
X58039000Y-24765000D03*
X52959000Y-25908000D03*
X37973000Y-18288000D03*
X53530500Y-26606500D03*
X36449000Y-17907000D03*
X40894000Y-27686000D03*
X34798000Y-17907000D03*
X36195000Y-33147000D03*
X20447000Y-25781000D03*
X17018000Y-12446000D03*
X18542000Y-14097000D03*
X52578000Y-28702000D03*
X57023000Y-16383000D03*
X43434000Y-30988000D03*
X53086000Y-27940000D03*
X55753000Y-16383000D03*
X41783000Y-30607000D03*
X19812000Y-8382000D03*
X19685000Y-18288000D03*
X11176000Y-19939000D03*
X26035000Y-21590000D03*
X31115000Y-15684500D03*
X22415500Y-15748000D03*
X17272000Y-11620500D03*
X30416500Y-15113000D03*
X36068000Y-26797000D03*
X30480000Y-30988000D03*
D11*
X6350000Y-38608000D02*
X6223000Y-38481000D01*
X6223000Y-38481000D02*
X6223000Y-36703000D01*
X13175000Y-21082000D02*
X11938000Y-21082000D01*
X6985000Y-33655000D02*
X6985000Y-36703000D01*
X8128000Y-32512000D02*
X6985000Y-33655000D01*
X8128000Y-25971500D02*
X8128000Y-32512000D01*
X9207500Y-24892000D02*
X8128000Y-25971500D01*
X10414000Y-24892000D02*
X9207500Y-24892000D01*
X11176000Y-24130000D02*
X10414000Y-24892000D01*
X11176000Y-21844000D02*
X11176000Y-24130000D01*
X11938000Y-21082000D02*
X11176000Y-21844000D01*
X21209000Y-17211000D02*
X16195000Y-17211000D01*
X15392400Y-16408400D02*
X15392400Y-15494000D01*
X16195000Y-17211000D02*
X15392400Y-16408400D01*
X15392400Y-15494000D02*
X15392400Y-20980400D01*
X15392400Y-20980400D02*
X15621000Y-21209000D01*
X18575000Y-23622000D02*
X16637000Y-23622000D01*
X15494000Y-21082000D02*
X13175000Y-21082000D01*
X15621000Y-21209000D02*
X15494000Y-21082000D01*
D53*
X9373000Y-36703000D02*
X10922000Y-36703000D01*
X12335000Y-38116000D02*
X12335000Y-39624000D01*
X10922000Y-36703000D02*
X12335000Y-38116000D01*
X3073000Y-36703000D02*
X6223000Y-36703000D01*
X6223000Y-36703000D02*
X6985000Y-36703000D01*
X6985000Y-36703000D02*
X9373000Y-36703000D01*
D11*
X14757400Y-15494000D02*
X15392400Y-15494000D01*
X18145000Y-8509000D02*
X18145000Y-7890000D01*
X18145000Y-7890000D02*
X18923000Y-7112000D01*
X23495000Y-17019000D02*
X23130000Y-17384000D01*
X23495000Y-8128000D02*
X23495000Y-17019000D01*
X22479000Y-7112000D02*
X23495000Y-8128000D01*
X18923000Y-7112000D02*
X22479000Y-7112000D01*
X21209000Y-17211000D02*
X22418000Y-17211000D01*
X22591000Y-17384000D02*
X23130000Y-17384000D01*
X22418000Y-17211000D02*
X22591000Y-17384000D01*
X18145000Y-8509000D02*
X18145000Y-9287000D01*
X18008600Y-9423400D02*
X18008600Y-10160000D01*
X18145000Y-9287000D02*
X18008600Y-9423400D01*
X50419000Y-19177000D02*
X51943000Y-17653000D01*
X33147000Y-37909500D02*
X33147000Y-36941000D01*
X33147000Y-36941000D02*
X34909000Y-35179000D01*
X34909000Y-35179000D02*
X34909000Y-36084000D01*
X34909000Y-36084000D02*
X34417000Y-36576000D01*
D54*
X49839361Y-22238953D02*
X49897047Y-22238953D01*
X49897047Y-22238953D02*
X50800000Y-21336000D01*
X55499000Y-20193000D02*
X56388000Y-21082000D01*
X52578000Y-20193000D02*
X55499000Y-20193000D01*
X51435000Y-21336000D02*
X52578000Y-20193000D01*
X50800000Y-21336000D02*
X51435000Y-21336000D01*
X13954000Y-18034000D02*
X13954000Y-17605500D01*
X13954000Y-17605500D02*
X14668500Y-16891000D01*
X44394639Y-28815047D02*
X44336953Y-28815047D01*
X44336953Y-28815047D02*
X43307000Y-29845000D01*
X38862000Y-29527500D02*
X38859500Y-29530000D01*
X38859500Y-29530000D02*
X37211000Y-29530000D01*
D11*
X5711000Y-45339000D02*
X5711000Y-48129000D01*
X5711000Y-48129000D02*
X8001000Y-50419000D01*
X13175000Y-23622000D02*
X13175000Y-24732000D01*
X13655000Y-25212000D02*
X13655000Y-26543000D01*
X13175000Y-24732000D02*
X13655000Y-25212000D01*
X11541000Y-14224000D02*
X11541000Y-14494000D01*
X11541000Y-14494000D02*
X10668000Y-15367000D01*
X10668000Y-15367000D02*
X10541000Y-15367000D01*
X12954000Y-16891000D02*
X13954000Y-17891000D01*
X13954000Y-17891000D02*
X13954000Y-18034000D01*
X9373000Y-39003000D02*
X9373000Y-39599000D01*
X9373000Y-39599000D02*
X10922000Y-41148000D01*
X10922000Y-41148000D02*
X13716000Y-41148000D01*
X13716000Y-41148000D02*
X14335000Y-40529000D01*
X14335000Y-40529000D02*
X14335000Y-39624000D01*
X14859000Y-36736000D02*
X14859000Y-39100000D01*
X14859000Y-39100000D02*
X14335000Y-39624000D01*
X8239000Y-9779000D02*
X10922000Y-9779000D01*
X11541000Y-10398000D02*
X11541000Y-11684000D01*
X10922000Y-9779000D02*
X11541000Y-10398000D01*
X5102000Y-23241000D02*
X5102000Y-21949000D01*
X6239000Y-20812000D02*
X6239000Y-16129000D01*
X5102000Y-21949000D02*
X6239000Y-20812000D01*
X6239000Y-16129000D02*
X4826000Y-16129000D01*
X4826000Y-16129000D02*
X3951000Y-15254000D01*
X3951000Y-15254000D02*
X3951000Y-14781500D01*
X4311000Y-13619000D02*
X4311000Y-14421500D01*
X4311000Y-14421500D02*
X3951000Y-14781500D01*
X3951000Y-14781500D02*
X2098500Y-14781500D01*
X2098500Y-14781500D02*
X1651000Y-15229000D01*
X16052800Y-10160000D02*
X16052800Y-8601200D01*
X16052800Y-8601200D02*
X16145000Y-8509000D01*
X66306700Y-28115260D02*
X66499740Y-28115260D01*
X66499740Y-28115260D02*
X67818000Y-26797000D01*
X67818000Y-26797000D02*
X67818000Y-21844000D01*
X67818000Y-21844000D02*
X65913000Y-19939000D01*
X65913000Y-19939000D02*
X61722000Y-19939000D01*
X61722000Y-19939000D02*
X61087000Y-20574000D01*
X61087000Y-20574000D02*
X60490000Y-20574000D01*
X50970732Y-23370324D02*
X50970732Y-23324268D01*
X50970732Y-23324268D02*
X52451000Y-21844000D01*
X52451000Y-21844000D02*
X54483000Y-21844000D01*
X54483000Y-21844000D02*
X56261000Y-23622000D01*
X56388000Y-21082000D02*
X56515000Y-20955000D01*
X56515000Y-20955000D02*
X56515000Y-19050000D01*
X56515000Y-19050000D02*
X56642000Y-18923000D01*
X56642000Y-18923000D02*
X59817000Y-18923000D01*
X59817000Y-18923000D02*
X60490000Y-19596000D01*
X60490000Y-19596000D02*
X60490000Y-20574000D01*
X26035000Y-31623000D02*
X24257000Y-33401000D01*
X24257000Y-33401000D02*
X23462000Y-33401000D01*
X23462000Y-33401000D02*
X23335000Y-33528000D01*
X23335000Y-33528000D02*
X24130000Y-33528000D01*
X24130000Y-33528000D02*
X26035000Y-31623000D01*
X24130000Y-33528000D02*
X26035000Y-31623000D01*
X37211000Y-29530000D02*
X36388000Y-29530000D01*
X35687000Y-28829000D02*
X34909000Y-28829000D01*
X36388000Y-29530000D02*
X35687000Y-28829000D01*
X13655000Y-26543000D02*
X13655000Y-28398000D01*
X13655000Y-28398000D02*
X13605000Y-28448000D01*
X11541000Y-11684000D02*
X13081000Y-11684000D01*
X16713200Y-13919200D02*
X16713200Y-15494000D01*
X16002000Y-13208000D02*
X16713200Y-13919200D01*
X14605000Y-13208000D02*
X16002000Y-13208000D01*
X13081000Y-11684000D02*
X14605000Y-13208000D01*
D55*
X1651000Y-13159000D02*
X1651000Y-15229000D01*
X1651000Y-11479000D02*
X1651000Y-13159000D01*
X1651000Y-9409000D02*
X1651000Y-11479000D01*
X1651000Y-9409000D02*
X3503500Y-9409000D01*
X3503500Y-9409000D02*
X3951000Y-9856500D01*
D11*
X21860000Y-22225000D02*
X21860000Y-21352000D01*
X21336000Y-20828000D02*
X21209000Y-20828000D01*
X21860000Y-21352000D02*
X21336000Y-20828000D01*
X8155000Y-19685000D02*
X8155000Y-16213000D01*
X8155000Y-16213000D02*
X8239000Y-16129000D01*
X8155000Y-19685000D02*
X8155000Y-22938000D01*
X8155000Y-22938000D02*
X7852000Y-23241000D01*
X8239000Y-16129000D02*
X11684000Y-16129000D01*
X16052800Y-14274800D02*
X16052800Y-15494000D01*
X16002000Y-14224000D02*
X16052800Y-14274800D01*
X11684000Y-16129000D02*
X12192000Y-15621000D01*
D55*
X6239000Y-9779000D02*
X6239000Y-8715500D01*
X3275000Y-17689500D02*
X3275000Y-19685000D01*
X2794000Y-17208500D02*
X3275000Y-17689500D01*
X5778500Y-8255000D02*
X3175000Y-8255000D01*
X6239000Y-8715500D02*
X5778500Y-8255000D01*
X6239000Y-9779000D02*
X6223000Y-9779000D01*
X6223000Y-9779000D02*
X5461000Y-10541000D01*
X5461000Y-10541000D02*
X5461000Y-10795000D01*
X5461000Y-10795000D02*
X5237000Y-11019000D01*
X5237000Y-11019000D02*
X4311000Y-11019000D01*
D11*
X41275000Y-33337500D02*
X41275000Y-31242000D01*
X24003000Y-6667500D02*
X24003000Y-2667000D01*
X21145500Y-9144000D02*
X22860000Y-9144000D01*
X20637500Y-9652000D02*
X21145500Y-9144000D01*
X32829500Y-17589500D02*
X29781500Y-17589500D01*
X33401000Y-18161000D02*
X32829500Y-17589500D01*
X33401000Y-18859500D02*
X33401000Y-18161000D01*
X39751000Y-25209500D02*
X33401000Y-18859500D01*
X39751000Y-27686000D02*
X39751000Y-25209500D01*
X40894000Y-28829000D02*
X39751000Y-27686000D01*
X40894000Y-30861000D02*
X40894000Y-28829000D01*
X41275000Y-31242000D02*
X40894000Y-30861000D01*
X36969000Y-38862000D02*
X36969000Y-38723000D01*
X37592000Y-38100000D02*
X37909500Y-38100000D01*
X36969000Y-38723000D02*
X37592000Y-38100000D01*
X36969000Y-39243000D02*
X36969000Y-38862000D01*
X36969000Y-38862000D02*
X36969000Y-38850000D01*
X42672000Y-29406314D02*
X43828953Y-28249361D01*
X42672000Y-31940500D02*
X42672000Y-29406314D01*
X41275000Y-33337500D02*
X42672000Y-31940500D01*
X41275000Y-33274000D02*
X41275000Y-33337500D01*
X41275000Y-33274000D02*
X41275000Y-33274000D01*
X41275000Y-37465000D02*
X41275000Y-33274000D01*
X37909500Y-38100000D02*
X40640000Y-38100000D01*
X40640000Y-38100000D02*
X41275000Y-37465000D01*
X37719000Y-38100000D02*
X37909500Y-38100000D01*
X49333686Y-27178000D02*
X50405047Y-28249361D01*
X48641000Y-27178000D02*
X49333686Y-27178000D01*
X47879000Y-26416000D02*
X48641000Y-27178000D01*
X28765500Y-40449500D02*
X28765500Y-44005500D01*
X28055000Y-21094000D02*
X27305000Y-21844000D01*
X27305000Y-21844000D02*
X27305000Y-24193500D01*
X34861500Y-45019000D02*
X29779000Y-45019000D01*
X28055000Y-21094000D02*
X28055000Y-19939000D01*
X28765500Y-44005500D02*
X29779000Y-45019000D01*
D12*
X34861500Y-45019000D02*
X34861500Y-47371000D01*
X33147000Y-49085500D02*
X33147000Y-50927000D01*
X34861500Y-47371000D02*
X33147000Y-49085500D01*
D11*
X50405047Y-28249361D02*
X50474361Y-28249361D01*
X50474361Y-28249361D02*
X51943000Y-29718000D01*
X51943000Y-29718000D02*
X53848000Y-29718000D01*
X53848000Y-29718000D02*
X55450740Y-28115260D01*
X55450740Y-28115260D02*
X63766700Y-28115260D01*
X26355000Y-17780000D02*
X26355000Y-18735000D01*
X26555000Y-18935000D02*
X26555000Y-19939000D01*
X26355000Y-18735000D02*
X26555000Y-18935000D01*
X25130000Y-18034000D02*
X25781000Y-18034000D01*
X25781000Y-18034000D02*
X26035000Y-17780000D01*
X26035000Y-17780000D02*
X26355000Y-17780000D01*
D53*
X26924000Y-38288000D02*
X26924000Y-40513000D01*
X26129000Y-41308000D02*
X26129000Y-42291000D01*
X26924000Y-40513000D02*
X26129000Y-41308000D01*
X26129000Y-42291000D02*
X22820000Y-42291000D01*
X22820000Y-42291000D02*
X22693000Y-42164000D01*
D11*
X26924000Y-38288000D02*
X26924000Y-38100000D01*
X26924000Y-38100000D02*
X27686000Y-37338000D01*
X27686000Y-37338000D02*
X31623000Y-37338000D01*
X31623000Y-37338000D02*
X32909000Y-36052000D01*
X32909000Y-36052000D02*
X32909000Y-35179000D01*
X32959000Y-33020000D02*
X32959000Y-35129000D01*
X32959000Y-35129000D02*
X32909000Y-35179000D01*
X28735000Y-32258000D02*
X30607000Y-32258000D01*
X32131000Y-30734000D02*
X32909000Y-30734000D01*
X30607000Y-32258000D02*
X32131000Y-30734000D01*
X34909000Y-30734000D02*
X35560000Y-30734000D01*
X36256000Y-31430000D02*
X37211000Y-31430000D01*
X35560000Y-30734000D02*
X36256000Y-31430000D01*
D56*
X17145000Y-32512000D02*
X17145000Y-31336000D01*
X17145000Y-31336000D02*
X17145000Y-31496000D01*
X17145000Y-31496000D02*
X17145000Y-31336000D01*
D11*
X18415000Y-31336000D02*
X18415000Y-31496000D01*
X18415000Y-31496000D02*
X18415000Y-31336000D01*
X32909000Y-28829000D02*
X30861000Y-28829000D01*
X19812000Y-28194000D02*
X19111000Y-27493000D01*
X23749000Y-28194000D02*
X19812000Y-28194000D01*
X23876000Y-28321000D02*
X23749000Y-28194000D01*
X30861000Y-28829000D02*
X30226000Y-28194000D01*
X32959000Y-26924000D02*
X32959000Y-28779000D01*
X32959000Y-28779000D02*
X32909000Y-28829000D01*
X19111000Y-26543000D02*
X19111000Y-27493000D01*
X19111000Y-27493000D02*
X19111000Y-29530000D01*
X19111000Y-29530000D02*
X20917000Y-31336000D01*
X20917000Y-31336000D02*
X20917000Y-31331000D01*
X20917000Y-31331000D02*
X20701000Y-31115000D01*
X20701000Y-31115000D02*
X20701000Y-31336000D01*
D53*
X14859000Y-31336000D02*
X17145000Y-31336000D01*
X17145000Y-31336000D02*
X18415000Y-31336000D01*
X18415000Y-31336000D02*
X20701000Y-31336000D01*
X20701000Y-31336000D02*
X21242000Y-31336000D01*
X21590000Y-30988000D02*
X23335000Y-30988000D01*
X21242000Y-31336000D02*
X21590000Y-30988000D01*
X14859000Y-31336000D02*
X12921000Y-31336000D01*
X10382000Y-28797000D02*
X10382000Y-27432000D01*
X12921000Y-31336000D02*
X10382000Y-28797000D01*
D11*
X28735000Y-29718000D02*
X28735000Y-28669000D01*
X32385000Y-25019000D02*
X32909000Y-25019000D01*
X28735000Y-28669000D02*
X32385000Y-25019000D01*
D53*
X34861500Y-43119000D02*
X34861500Y-37592000D01*
X36258500Y-23114000D02*
X28255000Y-23114000D01*
X38798500Y-25654000D02*
X36258500Y-23114000D01*
X38798500Y-28003500D02*
X38798500Y-25654000D01*
X39941500Y-29146500D02*
X38798500Y-28003500D01*
X39941500Y-32512000D02*
X39941500Y-29146500D01*
X34861500Y-37592000D02*
X39941500Y-32512000D01*
D54*
X10477500Y-21145500D02*
X10477500Y-18796000D01*
X10668000Y-21336000D02*
X10477500Y-21145500D01*
X9373000Y-34403000D02*
X9373000Y-30074000D01*
X11811000Y-24384000D02*
X11811000Y-24320500D01*
X10795000Y-25400000D02*
X11811000Y-24384000D01*
X9461500Y-25400000D02*
X10795000Y-25400000D01*
X8636000Y-26225500D02*
X9461500Y-25400000D01*
X8636000Y-29337000D02*
X8636000Y-26225500D01*
X9373000Y-30074000D02*
X8636000Y-29337000D01*
X11954000Y-18034000D02*
X11239500Y-18034000D01*
X11239500Y-18034000D02*
X10477500Y-18796000D01*
X17018000Y-19812000D02*
X18575000Y-19812000D01*
X63500000Y-36989000D02*
X63976000Y-36989000D01*
X63976000Y-36989000D02*
X65024000Y-35941000D01*
X65024000Y-24320500D02*
X66306700Y-23037800D01*
X65024000Y-35941000D02*
X65024000Y-24320500D01*
D56*
X34861500Y-43119000D02*
X36134000Y-43119000D01*
X36134000Y-43119000D02*
X36258500Y-43243500D01*
D11*
X38227000Y-50927000D02*
X38100000Y-50927000D01*
X38100000Y-50927000D02*
X36576000Y-52451000D01*
X32131000Y-52451000D02*
X30607000Y-50927000D01*
X36576000Y-52451000D02*
X32131000Y-52451000D01*
X59690000Y-43434000D02*
X62484000Y-43434000D01*
X64421000Y-36989000D02*
X63500000Y-36989000D01*
X65151000Y-37719000D02*
X64421000Y-36989000D01*
X65151000Y-40767000D02*
X65151000Y-37719000D01*
X62484000Y-43434000D02*
X65151000Y-40767000D01*
D53*
X28128000Y-12573000D02*
X28128000Y-11369000D01*
X28128000Y-11369000D02*
X29718000Y-9779000D01*
X29718000Y-9779000D02*
X30480000Y-9779000D01*
X28128000Y-12573000D02*
X28128000Y-14478000D01*
X38227000Y-50927000D02*
X38227000Y-48768000D01*
X37096000Y-47637000D02*
X37096000Y-45974000D01*
X38227000Y-48768000D02*
X37096000Y-47637000D01*
X36258500Y-43243500D02*
X36258500Y-42989500D01*
X37096000Y-42152000D02*
X37096000Y-41529000D01*
X36258500Y-42989500D02*
X37096000Y-42152000D01*
X37096000Y-43688000D02*
X36703000Y-43688000D01*
X36703000Y-43688000D02*
X36258500Y-43243500D01*
X37096000Y-43688000D02*
X37096000Y-45974000D01*
X41910000Y-43434000D02*
X40259000Y-43434000D01*
X40259000Y-43434000D02*
X39878000Y-43053000D01*
X39878000Y-43053000D02*
X39878000Y-40767000D01*
X39878000Y-40767000D02*
X39497000Y-40386000D01*
X39497000Y-40386000D02*
X37465000Y-40386000D01*
X37465000Y-40386000D02*
X37096000Y-40755000D01*
X37096000Y-40755000D02*
X37096000Y-41529000D01*
X28255000Y-17780000D02*
X28255000Y-18095000D01*
X28255000Y-18095000D02*
X29591000Y-19431000D01*
X29591000Y-19431000D02*
X29591000Y-21778000D01*
X29591000Y-21778000D02*
X28255000Y-23114000D01*
X28128000Y-14478000D02*
X28128000Y-16063000D01*
X28128000Y-16063000D02*
X28255000Y-16190000D01*
X28255000Y-16190000D02*
X28255000Y-17780000D01*
D11*
X50405047Y-22804639D02*
X50601361Y-22804639D01*
X50601361Y-22804639D02*
X52324000Y-21082000D01*
X59370000Y-23749000D02*
X60640000Y-22479000D01*
X57658000Y-23749000D02*
X59370000Y-23749000D01*
X56261000Y-22352000D02*
X57658000Y-23749000D01*
X55753000Y-22352000D02*
X56261000Y-22352000D01*
X54483000Y-21082000D02*
X55753000Y-22352000D01*
X52324000Y-21082000D02*
X54483000Y-21082000D01*
X23860000Y-21275000D02*
X23860000Y-20304000D01*
X23622000Y-20066000D02*
X18829000Y-20066000D01*
X23860000Y-20304000D02*
X23622000Y-20066000D01*
X18829000Y-20066000D02*
X18575000Y-19812000D01*
X23860000Y-21275000D02*
X23810000Y-21275000D01*
X23810000Y-21275000D02*
X22860000Y-22225000D01*
X22860000Y-22225000D02*
X22860000Y-23831000D01*
X22860000Y-23831000D02*
X23860000Y-24831000D01*
X60640000Y-22479000D02*
X61468000Y-22479000D01*
X66306700Y-21856700D02*
X66306700Y-23037800D01*
X65278000Y-20828000D02*
X66306700Y-21856700D01*
X63119000Y-20828000D02*
X65278000Y-20828000D01*
X61468000Y-22479000D02*
X63119000Y-20828000D01*
X48260000Y-23114000D02*
X46291500Y-23114000D01*
X43688000Y-26127573D02*
X42697583Y-27117990D01*
X43688000Y-25717500D02*
X43688000Y-26127573D01*
X44640500Y-24765000D02*
X43688000Y-25717500D01*
X44640500Y-24765000D02*
X44640500Y-24765000D01*
X46291500Y-23114000D02*
X44640500Y-24765000D01*
X49273676Y-21673268D02*
X49273676Y-21846324D01*
X49273676Y-21846324D02*
X48133000Y-22987000D01*
X48133000Y-22987000D02*
X48260000Y-23114000D01*
X48260000Y-23114000D02*
X48768000Y-23622000D01*
X48768000Y-23622000D02*
X49784000Y-23622000D01*
X49784000Y-23622000D02*
X50405047Y-23000953D01*
X50405047Y-23000953D02*
X50405047Y-22804639D01*
X36703000Y-43688000D02*
X36134000Y-43119000D01*
X36134000Y-43119000D02*
X36256000Y-43119000D01*
X36830000Y-42545000D02*
X36830000Y-41795000D01*
X36256000Y-43119000D02*
X36830000Y-42545000D01*
X36830000Y-41795000D02*
X37096000Y-41529000D01*
X28255000Y-23114000D02*
X28255000Y-24582000D01*
X28255000Y-24582000D02*
X28006000Y-24831000D01*
X28255000Y-26543000D02*
X28255000Y-25080000D01*
X28006000Y-24831000D02*
X23860000Y-24831000D01*
X28255000Y-25080000D02*
X28006000Y-24831000D01*
D53*
X19304000Y-36560000D02*
X19828000Y-36560000D01*
X19828000Y-36560000D02*
X21336000Y-35052000D01*
X21336000Y-33147000D02*
X22225000Y-32258000D01*
X21336000Y-35052000D02*
X21336000Y-33147000D01*
X22225000Y-32258000D02*
X23335000Y-32258000D01*
X17693000Y-42164000D02*
X18161000Y-42164000D01*
X18161000Y-42164000D02*
X19304000Y-41021000D01*
X19304000Y-41021000D02*
X19304000Y-36560000D01*
D11*
X19304000Y-36560000D02*
X19304000Y-40553000D01*
X19304000Y-40553000D02*
X17693000Y-42164000D01*
X23335000Y-32258000D02*
X22225000Y-32258000D01*
X21463000Y-34925000D02*
X19828000Y-36560000D01*
X22225000Y-32258000D02*
X21463000Y-33020000D01*
X21463000Y-33020000D02*
X21463000Y-34925000D01*
X19304000Y-34560000D02*
X19304000Y-33274000D01*
X21082000Y-29718000D02*
X23335000Y-29718000D01*
X19558000Y-33020000D02*
X19558000Y-32893000D01*
X19304000Y-33274000D02*
X19558000Y-33020000D01*
X9541000Y-14224000D02*
X9541000Y-13192000D01*
X13462000Y-13462000D02*
X13462000Y-15494000D01*
X13081000Y-13081000D02*
X13462000Y-13462000D01*
X9652000Y-13081000D02*
X13081000Y-13081000D01*
X9541000Y-13192000D02*
X9652000Y-13081000D01*
D55*
X8189000Y-14224000D02*
X9541000Y-14224000D01*
D54*
X14097000Y-15494000D02*
X14097000Y-13335000D01*
X10507798Y-12650798D02*
X9541000Y-11684000D01*
X13412798Y-12650798D02*
X10507798Y-12650798D01*
X14097000Y-13335000D02*
X13412798Y-12650798D01*
D55*
X8189000Y-11684000D02*
X9541000Y-11684000D01*
D11*
X13175000Y-22352000D02*
X14351000Y-22352000D01*
X14351000Y-22352000D02*
X15240000Y-23241000D01*
X18575000Y-22352000D02*
X16002000Y-22352000D01*
X15240000Y-23114000D02*
X15240000Y-23241000D01*
X15240000Y-23241000D02*
X15240000Y-26228000D01*
X16002000Y-22352000D02*
X15240000Y-23114000D01*
X15240000Y-26228000D02*
X15555000Y-26543000D01*
X15555000Y-26543000D02*
X17211000Y-26543000D01*
X15555000Y-26543000D02*
X15555000Y-28398000D01*
X15555000Y-28398000D02*
X15605000Y-28448000D01*
X25654000Y-9840000D02*
X27409000Y-9840000D01*
X27409000Y-9840000D02*
X27559000Y-9690000D01*
X58890000Y-20574000D02*
X58890000Y-22329000D01*
X58890000Y-22329000D02*
X58740000Y-22479000D01*
X41910000Y-40894000D02*
X42037000Y-40894000D01*
X42037000Y-40894000D02*
X43180000Y-42037000D01*
X49403000Y-50927000D02*
X50927000Y-50927000D01*
X46355000Y-47879000D02*
X49403000Y-50927000D01*
X44196000Y-47879000D02*
X46355000Y-47879000D01*
X43180000Y-46863000D02*
X44196000Y-47879000D01*
X43180000Y-42037000D02*
X43180000Y-46863000D01*
X45526010Y-29946417D02*
X45491583Y-29946417D01*
X45491583Y-29946417D02*
X41910000Y-33528000D01*
X41910000Y-33528000D02*
X41910000Y-40894000D01*
X44450000Y-40894000D02*
X44450000Y-41021000D01*
X44450000Y-41021000D02*
X45720000Y-42291000D01*
X51562000Y-49022000D02*
X53467000Y-50927000D01*
X48958500Y-49022000D02*
X51562000Y-49022000D01*
X47307500Y-47371000D02*
X48958500Y-49022000D01*
X46174002Y-47371000D02*
X47307500Y-47371000D01*
X45720000Y-46916998D02*
X46174002Y-47371000D01*
X45720000Y-42291000D02*
X45720000Y-46916998D01*
X46091695Y-30512103D02*
X46068897Y-30512103D01*
X46068897Y-30512103D02*
X44450000Y-32131000D01*
X44450000Y-32131000D02*
X44450000Y-40894000D01*
X46990000Y-40894000D02*
X46990000Y-41021000D01*
X46990000Y-41021000D02*
X48260000Y-42291000D01*
X53594000Y-48514000D02*
X56007000Y-50927000D01*
X49911000Y-48514000D02*
X53594000Y-48514000D01*
X48260000Y-46863000D02*
X49911000Y-48514000D01*
X48260000Y-42291000D02*
X48260000Y-46863000D01*
X48142305Y-30512103D02*
X48165103Y-30512103D01*
X48165103Y-30512103D02*
X49403000Y-31750000D01*
X49403000Y-31750000D02*
X49403000Y-36258500D01*
X49403000Y-36258500D02*
X46990000Y-38671500D01*
X46990000Y-38671500D02*
X46990000Y-40894000D01*
X49530000Y-40894000D02*
X49530000Y-41148000D01*
X49530000Y-41148000D02*
X50800000Y-42418000D01*
X56642000Y-49022000D02*
X58547000Y-50927000D01*
X55499000Y-49022000D02*
X56642000Y-49022000D01*
X54356000Y-47879000D02*
X55499000Y-49022000D01*
X51435000Y-47879000D02*
X54356000Y-47879000D01*
X50800000Y-47244000D02*
X51435000Y-47879000D01*
X50800000Y-42418000D02*
X50800000Y-47244000D01*
X48707990Y-29946417D02*
X48707990Y-30038990D01*
X48707990Y-30038990D02*
X50292000Y-31623000D01*
X50292000Y-31623000D02*
X50292000Y-38989000D01*
X50292000Y-38989000D02*
X49530000Y-39751000D01*
X49530000Y-39751000D02*
X49530000Y-40894000D01*
X49273676Y-29380732D02*
X49256232Y-29380732D01*
X49256232Y-29380732D02*
X47307500Y-27432000D01*
X21463000Y-6413500D02*
X21463000Y-2667000D01*
X21526500Y-6477000D02*
X21463000Y-6413500D01*
X31305500Y-16573500D02*
X29972000Y-16573500D01*
X31686500Y-16192500D02*
X31305500Y-16573500D01*
X39052500Y-16192500D02*
X31686500Y-16192500D01*
X39941500Y-17081500D02*
X39052500Y-16192500D01*
X45974000Y-24765000D02*
X46863000Y-23876000D01*
X45974000Y-26860500D02*
X45974000Y-24765000D01*
X46545500Y-27432000D02*
X45974000Y-26860500D01*
X47307500Y-27432000D02*
X46545500Y-27432000D01*
X49273676Y-29380732D02*
X49273676Y-29334676D01*
X52070000Y-40894000D02*
X52070000Y-41148000D01*
X52070000Y-41148000D02*
X53340000Y-42418000D01*
X59436000Y-49276000D02*
X61087000Y-50927000D01*
X57785000Y-49276000D02*
X59436000Y-49276000D01*
X55880000Y-47371000D02*
X57785000Y-49276000D01*
X53721000Y-47371000D02*
X55880000Y-47371000D01*
X53340000Y-46990000D02*
X53721000Y-47371000D01*
X53340000Y-42418000D02*
X53340000Y-46990000D01*
X52070000Y-33147000D02*
X52959000Y-33147000D01*
X62769000Y-32258000D02*
X63500000Y-32989000D01*
X55372000Y-32258000D02*
X62769000Y-32258000D01*
X55118000Y-32512000D02*
X55372000Y-32258000D01*
X49273676Y-29380732D02*
X49319732Y-29380732D01*
X49319732Y-29380732D02*
X52070000Y-32131000D01*
X52070000Y-32131000D02*
X52070000Y-33147000D01*
X52070000Y-33147000D02*
X52070000Y-40894000D01*
X48768000Y-27749500D02*
X48196500Y-27749500D01*
X48196500Y-27749500D02*
X47117000Y-26670000D01*
X47117000Y-26670000D02*
X47117000Y-24955500D01*
X47117000Y-24955500D02*
X48006000Y-24066500D01*
X41783000Y-14224000D02*
X29845000Y-14224000D01*
X29845000Y-14224000D02*
X29464000Y-14605000D01*
X29464000Y-14605000D02*
X29464000Y-15176500D01*
X22034500Y-8318500D02*
X21590000Y-7874000D01*
X21590000Y-7874000D02*
X20574000Y-7874000D01*
X20002500Y-6477000D02*
X18923000Y-5397500D01*
X18923000Y-2667000D02*
X18923000Y-5397500D01*
X48768000Y-27749500D02*
X49833547Y-28815047D01*
X49839361Y-28815047D02*
X49833547Y-28815047D01*
X49839361Y-28815047D02*
X49706547Y-28815047D01*
X63500000Y-34989000D02*
X55562000Y-34989000D01*
X55562000Y-34989000D02*
X54610000Y-35941000D01*
X54610000Y-40894000D02*
X54610000Y-41148000D01*
X54610000Y-41148000D02*
X55880000Y-42418000D01*
X61722000Y-49022000D02*
X63627000Y-50927000D01*
X59944000Y-49022000D02*
X61722000Y-49022000D01*
X58674000Y-47752000D02*
X59944000Y-49022000D01*
X57023000Y-47752000D02*
X58674000Y-47752000D01*
X55880000Y-46609000D02*
X57023000Y-47752000D01*
X55880000Y-42418000D02*
X55880000Y-46609000D01*
X49839361Y-28815047D02*
X49897047Y-28815047D01*
X49897047Y-28815047D02*
X54610000Y-33528000D01*
X54610000Y-33528000D02*
X54610000Y-35941000D01*
X54610000Y-35941000D02*
X54610000Y-40894000D01*
D54*
X53022500Y-27305000D02*
X57658000Y-27305000D01*
X53022500Y-27305000D02*
X52269805Y-26552305D01*
X58928000Y-27305000D02*
X57658000Y-27305000D01*
X62230000Y-24003000D02*
X58928000Y-27305000D01*
X52102103Y-26552305D02*
X52269805Y-26552305D01*
D11*
X58420000Y-12319000D02*
X58420000Y-11938000D01*
X58420000Y-11938000D02*
X59690000Y-10668000D01*
X59690000Y-10668000D02*
X59690000Y-3810000D01*
X59690000Y-3810000D02*
X58547000Y-2667000D01*
D54*
X52102103Y-24501695D02*
X52142805Y-24501695D01*
X52142805Y-24501695D02*
X53276500Y-23368000D01*
D11*
X55880000Y-12319000D02*
X55880000Y-11938000D01*
X55880000Y-11938000D02*
X57150000Y-10668000D01*
X57150000Y-10668000D02*
X57150000Y-3810000D01*
X57150000Y-3810000D02*
X56007000Y-2667000D01*
D54*
X51536417Y-23936010D02*
X51536417Y-23901583D01*
X51536417Y-23901583D02*
X52768500Y-22669500D01*
D11*
X53340000Y-12319000D02*
X53340000Y-11811000D01*
X53340000Y-11811000D02*
X54610000Y-10541000D01*
X54610000Y-10541000D02*
X54610000Y-3810000D01*
X54610000Y-3810000D02*
X53467000Y-2667000D01*
X50800000Y-12319000D02*
X50800000Y-12065000D01*
X50800000Y-12065000D02*
X52070000Y-10795000D01*
X52070000Y-3810000D02*
X50927000Y-2667000D01*
X52070000Y-10795000D02*
X52070000Y-3810000D01*
X46091695Y-20541897D02*
X46091695Y-18786695D01*
X46091695Y-18786695D02*
X45974000Y-18669000D01*
X48260000Y-12319000D02*
X48260000Y-12065000D01*
X48260000Y-12065000D02*
X49530000Y-10795000D01*
X49530000Y-3810000D02*
X48387000Y-2667000D01*
X49530000Y-10795000D02*
X49530000Y-3810000D01*
X45526010Y-21107583D02*
X45491583Y-21107583D01*
X45491583Y-21107583D02*
X44704000Y-20320000D01*
X44704000Y-20320000D02*
X44704000Y-18161000D01*
X45720000Y-12319000D02*
X45720000Y-12065000D01*
X45720000Y-12065000D02*
X46990000Y-10795000D01*
X46990000Y-3810000D02*
X45847000Y-2667000D01*
X46990000Y-10795000D02*
X46990000Y-3810000D01*
X44960324Y-21673268D02*
X44960324Y-21592324D01*
X44960324Y-21592324D02*
X43434000Y-20066000D01*
X43434000Y-20066000D02*
X43434000Y-18034000D01*
X43180000Y-12319000D02*
X43180000Y-12065000D01*
X43180000Y-12065000D02*
X41910000Y-10795000D01*
X41910000Y-10795000D02*
X41910000Y-2794000D01*
X41910000Y-2794000D02*
X41783000Y-2667000D01*
X44394639Y-22238953D02*
X44336953Y-22238953D01*
X44336953Y-22238953D02*
X42037000Y-19939000D01*
X42037000Y-19939000D02*
X42037000Y-17907000D01*
X40640000Y-12319000D02*
X40640000Y-12192000D01*
X40640000Y-12192000D02*
X39370000Y-10922000D01*
X39370000Y-10922000D02*
X39370000Y-2794000D01*
X39370000Y-2794000D02*
X39243000Y-2667000D01*
X43828953Y-22804639D02*
X43828953Y-22746953D01*
X43828953Y-22746953D02*
X40767000Y-19685000D01*
X40767000Y-19685000D02*
X40767000Y-17907000D01*
X38100000Y-12319000D02*
X38100000Y-11811000D01*
X38100000Y-11811000D02*
X36830000Y-10541000D01*
X36830000Y-10541000D02*
X36830000Y-2794000D01*
X36830000Y-2794000D02*
X36703000Y-2667000D01*
X43263268Y-23370324D02*
X43182324Y-23370324D01*
X43182324Y-23370324D02*
X39243000Y-19431000D01*
X39243000Y-19431000D02*
X39243000Y-18034000D01*
D54*
X58039000Y-24765000D02*
X56896000Y-25908000D01*
X56896000Y-25908000D02*
X52959000Y-25908000D01*
D11*
X35560000Y-12319000D02*
X35560000Y-12065000D01*
X35560000Y-12065000D02*
X34290000Y-10795000D01*
X34290000Y-10795000D02*
X34290000Y-2794000D01*
X34290000Y-2794000D02*
X34163000Y-2667000D01*
X42697583Y-23936010D02*
X42697583Y-23901583D01*
X42697583Y-23901583D02*
X37973000Y-19177000D01*
X37973000Y-19177000D02*
X37973000Y-18288000D01*
D54*
X63766700Y-23037800D02*
X62242700Y-23037800D01*
X54927500Y-26606500D02*
X53530500Y-26606500D01*
X54991000Y-26670000D02*
X54927500Y-26606500D01*
X58610500Y-26670000D02*
X54991000Y-26670000D01*
X62242700Y-23037800D02*
X58610500Y-26670000D01*
D11*
X33020000Y-12319000D02*
X33020000Y-12065000D01*
X33020000Y-12065000D02*
X31750000Y-10795000D01*
X31750000Y-10795000D02*
X31750000Y-2794000D01*
X31750000Y-2794000D02*
X31623000Y-2667000D01*
X42131897Y-24501695D02*
X42131897Y-24478897D01*
X42131897Y-24478897D02*
X36449000Y-18796000D01*
X36449000Y-18796000D02*
X36449000Y-17907000D01*
X40894000Y-27686000D02*
X42027695Y-26552305D01*
X42027695Y-26552305D02*
X42131897Y-26552305D01*
X42131897Y-26552305D02*
X42131897Y-26002897D01*
X34798000Y-18669000D02*
X34798000Y-17907000D01*
X42131897Y-26002897D02*
X34798000Y-18669000D01*
X30480000Y-12319000D02*
X30353000Y-12319000D01*
X25654000Y-7940000D02*
X25654000Y-7112000D01*
X29083000Y-5080000D02*
X29083000Y-2667000D01*
X28829000Y-5334000D02*
X29083000Y-5080000D01*
X27432000Y-5334000D02*
X28829000Y-5334000D01*
X25654000Y-7112000D02*
X27432000Y-5334000D01*
X21860000Y-25781000D02*
X20447000Y-25781000D01*
X36068000Y-33020000D02*
X34859000Y-33020000D01*
X36195000Y-33147000D02*
X36068000Y-33020000D01*
X24595000Y-12573000D02*
X26228000Y-12573000D01*
X17348200Y-15494000D02*
X17348200Y-13766800D01*
X18542000Y-12573000D02*
X22395000Y-12573000D01*
X17348200Y-13766800D02*
X18542000Y-12573000D01*
X26228000Y-14478000D02*
X24595000Y-14478000D01*
X22395000Y-14478000D02*
X21082000Y-14478000D01*
X13462000Y-11295944D02*
X13462000Y-10160000D01*
X14672028Y-12505972D02*
X13462000Y-11295944D01*
X16958028Y-12505972D02*
X14672028Y-12505972D01*
X17018000Y-12446000D02*
X16958028Y-12505972D01*
X20701000Y-14097000D02*
X18542000Y-14097000D01*
X21082000Y-14478000D02*
X20701000Y-14097000D01*
X63500000Y-12319000D02*
X63500000Y-12192000D01*
X63500000Y-12192000D02*
X64770000Y-10922000D01*
X64770000Y-3810000D02*
X63627000Y-2667000D01*
X64770000Y-10922000D02*
X64770000Y-3810000D01*
X63119000Y-15814000D02*
X63053000Y-15814000D01*
X63053000Y-15814000D02*
X62230000Y-16637000D01*
X51943000Y-28702000D02*
X50970732Y-27729732D01*
X52578000Y-28702000D02*
X51943000Y-28702000D01*
X57023000Y-15875000D02*
X57023000Y-16383000D01*
X57531000Y-15367000D02*
X57023000Y-15875000D01*
X58166000Y-15367000D02*
X57531000Y-15367000D01*
X59436000Y-16637000D02*
X58166000Y-15367000D01*
X62230000Y-16637000D02*
X59436000Y-16637000D01*
X50970732Y-27729732D02*
X50970732Y-27683676D01*
X63119000Y-15814000D02*
X63119000Y-12700000D01*
X63119000Y-12700000D02*
X63500000Y-12319000D01*
X43434000Y-30988000D02*
X44960324Y-29461676D01*
X44960324Y-29461676D02*
X44960324Y-29380732D01*
D54*
X52070000Y-27813000D02*
X52959000Y-27813000D01*
D11*
X51536417Y-27279417D02*
X52070000Y-27813000D01*
D54*
X52959000Y-27813000D02*
X53086000Y-27940000D01*
D11*
X60960000Y-14732000D02*
X60960000Y-15814000D01*
X55753000Y-15240000D02*
X55753000Y-16383000D01*
X56769000Y-14224000D02*
X55753000Y-15240000D01*
X60452000Y-14224000D02*
X56769000Y-14224000D01*
X60960000Y-14732000D02*
X60452000Y-14224000D01*
X60960000Y-12319000D02*
X60960000Y-11811000D01*
X60960000Y-11811000D02*
X62230000Y-10541000D01*
X62230000Y-3810000D02*
X61087000Y-2667000D01*
X62230000Y-10541000D02*
X62230000Y-3810000D01*
X51536417Y-27279417D02*
X51536417Y-27117990D01*
X60960000Y-15814000D02*
X60960000Y-12319000D01*
X41783000Y-29210000D02*
X43263268Y-27729732D01*
X41783000Y-30607000D02*
X41783000Y-29210000D01*
X43263268Y-27729732D02*
X43263268Y-27683676D01*
X21209000Y-19111000D02*
X20508000Y-19111000D01*
X19304000Y-8890000D02*
X19304000Y-10160000D01*
X19812000Y-8382000D02*
X19304000Y-8890000D01*
X20508000Y-19111000D02*
X19685000Y-18288000D01*
X21209000Y-19111000D02*
X22037000Y-19111000D01*
X22464000Y-18684000D02*
X23130000Y-18684000D01*
X22037000Y-19111000D02*
X22464000Y-18684000D01*
X26355000Y-23114000D02*
X26355000Y-21910000D01*
X11303000Y-19812000D02*
X13175000Y-19812000D01*
X11176000Y-19939000D02*
X11303000Y-19812000D01*
X26355000Y-21910000D02*
X26035000Y-21590000D01*
X23860000Y-23175000D02*
X26294000Y-23175000D01*
X26294000Y-23175000D02*
X26355000Y-23114000D01*
X23860000Y-26731000D02*
X26167000Y-26731000D01*
X26167000Y-26731000D02*
X26355000Y-26543000D01*
X18575000Y-21082000D02*
X19812000Y-21082000D01*
X22860000Y-25400000D02*
X23860000Y-26400000D01*
X22860000Y-24765000D02*
X22860000Y-25400000D01*
X21717000Y-23622000D02*
X22860000Y-24765000D01*
X21209000Y-23622000D02*
X21717000Y-23622000D01*
X20574000Y-22987000D02*
X21209000Y-23622000D01*
X20574000Y-21844000D02*
X20574000Y-22987000D01*
X19812000Y-21082000D02*
X20574000Y-21844000D01*
X23860000Y-26400000D02*
X23860000Y-26731000D01*
X19304000Y-15494000D02*
X21272500Y-15494000D01*
D54*
X63119000Y-18351500D02*
X62674500Y-18796000D01*
X62674500Y-18796000D02*
X60261500Y-18796000D01*
X60261500Y-18796000D02*
X59626500Y-18161000D01*
X59626500Y-18161000D02*
X58039000Y-18161000D01*
X58039000Y-18161000D02*
X57404000Y-17526000D01*
X57404000Y-17526000D02*
X55054500Y-17526000D01*
X55054500Y-17526000D02*
X53149500Y-15621000D01*
X53149500Y-15621000D02*
X31178500Y-15621000D01*
X31178500Y-15621000D02*
X31115000Y-15684500D01*
X63119000Y-18351500D02*
X63119000Y-17714000D01*
D11*
X21526500Y-15748000D02*
X22415500Y-15748000D01*
X21272500Y-15494000D02*
X21526500Y-15748000D01*
D54*
X20193000Y-15494000D02*
X19304000Y-15494000D01*
X60960000Y-17714000D02*
X58290500Y-17714000D01*
X17348200Y-11544300D02*
X17348200Y-10160000D01*
X17272000Y-11620500D02*
X17348200Y-11544300D01*
X30480000Y-15049500D02*
X30416500Y-15113000D01*
X53213000Y-15049500D02*
X30480000Y-15049500D01*
X55245000Y-17081500D02*
X53213000Y-15049500D01*
X57658000Y-17081500D02*
X55245000Y-17081500D01*
X58290500Y-17714000D02*
X57658000Y-17081500D01*
D11*
X28448000Y-36388000D02*
X28448000Y-35306000D01*
X28735000Y-35019000D02*
X28735000Y-33528000D01*
X28448000Y-35306000D02*
X28735000Y-35019000D01*
D53*
X28448000Y-36388000D02*
X26924000Y-36388000D01*
D11*
X34859000Y-26924000D02*
X35941000Y-26924000D01*
X35941000Y-26924000D02*
X36068000Y-26797000D01*
X30480000Y-30988000D02*
X28735000Y-30988000D01*
X48707990Y-21107583D02*
X48707990Y-21015010D01*
X48707990Y-21015010D02*
X49276000Y-20447000D01*
X49276000Y-20447000D02*
X50844472Y-20447000D01*
X50844472Y-20447000D02*
X51266736Y-20024736D01*
X48142305Y-20541897D02*
X48142305Y-20437695D01*
X48142305Y-20437695D02*
X48768000Y-19812000D01*
X48768000Y-19812000D02*
X48768000Y-19132528D01*
X48768000Y-19132528D02*
X49571264Y-18329264D01*
D55*
X4311000Y-11669000D02*
X6274000Y-11669000D01*
X6274000Y-11669000D02*
X6289000Y-11684000D01*
X4311000Y-12319000D02*
X5334000Y-12319000D01*
X6289000Y-13274000D02*
X6289000Y-14224000D01*
X5334000Y-12319000D02*
X6289000Y-13274000D01*
D53*
X6382000Y-27432000D02*
X6382000Y-27083000D01*
X6382000Y-27083000D02*
X4862000Y-25563000D01*
X4862000Y-25563000D02*
X3589000Y-25563000D01*
X11811000Y-45339000D02*
X11049000Y-45339000D01*
X11049000Y-45339000D02*
X7493000Y-41783000D01*
X7493000Y-41783000D02*
X3048000Y-41783000D01*
X3048000Y-41783000D02*
X1143000Y-39878000D01*
X1143000Y-39878000D02*
X1143000Y-34226500D01*
X1143000Y-34226500D02*
X2286000Y-33083500D01*
X2286000Y-33083500D02*
X3873500Y-33083500D01*
X3873500Y-33083500D02*
X5334000Y-31623000D01*
X5334000Y-31623000D02*
X5334000Y-29591000D01*
X5334000Y-29591000D02*
X4306000Y-28563000D01*
X4306000Y-28563000D02*
X3589000Y-28563000D01*
D12*
G36*
X23462000Y-33401000D02*
X23482000Y-33401000D01*
X23482000Y-33655000D01*
X23462000Y-33655000D01*
X23462000Y-34304250D01*
X23620750Y-34463000D01*
X24236309Y-34463000D01*
X24280680Y-34444621D01*
X24433691Y-34508000D01*
X25749250Y-34508000D01*
X25908000Y-34349250D01*
X25908000Y-33858000D01*
X26162000Y-33858000D01*
X26162000Y-34349250D01*
X26320750Y-34508000D01*
X27636309Y-34508000D01*
X27795391Y-34442106D01*
X27960000Y-34475440D01*
X28000000Y-34475440D01*
X28000000Y-34714554D01*
X27928277Y-34786277D01*
X27768949Y-35024728D01*
X27713000Y-35306000D01*
X27713000Y-35353000D01*
X26924000Y-35353000D01*
X26735174Y-35390560D01*
X26274000Y-35390560D01*
X26038683Y-35434838D01*
X25822559Y-35573910D01*
X25677569Y-35786110D01*
X25626560Y-36038000D01*
X25626560Y-36738000D01*
X25670838Y-36973317D01*
X25809910Y-37189441D01*
X26022110Y-37334431D01*
X26035197Y-37337081D01*
X25822559Y-37473910D01*
X25677569Y-37686110D01*
X25626560Y-37938000D01*
X25626560Y-38638000D01*
X25670838Y-38873317D01*
X25809910Y-39089441D01*
X25889000Y-39143481D01*
X25889000Y-40084289D01*
X25397144Y-40576144D01*
X25218463Y-40843560D01*
X24840440Y-40843560D01*
X24840440Y-38414000D01*
X24796162Y-38178683D01*
X24657090Y-37962559D01*
X24444890Y-37817569D01*
X24193000Y-37766560D01*
X21193000Y-37766560D01*
X20957683Y-37810838D01*
X20741559Y-37949910D01*
X20596569Y-38162110D01*
X20545560Y-38414000D01*
X20545560Y-45914000D01*
X20589838Y-46149317D01*
X20728910Y-46365441D01*
X20941110Y-46510431D01*
X21193000Y-46561440D01*
X24193000Y-46561440D01*
X24428317Y-46517162D01*
X24644441Y-46378090D01*
X24789431Y-46165890D01*
X24840440Y-45914000D01*
X24840440Y-43738440D01*
X27879000Y-43738440D01*
X28030500Y-43709933D01*
X28030500Y-44005500D01*
X28072682Y-44217559D01*
X28086449Y-44286772D01*
X28245777Y-44525223D01*
X29259276Y-45538723D01*
X29497727Y-45698051D01*
X29544394Y-45707333D01*
X29779000Y-45754000D01*
X33704656Y-45754000D01*
X33747410Y-45820441D01*
X33959610Y-45965431D01*
X34099500Y-45993759D01*
X34099500Y-47055370D01*
X32608185Y-48546685D01*
X32443004Y-48793895D01*
X32385000Y-49085500D01*
X32385000Y-49510433D01*
X32241744Y-49569625D01*
X31876758Y-49933974D01*
X31514624Y-49571207D01*
X30926696Y-49327078D01*
X30290097Y-49326523D01*
X29701744Y-49569625D01*
X29336758Y-49933974D01*
X28974624Y-49571207D01*
X28386696Y-49327078D01*
X27750097Y-49326523D01*
X27161744Y-49569625D01*
X26711207Y-50019376D01*
X26467078Y-50607304D01*
X26466523Y-51243903D01*
X26709625Y-51832256D01*
X27159376Y-52282793D01*
X27747304Y-52526922D01*
X28383903Y-52527477D01*
X28972256Y-52284375D01*
X29337242Y-51920026D01*
X29699376Y-52282793D01*
X30287304Y-52526922D01*
X30923903Y-52527477D01*
X31096652Y-52456099D01*
X31409053Y-52768500D01*
X15398118Y-52768500D01*
X15980045Y-52187589D01*
X16319113Y-51371022D01*
X16319885Y-50486857D01*
X16124821Y-50014766D01*
X16382362Y-50121707D01*
X16678275Y-50121965D01*
X16469262Y-50625325D01*
X16468738Y-51226040D01*
X16698138Y-51781229D01*
X17122537Y-52206370D01*
X17677325Y-52436738D01*
X18278040Y-52437262D01*
X18833229Y-52207862D01*
X19052413Y-51989060D01*
X21596545Y-51989060D01*
X21679884Y-52242953D01*
X22244306Y-52448590D01*
X22844458Y-52422579D01*
X23278116Y-52242953D01*
X23361455Y-51989060D01*
X22479000Y-51106605D01*
X21596545Y-51989060D01*
X19052413Y-51989060D01*
X19258370Y-51783463D01*
X19488738Y-51228675D01*
X19489205Y-50692306D01*
X20957410Y-50692306D01*
X20983421Y-51292458D01*
X21163047Y-51726116D01*
X21416940Y-51809455D01*
X22299395Y-50927000D01*
X21416940Y-50044545D01*
X21163047Y-50127884D01*
X20957410Y-50692306D01*
X19489205Y-50692306D01*
X19489262Y-50627960D01*
X19259862Y-50072771D01*
X19052394Y-49864940D01*
X21596545Y-49864940D01*
X22479000Y-50747395D01*
X22493143Y-50733253D01*
X22672748Y-50912858D01*
X22658605Y-50927000D01*
X23541060Y-51809455D01*
X23794953Y-51726116D01*
X24000590Y-51161694D01*
X23974579Y-50561542D01*
X23794953Y-50127884D01*
X23777158Y-50122043D01*
X24062697Y-50122292D01*
X24682229Y-49866306D01*
X25156640Y-49392722D01*
X25413707Y-48773638D01*
X25414292Y-48103303D01*
X25158306Y-47483771D01*
X24684722Y-47009360D01*
X24065638Y-46752293D01*
X23395303Y-46751708D01*
X22775771Y-47007694D01*
X22301360Y-47481278D01*
X22044293Y-48100362D01*
X22043708Y-48770697D01*
X22299694Y-49390229D01*
X22331389Y-49421979D01*
X22113542Y-49431421D01*
X21679884Y-49611047D01*
X21596545Y-49864940D01*
X19052394Y-49864940D01*
X18835463Y-49647630D01*
X18280675Y-49417262D01*
X18122196Y-49417124D01*
X18146640Y-49392722D01*
X18403707Y-48773638D01*
X18404292Y-48103303D01*
X18148306Y-47483771D01*
X17674722Y-47009360D01*
X17055638Y-46752293D01*
X16385303Y-46751708D01*
X15765771Y-47007694D01*
X15291360Y-47481278D01*
X15034293Y-48100362D01*
X15033708Y-48770697D01*
X15102922Y-48938208D01*
X14541022Y-48704887D01*
X13656857Y-48704115D01*
X12839700Y-49041758D01*
X12213955Y-49666411D01*
X11874887Y-50482978D01*
X11874115Y-51367143D01*
X12211758Y-52184300D01*
X12794939Y-52768500D01*
X9863669Y-52768500D01*
X9985114Y-52582719D01*
X8001000Y-50598605D01*
X6016886Y-52582719D01*
X6138331Y-52768500D01*
X4619429Y-52768500D01*
X4619429Y-50762000D01*
X825500Y-50762000D01*
X825500Y-44740713D01*
X2674928Y-44740713D01*
X2677081Y-45948109D01*
X3134990Y-47053600D01*
X3547281Y-47323114D01*
X5531395Y-45339000D01*
X3547281Y-43354886D01*
X3134990Y-43624400D01*
X2674928Y-44740713D01*
X825500Y-44740713D01*
X825500Y-41024212D01*
X2316142Y-42514853D01*
X2316144Y-42514856D01*
X2618031Y-42716569D01*
X2651923Y-42739215D01*
X3048000Y-42818001D01*
X3048005Y-42818000D01*
X3960440Y-42818000D01*
X3726886Y-43175281D01*
X5711000Y-45159395D01*
X5725143Y-45145253D01*
X5904748Y-45324858D01*
X5890605Y-45339000D01*
X5904748Y-45353143D01*
X5725143Y-45532748D01*
X5711000Y-45518605D01*
X3726886Y-47502719D01*
X3996400Y-47915010D01*
X5112713Y-48375072D01*
X5776281Y-48373889D01*
X5837279Y-48434887D01*
X5424990Y-48704400D01*
X4964928Y-49820713D01*
X4967081Y-51028109D01*
X5424990Y-52133600D01*
X5837281Y-52403114D01*
X7821395Y-50419000D01*
X7807253Y-50404858D01*
X7986858Y-50225253D01*
X8001000Y-50239395D01*
X8015143Y-50225253D01*
X8194748Y-50404858D01*
X8180605Y-50419000D01*
X10164719Y-52403114D01*
X10577010Y-52133600D01*
X11037072Y-51017287D01*
X11034919Y-49809891D01*
X10577010Y-48704400D01*
X10164721Y-48434887D01*
X10213168Y-48386440D01*
X14211000Y-48386440D01*
X14446317Y-48342162D01*
X14662441Y-48203090D01*
X14807431Y-47990890D01*
X14858440Y-47739000D01*
X14858440Y-42939000D01*
X14814162Y-42703683D01*
X14675090Y-42487559D01*
X14462890Y-42342569D01*
X14211000Y-42291560D01*
X9465272Y-42291560D01*
X8224856Y-41051144D01*
X7889077Y-40826785D01*
X7493000Y-40747999D01*
X7492995Y-40748000D01*
X3476711Y-40748000D01*
X2178000Y-39449288D01*
X2178000Y-39250440D01*
X4073000Y-39250440D01*
X4308317Y-39206162D01*
X4524441Y-39067090D01*
X4669431Y-38854890D01*
X4720440Y-38603000D01*
X4720440Y-37738000D01*
X5488000Y-37738000D01*
X5488000Y-38133922D01*
X5372270Y-38412630D01*
X5371931Y-38801663D01*
X5520493Y-39161212D01*
X5795341Y-39436540D01*
X6154630Y-39585730D01*
X6543663Y-39586069D01*
X6903212Y-39437507D01*
X7052228Y-39288750D01*
X7738000Y-39288750D01*
X7738000Y-39879310D01*
X7834673Y-40112699D01*
X8013302Y-40291327D01*
X8246691Y-40388000D01*
X9087250Y-40388000D01*
X9246000Y-40229250D01*
X9246000Y-39130000D01*
X9500000Y-39130000D01*
X9500000Y-40229250D01*
X9658750Y-40388000D01*
X10499309Y-40388000D01*
X10732698Y-40291327D01*
X10911327Y-40112699D01*
X11008000Y-39879310D01*
X11008000Y-39288750D01*
X10849250Y-39130000D01*
X9500000Y-39130000D01*
X9246000Y-39130000D01*
X7896750Y-39130000D01*
X7738000Y-39288750D01*
X7052228Y-39288750D01*
X7178540Y-39162659D01*
X7327730Y-38803370D01*
X7328069Y-38414337D01*
X7179507Y-38054788D01*
X6958000Y-37832894D01*
X6958000Y-37738000D01*
X7801808Y-37738000D01*
X7875482Y-37852492D01*
X7834673Y-37893301D01*
X7738000Y-38126690D01*
X7738000Y-38717250D01*
X7896750Y-38876000D01*
X9246000Y-38876000D01*
X9246000Y-38856000D01*
X9500000Y-38856000D01*
X9500000Y-38876000D01*
X10849250Y-38876000D01*
X11008000Y-38717250D01*
X11008000Y-38252711D01*
X11300000Y-38544711D01*
X11300000Y-38657203D01*
X11238569Y-38747110D01*
X11187560Y-38999000D01*
X11187560Y-40249000D01*
X11231838Y-40484317D01*
X11370910Y-40700441D01*
X11583110Y-40845431D01*
X11835000Y-40896440D01*
X12835000Y-40896440D01*
X13070317Y-40852162D01*
X13286441Y-40713090D01*
X13332969Y-40644994D01*
X13475302Y-40787327D01*
X13708691Y-40884000D01*
X14049250Y-40884000D01*
X14208000Y-40725250D01*
X14208000Y-39751000D01*
X14462000Y-39751000D01*
X14462000Y-40725250D01*
X14620750Y-40884000D01*
X14961309Y-40884000D01*
X15194698Y-40787327D01*
X15373327Y-40608699D01*
X15470000Y-40375310D01*
X15470000Y-39909750D01*
X15311250Y-39751000D01*
X14462000Y-39751000D01*
X14208000Y-39751000D01*
X14188000Y-39751000D01*
X14188000Y-39497000D01*
X14208000Y-39497000D01*
X14208000Y-39477000D01*
X14462000Y-39477000D01*
X14462000Y-39497000D01*
X15311250Y-39497000D01*
X15470000Y-39338250D01*
X15470000Y-39121000D01*
X15545560Y-39121000D01*
X15545560Y-45914000D01*
X15589838Y-46149317D01*
X15728910Y-46365441D01*
X15941110Y-46510431D01*
X16193000Y-46561440D01*
X19193000Y-46561440D01*
X19428317Y-46517162D01*
X19644441Y-46378090D01*
X19789431Y-46165890D01*
X19840440Y-45914000D01*
X19840440Y-41948271D01*
X20035853Y-41752858D01*
X20035856Y-41752856D01*
X20260215Y-41417077D01*
X20266213Y-41386923D01*
X20339001Y-41021000D01*
X20339000Y-41020995D01*
X20339000Y-37550757D01*
X20380441Y-37524090D01*
X20521700Y-37317351D01*
X20559856Y-37291856D01*
X22067853Y-35783858D01*
X22067856Y-35783856D01*
X22292215Y-35448077D01*
X22299735Y-35410272D01*
X22371001Y-35052000D01*
X22371000Y-35051995D01*
X22371000Y-34437033D01*
X22433691Y-34463000D01*
X23049250Y-34463000D01*
X23208000Y-34304250D01*
X23208000Y-33655000D01*
X23188000Y-33655000D01*
X23188000Y-33401000D01*
X23208000Y-33401000D01*
X23208000Y-33381000D01*
X23462000Y-33381000D01*
X23462000Y-33401000D01*
X23462000Y-33401000D01*
G37*
X23462000Y-33401000D02*
X23482000Y-33401000D01*
X23482000Y-33655000D01*
X23462000Y-33655000D01*
X23462000Y-34304250D01*
X23620750Y-34463000D01*
X24236309Y-34463000D01*
X24280680Y-34444621D01*
X24433691Y-34508000D01*
X25749250Y-34508000D01*
X25908000Y-34349250D01*
X25908000Y-33858000D01*
X26162000Y-33858000D01*
X26162000Y-34349250D01*
X26320750Y-34508000D01*
X27636309Y-34508000D01*
X27795391Y-34442106D01*
X27960000Y-34475440D01*
X28000000Y-34475440D01*
X28000000Y-34714554D01*
X27928277Y-34786277D01*
X27768949Y-35024728D01*
X27713000Y-35306000D01*
X27713000Y-35353000D01*
X26924000Y-35353000D01*
X26735174Y-35390560D01*
X26274000Y-35390560D01*
X26038683Y-35434838D01*
X25822559Y-35573910D01*
X25677569Y-35786110D01*
X25626560Y-36038000D01*
X25626560Y-36738000D01*
X25670838Y-36973317D01*
X25809910Y-37189441D01*
X26022110Y-37334431D01*
X26035197Y-37337081D01*
X25822559Y-37473910D01*
X25677569Y-37686110D01*
X25626560Y-37938000D01*
X25626560Y-38638000D01*
X25670838Y-38873317D01*
X25809910Y-39089441D01*
X25889000Y-39143481D01*
X25889000Y-40084289D01*
X25397144Y-40576144D01*
X25218463Y-40843560D01*
X24840440Y-40843560D01*
X24840440Y-38414000D01*
X24796162Y-38178683D01*
X24657090Y-37962559D01*
X24444890Y-37817569D01*
X24193000Y-37766560D01*
X21193000Y-37766560D01*
X20957683Y-37810838D01*
X20741559Y-37949910D01*
X20596569Y-38162110D01*
X20545560Y-38414000D01*
X20545560Y-45914000D01*
X20589838Y-46149317D01*
X20728910Y-46365441D01*
X20941110Y-46510431D01*
X21193000Y-46561440D01*
X24193000Y-46561440D01*
X24428317Y-46517162D01*
X24644441Y-46378090D01*
X24789431Y-46165890D01*
X24840440Y-45914000D01*
X24840440Y-43738440D01*
X27879000Y-43738440D01*
X28030500Y-43709933D01*
X28030500Y-44005500D01*
X28072682Y-44217559D01*
X28086449Y-44286772D01*
X28245777Y-44525223D01*
X29259276Y-45538723D01*
X29497727Y-45698051D01*
X29544394Y-45707333D01*
X29779000Y-45754000D01*
X33704656Y-45754000D01*
X33747410Y-45820441D01*
X33959610Y-45965431D01*
X34099500Y-45993759D01*
X34099500Y-47055370D01*
X32608185Y-48546685D01*
X32443004Y-48793895D01*
X32385000Y-49085500D01*
X32385000Y-49510433D01*
X32241744Y-49569625D01*
X31876758Y-49933974D01*
X31514624Y-49571207D01*
X30926696Y-49327078D01*
X30290097Y-49326523D01*
X29701744Y-49569625D01*
X29336758Y-49933974D01*
X28974624Y-49571207D01*
X28386696Y-49327078D01*
X27750097Y-49326523D01*
X27161744Y-49569625D01*
X26711207Y-50019376D01*
X26467078Y-50607304D01*
X26466523Y-51243903D01*
X26709625Y-51832256D01*
X27159376Y-52282793D01*
X27747304Y-52526922D01*
X28383903Y-52527477D01*
X28972256Y-52284375D01*
X29337242Y-51920026D01*
X29699376Y-52282793D01*
X30287304Y-52526922D01*
X30923903Y-52527477D01*
X31096652Y-52456099D01*
X31409053Y-52768500D01*
X15398118Y-52768500D01*
X15980045Y-52187589D01*
X16319113Y-51371022D01*
X16319885Y-50486857D01*
X16124821Y-50014766D01*
X16382362Y-50121707D01*
X16678275Y-50121965D01*
X16469262Y-50625325D01*
X16468738Y-51226040D01*
X16698138Y-51781229D01*
X17122537Y-52206370D01*
X17677325Y-52436738D01*
X18278040Y-52437262D01*
X18833229Y-52207862D01*
X19052413Y-51989060D01*
X21596545Y-51989060D01*
X21679884Y-52242953D01*
X22244306Y-52448590D01*
X22844458Y-52422579D01*
X23278116Y-52242953D01*
X23361455Y-51989060D01*
X22479000Y-51106605D01*
X21596545Y-51989060D01*
X19052413Y-51989060D01*
X19258370Y-51783463D01*
X19488738Y-51228675D01*
X19489205Y-50692306D01*
X20957410Y-50692306D01*
X20983421Y-51292458D01*
X21163047Y-51726116D01*
X21416940Y-51809455D01*
X22299395Y-50927000D01*
X21416940Y-50044545D01*
X21163047Y-50127884D01*
X20957410Y-50692306D01*
X19489205Y-50692306D01*
X19489262Y-50627960D01*
X19259862Y-50072771D01*
X19052394Y-49864940D01*
X21596545Y-49864940D01*
X22479000Y-50747395D01*
X22493143Y-50733253D01*
X22672748Y-50912858D01*
X22658605Y-50927000D01*
X23541060Y-51809455D01*
X23794953Y-51726116D01*
X24000590Y-51161694D01*
X23974579Y-50561542D01*
X23794953Y-50127884D01*
X23777158Y-50122043D01*
X24062697Y-50122292D01*
X24682229Y-49866306D01*
X25156640Y-49392722D01*
X25413707Y-48773638D01*
X25414292Y-48103303D01*
X25158306Y-47483771D01*
X24684722Y-47009360D01*
X24065638Y-46752293D01*
X23395303Y-46751708D01*
X22775771Y-47007694D01*
X22301360Y-47481278D01*
X22044293Y-48100362D01*
X22043708Y-48770697D01*
X22299694Y-49390229D01*
X22331389Y-49421979D01*
X22113542Y-49431421D01*
X21679884Y-49611047D01*
X21596545Y-49864940D01*
X19052394Y-49864940D01*
X18835463Y-49647630D01*
X18280675Y-49417262D01*
X18122196Y-49417124D01*
X18146640Y-49392722D01*
X18403707Y-48773638D01*
X18404292Y-48103303D01*
X18148306Y-47483771D01*
X17674722Y-47009360D01*
X17055638Y-46752293D01*
X16385303Y-46751708D01*
X15765771Y-47007694D01*
X15291360Y-47481278D01*
X15034293Y-48100362D01*
X15033708Y-48770697D01*
X15102922Y-48938208D01*
X14541022Y-48704887D01*
X13656857Y-48704115D01*
X12839700Y-49041758D01*
X12213955Y-49666411D01*
X11874887Y-50482978D01*
X11874115Y-51367143D01*
X12211758Y-52184300D01*
X12794939Y-52768500D01*
X9863669Y-52768500D01*
X9985114Y-52582719D01*
X8001000Y-50598605D01*
X6016886Y-52582719D01*
X6138331Y-52768500D01*
X4619429Y-52768500D01*
X4619429Y-50762000D01*
X825500Y-50762000D01*
X825500Y-44740713D01*
X2674928Y-44740713D01*
X2677081Y-45948109D01*
X3134990Y-47053600D01*
X3547281Y-47323114D01*
X5531395Y-45339000D01*
X3547281Y-43354886D01*
X3134990Y-43624400D01*
X2674928Y-44740713D01*
X825500Y-44740713D01*
X825500Y-41024212D01*
X2316142Y-42514853D01*
X2316144Y-42514856D01*
X2618031Y-42716569D01*
X2651923Y-42739215D01*
X3048000Y-42818001D01*
X3048005Y-42818000D01*
X3960440Y-42818000D01*
X3726886Y-43175281D01*
X5711000Y-45159395D01*
X5725143Y-45145253D01*
X5904748Y-45324858D01*
X5890605Y-45339000D01*
X5904748Y-45353143D01*
X5725143Y-45532748D01*
X5711000Y-45518605D01*
X3726886Y-47502719D01*
X3996400Y-47915010D01*
X5112713Y-48375072D01*
X5776281Y-48373889D01*
X5837279Y-48434887D01*
X5424990Y-48704400D01*
X4964928Y-49820713D01*
X4967081Y-51028109D01*
X5424990Y-52133600D01*
X5837281Y-52403114D01*
X7821395Y-50419000D01*
X7807253Y-50404858D01*
X7986858Y-50225253D01*
X8001000Y-50239395D01*
X8015143Y-50225253D01*
X8194748Y-50404858D01*
X8180605Y-50419000D01*
X10164719Y-52403114D01*
X10577010Y-52133600D01*
X11037072Y-51017287D01*
X11034919Y-49809891D01*
X10577010Y-48704400D01*
X10164721Y-48434887D01*
X10213168Y-48386440D01*
X14211000Y-48386440D01*
X14446317Y-48342162D01*
X14662441Y-48203090D01*
X14807431Y-47990890D01*
X14858440Y-47739000D01*
X14858440Y-42939000D01*
X14814162Y-42703683D01*
X14675090Y-42487559D01*
X14462890Y-42342569D01*
X14211000Y-42291560D01*
X9465272Y-42291560D01*
X8224856Y-41051144D01*
X7889077Y-40826785D01*
X7493000Y-40747999D01*
X7492995Y-40748000D01*
X3476711Y-40748000D01*
X2178000Y-39449288D01*
X2178000Y-39250440D01*
X4073000Y-39250440D01*
X4308317Y-39206162D01*
X4524441Y-39067090D01*
X4669431Y-38854890D01*
X4720440Y-38603000D01*
X4720440Y-37738000D01*
X5488000Y-37738000D01*
X5488000Y-38133922D01*
X5372270Y-38412630D01*
X5371931Y-38801663D01*
X5520493Y-39161212D01*
X5795341Y-39436540D01*
X6154630Y-39585730D01*
X6543663Y-39586069D01*
X6903212Y-39437507D01*
X7052228Y-39288750D01*
X7738000Y-39288750D01*
X7738000Y-39879310D01*
X7834673Y-40112699D01*
X8013302Y-40291327D01*
X8246691Y-40388000D01*
X9087250Y-40388000D01*
X9246000Y-40229250D01*
X9246000Y-39130000D01*
X9500000Y-39130000D01*
X9500000Y-40229250D01*
X9658750Y-40388000D01*
X10499309Y-40388000D01*
X10732698Y-40291327D01*
X10911327Y-40112699D01*
X11008000Y-39879310D01*
X11008000Y-39288750D01*
X10849250Y-39130000D01*
X9500000Y-39130000D01*
X9246000Y-39130000D01*
X7896750Y-39130000D01*
X7738000Y-39288750D01*
X7052228Y-39288750D01*
X7178540Y-39162659D01*
X7327730Y-38803370D01*
X7328069Y-38414337D01*
X7179507Y-38054788D01*
X6958000Y-37832894D01*
X6958000Y-37738000D01*
X7801808Y-37738000D01*
X7875482Y-37852492D01*
X7834673Y-37893301D01*
X7738000Y-38126690D01*
X7738000Y-38717250D01*
X7896750Y-38876000D01*
X9246000Y-38876000D01*
X9246000Y-38856000D01*
X9500000Y-38856000D01*
X9500000Y-38876000D01*
X10849250Y-38876000D01*
X11008000Y-38717250D01*
X11008000Y-38252711D01*
X11300000Y-38544711D01*
X11300000Y-38657203D01*
X11238569Y-38747110D01*
X11187560Y-38999000D01*
X11187560Y-40249000D01*
X11231838Y-40484317D01*
X11370910Y-40700441D01*
X11583110Y-40845431D01*
X11835000Y-40896440D01*
X12835000Y-40896440D01*
X13070317Y-40852162D01*
X13286441Y-40713090D01*
X13332969Y-40644994D01*
X13475302Y-40787327D01*
X13708691Y-40884000D01*
X14049250Y-40884000D01*
X14208000Y-40725250D01*
X14208000Y-39751000D01*
X14462000Y-39751000D01*
X14462000Y-40725250D01*
X14620750Y-40884000D01*
X14961309Y-40884000D01*
X15194698Y-40787327D01*
X15373327Y-40608699D01*
X15470000Y-40375310D01*
X15470000Y-39909750D01*
X15311250Y-39751000D01*
X14462000Y-39751000D01*
X14208000Y-39751000D01*
X14188000Y-39751000D01*
X14188000Y-39497000D01*
X14208000Y-39497000D01*
X14208000Y-39477000D01*
X14462000Y-39477000D01*
X14462000Y-39497000D01*
X15311250Y-39497000D01*
X15470000Y-39338250D01*
X15470000Y-39121000D01*
X15545560Y-39121000D01*
X15545560Y-45914000D01*
X15589838Y-46149317D01*
X15728910Y-46365441D01*
X15941110Y-46510431D01*
X16193000Y-46561440D01*
X19193000Y-46561440D01*
X19428317Y-46517162D01*
X19644441Y-46378090D01*
X19789431Y-46165890D01*
X19840440Y-45914000D01*
X19840440Y-41948271D01*
X20035853Y-41752858D01*
X20035856Y-41752856D01*
X20260215Y-41417077D01*
X20266213Y-41386923D01*
X20339001Y-41021000D01*
X20339000Y-41020995D01*
X20339000Y-37550757D01*
X20380441Y-37524090D01*
X20521700Y-37317351D01*
X20559856Y-37291856D01*
X22067853Y-35783858D01*
X22067856Y-35783856D01*
X22292215Y-35448077D01*
X22299735Y-35410272D01*
X22371001Y-35052000D01*
X22371000Y-35051995D01*
X22371000Y-34437033D01*
X22433691Y-34463000D01*
X23049250Y-34463000D01*
X23208000Y-34304250D01*
X23208000Y-33655000D01*
X23188000Y-33655000D01*
X23188000Y-33401000D01*
X23208000Y-33401000D01*
X23208000Y-33381000D01*
X23462000Y-33381000D01*
X23462000Y-33401000D01*
G36*
X54551606Y-18028894D02*
X54782335Y-18183063D01*
X55054500Y-18237200D01*
X57109412Y-18237200D01*
X57536106Y-18663895D01*
X57766836Y-18818063D01*
X58039000Y-18872200D01*
X59331912Y-18872200D01*
X59758606Y-19298895D01*
X59989336Y-19453063D01*
X60261500Y-19507200D01*
X62674500Y-19507200D01*
X62946665Y-19453063D01*
X63177394Y-19298894D01*
X63621894Y-18854394D01*
X63717413Y-18711440D01*
X63769000Y-18711440D01*
X64004317Y-18667162D01*
X64061216Y-18630549D01*
X64281758Y-19164300D01*
X64906411Y-19790045D01*
X65722978Y-20129113D01*
X66607143Y-20129885D01*
X67424300Y-19792242D01*
X68008500Y-19209061D01*
X68008500Y-44545882D01*
X67427589Y-43963955D01*
X66611022Y-43624887D01*
X65726857Y-43624115D01*
X64909700Y-43961758D01*
X64283955Y-44586411D01*
X63944887Y-45402978D01*
X63944813Y-45488185D01*
X63827767Y-45204914D01*
X63508765Y-44885355D01*
X63091756Y-44712197D01*
X62640225Y-44711803D01*
X62222914Y-44884233D01*
X61903355Y-45203235D01*
X61730197Y-45620244D01*
X61729803Y-46071775D01*
X61902233Y-46489086D01*
X62221235Y-46808645D01*
X62638244Y-46981803D01*
X63089775Y-46982197D01*
X63507086Y-46809767D01*
X63826645Y-46490765D01*
X63944184Y-46207700D01*
X63944115Y-46287143D01*
X64281758Y-47104300D01*
X64906411Y-47730045D01*
X65722978Y-48069113D01*
X66607143Y-48069885D01*
X67424300Y-47732242D01*
X68008500Y-47149061D01*
X68008500Y-48097672D01*
X65673086Y-50433086D01*
X65521670Y-50659695D01*
X65501320Y-50762000D01*
X65468500Y-50927000D01*
X65468500Y-51653672D01*
X64353672Y-52768500D01*
X37297946Y-52768500D01*
X37647432Y-52419014D01*
X37907304Y-52526922D01*
X38543903Y-52527477D01*
X39132256Y-52284375D01*
X39362682Y-52054350D01*
X39819255Y-52054350D01*
X39913654Y-52317596D01*
X40510769Y-52538305D01*
X41146893Y-52513707D01*
X41620346Y-52317596D01*
X41714745Y-52054350D01*
X42359255Y-52054350D01*
X42453654Y-52317596D01*
X43050769Y-52538305D01*
X43686893Y-52513707D01*
X44160346Y-52317596D01*
X44254745Y-52054350D01*
X43307000Y-51106605D01*
X42359255Y-52054350D01*
X41714745Y-52054350D01*
X40767000Y-51106605D01*
X39819255Y-52054350D01*
X39362682Y-52054350D01*
X39568250Y-51849141D01*
X39639650Y-51874745D01*
X40587395Y-50927000D01*
X40946605Y-50927000D01*
X41894350Y-51874745D01*
X42037000Y-51823591D01*
X42179650Y-51874745D01*
X43127395Y-50927000D01*
X43486605Y-50927000D01*
X44434350Y-51874745D01*
X44506288Y-51848948D01*
X44939376Y-52282793D01*
X45527304Y-52526922D01*
X46163903Y-52527477D01*
X46752256Y-52284375D01*
X47202793Y-51834624D01*
X47446922Y-51246696D01*
X47447477Y-50610097D01*
X47204375Y-50021744D01*
X46754624Y-49571207D01*
X46166696Y-49327078D01*
X45530097Y-49326523D01*
X44941744Y-49569625D01*
X44505750Y-50004859D01*
X44434350Y-49979255D01*
X43486605Y-50927000D01*
X43127395Y-50927000D01*
X42179650Y-49979255D01*
X42037000Y-50030409D01*
X41894350Y-49979255D01*
X40946605Y-50927000D01*
X40587395Y-50927000D01*
X39639650Y-49979255D01*
X39567712Y-50005052D01*
X39362669Y-49799650D01*
X39819255Y-49799650D01*
X40767000Y-50747395D01*
X41714745Y-49799650D01*
X42359255Y-49799650D01*
X43307000Y-50747395D01*
X44254745Y-49799650D01*
X44160346Y-49536404D01*
X43563231Y-49315695D01*
X42927107Y-49340293D01*
X42453654Y-49536404D01*
X42359255Y-49799650D01*
X41714745Y-49799650D01*
X41620346Y-49536404D01*
X41023231Y-49315695D01*
X40387107Y-49340293D01*
X39913654Y-49536404D01*
X39819255Y-49799650D01*
X39362669Y-49799650D01*
X39262000Y-49698806D01*
X39262000Y-48768005D01*
X39262001Y-48768000D01*
X39183215Y-48371923D01*
X39126472Y-48287001D01*
X38958856Y-48036144D01*
X38958853Y-48036142D01*
X38131000Y-47208288D01*
X38131000Y-46984000D01*
X38310250Y-46984000D01*
X38469000Y-46825250D01*
X38469000Y-46101000D01*
X38723000Y-46101000D01*
X38723000Y-46825250D01*
X38881750Y-46984000D01*
X39122309Y-46984000D01*
X39355698Y-46887327D01*
X39534327Y-46708699D01*
X39631000Y-46475310D01*
X39631000Y-46330890D01*
X40468524Y-46330890D01*
X40638355Y-46740924D01*
X41028642Y-47169183D01*
X41553108Y-47415486D01*
X41783000Y-47294819D01*
X41783000Y-46101000D01*
X40589845Y-46101000D01*
X40468524Y-46330890D01*
X39631000Y-46330890D01*
X39631000Y-46259750D01*
X39472250Y-46101000D01*
X38723000Y-46101000D01*
X38469000Y-46101000D01*
X38449000Y-46101000D01*
X38449000Y-45847000D01*
X38469000Y-45847000D01*
X38469000Y-45122750D01*
X38723000Y-45122750D01*
X38723000Y-45847000D01*
X39472250Y-45847000D01*
X39631000Y-45688250D01*
X39631000Y-45472690D01*
X39534327Y-45239301D01*
X39355698Y-45060673D01*
X39122309Y-44964000D01*
X38881750Y-44964000D01*
X38723000Y-45122750D01*
X38469000Y-45122750D01*
X38310250Y-44964000D01*
X38131000Y-44964000D01*
X38131000Y-44698000D01*
X38310250Y-44698000D01*
X38469000Y-44539250D01*
X38469000Y-43815000D01*
X38449000Y-43815000D01*
X38449000Y-43561000D01*
X38469000Y-43561000D01*
X38469000Y-42836750D01*
X38310250Y-42678000D01*
X38069691Y-42678000D01*
X37925495Y-42737728D01*
X38052215Y-42548077D01*
X38055213Y-42533003D01*
X38069691Y-42539000D01*
X38310250Y-42539000D01*
X38469000Y-42380250D01*
X38469000Y-41656000D01*
X38449000Y-41656000D01*
X38449000Y-41421000D01*
X38743000Y-41421000D01*
X38743000Y-41656000D01*
X38723000Y-41656000D01*
X38723000Y-42380250D01*
X38843000Y-42500250D01*
X38843000Y-42716750D01*
X38723000Y-42836750D01*
X38723000Y-43561000D01*
X38743000Y-43561000D01*
X38743000Y-43815000D01*
X38723000Y-43815000D01*
X38723000Y-44539250D01*
X38881750Y-44698000D01*
X39122309Y-44698000D01*
X39355698Y-44601327D01*
X39534327Y-44422699D01*
X39616096Y-44225291D01*
X39695729Y-44278500D01*
X39862922Y-44390215D01*
X40259000Y-44469000D01*
X40820794Y-44469000D01*
X40830853Y-44484054D01*
X41171553Y-44711702D01*
X41028642Y-44778817D01*
X40638355Y-45207076D01*
X40468524Y-45617110D01*
X40589845Y-45847000D01*
X41783000Y-45847000D01*
X41783000Y-45827000D01*
X42037000Y-45827000D01*
X42037000Y-45847000D01*
X42057000Y-45847000D01*
X42057000Y-46101000D01*
X42037000Y-46101000D01*
X42037000Y-47294819D01*
X42266892Y-47415486D01*
X42582981Y-47267042D01*
X42660277Y-47382723D01*
X43676277Y-48398723D01*
X43914728Y-48558051D01*
X44196000Y-48614000D01*
X46050554Y-48614000D01*
X48883277Y-51446724D01*
X49071261Y-51572330D01*
X49121728Y-51606051D01*
X49403000Y-51662000D01*
X49499277Y-51662000D01*
X49569625Y-51832256D01*
X50019376Y-52282793D01*
X50607304Y-52526922D01*
X51243903Y-52527477D01*
X51832256Y-52284375D01*
X52197242Y-51920026D01*
X52559376Y-52282793D01*
X53147304Y-52526922D01*
X53783903Y-52527477D01*
X54372256Y-52284375D01*
X54737242Y-51920026D01*
X55099376Y-52282793D01*
X55687304Y-52526922D01*
X56323903Y-52527477D01*
X56912256Y-52284375D01*
X57277242Y-51920026D01*
X57639376Y-52282793D01*
X58227304Y-52526922D01*
X58863903Y-52527477D01*
X59452256Y-52284375D01*
X59817242Y-51920026D01*
X60179376Y-52282793D01*
X60767304Y-52526922D01*
X61403903Y-52527477D01*
X61992256Y-52284375D01*
X62357242Y-51920026D01*
X62719376Y-52282793D01*
X63307304Y-52526922D01*
X63943903Y-52527477D01*
X64532256Y-52284375D01*
X64982793Y-51834624D01*
X65226922Y-51246696D01*
X65227477Y-50610097D01*
X64984375Y-50021744D01*
X64534624Y-49571207D01*
X63946696Y-49327078D01*
X63310097Y-49326523D01*
X63137348Y-49397901D01*
X62241723Y-48502277D01*
X62003272Y-48342949D01*
X61722000Y-48287000D01*
X60248447Y-48287000D01*
X59361847Y-47400401D01*
X59563000Y-47294819D01*
X59563000Y-46101000D01*
X59817000Y-46101000D01*
X59817000Y-47294819D01*
X60046892Y-47415486D01*
X60571358Y-47169183D01*
X60961645Y-46740924D01*
X61131476Y-46330890D01*
X61010155Y-46101000D01*
X59817000Y-46101000D01*
X59563000Y-46101000D01*
X57277000Y-46101000D01*
X57277000Y-46121000D01*
X57023000Y-46121000D01*
X57023000Y-46101000D01*
X57003000Y-46101000D01*
X57003000Y-45847000D01*
X57023000Y-45847000D01*
X57023000Y-45827000D01*
X57277000Y-45827000D01*
X57277000Y-45847000D01*
X59563000Y-45847000D01*
X59563000Y-45827000D01*
X59817000Y-45827000D01*
X59817000Y-45847000D01*
X61010155Y-45847000D01*
X61131476Y-45617110D01*
X60961645Y-45207076D01*
X60571358Y-44778817D01*
X60428447Y-44711702D01*
X60769147Y-44484054D01*
X60979659Y-44169000D01*
X62484000Y-44169000D01*
X62765272Y-44113051D01*
X63003723Y-43953723D01*
X65670724Y-41286723D01*
X65830051Y-41048272D01*
X65886000Y-40767000D01*
X65886000Y-37719000D01*
X65830051Y-37437728D01*
X65818840Y-37420949D01*
X65670724Y-37199277D01*
X65221117Y-36749671D01*
X65526894Y-36443894D01*
X65681063Y-36213165D01*
X65735200Y-35941000D01*
X65735200Y-29610034D01*
X66050469Y-29726565D01*
X66686593Y-29701967D01*
X67160046Y-29505856D01*
X67254445Y-29242610D01*
X66306700Y-28294865D01*
X66292558Y-28309008D01*
X66112953Y-28129403D01*
X66127095Y-28115260D01*
X66486305Y-28115260D01*
X67434050Y-29063005D01*
X67697296Y-28968606D01*
X67918005Y-28371491D01*
X67893407Y-27735367D01*
X67697296Y-27261914D01*
X67434050Y-27167515D01*
X66486305Y-28115260D01*
X66127095Y-28115260D01*
X66112953Y-28101118D01*
X66292558Y-27921513D01*
X66306700Y-27935655D01*
X67254445Y-26987910D01*
X67229319Y-26917842D01*
X67662493Y-26485424D01*
X67906622Y-25897496D01*
X67907177Y-25260897D01*
X67664075Y-24672544D01*
X67299726Y-24307558D01*
X67662493Y-23945424D01*
X67906622Y-23357496D01*
X67907177Y-22720897D01*
X67664075Y-22132544D01*
X67214324Y-21682007D01*
X66988281Y-21588146D01*
X66985751Y-21575427D01*
X66826423Y-21336976D01*
X65797723Y-20308277D01*
X65559272Y-20148949D01*
X65278000Y-20093000D01*
X63119000Y-20093000D01*
X62837728Y-20148949D01*
X62599277Y-20308276D01*
X61483809Y-21423744D01*
X61454090Y-21377559D01*
X61412728Y-21349298D01*
X61428327Y-21333699D01*
X61525000Y-21100310D01*
X61525000Y-20859750D01*
X61366250Y-20701000D01*
X60617000Y-20701000D01*
X60617000Y-20721000D01*
X60363000Y-20721000D01*
X60363000Y-20701000D01*
X60343000Y-20701000D01*
X60343000Y-20447000D01*
X60363000Y-20447000D01*
X60363000Y-19697750D01*
X60617000Y-19697750D01*
X60617000Y-20447000D01*
X61366250Y-20447000D01*
X61525000Y-20288250D01*
X61525000Y-20047690D01*
X61428327Y-19814301D01*
X61249698Y-19635673D01*
X61016309Y-19539000D01*
X60775750Y-19539000D01*
X60617000Y-19697750D01*
X60363000Y-19697750D01*
X60204250Y-19539000D01*
X59963691Y-19539000D01*
X59730302Y-19635673D01*
X59688340Y-19677634D01*
X59541890Y-19577569D01*
X59290000Y-19526560D01*
X58490000Y-19526560D01*
X58254683Y-19570838D01*
X58038559Y-19709910D01*
X57893569Y-19922110D01*
X57842560Y-20174000D01*
X57842560Y-20974000D01*
X57886838Y-21209317D01*
X57972787Y-21342885D01*
X57938559Y-21364910D01*
X57793569Y-21577110D01*
X57742560Y-21829000D01*
X57742560Y-22794113D01*
X56780723Y-21832277D01*
X56542272Y-21672949D01*
X56529040Y-21670317D01*
X56261000Y-21617000D01*
X56057447Y-21617000D01*
X55002723Y-20562277D01*
X54764272Y-20402949D01*
X54483000Y-20347000D01*
X52324000Y-20347000D01*
X52119775Y-20387623D01*
X52411259Y-20096139D01*
X52597638Y-19817203D01*
X52620954Y-19699989D01*
X52689153Y-19597921D01*
X52747156Y-19306317D01*
X52689153Y-19014712D01*
X52523973Y-18767501D01*
X52276762Y-18602320D01*
X51985158Y-18544317D01*
X51878131Y-18565606D01*
X51899419Y-18458580D01*
X51841416Y-18166976D01*
X51676235Y-17919765D01*
X51429024Y-17754584D01*
X51137420Y-17696581D01*
X51030394Y-17717869D01*
X51051683Y-17610842D01*
X50993680Y-17319238D01*
X50828499Y-17072027D01*
X50581288Y-16906847D01*
X50289683Y-16848844D01*
X49998079Y-16906847D01*
X49896011Y-16975046D01*
X49778797Y-16998362D01*
X49499861Y-17184741D01*
X48426741Y-18257861D01*
X48240362Y-18536797D01*
X48217046Y-18654011D01*
X48148847Y-18756079D01*
X48147280Y-18763958D01*
X48088949Y-18851256D01*
X48033000Y-19132528D01*
X48033000Y-19346675D01*
X47117000Y-20262675D01*
X46826695Y-19972370D01*
X46826695Y-19165487D01*
X46951730Y-18864370D01*
X46952069Y-18475337D01*
X46803507Y-18115788D01*
X46528659Y-17840460D01*
X46169370Y-17691270D01*
X45780337Y-17690931D01*
X45598846Y-17765921D01*
X45533507Y-17607788D01*
X45258659Y-17332460D01*
X44899370Y-17183270D01*
X44510337Y-17182931D01*
X44150788Y-17331493D01*
X44132598Y-17349651D01*
X43988659Y-17205460D01*
X43629370Y-17056270D01*
X43240337Y-17055931D01*
X42880788Y-17204493D01*
X42798988Y-17286151D01*
X42591659Y-17078460D01*
X42232370Y-16929270D01*
X41843337Y-16928931D01*
X41483788Y-17077493D01*
X41402099Y-17159040D01*
X41321659Y-17078460D01*
X40962370Y-16929270D01*
X40919533Y-16929233D01*
X40919569Y-16887837D01*
X40771007Y-16528288D01*
X40575261Y-16332200D01*
X52854912Y-16332200D01*
X54551606Y-18028894D01*
X54551606Y-18028894D01*
G37*
X54551606Y-18028894D02*
X54782335Y-18183063D01*
X55054500Y-18237200D01*
X57109412Y-18237200D01*
X57536106Y-18663895D01*
X57766836Y-18818063D01*
X58039000Y-18872200D01*
X59331912Y-18872200D01*
X59758606Y-19298895D01*
X59989336Y-19453063D01*
X60261500Y-19507200D01*
X62674500Y-19507200D01*
X62946665Y-19453063D01*
X63177394Y-19298894D01*
X63621894Y-18854394D01*
X63717413Y-18711440D01*
X63769000Y-18711440D01*
X64004317Y-18667162D01*
X64061216Y-18630549D01*
X64281758Y-19164300D01*
X64906411Y-19790045D01*
X65722978Y-20129113D01*
X66607143Y-20129885D01*
X67424300Y-19792242D01*
X68008500Y-19209061D01*
X68008500Y-44545882D01*
X67427589Y-43963955D01*
X66611022Y-43624887D01*
X65726857Y-43624115D01*
X64909700Y-43961758D01*
X64283955Y-44586411D01*
X63944887Y-45402978D01*
X63944813Y-45488185D01*
X63827767Y-45204914D01*
X63508765Y-44885355D01*
X63091756Y-44712197D01*
X62640225Y-44711803D01*
X62222914Y-44884233D01*
X61903355Y-45203235D01*
X61730197Y-45620244D01*
X61729803Y-46071775D01*
X61902233Y-46489086D01*
X62221235Y-46808645D01*
X62638244Y-46981803D01*
X63089775Y-46982197D01*
X63507086Y-46809767D01*
X63826645Y-46490765D01*
X63944184Y-46207700D01*
X63944115Y-46287143D01*
X64281758Y-47104300D01*
X64906411Y-47730045D01*
X65722978Y-48069113D01*
X66607143Y-48069885D01*
X67424300Y-47732242D01*
X68008500Y-47149061D01*
X68008500Y-48097672D01*
X65673086Y-50433086D01*
X65521670Y-50659695D01*
X65501320Y-50762000D01*
X65468500Y-50927000D01*
X65468500Y-51653672D01*
X64353672Y-52768500D01*
X37297946Y-52768500D01*
X37647432Y-52419014D01*
X37907304Y-52526922D01*
X38543903Y-52527477D01*
X39132256Y-52284375D01*
X39362682Y-52054350D01*
X39819255Y-52054350D01*
X39913654Y-52317596D01*
X40510769Y-52538305D01*
X41146893Y-52513707D01*
X41620346Y-52317596D01*
X41714745Y-52054350D01*
X42359255Y-52054350D01*
X42453654Y-52317596D01*
X43050769Y-52538305D01*
X43686893Y-52513707D01*
X44160346Y-52317596D01*
X44254745Y-52054350D01*
X43307000Y-51106605D01*
X42359255Y-52054350D01*
X41714745Y-52054350D01*
X40767000Y-51106605D01*
X39819255Y-52054350D01*
X39362682Y-52054350D01*
X39568250Y-51849141D01*
X39639650Y-51874745D01*
X40587395Y-50927000D01*
X40946605Y-50927000D01*
X41894350Y-51874745D01*
X42037000Y-51823591D01*
X42179650Y-51874745D01*
X43127395Y-50927000D01*
X43486605Y-50927000D01*
X44434350Y-51874745D01*
X44506288Y-51848948D01*
X44939376Y-52282793D01*
X45527304Y-52526922D01*
X46163903Y-52527477D01*
X46752256Y-52284375D01*
X47202793Y-51834624D01*
X47446922Y-51246696D01*
X47447477Y-50610097D01*
X47204375Y-50021744D01*
X46754624Y-49571207D01*
X46166696Y-49327078D01*
X45530097Y-49326523D01*
X44941744Y-49569625D01*
X44505750Y-50004859D01*
X44434350Y-49979255D01*
X43486605Y-50927000D01*
X43127395Y-50927000D01*
X42179650Y-49979255D01*
X42037000Y-50030409D01*
X41894350Y-49979255D01*
X40946605Y-50927000D01*
X40587395Y-50927000D01*
X39639650Y-49979255D01*
X39567712Y-50005052D01*
X39362669Y-49799650D01*
X39819255Y-49799650D01*
X40767000Y-50747395D01*
X41714745Y-49799650D01*
X42359255Y-49799650D01*
X43307000Y-50747395D01*
X44254745Y-49799650D01*
X44160346Y-49536404D01*
X43563231Y-49315695D01*
X42927107Y-49340293D01*
X42453654Y-49536404D01*
X42359255Y-49799650D01*
X41714745Y-49799650D01*
X41620346Y-49536404D01*
X41023231Y-49315695D01*
X40387107Y-49340293D01*
X39913654Y-49536404D01*
X39819255Y-49799650D01*
X39362669Y-49799650D01*
X39262000Y-49698806D01*
X39262000Y-48768005D01*
X39262001Y-48768000D01*
X39183215Y-48371923D01*
X39126472Y-48287001D01*
X38958856Y-48036144D01*
X38958853Y-48036142D01*
X38131000Y-47208288D01*
X38131000Y-46984000D01*
X38310250Y-46984000D01*
X38469000Y-46825250D01*
X38469000Y-46101000D01*
X38723000Y-46101000D01*
X38723000Y-46825250D01*
X38881750Y-46984000D01*
X39122309Y-46984000D01*
X39355698Y-46887327D01*
X39534327Y-46708699D01*
X39631000Y-46475310D01*
X39631000Y-46330890D01*
X40468524Y-46330890D01*
X40638355Y-46740924D01*
X41028642Y-47169183D01*
X41553108Y-47415486D01*
X41783000Y-47294819D01*
X41783000Y-46101000D01*
X40589845Y-46101000D01*
X40468524Y-46330890D01*
X39631000Y-46330890D01*
X39631000Y-46259750D01*
X39472250Y-46101000D01*
X38723000Y-46101000D01*
X38469000Y-46101000D01*
X38449000Y-46101000D01*
X38449000Y-45847000D01*
X38469000Y-45847000D01*
X38469000Y-45122750D01*
X38723000Y-45122750D01*
X38723000Y-45847000D01*
X39472250Y-45847000D01*
X39631000Y-45688250D01*
X39631000Y-45472690D01*
X39534327Y-45239301D01*
X39355698Y-45060673D01*
X39122309Y-44964000D01*
X38881750Y-44964000D01*
X38723000Y-45122750D01*
X38469000Y-45122750D01*
X38310250Y-44964000D01*
X38131000Y-44964000D01*
X38131000Y-44698000D01*
X38310250Y-44698000D01*
X38469000Y-44539250D01*
X38469000Y-43815000D01*
X38449000Y-43815000D01*
X38449000Y-43561000D01*
X38469000Y-43561000D01*
X38469000Y-42836750D01*
X38310250Y-42678000D01*
X38069691Y-42678000D01*
X37925495Y-42737728D01*
X38052215Y-42548077D01*
X38055213Y-42533003D01*
X38069691Y-42539000D01*
X38310250Y-42539000D01*
X38469000Y-42380250D01*
X38469000Y-41656000D01*
X38449000Y-41656000D01*
X38449000Y-41421000D01*
X38743000Y-41421000D01*
X38743000Y-41656000D01*
X38723000Y-41656000D01*
X38723000Y-42380250D01*
X38843000Y-42500250D01*
X38843000Y-42716750D01*
X38723000Y-42836750D01*
X38723000Y-43561000D01*
X38743000Y-43561000D01*
X38743000Y-43815000D01*
X38723000Y-43815000D01*
X38723000Y-44539250D01*
X38881750Y-44698000D01*
X39122309Y-44698000D01*
X39355698Y-44601327D01*
X39534327Y-44422699D01*
X39616096Y-44225291D01*
X39695729Y-44278500D01*
X39862922Y-44390215D01*
X40259000Y-44469000D01*
X40820794Y-44469000D01*
X40830853Y-44484054D01*
X41171553Y-44711702D01*
X41028642Y-44778817D01*
X40638355Y-45207076D01*
X40468524Y-45617110D01*
X40589845Y-45847000D01*
X41783000Y-45847000D01*
X41783000Y-45827000D01*
X42037000Y-45827000D01*
X42037000Y-45847000D01*
X42057000Y-45847000D01*
X42057000Y-46101000D01*
X42037000Y-46101000D01*
X42037000Y-47294819D01*
X42266892Y-47415486D01*
X42582981Y-47267042D01*
X42660277Y-47382723D01*
X43676277Y-48398723D01*
X43914728Y-48558051D01*
X44196000Y-48614000D01*
X46050554Y-48614000D01*
X48883277Y-51446724D01*
X49071261Y-51572330D01*
X49121728Y-51606051D01*
X49403000Y-51662000D01*
X49499277Y-51662000D01*
X49569625Y-51832256D01*
X50019376Y-52282793D01*
X50607304Y-52526922D01*
X51243903Y-52527477D01*
X51832256Y-52284375D01*
X52197242Y-51920026D01*
X52559376Y-52282793D01*
X53147304Y-52526922D01*
X53783903Y-52527477D01*
X54372256Y-52284375D01*
X54737242Y-51920026D01*
X55099376Y-52282793D01*
X55687304Y-52526922D01*
X56323903Y-52527477D01*
X56912256Y-52284375D01*
X57277242Y-51920026D01*
X57639376Y-52282793D01*
X58227304Y-52526922D01*
X58863903Y-52527477D01*
X59452256Y-52284375D01*
X59817242Y-51920026D01*
X60179376Y-52282793D01*
X60767304Y-52526922D01*
X61403903Y-52527477D01*
X61992256Y-52284375D01*
X62357242Y-51920026D01*
X62719376Y-52282793D01*
X63307304Y-52526922D01*
X63943903Y-52527477D01*
X64532256Y-52284375D01*
X64982793Y-51834624D01*
X65226922Y-51246696D01*
X65227477Y-50610097D01*
X64984375Y-50021744D01*
X64534624Y-49571207D01*
X63946696Y-49327078D01*
X63310097Y-49326523D01*
X63137348Y-49397901D01*
X62241723Y-48502277D01*
X62003272Y-48342949D01*
X61722000Y-48287000D01*
X60248447Y-48287000D01*
X59361847Y-47400401D01*
X59563000Y-47294819D01*
X59563000Y-46101000D01*
X59817000Y-46101000D01*
X59817000Y-47294819D01*
X60046892Y-47415486D01*
X60571358Y-47169183D01*
X60961645Y-46740924D01*
X61131476Y-46330890D01*
X61010155Y-46101000D01*
X59817000Y-46101000D01*
X59563000Y-46101000D01*
X57277000Y-46101000D01*
X57277000Y-46121000D01*
X57023000Y-46121000D01*
X57023000Y-46101000D01*
X57003000Y-46101000D01*
X57003000Y-45847000D01*
X57023000Y-45847000D01*
X57023000Y-45827000D01*
X57277000Y-45827000D01*
X57277000Y-45847000D01*
X59563000Y-45847000D01*
X59563000Y-45827000D01*
X59817000Y-45827000D01*
X59817000Y-45847000D01*
X61010155Y-45847000D01*
X61131476Y-45617110D01*
X60961645Y-45207076D01*
X60571358Y-44778817D01*
X60428447Y-44711702D01*
X60769147Y-44484054D01*
X60979659Y-44169000D01*
X62484000Y-44169000D01*
X62765272Y-44113051D01*
X63003723Y-43953723D01*
X65670724Y-41286723D01*
X65830051Y-41048272D01*
X65886000Y-40767000D01*
X65886000Y-37719000D01*
X65830051Y-37437728D01*
X65818840Y-37420949D01*
X65670724Y-37199277D01*
X65221117Y-36749671D01*
X65526894Y-36443894D01*
X65681063Y-36213165D01*
X65735200Y-35941000D01*
X65735200Y-29610034D01*
X66050469Y-29726565D01*
X66686593Y-29701967D01*
X67160046Y-29505856D01*
X67254445Y-29242610D01*
X66306700Y-28294865D01*
X66292558Y-28309008D01*
X66112953Y-28129403D01*
X66127095Y-28115260D01*
X66486305Y-28115260D01*
X67434050Y-29063005D01*
X67697296Y-28968606D01*
X67918005Y-28371491D01*
X67893407Y-27735367D01*
X67697296Y-27261914D01*
X67434050Y-27167515D01*
X66486305Y-28115260D01*
X66127095Y-28115260D01*
X66112953Y-28101118D01*
X66292558Y-27921513D01*
X66306700Y-27935655D01*
X67254445Y-26987910D01*
X67229319Y-26917842D01*
X67662493Y-26485424D01*
X67906622Y-25897496D01*
X67907177Y-25260897D01*
X67664075Y-24672544D01*
X67299726Y-24307558D01*
X67662493Y-23945424D01*
X67906622Y-23357496D01*
X67907177Y-22720897D01*
X67664075Y-22132544D01*
X67214324Y-21682007D01*
X66988281Y-21588146D01*
X66985751Y-21575427D01*
X66826423Y-21336976D01*
X65797723Y-20308277D01*
X65559272Y-20148949D01*
X65278000Y-20093000D01*
X63119000Y-20093000D01*
X62837728Y-20148949D01*
X62599277Y-20308276D01*
X61483809Y-21423744D01*
X61454090Y-21377559D01*
X61412728Y-21349298D01*
X61428327Y-21333699D01*
X61525000Y-21100310D01*
X61525000Y-20859750D01*
X61366250Y-20701000D01*
X60617000Y-20701000D01*
X60617000Y-20721000D01*
X60363000Y-20721000D01*
X60363000Y-20701000D01*
X60343000Y-20701000D01*
X60343000Y-20447000D01*
X60363000Y-20447000D01*
X60363000Y-19697750D01*
X60617000Y-19697750D01*
X60617000Y-20447000D01*
X61366250Y-20447000D01*
X61525000Y-20288250D01*
X61525000Y-20047690D01*
X61428327Y-19814301D01*
X61249698Y-19635673D01*
X61016309Y-19539000D01*
X60775750Y-19539000D01*
X60617000Y-19697750D01*
X60363000Y-19697750D01*
X60204250Y-19539000D01*
X59963691Y-19539000D01*
X59730302Y-19635673D01*
X59688340Y-19677634D01*
X59541890Y-19577569D01*
X59290000Y-19526560D01*
X58490000Y-19526560D01*
X58254683Y-19570838D01*
X58038559Y-19709910D01*
X57893569Y-19922110D01*
X57842560Y-20174000D01*
X57842560Y-20974000D01*
X57886838Y-21209317D01*
X57972787Y-21342885D01*
X57938559Y-21364910D01*
X57793569Y-21577110D01*
X57742560Y-21829000D01*
X57742560Y-22794113D01*
X56780723Y-21832277D01*
X56542272Y-21672949D01*
X56529040Y-21670317D01*
X56261000Y-21617000D01*
X56057447Y-21617000D01*
X55002723Y-20562277D01*
X54764272Y-20402949D01*
X54483000Y-20347000D01*
X52324000Y-20347000D01*
X52119775Y-20387623D01*
X52411259Y-20096139D01*
X52597638Y-19817203D01*
X52620954Y-19699989D01*
X52689153Y-19597921D01*
X52747156Y-19306317D01*
X52689153Y-19014712D01*
X52523973Y-18767501D01*
X52276762Y-18602320D01*
X51985158Y-18544317D01*
X51878131Y-18565606D01*
X51899419Y-18458580D01*
X51841416Y-18166976D01*
X51676235Y-17919765D01*
X51429024Y-17754584D01*
X51137420Y-17696581D01*
X51030394Y-17717869D01*
X51051683Y-17610842D01*
X50993680Y-17319238D01*
X50828499Y-17072027D01*
X50581288Y-16906847D01*
X50289683Y-16848844D01*
X49998079Y-16906847D01*
X49896011Y-16975046D01*
X49778797Y-16998362D01*
X49499861Y-17184741D01*
X48426741Y-18257861D01*
X48240362Y-18536797D01*
X48217046Y-18654011D01*
X48148847Y-18756079D01*
X48147280Y-18763958D01*
X48088949Y-18851256D01*
X48033000Y-19132528D01*
X48033000Y-19346675D01*
X47117000Y-20262675D01*
X46826695Y-19972370D01*
X46826695Y-19165487D01*
X46951730Y-18864370D01*
X46952069Y-18475337D01*
X46803507Y-18115788D01*
X46528659Y-17840460D01*
X46169370Y-17691270D01*
X45780337Y-17690931D01*
X45598846Y-17765921D01*
X45533507Y-17607788D01*
X45258659Y-17332460D01*
X44899370Y-17183270D01*
X44510337Y-17182931D01*
X44150788Y-17331493D01*
X44132598Y-17349651D01*
X43988659Y-17205460D01*
X43629370Y-17056270D01*
X43240337Y-17055931D01*
X42880788Y-17204493D01*
X42798988Y-17286151D01*
X42591659Y-17078460D01*
X42232370Y-16929270D01*
X41843337Y-16928931D01*
X41483788Y-17077493D01*
X41402099Y-17159040D01*
X41321659Y-17078460D01*
X40962370Y-16929270D01*
X40919533Y-16929233D01*
X40919569Y-16887837D01*
X40771007Y-16528288D01*
X40575261Y-16332200D01*
X52854912Y-16332200D01*
X54551606Y-18028894D01*
G36*
X54737000Y-45847000D02*
X54757000Y-45847000D01*
X54757000Y-46101000D01*
X54737000Y-46101000D01*
X54737000Y-46121000D01*
X54483000Y-46121000D01*
X54483000Y-46101000D01*
X54463000Y-46101000D01*
X54463000Y-45847000D01*
X54483000Y-45847000D01*
X54483000Y-45827000D01*
X54737000Y-45827000D01*
X54737000Y-45847000D01*
X54737000Y-45847000D01*
G37*
X54737000Y-45847000D02*
X54757000Y-45847000D01*
X54757000Y-46101000D01*
X54737000Y-46101000D01*
X54737000Y-46121000D01*
X54483000Y-46121000D01*
X54483000Y-46101000D01*
X54463000Y-46101000D01*
X54463000Y-45847000D01*
X54483000Y-45847000D01*
X54483000Y-45827000D01*
X54737000Y-45827000D01*
X54737000Y-45847000D01*
G36*
X44577000Y-45847000D02*
X44597000Y-45847000D01*
X44597000Y-46101000D01*
X44577000Y-46101000D01*
X44577000Y-46121000D01*
X44323000Y-46121000D01*
X44323000Y-46101000D01*
X44303000Y-46101000D01*
X44303000Y-45847000D01*
X44323000Y-45847000D01*
X44323000Y-45827000D01*
X44577000Y-45827000D01*
X44577000Y-45847000D01*
X44577000Y-45847000D01*
G37*
X44577000Y-45847000D02*
X44597000Y-45847000D01*
X44597000Y-46101000D01*
X44577000Y-46101000D01*
X44577000Y-46121000D01*
X44323000Y-46121000D01*
X44323000Y-46101000D01*
X44303000Y-46101000D01*
X44303000Y-45847000D01*
X44323000Y-45847000D01*
X44323000Y-45827000D01*
X44577000Y-45827000D01*
X44577000Y-45847000D01*
G36*
X47117000Y-45847000D02*
X47137000Y-45847000D01*
X47137000Y-46101000D01*
X47117000Y-46101000D01*
X47117000Y-46121000D01*
X46863000Y-46121000D01*
X46863000Y-46101000D01*
X46843000Y-46101000D01*
X46843000Y-45847000D01*
X46863000Y-45847000D01*
X46863000Y-45827000D01*
X47117000Y-45827000D01*
X47117000Y-45847000D01*
X47117000Y-45847000D01*
G37*
X47117000Y-45847000D02*
X47137000Y-45847000D01*
X47137000Y-46101000D01*
X47117000Y-46101000D01*
X47117000Y-46121000D01*
X46863000Y-46121000D01*
X46863000Y-46101000D01*
X46843000Y-46101000D01*
X46843000Y-45847000D01*
X46863000Y-45847000D01*
X46863000Y-45827000D01*
X47117000Y-45827000D01*
X47117000Y-45847000D01*
G36*
X49657000Y-45847000D02*
X49677000Y-45847000D01*
X49677000Y-46101000D01*
X49657000Y-46101000D01*
X49657000Y-46121000D01*
X49403000Y-46121000D01*
X49403000Y-46101000D01*
X49383000Y-46101000D01*
X49383000Y-45847000D01*
X49403000Y-45847000D01*
X49403000Y-45827000D01*
X49657000Y-45827000D01*
X49657000Y-45847000D01*
X49657000Y-45847000D01*
G37*
X49657000Y-45847000D02*
X49677000Y-45847000D01*
X49677000Y-46101000D01*
X49657000Y-46101000D01*
X49657000Y-46121000D01*
X49403000Y-46121000D01*
X49403000Y-46101000D01*
X49383000Y-46101000D01*
X49383000Y-45847000D01*
X49403000Y-45847000D01*
X49403000Y-45827000D01*
X49657000Y-45827000D01*
X49657000Y-45847000D01*
G36*
X52197000Y-45847000D02*
X52217000Y-45847000D01*
X52217000Y-46101000D01*
X52197000Y-46101000D01*
X52197000Y-46121000D01*
X51943000Y-46121000D01*
X51943000Y-46101000D01*
X51923000Y-46101000D01*
X51923000Y-45847000D01*
X51943000Y-45847000D01*
X51943000Y-45827000D01*
X52197000Y-45827000D01*
X52197000Y-45847000D01*
X52197000Y-45847000D01*
G37*
X52197000Y-45847000D02*
X52217000Y-45847000D01*
X52217000Y-46101000D01*
X52197000Y-46101000D01*
X52197000Y-46121000D01*
X51943000Y-46121000D01*
X51943000Y-46101000D01*
X51923000Y-46101000D01*
X51923000Y-45847000D01*
X51943000Y-45847000D01*
X51943000Y-45827000D01*
X52197000Y-45827000D01*
X52197000Y-45847000D01*
G36*
X34049302Y-36342327D02*
X34282691Y-36439000D01*
X34550788Y-36439000D01*
X34129644Y-36860144D01*
X33905285Y-37195923D01*
X33826499Y-37592000D01*
X33826500Y-37592005D01*
X33826500Y-41153447D01*
X33817327Y-41131301D01*
X33638698Y-40952673D01*
X33405309Y-40856000D01*
X31814750Y-40856000D01*
X31656000Y-41014750D01*
X31656000Y-42164000D01*
X31676000Y-42164000D01*
X31676000Y-42418000D01*
X31656000Y-42418000D01*
X31656000Y-43567250D01*
X31814750Y-43726000D01*
X33405309Y-43726000D01*
X33597443Y-43646415D01*
X33608338Y-43704317D01*
X33747410Y-43920441D01*
X33959610Y-44065431D01*
X33972697Y-44068081D01*
X33760059Y-44204910D01*
X33706019Y-44284000D01*
X30083447Y-44284000D01*
X29500500Y-43701054D01*
X29500500Y-43662960D01*
X29652691Y-43726000D01*
X31243250Y-43726000D01*
X31402000Y-43567250D01*
X31402000Y-42418000D01*
X31382000Y-42418000D01*
X31382000Y-42164000D01*
X31402000Y-42164000D01*
X31402000Y-41014750D01*
X31243250Y-40856000D01*
X29655561Y-40856000D01*
X29743230Y-40644870D01*
X29743569Y-40255837D01*
X29595007Y-39896288D01*
X29320159Y-39620960D01*
X28960870Y-39471770D01*
X28571837Y-39471431D01*
X28212288Y-39619993D01*
X27959000Y-39872839D01*
X27959000Y-39273000D01*
X28162250Y-39273000D01*
X28321000Y-39114250D01*
X28321000Y-38415000D01*
X28575000Y-38415000D01*
X28575000Y-39114250D01*
X28733750Y-39273000D01*
X29224310Y-39273000D01*
X29457699Y-39176327D01*
X29636327Y-38997698D01*
X29733000Y-38764309D01*
X29733000Y-38573750D01*
X29574250Y-38415000D01*
X28575000Y-38415000D01*
X28321000Y-38415000D01*
X28301000Y-38415000D01*
X28301000Y-38161000D01*
X28321000Y-38161000D01*
X28321000Y-38141000D01*
X28575000Y-38141000D01*
X28575000Y-38161000D01*
X29574250Y-38161000D01*
X29662250Y-38073000D01*
X31623000Y-38073000D01*
X31904272Y-38017051D01*
X32142723Y-37857723D01*
X33428724Y-36571723D01*
X33523488Y-36429898D01*
X33644317Y-36407162D01*
X33860441Y-36268090D01*
X33906969Y-36199994D01*
X34049302Y-36342327D01*
X34049302Y-36342327D01*
G37*
X34049302Y-36342327D02*
X34282691Y-36439000D01*
X34550788Y-36439000D01*
X34129644Y-36860144D01*
X33905285Y-37195923D01*
X33826499Y-37592000D01*
X33826500Y-37592005D01*
X33826500Y-41153447D01*
X33817327Y-41131301D01*
X33638698Y-40952673D01*
X33405309Y-40856000D01*
X31814750Y-40856000D01*
X31656000Y-41014750D01*
X31656000Y-42164000D01*
X31676000Y-42164000D01*
X31676000Y-42418000D01*
X31656000Y-42418000D01*
X31656000Y-43567250D01*
X31814750Y-43726000D01*
X33405309Y-43726000D01*
X33597443Y-43646415D01*
X33608338Y-43704317D01*
X33747410Y-43920441D01*
X33959610Y-44065431D01*
X33972697Y-44068081D01*
X33760059Y-44204910D01*
X33706019Y-44284000D01*
X30083447Y-44284000D01*
X29500500Y-43701054D01*
X29500500Y-43662960D01*
X29652691Y-43726000D01*
X31243250Y-43726000D01*
X31402000Y-43567250D01*
X31402000Y-42418000D01*
X31382000Y-42418000D01*
X31382000Y-42164000D01*
X31402000Y-42164000D01*
X31402000Y-41014750D01*
X31243250Y-40856000D01*
X29655561Y-40856000D01*
X29743230Y-40644870D01*
X29743569Y-40255837D01*
X29595007Y-39896288D01*
X29320159Y-39620960D01*
X28960870Y-39471770D01*
X28571837Y-39471431D01*
X28212288Y-39619993D01*
X27959000Y-39872839D01*
X27959000Y-39273000D01*
X28162250Y-39273000D01*
X28321000Y-39114250D01*
X28321000Y-38415000D01*
X28575000Y-38415000D01*
X28575000Y-39114250D01*
X28733750Y-39273000D01*
X29224310Y-39273000D01*
X29457699Y-39176327D01*
X29636327Y-38997698D01*
X29733000Y-38764309D01*
X29733000Y-38573750D01*
X29574250Y-38415000D01*
X28575000Y-38415000D01*
X28321000Y-38415000D01*
X28301000Y-38415000D01*
X28301000Y-38161000D01*
X28321000Y-38161000D01*
X28321000Y-38141000D01*
X28575000Y-38141000D01*
X28575000Y-38161000D01*
X29574250Y-38161000D01*
X29662250Y-38073000D01*
X31623000Y-38073000D01*
X31904272Y-38017051D01*
X32142723Y-37857723D01*
X33428724Y-36571723D01*
X33523488Y-36429898D01*
X33644317Y-36407162D01*
X33860441Y-36268090D01*
X33906969Y-36199994D01*
X34049302Y-36342327D01*
G36*
X62347630Y-35862277D02*
X62537285Y-35989000D01*
X62347630Y-36115723D01*
X62079916Y-36516386D01*
X61985907Y-36989000D01*
X62079916Y-37461614D01*
X62329130Y-37834590D01*
X62290301Y-37850673D01*
X62111673Y-38029302D01*
X62015000Y-38262691D01*
X62015000Y-38703250D01*
X62173750Y-38862000D01*
X63373000Y-38862000D01*
X63373000Y-38842000D01*
X63627000Y-38842000D01*
X63627000Y-38862000D01*
X63647000Y-38862000D01*
X63647000Y-39116000D01*
X63627000Y-39116000D01*
X63627000Y-40065250D01*
X63785750Y-40224000D01*
X64416000Y-40224000D01*
X64416000Y-40462553D01*
X62179554Y-42699000D01*
X60979659Y-42699000D01*
X60769147Y-42383946D01*
X60727548Y-42356150D01*
X60775317Y-42347162D01*
X60991441Y-42208090D01*
X61136431Y-41995890D01*
X61187440Y-41744000D01*
X61187440Y-40044000D01*
X61143162Y-39808683D01*
X61004090Y-39592559D01*
X60791890Y-39447569D01*
X60540000Y-39396560D01*
X58840000Y-39396560D01*
X58604683Y-39440838D01*
X58417923Y-39561015D01*
X58251890Y-39447569D01*
X58000000Y-39396560D01*
X56300000Y-39396560D01*
X56064683Y-39440838D01*
X55877923Y-39561015D01*
X55711890Y-39447569D01*
X55460000Y-39396560D01*
X55345000Y-39396560D01*
X55345000Y-39274750D01*
X62015000Y-39274750D01*
X62015000Y-39715309D01*
X62111673Y-39948698D01*
X62290301Y-40127327D01*
X62523690Y-40224000D01*
X63214250Y-40224000D01*
X63373000Y-40065250D01*
X63373000Y-39116000D01*
X62173750Y-39116000D01*
X62015000Y-39274750D01*
X55345000Y-39274750D01*
X55345000Y-36245446D01*
X55866447Y-35724000D01*
X62255236Y-35724000D01*
X62347630Y-35862277D01*
X62347630Y-35862277D01*
G37*
X62347630Y-35862277D02*
X62537285Y-35989000D01*
X62347630Y-36115723D01*
X62079916Y-36516386D01*
X61985907Y-36989000D01*
X62079916Y-37461614D01*
X62329130Y-37834590D01*
X62290301Y-37850673D01*
X62111673Y-38029302D01*
X62015000Y-38262691D01*
X62015000Y-38703250D01*
X62173750Y-38862000D01*
X63373000Y-38862000D01*
X63373000Y-38842000D01*
X63627000Y-38842000D01*
X63627000Y-38862000D01*
X63647000Y-38862000D01*
X63647000Y-39116000D01*
X63627000Y-39116000D01*
X63627000Y-40065250D01*
X63785750Y-40224000D01*
X64416000Y-40224000D01*
X64416000Y-40462553D01*
X62179554Y-42699000D01*
X60979659Y-42699000D01*
X60769147Y-42383946D01*
X60727548Y-42356150D01*
X60775317Y-42347162D01*
X60991441Y-42208090D01*
X61136431Y-41995890D01*
X61187440Y-41744000D01*
X61187440Y-40044000D01*
X61143162Y-39808683D01*
X61004090Y-39592559D01*
X60791890Y-39447569D01*
X60540000Y-39396560D01*
X58840000Y-39396560D01*
X58604683Y-39440838D01*
X58417923Y-39561015D01*
X58251890Y-39447569D01*
X58000000Y-39396560D01*
X56300000Y-39396560D01*
X56064683Y-39440838D01*
X55877923Y-39561015D01*
X55711890Y-39447569D01*
X55460000Y-39396560D01*
X55345000Y-39396560D01*
X55345000Y-39274750D01*
X62015000Y-39274750D01*
X62015000Y-39715309D01*
X62111673Y-39948698D01*
X62290301Y-40127327D01*
X62523690Y-40224000D01*
X63214250Y-40224000D01*
X63373000Y-40065250D01*
X63373000Y-39116000D01*
X62173750Y-39116000D01*
X62015000Y-39274750D01*
X55345000Y-39274750D01*
X55345000Y-36245446D01*
X55866447Y-35724000D01*
X62255236Y-35724000D01*
X62347630Y-35862277D01*
G36*
X41175000Y-39396560D02*
X41060000Y-39396560D01*
X40824683Y-39440838D01*
X40608559Y-39579910D01*
X40463569Y-39792110D01*
X40447276Y-39872565D01*
X40228856Y-39654144D01*
X39893077Y-39429785D01*
X39497000Y-39350999D01*
X39496995Y-39351000D01*
X38449000Y-39351000D01*
X38449000Y-39116000D01*
X38469000Y-39116000D01*
X38469000Y-39096000D01*
X38723000Y-39096000D01*
X38723000Y-39116000D01*
X39472250Y-39116000D01*
X39631000Y-38957250D01*
X39631000Y-38835000D01*
X40640000Y-38835000D01*
X40921272Y-38779051D01*
X41159723Y-38619723D01*
X41175000Y-38604446D01*
X41175000Y-39396560D01*
X41175000Y-39396560D01*
G37*
X41175000Y-39396560D02*
X41060000Y-39396560D01*
X40824683Y-39440838D01*
X40608559Y-39579910D01*
X40463569Y-39792110D01*
X40447276Y-39872565D01*
X40228856Y-39654144D01*
X39893077Y-39429785D01*
X39497000Y-39350999D01*
X39496995Y-39351000D01*
X38449000Y-39351000D01*
X38449000Y-39116000D01*
X38469000Y-39116000D01*
X38469000Y-39096000D01*
X38723000Y-39096000D01*
X38723000Y-39116000D01*
X39472250Y-39116000D01*
X39631000Y-38957250D01*
X39631000Y-38835000D01*
X40640000Y-38835000D01*
X40921272Y-38779051D01*
X41159723Y-38619723D01*
X41175000Y-38604446D01*
X41175000Y-39396560D01*
G36*
X12189142Y-32067853D02*
X12189144Y-32067856D01*
X12340922Y-32169270D01*
X12524922Y-32292215D01*
X12921000Y-32371001D01*
X12921005Y-32371000D01*
X13411560Y-32371000D01*
X13411560Y-33086000D01*
X13455838Y-33321317D01*
X13594910Y-33537441D01*
X13807110Y-33682431D01*
X14059000Y-33733440D01*
X15659000Y-33733440D01*
X15894317Y-33689162D01*
X16110441Y-33550090D01*
X16255431Y-33337890D01*
X16306440Y-33086000D01*
X16306440Y-33043302D01*
X16315493Y-33065212D01*
X16590341Y-33340540D01*
X16949630Y-33489730D01*
X17338663Y-33490069D01*
X17698212Y-33341507D01*
X17973540Y-33066659D01*
X18122730Y-32707370D01*
X18123023Y-32371000D01*
X18715899Y-32371000D01*
X18580270Y-32697630D01*
X18579931Y-33086663D01*
X18597707Y-33129683D01*
X18569000Y-33274000D01*
X18569000Y-33433258D01*
X18443683Y-33456838D01*
X18227559Y-33595910D01*
X18082569Y-33808110D01*
X18031560Y-34060000D01*
X18031560Y-35060000D01*
X18075838Y-35295317D01*
X18214910Y-35511441D01*
X18284711Y-35559134D01*
X18227559Y-35595910D01*
X18082569Y-35808110D01*
X18031560Y-36060000D01*
X18031560Y-37060000D01*
X18075838Y-37295317D01*
X18214910Y-37511441D01*
X18269000Y-37548399D01*
X18269000Y-37766560D01*
X16294000Y-37766560D01*
X16294000Y-37021750D01*
X16135250Y-36863000D01*
X14986000Y-36863000D01*
X14986000Y-36883000D01*
X14732000Y-36883000D01*
X14732000Y-36863000D01*
X13582750Y-36863000D01*
X13424000Y-37021750D01*
X13424000Y-38511975D01*
X13370000Y-38565974D01*
X13370000Y-38116005D01*
X13370001Y-38116000D01*
X13291215Y-37719923D01*
X13248791Y-37656431D01*
X13066856Y-37384144D01*
X13066853Y-37384142D01*
X11653856Y-35971144D01*
X11318077Y-35746785D01*
X10947449Y-35673061D01*
X10869241Y-35551523D01*
X10969431Y-35404890D01*
X11020440Y-35153000D01*
X11020440Y-34859691D01*
X13424000Y-34859691D01*
X13424000Y-36450250D01*
X13582750Y-36609000D01*
X14732000Y-36609000D01*
X14732000Y-34509750D01*
X14986000Y-34509750D01*
X14986000Y-36609000D01*
X16135250Y-36609000D01*
X16294000Y-36450250D01*
X16294000Y-34859691D01*
X16197327Y-34626302D01*
X16018699Y-34447673D01*
X15785310Y-34351000D01*
X15144750Y-34351000D01*
X14986000Y-34509750D01*
X14732000Y-34509750D01*
X14573250Y-34351000D01*
X13932690Y-34351000D01*
X13699301Y-34447673D01*
X13520673Y-34626302D01*
X13424000Y-34859691D01*
X11020440Y-34859691D01*
X11020440Y-33653000D01*
X10976162Y-33417683D01*
X10837090Y-33201559D01*
X10624890Y-33056569D01*
X10373000Y-33005560D01*
X10084200Y-33005560D01*
X10084200Y-30074000D01*
X10056616Y-29935328D01*
X12189142Y-32067853D01*
X12189142Y-32067853D01*
G37*
X12189142Y-32067853D02*
X12189144Y-32067856D01*
X12340922Y-32169270D01*
X12524922Y-32292215D01*
X12921000Y-32371001D01*
X12921005Y-32371000D01*
X13411560Y-32371000D01*
X13411560Y-33086000D01*
X13455838Y-33321317D01*
X13594910Y-33537441D01*
X13807110Y-33682431D01*
X14059000Y-33733440D01*
X15659000Y-33733440D01*
X15894317Y-33689162D01*
X16110441Y-33550090D01*
X16255431Y-33337890D01*
X16306440Y-33086000D01*
X16306440Y-33043302D01*
X16315493Y-33065212D01*
X16590341Y-33340540D01*
X16949630Y-33489730D01*
X17338663Y-33490069D01*
X17698212Y-33341507D01*
X17973540Y-33066659D01*
X18122730Y-32707370D01*
X18123023Y-32371000D01*
X18715899Y-32371000D01*
X18580270Y-32697630D01*
X18579931Y-33086663D01*
X18597707Y-33129683D01*
X18569000Y-33274000D01*
X18569000Y-33433258D01*
X18443683Y-33456838D01*
X18227559Y-33595910D01*
X18082569Y-33808110D01*
X18031560Y-34060000D01*
X18031560Y-35060000D01*
X18075838Y-35295317D01*
X18214910Y-35511441D01*
X18284711Y-35559134D01*
X18227559Y-35595910D01*
X18082569Y-35808110D01*
X18031560Y-36060000D01*
X18031560Y-37060000D01*
X18075838Y-37295317D01*
X18214910Y-37511441D01*
X18269000Y-37548399D01*
X18269000Y-37766560D01*
X16294000Y-37766560D01*
X16294000Y-37021750D01*
X16135250Y-36863000D01*
X14986000Y-36863000D01*
X14986000Y-36883000D01*
X14732000Y-36883000D01*
X14732000Y-36863000D01*
X13582750Y-36863000D01*
X13424000Y-37021750D01*
X13424000Y-38511975D01*
X13370000Y-38565974D01*
X13370000Y-38116005D01*
X13370001Y-38116000D01*
X13291215Y-37719923D01*
X13248791Y-37656431D01*
X13066856Y-37384144D01*
X13066853Y-37384142D01*
X11653856Y-35971144D01*
X11318077Y-35746785D01*
X10947449Y-35673061D01*
X10869241Y-35551523D01*
X10969431Y-35404890D01*
X11020440Y-35153000D01*
X11020440Y-34859691D01*
X13424000Y-34859691D01*
X13424000Y-36450250D01*
X13582750Y-36609000D01*
X14732000Y-36609000D01*
X14732000Y-34509750D01*
X14986000Y-34509750D01*
X14986000Y-36609000D01*
X16135250Y-36609000D01*
X16294000Y-36450250D01*
X16294000Y-34859691D01*
X16197327Y-34626302D01*
X16018699Y-34447673D01*
X15785310Y-34351000D01*
X15144750Y-34351000D01*
X14986000Y-34509750D01*
X14732000Y-34509750D01*
X14573250Y-34351000D01*
X13932690Y-34351000D01*
X13699301Y-34447673D01*
X13520673Y-34626302D01*
X13424000Y-34859691D01*
X11020440Y-34859691D01*
X11020440Y-33653000D01*
X10976162Y-33417683D01*
X10837090Y-33201559D01*
X10624890Y-33056569D01*
X10373000Y-33005560D01*
X10084200Y-33005560D01*
X10084200Y-30074000D01*
X10056616Y-29935328D01*
X12189142Y-32067853D01*
G36*
X35036000Y-35052000D02*
X35056000Y-35052000D01*
X35056000Y-35306000D01*
X35036000Y-35306000D01*
X35036000Y-35326000D01*
X34782000Y-35326000D01*
X34782000Y-35306000D01*
X34762000Y-35306000D01*
X34762000Y-35052000D01*
X34782000Y-35052000D01*
X34782000Y-35032000D01*
X35036000Y-35032000D01*
X35036000Y-35052000D01*
X35036000Y-35052000D01*
G37*
X35036000Y-35052000D02*
X35056000Y-35052000D01*
X35056000Y-35306000D01*
X35036000Y-35306000D01*
X35036000Y-35326000D01*
X34782000Y-35326000D01*
X34782000Y-35306000D01*
X34762000Y-35306000D01*
X34762000Y-35052000D01*
X34782000Y-35052000D01*
X34782000Y-35032000D01*
X35036000Y-35032000D01*
X35036000Y-35052000D01*
G36*
X37763500Y-26082711D02*
X37763500Y-28003495D01*
X37763499Y-28003500D01*
X37842285Y-28399577D01*
X37939453Y-28545000D01*
X37496750Y-28545000D01*
X37338000Y-28703750D01*
X37338000Y-29403000D01*
X38337250Y-29403000D01*
X38496000Y-29244250D01*
X38496000Y-29164712D01*
X38906500Y-29575211D01*
X38906500Y-32083289D01*
X35937790Y-35051998D01*
X35885252Y-35051998D01*
X36044000Y-34893250D01*
X36044000Y-34427690D01*
X35947327Y-34194301D01*
X35791213Y-34038187D01*
X35999630Y-34124730D01*
X36388663Y-34125069D01*
X36748212Y-33976507D01*
X37023540Y-33701659D01*
X37172730Y-33342370D01*
X37173069Y-32953337D01*
X37024507Y-32593788D01*
X36858449Y-32427440D01*
X37861000Y-32427440D01*
X38096317Y-32383162D01*
X38312441Y-32244090D01*
X38457431Y-32031890D01*
X38508440Y-31780000D01*
X38508440Y-31080000D01*
X38464162Y-30844683D01*
X38325090Y-30628559D01*
X38112890Y-30483569D01*
X38079510Y-30476809D01*
X38220699Y-30418327D01*
X38399327Y-30239698D01*
X38496000Y-30006309D01*
X38496000Y-29815750D01*
X38337250Y-29657000D01*
X37338000Y-29657000D01*
X37338000Y-29677000D01*
X37084000Y-29677000D01*
X37084000Y-29657000D01*
X37064000Y-29657000D01*
X37064000Y-29403000D01*
X37084000Y-29403000D01*
X37084000Y-28703750D01*
X36925250Y-28545000D01*
X36434690Y-28545000D01*
X36201301Y-28641673D01*
X36044000Y-28798975D01*
X36044000Y-28701998D01*
X35885252Y-28701998D01*
X36044000Y-28543250D01*
X36044000Y-28077690D01*
X35947327Y-27844301D01*
X35877760Y-27774734D01*
X36261663Y-27775069D01*
X36621212Y-27626507D01*
X36896540Y-27351659D01*
X37045730Y-26992370D01*
X37046069Y-26603337D01*
X36897507Y-26243788D01*
X36622659Y-25968460D01*
X36263370Y-25819270D01*
X36023807Y-25819061D01*
X36044000Y-25770310D01*
X36044000Y-25304750D01*
X35885250Y-25146000D01*
X35036000Y-25146000D01*
X35036000Y-25166000D01*
X34782000Y-25166000D01*
X34782000Y-25146000D01*
X34762000Y-25146000D01*
X34762000Y-24892000D01*
X34782000Y-24892000D01*
X34782000Y-24872000D01*
X35036000Y-24872000D01*
X35036000Y-24892000D01*
X35885250Y-24892000D01*
X36044000Y-24733250D01*
X36044000Y-24363212D01*
X37763500Y-26082711D01*
X37763500Y-26082711D01*
G37*
X37763500Y-26082711D02*
X37763500Y-28003495D01*
X37763499Y-28003500D01*
X37842285Y-28399577D01*
X37939453Y-28545000D01*
X37496750Y-28545000D01*
X37338000Y-28703750D01*
X37338000Y-29403000D01*
X38337250Y-29403000D01*
X38496000Y-29244250D01*
X38496000Y-29164712D01*
X38906500Y-29575211D01*
X38906500Y-32083289D01*
X35937790Y-35051998D01*
X35885252Y-35051998D01*
X36044000Y-34893250D01*
X36044000Y-34427690D01*
X35947327Y-34194301D01*
X35791213Y-34038187D01*
X35999630Y-34124730D01*
X36388663Y-34125069D01*
X36748212Y-33976507D01*
X37023540Y-33701659D01*
X37172730Y-33342370D01*
X37173069Y-32953337D01*
X37024507Y-32593788D01*
X36858449Y-32427440D01*
X37861000Y-32427440D01*
X38096317Y-32383162D01*
X38312441Y-32244090D01*
X38457431Y-32031890D01*
X38508440Y-31780000D01*
X38508440Y-31080000D01*
X38464162Y-30844683D01*
X38325090Y-30628559D01*
X38112890Y-30483569D01*
X38079510Y-30476809D01*
X38220699Y-30418327D01*
X38399327Y-30239698D01*
X38496000Y-30006309D01*
X38496000Y-29815750D01*
X38337250Y-29657000D01*
X37338000Y-29657000D01*
X37338000Y-29677000D01*
X37084000Y-29677000D01*
X37084000Y-29657000D01*
X37064000Y-29657000D01*
X37064000Y-29403000D01*
X37084000Y-29403000D01*
X37084000Y-28703750D01*
X36925250Y-28545000D01*
X36434690Y-28545000D01*
X36201301Y-28641673D01*
X36044000Y-28798975D01*
X36044000Y-28701998D01*
X35885252Y-28701998D01*
X36044000Y-28543250D01*
X36044000Y-28077690D01*
X35947327Y-27844301D01*
X35877760Y-27774734D01*
X36261663Y-27775069D01*
X36621212Y-27626507D01*
X36896540Y-27351659D01*
X37045730Y-26992370D01*
X37046069Y-26603337D01*
X36897507Y-26243788D01*
X36622659Y-25968460D01*
X36263370Y-25819270D01*
X36023807Y-25819061D01*
X36044000Y-25770310D01*
X36044000Y-25304750D01*
X35885250Y-25146000D01*
X35036000Y-25146000D01*
X35036000Y-25166000D01*
X34782000Y-25166000D01*
X34782000Y-25146000D01*
X34762000Y-25146000D01*
X34762000Y-24892000D01*
X34782000Y-24892000D01*
X34782000Y-24872000D01*
X35036000Y-24872000D01*
X35036000Y-24892000D01*
X35885250Y-24892000D01*
X36044000Y-24733250D01*
X36044000Y-24363212D01*
X37763500Y-26082711D01*
G36*
X13302000Y-23495000D02*
X13322000Y-23495000D01*
X13322000Y-23749000D01*
X13302000Y-23749000D01*
X13302000Y-24398250D01*
X13460750Y-24557000D01*
X14076309Y-24557000D01*
X14309698Y-24460327D01*
X14488327Y-24281699D01*
X14505000Y-24241447D01*
X14505000Y-25494974D01*
X14364698Y-25354673D01*
X14131309Y-25258000D01*
X13940750Y-25258000D01*
X13782000Y-25416750D01*
X13782000Y-26416000D01*
X13802000Y-26416000D01*
X13802000Y-26670000D01*
X13782000Y-26670000D01*
X13782000Y-27296750D01*
X13732000Y-27346750D01*
X13732000Y-28321000D01*
X13752000Y-28321000D01*
X13752000Y-28575000D01*
X13732000Y-28575000D01*
X13732000Y-28595000D01*
X13478000Y-28595000D01*
X13478000Y-28575000D01*
X12628750Y-28575000D01*
X12470000Y-28733750D01*
X12470000Y-29199310D01*
X12566673Y-29432699D01*
X12745302Y-29611327D01*
X12978691Y-29708000D01*
X13319250Y-29708000D01*
X13411560Y-29615690D01*
X13411560Y-30301000D01*
X13349711Y-30301000D01*
X11938238Y-28889526D01*
X12083441Y-28796090D01*
X12228431Y-28583890D01*
X12279440Y-28332000D01*
X12279440Y-27696690D01*
X12470000Y-27696690D01*
X12470000Y-28162250D01*
X12628750Y-28321000D01*
X13478000Y-28321000D01*
X13478000Y-27719250D01*
X13528000Y-27669250D01*
X13528000Y-26670000D01*
X12828750Y-26670000D01*
X12670000Y-26828750D01*
X12670000Y-27319310D01*
X12681910Y-27348064D01*
X12566673Y-27463301D01*
X12470000Y-27696690D01*
X12279440Y-27696690D01*
X12279440Y-26532000D01*
X12235162Y-26296683D01*
X12096090Y-26080559D01*
X11883890Y-25935569D01*
X11632000Y-25884560D01*
X11316228Y-25884560D01*
X11434098Y-25766690D01*
X12670000Y-25766690D01*
X12670000Y-26257250D01*
X12828750Y-26416000D01*
X13528000Y-26416000D01*
X13528000Y-25416750D01*
X13369250Y-25258000D01*
X13178691Y-25258000D01*
X12945302Y-25354673D01*
X12766673Y-25533301D01*
X12670000Y-25766690D01*
X11434098Y-25766690D01*
X11838863Y-25361925D01*
X12004663Y-25362069D01*
X12364212Y-25213507D01*
X12639540Y-24938659D01*
X12788730Y-24579370D01*
X12788749Y-24557000D01*
X12889250Y-24557000D01*
X13048000Y-24398250D01*
X13048000Y-23749000D01*
X13028000Y-23749000D01*
X13028000Y-23495000D01*
X13048000Y-23495000D01*
X13048000Y-23475000D01*
X13302000Y-23475000D01*
X13302000Y-23495000D01*
X13302000Y-23495000D01*
G37*
X13302000Y-23495000D02*
X13322000Y-23495000D01*
X13322000Y-23749000D01*
X13302000Y-23749000D01*
X13302000Y-24398250D01*
X13460750Y-24557000D01*
X14076309Y-24557000D01*
X14309698Y-24460327D01*
X14488327Y-24281699D01*
X14505000Y-24241447D01*
X14505000Y-25494974D01*
X14364698Y-25354673D01*
X14131309Y-25258000D01*
X13940750Y-25258000D01*
X13782000Y-25416750D01*
X13782000Y-26416000D01*
X13802000Y-26416000D01*
X13802000Y-26670000D01*
X13782000Y-26670000D01*
X13782000Y-27296750D01*
X13732000Y-27346750D01*
X13732000Y-28321000D01*
X13752000Y-28321000D01*
X13752000Y-28575000D01*
X13732000Y-28575000D01*
X13732000Y-28595000D01*
X13478000Y-28595000D01*
X13478000Y-28575000D01*
X12628750Y-28575000D01*
X12470000Y-28733750D01*
X12470000Y-29199310D01*
X12566673Y-29432699D01*
X12745302Y-29611327D01*
X12978691Y-29708000D01*
X13319250Y-29708000D01*
X13411560Y-29615690D01*
X13411560Y-30301000D01*
X13349711Y-30301000D01*
X11938238Y-28889526D01*
X12083441Y-28796090D01*
X12228431Y-28583890D01*
X12279440Y-28332000D01*
X12279440Y-27696690D01*
X12470000Y-27696690D01*
X12470000Y-28162250D01*
X12628750Y-28321000D01*
X13478000Y-28321000D01*
X13478000Y-27719250D01*
X13528000Y-27669250D01*
X13528000Y-26670000D01*
X12828750Y-26670000D01*
X12670000Y-26828750D01*
X12670000Y-27319310D01*
X12681910Y-27348064D01*
X12566673Y-27463301D01*
X12470000Y-27696690D01*
X12279440Y-27696690D01*
X12279440Y-26532000D01*
X12235162Y-26296683D01*
X12096090Y-26080559D01*
X11883890Y-25935569D01*
X11632000Y-25884560D01*
X11316228Y-25884560D01*
X11434098Y-25766690D01*
X12670000Y-25766690D01*
X12670000Y-26257250D01*
X12828750Y-26416000D01*
X13528000Y-26416000D01*
X13528000Y-25416750D01*
X13369250Y-25258000D01*
X13178691Y-25258000D01*
X12945302Y-25354673D01*
X12766673Y-25533301D01*
X12670000Y-25766690D01*
X11434098Y-25766690D01*
X11838863Y-25361925D01*
X12004663Y-25362069D01*
X12364212Y-25213507D01*
X12639540Y-24938659D01*
X12788730Y-24579370D01*
X12788749Y-24557000D01*
X12889250Y-24557000D01*
X13048000Y-24398250D01*
X13048000Y-23749000D01*
X13028000Y-23749000D01*
X13028000Y-23495000D01*
X13048000Y-23495000D01*
X13048000Y-23475000D01*
X13302000Y-23475000D01*
X13302000Y-23495000D01*
G36*
X35036000Y-28702000D02*
X35056000Y-28702000D01*
X35056000Y-28956000D01*
X35036000Y-28956000D01*
X35036000Y-28976000D01*
X34782000Y-28976000D01*
X34782000Y-28956000D01*
X34762000Y-28956000D01*
X34762000Y-28702000D01*
X34782000Y-28702000D01*
X34782000Y-28682000D01*
X35036000Y-28682000D01*
X35036000Y-28702000D01*
X35036000Y-28702000D01*
G37*
X35036000Y-28702000D02*
X35056000Y-28702000D01*
X35056000Y-28956000D01*
X35036000Y-28956000D01*
X35036000Y-28976000D01*
X34782000Y-28976000D01*
X34782000Y-28956000D01*
X34762000Y-28956000D01*
X34762000Y-28702000D01*
X34782000Y-28702000D01*
X34782000Y-28682000D01*
X35036000Y-28682000D01*
X35036000Y-28702000D01*
G36*
X13483955Y-1406411D02*
X13144887Y-2222978D01*
X13144115Y-3107143D01*
X13481758Y-3924300D01*
X14106411Y-4550045D01*
X14922978Y-4889113D01*
X15807143Y-4889885D01*
X16624300Y-4552242D01*
X17250045Y-3927589D01*
X17481816Y-3369422D01*
X17565625Y-3572256D01*
X18015376Y-4022793D01*
X18188000Y-4094473D01*
X18188000Y-5397500D01*
X18231318Y-5615272D01*
X18243949Y-5678772D01*
X18403277Y-5917223D01*
X18872999Y-6386946D01*
X18641728Y-6432949D01*
X18403276Y-6592277D01*
X17758994Y-7236560D01*
X17645000Y-7236560D01*
X17409683Y-7280838D01*
X17193559Y-7419910D01*
X17147031Y-7488006D01*
X17004698Y-7345673D01*
X16771309Y-7249000D01*
X16430750Y-7249000D01*
X16272000Y-7407750D01*
X16272000Y-8382000D01*
X16292000Y-8382000D01*
X16292000Y-8636000D01*
X16272000Y-8636000D01*
X16272000Y-8656000D01*
X16018000Y-8656000D01*
X16018000Y-8636000D01*
X15168750Y-8636000D01*
X15010000Y-8794750D01*
X15010000Y-8887564D01*
X14960600Y-8877560D01*
X14554200Y-8877560D01*
X14422538Y-8902334D01*
X14300200Y-8877560D01*
X13893800Y-8877560D01*
X13775304Y-8899857D01*
X13665200Y-8877560D01*
X13258800Y-8877560D01*
X13023483Y-8921838D01*
X12807359Y-9060910D01*
X12662369Y-9273110D01*
X12611360Y-9525000D01*
X12611360Y-10776635D01*
X12579327Y-10699301D01*
X12400698Y-10520673D01*
X12167309Y-10424000D01*
X11826750Y-10424000D01*
X11668000Y-10582750D01*
X11668000Y-11557000D01*
X12517250Y-11557000D01*
X12676000Y-11398250D01*
X12676000Y-11061960D01*
X12727000Y-11141217D01*
X12727000Y-11295944D01*
X12776402Y-11544300D01*
X12782949Y-11577216D01*
X12942277Y-11815667D01*
X13066208Y-11939598D01*
X12645848Y-11939598D01*
X12517250Y-11811000D01*
X11668000Y-11811000D01*
X11668000Y-11831000D01*
X11414000Y-11831000D01*
X11414000Y-11811000D01*
X11394000Y-11811000D01*
X11394000Y-11557000D01*
X11414000Y-11557000D01*
X11414000Y-10582750D01*
X11255250Y-10424000D01*
X10914691Y-10424000D01*
X10681302Y-10520673D01*
X10540064Y-10661910D01*
X10505090Y-10607559D01*
X10292890Y-10462569D01*
X10041000Y-10411560D01*
X9374000Y-10411560D01*
X9374000Y-10064750D01*
X9215250Y-9906000D01*
X8366000Y-9906000D01*
X8366000Y-9926000D01*
X8112000Y-9926000D01*
X8112000Y-9906000D01*
X8092000Y-9906000D01*
X8092000Y-9652000D01*
X8112000Y-9652000D01*
X8112000Y-8677750D01*
X8366000Y-8677750D01*
X8366000Y-9652000D01*
X9215250Y-9652000D01*
X9374000Y-9493250D01*
X9374000Y-9027690D01*
X9277327Y-8794301D01*
X9098698Y-8615673D01*
X8865309Y-8519000D01*
X8524750Y-8519000D01*
X8366000Y-8677750D01*
X8112000Y-8677750D01*
X7953250Y-8519000D01*
X7612691Y-8519000D01*
X7379302Y-8615673D01*
X7238064Y-8756910D01*
X7203090Y-8702559D01*
X6992852Y-8558910D01*
X6964245Y-8415093D01*
X6794079Y-8160421D01*
X6391348Y-7757690D01*
X15010000Y-7757690D01*
X15010000Y-8223250D01*
X15168750Y-8382000D01*
X16018000Y-8382000D01*
X16018000Y-7407750D01*
X15859250Y-7249000D01*
X15518691Y-7249000D01*
X15285302Y-7345673D01*
X15106673Y-7524301D01*
X15010000Y-7757690D01*
X6391348Y-7757690D01*
X6333579Y-7699921D01*
X6078907Y-7529755D01*
X5778500Y-7470000D01*
X3773123Y-7470000D01*
X3729659Y-7426460D01*
X3370370Y-7277270D01*
X2981337Y-7276931D01*
X2621788Y-7425493D01*
X2346460Y-7700341D01*
X2311350Y-7784896D01*
X2240947Y-7726610D01*
X1778000Y-7584000D01*
X1428000Y-7584000D01*
X1428000Y-11192000D01*
X1448000Y-11192000D01*
X1448000Y-11446000D01*
X1428000Y-11446000D01*
X1428000Y-13192000D01*
X1448000Y-13192000D01*
X1448000Y-13446000D01*
X1428000Y-13446000D01*
X1428000Y-17054000D01*
X1778000Y-17054000D01*
X1816245Y-17042219D01*
X1815931Y-17402163D01*
X1911875Y-17634365D01*
X1878569Y-17683110D01*
X1827560Y-17935000D01*
X1827560Y-21435000D01*
X1871838Y-21670317D01*
X2010910Y-21886441D01*
X2223110Y-22031431D01*
X2475000Y-22082440D01*
X3637534Y-22082440D01*
X3588673Y-22131301D01*
X3492000Y-22364690D01*
X3492000Y-22955250D01*
X3630132Y-23093382D01*
X3590890Y-23066569D01*
X3339000Y-23015560D01*
X2539000Y-23015560D01*
X2303683Y-23059838D01*
X2087559Y-23198910D01*
X1942569Y-23411110D01*
X1891560Y-23663000D01*
X1891560Y-24663000D01*
X1935838Y-24898317D01*
X2074910Y-25114441D01*
X2194914Y-25196436D01*
X2191560Y-25213000D01*
X2191560Y-25288728D01*
X2045767Y-25228189D01*
X1614127Y-25227812D01*
X1215200Y-25392646D01*
X909718Y-25697595D01*
X825500Y-25900414D01*
X825500Y-25310440D01*
X1129000Y-25310440D01*
X1364317Y-25266162D01*
X1580441Y-25127090D01*
X1725431Y-24914890D01*
X1776440Y-24663000D01*
X1776440Y-23663000D01*
X1732162Y-23427683D01*
X1593090Y-23211559D01*
X1380890Y-23066569D01*
X1129000Y-23015560D01*
X825500Y-23015560D01*
X825500Y-17054000D01*
X1174000Y-17054000D01*
X1174000Y-13446000D01*
X1154000Y-13446000D01*
X1154000Y-13192000D01*
X1174000Y-13192000D01*
X1174000Y-11446000D01*
X1154000Y-11446000D01*
X1154000Y-11192000D01*
X1174000Y-11192000D01*
X1174000Y-7584000D01*
X825500Y-7584000D01*
X825500Y-2637775D01*
X10421803Y-2637775D01*
X10594233Y-3055086D01*
X10913235Y-3374645D01*
X11330244Y-3547803D01*
X11781775Y-3548197D01*
X12199086Y-3375767D01*
X12518645Y-3056765D01*
X12691803Y-2639756D01*
X12692197Y-2188225D01*
X12519767Y-1770914D01*
X12200765Y-1451355D01*
X11783756Y-1278197D01*
X11332225Y-1277803D01*
X10914914Y-1450233D01*
X10595355Y-1769235D01*
X10422197Y-2186244D01*
X10421803Y-2637775D01*
X825500Y-2637775D01*
X825500Y-1211798D01*
X862311Y-1026735D01*
X928170Y-928170D01*
X1026735Y-862311D01*
X1211798Y-825500D01*
X14065882Y-825500D01*
X13483955Y-1406411D01*
X13483955Y-1406411D01*
G37*
X13483955Y-1406411D02*
X13144887Y-2222978D01*
X13144115Y-3107143D01*
X13481758Y-3924300D01*
X14106411Y-4550045D01*
X14922978Y-4889113D01*
X15807143Y-4889885D01*
X16624300Y-4552242D01*
X17250045Y-3927589D01*
X17481816Y-3369422D01*
X17565625Y-3572256D01*
X18015376Y-4022793D01*
X18188000Y-4094473D01*
X18188000Y-5397500D01*
X18231318Y-5615272D01*
X18243949Y-5678772D01*
X18403277Y-5917223D01*
X18872999Y-6386946D01*
X18641728Y-6432949D01*
X18403276Y-6592277D01*
X17758994Y-7236560D01*
X17645000Y-7236560D01*
X17409683Y-7280838D01*
X17193559Y-7419910D01*
X17147031Y-7488006D01*
X17004698Y-7345673D01*
X16771309Y-7249000D01*
X16430750Y-7249000D01*
X16272000Y-7407750D01*
X16272000Y-8382000D01*
X16292000Y-8382000D01*
X16292000Y-8636000D01*
X16272000Y-8636000D01*
X16272000Y-8656000D01*
X16018000Y-8656000D01*
X16018000Y-8636000D01*
X15168750Y-8636000D01*
X15010000Y-8794750D01*
X15010000Y-8887564D01*
X14960600Y-8877560D01*
X14554200Y-8877560D01*
X14422538Y-8902334D01*
X14300200Y-8877560D01*
X13893800Y-8877560D01*
X13775304Y-8899857D01*
X13665200Y-8877560D01*
X13258800Y-8877560D01*
X13023483Y-8921838D01*
X12807359Y-9060910D01*
X12662369Y-9273110D01*
X12611360Y-9525000D01*
X12611360Y-10776635D01*
X12579327Y-10699301D01*
X12400698Y-10520673D01*
X12167309Y-10424000D01*
X11826750Y-10424000D01*
X11668000Y-10582750D01*
X11668000Y-11557000D01*
X12517250Y-11557000D01*
X12676000Y-11398250D01*
X12676000Y-11061960D01*
X12727000Y-11141217D01*
X12727000Y-11295944D01*
X12776402Y-11544300D01*
X12782949Y-11577216D01*
X12942277Y-11815667D01*
X13066208Y-11939598D01*
X12645848Y-11939598D01*
X12517250Y-11811000D01*
X11668000Y-11811000D01*
X11668000Y-11831000D01*
X11414000Y-11831000D01*
X11414000Y-11811000D01*
X11394000Y-11811000D01*
X11394000Y-11557000D01*
X11414000Y-11557000D01*
X11414000Y-10582750D01*
X11255250Y-10424000D01*
X10914691Y-10424000D01*
X10681302Y-10520673D01*
X10540064Y-10661910D01*
X10505090Y-10607559D01*
X10292890Y-10462569D01*
X10041000Y-10411560D01*
X9374000Y-10411560D01*
X9374000Y-10064750D01*
X9215250Y-9906000D01*
X8366000Y-9906000D01*
X8366000Y-9926000D01*
X8112000Y-9926000D01*
X8112000Y-9906000D01*
X8092000Y-9906000D01*
X8092000Y-9652000D01*
X8112000Y-9652000D01*
X8112000Y-8677750D01*
X8366000Y-8677750D01*
X8366000Y-9652000D01*
X9215250Y-9652000D01*
X9374000Y-9493250D01*
X9374000Y-9027690D01*
X9277327Y-8794301D01*
X9098698Y-8615673D01*
X8865309Y-8519000D01*
X8524750Y-8519000D01*
X8366000Y-8677750D01*
X8112000Y-8677750D01*
X7953250Y-8519000D01*
X7612691Y-8519000D01*
X7379302Y-8615673D01*
X7238064Y-8756910D01*
X7203090Y-8702559D01*
X6992852Y-8558910D01*
X6964245Y-8415093D01*
X6794079Y-8160421D01*
X6391348Y-7757690D01*
X15010000Y-7757690D01*
X15010000Y-8223250D01*
X15168750Y-8382000D01*
X16018000Y-8382000D01*
X16018000Y-7407750D01*
X15859250Y-7249000D01*
X15518691Y-7249000D01*
X15285302Y-7345673D01*
X15106673Y-7524301D01*
X15010000Y-7757690D01*
X6391348Y-7757690D01*
X6333579Y-7699921D01*
X6078907Y-7529755D01*
X5778500Y-7470000D01*
X3773123Y-7470000D01*
X3729659Y-7426460D01*
X3370370Y-7277270D01*
X2981337Y-7276931D01*
X2621788Y-7425493D01*
X2346460Y-7700341D01*
X2311350Y-7784896D01*
X2240947Y-7726610D01*
X1778000Y-7584000D01*
X1428000Y-7584000D01*
X1428000Y-11192000D01*
X1448000Y-11192000D01*
X1448000Y-11446000D01*
X1428000Y-11446000D01*
X1428000Y-13192000D01*
X1448000Y-13192000D01*
X1448000Y-13446000D01*
X1428000Y-13446000D01*
X1428000Y-17054000D01*
X1778000Y-17054000D01*
X1816245Y-17042219D01*
X1815931Y-17402163D01*
X1911875Y-17634365D01*
X1878569Y-17683110D01*
X1827560Y-17935000D01*
X1827560Y-21435000D01*
X1871838Y-21670317D01*
X2010910Y-21886441D01*
X2223110Y-22031431D01*
X2475000Y-22082440D01*
X3637534Y-22082440D01*
X3588673Y-22131301D01*
X3492000Y-22364690D01*
X3492000Y-22955250D01*
X3630132Y-23093382D01*
X3590890Y-23066569D01*
X3339000Y-23015560D01*
X2539000Y-23015560D01*
X2303683Y-23059838D01*
X2087559Y-23198910D01*
X1942569Y-23411110D01*
X1891560Y-23663000D01*
X1891560Y-24663000D01*
X1935838Y-24898317D01*
X2074910Y-25114441D01*
X2194914Y-25196436D01*
X2191560Y-25213000D01*
X2191560Y-25288728D01*
X2045767Y-25228189D01*
X1614127Y-25227812D01*
X1215200Y-25392646D01*
X909718Y-25697595D01*
X825500Y-25900414D01*
X825500Y-25310440D01*
X1129000Y-25310440D01*
X1364317Y-25266162D01*
X1580441Y-25127090D01*
X1725431Y-24914890D01*
X1776440Y-24663000D01*
X1776440Y-23663000D01*
X1732162Y-23427683D01*
X1593090Y-23211559D01*
X1380890Y-23066569D01*
X1129000Y-23015560D01*
X825500Y-23015560D01*
X825500Y-17054000D01*
X1174000Y-17054000D01*
X1174000Y-13446000D01*
X1154000Y-13446000D01*
X1154000Y-13192000D01*
X1174000Y-13192000D01*
X1174000Y-11446000D01*
X1154000Y-11446000D01*
X1154000Y-11192000D01*
X1174000Y-11192000D01*
X1174000Y-7584000D01*
X825500Y-7584000D01*
X825500Y-2637775D01*
X10421803Y-2637775D01*
X10594233Y-3055086D01*
X10913235Y-3374645D01*
X11330244Y-3547803D01*
X11781775Y-3548197D01*
X12199086Y-3375767D01*
X12518645Y-3056765D01*
X12691803Y-2639756D01*
X12692197Y-2188225D01*
X12519767Y-1770914D01*
X12200765Y-1451355D01*
X11783756Y-1278197D01*
X11332225Y-1277803D01*
X10914914Y-1450233D01*
X10595355Y-1769235D01*
X10422197Y-2186244D01*
X10421803Y-2637775D01*
X825500Y-2637775D01*
X825500Y-1211798D01*
X862311Y-1026735D01*
X928170Y-928170D01*
X1026735Y-862311D01*
X1211798Y-825500D01*
X14065882Y-825500D01*
X13483955Y-1406411D01*
G36*
X55233276Y-22871723D02*
X55368836Y-22962301D01*
X55471728Y-23031051D01*
X55753000Y-23087000D01*
X55956554Y-23087000D01*
X57138276Y-24268723D01*
X57175805Y-24293799D01*
X57061270Y-24569630D01*
X57061124Y-24737088D01*
X56601412Y-25196800D01*
X53630794Y-25196800D01*
X53513659Y-25079460D01*
X53154370Y-24930270D01*
X52978209Y-24930116D01*
X53320052Y-24588273D01*
X53455137Y-24390570D01*
X53464792Y-24346064D01*
X53470163Y-24346069D01*
X53829712Y-24197507D01*
X54105040Y-23922659D01*
X54254230Y-23563370D01*
X54254569Y-23174337D01*
X54106007Y-22814788D01*
X53831159Y-22539460D01*
X53746544Y-22504325D01*
X53746569Y-22475837D01*
X53598007Y-22116288D01*
X53323159Y-21840960D01*
X53265457Y-21817000D01*
X54178554Y-21817000D01*
X55233276Y-22871723D01*
X55233276Y-22871723D01*
G37*
X55233276Y-22871723D02*
X55368836Y-22962301D01*
X55471728Y-23031051D01*
X55753000Y-23087000D01*
X55956554Y-23087000D01*
X57138276Y-24268723D01*
X57175805Y-24293799D01*
X57061270Y-24569630D01*
X57061124Y-24737088D01*
X56601412Y-25196800D01*
X53630794Y-25196800D01*
X53513659Y-25079460D01*
X53154370Y-24930270D01*
X52978209Y-24930116D01*
X53320052Y-24588273D01*
X53455137Y-24390570D01*
X53464792Y-24346064D01*
X53470163Y-24346069D01*
X53829712Y-24197507D01*
X54105040Y-23922659D01*
X54254230Y-23563370D01*
X54254569Y-23174337D01*
X54106007Y-22814788D01*
X53831159Y-22539460D01*
X53746544Y-22504325D01*
X53746569Y-22475837D01*
X53598007Y-22116288D01*
X53323159Y-21840960D01*
X53265457Y-21817000D01*
X54178554Y-21817000D01*
X55233276Y-22871723D01*
G36*
X4194748Y-14804858D02*
X4180605Y-14819000D01*
X4954398Y-15592793D01*
X5104000Y-15552050D01*
X5104000Y-15843250D01*
X5262750Y-16002000D01*
X6112000Y-16002000D01*
X6112000Y-15982000D01*
X6366000Y-15982000D01*
X6366000Y-16002000D01*
X6386000Y-16002000D01*
X6386000Y-16256000D01*
X6366000Y-16256000D01*
X6366000Y-17230250D01*
X6524750Y-17389000D01*
X6865309Y-17389000D01*
X7098698Y-17292327D01*
X7239936Y-17151090D01*
X7274910Y-17205441D01*
X7395095Y-17287560D01*
X7355000Y-17287560D01*
X7119683Y-17331838D01*
X6903559Y-17470910D01*
X6758569Y-17683110D01*
X6707560Y-17935000D01*
X6707560Y-21435000D01*
X6751838Y-21670317D01*
X6864795Y-21845857D01*
X6641683Y-21887838D01*
X6477507Y-21993482D01*
X6436698Y-21952673D01*
X6203309Y-21856000D01*
X5387750Y-21856000D01*
X5229000Y-22014750D01*
X5229000Y-23114000D01*
X5249000Y-23114000D01*
X5249000Y-23368000D01*
X5229000Y-23368000D01*
X5229000Y-23388000D01*
X4975000Y-23388000D01*
X4975000Y-23368000D01*
X4955000Y-23368000D01*
X4955000Y-23114000D01*
X4975000Y-23114000D01*
X4975000Y-22014750D01*
X4816250Y-21856000D01*
X4555883Y-21856000D01*
X4671431Y-21686890D01*
X4722440Y-21435000D01*
X4722440Y-17935000D01*
X4678162Y-17699683D01*
X4539090Y-17483559D01*
X4326890Y-17338569D01*
X4075000Y-17287560D01*
X3932403Y-17287560D01*
X3830079Y-17134421D01*
X3772015Y-17076357D01*
X3772069Y-17014837D01*
X3623507Y-16655288D01*
X3383389Y-16414750D01*
X5104000Y-16414750D01*
X5104000Y-16880310D01*
X5200673Y-17113699D01*
X5379302Y-17292327D01*
X5612691Y-17389000D01*
X5953250Y-17389000D01*
X6112000Y-17230250D01*
X6112000Y-16256000D01*
X5262750Y-16256000D01*
X5104000Y-16414750D01*
X3383389Y-16414750D01*
X3348659Y-16379960D01*
X2989370Y-16230770D01*
X2810792Y-16230614D01*
X2840592Y-16174281D01*
X2844462Y-16136609D01*
X2821375Y-16101328D01*
X2886000Y-15945309D01*
X2886000Y-15772398D01*
X3227207Y-15772398D01*
X3292122Y-16010753D01*
X3802146Y-16191312D01*
X4342444Y-16162949D01*
X4709878Y-16010753D01*
X4774793Y-15772398D01*
X4001000Y-14998605D01*
X3227207Y-15772398D01*
X2886000Y-15772398D01*
X2886000Y-15548781D01*
X3047602Y-15592793D01*
X3821395Y-14819000D01*
X3807253Y-14804858D01*
X3986858Y-14625253D01*
X4001000Y-14639395D01*
X4015143Y-14625253D01*
X4194748Y-14804858D01*
X4194748Y-14804858D01*
G37*
X4194748Y-14804858D02*
X4180605Y-14819000D01*
X4954398Y-15592793D01*
X5104000Y-15552050D01*
X5104000Y-15843250D01*
X5262750Y-16002000D01*
X6112000Y-16002000D01*
X6112000Y-15982000D01*
X6366000Y-15982000D01*
X6366000Y-16002000D01*
X6386000Y-16002000D01*
X6386000Y-16256000D01*
X6366000Y-16256000D01*
X6366000Y-17230250D01*
X6524750Y-17389000D01*
X6865309Y-17389000D01*
X7098698Y-17292327D01*
X7239936Y-17151090D01*
X7274910Y-17205441D01*
X7395095Y-17287560D01*
X7355000Y-17287560D01*
X7119683Y-17331838D01*
X6903559Y-17470910D01*
X6758569Y-17683110D01*
X6707560Y-17935000D01*
X6707560Y-21435000D01*
X6751838Y-21670317D01*
X6864795Y-21845857D01*
X6641683Y-21887838D01*
X6477507Y-21993482D01*
X6436698Y-21952673D01*
X6203309Y-21856000D01*
X5387750Y-21856000D01*
X5229000Y-22014750D01*
X5229000Y-23114000D01*
X5249000Y-23114000D01*
X5249000Y-23368000D01*
X5229000Y-23368000D01*
X5229000Y-23388000D01*
X4975000Y-23388000D01*
X4975000Y-23368000D01*
X4955000Y-23368000D01*
X4955000Y-23114000D01*
X4975000Y-23114000D01*
X4975000Y-22014750D01*
X4816250Y-21856000D01*
X4555883Y-21856000D01*
X4671431Y-21686890D01*
X4722440Y-21435000D01*
X4722440Y-17935000D01*
X4678162Y-17699683D01*
X4539090Y-17483559D01*
X4326890Y-17338569D01*
X4075000Y-17287560D01*
X3932403Y-17287560D01*
X3830079Y-17134421D01*
X3772015Y-17076357D01*
X3772069Y-17014837D01*
X3623507Y-16655288D01*
X3383389Y-16414750D01*
X5104000Y-16414750D01*
X5104000Y-16880310D01*
X5200673Y-17113699D01*
X5379302Y-17292327D01*
X5612691Y-17389000D01*
X5953250Y-17389000D01*
X6112000Y-17230250D01*
X6112000Y-16256000D01*
X5262750Y-16256000D01*
X5104000Y-16414750D01*
X3383389Y-16414750D01*
X3348659Y-16379960D01*
X2989370Y-16230770D01*
X2810792Y-16230614D01*
X2840592Y-16174281D01*
X2844462Y-16136609D01*
X2821375Y-16101328D01*
X2886000Y-15945309D01*
X2886000Y-15772398D01*
X3227207Y-15772398D01*
X3292122Y-16010753D01*
X3802146Y-16191312D01*
X4342444Y-16162949D01*
X4709878Y-16010753D01*
X4774793Y-15772398D01*
X4001000Y-14998605D01*
X3227207Y-15772398D01*
X2886000Y-15772398D01*
X2886000Y-15548781D01*
X3047602Y-15592793D01*
X3821395Y-14819000D01*
X3807253Y-14804858D01*
X3986858Y-14625253D01*
X4001000Y-14639395D01*
X4015143Y-14625253D01*
X4194748Y-14804858D01*
G36*
X14081000Y-17907000D02*
X14101000Y-17907000D01*
X14101000Y-18161000D01*
X14081000Y-18161000D01*
X14081000Y-18181000D01*
X13827000Y-18181000D01*
X13827000Y-18161000D01*
X13807000Y-18161000D01*
X13807000Y-17907000D01*
X13827000Y-17907000D01*
X13827000Y-17887000D01*
X14081000Y-17887000D01*
X14081000Y-17907000D01*
X14081000Y-17907000D01*
G37*
X14081000Y-17907000D02*
X14101000Y-17907000D01*
X14101000Y-18161000D01*
X14081000Y-18161000D01*
X14081000Y-18181000D01*
X13827000Y-18181000D01*
X13827000Y-18161000D01*
X13807000Y-18161000D01*
X13807000Y-17907000D01*
X13827000Y-17907000D01*
X13827000Y-17887000D01*
X14081000Y-17887000D01*
X14081000Y-17907000D01*
G36*
X12794710Y-16580441D02*
X13006910Y-16725431D01*
X13258800Y-16776440D01*
X13321800Y-16776440D01*
X13094302Y-16870673D01*
X12953064Y-17011910D01*
X12918090Y-16957559D01*
X12705890Y-16812569D01*
X12454000Y-16761560D01*
X12034851Y-16761560D01*
X12203723Y-16648723D01*
X12253492Y-16598954D01*
X12385663Y-16599069D01*
X12718265Y-16461641D01*
X12794710Y-16580441D01*
X12794710Y-16580441D01*
G37*
X12794710Y-16580441D02*
X13006910Y-16725431D01*
X13258800Y-16776440D01*
X13321800Y-16776440D01*
X13094302Y-16870673D01*
X12953064Y-17011910D01*
X12918090Y-16957559D01*
X12705890Y-16812569D01*
X12454000Y-16761560D01*
X12034851Y-16761560D01*
X12203723Y-16648723D01*
X12253492Y-16598954D01*
X12385663Y-16599069D01*
X12718265Y-16461641D01*
X12794710Y-16580441D01*
G36*
X10681302Y-15387327D02*
X10697412Y-15394000D01*
X10366703Y-15394000D01*
X10492441Y-15313090D01*
X10538969Y-15244994D01*
X10681302Y-15387327D01*
X10681302Y-15387327D01*
G37*
X10681302Y-15387327D02*
X10697412Y-15394000D01*
X10366703Y-15394000D01*
X10492441Y-15313090D01*
X10538969Y-15244994D01*
X10681302Y-15387327D01*
G36*
X12727000Y-14512519D02*
X12676000Y-14587160D01*
X12676000Y-14509750D01*
X12517250Y-14351000D01*
X11668000Y-14351000D01*
X11668000Y-14371000D01*
X11414000Y-14371000D01*
X11414000Y-14351000D01*
X11394000Y-14351000D01*
X11394000Y-14097000D01*
X11414000Y-14097000D01*
X11414000Y-14077000D01*
X11668000Y-14077000D01*
X11668000Y-14097000D01*
X12517250Y-14097000D01*
X12676000Y-13938250D01*
X12676000Y-13816000D01*
X12727000Y-13816000D01*
X12727000Y-14512519D01*
X12727000Y-14512519D01*
G37*
X12727000Y-14512519D02*
X12676000Y-14587160D01*
X12676000Y-14509750D01*
X12517250Y-14351000D01*
X11668000Y-14351000D01*
X11668000Y-14371000D01*
X11414000Y-14371000D01*
X11414000Y-14351000D01*
X11394000Y-14351000D01*
X11394000Y-14097000D01*
X11414000Y-14097000D01*
X11414000Y-14077000D01*
X11668000Y-14077000D01*
X11668000Y-14097000D01*
X12517250Y-14097000D01*
X12676000Y-13938250D01*
X12676000Y-13816000D01*
X12727000Y-13816000D01*
X12727000Y-14512519D01*
G36*
X4194748Y-9804858D02*
X4180605Y-9819000D01*
X4194748Y-9833143D01*
X4015143Y-10012748D01*
X4001000Y-9998605D01*
X3986858Y-10012748D01*
X3807253Y-9833143D01*
X3821395Y-9819000D01*
X3807253Y-9804858D01*
X3986858Y-9625253D01*
X4001000Y-9639395D01*
X4015143Y-9625253D01*
X4194748Y-9804858D01*
X4194748Y-9804858D01*
G37*
X4194748Y-9804858D02*
X4180605Y-9819000D01*
X4194748Y-9833143D01*
X4015143Y-10012748D01*
X4001000Y-9998605D01*
X3986858Y-10012748D01*
X3807253Y-9833143D01*
X3821395Y-9819000D01*
X3807253Y-9804858D01*
X3986858Y-9625253D01*
X4001000Y-9639395D01*
X4015143Y-9625253D01*
X4194748Y-9804858D01*
G36*
X30715376Y-4022793D02*
X31015000Y-4147208D01*
X31015000Y-5881158D01*
X30836892Y-5797514D01*
X30607000Y-5918181D01*
X30607000Y-7112000D01*
X30627000Y-7112000D01*
X30627000Y-7366000D01*
X30607000Y-7366000D01*
X30607000Y-7386000D01*
X30353000Y-7386000D01*
X30353000Y-7366000D01*
X29159845Y-7366000D01*
X29038524Y-7595890D01*
X29208355Y-8005924D01*
X29598642Y-8434183D01*
X29741553Y-8501298D01*
X29400853Y-8728946D01*
X29340640Y-8819062D01*
X29321923Y-8822785D01*
X28986144Y-9047144D01*
X28986142Y-9047147D01*
X28606440Y-9426849D01*
X28606440Y-9290000D01*
X28562162Y-9054683D01*
X28456518Y-8890507D01*
X28497327Y-8849698D01*
X28594000Y-8616309D01*
X28594000Y-8375750D01*
X28435250Y-8217000D01*
X27686000Y-8217000D01*
X27686000Y-8237000D01*
X27432000Y-8237000D01*
X27432000Y-8217000D01*
X27412000Y-8217000D01*
X27412000Y-7963000D01*
X27432000Y-7963000D01*
X27432000Y-7213750D01*
X27686000Y-7213750D01*
X27686000Y-7963000D01*
X28435250Y-7963000D01*
X28594000Y-7804250D01*
X28594000Y-7563691D01*
X28497327Y-7330302D01*
X28318699Y-7151673D01*
X28085310Y-7055000D01*
X27844750Y-7055000D01*
X27686000Y-7213750D01*
X27432000Y-7213750D01*
X27273250Y-7055000D01*
X27032690Y-7055000D01*
X26799301Y-7151673D01*
X26785445Y-7165529D01*
X26768090Y-7138559D01*
X26707967Y-7097479D01*
X26923336Y-6882110D01*
X29038524Y-6882110D01*
X29159845Y-7112000D01*
X30353000Y-7112000D01*
X30353000Y-5918181D01*
X30123108Y-5797514D01*
X29598642Y-6043817D01*
X29208355Y-6472076D01*
X29038524Y-6882110D01*
X26923336Y-6882110D01*
X27736447Y-6069000D01*
X28829000Y-6069000D01*
X29110272Y-6013051D01*
X29348723Y-5853723D01*
X29602723Y-5599724D01*
X29762051Y-5361272D01*
X29767476Y-5334000D01*
X29818000Y-5080000D01*
X29818000Y-4094723D01*
X29988256Y-4024375D01*
X30353242Y-3660026D01*
X30715376Y-4022793D01*
X30715376Y-4022793D01*
G37*
X30715376Y-4022793D02*
X31015000Y-4147208D01*
X31015000Y-5881158D01*
X30836892Y-5797514D01*
X30607000Y-5918181D01*
X30607000Y-7112000D01*
X30627000Y-7112000D01*
X30627000Y-7366000D01*
X30607000Y-7366000D01*
X30607000Y-7386000D01*
X30353000Y-7386000D01*
X30353000Y-7366000D01*
X29159845Y-7366000D01*
X29038524Y-7595890D01*
X29208355Y-8005924D01*
X29598642Y-8434183D01*
X29741553Y-8501298D01*
X29400853Y-8728946D01*
X29340640Y-8819062D01*
X29321923Y-8822785D01*
X28986144Y-9047144D01*
X28986142Y-9047147D01*
X28606440Y-9426849D01*
X28606440Y-9290000D01*
X28562162Y-9054683D01*
X28456518Y-8890507D01*
X28497327Y-8849698D01*
X28594000Y-8616309D01*
X28594000Y-8375750D01*
X28435250Y-8217000D01*
X27686000Y-8217000D01*
X27686000Y-8237000D01*
X27432000Y-8237000D01*
X27432000Y-8217000D01*
X27412000Y-8217000D01*
X27412000Y-7963000D01*
X27432000Y-7963000D01*
X27432000Y-7213750D01*
X27686000Y-7213750D01*
X27686000Y-7963000D01*
X28435250Y-7963000D01*
X28594000Y-7804250D01*
X28594000Y-7563691D01*
X28497327Y-7330302D01*
X28318699Y-7151673D01*
X28085310Y-7055000D01*
X27844750Y-7055000D01*
X27686000Y-7213750D01*
X27432000Y-7213750D01*
X27273250Y-7055000D01*
X27032690Y-7055000D01*
X26799301Y-7151673D01*
X26785445Y-7165529D01*
X26768090Y-7138559D01*
X26707967Y-7097479D01*
X26923336Y-6882110D01*
X29038524Y-6882110D01*
X29159845Y-7112000D01*
X30353000Y-7112000D01*
X30353000Y-5918181D01*
X30123108Y-5797514D01*
X29598642Y-6043817D01*
X29208355Y-6472076D01*
X29038524Y-6882110D01*
X26923336Y-6882110D01*
X27736447Y-6069000D01*
X28829000Y-6069000D01*
X29110272Y-6013051D01*
X29348723Y-5853723D01*
X29602723Y-5599724D01*
X29762051Y-5361272D01*
X29767476Y-5334000D01*
X29818000Y-5080000D01*
X29818000Y-4094723D01*
X29988256Y-4024375D01*
X30353242Y-3660026D01*
X30715376Y-4022793D01*
G36*
X55687304Y-4266922D02*
X56323903Y-4267477D01*
X56415000Y-4229837D01*
X56415000Y-5881158D01*
X56236892Y-5797514D01*
X56007000Y-5918181D01*
X56007000Y-7112000D01*
X56027000Y-7112000D01*
X56027000Y-7366000D01*
X56007000Y-7366000D01*
X56007000Y-7386000D01*
X55753000Y-7386000D01*
X55753000Y-7366000D01*
X55733000Y-7366000D01*
X55733000Y-7112000D01*
X55753000Y-7112000D01*
X55753000Y-5918181D01*
X55523108Y-5797514D01*
X55345000Y-5881158D01*
X55345000Y-4124785D01*
X55687304Y-4266922D01*
X55687304Y-4266922D01*
G37*
X55687304Y-4266922D02*
X56323903Y-4267477D01*
X56415000Y-4229837D01*
X56415000Y-5881158D01*
X56236892Y-5797514D01*
X56007000Y-5918181D01*
X56007000Y-7112000D01*
X56027000Y-7112000D01*
X56027000Y-7366000D01*
X56007000Y-7366000D01*
X56007000Y-7386000D01*
X55753000Y-7386000D01*
X55753000Y-7366000D01*
X55733000Y-7366000D01*
X55733000Y-7112000D01*
X55753000Y-7112000D01*
X55753000Y-5918181D01*
X55523108Y-5797514D01*
X55345000Y-5881158D01*
X55345000Y-4124785D01*
X55687304Y-4266922D01*
G36*
X53147304Y-4266922D02*
X53783903Y-4267477D01*
X53875000Y-4229837D01*
X53875000Y-5881158D01*
X53696892Y-5797514D01*
X53467000Y-5918181D01*
X53467000Y-7112000D01*
X53487000Y-7112000D01*
X53487000Y-7366000D01*
X53467000Y-7366000D01*
X53467000Y-7386000D01*
X53213000Y-7386000D01*
X53213000Y-7366000D01*
X53193000Y-7366000D01*
X53193000Y-7112000D01*
X53213000Y-7112000D01*
X53213000Y-5918181D01*
X52983108Y-5797514D01*
X52805000Y-5881158D01*
X52805000Y-4124785D01*
X53147304Y-4266922D01*
X53147304Y-4266922D01*
G37*
X53147304Y-4266922D02*
X53783903Y-4267477D01*
X53875000Y-4229837D01*
X53875000Y-5881158D01*
X53696892Y-5797514D01*
X53467000Y-5918181D01*
X53467000Y-7112000D01*
X53487000Y-7112000D01*
X53487000Y-7366000D01*
X53467000Y-7366000D01*
X53467000Y-7386000D01*
X53213000Y-7386000D01*
X53213000Y-7366000D01*
X53193000Y-7366000D01*
X53193000Y-7112000D01*
X53213000Y-7112000D01*
X53213000Y-5918181D01*
X52983108Y-5797514D01*
X52805000Y-5881158D01*
X52805000Y-4124785D01*
X53147304Y-4266922D01*
G36*
X50607304Y-4266922D02*
X51243903Y-4267477D01*
X51335000Y-4229837D01*
X51335000Y-5881158D01*
X51156892Y-5797514D01*
X50927000Y-5918181D01*
X50927000Y-7112000D01*
X50947000Y-7112000D01*
X50947000Y-7366000D01*
X50927000Y-7366000D01*
X50927000Y-7386000D01*
X50673000Y-7386000D01*
X50673000Y-7366000D01*
X50653000Y-7366000D01*
X50653000Y-7112000D01*
X50673000Y-7112000D01*
X50673000Y-5918181D01*
X50443108Y-5797514D01*
X50265000Y-5881158D01*
X50265000Y-4124785D01*
X50607304Y-4266922D01*
X50607304Y-4266922D01*
G37*
X50607304Y-4266922D02*
X51243903Y-4267477D01*
X51335000Y-4229837D01*
X51335000Y-5881158D01*
X51156892Y-5797514D01*
X50927000Y-5918181D01*
X50927000Y-7112000D01*
X50947000Y-7112000D01*
X50947000Y-7366000D01*
X50927000Y-7366000D01*
X50927000Y-7386000D01*
X50673000Y-7386000D01*
X50673000Y-7366000D01*
X50653000Y-7366000D01*
X50653000Y-7112000D01*
X50673000Y-7112000D01*
X50673000Y-5918181D01*
X50443108Y-5797514D01*
X50265000Y-5881158D01*
X50265000Y-4124785D01*
X50607304Y-4266922D01*
G36*
X63307304Y-4266922D02*
X63943903Y-4267477D01*
X64035000Y-4229837D01*
X64035000Y-5881158D01*
X63856892Y-5797514D01*
X63627000Y-5918181D01*
X63627000Y-7112000D01*
X63647000Y-7112000D01*
X63647000Y-7366000D01*
X63627000Y-7366000D01*
X63627000Y-7386000D01*
X63373000Y-7386000D01*
X63373000Y-7366000D01*
X63353000Y-7366000D01*
X63353000Y-7112000D01*
X63373000Y-7112000D01*
X63373000Y-5918181D01*
X63143108Y-5797514D01*
X62965000Y-5881158D01*
X62965000Y-4124785D01*
X63307304Y-4266922D01*
X63307304Y-4266922D01*
G37*
X63307304Y-4266922D02*
X63943903Y-4267477D01*
X64035000Y-4229837D01*
X64035000Y-5881158D01*
X63856892Y-5797514D01*
X63627000Y-5918181D01*
X63627000Y-7112000D01*
X63647000Y-7112000D01*
X63647000Y-7366000D01*
X63627000Y-7366000D01*
X63627000Y-7386000D01*
X63373000Y-7386000D01*
X63373000Y-7366000D01*
X63353000Y-7366000D01*
X63353000Y-7112000D01*
X63373000Y-7112000D01*
X63373000Y-5918181D01*
X63143108Y-5797514D01*
X62965000Y-5881158D01*
X62965000Y-4124785D01*
X63307304Y-4266922D01*
G36*
X65468500Y-1940328D02*
X65468500Y-3626504D01*
X65449051Y-3528728D01*
X65346096Y-3374645D01*
X65289723Y-3290276D01*
X65156276Y-3156830D01*
X65226922Y-2986696D01*
X65227477Y-2350097D01*
X64984375Y-1761744D01*
X64534624Y-1311207D01*
X63946696Y-1067078D01*
X63310097Y-1066523D01*
X62721744Y-1309625D01*
X62356758Y-1673974D01*
X61994624Y-1311207D01*
X61406696Y-1067078D01*
X60770097Y-1066523D01*
X60181744Y-1309625D01*
X59816758Y-1673974D01*
X59454624Y-1311207D01*
X58866696Y-1067078D01*
X58230097Y-1066523D01*
X57641744Y-1309625D01*
X57276758Y-1673974D01*
X56914624Y-1311207D01*
X56326696Y-1067078D01*
X55690097Y-1066523D01*
X55101744Y-1309625D01*
X54736758Y-1673974D01*
X54374624Y-1311207D01*
X53786696Y-1067078D01*
X53150097Y-1066523D01*
X52561744Y-1309625D01*
X52196758Y-1673974D01*
X51834624Y-1311207D01*
X51246696Y-1067078D01*
X50610097Y-1066523D01*
X50021744Y-1309625D01*
X49656758Y-1673974D01*
X49294624Y-1311207D01*
X48706696Y-1067078D01*
X48070097Y-1066523D01*
X47481744Y-1309625D01*
X47116758Y-1673974D01*
X46754624Y-1311207D01*
X46166696Y-1067078D01*
X45530097Y-1066523D01*
X44941744Y-1309625D01*
X44491207Y-1759376D01*
X44247078Y-2347304D01*
X44246523Y-2983903D01*
X44489625Y-3572256D01*
X44939376Y-4022793D01*
X45527304Y-4266922D01*
X46163903Y-4267477D01*
X46255000Y-4229837D01*
X46255000Y-5881158D01*
X46076892Y-5797514D01*
X45847000Y-5918181D01*
X45847000Y-7112000D01*
X45867000Y-7112000D01*
X45867000Y-7366000D01*
X45847000Y-7366000D01*
X45847000Y-7386000D01*
X45593000Y-7386000D01*
X45593000Y-7366000D01*
X43307000Y-7366000D01*
X43307000Y-7386000D01*
X43053000Y-7386000D01*
X43053000Y-7366000D01*
X43033000Y-7366000D01*
X43033000Y-7112000D01*
X43053000Y-7112000D01*
X43053000Y-5918181D01*
X43307000Y-5918181D01*
X43307000Y-7112000D01*
X45593000Y-7112000D01*
X45593000Y-5918181D01*
X45363108Y-5797514D01*
X44838642Y-6043817D01*
X44450000Y-6470271D01*
X44061358Y-6043817D01*
X43536892Y-5797514D01*
X43307000Y-5918181D01*
X43053000Y-5918181D01*
X42823108Y-5797514D01*
X42645000Y-5881158D01*
X42645000Y-4042248D01*
X42688256Y-4024375D01*
X43138793Y-3574624D01*
X43382922Y-2986696D01*
X43383477Y-2350097D01*
X43140375Y-1761744D01*
X42690624Y-1311207D01*
X42102696Y-1067078D01*
X41466097Y-1066523D01*
X40877744Y-1309625D01*
X40512758Y-1673974D01*
X40150624Y-1311207D01*
X39562696Y-1067078D01*
X38926097Y-1066523D01*
X38337744Y-1309625D01*
X37972758Y-1673974D01*
X37610624Y-1311207D01*
X37022696Y-1067078D01*
X36386097Y-1066523D01*
X35797744Y-1309625D01*
X35432758Y-1673974D01*
X35070624Y-1311207D01*
X34482696Y-1067078D01*
X33846097Y-1066523D01*
X33257744Y-1309625D01*
X32892758Y-1673974D01*
X32530624Y-1311207D01*
X31942696Y-1067078D01*
X31306097Y-1066523D01*
X30717744Y-1309625D01*
X30352758Y-1673974D01*
X29990624Y-1311207D01*
X29402696Y-1067078D01*
X28766097Y-1066523D01*
X28177744Y-1309625D01*
X27741750Y-1744859D01*
X27670350Y-1719255D01*
X26722605Y-2667000D01*
X27670350Y-3614745D01*
X27742288Y-3588948D01*
X28175376Y-4022793D01*
X28348000Y-4094473D01*
X28348000Y-4599000D01*
X27432000Y-4599000D01*
X27150728Y-4654949D01*
X26912277Y-4814276D01*
X25134277Y-6592277D01*
X24980766Y-6822023D01*
X24981069Y-6473837D01*
X24832507Y-6114288D01*
X24738000Y-6019616D01*
X24738000Y-4094723D01*
X24908256Y-4024375D01*
X25138682Y-3794350D01*
X25595255Y-3794350D01*
X25689654Y-4057596D01*
X26286769Y-4278305D01*
X26922893Y-4253707D01*
X27396346Y-4057596D01*
X27490745Y-3794350D01*
X26543000Y-2846605D01*
X25595255Y-3794350D01*
X25138682Y-3794350D01*
X25344250Y-3589141D01*
X25415650Y-3614745D01*
X26363395Y-2667000D01*
X25415650Y-1719255D01*
X25343712Y-1745052D01*
X25138669Y-1539650D01*
X25595255Y-1539650D01*
X26543000Y-2487395D01*
X27490745Y-1539650D01*
X27396346Y-1276404D01*
X26799231Y-1055695D01*
X26163107Y-1080293D01*
X25689654Y-1276404D01*
X25595255Y-1539650D01*
X25138669Y-1539650D01*
X24910624Y-1311207D01*
X24322696Y-1067078D01*
X23686097Y-1066523D01*
X23097744Y-1309625D01*
X22732758Y-1673974D01*
X22370624Y-1311207D01*
X21782696Y-1067078D01*
X21146097Y-1066523D01*
X20557744Y-1309625D01*
X20192758Y-1673974D01*
X19830624Y-1311207D01*
X19242696Y-1067078D01*
X18606097Y-1066523D01*
X18017744Y-1309625D01*
X17567207Y-1759376D01*
X17481756Y-1965165D01*
X17252242Y-1409700D01*
X16669061Y-825500D01*
X64353672Y-825500D01*
X65468500Y-1940328D01*
X65468500Y-1940328D01*
G37*
X65468500Y-1940328D02*
X65468500Y-3626504D01*
X65449051Y-3528728D01*
X65346096Y-3374645D01*
X65289723Y-3290276D01*
X65156276Y-3156830D01*
X65226922Y-2986696D01*
X65227477Y-2350097D01*
X64984375Y-1761744D01*
X64534624Y-1311207D01*
X63946696Y-1067078D01*
X63310097Y-1066523D01*
X62721744Y-1309625D01*
X62356758Y-1673974D01*
X61994624Y-1311207D01*
X61406696Y-1067078D01*
X60770097Y-1066523D01*
X60181744Y-1309625D01*
X59816758Y-1673974D01*
X59454624Y-1311207D01*
X58866696Y-1067078D01*
X58230097Y-1066523D01*
X57641744Y-1309625D01*
X57276758Y-1673974D01*
X56914624Y-1311207D01*
X56326696Y-1067078D01*
X55690097Y-1066523D01*
X55101744Y-1309625D01*
X54736758Y-1673974D01*
X54374624Y-1311207D01*
X53786696Y-1067078D01*
X53150097Y-1066523D01*
X52561744Y-1309625D01*
X52196758Y-1673974D01*
X51834624Y-1311207D01*
X51246696Y-1067078D01*
X50610097Y-1066523D01*
X50021744Y-1309625D01*
X49656758Y-1673974D01*
X49294624Y-1311207D01*
X48706696Y-1067078D01*
X48070097Y-1066523D01*
X47481744Y-1309625D01*
X47116758Y-1673974D01*
X46754624Y-1311207D01*
X46166696Y-1067078D01*
X45530097Y-1066523D01*
X44941744Y-1309625D01*
X44491207Y-1759376D01*
X44247078Y-2347304D01*
X44246523Y-2983903D01*
X44489625Y-3572256D01*
X44939376Y-4022793D01*
X45527304Y-4266922D01*
X46163903Y-4267477D01*
X46255000Y-4229837D01*
X46255000Y-5881158D01*
X46076892Y-5797514D01*
X45847000Y-5918181D01*
X45847000Y-7112000D01*
X45867000Y-7112000D01*
X45867000Y-7366000D01*
X45847000Y-7366000D01*
X45847000Y-7386000D01*
X45593000Y-7386000D01*
X45593000Y-7366000D01*
X43307000Y-7366000D01*
X43307000Y-7386000D01*
X43053000Y-7386000D01*
X43053000Y-7366000D01*
X43033000Y-7366000D01*
X43033000Y-7112000D01*
X43053000Y-7112000D01*
X43053000Y-5918181D01*
X43307000Y-5918181D01*
X43307000Y-7112000D01*
X45593000Y-7112000D01*
X45593000Y-5918181D01*
X45363108Y-5797514D01*
X44838642Y-6043817D01*
X44450000Y-6470271D01*
X44061358Y-6043817D01*
X43536892Y-5797514D01*
X43307000Y-5918181D01*
X43053000Y-5918181D01*
X42823108Y-5797514D01*
X42645000Y-5881158D01*
X42645000Y-4042248D01*
X42688256Y-4024375D01*
X43138793Y-3574624D01*
X43382922Y-2986696D01*
X43383477Y-2350097D01*
X43140375Y-1761744D01*
X42690624Y-1311207D01*
X42102696Y-1067078D01*
X41466097Y-1066523D01*
X40877744Y-1309625D01*
X40512758Y-1673974D01*
X40150624Y-1311207D01*
X39562696Y-1067078D01*
X38926097Y-1066523D01*
X38337744Y-1309625D01*
X37972758Y-1673974D01*
X37610624Y-1311207D01*
X37022696Y-1067078D01*
X36386097Y-1066523D01*
X35797744Y-1309625D01*
X35432758Y-1673974D01*
X35070624Y-1311207D01*
X34482696Y-1067078D01*
X33846097Y-1066523D01*
X33257744Y-1309625D01*
X32892758Y-1673974D01*
X32530624Y-1311207D01*
X31942696Y-1067078D01*
X31306097Y-1066523D01*
X30717744Y-1309625D01*
X30352758Y-1673974D01*
X29990624Y-1311207D01*
X29402696Y-1067078D01*
X28766097Y-1066523D01*
X28177744Y-1309625D01*
X27741750Y-1744859D01*
X27670350Y-1719255D01*
X26722605Y-2667000D01*
X27670350Y-3614745D01*
X27742288Y-3588948D01*
X28175376Y-4022793D01*
X28348000Y-4094473D01*
X28348000Y-4599000D01*
X27432000Y-4599000D01*
X27150728Y-4654949D01*
X26912277Y-4814276D01*
X25134277Y-6592277D01*
X24980766Y-6822023D01*
X24981069Y-6473837D01*
X24832507Y-6114288D01*
X24738000Y-6019616D01*
X24738000Y-4094723D01*
X24908256Y-4024375D01*
X25138682Y-3794350D01*
X25595255Y-3794350D01*
X25689654Y-4057596D01*
X26286769Y-4278305D01*
X26922893Y-4253707D01*
X27396346Y-4057596D01*
X27490745Y-3794350D01*
X26543000Y-2846605D01*
X25595255Y-3794350D01*
X25138682Y-3794350D01*
X25344250Y-3589141D01*
X25415650Y-3614745D01*
X26363395Y-2667000D01*
X25415650Y-1719255D01*
X25343712Y-1745052D01*
X25138669Y-1539650D01*
X25595255Y-1539650D01*
X26543000Y-2487395D01*
X27490745Y-1539650D01*
X27396346Y-1276404D01*
X26799231Y-1055695D01*
X26163107Y-1080293D01*
X25689654Y-1276404D01*
X25595255Y-1539650D01*
X25138669Y-1539650D01*
X24910624Y-1311207D01*
X24322696Y-1067078D01*
X23686097Y-1066523D01*
X23097744Y-1309625D01*
X22732758Y-1673974D01*
X22370624Y-1311207D01*
X21782696Y-1067078D01*
X21146097Y-1066523D01*
X20557744Y-1309625D01*
X20192758Y-1673974D01*
X19830624Y-1311207D01*
X19242696Y-1067078D01*
X18606097Y-1066523D01*
X18017744Y-1309625D01*
X17567207Y-1759376D01*
X17481756Y-1965165D01*
X17252242Y-1409700D01*
X16669061Y-825500D01*
X64353672Y-825500D01*
X65468500Y-1940328D01*
G36*
X40875376Y-4022793D02*
X41175000Y-4147208D01*
X41175000Y-5881158D01*
X40996892Y-5797514D01*
X40767000Y-5918181D01*
X40767000Y-7112000D01*
X40787000Y-7112000D01*
X40787000Y-7366000D01*
X40767000Y-7366000D01*
X40767000Y-7386000D01*
X40513000Y-7386000D01*
X40513000Y-7366000D01*
X40493000Y-7366000D01*
X40493000Y-7112000D01*
X40513000Y-7112000D01*
X40513000Y-5918181D01*
X40283108Y-5797514D01*
X40105000Y-5881158D01*
X40105000Y-4042248D01*
X40148256Y-4024375D01*
X40513242Y-3660026D01*
X40875376Y-4022793D01*
X40875376Y-4022793D01*
G37*
X40875376Y-4022793D02*
X41175000Y-4147208D01*
X41175000Y-5881158D01*
X40996892Y-5797514D01*
X40767000Y-5918181D01*
X40767000Y-7112000D01*
X40787000Y-7112000D01*
X40787000Y-7366000D01*
X40767000Y-7366000D01*
X40767000Y-7386000D01*
X40513000Y-7386000D01*
X40513000Y-7366000D01*
X40493000Y-7366000D01*
X40493000Y-7112000D01*
X40513000Y-7112000D01*
X40513000Y-5918181D01*
X40283108Y-5797514D01*
X40105000Y-5881158D01*
X40105000Y-4042248D01*
X40148256Y-4024375D01*
X40513242Y-3660026D01*
X40875376Y-4022793D01*
G36*
X60767304Y-4266922D02*
X61403903Y-4267477D01*
X61495000Y-4229837D01*
X61495000Y-5881158D01*
X61316892Y-5797514D01*
X61087000Y-5918181D01*
X61087000Y-7112000D01*
X61107000Y-7112000D01*
X61107000Y-7366000D01*
X61087000Y-7366000D01*
X61087000Y-7386000D01*
X60833000Y-7386000D01*
X60833000Y-7366000D01*
X60813000Y-7366000D01*
X60813000Y-7112000D01*
X60833000Y-7112000D01*
X60833000Y-5918181D01*
X60603108Y-5797514D01*
X60425000Y-5881158D01*
X60425000Y-4124785D01*
X60767304Y-4266922D01*
X60767304Y-4266922D01*
G37*
X60767304Y-4266922D02*
X61403903Y-4267477D01*
X61495000Y-4229837D01*
X61495000Y-5881158D01*
X61316892Y-5797514D01*
X61087000Y-5918181D01*
X61087000Y-7112000D01*
X61107000Y-7112000D01*
X61107000Y-7366000D01*
X61087000Y-7366000D01*
X61087000Y-7386000D01*
X60833000Y-7386000D01*
X60833000Y-7366000D01*
X60813000Y-7366000D01*
X60813000Y-7112000D01*
X60833000Y-7112000D01*
X60833000Y-5918181D01*
X60603108Y-5797514D01*
X60425000Y-5881158D01*
X60425000Y-4124785D01*
X60767304Y-4266922D01*
G36*
X38335376Y-4022793D02*
X38635000Y-4147208D01*
X38635000Y-5881158D01*
X38456892Y-5797514D01*
X38227000Y-5918181D01*
X38227000Y-7112000D01*
X38247000Y-7112000D01*
X38247000Y-7366000D01*
X38227000Y-7366000D01*
X38227000Y-7386000D01*
X37973000Y-7386000D01*
X37973000Y-7366000D01*
X37953000Y-7366000D01*
X37953000Y-7112000D01*
X37973000Y-7112000D01*
X37973000Y-5918181D01*
X37743108Y-5797514D01*
X37565000Y-5881158D01*
X37565000Y-4042248D01*
X37608256Y-4024375D01*
X37973242Y-3660026D01*
X38335376Y-4022793D01*
X38335376Y-4022793D01*
G37*
X38335376Y-4022793D02*
X38635000Y-4147208D01*
X38635000Y-5881158D01*
X38456892Y-5797514D01*
X38227000Y-5918181D01*
X38227000Y-7112000D01*
X38247000Y-7112000D01*
X38247000Y-7366000D01*
X38227000Y-7366000D01*
X38227000Y-7386000D01*
X37973000Y-7386000D01*
X37973000Y-7366000D01*
X37953000Y-7366000D01*
X37953000Y-7112000D01*
X37973000Y-7112000D01*
X37973000Y-5918181D01*
X37743108Y-5797514D01*
X37565000Y-5881158D01*
X37565000Y-4042248D01*
X37608256Y-4024375D01*
X37973242Y-3660026D01*
X38335376Y-4022793D01*
G36*
X35795376Y-4022793D02*
X36095000Y-4147208D01*
X36095000Y-5881158D01*
X35916892Y-5797514D01*
X35687000Y-5918181D01*
X35687000Y-7112000D01*
X35707000Y-7112000D01*
X35707000Y-7366000D01*
X35687000Y-7366000D01*
X35687000Y-7386000D01*
X35433000Y-7386000D01*
X35433000Y-7366000D01*
X35413000Y-7366000D01*
X35413000Y-7112000D01*
X35433000Y-7112000D01*
X35433000Y-5918181D01*
X35203108Y-5797514D01*
X35025000Y-5881158D01*
X35025000Y-4042248D01*
X35068256Y-4024375D01*
X35433242Y-3660026D01*
X35795376Y-4022793D01*
X35795376Y-4022793D01*
G37*
X35795376Y-4022793D02*
X36095000Y-4147208D01*
X36095000Y-5881158D01*
X35916892Y-5797514D01*
X35687000Y-5918181D01*
X35687000Y-7112000D01*
X35707000Y-7112000D01*
X35707000Y-7366000D01*
X35687000Y-7366000D01*
X35687000Y-7386000D01*
X35433000Y-7386000D01*
X35433000Y-7366000D01*
X35413000Y-7366000D01*
X35413000Y-7112000D01*
X35433000Y-7112000D01*
X35433000Y-5918181D01*
X35203108Y-5797514D01*
X35025000Y-5881158D01*
X35025000Y-4042248D01*
X35068256Y-4024375D01*
X35433242Y-3660026D01*
X35795376Y-4022793D01*
G36*
X48067304Y-4266922D02*
X48703903Y-4267477D01*
X48795000Y-4229837D01*
X48795000Y-5881158D01*
X48616892Y-5797514D01*
X48387000Y-5918181D01*
X48387000Y-7112000D01*
X48407000Y-7112000D01*
X48407000Y-7366000D01*
X48387000Y-7366000D01*
X48387000Y-7386000D01*
X48133000Y-7386000D01*
X48133000Y-7366000D01*
X48113000Y-7366000D01*
X48113000Y-7112000D01*
X48133000Y-7112000D01*
X48133000Y-5918181D01*
X47903108Y-5797514D01*
X47725000Y-5881158D01*
X47725000Y-4124785D01*
X48067304Y-4266922D01*
X48067304Y-4266922D01*
G37*
X48067304Y-4266922D02*
X48703903Y-4267477D01*
X48795000Y-4229837D01*
X48795000Y-5881158D01*
X48616892Y-5797514D01*
X48387000Y-5918181D01*
X48387000Y-7112000D01*
X48407000Y-7112000D01*
X48407000Y-7366000D01*
X48387000Y-7366000D01*
X48387000Y-7386000D01*
X48133000Y-7386000D01*
X48133000Y-7366000D01*
X48113000Y-7366000D01*
X48113000Y-7112000D01*
X48133000Y-7112000D01*
X48133000Y-5918181D01*
X47903108Y-5797514D01*
X47725000Y-5881158D01*
X47725000Y-4124785D01*
X48067304Y-4266922D01*
G36*
X58227304Y-4266922D02*
X58863903Y-4267477D01*
X58955000Y-4229837D01*
X58955000Y-5881158D01*
X58776892Y-5797514D01*
X58547000Y-5918181D01*
X58547000Y-7112000D01*
X58567000Y-7112000D01*
X58567000Y-7366000D01*
X58547000Y-7366000D01*
X58547000Y-7386000D01*
X58293000Y-7386000D01*
X58293000Y-7366000D01*
X58273000Y-7366000D01*
X58273000Y-7112000D01*
X58293000Y-7112000D01*
X58293000Y-5918181D01*
X58063108Y-5797514D01*
X57885000Y-5881158D01*
X57885000Y-4124785D01*
X58227304Y-4266922D01*
X58227304Y-4266922D01*
G37*
X58227304Y-4266922D02*
X58863903Y-4267477D01*
X58955000Y-4229837D01*
X58955000Y-5881158D01*
X58776892Y-5797514D01*
X58547000Y-5918181D01*
X58547000Y-7112000D01*
X58567000Y-7112000D01*
X58567000Y-7366000D01*
X58547000Y-7366000D01*
X58547000Y-7386000D01*
X58293000Y-7386000D01*
X58293000Y-7366000D01*
X58273000Y-7366000D01*
X58273000Y-7112000D01*
X58293000Y-7112000D01*
X58293000Y-5918181D01*
X58063108Y-5797514D01*
X57885000Y-5881158D01*
X57885000Y-4124785D01*
X58227304Y-4266922D01*
G36*
X33255376Y-4022793D02*
X33555000Y-4147208D01*
X33555000Y-5881158D01*
X33376892Y-5797514D01*
X33147000Y-5918181D01*
X33147000Y-7112000D01*
X33167000Y-7112000D01*
X33167000Y-7366000D01*
X33147000Y-7366000D01*
X33147000Y-7386000D01*
X32893000Y-7386000D01*
X32893000Y-7366000D01*
X32873000Y-7366000D01*
X32873000Y-7112000D01*
X32893000Y-7112000D01*
X32893000Y-5918181D01*
X32663108Y-5797514D01*
X32485000Y-5881158D01*
X32485000Y-4042248D01*
X32528256Y-4024375D01*
X32893242Y-3660026D01*
X33255376Y-4022793D01*
X33255376Y-4022793D01*
G37*
X33255376Y-4022793D02*
X33555000Y-4147208D01*
X33555000Y-5881158D01*
X33376892Y-5797514D01*
X33147000Y-5918181D01*
X33147000Y-7112000D01*
X33167000Y-7112000D01*
X33167000Y-7366000D01*
X33147000Y-7366000D01*
X33147000Y-7386000D01*
X32893000Y-7386000D01*
X32893000Y-7366000D01*
X32873000Y-7366000D01*
X32873000Y-7112000D01*
X32893000Y-7112000D01*
X32893000Y-5918181D01*
X32663108Y-5797514D01*
X32485000Y-5881158D01*
X32485000Y-4042248D01*
X32528256Y-4024375D01*
X32893242Y-3660026D01*
X33255376Y-4022793D01*
M02*
