%TF.GenerationSoftware,KiCad,Pcbnew,4.0.7*%
%TF.CreationDate,2018-07-15T20:27:14+02:00*%
%TF.ProjectId,Grape,47726170652E6B696361645F70636200,rev?*%
%TF.FileFunction,Soldermask,Bot*%
%FSLAX46Y46*%
G04 Gerber Fmt 4.6, Leading zero omitted, Abs format (unit mm)*
G04 Created by KiCad (PCBNEW 4.0.7) date 07/15/18 20:27:14*
%MOMM*%
%LPD*%
G01*
G04 APERTURE LIST*
%ADD10C,0.150000*%
%ADD11C,2.133600*%
%ADD12C,3.378200*%
%ADD13C,4.900000*%
%ADD14R,4.900000X4.900000*%
%ADD15R,1.800000X1.800000*%
%ADD16O,1.800000X1.800000*%
%ADD17R,1.800000X1.300000*%
%ADD18O,1.800000X1.300000*%
%ADD19C,2.200000*%
%ADD20C,1.850000*%
%ADD21C,1.000000*%
%ADD22C,1.550000*%
%ADD23O,2.000000X1.300000*%
G04 APERTURE END LIST*
D10*
D11*
X35687000Y-50927000D03*
X38227000Y-50927000D03*
X50927000Y-50927000D03*
X53467000Y-50927000D03*
X56007000Y-50927000D03*
X58547000Y-50927000D03*
X61087000Y-50927000D03*
X63627000Y-50927000D03*
X24003000Y-2667000D03*
X63627000Y-2667000D03*
X61087000Y-2667000D03*
X58547000Y-2667000D03*
X56007000Y-2667000D03*
X53467000Y-2667000D03*
X50927000Y-2667000D03*
X48387000Y-2667000D03*
X45847000Y-2667000D03*
X41783000Y-2667000D03*
X39243000Y-2667000D03*
X36703000Y-2667000D03*
X34163000Y-2667000D03*
X31623000Y-2667000D03*
X29083000Y-2667000D03*
X40767000Y-50927000D03*
X43307000Y-50927000D03*
X26543000Y-2667000D03*
X66306700Y-28115260D03*
X30607000Y-50927000D03*
X63766700Y-23037800D03*
X66306700Y-25577800D03*
X28067000Y-50927000D03*
X33147000Y-50927000D03*
X63766700Y-28115260D03*
X63766700Y-25577800D03*
X18923000Y-2667000D03*
X21463000Y-2667000D03*
X66306700Y-23037800D03*
X45847000Y-50927000D03*
D12*
X15367000Y-2667000D03*
X66167000Y-17907000D03*
X66167000Y-45847000D03*
X14097000Y-50927000D03*
D13*
X5711000Y-45339000D03*
D14*
X11811000Y-45339000D03*
D13*
X8001000Y-50419000D03*
D15*
X63500000Y-12319000D03*
D16*
X63500000Y-9779000D03*
X63500000Y-7239000D03*
D15*
X50800000Y-12319000D03*
D16*
X50800000Y-9779000D03*
X50800000Y-7239000D03*
D15*
X38100000Y-12319000D03*
D16*
X38100000Y-9779000D03*
X38100000Y-7239000D03*
D15*
X41910000Y-40894000D03*
D16*
X41910000Y-43434000D03*
X41910000Y-45974000D03*
D15*
X59690000Y-40894000D03*
D16*
X59690000Y-43434000D03*
X59690000Y-45974000D03*
D15*
X60960000Y-12319000D03*
D16*
X60960000Y-9779000D03*
X60960000Y-7239000D03*
D15*
X48260000Y-12319000D03*
D16*
X48260000Y-9779000D03*
X48260000Y-7239000D03*
D15*
X35560000Y-12319000D03*
D16*
X35560000Y-9779000D03*
X35560000Y-7239000D03*
D15*
X44450000Y-40894000D03*
D16*
X44450000Y-43434000D03*
X44450000Y-45974000D03*
D15*
X57150000Y-40894000D03*
D16*
X57150000Y-43434000D03*
X57150000Y-45974000D03*
D15*
X58420000Y-12319000D03*
D16*
X58420000Y-9779000D03*
X58420000Y-7239000D03*
D15*
X45720000Y-12319000D03*
D16*
X45720000Y-9779000D03*
X45720000Y-7239000D03*
D15*
X33020000Y-12319000D03*
D16*
X33020000Y-9779000D03*
X33020000Y-7239000D03*
D15*
X46990000Y-40894000D03*
D16*
X46990000Y-43434000D03*
X46990000Y-45974000D03*
D15*
X55880000Y-12319000D03*
D16*
X55880000Y-9779000D03*
X55880000Y-7239000D03*
D15*
X43180000Y-12319000D03*
D16*
X43180000Y-9779000D03*
X43180000Y-7239000D03*
D15*
X30480000Y-12319000D03*
D16*
X30480000Y-9779000D03*
X30480000Y-7239000D03*
D15*
X49530000Y-40894000D03*
D16*
X49530000Y-43434000D03*
X49530000Y-45974000D03*
D15*
X53340000Y-12319000D03*
D16*
X53340000Y-9779000D03*
X53340000Y-7239000D03*
D15*
X40640000Y-12319000D03*
D16*
X40640000Y-9779000D03*
X40640000Y-7239000D03*
D15*
X52070000Y-40894000D03*
D16*
X52070000Y-43434000D03*
X52070000Y-45974000D03*
D15*
X54610000Y-40894000D03*
D16*
X54610000Y-43434000D03*
X54610000Y-45974000D03*
D17*
X63500000Y-38989000D03*
D18*
X63500000Y-36989000D03*
X63500000Y-34989000D03*
X63500000Y-32989000D03*
D19*
X16719000Y-48437000D03*
D20*
X17979000Y-50927000D03*
X22479000Y-50927000D03*
D19*
X23729000Y-48437000D03*
D21*
X1829000Y-26313000D03*
X1829000Y-29313000D03*
D22*
X4001000Y-9819000D03*
X4001000Y-14819000D03*
D23*
X1301000Y-8819000D03*
X1301000Y-15819000D03*
M02*
