%TF.GenerationSoftware,KiCad,Pcbnew,4.0.7*%
%TF.CreationDate,2018-06-08T10:12:50+02:00*%
%TF.ProjectId,Grape,47726170652E6B696361645F70636200,rev?*%
%TF.FileFunction,Copper,L2,Bot,Signal*%
%FSLAX46Y46*%
G04 Gerber Fmt 4.6, Leading zero omitted, Abs format (unit mm)*
G04 Created by KiCad (PCBNEW 4.0.7) date 06/08/18 10:12:50*
%MOMM*%
%LPD*%
G01*
G04 APERTURE LIST*
%ADD10C,0.150000*%
%ADD11C,0.127000*%
%ADD12C,1.930400*%
%ADD13C,4.800000*%
%ADD14R,4.800000X4.800000*%
%ADD15R,1.700000X1.700000*%
%ADD16O,1.700000X1.700000*%
%ADD17R,1.700000X1.200000*%
%ADD18O,1.700000X1.200000*%
%ADD19C,2.100000*%
%ADD20C,1.750000*%
%ADD21R,2.950000X4.500000*%
%ADD22C,0.600000*%
%ADD23C,1.450000*%
%ADD24O,1.900000X1.200000*%
%ADD25C,0.685800*%
%ADD26C,0.200000*%
%ADD27C,0.152400*%
%ADD28C,0.300000*%
%ADD29C,0.254000*%
%ADD30C,0.600000*%
%ADD31C,0.800000*%
G04 APERTURE END LIST*
D10*
D11*
X176276000Y-114300000D02*
X112776000Y-114300000D01*
X177800000Y-112776000D02*
X177800000Y-111760000D01*
X177800000Y-112776000D02*
X176276000Y-114300000D01*
X176276000Y-60960000D02*
X112776000Y-60960000D01*
X111760000Y-61976000D02*
X111760000Y-113284000D01*
X111760000Y-113284000D02*
G75*
G03X112776000Y-114300000I1016000J0D01*
G01*
X112776000Y-60960000D02*
G75*
G03X111760000Y-61976000I0J-1016000D01*
G01*
X180340000Y-109220000D02*
X177800000Y-111760000D01*
X180340000Y-76454000D02*
X180340000Y-109220000D01*
X177800000Y-73914000D02*
X180340000Y-76454000D01*
X177800000Y-62484000D02*
X177800000Y-73914000D01*
X176276000Y-60960000D02*
X177800000Y-62484000D01*
D12*
X147320000Y-111760000D03*
X149860000Y-111760000D03*
X162560000Y-111760000D03*
X165100000Y-111760000D03*
X167640000Y-111760000D03*
X170180000Y-111760000D03*
X172720000Y-111760000D03*
X175260000Y-111760000D03*
X135636000Y-63500000D03*
X175260000Y-63500000D03*
X172720000Y-63500000D03*
X170180000Y-63500000D03*
X167640000Y-63500000D03*
X165100000Y-63500000D03*
X162560000Y-63500000D03*
X160020000Y-63500000D03*
X157480000Y-63500000D03*
X153416000Y-63500000D03*
X150876000Y-63500000D03*
X148336000Y-63500000D03*
X145796000Y-63500000D03*
X143256000Y-63500000D03*
X140716000Y-63500000D03*
X152400000Y-111760000D03*
X154940000Y-111760000D03*
X138176000Y-63500000D03*
X177939700Y-88948260D03*
X142240000Y-111760000D03*
X175399700Y-83870800D03*
X177939700Y-86410800D03*
X139700000Y-111760000D03*
X144780000Y-111760000D03*
X175399700Y-88948260D03*
X175399700Y-86410800D03*
X130556000Y-63500000D03*
X133096000Y-63500000D03*
X177939700Y-83870800D03*
X157480000Y-111760000D03*
D13*
X117344000Y-106172000D03*
D14*
X123444000Y-106172000D03*
D13*
X119634000Y-111252000D03*
D15*
X175133000Y-73152000D03*
D16*
X175133000Y-70612000D03*
X175133000Y-68072000D03*
D15*
X162433000Y-73152000D03*
D16*
X162433000Y-70612000D03*
X162433000Y-68072000D03*
D15*
X149733000Y-73152000D03*
D16*
X149733000Y-70612000D03*
X149733000Y-68072000D03*
D15*
X153543000Y-101727000D03*
D16*
X153543000Y-104267000D03*
X153543000Y-106807000D03*
D15*
X171323000Y-101727000D03*
D16*
X171323000Y-104267000D03*
X171323000Y-106807000D03*
D15*
X172593000Y-73152000D03*
D16*
X172593000Y-70612000D03*
X172593000Y-68072000D03*
D15*
X159893000Y-73152000D03*
D16*
X159893000Y-70612000D03*
X159893000Y-68072000D03*
D15*
X147193000Y-73152000D03*
D16*
X147193000Y-70612000D03*
X147193000Y-68072000D03*
D15*
X156083000Y-101727000D03*
D16*
X156083000Y-104267000D03*
X156083000Y-106807000D03*
D15*
X168783000Y-101727000D03*
D16*
X168783000Y-104267000D03*
X168783000Y-106807000D03*
D15*
X170053000Y-73152000D03*
D16*
X170053000Y-70612000D03*
X170053000Y-68072000D03*
D15*
X157353000Y-73152000D03*
D16*
X157353000Y-70612000D03*
X157353000Y-68072000D03*
D15*
X144653000Y-73152000D03*
D16*
X144653000Y-70612000D03*
X144653000Y-68072000D03*
D15*
X158623000Y-101727000D03*
D16*
X158623000Y-104267000D03*
X158623000Y-106807000D03*
D15*
X167513000Y-73152000D03*
D16*
X167513000Y-70612000D03*
X167513000Y-68072000D03*
D15*
X154813000Y-73152000D03*
D16*
X154813000Y-70612000D03*
X154813000Y-68072000D03*
D15*
X142113000Y-73152000D03*
D16*
X142113000Y-70612000D03*
X142113000Y-68072000D03*
D15*
X161163000Y-101727000D03*
D16*
X161163000Y-104267000D03*
X161163000Y-106807000D03*
D15*
X164973000Y-73152000D03*
D16*
X164973000Y-70612000D03*
X164973000Y-68072000D03*
D15*
X152273000Y-73152000D03*
D16*
X152273000Y-70612000D03*
X152273000Y-68072000D03*
D15*
X163703000Y-101727000D03*
D16*
X163703000Y-104267000D03*
X163703000Y-106807000D03*
D15*
X166243000Y-101727000D03*
D16*
X166243000Y-104267000D03*
X166243000Y-106807000D03*
D17*
X175133000Y-99822000D03*
D18*
X175133000Y-97822000D03*
X175133000Y-95822000D03*
X175133000Y-93822000D03*
D19*
X128352000Y-109270000D03*
D20*
X129612000Y-111760000D03*
X134112000Y-111760000D03*
D19*
X135362000Y-109270000D03*
D21*
X137668000Y-92456000D03*
D22*
X137068000Y-91256000D03*
X137068000Y-92056000D03*
X138268000Y-92056000D03*
X138268000Y-91256000D03*
X137068000Y-93656000D03*
X137068000Y-92856000D03*
X138268000Y-92856000D03*
X138268000Y-93656000D03*
X124206000Y-87249000D03*
X131953000Y-109601000D03*
X140652500Y-109156500D03*
X122110500Y-70675500D03*
X166179500Y-79883000D03*
X151892000Y-100076000D03*
X178181000Y-94742000D03*
X178181000Y-99250500D03*
X178181000Y-102997000D03*
X114554000Y-109537500D03*
X134683500Y-96837500D03*
X136398000Y-96837500D03*
X144780000Y-98742500D03*
D23*
X115634000Y-70652000D03*
X115634000Y-75652000D03*
D24*
X112934000Y-69652000D03*
X112934000Y-76652000D03*
D25*
X117983000Y-99441000D03*
X128270000Y-84455000D03*
X127254000Y-82042000D03*
X126301500Y-77724000D03*
X154940000Y-90678000D03*
X150495000Y-90360500D03*
X122174000Y-76200000D03*
X124587000Y-77724000D03*
X167894000Y-84455000D03*
X168021000Y-81915000D03*
X132842000Y-81661000D03*
X127635000Y-75057000D03*
X123825000Y-76454000D03*
X114427000Y-78041500D03*
X114808000Y-69088000D03*
X135636000Y-67500500D03*
X134493000Y-69977000D03*
X132270500Y-70485000D03*
X141414500Y-78422500D03*
X159512000Y-87249000D03*
X138938000Y-85026500D03*
X140398500Y-101282500D03*
X128778000Y-93345000D03*
X135509000Y-89154000D03*
X141859000Y-89027000D03*
X123444000Y-85217000D03*
X122301000Y-82169000D03*
X122110500Y-79629000D03*
X128651000Y-80645000D03*
X132715000Y-90551000D03*
X131191000Y-93726000D03*
X133159500Y-67310000D03*
X141605000Y-77406500D03*
X151574500Y-77914500D03*
X158496000Y-84709000D03*
X166751000Y-93345000D03*
X164592000Y-93980000D03*
X159639000Y-84899500D03*
X153416000Y-75057000D03*
X141097000Y-76009500D03*
X133667500Y-69151500D03*
X132207000Y-68707000D03*
X131635500Y-67310000D03*
X173863000Y-84836000D03*
X164909500Y-84201000D03*
X164401500Y-83502500D03*
X157607000Y-79502000D03*
X156337000Y-78994000D03*
X155067000Y-78867000D03*
X153670000Y-78740000D03*
X152400000Y-78740000D03*
X150876000Y-78867000D03*
X169672000Y-85598000D03*
X164592000Y-86741000D03*
X149606000Y-79121000D03*
X165163500Y-87439500D03*
X148082000Y-78740000D03*
X152527000Y-88519000D03*
X146431000Y-78740000D03*
X147828000Y-93980000D03*
X132080000Y-86614000D03*
X128651000Y-73279000D03*
X130175000Y-74930000D03*
X164211000Y-89535000D03*
X168656000Y-77216000D03*
X155067000Y-91821000D03*
X164719000Y-88773000D03*
X167386000Y-77216000D03*
X153416000Y-91440000D03*
X131445000Y-69215000D03*
X131318000Y-79121000D03*
X122809000Y-80772000D03*
X137668000Y-82423000D03*
X142748000Y-76517500D03*
X134048500Y-76581000D03*
X128905000Y-72453500D03*
X142049500Y-75946000D03*
X147701000Y-87630000D03*
X142113000Y-91821000D03*
D26*
X147320000Y-111760000D02*
X147320000Y-110998000D01*
X147320000Y-110998000D02*
X143637000Y-107315000D01*
X143637000Y-107315000D02*
X131064000Y-107315000D01*
X131064000Y-107315000D02*
X126492000Y-102743000D01*
X126492000Y-102743000D02*
X120523000Y-102743000D01*
X120523000Y-102743000D02*
X117983000Y-100203000D01*
X117983000Y-100203000D02*
X117983000Y-99441000D01*
X128270000Y-84455000D02*
X127254000Y-83439000D01*
X127254000Y-83439000D02*
X127254000Y-82042000D01*
D27*
X154940000Y-90678000D02*
X154622500Y-90360500D01*
X154622500Y-90360500D02*
X150495000Y-90360500D01*
D26*
X122174000Y-76200000D02*
X123698000Y-77724000D01*
X123698000Y-77724000D02*
X124587000Y-77724000D01*
X167894000Y-84455000D02*
X168021000Y-84328000D01*
X168021000Y-84328000D02*
X168021000Y-81915000D01*
X129921000Y-77343000D02*
X127635000Y-75057000D01*
X129921000Y-79756000D02*
X129921000Y-77343000D01*
X130810000Y-80645000D02*
X129921000Y-79756000D01*
X131826000Y-80645000D02*
X130810000Y-80645000D01*
X132842000Y-81661000D02*
X131826000Y-80645000D01*
X127508000Y-74930000D02*
X127635000Y-75057000D01*
X125349000Y-74930000D02*
X127508000Y-74930000D01*
X123825000Y-76454000D02*
X125349000Y-74930000D01*
D28*
X114871500Y-77597000D02*
X114427000Y-78041500D01*
X114871500Y-76644500D02*
X114871500Y-77597000D01*
X114300000Y-76073000D02*
X114871500Y-76644500D01*
X114300000Y-70294500D02*
X114300000Y-76073000D01*
X114490500Y-70104000D02*
X114300000Y-70294500D01*
X114490500Y-69405500D02*
X114490500Y-70104000D01*
X114808000Y-69088000D02*
X114490500Y-69405500D01*
D26*
X135636000Y-68834000D02*
X135636000Y-67500500D01*
X134493000Y-69977000D02*
X135636000Y-68834000D01*
X132143500Y-70612000D02*
X132270500Y-70485000D01*
X132143500Y-76771500D02*
X132143500Y-70612000D01*
X133604000Y-78232000D02*
X132143500Y-76771500D01*
X141224000Y-78232000D02*
X133604000Y-78232000D01*
X141414500Y-78422500D02*
X141224000Y-78232000D01*
X149479000Y-89408000D02*
X152717500Y-89408000D01*
X159448500Y-87312500D02*
X159512000Y-87249000D01*
X154813000Y-87312500D02*
X159448500Y-87312500D01*
X152717500Y-89408000D02*
X154813000Y-87312500D01*
X138938000Y-85026500D02*
X139763500Y-85852000D01*
X139763500Y-85852000D02*
X148145500Y-85852000D01*
X148145500Y-85852000D02*
X149479000Y-87185500D01*
X149479000Y-87185500D02*
X149479000Y-89408000D01*
X149479000Y-89408000D02*
X149479000Y-93853000D01*
X149479000Y-93853000D02*
X148209000Y-95123000D01*
X148209000Y-95123000D02*
X146494500Y-95123000D01*
X146494500Y-95123000D02*
X140462000Y-101155500D01*
X140462000Y-101155500D02*
X140398500Y-101282500D01*
D29*
X144780000Y-111760000D02*
X144780000Y-112014000D01*
X144780000Y-112014000D02*
X143446500Y-113347500D01*
X131199500Y-113347500D02*
X129612000Y-111760000D01*
X143446500Y-113347500D02*
X131199500Y-113347500D01*
D30*
X157480000Y-111760000D02*
X157480000Y-110617000D01*
X157480000Y-110617000D02*
X156400500Y-109537500D01*
X156400500Y-109537500D02*
X147320000Y-109537500D01*
X147320000Y-109537500D02*
X142621000Y-104838500D01*
X142621000Y-104838500D02*
X138493500Y-104838500D01*
X138493500Y-104838500D02*
X128778000Y-95123000D01*
X128778000Y-95123000D02*
X128778000Y-93345000D01*
D26*
X142621000Y-104838500D02*
X138493500Y-104838500D01*
X147320000Y-109537500D02*
X142621000Y-104838500D01*
X156400500Y-109537500D02*
X147320000Y-109537500D01*
X157480000Y-110617000D02*
X156400500Y-109537500D01*
X141732000Y-89154000D02*
X135509000Y-89154000D01*
X141859000Y-89027000D02*
X141732000Y-89154000D01*
D27*
X122301000Y-82550000D02*
X122301000Y-82169000D01*
X123444000Y-85217000D02*
X122301000Y-84074000D01*
X122301000Y-82550000D02*
X122301000Y-84074000D01*
X122110500Y-79629000D02*
X122174000Y-79692500D01*
X122174000Y-79692500D02*
X127698500Y-79692500D01*
X127698500Y-79692500D02*
X128651000Y-80645000D01*
D31*
X144653000Y-70612000D02*
X142113000Y-70612000D01*
X147193000Y-70612000D02*
X144653000Y-70612000D01*
X149733000Y-70612000D02*
X147193000Y-70612000D01*
X152273000Y-70612000D02*
X149733000Y-70612000D01*
X157353000Y-70612000D02*
X154813000Y-70612000D01*
X154813000Y-70612000D02*
X152273000Y-70612000D01*
X159893000Y-70612000D02*
X157353000Y-70612000D01*
X162433000Y-70612000D02*
X159893000Y-70612000D01*
X164973000Y-70612000D02*
X162433000Y-70612000D01*
X167513000Y-70612000D02*
X164973000Y-70612000D01*
X170053000Y-70612000D02*
X167513000Y-70612000D01*
X172593000Y-70612000D02*
X170053000Y-70612000D01*
X175133000Y-70612000D02*
X172593000Y-70612000D01*
X153543000Y-104267000D02*
X156083000Y-104267000D01*
X156083000Y-104267000D02*
X158623000Y-104267000D01*
X158623000Y-104267000D02*
X161163000Y-104267000D01*
X161163000Y-104267000D02*
X163703000Y-104267000D01*
X163703000Y-104267000D02*
X166243000Y-104267000D01*
X166243000Y-104267000D02*
X168783000Y-104267000D01*
X171323000Y-104267000D02*
X168783000Y-104267000D01*
D26*
X131318000Y-91948000D02*
X132715000Y-90551000D01*
X131318000Y-93599000D02*
X131318000Y-91948000D01*
X131191000Y-93726000D02*
X131318000Y-93599000D01*
X132969000Y-67500500D02*
X133159500Y-67310000D01*
X132969000Y-76771500D02*
X132969000Y-67500500D01*
X133413500Y-77216000D02*
X132969000Y-76771500D01*
X141414500Y-77216000D02*
X133413500Y-77216000D01*
X141605000Y-77406500D02*
X141414500Y-77216000D01*
X151574500Y-79629000D02*
X151574500Y-77914500D01*
X151892000Y-79946500D02*
X151574500Y-79629000D01*
X153733500Y-79946500D02*
X151892000Y-79946500D01*
X158496000Y-84709000D02*
X153733500Y-79946500D01*
X166624000Y-93472000D02*
X166751000Y-93345000D01*
X165100000Y-93472000D02*
X166624000Y-93472000D01*
X164592000Y-93980000D02*
X165100000Y-93472000D01*
X153035000Y-79121000D02*
X153035000Y-76327000D01*
X159639000Y-84899500D02*
X154114500Y-79375000D01*
X154114500Y-79375000D02*
X153289000Y-79375000D01*
X153289000Y-79375000D02*
X153035000Y-79121000D01*
X141097000Y-76009500D02*
X140398500Y-75311000D01*
X140398500Y-75311000D02*
X134556500Y-75311000D01*
X134556500Y-75311000D02*
X133667500Y-74422000D01*
X133667500Y-74422000D02*
X133667500Y-69151500D01*
X132207000Y-68707000D02*
X131635500Y-68135500D01*
X131635500Y-68135500D02*
X131635500Y-67310000D01*
X153416000Y-75946000D02*
X153416000Y-75057000D01*
X153035000Y-76327000D02*
X153416000Y-75946000D01*
D27*
X170053000Y-73152000D02*
X170053000Y-83121500D01*
X171767500Y-84836000D02*
X173863000Y-84836000D01*
X170053000Y-83121500D02*
X171767500Y-84836000D01*
X164909500Y-84201000D02*
X166687500Y-82423000D01*
X166687500Y-82423000D02*
X166687500Y-81026000D01*
X166687500Y-81026000D02*
X166878000Y-80835500D01*
X166878000Y-80835500D02*
X166878000Y-77724000D01*
X166878000Y-77724000D02*
X166624000Y-77470000D01*
X166624000Y-77470000D02*
X166624000Y-75946000D01*
X166624000Y-75946000D02*
X167513000Y-75057000D01*
X167513000Y-75057000D02*
X167513000Y-73152000D01*
X164401500Y-83502500D02*
X165925500Y-81978500D01*
X165925500Y-81978500D02*
X165925500Y-80962500D01*
X165925500Y-80962500D02*
X165354000Y-80391000D01*
X165354000Y-80391000D02*
X165354000Y-77660500D01*
X165354000Y-77660500D02*
X164592000Y-76898500D01*
X164592000Y-76898500D02*
X164592000Y-73533000D01*
X164592000Y-73533000D02*
X164973000Y-73152000D01*
D26*
X162433000Y-74676000D02*
X162433000Y-73152000D01*
X157607000Y-79502000D02*
X162433000Y-74676000D01*
X156337000Y-78994000D02*
X159893000Y-75438000D01*
X159893000Y-75438000D02*
X159893000Y-73152000D01*
X155067000Y-78867000D02*
X156845000Y-77089000D01*
X156845000Y-77089000D02*
X156845000Y-73660000D01*
X156845000Y-73660000D02*
X157353000Y-73152000D01*
X153670000Y-78740000D02*
X154686000Y-77724000D01*
X154686000Y-77724000D02*
X154686000Y-73279000D01*
X154686000Y-73279000D02*
X154813000Y-73152000D01*
X152400000Y-78740000D02*
X152273000Y-78613000D01*
X152273000Y-78613000D02*
X152273000Y-73152000D01*
X150876000Y-78867000D02*
X150876000Y-75057000D01*
X150876000Y-75057000D02*
X149733000Y-73914000D01*
X149733000Y-73914000D02*
X149733000Y-73152000D01*
D27*
X177939700Y-86410800D02*
X177596800Y-86410800D01*
X177596800Y-86410800D02*
X176339500Y-85153500D01*
X176339500Y-85153500D02*
X174752000Y-85153500D01*
X174752000Y-85153500D02*
X174307500Y-85598000D01*
X174307500Y-85598000D02*
X169672000Y-85598000D01*
X164592000Y-86741000D02*
X163766500Y-87566500D01*
X163766500Y-87566500D02*
X162623500Y-87566500D01*
X162623500Y-87566500D02*
X160655000Y-85598000D01*
X160655000Y-85598000D02*
X155194000Y-85598000D01*
X155194000Y-85598000D02*
X149606000Y-80010000D01*
X149606000Y-80010000D02*
X149606000Y-79121000D01*
D26*
X149606000Y-79121000D02*
X149606000Y-75565000D01*
X149606000Y-75565000D02*
X147193000Y-73152000D01*
X147193000Y-73152000D02*
X147193000Y-73152000D01*
D27*
X148082000Y-79629000D02*
X148082000Y-78740000D01*
X154495500Y-86042500D02*
X148082000Y-79629000D01*
X160147000Y-86042500D02*
X154495500Y-86042500D01*
X162242500Y-88138000D02*
X160147000Y-86042500D01*
X164465000Y-88138000D02*
X162242500Y-88138000D01*
X165163500Y-87439500D02*
X164465000Y-88138000D01*
D26*
X148082000Y-78740000D02*
X144653000Y-75311000D01*
X144653000Y-75311000D02*
X144653000Y-73152000D01*
X175399700Y-86410800D02*
X169621200Y-86410800D01*
X154432000Y-86614000D02*
X152527000Y-88519000D01*
X159893000Y-86614000D02*
X154432000Y-86614000D01*
X163830000Y-90551000D02*
X159893000Y-86614000D01*
X165481000Y-90551000D02*
X163830000Y-90551000D01*
X169621200Y-86410800D02*
X165481000Y-90551000D01*
X142113000Y-74422000D02*
X142113000Y-73152000D01*
X146431000Y-78740000D02*
X142113000Y-74422000D01*
X142113000Y-73152000D02*
X141351000Y-73152000D01*
X141351000Y-73152000D02*
X140716000Y-72517000D01*
X140716000Y-72517000D02*
X140716000Y-63500000D01*
X148463000Y-93980000D02*
X147828000Y-93980000D01*
X148844000Y-93599000D02*
X148463000Y-93980000D01*
X148844000Y-87376000D02*
X148844000Y-93599000D01*
X148082000Y-86614000D02*
X148844000Y-87376000D01*
X132080000Y-86614000D02*
X148082000Y-86614000D01*
X128651000Y-73406000D02*
X128651000Y-73279000D01*
X130175000Y-74930000D02*
X128651000Y-73406000D01*
X165227000Y-89535000D02*
X164211000Y-89535000D01*
X168656000Y-86106000D02*
X165227000Y-89535000D01*
X168656000Y-85598000D02*
X168656000Y-86106000D01*
X168910000Y-85344000D02*
X168656000Y-85598000D01*
X168910000Y-81280000D02*
X168910000Y-85344000D01*
X168656000Y-81026000D02*
X168910000Y-81280000D01*
X168656000Y-77216000D02*
X168656000Y-81026000D01*
X171323000Y-101727000D02*
X171323000Y-99695000D01*
X155067000Y-91948000D02*
X155067000Y-91821000D01*
X159258000Y-96139000D02*
X155067000Y-91948000D01*
X159258000Y-96139000D02*
X159258000Y-96139000D01*
X160909000Y-97790000D02*
X159258000Y-96139000D01*
X168910000Y-97790000D02*
X160909000Y-97790000D01*
X170434000Y-99314000D02*
X168910000Y-97790000D01*
X170942000Y-99314000D02*
X170434000Y-99314000D01*
X171323000Y-99695000D02*
X170942000Y-99314000D01*
X167386000Y-86106000D02*
X164719000Y-88773000D01*
X167386000Y-85471000D02*
X167386000Y-86106000D01*
X167132000Y-85217000D02*
X167386000Y-85471000D01*
X167132000Y-81534000D02*
X167132000Y-85217000D01*
X167386000Y-81280000D02*
X167132000Y-81534000D01*
X167386000Y-77216000D02*
X167386000Y-81280000D01*
X168783000Y-101727000D02*
X168783000Y-100203000D01*
X160782000Y-98806000D02*
X153416000Y-91440000D01*
X167386000Y-98806000D02*
X160782000Y-98806000D01*
X168783000Y-100203000D02*
X167386000Y-98806000D01*
X130937000Y-69723000D02*
X131445000Y-69215000D01*
X130937000Y-78740000D02*
X130937000Y-69723000D01*
X131318000Y-79121000D02*
X130937000Y-78740000D01*
X121666000Y-81915000D02*
X122809000Y-80772000D01*
X121666000Y-84645500D02*
X121666000Y-81915000D01*
X122872500Y-85852000D02*
X121666000Y-84645500D01*
X131445000Y-85852000D02*
X122872500Y-85852000D01*
X133350000Y-83947000D02*
X131445000Y-85852000D01*
X136144000Y-83947000D02*
X133350000Y-83947000D01*
X137668000Y-82423000D02*
X136144000Y-83947000D01*
D27*
X142748000Y-76517500D02*
X142430500Y-76835000D01*
X142430500Y-76835000D02*
X141922500Y-76835000D01*
X141922500Y-76835000D02*
X141732000Y-76644500D01*
X141732000Y-76644500D02*
X133985000Y-76644500D01*
X133985000Y-76644500D02*
X134048500Y-76581000D01*
X128905000Y-68389500D02*
X128905000Y-72453500D01*
X130619500Y-66675000D02*
X128905000Y-68389500D01*
X136461500Y-66675000D02*
X130619500Y-66675000D01*
X138430000Y-68643500D02*
X136461500Y-66675000D01*
X138430000Y-72326500D02*
X138430000Y-68643500D01*
X142049500Y-75946000D02*
X138430000Y-72326500D01*
D26*
X147701000Y-87630000D02*
X147574000Y-87757000D01*
X147574000Y-87757000D02*
X144145000Y-87757000D01*
X144145000Y-87757000D02*
X142494000Y-89408000D01*
X142494000Y-89408000D02*
X142494000Y-91440000D01*
X142494000Y-91440000D02*
X142113000Y-91821000D01*
D29*
G36*
X125116955Y-62239411D02*
X124777887Y-63055978D01*
X124777115Y-63940143D01*
X125114758Y-64757300D01*
X125739411Y-65383045D01*
X126555978Y-65722113D01*
X127440143Y-65722885D01*
X128257300Y-65385242D01*
X128883045Y-64760589D01*
X129114816Y-64202422D01*
X129198625Y-64405256D01*
X129648376Y-64855793D01*
X130236304Y-65099922D01*
X130872903Y-65100477D01*
X131461256Y-64857375D01*
X131826242Y-64493026D01*
X132188376Y-64855793D01*
X132776304Y-65099922D01*
X133412903Y-65100477D01*
X134001256Y-64857375D01*
X134366242Y-64493026D01*
X134728376Y-64855793D01*
X135316304Y-65099922D01*
X135952903Y-65100477D01*
X136541256Y-64857375D01*
X136771682Y-64627350D01*
X137228255Y-64627350D01*
X137322654Y-64890596D01*
X137919769Y-65111305D01*
X138555893Y-65086707D01*
X139029346Y-64890596D01*
X139123745Y-64627350D01*
X138176000Y-63679605D01*
X137228255Y-64627350D01*
X136771682Y-64627350D01*
X136977250Y-64422141D01*
X137048650Y-64447745D01*
X137996395Y-63500000D01*
X137048650Y-62552255D01*
X136976712Y-62578052D01*
X136771669Y-62372650D01*
X137228255Y-62372650D01*
X138176000Y-63320395D01*
X139123745Y-62372650D01*
X139029346Y-62109404D01*
X138432231Y-61888695D01*
X137796107Y-61913293D01*
X137322654Y-62109404D01*
X137228255Y-62372650D01*
X136771669Y-62372650D01*
X136543624Y-62144207D01*
X135955696Y-61900078D01*
X135319097Y-61899523D01*
X134730744Y-62142625D01*
X134365758Y-62506974D01*
X134003624Y-62144207D01*
X133415696Y-61900078D01*
X132779097Y-61899523D01*
X132190744Y-62142625D01*
X131825758Y-62506974D01*
X131463624Y-62144207D01*
X130875696Y-61900078D01*
X130239097Y-61899523D01*
X129650744Y-62142625D01*
X129200207Y-62592376D01*
X129114756Y-62798165D01*
X128885242Y-62242700D01*
X128302061Y-61658500D01*
X175986672Y-61658500D01*
X177101500Y-62773328D01*
X177101500Y-73914000D01*
X177154670Y-74181305D01*
X177306086Y-74407914D01*
X179641500Y-76743328D01*
X179641500Y-77438882D01*
X179060589Y-76856955D01*
X178244022Y-76517887D01*
X177359857Y-76517115D01*
X176542700Y-76854758D01*
X175916955Y-77479411D01*
X175577887Y-78295978D01*
X175577115Y-79180143D01*
X175914758Y-79997300D01*
X176539411Y-80623045D01*
X177355978Y-80962113D01*
X178240143Y-80962885D01*
X179057300Y-80625242D01*
X179641500Y-80042061D01*
X179641500Y-105378882D01*
X179060589Y-104796955D01*
X178244022Y-104457887D01*
X177359857Y-104457115D01*
X176542700Y-104794758D01*
X175916955Y-105419411D01*
X175577887Y-106235978D01*
X175577115Y-107120143D01*
X175914758Y-107937300D01*
X176539411Y-108563045D01*
X177355978Y-108902113D01*
X178240143Y-108902885D01*
X179057300Y-108565242D01*
X179641500Y-107982061D01*
X179641500Y-108930672D01*
X177306086Y-111266086D01*
X177154670Y-111492695D01*
X177108980Y-111722395D01*
X177101500Y-111760000D01*
X177101500Y-112486672D01*
X175986672Y-113601500D01*
X144270130Y-113601500D01*
X144511664Y-113359967D01*
X145096903Y-113360477D01*
X145685256Y-113117375D01*
X146050242Y-112753026D01*
X146412376Y-113115793D01*
X147000304Y-113359922D01*
X147636903Y-113360477D01*
X148225256Y-113117375D01*
X148590242Y-112753026D01*
X148952376Y-113115793D01*
X149540304Y-113359922D01*
X150176903Y-113360477D01*
X150765256Y-113117375D01*
X150995682Y-112887350D01*
X151452255Y-112887350D01*
X151546654Y-113150596D01*
X152143769Y-113371305D01*
X152779893Y-113346707D01*
X153253346Y-113150596D01*
X153347745Y-112887350D01*
X153992255Y-112887350D01*
X154086654Y-113150596D01*
X154683769Y-113371305D01*
X155319893Y-113346707D01*
X155793346Y-113150596D01*
X155887745Y-112887350D01*
X154940000Y-111939605D01*
X153992255Y-112887350D01*
X153347745Y-112887350D01*
X152400000Y-111939605D01*
X151452255Y-112887350D01*
X150995682Y-112887350D01*
X151201250Y-112682141D01*
X151272650Y-112707745D01*
X152220395Y-111760000D01*
X152579605Y-111760000D01*
X153527350Y-112707745D01*
X153670000Y-112656591D01*
X153812650Y-112707745D01*
X154760395Y-111760000D01*
X153812650Y-110812255D01*
X153670000Y-110863409D01*
X153527350Y-110812255D01*
X152579605Y-111760000D01*
X152220395Y-111760000D01*
X151272650Y-110812255D01*
X151200712Y-110838052D01*
X150835798Y-110472500D01*
X151509684Y-110472500D01*
X151452255Y-110632650D01*
X152400000Y-111580395D01*
X153347745Y-110632650D01*
X153290316Y-110472500D01*
X154049684Y-110472500D01*
X153992255Y-110632650D01*
X154940000Y-111580395D01*
X155887745Y-110632650D01*
X155830316Y-110472500D01*
X156013210Y-110472500D01*
X156258764Y-110718054D01*
X156138750Y-110837859D01*
X156067350Y-110812255D01*
X155119605Y-111760000D01*
X156067350Y-112707745D01*
X156139288Y-112681948D01*
X156572376Y-113115793D01*
X157160304Y-113359922D01*
X157796903Y-113360477D01*
X158385256Y-113117375D01*
X158835793Y-112667624D01*
X159079922Y-112079696D01*
X159079924Y-112076903D01*
X160959523Y-112076903D01*
X161202625Y-112665256D01*
X161652376Y-113115793D01*
X162240304Y-113359922D01*
X162876903Y-113360477D01*
X163465256Y-113117375D01*
X163830242Y-112753026D01*
X164192376Y-113115793D01*
X164780304Y-113359922D01*
X165416903Y-113360477D01*
X166005256Y-113117375D01*
X166370242Y-112753026D01*
X166732376Y-113115793D01*
X167320304Y-113359922D01*
X167956903Y-113360477D01*
X168545256Y-113117375D01*
X168910242Y-112753026D01*
X169272376Y-113115793D01*
X169860304Y-113359922D01*
X170496903Y-113360477D01*
X171085256Y-113117375D01*
X171450242Y-112753026D01*
X171812376Y-113115793D01*
X172400304Y-113359922D01*
X173036903Y-113360477D01*
X173625256Y-113117375D01*
X173990242Y-112753026D01*
X174352376Y-113115793D01*
X174940304Y-113359922D01*
X175576903Y-113360477D01*
X176165256Y-113117375D01*
X176615793Y-112667624D01*
X176859922Y-112079696D01*
X176860477Y-111443097D01*
X176617375Y-110854744D01*
X176167624Y-110404207D01*
X175579696Y-110160078D01*
X174943097Y-110159523D01*
X174354744Y-110402625D01*
X173989758Y-110766974D01*
X173627624Y-110404207D01*
X173039696Y-110160078D01*
X172403097Y-110159523D01*
X171814744Y-110402625D01*
X171449758Y-110766974D01*
X171087624Y-110404207D01*
X170499696Y-110160078D01*
X169863097Y-110159523D01*
X169274744Y-110402625D01*
X168909758Y-110766974D01*
X168547624Y-110404207D01*
X167959696Y-110160078D01*
X167323097Y-110159523D01*
X166734744Y-110402625D01*
X166369758Y-110766974D01*
X166007624Y-110404207D01*
X165419696Y-110160078D01*
X164783097Y-110159523D01*
X164194744Y-110402625D01*
X163829758Y-110766974D01*
X163467624Y-110404207D01*
X162879696Y-110160078D01*
X162243097Y-110159523D01*
X161654744Y-110402625D01*
X161204207Y-110852376D01*
X160960078Y-111440304D01*
X160959523Y-112076903D01*
X159079924Y-112076903D01*
X159080477Y-111443097D01*
X158837375Y-110854744D01*
X158387624Y-110404207D01*
X158371327Y-110397440D01*
X158344867Y-110264421D01*
X158343827Y-110259191D01*
X158141145Y-109955855D01*
X157061645Y-108876355D01*
X156758309Y-108673673D01*
X156400500Y-108602500D01*
X147707290Y-108602500D01*
X146268680Y-107163890D01*
X152101524Y-107163890D01*
X152271355Y-107573924D01*
X152661642Y-108002183D01*
X153186108Y-108248486D01*
X153416000Y-108127819D01*
X153416000Y-106934000D01*
X153670000Y-106934000D01*
X153670000Y-108127819D01*
X153899892Y-108248486D01*
X154424358Y-108002183D01*
X154813000Y-107575729D01*
X155201642Y-108002183D01*
X155726108Y-108248486D01*
X155956000Y-108127819D01*
X155956000Y-106934000D01*
X156210000Y-106934000D01*
X156210000Y-108127819D01*
X156439892Y-108248486D01*
X156964358Y-108002183D01*
X157353000Y-107575729D01*
X157741642Y-108002183D01*
X158266108Y-108248486D01*
X158496000Y-108127819D01*
X158496000Y-106934000D01*
X158750000Y-106934000D01*
X158750000Y-108127819D01*
X158979892Y-108248486D01*
X159504358Y-108002183D01*
X159893000Y-107575729D01*
X160281642Y-108002183D01*
X160806108Y-108248486D01*
X161036000Y-108127819D01*
X161036000Y-106934000D01*
X161290000Y-106934000D01*
X161290000Y-108127819D01*
X161519892Y-108248486D01*
X162044358Y-108002183D01*
X162433000Y-107575729D01*
X162821642Y-108002183D01*
X163346108Y-108248486D01*
X163576000Y-108127819D01*
X163576000Y-106934000D01*
X163830000Y-106934000D01*
X163830000Y-108127819D01*
X164059892Y-108248486D01*
X164584358Y-108002183D01*
X164973000Y-107575729D01*
X165361642Y-108002183D01*
X165886108Y-108248486D01*
X166116000Y-108127819D01*
X166116000Y-106934000D01*
X166370000Y-106934000D01*
X166370000Y-108127819D01*
X166599892Y-108248486D01*
X167124358Y-108002183D01*
X167513000Y-107575729D01*
X167901642Y-108002183D01*
X168426108Y-108248486D01*
X168656000Y-108127819D01*
X168656000Y-106934000D01*
X168910000Y-106934000D01*
X168910000Y-108127819D01*
X169139892Y-108248486D01*
X169664358Y-108002183D01*
X170053000Y-107575729D01*
X170441642Y-108002183D01*
X170966108Y-108248486D01*
X171196000Y-108127819D01*
X171196000Y-106934000D01*
X171450000Y-106934000D01*
X171450000Y-108127819D01*
X171679892Y-108248486D01*
X172204358Y-108002183D01*
X172594645Y-107573924D01*
X172764476Y-107163890D01*
X172643155Y-106934000D01*
X171450000Y-106934000D01*
X171196000Y-106934000D01*
X168910000Y-106934000D01*
X168656000Y-106934000D01*
X166370000Y-106934000D01*
X166116000Y-106934000D01*
X163830000Y-106934000D01*
X163576000Y-106934000D01*
X161290000Y-106934000D01*
X161036000Y-106934000D01*
X158750000Y-106934000D01*
X158496000Y-106934000D01*
X156210000Y-106934000D01*
X155956000Y-106934000D01*
X153670000Y-106934000D01*
X153416000Y-106934000D01*
X152222845Y-106934000D01*
X152101524Y-107163890D01*
X146268680Y-107163890D01*
X143371790Y-104267000D01*
X152028907Y-104267000D01*
X152141946Y-104835285D01*
X152463853Y-105317054D01*
X152804553Y-105544702D01*
X152661642Y-105611817D01*
X152271355Y-106040076D01*
X152101524Y-106450110D01*
X152222845Y-106680000D01*
X153416000Y-106680000D01*
X153416000Y-106660000D01*
X153670000Y-106660000D01*
X153670000Y-106680000D01*
X155956000Y-106680000D01*
X155956000Y-106660000D01*
X156210000Y-106660000D01*
X156210000Y-106680000D01*
X158496000Y-106680000D01*
X158496000Y-106660000D01*
X158750000Y-106660000D01*
X158750000Y-106680000D01*
X161036000Y-106680000D01*
X161036000Y-106660000D01*
X161290000Y-106660000D01*
X161290000Y-106680000D01*
X163576000Y-106680000D01*
X163576000Y-106660000D01*
X163830000Y-106660000D01*
X163830000Y-106680000D01*
X166116000Y-106680000D01*
X166116000Y-106660000D01*
X166370000Y-106660000D01*
X166370000Y-106680000D01*
X168656000Y-106680000D01*
X168656000Y-106660000D01*
X168910000Y-106660000D01*
X168910000Y-106680000D01*
X171196000Y-106680000D01*
X171196000Y-106660000D01*
X171450000Y-106660000D01*
X171450000Y-106680000D01*
X172643155Y-106680000D01*
X172764476Y-106450110D01*
X172594645Y-106040076D01*
X172204358Y-105611817D01*
X172061447Y-105544702D01*
X172402147Y-105317054D01*
X172724054Y-104835285D01*
X172837093Y-104267000D01*
X172724054Y-103698715D01*
X172402147Y-103216946D01*
X172360548Y-103189150D01*
X172408317Y-103180162D01*
X172624441Y-103041090D01*
X172769431Y-102828890D01*
X172820440Y-102577000D01*
X172820440Y-100877000D01*
X172776162Y-100641683D01*
X172637090Y-100425559D01*
X172424890Y-100280569D01*
X172173000Y-100229560D01*
X172058000Y-100229560D01*
X172058000Y-100107750D01*
X173648000Y-100107750D01*
X173648000Y-100548309D01*
X173744673Y-100781698D01*
X173923301Y-100960327D01*
X174156690Y-101057000D01*
X174847250Y-101057000D01*
X175006000Y-100898250D01*
X175006000Y-99949000D01*
X175260000Y-99949000D01*
X175260000Y-100898250D01*
X175418750Y-101057000D01*
X176109310Y-101057000D01*
X176342699Y-100960327D01*
X176521327Y-100781698D01*
X176618000Y-100548309D01*
X176618000Y-100107750D01*
X176459250Y-99949000D01*
X175260000Y-99949000D01*
X175006000Y-99949000D01*
X173806750Y-99949000D01*
X173648000Y-100107750D01*
X172058000Y-100107750D01*
X172058000Y-99695000D01*
X172002051Y-99413728D01*
X171890872Y-99247337D01*
X171842723Y-99175276D01*
X171461723Y-98794277D01*
X171223272Y-98634949D01*
X170942000Y-98579000D01*
X170738447Y-98579000D01*
X169429723Y-97270277D01*
X169191272Y-97110949D01*
X168910000Y-97055000D01*
X161213447Y-97055000D01*
X159777725Y-95619279D01*
X159777723Y-95619276D01*
X158332110Y-94173663D01*
X163613931Y-94173663D01*
X163762493Y-94533212D01*
X164037341Y-94808540D01*
X164396630Y-94957730D01*
X164785663Y-94958069D01*
X165145212Y-94809507D01*
X165420540Y-94534659D01*
X165556596Y-94207000D01*
X166276922Y-94207000D01*
X166555630Y-94322730D01*
X166944663Y-94323069D01*
X167304212Y-94174507D01*
X167579540Y-93899659D01*
X167611786Y-93822000D01*
X173618907Y-93822000D01*
X173712916Y-94294614D01*
X173980630Y-94695277D01*
X174170285Y-94822000D01*
X173980630Y-94948723D01*
X173712916Y-95349386D01*
X173618907Y-95822000D01*
X173712916Y-96294614D01*
X173980630Y-96695277D01*
X174170285Y-96822000D01*
X173980630Y-96948723D01*
X173712916Y-97349386D01*
X173618907Y-97822000D01*
X173712916Y-98294614D01*
X173962130Y-98667590D01*
X173923301Y-98683673D01*
X173744673Y-98862302D01*
X173648000Y-99095691D01*
X173648000Y-99536250D01*
X173806750Y-99695000D01*
X175006000Y-99695000D01*
X175006000Y-99675000D01*
X175260000Y-99675000D01*
X175260000Y-99695000D01*
X176459250Y-99695000D01*
X176618000Y-99536250D01*
X176618000Y-99095691D01*
X176521327Y-98862302D01*
X176342699Y-98683673D01*
X176303870Y-98667590D01*
X176553084Y-98294614D01*
X176647093Y-97822000D01*
X176553084Y-97349386D01*
X176285370Y-96948723D01*
X176095715Y-96822000D01*
X176285370Y-96695277D01*
X176553084Y-96294614D01*
X176647093Y-95822000D01*
X176553084Y-95349386D01*
X176285370Y-94948723D01*
X176095715Y-94822000D01*
X176285370Y-94695277D01*
X176553084Y-94294614D01*
X176647093Y-93822000D01*
X176553084Y-93349386D01*
X176285370Y-92948723D01*
X175884707Y-92681009D01*
X175412093Y-92587000D01*
X174853907Y-92587000D01*
X174381293Y-92681009D01*
X173980630Y-92948723D01*
X173712916Y-93349386D01*
X173618907Y-93822000D01*
X167611786Y-93822000D01*
X167728730Y-93540370D01*
X167729069Y-93151337D01*
X167580507Y-92791788D01*
X167305659Y-92516460D01*
X166946370Y-92367270D01*
X166557337Y-92366931D01*
X166197788Y-92515493D01*
X165975894Y-92737000D01*
X165100000Y-92737000D01*
X164865394Y-92783667D01*
X164818727Y-92792949D01*
X164580276Y-92952277D01*
X164530507Y-93002046D01*
X164398337Y-93001931D01*
X164038788Y-93150493D01*
X163763460Y-93425341D01*
X163614270Y-93784630D01*
X163613931Y-94173663D01*
X158332110Y-94173663D01*
X156044843Y-91886397D01*
X156045069Y-91627337D01*
X155896507Y-91267788D01*
X155621659Y-90992460D01*
X155262370Y-90843270D01*
X154873337Y-90842931D01*
X154513788Y-90991493D01*
X154354480Y-91150523D01*
X154245507Y-90886788D01*
X153970659Y-90611460D01*
X153611370Y-90462270D01*
X153222337Y-90461931D01*
X152862788Y-90610493D01*
X152587460Y-90885341D01*
X152438270Y-91244630D01*
X152437931Y-91633663D01*
X152586493Y-91993212D01*
X152861341Y-92268540D01*
X153220630Y-92417730D01*
X153354401Y-92417847D01*
X160262276Y-99325723D01*
X160434801Y-99441000D01*
X160500728Y-99485051D01*
X160782000Y-99541000D01*
X167081554Y-99541000D01*
X167795909Y-100255356D01*
X167697683Y-100273838D01*
X167510923Y-100394015D01*
X167344890Y-100280569D01*
X167093000Y-100229560D01*
X165393000Y-100229560D01*
X165157683Y-100273838D01*
X164970923Y-100394015D01*
X164804890Y-100280569D01*
X164553000Y-100229560D01*
X162853000Y-100229560D01*
X162617683Y-100273838D01*
X162430923Y-100394015D01*
X162264890Y-100280569D01*
X162013000Y-100229560D01*
X160313000Y-100229560D01*
X160077683Y-100273838D01*
X159890923Y-100394015D01*
X159724890Y-100280569D01*
X159473000Y-100229560D01*
X157773000Y-100229560D01*
X157537683Y-100273838D01*
X157350923Y-100394015D01*
X157184890Y-100280569D01*
X156933000Y-100229560D01*
X155233000Y-100229560D01*
X154997683Y-100273838D01*
X154810923Y-100394015D01*
X154644890Y-100280569D01*
X154393000Y-100229560D01*
X152693000Y-100229560D01*
X152457683Y-100273838D01*
X152241559Y-100412910D01*
X152096569Y-100625110D01*
X152045560Y-100877000D01*
X152045560Y-102577000D01*
X152089838Y-102812317D01*
X152228910Y-103028441D01*
X152441110Y-103173431D01*
X152508541Y-103187086D01*
X152463853Y-103216946D01*
X152141946Y-103698715D01*
X152028907Y-104267000D01*
X143371790Y-104267000D01*
X143282145Y-104177355D01*
X142978809Y-103974673D01*
X142621000Y-103903500D01*
X138880790Y-103903500D01*
X129713000Y-94735710D01*
X129713000Y-93919663D01*
X130212931Y-93919663D01*
X130361493Y-94279212D01*
X130636341Y-94554540D01*
X130995630Y-94703730D01*
X131384663Y-94704069D01*
X131744212Y-94555507D01*
X132019540Y-94280659D01*
X132168730Y-93921370D01*
X132169069Y-93532337D01*
X132053000Y-93251427D01*
X132053000Y-92252446D01*
X132776493Y-91528954D01*
X132908663Y-91529069D01*
X133268212Y-91380507D01*
X133543540Y-91105659D01*
X133692730Y-90746370D01*
X133693069Y-90357337D01*
X133544507Y-89997788D01*
X133269659Y-89722460D01*
X132910370Y-89573270D01*
X132521337Y-89572931D01*
X132161788Y-89721493D01*
X131886460Y-89996341D01*
X131737270Y-90355630D01*
X131737153Y-90489400D01*
X130798277Y-91428277D01*
X130638949Y-91666728D01*
X130583000Y-91948000D01*
X130583000Y-92951185D01*
X130362460Y-93171341D01*
X130213270Y-93530630D01*
X130212931Y-93919663D01*
X129713000Y-93919663D01*
X129713000Y-93643275D01*
X129755730Y-93540370D01*
X129756069Y-93151337D01*
X129607507Y-92791788D01*
X129332659Y-92516460D01*
X128973370Y-92367270D01*
X128584337Y-92366931D01*
X128224788Y-92515493D01*
X127949460Y-92790341D01*
X127800270Y-93149630D01*
X127799931Y-93538663D01*
X127843000Y-93642898D01*
X127843000Y-95123000D01*
X127914173Y-95480809D01*
X128116855Y-95784145D01*
X137832355Y-105499645D01*
X138135691Y-105702327D01*
X138493500Y-105773500D01*
X142233710Y-105773500D01*
X143040210Y-106580000D01*
X131368447Y-106580000D01*
X127011723Y-102223277D01*
X126773272Y-102063949D01*
X126492000Y-102008000D01*
X120827447Y-102008000D01*
X118812586Y-99993140D01*
X118960730Y-99636370D01*
X118961069Y-99247337D01*
X118812507Y-98887788D01*
X118537659Y-98612460D01*
X118178370Y-98463270D01*
X117789337Y-98462931D01*
X117429788Y-98611493D01*
X117154460Y-98886341D01*
X117005270Y-99245630D01*
X117004931Y-99634663D01*
X117153493Y-99994212D01*
X117248000Y-100088884D01*
X117248000Y-100203000D01*
X117297727Y-100452993D01*
X117303949Y-100484272D01*
X117463277Y-100722723D01*
X120003276Y-103262723D01*
X120241727Y-103422051D01*
X120288394Y-103431333D01*
X120481924Y-103469829D01*
X120447569Y-103520110D01*
X120396560Y-103772000D01*
X120396560Y-108283629D01*
X120232287Y-108215928D01*
X119568719Y-108217111D01*
X119507721Y-108156113D01*
X119920010Y-107886600D01*
X120380072Y-106770287D01*
X120377919Y-105562891D01*
X119920010Y-104457400D01*
X119507719Y-104187886D01*
X117523605Y-106172000D01*
X117537748Y-106186143D01*
X117358143Y-106365748D01*
X117344000Y-106351605D01*
X115359886Y-108335719D01*
X115629400Y-108748010D01*
X116745713Y-109208072D01*
X117409281Y-109206889D01*
X117470279Y-109267887D01*
X117057990Y-109537400D01*
X116597928Y-110653713D01*
X116600081Y-111861109D01*
X117057990Y-112966600D01*
X117470281Y-113236114D01*
X119454395Y-111252000D01*
X119440253Y-111237858D01*
X119619858Y-111058253D01*
X119634000Y-111072395D01*
X119648143Y-111058253D01*
X119827748Y-111237858D01*
X119813605Y-111252000D01*
X121797719Y-113236114D01*
X122210010Y-112966600D01*
X122670072Y-111850287D01*
X122667919Y-110642891D01*
X122210010Y-109537400D01*
X121797721Y-109267887D01*
X121846168Y-109219440D01*
X125844000Y-109219440D01*
X126079317Y-109175162D01*
X126295441Y-109036090D01*
X126440431Y-108823890D01*
X126491440Y-108572000D01*
X126491440Y-103781886D01*
X130544276Y-107834723D01*
X130782727Y-107994051D01*
X130823610Y-108002183D01*
X131064000Y-108050000D01*
X134199099Y-108050000D01*
X133934360Y-108314278D01*
X133677293Y-108933362D01*
X133676708Y-109603697D01*
X133932694Y-110223229D01*
X133964389Y-110254979D01*
X133746542Y-110264421D01*
X133312884Y-110444047D01*
X133229545Y-110697940D01*
X134112000Y-111580395D01*
X134126143Y-111566253D01*
X134305748Y-111745858D01*
X134291605Y-111760000D01*
X134305748Y-111774143D01*
X134126143Y-111953748D01*
X134112000Y-111939605D01*
X134097858Y-111953748D01*
X133918253Y-111774143D01*
X133932395Y-111760000D01*
X133049940Y-110877545D01*
X132796047Y-110960884D01*
X132590410Y-111525306D01*
X132616421Y-112125458D01*
X132796047Y-112559116D01*
X132876426Y-112585500D01*
X131515130Y-112585500D01*
X131083468Y-112153838D01*
X131121738Y-112061675D01*
X131122262Y-111460960D01*
X130892862Y-110905771D01*
X130468463Y-110480630D01*
X129913675Y-110250262D01*
X129755196Y-110250124D01*
X129779640Y-110225722D01*
X130036707Y-109606638D01*
X130037292Y-108936303D01*
X129781306Y-108316771D01*
X129307722Y-107842360D01*
X128688638Y-107585293D01*
X128018303Y-107584708D01*
X127398771Y-107840694D01*
X126924360Y-108314278D01*
X126667293Y-108933362D01*
X126666708Y-109603697D01*
X126735922Y-109771208D01*
X126174022Y-109537887D01*
X125289857Y-109537115D01*
X124472700Y-109874758D01*
X123846955Y-110499411D01*
X123507887Y-111315978D01*
X123507115Y-112200143D01*
X123844758Y-113017300D01*
X124427939Y-113601500D01*
X121496669Y-113601500D01*
X121618114Y-113415719D01*
X119634000Y-111431605D01*
X117649886Y-113415719D01*
X117771331Y-113601500D01*
X112844798Y-113601500D01*
X112659735Y-113564689D01*
X112561170Y-113498830D01*
X112495311Y-113400265D01*
X112458500Y-113215202D01*
X112458500Y-105573713D01*
X114307928Y-105573713D01*
X114310081Y-106781109D01*
X114767990Y-107886600D01*
X115180281Y-108156114D01*
X117164395Y-106172000D01*
X115180281Y-104187886D01*
X114767990Y-104457400D01*
X114307928Y-105573713D01*
X112458500Y-105573713D01*
X112458500Y-104008281D01*
X115359886Y-104008281D01*
X117344000Y-105992395D01*
X119328114Y-104008281D01*
X119058600Y-103595990D01*
X117942287Y-103135928D01*
X116734891Y-103138081D01*
X115629400Y-103595990D01*
X115359886Y-104008281D01*
X112458500Y-104008281D01*
X112458500Y-90558572D01*
X112541646Y-90759800D01*
X112846595Y-91065282D01*
X113245233Y-91230811D01*
X113676873Y-91231188D01*
X114075800Y-91066354D01*
X114381282Y-90761405D01*
X114546811Y-90362767D01*
X114547188Y-89931127D01*
X114382354Y-89532200D01*
X114077405Y-89226718D01*
X113678767Y-89061189D01*
X113247127Y-89060812D01*
X112848200Y-89225646D01*
X112542718Y-89530595D01*
X112458500Y-89733414D01*
X112458500Y-87558572D01*
X112541646Y-87759800D01*
X112846595Y-88065282D01*
X113245233Y-88230811D01*
X113676873Y-88231188D01*
X114075800Y-88066354D01*
X114381282Y-87761405D01*
X114546811Y-87362767D01*
X114547188Y-86931127D01*
X114382354Y-86532200D01*
X114077405Y-86226718D01*
X113678767Y-86061189D01*
X113247127Y-86060812D01*
X112848200Y-86225646D01*
X112542718Y-86530595D01*
X112458500Y-86733414D01*
X112458500Y-81915000D01*
X120931000Y-81915000D01*
X120931000Y-84645500D01*
X120968264Y-84832837D01*
X120986949Y-84926772D01*
X121146277Y-85165223D01*
X122352777Y-86371724D01*
X122565709Y-86514000D01*
X122591228Y-86531051D01*
X122872500Y-86587000D01*
X131102123Y-86587000D01*
X131101931Y-86807663D01*
X131250493Y-87167212D01*
X131525341Y-87442540D01*
X131884630Y-87591730D01*
X132273663Y-87592069D01*
X132633212Y-87443507D01*
X132727884Y-87349000D01*
X143513553Y-87349000D01*
X142538767Y-88323787D01*
X142413659Y-88198460D01*
X142054370Y-88049270D01*
X141665337Y-88048931D01*
X141305788Y-88197493D01*
X141083894Y-88419000D01*
X136157036Y-88419000D01*
X136063659Y-88325460D01*
X135704370Y-88176270D01*
X135315337Y-88175931D01*
X134955788Y-88324493D01*
X134680460Y-88599341D01*
X134531270Y-88958630D01*
X134530931Y-89347663D01*
X134679493Y-89707212D01*
X134954341Y-89982540D01*
X135313630Y-90131730D01*
X135558000Y-90131943D01*
X135558000Y-92170250D01*
X135716750Y-92329000D01*
X136154655Y-92329000D01*
X136154678Y-92329239D01*
X136210405Y-92463776D01*
X136173740Y-92583000D01*
X135716750Y-92583000D01*
X135558000Y-92741750D01*
X135558000Y-94832310D01*
X135654673Y-95065699D01*
X135833302Y-95244327D01*
X136066691Y-95341000D01*
X137382250Y-95341000D01*
X137541000Y-95182250D01*
X137541000Y-94115637D01*
X137623576Y-94120819D01*
X137668000Y-94076395D01*
X137712424Y-94120819D01*
X137795000Y-94115637D01*
X137795000Y-95182250D01*
X137953750Y-95341000D01*
X139269309Y-95341000D01*
X139502698Y-95244327D01*
X139681327Y-95065699D01*
X139778000Y-94832310D01*
X139778000Y-92741750D01*
X139619250Y-92583000D01*
X139181345Y-92583000D01*
X139181322Y-92582761D01*
X139125595Y-92448224D01*
X139162260Y-92329000D01*
X139619250Y-92329000D01*
X139778000Y-92170250D01*
X139778000Y-90079690D01*
X139699014Y-89889000D01*
X141384922Y-89889000D01*
X141663630Y-90004730D01*
X141759000Y-90004813D01*
X141759000Y-90909181D01*
X141559788Y-90991493D01*
X141284460Y-91266341D01*
X141135270Y-91625630D01*
X141134931Y-92014663D01*
X141283493Y-92374212D01*
X141558341Y-92649540D01*
X141917630Y-92798730D01*
X142306663Y-92799069D01*
X142666212Y-92650507D01*
X142941540Y-92375659D01*
X143090730Y-92016370D01*
X143090880Y-91844250D01*
X143173051Y-91721272D01*
X143175570Y-91708607D01*
X143229000Y-91440000D01*
X143229000Y-89712446D01*
X144449447Y-88492000D01*
X147226922Y-88492000D01*
X147505630Y-88607730D01*
X147894663Y-88608069D01*
X148109000Y-88519507D01*
X148109000Y-93037827D01*
X148023370Y-93002270D01*
X147634337Y-93001931D01*
X147274788Y-93150493D01*
X146999460Y-93425341D01*
X146850270Y-93784630D01*
X146849931Y-94173663D01*
X146938493Y-94388000D01*
X146494500Y-94388000D01*
X146213228Y-94443949D01*
X145974776Y-94603277D01*
X140273563Y-100304491D01*
X140204837Y-100304431D01*
X139845288Y-100452993D01*
X139569960Y-100727841D01*
X139420770Y-101087130D01*
X139420431Y-101476163D01*
X139568993Y-101835712D01*
X139843841Y-102111040D01*
X140203130Y-102260230D01*
X140592163Y-102260569D01*
X140951712Y-102112007D01*
X141227040Y-101837159D01*
X141376230Y-101477870D01*
X141376402Y-101280544D01*
X146798947Y-95858000D01*
X148209000Y-95858000D01*
X148490272Y-95802051D01*
X148728723Y-95642723D01*
X149998723Y-94372724D01*
X150158051Y-94134272D01*
X150183313Y-94007272D01*
X150214000Y-93853000D01*
X150214000Y-90143000D01*
X152717500Y-90143000D01*
X152998772Y-90087051D01*
X153237223Y-89927723D01*
X155117447Y-88047500D01*
X158927353Y-88047500D01*
X158957341Y-88077540D01*
X159316630Y-88226730D01*
X159705663Y-88227069D01*
X160065212Y-88078507D01*
X160191747Y-87952193D01*
X163310277Y-91070724D01*
X163523209Y-91213000D01*
X163548728Y-91230051D01*
X163830000Y-91286000D01*
X165481000Y-91286000D01*
X165762272Y-91230051D01*
X166000723Y-91070723D01*
X169925646Y-87145800D01*
X173971977Y-87145800D01*
X174042325Y-87316056D01*
X174405404Y-87679770D01*
X174043907Y-88040636D01*
X173799778Y-88628564D01*
X173799223Y-89265163D01*
X174042325Y-89853516D01*
X174492076Y-90304053D01*
X175080004Y-90548182D01*
X175716603Y-90548737D01*
X176304956Y-90305635D01*
X176535382Y-90075610D01*
X176991955Y-90075610D01*
X177086354Y-90338856D01*
X177683469Y-90559565D01*
X178319593Y-90534967D01*
X178793046Y-90338856D01*
X178887445Y-90075610D01*
X177939700Y-89127865D01*
X176991955Y-90075610D01*
X176535382Y-90075610D01*
X176740950Y-89870401D01*
X176812350Y-89896005D01*
X177760095Y-88948260D01*
X178119305Y-88948260D01*
X179067050Y-89896005D01*
X179330296Y-89801606D01*
X179551005Y-89204491D01*
X179526407Y-88568367D01*
X179330296Y-88094914D01*
X179067050Y-88000515D01*
X178119305Y-88948260D01*
X177760095Y-88948260D01*
X176812350Y-88000515D01*
X176740412Y-88026312D01*
X176393996Y-87679290D01*
X176669942Y-87403826D01*
X177016889Y-87751379D01*
X176991955Y-87820910D01*
X177939700Y-88768655D01*
X178887445Y-87820910D01*
X178862319Y-87750842D01*
X179295493Y-87318424D01*
X179539622Y-86730496D01*
X179540177Y-86093897D01*
X179297075Y-85505544D01*
X178932726Y-85140558D01*
X179295493Y-84778424D01*
X179539622Y-84190496D01*
X179540177Y-83553897D01*
X179297075Y-82965544D01*
X178847324Y-82515007D01*
X178259396Y-82270878D01*
X177622797Y-82270323D01*
X177034444Y-82513425D01*
X176669458Y-82877774D01*
X176307324Y-82515007D01*
X175719396Y-82270878D01*
X175082797Y-82270323D01*
X174494444Y-82513425D01*
X174043907Y-82963176D01*
X173799778Y-83551104D01*
X173799510Y-83858044D01*
X173669337Y-83857931D01*
X173309788Y-84006493D01*
X173191274Y-84124800D01*
X172062088Y-84124800D01*
X170764200Y-82826912D01*
X170764200Y-74649440D01*
X170903000Y-74649440D01*
X171138317Y-74605162D01*
X171325077Y-74484985D01*
X171491110Y-74598431D01*
X171743000Y-74649440D01*
X173443000Y-74649440D01*
X173678317Y-74605162D01*
X173865077Y-74484985D01*
X174031110Y-74598431D01*
X174283000Y-74649440D01*
X175983000Y-74649440D01*
X176218317Y-74605162D01*
X176434441Y-74466090D01*
X176579431Y-74253890D01*
X176630440Y-74002000D01*
X176630440Y-72302000D01*
X176586162Y-72066683D01*
X176447090Y-71850559D01*
X176234890Y-71705569D01*
X176167459Y-71691914D01*
X176212147Y-71662054D01*
X176534054Y-71180285D01*
X176647093Y-70612000D01*
X176534054Y-70043715D01*
X176212147Y-69561946D01*
X175871447Y-69334298D01*
X176014358Y-69267183D01*
X176404645Y-68838924D01*
X176574476Y-68428890D01*
X176453155Y-68199000D01*
X175260000Y-68199000D01*
X175260000Y-68219000D01*
X175006000Y-68219000D01*
X175006000Y-68199000D01*
X172720000Y-68199000D01*
X172720000Y-68219000D01*
X172466000Y-68219000D01*
X172466000Y-68199000D01*
X170180000Y-68199000D01*
X170180000Y-68219000D01*
X169926000Y-68219000D01*
X169926000Y-68199000D01*
X167640000Y-68199000D01*
X167640000Y-68219000D01*
X167386000Y-68219000D01*
X167386000Y-68199000D01*
X165100000Y-68199000D01*
X165100000Y-68219000D01*
X164846000Y-68219000D01*
X164846000Y-68199000D01*
X162560000Y-68199000D01*
X162560000Y-68219000D01*
X162306000Y-68219000D01*
X162306000Y-68199000D01*
X160020000Y-68199000D01*
X160020000Y-68219000D01*
X159766000Y-68219000D01*
X159766000Y-68199000D01*
X157480000Y-68199000D01*
X157480000Y-68219000D01*
X157226000Y-68219000D01*
X157226000Y-68199000D01*
X154940000Y-68199000D01*
X154940000Y-68219000D01*
X154686000Y-68219000D01*
X154686000Y-68199000D01*
X152400000Y-68199000D01*
X152400000Y-68219000D01*
X152146000Y-68219000D01*
X152146000Y-68199000D01*
X149860000Y-68199000D01*
X149860000Y-68219000D01*
X149606000Y-68219000D01*
X149606000Y-68199000D01*
X147320000Y-68199000D01*
X147320000Y-68219000D01*
X147066000Y-68219000D01*
X147066000Y-68199000D01*
X144780000Y-68199000D01*
X144780000Y-68219000D01*
X144526000Y-68219000D01*
X144526000Y-68199000D01*
X142240000Y-68199000D01*
X142240000Y-68219000D01*
X141986000Y-68219000D01*
X141986000Y-68199000D01*
X141966000Y-68199000D01*
X141966000Y-67945000D01*
X141986000Y-67945000D01*
X141986000Y-66751181D01*
X142240000Y-66751181D01*
X142240000Y-67945000D01*
X144526000Y-67945000D01*
X144526000Y-66751181D01*
X144780000Y-66751181D01*
X144780000Y-67945000D01*
X147066000Y-67945000D01*
X147066000Y-66751181D01*
X147320000Y-66751181D01*
X147320000Y-67945000D01*
X149606000Y-67945000D01*
X149606000Y-66751181D01*
X149860000Y-66751181D01*
X149860000Y-67945000D01*
X152146000Y-67945000D01*
X152146000Y-66751181D01*
X152400000Y-66751181D01*
X152400000Y-67945000D01*
X154686000Y-67945000D01*
X154686000Y-66751181D01*
X154940000Y-66751181D01*
X154940000Y-67945000D01*
X157226000Y-67945000D01*
X157226000Y-66751181D01*
X157480000Y-66751181D01*
X157480000Y-67945000D01*
X159766000Y-67945000D01*
X159766000Y-66751181D01*
X160020000Y-66751181D01*
X160020000Y-67945000D01*
X162306000Y-67945000D01*
X162306000Y-66751181D01*
X162560000Y-66751181D01*
X162560000Y-67945000D01*
X164846000Y-67945000D01*
X164846000Y-66751181D01*
X165100000Y-66751181D01*
X165100000Y-67945000D01*
X167386000Y-67945000D01*
X167386000Y-66751181D01*
X167640000Y-66751181D01*
X167640000Y-67945000D01*
X169926000Y-67945000D01*
X169926000Y-66751181D01*
X170180000Y-66751181D01*
X170180000Y-67945000D01*
X172466000Y-67945000D01*
X172466000Y-66751181D01*
X172720000Y-66751181D01*
X172720000Y-67945000D01*
X175006000Y-67945000D01*
X175006000Y-66751181D01*
X175260000Y-66751181D01*
X175260000Y-67945000D01*
X176453155Y-67945000D01*
X176574476Y-67715110D01*
X176404645Y-67305076D01*
X176014358Y-66876817D01*
X175489892Y-66630514D01*
X175260000Y-66751181D01*
X175006000Y-66751181D01*
X174776108Y-66630514D01*
X174251642Y-66876817D01*
X173863000Y-67303271D01*
X173474358Y-66876817D01*
X172949892Y-66630514D01*
X172720000Y-66751181D01*
X172466000Y-66751181D01*
X172236108Y-66630514D01*
X171711642Y-66876817D01*
X171323000Y-67303271D01*
X170934358Y-66876817D01*
X170409892Y-66630514D01*
X170180000Y-66751181D01*
X169926000Y-66751181D01*
X169696108Y-66630514D01*
X169171642Y-66876817D01*
X168783000Y-67303271D01*
X168394358Y-66876817D01*
X167869892Y-66630514D01*
X167640000Y-66751181D01*
X167386000Y-66751181D01*
X167156108Y-66630514D01*
X166631642Y-66876817D01*
X166243000Y-67303271D01*
X165854358Y-66876817D01*
X165329892Y-66630514D01*
X165100000Y-66751181D01*
X164846000Y-66751181D01*
X164616108Y-66630514D01*
X164091642Y-66876817D01*
X163703000Y-67303271D01*
X163314358Y-66876817D01*
X162789892Y-66630514D01*
X162560000Y-66751181D01*
X162306000Y-66751181D01*
X162076108Y-66630514D01*
X161551642Y-66876817D01*
X161163000Y-67303271D01*
X160774358Y-66876817D01*
X160249892Y-66630514D01*
X160020000Y-66751181D01*
X159766000Y-66751181D01*
X159536108Y-66630514D01*
X159011642Y-66876817D01*
X158623000Y-67303271D01*
X158234358Y-66876817D01*
X157709892Y-66630514D01*
X157480000Y-66751181D01*
X157226000Y-66751181D01*
X156996108Y-66630514D01*
X156471642Y-66876817D01*
X156083000Y-67303271D01*
X155694358Y-66876817D01*
X155169892Y-66630514D01*
X154940000Y-66751181D01*
X154686000Y-66751181D01*
X154456108Y-66630514D01*
X153931642Y-66876817D01*
X153543000Y-67303271D01*
X153154358Y-66876817D01*
X152629892Y-66630514D01*
X152400000Y-66751181D01*
X152146000Y-66751181D01*
X151916108Y-66630514D01*
X151391642Y-66876817D01*
X151003000Y-67303271D01*
X150614358Y-66876817D01*
X150089892Y-66630514D01*
X149860000Y-66751181D01*
X149606000Y-66751181D01*
X149376108Y-66630514D01*
X148851642Y-66876817D01*
X148463000Y-67303271D01*
X148074358Y-66876817D01*
X147549892Y-66630514D01*
X147320000Y-66751181D01*
X147066000Y-66751181D01*
X146836108Y-66630514D01*
X146311642Y-66876817D01*
X145923000Y-67303271D01*
X145534358Y-66876817D01*
X145009892Y-66630514D01*
X144780000Y-66751181D01*
X144526000Y-66751181D01*
X144296108Y-66630514D01*
X143771642Y-66876817D01*
X143383000Y-67303271D01*
X142994358Y-66876817D01*
X142469892Y-66630514D01*
X142240000Y-66751181D01*
X141986000Y-66751181D01*
X141756108Y-66630514D01*
X141451000Y-66773801D01*
X141451000Y-64927723D01*
X141621256Y-64857375D01*
X141986242Y-64493026D01*
X142348376Y-64855793D01*
X142936304Y-65099922D01*
X143572903Y-65100477D01*
X144161256Y-64857375D01*
X144526242Y-64493026D01*
X144888376Y-64855793D01*
X145476304Y-65099922D01*
X146112903Y-65100477D01*
X146701256Y-64857375D01*
X147066242Y-64493026D01*
X147428376Y-64855793D01*
X148016304Y-65099922D01*
X148652903Y-65100477D01*
X149241256Y-64857375D01*
X149606242Y-64493026D01*
X149968376Y-64855793D01*
X150556304Y-65099922D01*
X151192903Y-65100477D01*
X151781256Y-64857375D01*
X152146242Y-64493026D01*
X152508376Y-64855793D01*
X153096304Y-65099922D01*
X153732903Y-65100477D01*
X154321256Y-64857375D01*
X154771793Y-64407624D01*
X155015922Y-63819696D01*
X155015924Y-63816903D01*
X155879523Y-63816903D01*
X156122625Y-64405256D01*
X156572376Y-64855793D01*
X157160304Y-65099922D01*
X157796903Y-65100477D01*
X158385256Y-64857375D01*
X158750242Y-64493026D01*
X159112376Y-64855793D01*
X159700304Y-65099922D01*
X160336903Y-65100477D01*
X160925256Y-64857375D01*
X161290242Y-64493026D01*
X161652376Y-64855793D01*
X162240304Y-65099922D01*
X162876903Y-65100477D01*
X163465256Y-64857375D01*
X163830242Y-64493026D01*
X164192376Y-64855793D01*
X164780304Y-65099922D01*
X165416903Y-65100477D01*
X166005256Y-64857375D01*
X166370242Y-64493026D01*
X166732376Y-64855793D01*
X167320304Y-65099922D01*
X167956903Y-65100477D01*
X168545256Y-64857375D01*
X168910242Y-64493026D01*
X169272376Y-64855793D01*
X169860304Y-65099922D01*
X170496903Y-65100477D01*
X171085256Y-64857375D01*
X171450242Y-64493026D01*
X171812376Y-64855793D01*
X172400304Y-65099922D01*
X173036903Y-65100477D01*
X173625256Y-64857375D01*
X173990242Y-64493026D01*
X174352376Y-64855793D01*
X174940304Y-65099922D01*
X175576903Y-65100477D01*
X176165256Y-64857375D01*
X176615793Y-64407624D01*
X176859922Y-63819696D01*
X176860477Y-63183097D01*
X176617375Y-62594744D01*
X176167624Y-62144207D01*
X175579696Y-61900078D01*
X174943097Y-61899523D01*
X174354744Y-62142625D01*
X173989758Y-62506974D01*
X173627624Y-62144207D01*
X173039696Y-61900078D01*
X172403097Y-61899523D01*
X171814744Y-62142625D01*
X171449758Y-62506974D01*
X171087624Y-62144207D01*
X170499696Y-61900078D01*
X169863097Y-61899523D01*
X169274744Y-62142625D01*
X168909758Y-62506974D01*
X168547624Y-62144207D01*
X167959696Y-61900078D01*
X167323097Y-61899523D01*
X166734744Y-62142625D01*
X166369758Y-62506974D01*
X166007624Y-62144207D01*
X165419696Y-61900078D01*
X164783097Y-61899523D01*
X164194744Y-62142625D01*
X163829758Y-62506974D01*
X163467624Y-62144207D01*
X162879696Y-61900078D01*
X162243097Y-61899523D01*
X161654744Y-62142625D01*
X161289758Y-62506974D01*
X160927624Y-62144207D01*
X160339696Y-61900078D01*
X159703097Y-61899523D01*
X159114744Y-62142625D01*
X158749758Y-62506974D01*
X158387624Y-62144207D01*
X157799696Y-61900078D01*
X157163097Y-61899523D01*
X156574744Y-62142625D01*
X156124207Y-62592376D01*
X155880078Y-63180304D01*
X155879523Y-63816903D01*
X155015924Y-63816903D01*
X155016477Y-63183097D01*
X154773375Y-62594744D01*
X154323624Y-62144207D01*
X153735696Y-61900078D01*
X153099097Y-61899523D01*
X152510744Y-62142625D01*
X152145758Y-62506974D01*
X151783624Y-62144207D01*
X151195696Y-61900078D01*
X150559097Y-61899523D01*
X149970744Y-62142625D01*
X149605758Y-62506974D01*
X149243624Y-62144207D01*
X148655696Y-61900078D01*
X148019097Y-61899523D01*
X147430744Y-62142625D01*
X147065758Y-62506974D01*
X146703624Y-62144207D01*
X146115696Y-61900078D01*
X145479097Y-61899523D01*
X144890744Y-62142625D01*
X144525758Y-62506974D01*
X144163624Y-62144207D01*
X143575696Y-61900078D01*
X142939097Y-61899523D01*
X142350744Y-62142625D01*
X141985758Y-62506974D01*
X141623624Y-62144207D01*
X141035696Y-61900078D01*
X140399097Y-61899523D01*
X139810744Y-62142625D01*
X139374750Y-62577859D01*
X139303350Y-62552255D01*
X138355605Y-63500000D01*
X139303350Y-64447745D01*
X139375288Y-64421948D01*
X139808376Y-64855793D01*
X139981000Y-64927473D01*
X139981000Y-72517000D01*
X140007231Y-72648870D01*
X140036949Y-72798272D01*
X140196277Y-73036723D01*
X140615560Y-73456007D01*
X140615560Y-73506272D01*
X139141200Y-72031912D01*
X139141200Y-68643500D01*
X139087063Y-68371336D01*
X138997483Y-68237270D01*
X138932894Y-68140605D01*
X136964394Y-66172106D01*
X136733665Y-66017937D01*
X136461500Y-65963800D01*
X130619500Y-65963800D01*
X130392490Y-66008955D01*
X130347335Y-66017937D01*
X130116606Y-66172106D01*
X128402106Y-67886606D01*
X128247937Y-68117335D01*
X128219859Y-68258493D01*
X128193800Y-68389500D01*
X128193800Y-71781706D01*
X128076460Y-71898841D01*
X127927270Y-72258130D01*
X127926955Y-72620029D01*
X127822460Y-72724341D01*
X127673270Y-73083630D01*
X127672931Y-73472663D01*
X127821493Y-73832212D01*
X128096341Y-74107540D01*
X128455630Y-74256730D01*
X128462290Y-74256736D01*
X129197046Y-74991493D01*
X129196931Y-75123663D01*
X129345493Y-75483212D01*
X129620341Y-75758540D01*
X129979630Y-75907730D01*
X130202000Y-75907924D01*
X130202000Y-76584553D01*
X128612954Y-74995508D01*
X128613069Y-74863337D01*
X128464507Y-74503788D01*
X128189659Y-74228460D01*
X127830370Y-74079270D01*
X127441337Y-74078931D01*
X127160427Y-74195000D01*
X125349000Y-74195000D01*
X125114394Y-74241667D01*
X125067727Y-74250949D01*
X124829276Y-74410277D01*
X123763508Y-75476046D01*
X123631337Y-75475931D01*
X123271788Y-75624493D01*
X122996460Y-75899341D01*
X122847270Y-76258630D01*
X122846931Y-76647663D01*
X122995493Y-77007212D01*
X123270341Y-77282540D01*
X123629630Y-77431730D01*
X124018663Y-77432069D01*
X124378212Y-77283507D01*
X124653540Y-77008659D01*
X124802730Y-76649370D01*
X124802847Y-76515600D01*
X125653447Y-75665000D01*
X126860185Y-75665000D01*
X127080341Y-75885540D01*
X127439630Y-76034730D01*
X127573400Y-76034847D01*
X129186000Y-77647447D01*
X129186000Y-79756000D01*
X129197339Y-79813005D01*
X128846370Y-79667270D01*
X128678913Y-79667124D01*
X128201394Y-79189606D01*
X127970665Y-79035437D01*
X127698500Y-78981300D01*
X122845684Y-78981300D01*
X122665159Y-78800460D01*
X122305870Y-78651270D01*
X121916837Y-78650931D01*
X121557288Y-78799493D01*
X121281960Y-79074341D01*
X121132770Y-79433630D01*
X121132431Y-79822663D01*
X121280993Y-80182212D01*
X121555841Y-80457540D01*
X121832942Y-80572603D01*
X121831270Y-80576630D01*
X121831153Y-80710400D01*
X121146277Y-81395277D01*
X120986949Y-81633728D01*
X120931000Y-81915000D01*
X112458500Y-81915000D01*
X112458500Y-77887000D01*
X112807000Y-77887000D01*
X112807000Y-76779000D01*
X112787000Y-76779000D01*
X112787000Y-76525000D01*
X112807000Y-76525000D01*
X112807000Y-75417000D01*
X112458500Y-75417000D01*
X112458500Y-70887000D01*
X112807000Y-70887000D01*
X112807000Y-69779000D01*
X112787000Y-69779000D01*
X112787000Y-69525000D01*
X112807000Y-69525000D01*
X112807000Y-68417000D01*
X113061000Y-68417000D01*
X113061000Y-69525000D01*
X113081000Y-69525000D01*
X113081000Y-69779000D01*
X113061000Y-69779000D01*
X113061000Y-70887000D01*
X113411000Y-70887000D01*
X113515000Y-70854963D01*
X113515000Y-75449037D01*
X113411000Y-75417000D01*
X113061000Y-75417000D01*
X113061000Y-76525000D01*
X113081000Y-76525000D01*
X113081000Y-76779000D01*
X113061000Y-76779000D01*
X113061000Y-77887000D01*
X113411000Y-77887000D01*
X113449245Y-77875219D01*
X113448931Y-78235163D01*
X113597493Y-78594712D01*
X113872341Y-78870040D01*
X114231630Y-79019230D01*
X114620663Y-79019569D01*
X114980212Y-78871007D01*
X115255540Y-78596159D01*
X115404730Y-78236870D01*
X115404785Y-78173873D01*
X115426579Y-78152079D01*
X115596745Y-77897406D01*
X115656500Y-77597000D01*
X115656500Y-77012692D01*
X115975444Y-76995949D01*
X116342878Y-76843753D01*
X116407793Y-76605398D01*
X115634000Y-75831605D01*
X115619858Y-75845748D01*
X115440253Y-75666143D01*
X115454395Y-75652000D01*
X115813605Y-75652000D01*
X116587398Y-76425793D01*
X116825753Y-76360878D01*
X117006312Y-75850854D01*
X116977949Y-75310556D01*
X116825753Y-74943122D01*
X116587398Y-74878207D01*
X115813605Y-75652000D01*
X115454395Y-75652000D01*
X115440253Y-75637858D01*
X115619858Y-75458253D01*
X115634000Y-75472395D01*
X116407793Y-74698602D01*
X116342878Y-74460247D01*
X115832854Y-74279688D01*
X115292556Y-74308051D01*
X115085000Y-74394023D01*
X115085000Y-71900353D01*
X115435146Y-72024312D01*
X115975444Y-71995949D01*
X116342878Y-71843753D01*
X116407793Y-71605398D01*
X115634000Y-70831605D01*
X115619858Y-70845748D01*
X115440253Y-70666143D01*
X115454395Y-70652000D01*
X115813605Y-70652000D01*
X116587398Y-71425793D01*
X116825753Y-71360878D01*
X117006312Y-70850854D01*
X116977949Y-70310556D01*
X116825753Y-69943122D01*
X116587398Y-69878207D01*
X115813605Y-70652000D01*
X115454395Y-70652000D01*
X115440253Y-70637858D01*
X115619858Y-70458253D01*
X115634000Y-70472395D01*
X116407793Y-69698602D01*
X116342878Y-69460247D01*
X115832854Y-69279688D01*
X115785731Y-69282162D01*
X115786069Y-68894337D01*
X115637507Y-68534788D01*
X115362659Y-68259460D01*
X115003370Y-68110270D01*
X114614337Y-68109931D01*
X114254788Y-68258493D01*
X113979460Y-68533341D01*
X113944350Y-68617896D01*
X113873947Y-68559610D01*
X113411000Y-68417000D01*
X113061000Y-68417000D01*
X112807000Y-68417000D01*
X112458500Y-68417000D01*
X112458500Y-62044798D01*
X112495311Y-61859735D01*
X112561170Y-61761170D01*
X112659735Y-61695311D01*
X112844798Y-61658500D01*
X125698882Y-61658500D01*
X125116955Y-62239411D01*
X125116955Y-62239411D01*
G37*
X125116955Y-62239411D02*
X124777887Y-63055978D01*
X124777115Y-63940143D01*
X125114758Y-64757300D01*
X125739411Y-65383045D01*
X126555978Y-65722113D01*
X127440143Y-65722885D01*
X128257300Y-65385242D01*
X128883045Y-64760589D01*
X129114816Y-64202422D01*
X129198625Y-64405256D01*
X129648376Y-64855793D01*
X130236304Y-65099922D01*
X130872903Y-65100477D01*
X131461256Y-64857375D01*
X131826242Y-64493026D01*
X132188376Y-64855793D01*
X132776304Y-65099922D01*
X133412903Y-65100477D01*
X134001256Y-64857375D01*
X134366242Y-64493026D01*
X134728376Y-64855793D01*
X135316304Y-65099922D01*
X135952903Y-65100477D01*
X136541256Y-64857375D01*
X136771682Y-64627350D01*
X137228255Y-64627350D01*
X137322654Y-64890596D01*
X137919769Y-65111305D01*
X138555893Y-65086707D01*
X139029346Y-64890596D01*
X139123745Y-64627350D01*
X138176000Y-63679605D01*
X137228255Y-64627350D01*
X136771682Y-64627350D01*
X136977250Y-64422141D01*
X137048650Y-64447745D01*
X137996395Y-63500000D01*
X137048650Y-62552255D01*
X136976712Y-62578052D01*
X136771669Y-62372650D01*
X137228255Y-62372650D01*
X138176000Y-63320395D01*
X139123745Y-62372650D01*
X139029346Y-62109404D01*
X138432231Y-61888695D01*
X137796107Y-61913293D01*
X137322654Y-62109404D01*
X137228255Y-62372650D01*
X136771669Y-62372650D01*
X136543624Y-62144207D01*
X135955696Y-61900078D01*
X135319097Y-61899523D01*
X134730744Y-62142625D01*
X134365758Y-62506974D01*
X134003624Y-62144207D01*
X133415696Y-61900078D01*
X132779097Y-61899523D01*
X132190744Y-62142625D01*
X131825758Y-62506974D01*
X131463624Y-62144207D01*
X130875696Y-61900078D01*
X130239097Y-61899523D01*
X129650744Y-62142625D01*
X129200207Y-62592376D01*
X129114756Y-62798165D01*
X128885242Y-62242700D01*
X128302061Y-61658500D01*
X175986672Y-61658500D01*
X177101500Y-62773328D01*
X177101500Y-73914000D01*
X177154670Y-74181305D01*
X177306086Y-74407914D01*
X179641500Y-76743328D01*
X179641500Y-77438882D01*
X179060589Y-76856955D01*
X178244022Y-76517887D01*
X177359857Y-76517115D01*
X176542700Y-76854758D01*
X175916955Y-77479411D01*
X175577887Y-78295978D01*
X175577115Y-79180143D01*
X175914758Y-79997300D01*
X176539411Y-80623045D01*
X177355978Y-80962113D01*
X178240143Y-80962885D01*
X179057300Y-80625242D01*
X179641500Y-80042061D01*
X179641500Y-105378882D01*
X179060589Y-104796955D01*
X178244022Y-104457887D01*
X177359857Y-104457115D01*
X176542700Y-104794758D01*
X175916955Y-105419411D01*
X175577887Y-106235978D01*
X175577115Y-107120143D01*
X175914758Y-107937300D01*
X176539411Y-108563045D01*
X177355978Y-108902113D01*
X178240143Y-108902885D01*
X179057300Y-108565242D01*
X179641500Y-107982061D01*
X179641500Y-108930672D01*
X177306086Y-111266086D01*
X177154670Y-111492695D01*
X177108980Y-111722395D01*
X177101500Y-111760000D01*
X177101500Y-112486672D01*
X175986672Y-113601500D01*
X144270130Y-113601500D01*
X144511664Y-113359967D01*
X145096903Y-113360477D01*
X145685256Y-113117375D01*
X146050242Y-112753026D01*
X146412376Y-113115793D01*
X147000304Y-113359922D01*
X147636903Y-113360477D01*
X148225256Y-113117375D01*
X148590242Y-112753026D01*
X148952376Y-113115793D01*
X149540304Y-113359922D01*
X150176903Y-113360477D01*
X150765256Y-113117375D01*
X150995682Y-112887350D01*
X151452255Y-112887350D01*
X151546654Y-113150596D01*
X152143769Y-113371305D01*
X152779893Y-113346707D01*
X153253346Y-113150596D01*
X153347745Y-112887350D01*
X153992255Y-112887350D01*
X154086654Y-113150596D01*
X154683769Y-113371305D01*
X155319893Y-113346707D01*
X155793346Y-113150596D01*
X155887745Y-112887350D01*
X154940000Y-111939605D01*
X153992255Y-112887350D01*
X153347745Y-112887350D01*
X152400000Y-111939605D01*
X151452255Y-112887350D01*
X150995682Y-112887350D01*
X151201250Y-112682141D01*
X151272650Y-112707745D01*
X152220395Y-111760000D01*
X152579605Y-111760000D01*
X153527350Y-112707745D01*
X153670000Y-112656591D01*
X153812650Y-112707745D01*
X154760395Y-111760000D01*
X153812650Y-110812255D01*
X153670000Y-110863409D01*
X153527350Y-110812255D01*
X152579605Y-111760000D01*
X152220395Y-111760000D01*
X151272650Y-110812255D01*
X151200712Y-110838052D01*
X150835798Y-110472500D01*
X151509684Y-110472500D01*
X151452255Y-110632650D01*
X152400000Y-111580395D01*
X153347745Y-110632650D01*
X153290316Y-110472500D01*
X154049684Y-110472500D01*
X153992255Y-110632650D01*
X154940000Y-111580395D01*
X155887745Y-110632650D01*
X155830316Y-110472500D01*
X156013210Y-110472500D01*
X156258764Y-110718054D01*
X156138750Y-110837859D01*
X156067350Y-110812255D01*
X155119605Y-111760000D01*
X156067350Y-112707745D01*
X156139288Y-112681948D01*
X156572376Y-113115793D01*
X157160304Y-113359922D01*
X157796903Y-113360477D01*
X158385256Y-113117375D01*
X158835793Y-112667624D01*
X159079922Y-112079696D01*
X159079924Y-112076903D01*
X160959523Y-112076903D01*
X161202625Y-112665256D01*
X161652376Y-113115793D01*
X162240304Y-113359922D01*
X162876903Y-113360477D01*
X163465256Y-113117375D01*
X163830242Y-112753026D01*
X164192376Y-113115793D01*
X164780304Y-113359922D01*
X165416903Y-113360477D01*
X166005256Y-113117375D01*
X166370242Y-112753026D01*
X166732376Y-113115793D01*
X167320304Y-113359922D01*
X167956903Y-113360477D01*
X168545256Y-113117375D01*
X168910242Y-112753026D01*
X169272376Y-113115793D01*
X169860304Y-113359922D01*
X170496903Y-113360477D01*
X171085256Y-113117375D01*
X171450242Y-112753026D01*
X171812376Y-113115793D01*
X172400304Y-113359922D01*
X173036903Y-113360477D01*
X173625256Y-113117375D01*
X173990242Y-112753026D01*
X174352376Y-113115793D01*
X174940304Y-113359922D01*
X175576903Y-113360477D01*
X176165256Y-113117375D01*
X176615793Y-112667624D01*
X176859922Y-112079696D01*
X176860477Y-111443097D01*
X176617375Y-110854744D01*
X176167624Y-110404207D01*
X175579696Y-110160078D01*
X174943097Y-110159523D01*
X174354744Y-110402625D01*
X173989758Y-110766974D01*
X173627624Y-110404207D01*
X173039696Y-110160078D01*
X172403097Y-110159523D01*
X171814744Y-110402625D01*
X171449758Y-110766974D01*
X171087624Y-110404207D01*
X170499696Y-110160078D01*
X169863097Y-110159523D01*
X169274744Y-110402625D01*
X168909758Y-110766974D01*
X168547624Y-110404207D01*
X167959696Y-110160078D01*
X167323097Y-110159523D01*
X166734744Y-110402625D01*
X166369758Y-110766974D01*
X166007624Y-110404207D01*
X165419696Y-110160078D01*
X164783097Y-110159523D01*
X164194744Y-110402625D01*
X163829758Y-110766974D01*
X163467624Y-110404207D01*
X162879696Y-110160078D01*
X162243097Y-110159523D01*
X161654744Y-110402625D01*
X161204207Y-110852376D01*
X160960078Y-111440304D01*
X160959523Y-112076903D01*
X159079924Y-112076903D01*
X159080477Y-111443097D01*
X158837375Y-110854744D01*
X158387624Y-110404207D01*
X158371327Y-110397440D01*
X158344867Y-110264421D01*
X158343827Y-110259191D01*
X158141145Y-109955855D01*
X157061645Y-108876355D01*
X156758309Y-108673673D01*
X156400500Y-108602500D01*
X147707290Y-108602500D01*
X146268680Y-107163890D01*
X152101524Y-107163890D01*
X152271355Y-107573924D01*
X152661642Y-108002183D01*
X153186108Y-108248486D01*
X153416000Y-108127819D01*
X153416000Y-106934000D01*
X153670000Y-106934000D01*
X153670000Y-108127819D01*
X153899892Y-108248486D01*
X154424358Y-108002183D01*
X154813000Y-107575729D01*
X155201642Y-108002183D01*
X155726108Y-108248486D01*
X155956000Y-108127819D01*
X155956000Y-106934000D01*
X156210000Y-106934000D01*
X156210000Y-108127819D01*
X156439892Y-108248486D01*
X156964358Y-108002183D01*
X157353000Y-107575729D01*
X157741642Y-108002183D01*
X158266108Y-108248486D01*
X158496000Y-108127819D01*
X158496000Y-106934000D01*
X158750000Y-106934000D01*
X158750000Y-108127819D01*
X158979892Y-108248486D01*
X159504358Y-108002183D01*
X159893000Y-107575729D01*
X160281642Y-108002183D01*
X160806108Y-108248486D01*
X161036000Y-108127819D01*
X161036000Y-106934000D01*
X161290000Y-106934000D01*
X161290000Y-108127819D01*
X161519892Y-108248486D01*
X162044358Y-108002183D01*
X162433000Y-107575729D01*
X162821642Y-108002183D01*
X163346108Y-108248486D01*
X163576000Y-108127819D01*
X163576000Y-106934000D01*
X163830000Y-106934000D01*
X163830000Y-108127819D01*
X164059892Y-108248486D01*
X164584358Y-108002183D01*
X164973000Y-107575729D01*
X165361642Y-108002183D01*
X165886108Y-108248486D01*
X166116000Y-108127819D01*
X166116000Y-106934000D01*
X166370000Y-106934000D01*
X166370000Y-108127819D01*
X166599892Y-108248486D01*
X167124358Y-108002183D01*
X167513000Y-107575729D01*
X167901642Y-108002183D01*
X168426108Y-108248486D01*
X168656000Y-108127819D01*
X168656000Y-106934000D01*
X168910000Y-106934000D01*
X168910000Y-108127819D01*
X169139892Y-108248486D01*
X169664358Y-108002183D01*
X170053000Y-107575729D01*
X170441642Y-108002183D01*
X170966108Y-108248486D01*
X171196000Y-108127819D01*
X171196000Y-106934000D01*
X171450000Y-106934000D01*
X171450000Y-108127819D01*
X171679892Y-108248486D01*
X172204358Y-108002183D01*
X172594645Y-107573924D01*
X172764476Y-107163890D01*
X172643155Y-106934000D01*
X171450000Y-106934000D01*
X171196000Y-106934000D01*
X168910000Y-106934000D01*
X168656000Y-106934000D01*
X166370000Y-106934000D01*
X166116000Y-106934000D01*
X163830000Y-106934000D01*
X163576000Y-106934000D01*
X161290000Y-106934000D01*
X161036000Y-106934000D01*
X158750000Y-106934000D01*
X158496000Y-106934000D01*
X156210000Y-106934000D01*
X155956000Y-106934000D01*
X153670000Y-106934000D01*
X153416000Y-106934000D01*
X152222845Y-106934000D01*
X152101524Y-107163890D01*
X146268680Y-107163890D01*
X143371790Y-104267000D01*
X152028907Y-104267000D01*
X152141946Y-104835285D01*
X152463853Y-105317054D01*
X152804553Y-105544702D01*
X152661642Y-105611817D01*
X152271355Y-106040076D01*
X152101524Y-106450110D01*
X152222845Y-106680000D01*
X153416000Y-106680000D01*
X153416000Y-106660000D01*
X153670000Y-106660000D01*
X153670000Y-106680000D01*
X155956000Y-106680000D01*
X155956000Y-106660000D01*
X156210000Y-106660000D01*
X156210000Y-106680000D01*
X158496000Y-106680000D01*
X158496000Y-106660000D01*
X158750000Y-106660000D01*
X158750000Y-106680000D01*
X161036000Y-106680000D01*
X161036000Y-106660000D01*
X161290000Y-106660000D01*
X161290000Y-106680000D01*
X163576000Y-106680000D01*
X163576000Y-106660000D01*
X163830000Y-106660000D01*
X163830000Y-106680000D01*
X166116000Y-106680000D01*
X166116000Y-106660000D01*
X166370000Y-106660000D01*
X166370000Y-106680000D01*
X168656000Y-106680000D01*
X168656000Y-106660000D01*
X168910000Y-106660000D01*
X168910000Y-106680000D01*
X171196000Y-106680000D01*
X171196000Y-106660000D01*
X171450000Y-106660000D01*
X171450000Y-106680000D01*
X172643155Y-106680000D01*
X172764476Y-106450110D01*
X172594645Y-106040076D01*
X172204358Y-105611817D01*
X172061447Y-105544702D01*
X172402147Y-105317054D01*
X172724054Y-104835285D01*
X172837093Y-104267000D01*
X172724054Y-103698715D01*
X172402147Y-103216946D01*
X172360548Y-103189150D01*
X172408317Y-103180162D01*
X172624441Y-103041090D01*
X172769431Y-102828890D01*
X172820440Y-102577000D01*
X172820440Y-100877000D01*
X172776162Y-100641683D01*
X172637090Y-100425559D01*
X172424890Y-100280569D01*
X172173000Y-100229560D01*
X172058000Y-100229560D01*
X172058000Y-100107750D01*
X173648000Y-100107750D01*
X173648000Y-100548309D01*
X173744673Y-100781698D01*
X173923301Y-100960327D01*
X174156690Y-101057000D01*
X174847250Y-101057000D01*
X175006000Y-100898250D01*
X175006000Y-99949000D01*
X175260000Y-99949000D01*
X175260000Y-100898250D01*
X175418750Y-101057000D01*
X176109310Y-101057000D01*
X176342699Y-100960327D01*
X176521327Y-100781698D01*
X176618000Y-100548309D01*
X176618000Y-100107750D01*
X176459250Y-99949000D01*
X175260000Y-99949000D01*
X175006000Y-99949000D01*
X173806750Y-99949000D01*
X173648000Y-100107750D01*
X172058000Y-100107750D01*
X172058000Y-99695000D01*
X172002051Y-99413728D01*
X171890872Y-99247337D01*
X171842723Y-99175276D01*
X171461723Y-98794277D01*
X171223272Y-98634949D01*
X170942000Y-98579000D01*
X170738447Y-98579000D01*
X169429723Y-97270277D01*
X169191272Y-97110949D01*
X168910000Y-97055000D01*
X161213447Y-97055000D01*
X159777725Y-95619279D01*
X159777723Y-95619276D01*
X158332110Y-94173663D01*
X163613931Y-94173663D01*
X163762493Y-94533212D01*
X164037341Y-94808540D01*
X164396630Y-94957730D01*
X164785663Y-94958069D01*
X165145212Y-94809507D01*
X165420540Y-94534659D01*
X165556596Y-94207000D01*
X166276922Y-94207000D01*
X166555630Y-94322730D01*
X166944663Y-94323069D01*
X167304212Y-94174507D01*
X167579540Y-93899659D01*
X167611786Y-93822000D01*
X173618907Y-93822000D01*
X173712916Y-94294614D01*
X173980630Y-94695277D01*
X174170285Y-94822000D01*
X173980630Y-94948723D01*
X173712916Y-95349386D01*
X173618907Y-95822000D01*
X173712916Y-96294614D01*
X173980630Y-96695277D01*
X174170285Y-96822000D01*
X173980630Y-96948723D01*
X173712916Y-97349386D01*
X173618907Y-97822000D01*
X173712916Y-98294614D01*
X173962130Y-98667590D01*
X173923301Y-98683673D01*
X173744673Y-98862302D01*
X173648000Y-99095691D01*
X173648000Y-99536250D01*
X173806750Y-99695000D01*
X175006000Y-99695000D01*
X175006000Y-99675000D01*
X175260000Y-99675000D01*
X175260000Y-99695000D01*
X176459250Y-99695000D01*
X176618000Y-99536250D01*
X176618000Y-99095691D01*
X176521327Y-98862302D01*
X176342699Y-98683673D01*
X176303870Y-98667590D01*
X176553084Y-98294614D01*
X176647093Y-97822000D01*
X176553084Y-97349386D01*
X176285370Y-96948723D01*
X176095715Y-96822000D01*
X176285370Y-96695277D01*
X176553084Y-96294614D01*
X176647093Y-95822000D01*
X176553084Y-95349386D01*
X176285370Y-94948723D01*
X176095715Y-94822000D01*
X176285370Y-94695277D01*
X176553084Y-94294614D01*
X176647093Y-93822000D01*
X176553084Y-93349386D01*
X176285370Y-92948723D01*
X175884707Y-92681009D01*
X175412093Y-92587000D01*
X174853907Y-92587000D01*
X174381293Y-92681009D01*
X173980630Y-92948723D01*
X173712916Y-93349386D01*
X173618907Y-93822000D01*
X167611786Y-93822000D01*
X167728730Y-93540370D01*
X167729069Y-93151337D01*
X167580507Y-92791788D01*
X167305659Y-92516460D01*
X166946370Y-92367270D01*
X166557337Y-92366931D01*
X166197788Y-92515493D01*
X165975894Y-92737000D01*
X165100000Y-92737000D01*
X164865394Y-92783667D01*
X164818727Y-92792949D01*
X164580276Y-92952277D01*
X164530507Y-93002046D01*
X164398337Y-93001931D01*
X164038788Y-93150493D01*
X163763460Y-93425341D01*
X163614270Y-93784630D01*
X163613931Y-94173663D01*
X158332110Y-94173663D01*
X156044843Y-91886397D01*
X156045069Y-91627337D01*
X155896507Y-91267788D01*
X155621659Y-90992460D01*
X155262370Y-90843270D01*
X154873337Y-90842931D01*
X154513788Y-90991493D01*
X154354480Y-91150523D01*
X154245507Y-90886788D01*
X153970659Y-90611460D01*
X153611370Y-90462270D01*
X153222337Y-90461931D01*
X152862788Y-90610493D01*
X152587460Y-90885341D01*
X152438270Y-91244630D01*
X152437931Y-91633663D01*
X152586493Y-91993212D01*
X152861341Y-92268540D01*
X153220630Y-92417730D01*
X153354401Y-92417847D01*
X160262276Y-99325723D01*
X160434801Y-99441000D01*
X160500728Y-99485051D01*
X160782000Y-99541000D01*
X167081554Y-99541000D01*
X167795909Y-100255356D01*
X167697683Y-100273838D01*
X167510923Y-100394015D01*
X167344890Y-100280569D01*
X167093000Y-100229560D01*
X165393000Y-100229560D01*
X165157683Y-100273838D01*
X164970923Y-100394015D01*
X164804890Y-100280569D01*
X164553000Y-100229560D01*
X162853000Y-100229560D01*
X162617683Y-100273838D01*
X162430923Y-100394015D01*
X162264890Y-100280569D01*
X162013000Y-100229560D01*
X160313000Y-100229560D01*
X160077683Y-100273838D01*
X159890923Y-100394015D01*
X159724890Y-100280569D01*
X159473000Y-100229560D01*
X157773000Y-100229560D01*
X157537683Y-100273838D01*
X157350923Y-100394015D01*
X157184890Y-100280569D01*
X156933000Y-100229560D01*
X155233000Y-100229560D01*
X154997683Y-100273838D01*
X154810923Y-100394015D01*
X154644890Y-100280569D01*
X154393000Y-100229560D01*
X152693000Y-100229560D01*
X152457683Y-100273838D01*
X152241559Y-100412910D01*
X152096569Y-100625110D01*
X152045560Y-100877000D01*
X152045560Y-102577000D01*
X152089838Y-102812317D01*
X152228910Y-103028441D01*
X152441110Y-103173431D01*
X152508541Y-103187086D01*
X152463853Y-103216946D01*
X152141946Y-103698715D01*
X152028907Y-104267000D01*
X143371790Y-104267000D01*
X143282145Y-104177355D01*
X142978809Y-103974673D01*
X142621000Y-103903500D01*
X138880790Y-103903500D01*
X129713000Y-94735710D01*
X129713000Y-93919663D01*
X130212931Y-93919663D01*
X130361493Y-94279212D01*
X130636341Y-94554540D01*
X130995630Y-94703730D01*
X131384663Y-94704069D01*
X131744212Y-94555507D01*
X132019540Y-94280659D01*
X132168730Y-93921370D01*
X132169069Y-93532337D01*
X132053000Y-93251427D01*
X132053000Y-92252446D01*
X132776493Y-91528954D01*
X132908663Y-91529069D01*
X133268212Y-91380507D01*
X133543540Y-91105659D01*
X133692730Y-90746370D01*
X133693069Y-90357337D01*
X133544507Y-89997788D01*
X133269659Y-89722460D01*
X132910370Y-89573270D01*
X132521337Y-89572931D01*
X132161788Y-89721493D01*
X131886460Y-89996341D01*
X131737270Y-90355630D01*
X131737153Y-90489400D01*
X130798277Y-91428277D01*
X130638949Y-91666728D01*
X130583000Y-91948000D01*
X130583000Y-92951185D01*
X130362460Y-93171341D01*
X130213270Y-93530630D01*
X130212931Y-93919663D01*
X129713000Y-93919663D01*
X129713000Y-93643275D01*
X129755730Y-93540370D01*
X129756069Y-93151337D01*
X129607507Y-92791788D01*
X129332659Y-92516460D01*
X128973370Y-92367270D01*
X128584337Y-92366931D01*
X128224788Y-92515493D01*
X127949460Y-92790341D01*
X127800270Y-93149630D01*
X127799931Y-93538663D01*
X127843000Y-93642898D01*
X127843000Y-95123000D01*
X127914173Y-95480809D01*
X128116855Y-95784145D01*
X137832355Y-105499645D01*
X138135691Y-105702327D01*
X138493500Y-105773500D01*
X142233710Y-105773500D01*
X143040210Y-106580000D01*
X131368447Y-106580000D01*
X127011723Y-102223277D01*
X126773272Y-102063949D01*
X126492000Y-102008000D01*
X120827447Y-102008000D01*
X118812586Y-99993140D01*
X118960730Y-99636370D01*
X118961069Y-99247337D01*
X118812507Y-98887788D01*
X118537659Y-98612460D01*
X118178370Y-98463270D01*
X117789337Y-98462931D01*
X117429788Y-98611493D01*
X117154460Y-98886341D01*
X117005270Y-99245630D01*
X117004931Y-99634663D01*
X117153493Y-99994212D01*
X117248000Y-100088884D01*
X117248000Y-100203000D01*
X117297727Y-100452993D01*
X117303949Y-100484272D01*
X117463277Y-100722723D01*
X120003276Y-103262723D01*
X120241727Y-103422051D01*
X120288394Y-103431333D01*
X120481924Y-103469829D01*
X120447569Y-103520110D01*
X120396560Y-103772000D01*
X120396560Y-108283629D01*
X120232287Y-108215928D01*
X119568719Y-108217111D01*
X119507721Y-108156113D01*
X119920010Y-107886600D01*
X120380072Y-106770287D01*
X120377919Y-105562891D01*
X119920010Y-104457400D01*
X119507719Y-104187886D01*
X117523605Y-106172000D01*
X117537748Y-106186143D01*
X117358143Y-106365748D01*
X117344000Y-106351605D01*
X115359886Y-108335719D01*
X115629400Y-108748010D01*
X116745713Y-109208072D01*
X117409281Y-109206889D01*
X117470279Y-109267887D01*
X117057990Y-109537400D01*
X116597928Y-110653713D01*
X116600081Y-111861109D01*
X117057990Y-112966600D01*
X117470281Y-113236114D01*
X119454395Y-111252000D01*
X119440253Y-111237858D01*
X119619858Y-111058253D01*
X119634000Y-111072395D01*
X119648143Y-111058253D01*
X119827748Y-111237858D01*
X119813605Y-111252000D01*
X121797719Y-113236114D01*
X122210010Y-112966600D01*
X122670072Y-111850287D01*
X122667919Y-110642891D01*
X122210010Y-109537400D01*
X121797721Y-109267887D01*
X121846168Y-109219440D01*
X125844000Y-109219440D01*
X126079317Y-109175162D01*
X126295441Y-109036090D01*
X126440431Y-108823890D01*
X126491440Y-108572000D01*
X126491440Y-103781886D01*
X130544276Y-107834723D01*
X130782727Y-107994051D01*
X130823610Y-108002183D01*
X131064000Y-108050000D01*
X134199099Y-108050000D01*
X133934360Y-108314278D01*
X133677293Y-108933362D01*
X133676708Y-109603697D01*
X133932694Y-110223229D01*
X133964389Y-110254979D01*
X133746542Y-110264421D01*
X133312884Y-110444047D01*
X133229545Y-110697940D01*
X134112000Y-111580395D01*
X134126143Y-111566253D01*
X134305748Y-111745858D01*
X134291605Y-111760000D01*
X134305748Y-111774143D01*
X134126143Y-111953748D01*
X134112000Y-111939605D01*
X134097858Y-111953748D01*
X133918253Y-111774143D01*
X133932395Y-111760000D01*
X133049940Y-110877545D01*
X132796047Y-110960884D01*
X132590410Y-111525306D01*
X132616421Y-112125458D01*
X132796047Y-112559116D01*
X132876426Y-112585500D01*
X131515130Y-112585500D01*
X131083468Y-112153838D01*
X131121738Y-112061675D01*
X131122262Y-111460960D01*
X130892862Y-110905771D01*
X130468463Y-110480630D01*
X129913675Y-110250262D01*
X129755196Y-110250124D01*
X129779640Y-110225722D01*
X130036707Y-109606638D01*
X130037292Y-108936303D01*
X129781306Y-108316771D01*
X129307722Y-107842360D01*
X128688638Y-107585293D01*
X128018303Y-107584708D01*
X127398771Y-107840694D01*
X126924360Y-108314278D01*
X126667293Y-108933362D01*
X126666708Y-109603697D01*
X126735922Y-109771208D01*
X126174022Y-109537887D01*
X125289857Y-109537115D01*
X124472700Y-109874758D01*
X123846955Y-110499411D01*
X123507887Y-111315978D01*
X123507115Y-112200143D01*
X123844758Y-113017300D01*
X124427939Y-113601500D01*
X121496669Y-113601500D01*
X121618114Y-113415719D01*
X119634000Y-111431605D01*
X117649886Y-113415719D01*
X117771331Y-113601500D01*
X112844798Y-113601500D01*
X112659735Y-113564689D01*
X112561170Y-113498830D01*
X112495311Y-113400265D01*
X112458500Y-113215202D01*
X112458500Y-105573713D01*
X114307928Y-105573713D01*
X114310081Y-106781109D01*
X114767990Y-107886600D01*
X115180281Y-108156114D01*
X117164395Y-106172000D01*
X115180281Y-104187886D01*
X114767990Y-104457400D01*
X114307928Y-105573713D01*
X112458500Y-105573713D01*
X112458500Y-104008281D01*
X115359886Y-104008281D01*
X117344000Y-105992395D01*
X119328114Y-104008281D01*
X119058600Y-103595990D01*
X117942287Y-103135928D01*
X116734891Y-103138081D01*
X115629400Y-103595990D01*
X115359886Y-104008281D01*
X112458500Y-104008281D01*
X112458500Y-90558572D01*
X112541646Y-90759800D01*
X112846595Y-91065282D01*
X113245233Y-91230811D01*
X113676873Y-91231188D01*
X114075800Y-91066354D01*
X114381282Y-90761405D01*
X114546811Y-90362767D01*
X114547188Y-89931127D01*
X114382354Y-89532200D01*
X114077405Y-89226718D01*
X113678767Y-89061189D01*
X113247127Y-89060812D01*
X112848200Y-89225646D01*
X112542718Y-89530595D01*
X112458500Y-89733414D01*
X112458500Y-87558572D01*
X112541646Y-87759800D01*
X112846595Y-88065282D01*
X113245233Y-88230811D01*
X113676873Y-88231188D01*
X114075800Y-88066354D01*
X114381282Y-87761405D01*
X114546811Y-87362767D01*
X114547188Y-86931127D01*
X114382354Y-86532200D01*
X114077405Y-86226718D01*
X113678767Y-86061189D01*
X113247127Y-86060812D01*
X112848200Y-86225646D01*
X112542718Y-86530595D01*
X112458500Y-86733414D01*
X112458500Y-81915000D01*
X120931000Y-81915000D01*
X120931000Y-84645500D01*
X120968264Y-84832837D01*
X120986949Y-84926772D01*
X121146277Y-85165223D01*
X122352777Y-86371724D01*
X122565709Y-86514000D01*
X122591228Y-86531051D01*
X122872500Y-86587000D01*
X131102123Y-86587000D01*
X131101931Y-86807663D01*
X131250493Y-87167212D01*
X131525341Y-87442540D01*
X131884630Y-87591730D01*
X132273663Y-87592069D01*
X132633212Y-87443507D01*
X132727884Y-87349000D01*
X143513553Y-87349000D01*
X142538767Y-88323787D01*
X142413659Y-88198460D01*
X142054370Y-88049270D01*
X141665337Y-88048931D01*
X141305788Y-88197493D01*
X141083894Y-88419000D01*
X136157036Y-88419000D01*
X136063659Y-88325460D01*
X135704370Y-88176270D01*
X135315337Y-88175931D01*
X134955788Y-88324493D01*
X134680460Y-88599341D01*
X134531270Y-88958630D01*
X134530931Y-89347663D01*
X134679493Y-89707212D01*
X134954341Y-89982540D01*
X135313630Y-90131730D01*
X135558000Y-90131943D01*
X135558000Y-92170250D01*
X135716750Y-92329000D01*
X136154655Y-92329000D01*
X136154678Y-92329239D01*
X136210405Y-92463776D01*
X136173740Y-92583000D01*
X135716750Y-92583000D01*
X135558000Y-92741750D01*
X135558000Y-94832310D01*
X135654673Y-95065699D01*
X135833302Y-95244327D01*
X136066691Y-95341000D01*
X137382250Y-95341000D01*
X137541000Y-95182250D01*
X137541000Y-94115637D01*
X137623576Y-94120819D01*
X137668000Y-94076395D01*
X137712424Y-94120819D01*
X137795000Y-94115637D01*
X137795000Y-95182250D01*
X137953750Y-95341000D01*
X139269309Y-95341000D01*
X139502698Y-95244327D01*
X139681327Y-95065699D01*
X139778000Y-94832310D01*
X139778000Y-92741750D01*
X139619250Y-92583000D01*
X139181345Y-92583000D01*
X139181322Y-92582761D01*
X139125595Y-92448224D01*
X139162260Y-92329000D01*
X139619250Y-92329000D01*
X139778000Y-92170250D01*
X139778000Y-90079690D01*
X139699014Y-89889000D01*
X141384922Y-89889000D01*
X141663630Y-90004730D01*
X141759000Y-90004813D01*
X141759000Y-90909181D01*
X141559788Y-90991493D01*
X141284460Y-91266341D01*
X141135270Y-91625630D01*
X141134931Y-92014663D01*
X141283493Y-92374212D01*
X141558341Y-92649540D01*
X141917630Y-92798730D01*
X142306663Y-92799069D01*
X142666212Y-92650507D01*
X142941540Y-92375659D01*
X143090730Y-92016370D01*
X143090880Y-91844250D01*
X143173051Y-91721272D01*
X143175570Y-91708607D01*
X143229000Y-91440000D01*
X143229000Y-89712446D01*
X144449447Y-88492000D01*
X147226922Y-88492000D01*
X147505630Y-88607730D01*
X147894663Y-88608069D01*
X148109000Y-88519507D01*
X148109000Y-93037827D01*
X148023370Y-93002270D01*
X147634337Y-93001931D01*
X147274788Y-93150493D01*
X146999460Y-93425341D01*
X146850270Y-93784630D01*
X146849931Y-94173663D01*
X146938493Y-94388000D01*
X146494500Y-94388000D01*
X146213228Y-94443949D01*
X145974776Y-94603277D01*
X140273563Y-100304491D01*
X140204837Y-100304431D01*
X139845288Y-100452993D01*
X139569960Y-100727841D01*
X139420770Y-101087130D01*
X139420431Y-101476163D01*
X139568993Y-101835712D01*
X139843841Y-102111040D01*
X140203130Y-102260230D01*
X140592163Y-102260569D01*
X140951712Y-102112007D01*
X141227040Y-101837159D01*
X141376230Y-101477870D01*
X141376402Y-101280544D01*
X146798947Y-95858000D01*
X148209000Y-95858000D01*
X148490272Y-95802051D01*
X148728723Y-95642723D01*
X149998723Y-94372724D01*
X150158051Y-94134272D01*
X150183313Y-94007272D01*
X150214000Y-93853000D01*
X150214000Y-90143000D01*
X152717500Y-90143000D01*
X152998772Y-90087051D01*
X153237223Y-89927723D01*
X155117447Y-88047500D01*
X158927353Y-88047500D01*
X158957341Y-88077540D01*
X159316630Y-88226730D01*
X159705663Y-88227069D01*
X160065212Y-88078507D01*
X160191747Y-87952193D01*
X163310277Y-91070724D01*
X163523209Y-91213000D01*
X163548728Y-91230051D01*
X163830000Y-91286000D01*
X165481000Y-91286000D01*
X165762272Y-91230051D01*
X166000723Y-91070723D01*
X169925646Y-87145800D01*
X173971977Y-87145800D01*
X174042325Y-87316056D01*
X174405404Y-87679770D01*
X174043907Y-88040636D01*
X173799778Y-88628564D01*
X173799223Y-89265163D01*
X174042325Y-89853516D01*
X174492076Y-90304053D01*
X175080004Y-90548182D01*
X175716603Y-90548737D01*
X176304956Y-90305635D01*
X176535382Y-90075610D01*
X176991955Y-90075610D01*
X177086354Y-90338856D01*
X177683469Y-90559565D01*
X178319593Y-90534967D01*
X178793046Y-90338856D01*
X178887445Y-90075610D01*
X177939700Y-89127865D01*
X176991955Y-90075610D01*
X176535382Y-90075610D01*
X176740950Y-89870401D01*
X176812350Y-89896005D01*
X177760095Y-88948260D01*
X178119305Y-88948260D01*
X179067050Y-89896005D01*
X179330296Y-89801606D01*
X179551005Y-89204491D01*
X179526407Y-88568367D01*
X179330296Y-88094914D01*
X179067050Y-88000515D01*
X178119305Y-88948260D01*
X177760095Y-88948260D01*
X176812350Y-88000515D01*
X176740412Y-88026312D01*
X176393996Y-87679290D01*
X176669942Y-87403826D01*
X177016889Y-87751379D01*
X176991955Y-87820910D01*
X177939700Y-88768655D01*
X178887445Y-87820910D01*
X178862319Y-87750842D01*
X179295493Y-87318424D01*
X179539622Y-86730496D01*
X179540177Y-86093897D01*
X179297075Y-85505544D01*
X178932726Y-85140558D01*
X179295493Y-84778424D01*
X179539622Y-84190496D01*
X179540177Y-83553897D01*
X179297075Y-82965544D01*
X178847324Y-82515007D01*
X178259396Y-82270878D01*
X177622797Y-82270323D01*
X177034444Y-82513425D01*
X176669458Y-82877774D01*
X176307324Y-82515007D01*
X175719396Y-82270878D01*
X175082797Y-82270323D01*
X174494444Y-82513425D01*
X174043907Y-82963176D01*
X173799778Y-83551104D01*
X173799510Y-83858044D01*
X173669337Y-83857931D01*
X173309788Y-84006493D01*
X173191274Y-84124800D01*
X172062088Y-84124800D01*
X170764200Y-82826912D01*
X170764200Y-74649440D01*
X170903000Y-74649440D01*
X171138317Y-74605162D01*
X171325077Y-74484985D01*
X171491110Y-74598431D01*
X171743000Y-74649440D01*
X173443000Y-74649440D01*
X173678317Y-74605162D01*
X173865077Y-74484985D01*
X174031110Y-74598431D01*
X174283000Y-74649440D01*
X175983000Y-74649440D01*
X176218317Y-74605162D01*
X176434441Y-74466090D01*
X176579431Y-74253890D01*
X176630440Y-74002000D01*
X176630440Y-72302000D01*
X176586162Y-72066683D01*
X176447090Y-71850559D01*
X176234890Y-71705569D01*
X176167459Y-71691914D01*
X176212147Y-71662054D01*
X176534054Y-71180285D01*
X176647093Y-70612000D01*
X176534054Y-70043715D01*
X176212147Y-69561946D01*
X175871447Y-69334298D01*
X176014358Y-69267183D01*
X176404645Y-68838924D01*
X176574476Y-68428890D01*
X176453155Y-68199000D01*
X175260000Y-68199000D01*
X175260000Y-68219000D01*
X175006000Y-68219000D01*
X175006000Y-68199000D01*
X172720000Y-68199000D01*
X172720000Y-68219000D01*
X172466000Y-68219000D01*
X172466000Y-68199000D01*
X170180000Y-68199000D01*
X170180000Y-68219000D01*
X169926000Y-68219000D01*
X169926000Y-68199000D01*
X167640000Y-68199000D01*
X167640000Y-68219000D01*
X167386000Y-68219000D01*
X167386000Y-68199000D01*
X165100000Y-68199000D01*
X165100000Y-68219000D01*
X164846000Y-68219000D01*
X164846000Y-68199000D01*
X162560000Y-68199000D01*
X162560000Y-68219000D01*
X162306000Y-68219000D01*
X162306000Y-68199000D01*
X160020000Y-68199000D01*
X160020000Y-68219000D01*
X159766000Y-68219000D01*
X159766000Y-68199000D01*
X157480000Y-68199000D01*
X157480000Y-68219000D01*
X157226000Y-68219000D01*
X157226000Y-68199000D01*
X154940000Y-68199000D01*
X154940000Y-68219000D01*
X154686000Y-68219000D01*
X154686000Y-68199000D01*
X152400000Y-68199000D01*
X152400000Y-68219000D01*
X152146000Y-68219000D01*
X152146000Y-68199000D01*
X149860000Y-68199000D01*
X149860000Y-68219000D01*
X149606000Y-68219000D01*
X149606000Y-68199000D01*
X147320000Y-68199000D01*
X147320000Y-68219000D01*
X147066000Y-68219000D01*
X147066000Y-68199000D01*
X144780000Y-68199000D01*
X144780000Y-68219000D01*
X144526000Y-68219000D01*
X144526000Y-68199000D01*
X142240000Y-68199000D01*
X142240000Y-68219000D01*
X141986000Y-68219000D01*
X141986000Y-68199000D01*
X141966000Y-68199000D01*
X141966000Y-67945000D01*
X141986000Y-67945000D01*
X141986000Y-66751181D01*
X142240000Y-66751181D01*
X142240000Y-67945000D01*
X144526000Y-67945000D01*
X144526000Y-66751181D01*
X144780000Y-66751181D01*
X144780000Y-67945000D01*
X147066000Y-67945000D01*
X147066000Y-66751181D01*
X147320000Y-66751181D01*
X147320000Y-67945000D01*
X149606000Y-67945000D01*
X149606000Y-66751181D01*
X149860000Y-66751181D01*
X149860000Y-67945000D01*
X152146000Y-67945000D01*
X152146000Y-66751181D01*
X152400000Y-66751181D01*
X152400000Y-67945000D01*
X154686000Y-67945000D01*
X154686000Y-66751181D01*
X154940000Y-66751181D01*
X154940000Y-67945000D01*
X157226000Y-67945000D01*
X157226000Y-66751181D01*
X157480000Y-66751181D01*
X157480000Y-67945000D01*
X159766000Y-67945000D01*
X159766000Y-66751181D01*
X160020000Y-66751181D01*
X160020000Y-67945000D01*
X162306000Y-67945000D01*
X162306000Y-66751181D01*
X162560000Y-66751181D01*
X162560000Y-67945000D01*
X164846000Y-67945000D01*
X164846000Y-66751181D01*
X165100000Y-66751181D01*
X165100000Y-67945000D01*
X167386000Y-67945000D01*
X167386000Y-66751181D01*
X167640000Y-66751181D01*
X167640000Y-67945000D01*
X169926000Y-67945000D01*
X169926000Y-66751181D01*
X170180000Y-66751181D01*
X170180000Y-67945000D01*
X172466000Y-67945000D01*
X172466000Y-66751181D01*
X172720000Y-66751181D01*
X172720000Y-67945000D01*
X175006000Y-67945000D01*
X175006000Y-66751181D01*
X175260000Y-66751181D01*
X175260000Y-67945000D01*
X176453155Y-67945000D01*
X176574476Y-67715110D01*
X176404645Y-67305076D01*
X176014358Y-66876817D01*
X175489892Y-66630514D01*
X175260000Y-66751181D01*
X175006000Y-66751181D01*
X174776108Y-66630514D01*
X174251642Y-66876817D01*
X173863000Y-67303271D01*
X173474358Y-66876817D01*
X172949892Y-66630514D01*
X172720000Y-66751181D01*
X172466000Y-66751181D01*
X172236108Y-66630514D01*
X171711642Y-66876817D01*
X171323000Y-67303271D01*
X170934358Y-66876817D01*
X170409892Y-66630514D01*
X170180000Y-66751181D01*
X169926000Y-66751181D01*
X169696108Y-66630514D01*
X169171642Y-66876817D01*
X168783000Y-67303271D01*
X168394358Y-66876817D01*
X167869892Y-66630514D01*
X167640000Y-66751181D01*
X167386000Y-66751181D01*
X167156108Y-66630514D01*
X166631642Y-66876817D01*
X166243000Y-67303271D01*
X165854358Y-66876817D01*
X165329892Y-66630514D01*
X165100000Y-66751181D01*
X164846000Y-66751181D01*
X164616108Y-66630514D01*
X164091642Y-66876817D01*
X163703000Y-67303271D01*
X163314358Y-66876817D01*
X162789892Y-66630514D01*
X162560000Y-66751181D01*
X162306000Y-66751181D01*
X162076108Y-66630514D01*
X161551642Y-66876817D01*
X161163000Y-67303271D01*
X160774358Y-66876817D01*
X160249892Y-66630514D01*
X160020000Y-66751181D01*
X159766000Y-66751181D01*
X159536108Y-66630514D01*
X159011642Y-66876817D01*
X158623000Y-67303271D01*
X158234358Y-66876817D01*
X157709892Y-66630514D01*
X157480000Y-66751181D01*
X157226000Y-66751181D01*
X156996108Y-66630514D01*
X156471642Y-66876817D01*
X156083000Y-67303271D01*
X155694358Y-66876817D01*
X155169892Y-66630514D01*
X154940000Y-66751181D01*
X154686000Y-66751181D01*
X154456108Y-66630514D01*
X153931642Y-66876817D01*
X153543000Y-67303271D01*
X153154358Y-66876817D01*
X152629892Y-66630514D01*
X152400000Y-66751181D01*
X152146000Y-66751181D01*
X151916108Y-66630514D01*
X151391642Y-66876817D01*
X151003000Y-67303271D01*
X150614358Y-66876817D01*
X150089892Y-66630514D01*
X149860000Y-66751181D01*
X149606000Y-66751181D01*
X149376108Y-66630514D01*
X148851642Y-66876817D01*
X148463000Y-67303271D01*
X148074358Y-66876817D01*
X147549892Y-66630514D01*
X147320000Y-66751181D01*
X147066000Y-66751181D01*
X146836108Y-66630514D01*
X146311642Y-66876817D01*
X145923000Y-67303271D01*
X145534358Y-66876817D01*
X145009892Y-66630514D01*
X144780000Y-66751181D01*
X144526000Y-66751181D01*
X144296108Y-66630514D01*
X143771642Y-66876817D01*
X143383000Y-67303271D01*
X142994358Y-66876817D01*
X142469892Y-66630514D01*
X142240000Y-66751181D01*
X141986000Y-66751181D01*
X141756108Y-66630514D01*
X141451000Y-66773801D01*
X141451000Y-64927723D01*
X141621256Y-64857375D01*
X141986242Y-64493026D01*
X142348376Y-64855793D01*
X142936304Y-65099922D01*
X143572903Y-65100477D01*
X144161256Y-64857375D01*
X144526242Y-64493026D01*
X144888376Y-64855793D01*
X145476304Y-65099922D01*
X146112903Y-65100477D01*
X146701256Y-64857375D01*
X147066242Y-64493026D01*
X147428376Y-64855793D01*
X148016304Y-65099922D01*
X148652903Y-65100477D01*
X149241256Y-64857375D01*
X149606242Y-64493026D01*
X149968376Y-64855793D01*
X150556304Y-65099922D01*
X151192903Y-65100477D01*
X151781256Y-64857375D01*
X152146242Y-64493026D01*
X152508376Y-64855793D01*
X153096304Y-65099922D01*
X153732903Y-65100477D01*
X154321256Y-64857375D01*
X154771793Y-64407624D01*
X155015922Y-63819696D01*
X155015924Y-63816903D01*
X155879523Y-63816903D01*
X156122625Y-64405256D01*
X156572376Y-64855793D01*
X157160304Y-65099922D01*
X157796903Y-65100477D01*
X158385256Y-64857375D01*
X158750242Y-64493026D01*
X159112376Y-64855793D01*
X159700304Y-65099922D01*
X160336903Y-65100477D01*
X160925256Y-64857375D01*
X161290242Y-64493026D01*
X161652376Y-64855793D01*
X162240304Y-65099922D01*
X162876903Y-65100477D01*
X163465256Y-64857375D01*
X163830242Y-64493026D01*
X164192376Y-64855793D01*
X164780304Y-65099922D01*
X165416903Y-65100477D01*
X166005256Y-64857375D01*
X166370242Y-64493026D01*
X166732376Y-64855793D01*
X167320304Y-65099922D01*
X167956903Y-65100477D01*
X168545256Y-64857375D01*
X168910242Y-64493026D01*
X169272376Y-64855793D01*
X169860304Y-65099922D01*
X170496903Y-65100477D01*
X171085256Y-64857375D01*
X171450242Y-64493026D01*
X171812376Y-64855793D01*
X172400304Y-65099922D01*
X173036903Y-65100477D01*
X173625256Y-64857375D01*
X173990242Y-64493026D01*
X174352376Y-64855793D01*
X174940304Y-65099922D01*
X175576903Y-65100477D01*
X176165256Y-64857375D01*
X176615793Y-64407624D01*
X176859922Y-63819696D01*
X176860477Y-63183097D01*
X176617375Y-62594744D01*
X176167624Y-62144207D01*
X175579696Y-61900078D01*
X174943097Y-61899523D01*
X174354744Y-62142625D01*
X173989758Y-62506974D01*
X173627624Y-62144207D01*
X173039696Y-61900078D01*
X172403097Y-61899523D01*
X171814744Y-62142625D01*
X171449758Y-62506974D01*
X171087624Y-62144207D01*
X170499696Y-61900078D01*
X169863097Y-61899523D01*
X169274744Y-62142625D01*
X168909758Y-62506974D01*
X168547624Y-62144207D01*
X167959696Y-61900078D01*
X167323097Y-61899523D01*
X166734744Y-62142625D01*
X166369758Y-62506974D01*
X166007624Y-62144207D01*
X165419696Y-61900078D01*
X164783097Y-61899523D01*
X164194744Y-62142625D01*
X163829758Y-62506974D01*
X163467624Y-62144207D01*
X162879696Y-61900078D01*
X162243097Y-61899523D01*
X161654744Y-62142625D01*
X161289758Y-62506974D01*
X160927624Y-62144207D01*
X160339696Y-61900078D01*
X159703097Y-61899523D01*
X159114744Y-62142625D01*
X158749758Y-62506974D01*
X158387624Y-62144207D01*
X157799696Y-61900078D01*
X157163097Y-61899523D01*
X156574744Y-62142625D01*
X156124207Y-62592376D01*
X155880078Y-63180304D01*
X155879523Y-63816903D01*
X155015924Y-63816903D01*
X155016477Y-63183097D01*
X154773375Y-62594744D01*
X154323624Y-62144207D01*
X153735696Y-61900078D01*
X153099097Y-61899523D01*
X152510744Y-62142625D01*
X152145758Y-62506974D01*
X151783624Y-62144207D01*
X151195696Y-61900078D01*
X150559097Y-61899523D01*
X149970744Y-62142625D01*
X149605758Y-62506974D01*
X149243624Y-62144207D01*
X148655696Y-61900078D01*
X148019097Y-61899523D01*
X147430744Y-62142625D01*
X147065758Y-62506974D01*
X146703624Y-62144207D01*
X146115696Y-61900078D01*
X145479097Y-61899523D01*
X144890744Y-62142625D01*
X144525758Y-62506974D01*
X144163624Y-62144207D01*
X143575696Y-61900078D01*
X142939097Y-61899523D01*
X142350744Y-62142625D01*
X141985758Y-62506974D01*
X141623624Y-62144207D01*
X141035696Y-61900078D01*
X140399097Y-61899523D01*
X139810744Y-62142625D01*
X139374750Y-62577859D01*
X139303350Y-62552255D01*
X138355605Y-63500000D01*
X139303350Y-64447745D01*
X139375288Y-64421948D01*
X139808376Y-64855793D01*
X139981000Y-64927473D01*
X139981000Y-72517000D01*
X140007231Y-72648870D01*
X140036949Y-72798272D01*
X140196277Y-73036723D01*
X140615560Y-73456007D01*
X140615560Y-73506272D01*
X139141200Y-72031912D01*
X139141200Y-68643500D01*
X139087063Y-68371336D01*
X138997483Y-68237270D01*
X138932894Y-68140605D01*
X136964394Y-66172106D01*
X136733665Y-66017937D01*
X136461500Y-65963800D01*
X130619500Y-65963800D01*
X130392490Y-66008955D01*
X130347335Y-66017937D01*
X130116606Y-66172106D01*
X128402106Y-67886606D01*
X128247937Y-68117335D01*
X128219859Y-68258493D01*
X128193800Y-68389500D01*
X128193800Y-71781706D01*
X128076460Y-71898841D01*
X127927270Y-72258130D01*
X127926955Y-72620029D01*
X127822460Y-72724341D01*
X127673270Y-73083630D01*
X127672931Y-73472663D01*
X127821493Y-73832212D01*
X128096341Y-74107540D01*
X128455630Y-74256730D01*
X128462290Y-74256736D01*
X129197046Y-74991493D01*
X129196931Y-75123663D01*
X129345493Y-75483212D01*
X129620341Y-75758540D01*
X129979630Y-75907730D01*
X130202000Y-75907924D01*
X130202000Y-76584553D01*
X128612954Y-74995508D01*
X128613069Y-74863337D01*
X128464507Y-74503788D01*
X128189659Y-74228460D01*
X127830370Y-74079270D01*
X127441337Y-74078931D01*
X127160427Y-74195000D01*
X125349000Y-74195000D01*
X125114394Y-74241667D01*
X125067727Y-74250949D01*
X124829276Y-74410277D01*
X123763508Y-75476046D01*
X123631337Y-75475931D01*
X123271788Y-75624493D01*
X122996460Y-75899341D01*
X122847270Y-76258630D01*
X122846931Y-76647663D01*
X122995493Y-77007212D01*
X123270341Y-77282540D01*
X123629630Y-77431730D01*
X124018663Y-77432069D01*
X124378212Y-77283507D01*
X124653540Y-77008659D01*
X124802730Y-76649370D01*
X124802847Y-76515600D01*
X125653447Y-75665000D01*
X126860185Y-75665000D01*
X127080341Y-75885540D01*
X127439630Y-76034730D01*
X127573400Y-76034847D01*
X129186000Y-77647447D01*
X129186000Y-79756000D01*
X129197339Y-79813005D01*
X128846370Y-79667270D01*
X128678913Y-79667124D01*
X128201394Y-79189606D01*
X127970665Y-79035437D01*
X127698500Y-78981300D01*
X122845684Y-78981300D01*
X122665159Y-78800460D01*
X122305870Y-78651270D01*
X121916837Y-78650931D01*
X121557288Y-78799493D01*
X121281960Y-79074341D01*
X121132770Y-79433630D01*
X121132431Y-79822663D01*
X121280993Y-80182212D01*
X121555841Y-80457540D01*
X121832942Y-80572603D01*
X121831270Y-80576630D01*
X121831153Y-80710400D01*
X121146277Y-81395277D01*
X120986949Y-81633728D01*
X120931000Y-81915000D01*
X112458500Y-81915000D01*
X112458500Y-77887000D01*
X112807000Y-77887000D01*
X112807000Y-76779000D01*
X112787000Y-76779000D01*
X112787000Y-76525000D01*
X112807000Y-76525000D01*
X112807000Y-75417000D01*
X112458500Y-75417000D01*
X112458500Y-70887000D01*
X112807000Y-70887000D01*
X112807000Y-69779000D01*
X112787000Y-69779000D01*
X112787000Y-69525000D01*
X112807000Y-69525000D01*
X112807000Y-68417000D01*
X113061000Y-68417000D01*
X113061000Y-69525000D01*
X113081000Y-69525000D01*
X113081000Y-69779000D01*
X113061000Y-69779000D01*
X113061000Y-70887000D01*
X113411000Y-70887000D01*
X113515000Y-70854963D01*
X113515000Y-75449037D01*
X113411000Y-75417000D01*
X113061000Y-75417000D01*
X113061000Y-76525000D01*
X113081000Y-76525000D01*
X113081000Y-76779000D01*
X113061000Y-76779000D01*
X113061000Y-77887000D01*
X113411000Y-77887000D01*
X113449245Y-77875219D01*
X113448931Y-78235163D01*
X113597493Y-78594712D01*
X113872341Y-78870040D01*
X114231630Y-79019230D01*
X114620663Y-79019569D01*
X114980212Y-78871007D01*
X115255540Y-78596159D01*
X115404730Y-78236870D01*
X115404785Y-78173873D01*
X115426579Y-78152079D01*
X115596745Y-77897406D01*
X115656500Y-77597000D01*
X115656500Y-77012692D01*
X115975444Y-76995949D01*
X116342878Y-76843753D01*
X116407793Y-76605398D01*
X115634000Y-75831605D01*
X115619858Y-75845748D01*
X115440253Y-75666143D01*
X115454395Y-75652000D01*
X115813605Y-75652000D01*
X116587398Y-76425793D01*
X116825753Y-76360878D01*
X117006312Y-75850854D01*
X116977949Y-75310556D01*
X116825753Y-74943122D01*
X116587398Y-74878207D01*
X115813605Y-75652000D01*
X115454395Y-75652000D01*
X115440253Y-75637858D01*
X115619858Y-75458253D01*
X115634000Y-75472395D01*
X116407793Y-74698602D01*
X116342878Y-74460247D01*
X115832854Y-74279688D01*
X115292556Y-74308051D01*
X115085000Y-74394023D01*
X115085000Y-71900353D01*
X115435146Y-72024312D01*
X115975444Y-71995949D01*
X116342878Y-71843753D01*
X116407793Y-71605398D01*
X115634000Y-70831605D01*
X115619858Y-70845748D01*
X115440253Y-70666143D01*
X115454395Y-70652000D01*
X115813605Y-70652000D01*
X116587398Y-71425793D01*
X116825753Y-71360878D01*
X117006312Y-70850854D01*
X116977949Y-70310556D01*
X116825753Y-69943122D01*
X116587398Y-69878207D01*
X115813605Y-70652000D01*
X115454395Y-70652000D01*
X115440253Y-70637858D01*
X115619858Y-70458253D01*
X115634000Y-70472395D01*
X116407793Y-69698602D01*
X116342878Y-69460247D01*
X115832854Y-69279688D01*
X115785731Y-69282162D01*
X115786069Y-68894337D01*
X115637507Y-68534788D01*
X115362659Y-68259460D01*
X115003370Y-68110270D01*
X114614337Y-68109931D01*
X114254788Y-68258493D01*
X113979460Y-68533341D01*
X113944350Y-68617896D01*
X113873947Y-68559610D01*
X113411000Y-68417000D01*
X113061000Y-68417000D01*
X112807000Y-68417000D01*
X112458500Y-68417000D01*
X112458500Y-62044798D01*
X112495311Y-61859735D01*
X112561170Y-61761170D01*
X112659735Y-61695311D01*
X112844798Y-61658500D01*
X125698882Y-61658500D01*
X125116955Y-62239411D01*
G36*
X168136277Y-81545723D02*
X168175000Y-81584446D01*
X168175000Y-85039554D01*
X168136277Y-85078277D01*
X168063429Y-85187301D01*
X168027849Y-85134051D01*
X167905723Y-84951276D01*
X167867000Y-84912553D01*
X167867000Y-81838447D01*
X167905723Y-81799724D01*
X168065051Y-81561272D01*
X168082091Y-81475606D01*
X168083774Y-81467147D01*
X168136277Y-81545723D01*
X168136277Y-81545723D01*
G37*
X168136277Y-81545723D02*
X168175000Y-81584446D01*
X168175000Y-85039554D01*
X168136277Y-85078277D01*
X168063429Y-85187301D01*
X168027849Y-85134051D01*
X167905723Y-84951276D01*
X167867000Y-84912553D01*
X167867000Y-81838447D01*
X167905723Y-81799724D01*
X168065051Y-81561272D01*
X168082091Y-81475606D01*
X168083774Y-81467147D01*
X168136277Y-81545723D01*
G36*
X145686147Y-110403594D02*
X145099696Y-110160078D01*
X144463097Y-110159523D01*
X143874744Y-110402625D01*
X143509758Y-110766974D01*
X143147624Y-110404207D01*
X142559696Y-110160078D01*
X141923097Y-110159523D01*
X141334744Y-110402625D01*
X140969758Y-110766974D01*
X140607624Y-110404207D01*
X140019696Y-110160078D01*
X139383097Y-110159523D01*
X138794744Y-110402625D01*
X138344207Y-110852376D01*
X138100078Y-111440304D01*
X138099523Y-112076903D01*
X138309671Y-112585500D01*
X135347574Y-112585500D01*
X135427953Y-112559116D01*
X135633590Y-111994694D01*
X135607579Y-111394542D01*
X135427953Y-110960884D01*
X135410158Y-110955043D01*
X135695697Y-110955292D01*
X136315229Y-110699306D01*
X136789640Y-110225722D01*
X137046707Y-109606638D01*
X137047292Y-108936303D01*
X136791306Y-108316771D01*
X136525000Y-108050000D01*
X143332554Y-108050000D01*
X145686147Y-110403594D01*
X145686147Y-110403594D01*
G37*
X145686147Y-110403594D02*
X145099696Y-110160078D01*
X144463097Y-110159523D01*
X143874744Y-110402625D01*
X143509758Y-110766974D01*
X143147624Y-110404207D01*
X142559696Y-110160078D01*
X141923097Y-110159523D01*
X141334744Y-110402625D01*
X140969758Y-110766974D01*
X140607624Y-110404207D01*
X140019696Y-110160078D01*
X139383097Y-110159523D01*
X138794744Y-110402625D01*
X138344207Y-110852376D01*
X138100078Y-111440304D01*
X138099523Y-112076903D01*
X138309671Y-112585500D01*
X135347574Y-112585500D01*
X135427953Y-112559116D01*
X135633590Y-111994694D01*
X135607579Y-111394542D01*
X135427953Y-110960884D01*
X135410158Y-110955043D01*
X135695697Y-110955292D01*
X136315229Y-110699306D01*
X136789640Y-110225722D01*
X137046707Y-109606638D01*
X137047292Y-108936303D01*
X136791306Y-108316771D01*
X136525000Y-108050000D01*
X143332554Y-108050000D01*
X145686147Y-110403594D01*
M02*
