%TF.GenerationSoftware,KiCad,Pcbnew,4.0.7*%
%TF.CreationDate,2018-06-08T10:12:50+02:00*%
%TF.ProjectId,Grape,47726170652E6B696361645F70636200,rev?*%
%TF.FileFunction,Legend,Bot*%
%FSLAX46Y46*%
G04 Gerber Fmt 4.6, Leading zero omitted, Abs format (unit mm)*
G04 Created by KiCad (PCBNEW 4.0.7) date 06/08/18 10:12:50*
%MOMM*%
%LPD*%
G01*
G04 APERTURE LIST*
%ADD10C,0.150000*%
%ADD11C,0.127000*%
%ADD12C,0.200000*%
%ADD13C,0.010000*%
G04 APERTURE END LIST*
D10*
D11*
X176276000Y-114300000D02*
X112776000Y-114300000D01*
X177800000Y-112776000D02*
X177800000Y-111760000D01*
X177800000Y-112776000D02*
X176276000Y-114300000D01*
X176276000Y-60960000D02*
X112776000Y-60960000D01*
X111760000Y-61976000D02*
X111760000Y-113284000D01*
X111760000Y-113284000D02*
G75*
G03X112776000Y-114300000I1016000J0D01*
G01*
X112776000Y-60960000D02*
G75*
G03X111760000Y-61976000I0J-1016000D01*
G01*
X175983142Y-65203429D02*
X175983142Y-65346286D01*
X176125999Y-65289143D02*
X175983142Y-65346286D01*
X175840284Y-65289143D01*
X176068856Y-65460571D02*
X175983142Y-65346286D01*
X175897427Y-65460571D01*
X175668856Y-65203429D02*
X175525999Y-65803429D01*
X175411713Y-65374857D01*
X175297427Y-65803429D01*
X175154570Y-65203429D01*
X174840285Y-65803429D02*
X174897427Y-65774857D01*
X174925999Y-65746286D01*
X174954570Y-65689143D01*
X174954570Y-65517714D01*
X174925999Y-65460571D01*
X174897427Y-65432000D01*
X174840285Y-65403429D01*
X174754570Y-65403429D01*
X174697427Y-65432000D01*
X174668856Y-65460571D01*
X174640285Y-65517714D01*
X174640285Y-65689143D01*
X174668856Y-65746286D01*
X174697427Y-65774857D01*
X174754570Y-65803429D01*
X174840285Y-65803429D01*
X174383142Y-65803429D02*
X174383142Y-65403429D01*
X174383142Y-65517714D02*
X174354570Y-65460571D01*
X174325999Y-65432000D01*
X174268856Y-65403429D01*
X174211713Y-65403429D01*
X174011713Y-65803429D02*
X174011713Y-65203429D01*
X173954570Y-65574857D02*
X173783141Y-65803429D01*
X173783141Y-65403429D02*
X174011713Y-65632000D01*
X173554570Y-65774857D02*
X173497427Y-65803429D01*
X173383142Y-65803429D01*
X173325999Y-65774857D01*
X173297427Y-65717714D01*
X173297427Y-65689143D01*
X173325999Y-65632000D01*
X173383142Y-65603429D01*
X173468856Y-65603429D01*
X173525999Y-65574857D01*
X173554570Y-65517714D01*
X173554570Y-65489143D01*
X173525999Y-65432000D01*
X173468856Y-65403429D01*
X173383142Y-65403429D01*
X173325999Y-65432000D01*
X172325999Y-65803429D02*
X172325999Y-65489143D01*
X172354570Y-65432000D01*
X172411713Y-65403429D01*
X172525999Y-65403429D01*
X172583142Y-65432000D01*
X172325999Y-65774857D02*
X172383142Y-65803429D01*
X172525999Y-65803429D01*
X172583142Y-65774857D01*
X172611713Y-65717714D01*
X172611713Y-65660571D01*
X172583142Y-65603429D01*
X172525999Y-65574857D01*
X172383142Y-65574857D01*
X172325999Y-65546286D01*
X172068856Y-65774857D02*
X172011713Y-65803429D01*
X171897428Y-65803429D01*
X171840285Y-65774857D01*
X171811713Y-65717714D01*
X171811713Y-65689143D01*
X171840285Y-65632000D01*
X171897428Y-65603429D01*
X171983142Y-65603429D01*
X172040285Y-65574857D01*
X172068856Y-65517714D01*
X172068856Y-65489143D01*
X172040285Y-65432000D01*
X171983142Y-65403429D01*
X171897428Y-65403429D01*
X171840285Y-65432000D01*
X170840285Y-65803429D02*
X170840285Y-65489143D01*
X170868856Y-65432000D01*
X170925999Y-65403429D01*
X171040285Y-65403429D01*
X171097428Y-65432000D01*
X170840285Y-65774857D02*
X170897428Y-65803429D01*
X171040285Y-65803429D01*
X171097428Y-65774857D01*
X171125999Y-65717714D01*
X171125999Y-65660571D01*
X171097428Y-65603429D01*
X171040285Y-65574857D01*
X170897428Y-65574857D01*
X170840285Y-65546286D01*
X170554571Y-65403429D02*
X170554571Y-65803429D01*
X170554571Y-65460571D02*
X170525999Y-65432000D01*
X170468857Y-65403429D01*
X170383142Y-65403429D01*
X170325999Y-65432000D01*
X170297428Y-65489143D01*
X170297428Y-65803429D01*
X169583142Y-65632000D02*
X169297428Y-65632000D01*
X169640285Y-65803429D02*
X169440285Y-65203429D01*
X169240285Y-65803429D01*
X169040285Y-65803429D02*
X169040285Y-65403429D01*
X169040285Y-65517714D02*
X169011713Y-65460571D01*
X168983142Y-65432000D01*
X168925999Y-65403429D01*
X168868856Y-65403429D01*
X168411713Y-65803429D02*
X168411713Y-65203429D01*
X168411713Y-65774857D02*
X168468856Y-65803429D01*
X168583142Y-65803429D01*
X168640284Y-65774857D01*
X168668856Y-65746286D01*
X168697427Y-65689143D01*
X168697427Y-65517714D01*
X168668856Y-65460571D01*
X168640284Y-65432000D01*
X168583142Y-65403429D01*
X168468856Y-65403429D01*
X168411713Y-65432000D01*
X167868856Y-65403429D02*
X167868856Y-65803429D01*
X168125999Y-65403429D02*
X168125999Y-65717714D01*
X168097427Y-65774857D01*
X168040285Y-65803429D01*
X167954570Y-65803429D01*
X167897427Y-65774857D01*
X167868856Y-65746286D01*
X167583142Y-65803429D02*
X167583142Y-65403429D01*
X167583142Y-65203429D02*
X167611713Y-65232000D01*
X167583142Y-65260571D01*
X167554570Y-65232000D01*
X167583142Y-65203429D01*
X167583142Y-65260571D01*
X167297428Y-65403429D02*
X167297428Y-65803429D01*
X167297428Y-65460571D02*
X167268856Y-65432000D01*
X167211714Y-65403429D01*
X167125999Y-65403429D01*
X167068856Y-65432000D01*
X167040285Y-65489143D01*
X167040285Y-65803429D01*
X166668857Y-65803429D02*
X166725999Y-65774857D01*
X166754571Y-65746286D01*
X166783142Y-65689143D01*
X166783142Y-65517714D01*
X166754571Y-65460571D01*
X166725999Y-65432000D01*
X166668857Y-65403429D01*
X166583142Y-65403429D01*
X166525999Y-65432000D01*
X166497428Y-65460571D01*
X166468857Y-65517714D01*
X166468857Y-65689143D01*
X166497428Y-65746286D01*
X166525999Y-65774857D01*
X166583142Y-65803429D01*
X166668857Y-65803429D01*
X165754571Y-65803429D02*
X165754571Y-65203429D01*
X165411714Y-65803429D01*
X165411714Y-65203429D01*
X164868857Y-65803429D02*
X164868857Y-65489143D01*
X164897428Y-65432000D01*
X164954571Y-65403429D01*
X165068857Y-65403429D01*
X165126000Y-65432000D01*
X164868857Y-65774857D02*
X164926000Y-65803429D01*
X165068857Y-65803429D01*
X165126000Y-65774857D01*
X165154571Y-65717714D01*
X165154571Y-65660571D01*
X165126000Y-65603429D01*
X165068857Y-65574857D01*
X164926000Y-65574857D01*
X164868857Y-65546286D01*
X164583143Y-65403429D02*
X164583143Y-65803429D01*
X164583143Y-65460571D02*
X164554571Y-65432000D01*
X164497429Y-65403429D01*
X164411714Y-65403429D01*
X164354571Y-65432000D01*
X164326000Y-65489143D01*
X164326000Y-65803429D01*
X163954572Y-65803429D02*
X164011714Y-65774857D01*
X164040286Y-65746286D01*
X164068857Y-65689143D01*
X164068857Y-65517714D01*
X164040286Y-65460571D01*
X164011714Y-65432000D01*
X163954572Y-65403429D01*
X163868857Y-65403429D01*
X163811714Y-65432000D01*
X163783143Y-65460571D01*
X163754572Y-65517714D01*
X163754572Y-65689143D01*
X163783143Y-65746286D01*
X163811714Y-65774857D01*
X163868857Y-65803429D01*
X163954572Y-65803429D01*
X172973904Y-99322000D02*
X173069142Y-99274381D01*
X173211999Y-99274381D01*
X173354857Y-99322000D01*
X173450095Y-99417238D01*
X173497714Y-99512476D01*
X173545333Y-99702952D01*
X173545333Y-99845810D01*
X173497714Y-100036286D01*
X173450095Y-100131524D01*
X173354857Y-100226762D01*
X173211999Y-100274381D01*
X173116761Y-100274381D01*
X172973904Y-100226762D01*
X172926285Y-100179143D01*
X172926285Y-99845810D01*
X173116761Y-99845810D01*
X172497714Y-100274381D02*
X172497714Y-99274381D01*
X171926285Y-100274381D01*
X171926285Y-99274381D01*
X171450095Y-100274381D02*
X171450095Y-99274381D01*
X171212000Y-99274381D01*
X171069142Y-99322000D01*
X170973904Y-99417238D01*
X170926285Y-99512476D01*
X170878666Y-99702952D01*
X170878666Y-99845810D01*
X170926285Y-100036286D01*
X170973904Y-100131524D01*
X171069142Y-100226762D01*
X171212000Y-100274381D01*
X171450095Y-100274381D01*
X172910476Y-97242381D02*
X173386667Y-97242381D01*
X173434286Y-97718571D01*
X173386667Y-97670952D01*
X173291429Y-97623333D01*
X173053333Y-97623333D01*
X172958095Y-97670952D01*
X172910476Y-97718571D01*
X172862857Y-97813810D01*
X172862857Y-98051905D01*
X172910476Y-98147143D01*
X172958095Y-98194762D01*
X173053333Y-98242381D01*
X173291429Y-98242381D01*
X173386667Y-98194762D01*
X173434286Y-98147143D01*
X172577143Y-97242381D02*
X172243810Y-98242381D01*
X171910476Y-97242381D01*
X173402476Y-96162762D02*
X173259619Y-96210381D01*
X173021523Y-96210381D01*
X172926285Y-96162762D01*
X172878666Y-96115143D01*
X172831047Y-96019905D01*
X172831047Y-95924667D01*
X172878666Y-95829429D01*
X172926285Y-95781810D01*
X173021523Y-95734190D01*
X173212000Y-95686571D01*
X173307238Y-95638952D01*
X173354857Y-95591333D01*
X173402476Y-95496095D01*
X173402476Y-95400857D01*
X173354857Y-95305619D01*
X173307238Y-95258000D01*
X173212000Y-95210381D01*
X172973904Y-95210381D01*
X172831047Y-95258000D01*
X171831047Y-96115143D02*
X171878666Y-96162762D01*
X172021523Y-96210381D01*
X172116761Y-96210381D01*
X172259619Y-96162762D01*
X172354857Y-96067524D01*
X172402476Y-95972286D01*
X172450095Y-95781810D01*
X172450095Y-95638952D01*
X172402476Y-95448476D01*
X172354857Y-95353238D01*
X172259619Y-95258000D01*
X172116761Y-95210381D01*
X172021523Y-95210381D01*
X171878666Y-95258000D01*
X171831047Y-95305619D01*
X170926285Y-96210381D02*
X171402476Y-96210381D01*
X171402476Y-95210381D01*
X173426286Y-94130762D02*
X173283429Y-94178381D01*
X173045333Y-94178381D01*
X172950095Y-94130762D01*
X172902476Y-94083143D01*
X172854857Y-93987905D01*
X172854857Y-93892667D01*
X172902476Y-93797429D01*
X172950095Y-93749810D01*
X173045333Y-93702190D01*
X173235810Y-93654571D01*
X173331048Y-93606952D01*
X173378667Y-93559333D01*
X173426286Y-93464095D01*
X173426286Y-93368857D01*
X173378667Y-93273619D01*
X173331048Y-93226000D01*
X173235810Y-93178381D01*
X172997714Y-93178381D01*
X172854857Y-93226000D01*
X172426286Y-94178381D02*
X172426286Y-93178381D01*
X172188191Y-93178381D01*
X172045333Y-93226000D01*
X171950095Y-93321238D01*
X171902476Y-93416476D01*
X171854857Y-93606952D01*
X171854857Y-93749810D01*
X171902476Y-93940286D01*
X171950095Y-94035524D01*
X172045333Y-94130762D01*
X172188191Y-94178381D01*
X172426286Y-94178381D01*
X171473905Y-93892667D02*
X170997714Y-93892667D01*
X171569143Y-94178381D02*
X171235810Y-93178381D01*
X170902476Y-94178381D01*
D12*
X113339619Y-112013453D02*
X114339619Y-112013453D01*
X114339619Y-111775358D01*
X114292000Y-111632500D01*
X114196762Y-111537262D01*
X114101524Y-111489643D01*
X113911048Y-111442024D01*
X113768190Y-111442024D01*
X113577714Y-111489643D01*
X113482476Y-111537262D01*
X113387238Y-111632500D01*
X113339619Y-111775358D01*
X113339619Y-112013453D01*
X113434857Y-110442024D02*
X113387238Y-110489643D01*
X113339619Y-110632500D01*
X113339619Y-110727738D01*
X113387238Y-110870596D01*
X113482476Y-110965834D01*
X113577714Y-111013453D01*
X113768190Y-111061072D01*
X113911048Y-111061072D01*
X114101524Y-111013453D01*
X114196762Y-110965834D01*
X114292000Y-110870596D01*
X114339619Y-110727738D01*
X114339619Y-110632500D01*
X114292000Y-110489643D01*
X114244381Y-110442024D01*
X114339619Y-109346786D02*
X114339619Y-108680119D01*
X113339619Y-109108691D01*
X113720571Y-107537262D02*
X113720571Y-106775357D01*
X114244381Y-105584881D02*
X114292000Y-105537262D01*
X114339619Y-105442024D01*
X114339619Y-105203928D01*
X114292000Y-105108690D01*
X114244381Y-105061071D01*
X114149143Y-105013452D01*
X114053905Y-105013452D01*
X113911048Y-105061071D01*
X113339619Y-105632500D01*
X113339619Y-105013452D01*
X114339619Y-104680119D02*
X114339619Y-104061071D01*
X113958667Y-104394405D01*
X113958667Y-104251547D01*
X113911048Y-104156309D01*
X113863429Y-104108690D01*
X113768190Y-104061071D01*
X113530095Y-104061071D01*
X113434857Y-104108690D01*
X113387238Y-104156309D01*
X113339619Y-104251547D01*
X113339619Y-104537262D01*
X113387238Y-104632500D01*
X113434857Y-104680119D01*
X114339619Y-103775357D02*
X113339619Y-103442024D01*
X114339619Y-103108690D01*
X115918381Y-92365047D02*
X115918381Y-92155524D01*
X115866000Y-92050762D01*
X115761238Y-91946000D01*
X115551714Y-91893619D01*
X115185048Y-91893619D01*
X114975524Y-91946000D01*
X114870762Y-92050762D01*
X114818381Y-92155524D01*
X114818381Y-92365047D01*
X114870762Y-92469809D01*
X114975524Y-92574571D01*
X115185048Y-92626952D01*
X115551714Y-92626952D01*
X115761238Y-92574571D01*
X115866000Y-92469809D01*
X115918381Y-92365047D01*
X114818381Y-91422190D02*
X115918381Y-91422190D01*
X114818381Y-90793619D01*
X115918381Y-90793619D01*
X115237429Y-89431714D02*
X115237429Y-88593619D01*
X115918381Y-87022190D02*
X115918381Y-86812667D01*
X115866000Y-86707905D01*
X115761238Y-86603143D01*
X115551714Y-86550762D01*
X115185048Y-86550762D01*
X114975524Y-86603143D01*
X114870762Y-86707905D01*
X114818381Y-86812667D01*
X114818381Y-87022190D01*
X114870762Y-87126952D01*
X114975524Y-87231714D01*
X115185048Y-87284095D01*
X115551714Y-87284095D01*
X115761238Y-87231714D01*
X115866000Y-87126952D01*
X115918381Y-87022190D01*
X115394571Y-85712667D02*
X115394571Y-86079333D01*
X114818381Y-86079333D02*
X115918381Y-86079333D01*
X115918381Y-85555524D01*
X115394571Y-84769810D02*
X115394571Y-85136476D01*
X114818381Y-85136476D02*
X115918381Y-85136476D01*
X115918381Y-84612667D01*
D11*
X180340000Y-109220000D02*
X177800000Y-111760000D01*
X180340000Y-76454000D02*
X180340000Y-109220000D01*
X177800000Y-73914000D02*
X180340000Y-76454000D01*
X177800000Y-62484000D02*
X177800000Y-73914000D01*
X176276000Y-60960000D02*
X177800000Y-62484000D01*
D13*
G36*
X116411186Y-62556431D02*
X116327365Y-63001055D01*
X116018080Y-63128553D01*
X115708794Y-63256051D01*
X115337754Y-63003746D01*
X115233843Y-62933496D01*
X115139913Y-62870772D01*
X115060348Y-62818438D01*
X114999530Y-62779357D01*
X114961843Y-62756393D01*
X114951579Y-62751442D01*
X114933090Y-62764176D01*
X114893580Y-62799382D01*
X114837478Y-62852562D01*
X114769213Y-62919218D01*
X114693214Y-62994854D01*
X114613908Y-63074972D01*
X114535725Y-63155074D01*
X114463093Y-63230664D01*
X114400441Y-63297245D01*
X114352197Y-63350318D01*
X114322790Y-63385387D01*
X114315759Y-63397123D01*
X114325877Y-63418760D01*
X114354241Y-63466162D01*
X114397871Y-63534693D01*
X114453782Y-63619715D01*
X114518994Y-63716593D01*
X114556781Y-63771850D01*
X114625657Y-63872748D01*
X114686860Y-63963799D01*
X114737422Y-64040470D01*
X114774372Y-64098228D01*
X114794742Y-64132543D01*
X114797803Y-64139754D01*
X114790864Y-64160248D01*
X114771949Y-64208013D01*
X114743913Y-64276332D01*
X114709609Y-64358489D01*
X114671891Y-64447770D01*
X114633613Y-64537458D01*
X114597630Y-64620838D01*
X114566794Y-64691194D01*
X114543961Y-64741810D01*
X114531983Y-64765971D01*
X114531276Y-64766922D01*
X114512469Y-64771536D01*
X114462382Y-64781828D01*
X114386207Y-64796787D01*
X114289135Y-64815401D01*
X114176357Y-64836659D01*
X114110558Y-64848918D01*
X113990050Y-64871862D01*
X113881203Y-64893695D01*
X113789524Y-64913222D01*
X113720519Y-64929248D01*
X113679696Y-64940579D01*
X113671489Y-64944174D01*
X113663452Y-64968506D01*
X113656967Y-65023459D01*
X113652030Y-65102608D01*
X113648636Y-65199526D01*
X113646782Y-65307787D01*
X113646462Y-65420965D01*
X113647673Y-65532635D01*
X113650410Y-65636368D01*
X113654669Y-65725741D01*
X113660445Y-65794326D01*
X113667733Y-65835697D01*
X113672105Y-65844310D01*
X113698236Y-65854633D01*
X113753607Y-65869392D01*
X113830893Y-65886852D01*
X113922770Y-65905280D01*
X113954842Y-65911241D01*
X114109476Y-65939566D01*
X114231625Y-65962376D01*
X114325327Y-65980580D01*
X114394616Y-65995083D01*
X114443529Y-66006792D01*
X114476103Y-66016615D01*
X114496372Y-66025456D01*
X114508374Y-66034224D01*
X114510053Y-66035957D01*
X114526816Y-66063871D01*
X114552386Y-66118195D01*
X114584212Y-66192277D01*
X114619740Y-66279465D01*
X114656417Y-66373108D01*
X114691689Y-66466552D01*
X114723004Y-66553147D01*
X114747807Y-66626240D01*
X114763546Y-66679178D01*
X114767668Y-66705311D01*
X114767324Y-66706226D01*
X114753359Y-66727586D01*
X114721678Y-66774584D01*
X114675609Y-66842327D01*
X114618482Y-66925923D01*
X114553627Y-67020482D01*
X114535157Y-67047354D01*
X114469301Y-67144775D01*
X114411350Y-67233663D01*
X114364462Y-67308912D01*
X114331793Y-67365420D01*
X114316500Y-67398081D01*
X114315759Y-67402093D01*
X114328608Y-67423184D01*
X114364112Y-67464964D01*
X114417707Y-67522945D01*
X114484829Y-67592635D01*
X114560913Y-67669545D01*
X114641396Y-67749183D01*
X114721713Y-67827061D01*
X114797301Y-67898686D01*
X114863595Y-67959570D01*
X114916031Y-68005221D01*
X114950045Y-68031150D01*
X114959455Y-68035383D01*
X114981357Y-68025412D01*
X115026200Y-67998520D01*
X115086679Y-67959236D01*
X115133211Y-67927617D01*
X115217525Y-67869598D01*
X115317374Y-67801284D01*
X115417527Y-67733079D01*
X115471373Y-67696575D01*
X115653629Y-67573300D01*
X115806619Y-67656020D01*
X115876318Y-67692259D01*
X115935586Y-67720426D01*
X115975689Y-67736491D01*
X115985897Y-67738726D01*
X115998171Y-67722222D01*
X116022387Y-67675582D01*
X116056737Y-67603109D01*
X116099412Y-67509106D01*
X116148606Y-67397874D01*
X116202510Y-67273715D01*
X116259316Y-67140932D01*
X116317218Y-67003827D01*
X116374407Y-66866702D01*
X116429076Y-66733858D01*
X116479416Y-66609598D01*
X116523620Y-66498225D01*
X116559881Y-66404039D01*
X116586391Y-66331344D01*
X116601342Y-66284441D01*
X116603746Y-66268333D01*
X116584689Y-66247786D01*
X116542964Y-66214433D01*
X116487294Y-66175202D01*
X116482622Y-66172099D01*
X116338736Y-66056923D01*
X116222717Y-65922553D01*
X116135570Y-65773284D01*
X116078301Y-65613413D01*
X116051914Y-65447237D01*
X116057415Y-65279052D01*
X116095810Y-65113155D01*
X116168105Y-64953842D01*
X116189374Y-64918987D01*
X116300004Y-64778237D01*
X116430698Y-64665214D01*
X116576936Y-64580503D01*
X116734192Y-64524694D01*
X116897943Y-64498374D01*
X117063667Y-64502130D01*
X117226838Y-64536550D01*
X117382935Y-64602223D01*
X117527433Y-64699735D01*
X117572131Y-64739313D01*
X117685888Y-64863203D01*
X117768782Y-64993624D01*
X117825644Y-65139815D01*
X117857313Y-65284588D01*
X117865131Y-65447360D01*
X117839062Y-65610940D01*
X117781755Y-65769798D01*
X117695856Y-65918406D01*
X117584014Y-66051235D01*
X117448877Y-66162756D01*
X117431117Y-66174511D01*
X117374850Y-66213008D01*
X117332077Y-66246363D01*
X117311628Y-66267660D01*
X117311331Y-66268333D01*
X117315721Y-66291371D01*
X117333124Y-66343657D01*
X117361732Y-66420890D01*
X117399735Y-66518768D01*
X117445326Y-66632991D01*
X117496697Y-66759258D01*
X117552038Y-66893267D01*
X117609542Y-67030718D01*
X117667399Y-67167308D01*
X117723802Y-67298737D01*
X117776942Y-67420705D01*
X117825010Y-67528909D01*
X117866199Y-67619049D01*
X117898699Y-67686823D01*
X117920703Y-67727930D01*
X117929564Y-67738726D01*
X117956640Y-67730319D01*
X118007303Y-67707772D01*
X118072817Y-67675113D01*
X118108841Y-67656020D01*
X118261832Y-67573300D01*
X118444088Y-67696575D01*
X118537125Y-67759728D01*
X118638985Y-67829227D01*
X118734438Y-67894665D01*
X118782250Y-67927617D01*
X118849495Y-67972773D01*
X118906436Y-68008557D01*
X118945646Y-68030438D01*
X118958381Y-68035063D01*
X118976917Y-68022585D01*
X119017941Y-67987752D01*
X119077475Y-67934178D01*
X119151542Y-67865483D01*
X119236165Y-67785281D01*
X119289685Y-67733786D01*
X119383319Y-67641786D01*
X119464241Y-67559499D01*
X119529177Y-67490445D01*
X119574858Y-67438144D01*
X119598011Y-67406116D01*
X119600232Y-67399616D01*
X119589924Y-67374894D01*
X119561439Y-67324905D01*
X119517937Y-67254712D01*
X119462577Y-67169375D01*
X119398520Y-67073956D01*
X119380303Y-67047354D01*
X119313927Y-66950667D01*
X119254378Y-66863617D01*
X119204984Y-66791095D01*
X119169075Y-66737993D01*
X119149981Y-66709203D01*
X119148136Y-66706226D01*
X119150895Y-66683282D01*
X119165538Y-66632836D01*
X119189513Y-66561541D01*
X119220266Y-66476047D01*
X119255244Y-66383007D01*
X119291893Y-66289074D01*
X119327661Y-66200899D01*
X119359994Y-66125134D01*
X119386338Y-66068431D01*
X119404142Y-66037443D01*
X119405407Y-66035957D01*
X119416294Y-66027101D01*
X119434682Y-66018343D01*
X119464606Y-66008777D01*
X119510103Y-65997496D01*
X119575209Y-65983593D01*
X119663961Y-65966163D01*
X119780393Y-65944298D01*
X119928542Y-65917091D01*
X119960618Y-65911241D01*
X120055686Y-65892874D01*
X120138565Y-65874905D01*
X120201930Y-65859069D01*
X120238458Y-65847100D01*
X120243356Y-65844310D01*
X120251427Y-65819572D01*
X120257987Y-65764290D01*
X120263033Y-65684889D01*
X120266559Y-65587796D01*
X120268561Y-65479438D01*
X120269036Y-65366240D01*
X120267977Y-65254628D01*
X120265382Y-65151029D01*
X120261246Y-65061868D01*
X120255563Y-64993572D01*
X120248331Y-64952566D01*
X120243971Y-64944174D01*
X120219698Y-64935708D01*
X120164426Y-64921935D01*
X120083662Y-64904050D01*
X119982912Y-64883248D01*
X119867683Y-64860723D01*
X119804902Y-64848918D01*
X119685787Y-64826651D01*
X119579565Y-64806479D01*
X119491427Y-64789415D01*
X119426566Y-64776469D01*
X119390174Y-64768655D01*
X119384184Y-64766922D01*
X119374061Y-64747390D01*
X119352662Y-64700343D01*
X119322839Y-64632503D01*
X119287445Y-64550591D01*
X119249332Y-64461328D01*
X119211353Y-64371435D01*
X119176360Y-64287635D01*
X119147206Y-64216647D01*
X119126743Y-64165194D01*
X119117823Y-64139997D01*
X119117657Y-64138896D01*
X119127769Y-64119019D01*
X119156117Y-64073277D01*
X119199723Y-64006217D01*
X119255606Y-63922384D01*
X119320787Y-63826326D01*
X119358679Y-63771150D01*
X119427725Y-63669981D01*
X119489050Y-63578130D01*
X119539663Y-63500244D01*
X119576571Y-63440969D01*
X119596782Y-63404951D01*
X119599701Y-63396877D01*
X119587153Y-63378084D01*
X119552463Y-63337957D01*
X119500063Y-63280993D01*
X119434384Y-63211685D01*
X119359856Y-63134531D01*
X119280913Y-63054025D01*
X119201983Y-62974663D01*
X119127500Y-62900940D01*
X119061894Y-62837352D01*
X119009596Y-62788394D01*
X118975039Y-62758561D01*
X118963478Y-62751442D01*
X118944654Y-62761453D01*
X118899631Y-62789578D01*
X118832787Y-62832954D01*
X118748499Y-62888718D01*
X118651144Y-62954006D01*
X118577707Y-63003746D01*
X118206667Y-63256051D01*
X117588095Y-63001055D01*
X117504275Y-62556431D01*
X117420454Y-62111807D01*
X116495006Y-62111807D01*
X116411186Y-62556431D01*
X116411186Y-62556431D01*
G37*
X116411186Y-62556431D02*
X116327365Y-63001055D01*
X116018080Y-63128553D01*
X115708794Y-63256051D01*
X115337754Y-63003746D01*
X115233843Y-62933496D01*
X115139913Y-62870772D01*
X115060348Y-62818438D01*
X114999530Y-62779357D01*
X114961843Y-62756393D01*
X114951579Y-62751442D01*
X114933090Y-62764176D01*
X114893580Y-62799382D01*
X114837478Y-62852562D01*
X114769213Y-62919218D01*
X114693214Y-62994854D01*
X114613908Y-63074972D01*
X114535725Y-63155074D01*
X114463093Y-63230664D01*
X114400441Y-63297245D01*
X114352197Y-63350318D01*
X114322790Y-63385387D01*
X114315759Y-63397123D01*
X114325877Y-63418760D01*
X114354241Y-63466162D01*
X114397871Y-63534693D01*
X114453782Y-63619715D01*
X114518994Y-63716593D01*
X114556781Y-63771850D01*
X114625657Y-63872748D01*
X114686860Y-63963799D01*
X114737422Y-64040470D01*
X114774372Y-64098228D01*
X114794742Y-64132543D01*
X114797803Y-64139754D01*
X114790864Y-64160248D01*
X114771949Y-64208013D01*
X114743913Y-64276332D01*
X114709609Y-64358489D01*
X114671891Y-64447770D01*
X114633613Y-64537458D01*
X114597630Y-64620838D01*
X114566794Y-64691194D01*
X114543961Y-64741810D01*
X114531983Y-64765971D01*
X114531276Y-64766922D01*
X114512469Y-64771536D01*
X114462382Y-64781828D01*
X114386207Y-64796787D01*
X114289135Y-64815401D01*
X114176357Y-64836659D01*
X114110558Y-64848918D01*
X113990050Y-64871862D01*
X113881203Y-64893695D01*
X113789524Y-64913222D01*
X113720519Y-64929248D01*
X113679696Y-64940579D01*
X113671489Y-64944174D01*
X113663452Y-64968506D01*
X113656967Y-65023459D01*
X113652030Y-65102608D01*
X113648636Y-65199526D01*
X113646782Y-65307787D01*
X113646462Y-65420965D01*
X113647673Y-65532635D01*
X113650410Y-65636368D01*
X113654669Y-65725741D01*
X113660445Y-65794326D01*
X113667733Y-65835697D01*
X113672105Y-65844310D01*
X113698236Y-65854633D01*
X113753607Y-65869392D01*
X113830893Y-65886852D01*
X113922770Y-65905280D01*
X113954842Y-65911241D01*
X114109476Y-65939566D01*
X114231625Y-65962376D01*
X114325327Y-65980580D01*
X114394616Y-65995083D01*
X114443529Y-66006792D01*
X114476103Y-66016615D01*
X114496372Y-66025456D01*
X114508374Y-66034224D01*
X114510053Y-66035957D01*
X114526816Y-66063871D01*
X114552386Y-66118195D01*
X114584212Y-66192277D01*
X114619740Y-66279465D01*
X114656417Y-66373108D01*
X114691689Y-66466552D01*
X114723004Y-66553147D01*
X114747807Y-66626240D01*
X114763546Y-66679178D01*
X114767668Y-66705311D01*
X114767324Y-66706226D01*
X114753359Y-66727586D01*
X114721678Y-66774584D01*
X114675609Y-66842327D01*
X114618482Y-66925923D01*
X114553627Y-67020482D01*
X114535157Y-67047354D01*
X114469301Y-67144775D01*
X114411350Y-67233663D01*
X114364462Y-67308912D01*
X114331793Y-67365420D01*
X114316500Y-67398081D01*
X114315759Y-67402093D01*
X114328608Y-67423184D01*
X114364112Y-67464964D01*
X114417707Y-67522945D01*
X114484829Y-67592635D01*
X114560913Y-67669545D01*
X114641396Y-67749183D01*
X114721713Y-67827061D01*
X114797301Y-67898686D01*
X114863595Y-67959570D01*
X114916031Y-68005221D01*
X114950045Y-68031150D01*
X114959455Y-68035383D01*
X114981357Y-68025412D01*
X115026200Y-67998520D01*
X115086679Y-67959236D01*
X115133211Y-67927617D01*
X115217525Y-67869598D01*
X115317374Y-67801284D01*
X115417527Y-67733079D01*
X115471373Y-67696575D01*
X115653629Y-67573300D01*
X115806619Y-67656020D01*
X115876318Y-67692259D01*
X115935586Y-67720426D01*
X115975689Y-67736491D01*
X115985897Y-67738726D01*
X115998171Y-67722222D01*
X116022387Y-67675582D01*
X116056737Y-67603109D01*
X116099412Y-67509106D01*
X116148606Y-67397874D01*
X116202510Y-67273715D01*
X116259316Y-67140932D01*
X116317218Y-67003827D01*
X116374407Y-66866702D01*
X116429076Y-66733858D01*
X116479416Y-66609598D01*
X116523620Y-66498225D01*
X116559881Y-66404039D01*
X116586391Y-66331344D01*
X116601342Y-66284441D01*
X116603746Y-66268333D01*
X116584689Y-66247786D01*
X116542964Y-66214433D01*
X116487294Y-66175202D01*
X116482622Y-66172099D01*
X116338736Y-66056923D01*
X116222717Y-65922553D01*
X116135570Y-65773284D01*
X116078301Y-65613413D01*
X116051914Y-65447237D01*
X116057415Y-65279052D01*
X116095810Y-65113155D01*
X116168105Y-64953842D01*
X116189374Y-64918987D01*
X116300004Y-64778237D01*
X116430698Y-64665214D01*
X116576936Y-64580503D01*
X116734192Y-64524694D01*
X116897943Y-64498374D01*
X117063667Y-64502130D01*
X117226838Y-64536550D01*
X117382935Y-64602223D01*
X117527433Y-64699735D01*
X117572131Y-64739313D01*
X117685888Y-64863203D01*
X117768782Y-64993624D01*
X117825644Y-65139815D01*
X117857313Y-65284588D01*
X117865131Y-65447360D01*
X117839062Y-65610940D01*
X117781755Y-65769798D01*
X117695856Y-65918406D01*
X117584014Y-66051235D01*
X117448877Y-66162756D01*
X117431117Y-66174511D01*
X117374850Y-66213008D01*
X117332077Y-66246363D01*
X117311628Y-66267660D01*
X117311331Y-66268333D01*
X117315721Y-66291371D01*
X117333124Y-66343657D01*
X117361732Y-66420890D01*
X117399735Y-66518768D01*
X117445326Y-66632991D01*
X117496697Y-66759258D01*
X117552038Y-66893267D01*
X117609542Y-67030718D01*
X117667399Y-67167308D01*
X117723802Y-67298737D01*
X117776942Y-67420705D01*
X117825010Y-67528909D01*
X117866199Y-67619049D01*
X117898699Y-67686823D01*
X117920703Y-67727930D01*
X117929564Y-67738726D01*
X117956640Y-67730319D01*
X118007303Y-67707772D01*
X118072817Y-67675113D01*
X118108841Y-67656020D01*
X118261832Y-67573300D01*
X118444088Y-67696575D01*
X118537125Y-67759728D01*
X118638985Y-67829227D01*
X118734438Y-67894665D01*
X118782250Y-67927617D01*
X118849495Y-67972773D01*
X118906436Y-68008557D01*
X118945646Y-68030438D01*
X118958381Y-68035063D01*
X118976917Y-68022585D01*
X119017941Y-67987752D01*
X119077475Y-67934178D01*
X119151542Y-67865483D01*
X119236165Y-67785281D01*
X119289685Y-67733786D01*
X119383319Y-67641786D01*
X119464241Y-67559499D01*
X119529177Y-67490445D01*
X119574858Y-67438144D01*
X119598011Y-67406116D01*
X119600232Y-67399616D01*
X119589924Y-67374894D01*
X119561439Y-67324905D01*
X119517937Y-67254712D01*
X119462577Y-67169375D01*
X119398520Y-67073956D01*
X119380303Y-67047354D01*
X119313927Y-66950667D01*
X119254378Y-66863617D01*
X119204984Y-66791095D01*
X119169075Y-66737993D01*
X119149981Y-66709203D01*
X119148136Y-66706226D01*
X119150895Y-66683282D01*
X119165538Y-66632836D01*
X119189513Y-66561541D01*
X119220266Y-66476047D01*
X119255244Y-66383007D01*
X119291893Y-66289074D01*
X119327661Y-66200899D01*
X119359994Y-66125134D01*
X119386338Y-66068431D01*
X119404142Y-66037443D01*
X119405407Y-66035957D01*
X119416294Y-66027101D01*
X119434682Y-66018343D01*
X119464606Y-66008777D01*
X119510103Y-65997496D01*
X119575209Y-65983593D01*
X119663961Y-65966163D01*
X119780393Y-65944298D01*
X119928542Y-65917091D01*
X119960618Y-65911241D01*
X120055686Y-65892874D01*
X120138565Y-65874905D01*
X120201930Y-65859069D01*
X120238458Y-65847100D01*
X120243356Y-65844310D01*
X120251427Y-65819572D01*
X120257987Y-65764290D01*
X120263033Y-65684889D01*
X120266559Y-65587796D01*
X120268561Y-65479438D01*
X120269036Y-65366240D01*
X120267977Y-65254628D01*
X120265382Y-65151029D01*
X120261246Y-65061868D01*
X120255563Y-64993572D01*
X120248331Y-64952566D01*
X120243971Y-64944174D01*
X120219698Y-64935708D01*
X120164426Y-64921935D01*
X120083662Y-64904050D01*
X119982912Y-64883248D01*
X119867683Y-64860723D01*
X119804902Y-64848918D01*
X119685787Y-64826651D01*
X119579565Y-64806479D01*
X119491427Y-64789415D01*
X119426566Y-64776469D01*
X119390174Y-64768655D01*
X119384184Y-64766922D01*
X119374061Y-64747390D01*
X119352662Y-64700343D01*
X119322839Y-64632503D01*
X119287445Y-64550591D01*
X119249332Y-64461328D01*
X119211353Y-64371435D01*
X119176360Y-64287635D01*
X119147206Y-64216647D01*
X119126743Y-64165194D01*
X119117823Y-64139997D01*
X119117657Y-64138896D01*
X119127769Y-64119019D01*
X119156117Y-64073277D01*
X119199723Y-64006217D01*
X119255606Y-63922384D01*
X119320787Y-63826326D01*
X119358679Y-63771150D01*
X119427725Y-63669981D01*
X119489050Y-63578130D01*
X119539663Y-63500244D01*
X119576571Y-63440969D01*
X119596782Y-63404951D01*
X119599701Y-63396877D01*
X119587153Y-63378084D01*
X119552463Y-63337957D01*
X119500063Y-63280993D01*
X119434384Y-63211685D01*
X119359856Y-63134531D01*
X119280913Y-63054025D01*
X119201983Y-62974663D01*
X119127500Y-62900940D01*
X119061894Y-62837352D01*
X119009596Y-62788394D01*
X118975039Y-62758561D01*
X118963478Y-62751442D01*
X118944654Y-62761453D01*
X118899631Y-62789578D01*
X118832787Y-62832954D01*
X118748499Y-62888718D01*
X118651144Y-62954006D01*
X118577707Y-63003746D01*
X118206667Y-63256051D01*
X117588095Y-63001055D01*
X117504275Y-62556431D01*
X117420454Y-62111807D01*
X116495006Y-62111807D01*
X116411186Y-62556431D01*
G36*
X131800702Y-103816169D02*
X131734068Y-103818723D01*
X131679618Y-103822727D01*
X131642047Y-103828220D01*
X131633059Y-103830747D01*
X131608342Y-103840841D01*
X131600331Y-103846559D01*
X131601483Y-103846933D01*
X131602409Y-103854920D01*
X131592809Y-103867005D01*
X131580832Y-103894318D01*
X131581403Y-103931642D01*
X131594299Y-103967034D01*
X131594694Y-103967660D01*
X131603338Y-103984829D01*
X131604010Y-103987600D01*
X131609785Y-104002323D01*
X131625669Y-104037643D01*
X131650625Y-104091329D01*
X131683618Y-104161152D01*
X131722037Y-104241600D01*
X131739845Y-104279428D01*
X131752317Y-104307243D01*
X131756379Y-104317800D01*
X131761862Y-104331501D01*
X131775622Y-104362058D01*
X131794930Y-104403439D01*
X131799486Y-104413050D01*
X131833580Y-104485731D01*
X131856863Y-104537750D01*
X131870143Y-104571027D01*
X131874231Y-104587486D01*
X131873771Y-104589456D01*
X131878833Y-104601349D01*
X131894644Y-104621266D01*
X131908709Y-104640147D01*
X131908550Y-104648000D01*
X131908393Y-104655853D01*
X131922457Y-104674733D01*
X131938535Y-104694419D01*
X131942583Y-104703308D01*
X131943363Y-104715645D01*
X131955779Y-104748538D01*
X131980067Y-104802548D01*
X132014106Y-104873425D01*
X132035684Y-104919015D01*
X132051110Y-104954574D01*
X132058290Y-104975112D01*
X132058029Y-104978200D01*
X132059852Y-104986099D01*
X132073650Y-105003600D01*
X132087030Y-105021877D01*
X132086350Y-105029000D01*
X132086193Y-105036853D01*
X132100257Y-105055733D01*
X132116661Y-105076554D01*
X132121130Y-105087543D01*
X132122570Y-105099244D01*
X132132954Y-105127176D01*
X132153093Y-105173262D01*
X132183796Y-105239423D01*
X132195415Y-105263950D01*
X132215592Y-105306858D01*
X132230866Y-105340222D01*
X132238484Y-105358004D01*
X132238854Y-105359200D01*
X132245136Y-105375080D01*
X132261412Y-105411311D01*
X132286538Y-105465419D01*
X132319368Y-105534928D01*
X132344587Y-105587800D01*
X132365641Y-105632248D01*
X132381836Y-105667299D01*
X132390513Y-105687167D01*
X132391272Y-105689400D01*
X132396833Y-105703299D01*
X132410317Y-105733507D01*
X132428091Y-105771950D01*
X132456197Y-105833163D01*
X132474262Y-105875777D01*
X132483922Y-105903748D01*
X132485784Y-105911650D01*
X132495570Y-105930395D01*
X132508324Y-105946575D01*
X132519945Y-105963344D01*
X132518150Y-105968800D01*
X132517813Y-105976606D01*
X132530850Y-105994200D01*
X132544230Y-106012477D01*
X132543550Y-106019600D01*
X132542738Y-106027278D01*
X132553377Y-106041825D01*
X132569037Y-106061497D01*
X132573503Y-106070400D01*
X132579231Y-106091431D01*
X132595384Y-106131365D01*
X132620480Y-106186669D01*
X132636228Y-106219625D01*
X132654255Y-106258747D01*
X132665515Y-106287096D01*
X132667750Y-106298937D01*
X132667492Y-106299000D01*
X132669417Y-106306903D01*
X132683250Y-106324400D01*
X132696630Y-106342677D01*
X132695950Y-106349800D01*
X132695613Y-106357606D01*
X132708650Y-106375200D01*
X132722030Y-106393477D01*
X132721350Y-106400600D01*
X132720538Y-106408278D01*
X132731177Y-106422825D01*
X132746837Y-106442497D01*
X132751303Y-106451400D01*
X132756881Y-106471708D01*
X132772687Y-106511381D01*
X132797385Y-106567170D01*
X132811410Y-106597450D01*
X132829730Y-106637104D01*
X132842982Y-106666870D01*
X132848193Y-106680000D01*
X132854097Y-106694520D01*
X132869651Y-106728844D01*
X132893431Y-106779916D01*
X132924011Y-106844682D01*
X132959968Y-106920085D01*
X132966637Y-106934000D01*
X132984445Y-106971828D01*
X132996917Y-106999643D01*
X133000979Y-107010200D01*
X133006462Y-107023901D01*
X133020222Y-107054458D01*
X133039530Y-107095839D01*
X133044086Y-107105450D01*
X133081203Y-107184790D01*
X133106535Y-107241868D01*
X133120050Y-107276607D01*
X133122451Y-107286364D01*
X133130721Y-107302362D01*
X133143324Y-107318175D01*
X133154945Y-107334944D01*
X133153150Y-107340400D01*
X133152813Y-107348206D01*
X133165850Y-107365800D01*
X133180204Y-107384168D01*
X133181540Y-107391200D01*
X133183205Y-107401635D01*
X133194126Y-107429334D01*
X133212112Y-107468885D01*
X133217659Y-107480409D01*
X133246938Y-107534513D01*
X133272530Y-107567607D01*
X133294783Y-107582434D01*
X133318691Y-107586524D01*
X133362991Y-107589643D01*
X133422693Y-107591805D01*
X133492805Y-107593027D01*
X133568340Y-107593323D01*
X133644306Y-107592709D01*
X133715715Y-107591202D01*
X133777576Y-107588815D01*
X133824900Y-107585566D01*
X133852696Y-107581469D01*
X133855124Y-107580689D01*
X133884949Y-107556806D01*
X133900686Y-107518148D01*
X133900590Y-107482996D01*
X133892682Y-107457826D01*
X133876512Y-107418063D01*
X133855373Y-107371730D01*
X133852373Y-107365521D01*
X133832992Y-107323933D01*
X133820126Y-107292812D01*
X133815967Y-107277586D01*
X133816540Y-107276900D01*
X133814666Y-107268998D01*
X133800850Y-107251500D01*
X133787471Y-107233222D01*
X133788150Y-107226100D01*
X133788963Y-107218421D01*
X133778324Y-107203875D01*
X133763183Y-107184259D01*
X133759492Y-107175300D01*
X133754856Y-107161972D01*
X133741307Y-107130695D01*
X133721026Y-107086366D01*
X133700063Y-107041950D01*
X133662638Y-106962615D01*
X133636371Y-106904438D01*
X133620671Y-106866057D01*
X133614949Y-106846108D01*
X133614903Y-106845100D01*
X133607372Y-106831846D01*
X133594777Y-106816525D01*
X133583156Y-106799755D01*
X133584950Y-106794300D01*
X133585288Y-106786493D01*
X133572250Y-106768900D01*
X133558871Y-106750622D01*
X133559550Y-106743500D01*
X133559888Y-106735693D01*
X133546850Y-106718100D01*
X133533338Y-106699809D01*
X133533737Y-106692700D01*
X133534994Y-106684831D01*
X133526737Y-106672368D01*
X133511687Y-106648878D01*
X133507656Y-106637443D01*
X133501555Y-106621098D01*
X133486419Y-106586672D01*
X133464392Y-106538892D01*
X133437622Y-106482483D01*
X133431823Y-106470450D01*
X133405142Y-106414301D01*
X133383602Y-106367192D01*
X133369076Y-106333362D01*
X133363439Y-106317048D01*
X133363625Y-106316208D01*
X133360474Y-106306863D01*
X133347730Y-106290808D01*
X133331842Y-106270656D01*
X133327330Y-106260900D01*
X133323093Y-106246971D01*
X133308889Y-106213337D01*
X133284361Y-106159209D01*
X133249153Y-106083798D01*
X133211317Y-106003959D01*
X133188601Y-105955386D01*
X133170694Y-105915446D01*
X133160022Y-105889644D01*
X133158103Y-105883309D01*
X133150133Y-105866862D01*
X133139988Y-105853989D01*
X133128974Y-105834748D01*
X133134401Y-105811493D01*
X133138493Y-105803189D01*
X133151112Y-105776780D01*
X133156517Y-105762143D01*
X133162445Y-105747612D01*
X133177362Y-105714861D01*
X133199124Y-105668499D01*
X133225590Y-105613137D01*
X133230291Y-105603393D01*
X133257436Y-105546470D01*
X133280250Y-105497236D01*
X133296560Y-105460485D01*
X133304191Y-105441010D01*
X133304456Y-105439856D01*
X133313868Y-105418571D01*
X133323537Y-105404931D01*
X133333024Y-105388896D01*
X133330537Y-105384600D01*
X133330504Y-105376780D01*
X133343650Y-105359200D01*
X133357030Y-105340922D01*
X133356350Y-105333800D01*
X133356013Y-105325993D01*
X133369050Y-105308400D01*
X133382430Y-105290122D01*
X133381750Y-105283000D01*
X133380938Y-105275321D01*
X133391577Y-105260775D01*
X133407579Y-105239658D01*
X133412288Y-105228884D01*
X133417522Y-105212871D01*
X133430425Y-105181562D01*
X133443249Y-105152684D01*
X133475959Y-105080898D01*
X133499494Y-105028910D01*
X133515284Y-104993436D01*
X133524761Y-104971195D01*
X133529358Y-104958904D01*
X133530508Y-104953283D01*
X133530469Y-104952800D01*
X133537291Y-104939590D01*
X133549724Y-104924225D01*
X133561345Y-104907455D01*
X133559550Y-104902000D01*
X133559213Y-104894193D01*
X133572250Y-104876600D01*
X133585630Y-104858322D01*
X133584950Y-104851200D01*
X133584613Y-104843393D01*
X133597650Y-104825800D01*
X133611163Y-104807509D01*
X133610764Y-104800400D01*
X133609507Y-104792531D01*
X133617764Y-104780068D01*
X133632865Y-104756570D01*
X133636949Y-104745143D01*
X133643110Y-104728315D01*
X133658022Y-104693961D01*
X133679318Y-104647396D01*
X133700017Y-104603550D01*
X133724329Y-104551965D01*
X133743767Y-104509255D01*
X133756149Y-104480318D01*
X133759492Y-104470200D01*
X133765843Y-104456814D01*
X133775450Y-104444800D01*
X133789952Y-104424709D01*
X133793168Y-104416027D01*
X133798459Y-104399960D01*
X133813917Y-104364053D01*
X133839860Y-104307614D01*
X133876607Y-104229951D01*
X133924475Y-104130373D01*
X133929032Y-104120950D01*
X133953769Y-104069383D01*
X133973864Y-104026684D01*
X133987040Y-103997741D01*
X133991101Y-103987600D01*
X133997583Y-103972374D01*
X134000407Y-103967660D01*
X134013015Y-103934727D01*
X134014745Y-103899850D01*
X134005256Y-103874560D01*
X134003214Y-103872605D01*
X133990783Y-103855847D01*
X133991013Y-103848445D01*
X133986414Y-103837183D01*
X133957061Y-103828431D01*
X133902836Y-103822178D01*
X133823623Y-103818413D01*
X133719302Y-103817124D01*
X133661150Y-103817375D01*
X133581756Y-103818481D01*
X133509733Y-103820277D01*
X133449442Y-103822590D01*
X133405245Y-103825248D01*
X133381502Y-103828079D01*
X133380107Y-103828464D01*
X133362446Y-103843676D01*
X133338801Y-103876318D01*
X133312624Y-103920235D01*
X133287369Y-103969274D01*
X133266488Y-104017283D01*
X133255175Y-104051100D01*
X133249152Y-104065798D01*
X133235152Y-104097479D01*
X133215905Y-104140090D01*
X133194142Y-104187581D01*
X133174940Y-104228900D01*
X133161294Y-104258972D01*
X133153560Y-104277825D01*
X133153021Y-104279700D01*
X133147464Y-104293599D01*
X133133983Y-104323806D01*
X133116210Y-104362250D01*
X133088104Y-104423463D01*
X133070039Y-104466077D01*
X133060379Y-104494048D01*
X133058517Y-104501950D01*
X133048731Y-104520695D01*
X133035977Y-104536875D01*
X133024356Y-104553644D01*
X133026150Y-104559100D01*
X133026963Y-104566778D01*
X133016324Y-104581325D01*
X133000908Y-104600971D01*
X132996803Y-104609900D01*
X132994658Y-104618999D01*
X132986568Y-104640472D01*
X132971174Y-104677676D01*
X132947121Y-104733974D01*
X132940384Y-104749600D01*
X132929675Y-104775224D01*
X132925003Y-104787700D01*
X132919146Y-104801607D01*
X132905448Y-104831831D01*
X132887610Y-104870250D01*
X132860784Y-104928307D01*
X132839328Y-104976365D01*
X132825632Y-105009022D01*
X132822950Y-105016300D01*
X132806120Y-105057939D01*
X132790389Y-105082022D01*
X132777953Y-105086310D01*
X132771086Y-105069216D01*
X132764819Y-105049450D01*
X132748267Y-105010058D01*
X132720891Y-104949787D01*
X132707491Y-104921050D01*
X132689075Y-104881382D01*
X132675586Y-104851612D01*
X132670065Y-104838500D01*
X132661617Y-104815569D01*
X132644334Y-104774807D01*
X132621693Y-104724200D01*
X132606374Y-104689939D01*
X132596372Y-104666299D01*
X132594378Y-104660700D01*
X132588740Y-104646798D01*
X132575200Y-104616586D01*
X132557410Y-104578150D01*
X132529727Y-104518234D01*
X132508578Y-104470717D01*
X132495811Y-104439807D01*
X132493203Y-104432100D01*
X132487341Y-104418195D01*
X132473630Y-104387977D01*
X132455766Y-104349550D01*
X132437075Y-104308333D01*
X132423320Y-104275392D01*
X132417721Y-104258756D01*
X132408242Y-104237465D01*
X132398564Y-104223831D01*
X132388914Y-104207783D01*
X132391150Y-104203500D01*
X132392074Y-104195615D01*
X132383737Y-104183168D01*
X132368650Y-104159672D01*
X132364580Y-104148243D01*
X132358297Y-104129861D01*
X132344124Y-104096151D01*
X132326535Y-104057450D01*
X132308182Y-104017797D01*
X132294884Y-103988032D01*
X132289626Y-103974900D01*
X132280408Y-103948511D01*
X132262695Y-103911754D01*
X132241617Y-103874067D01*
X132222300Y-103844889D01*
X132213939Y-103835595D01*
X132193470Y-103829097D01*
X132152321Y-103823775D01*
X132095188Y-103819668D01*
X132026764Y-103816814D01*
X131951745Y-103815254D01*
X131874826Y-103815026D01*
X131800702Y-103816169D01*
X131800702Y-103816169D01*
G37*
X131800702Y-103816169D02*
X131734068Y-103818723D01*
X131679618Y-103822727D01*
X131642047Y-103828220D01*
X131633059Y-103830747D01*
X131608342Y-103840841D01*
X131600331Y-103846559D01*
X131601483Y-103846933D01*
X131602409Y-103854920D01*
X131592809Y-103867005D01*
X131580832Y-103894318D01*
X131581403Y-103931642D01*
X131594299Y-103967034D01*
X131594694Y-103967660D01*
X131603338Y-103984829D01*
X131604010Y-103987600D01*
X131609785Y-104002323D01*
X131625669Y-104037643D01*
X131650625Y-104091329D01*
X131683618Y-104161152D01*
X131722037Y-104241600D01*
X131739845Y-104279428D01*
X131752317Y-104307243D01*
X131756379Y-104317800D01*
X131761862Y-104331501D01*
X131775622Y-104362058D01*
X131794930Y-104403439D01*
X131799486Y-104413050D01*
X131833580Y-104485731D01*
X131856863Y-104537750D01*
X131870143Y-104571027D01*
X131874231Y-104587486D01*
X131873771Y-104589456D01*
X131878833Y-104601349D01*
X131894644Y-104621266D01*
X131908709Y-104640147D01*
X131908550Y-104648000D01*
X131908393Y-104655853D01*
X131922457Y-104674733D01*
X131938535Y-104694419D01*
X131942583Y-104703308D01*
X131943363Y-104715645D01*
X131955779Y-104748538D01*
X131980067Y-104802548D01*
X132014106Y-104873425D01*
X132035684Y-104919015D01*
X132051110Y-104954574D01*
X132058290Y-104975112D01*
X132058029Y-104978200D01*
X132059852Y-104986099D01*
X132073650Y-105003600D01*
X132087030Y-105021877D01*
X132086350Y-105029000D01*
X132086193Y-105036853D01*
X132100257Y-105055733D01*
X132116661Y-105076554D01*
X132121130Y-105087543D01*
X132122570Y-105099244D01*
X132132954Y-105127176D01*
X132153093Y-105173262D01*
X132183796Y-105239423D01*
X132195415Y-105263950D01*
X132215592Y-105306858D01*
X132230866Y-105340222D01*
X132238484Y-105358004D01*
X132238854Y-105359200D01*
X132245136Y-105375080D01*
X132261412Y-105411311D01*
X132286538Y-105465419D01*
X132319368Y-105534928D01*
X132344587Y-105587800D01*
X132365641Y-105632248D01*
X132381836Y-105667299D01*
X132390513Y-105687167D01*
X132391272Y-105689400D01*
X132396833Y-105703299D01*
X132410317Y-105733507D01*
X132428091Y-105771950D01*
X132456197Y-105833163D01*
X132474262Y-105875777D01*
X132483922Y-105903748D01*
X132485784Y-105911650D01*
X132495570Y-105930395D01*
X132508324Y-105946575D01*
X132519945Y-105963344D01*
X132518150Y-105968800D01*
X132517813Y-105976606D01*
X132530850Y-105994200D01*
X132544230Y-106012477D01*
X132543550Y-106019600D01*
X132542738Y-106027278D01*
X132553377Y-106041825D01*
X132569037Y-106061497D01*
X132573503Y-106070400D01*
X132579231Y-106091431D01*
X132595384Y-106131365D01*
X132620480Y-106186669D01*
X132636228Y-106219625D01*
X132654255Y-106258747D01*
X132665515Y-106287096D01*
X132667750Y-106298937D01*
X132667492Y-106299000D01*
X132669417Y-106306903D01*
X132683250Y-106324400D01*
X132696630Y-106342677D01*
X132695950Y-106349800D01*
X132695613Y-106357606D01*
X132708650Y-106375200D01*
X132722030Y-106393477D01*
X132721350Y-106400600D01*
X132720538Y-106408278D01*
X132731177Y-106422825D01*
X132746837Y-106442497D01*
X132751303Y-106451400D01*
X132756881Y-106471708D01*
X132772687Y-106511381D01*
X132797385Y-106567170D01*
X132811410Y-106597450D01*
X132829730Y-106637104D01*
X132842982Y-106666870D01*
X132848193Y-106680000D01*
X132854097Y-106694520D01*
X132869651Y-106728844D01*
X132893431Y-106779916D01*
X132924011Y-106844682D01*
X132959968Y-106920085D01*
X132966637Y-106934000D01*
X132984445Y-106971828D01*
X132996917Y-106999643D01*
X133000979Y-107010200D01*
X133006462Y-107023901D01*
X133020222Y-107054458D01*
X133039530Y-107095839D01*
X133044086Y-107105450D01*
X133081203Y-107184790D01*
X133106535Y-107241868D01*
X133120050Y-107276607D01*
X133122451Y-107286364D01*
X133130721Y-107302362D01*
X133143324Y-107318175D01*
X133154945Y-107334944D01*
X133153150Y-107340400D01*
X133152813Y-107348206D01*
X133165850Y-107365800D01*
X133180204Y-107384168D01*
X133181540Y-107391200D01*
X133183205Y-107401635D01*
X133194126Y-107429334D01*
X133212112Y-107468885D01*
X133217659Y-107480409D01*
X133246938Y-107534513D01*
X133272530Y-107567607D01*
X133294783Y-107582434D01*
X133318691Y-107586524D01*
X133362991Y-107589643D01*
X133422693Y-107591805D01*
X133492805Y-107593027D01*
X133568340Y-107593323D01*
X133644306Y-107592709D01*
X133715715Y-107591202D01*
X133777576Y-107588815D01*
X133824900Y-107585566D01*
X133852696Y-107581469D01*
X133855124Y-107580689D01*
X133884949Y-107556806D01*
X133900686Y-107518148D01*
X133900590Y-107482996D01*
X133892682Y-107457826D01*
X133876512Y-107418063D01*
X133855373Y-107371730D01*
X133852373Y-107365521D01*
X133832992Y-107323933D01*
X133820126Y-107292812D01*
X133815967Y-107277586D01*
X133816540Y-107276900D01*
X133814666Y-107268998D01*
X133800850Y-107251500D01*
X133787471Y-107233222D01*
X133788150Y-107226100D01*
X133788963Y-107218421D01*
X133778324Y-107203875D01*
X133763183Y-107184259D01*
X133759492Y-107175300D01*
X133754856Y-107161972D01*
X133741307Y-107130695D01*
X133721026Y-107086366D01*
X133700063Y-107041950D01*
X133662638Y-106962615D01*
X133636371Y-106904438D01*
X133620671Y-106866057D01*
X133614949Y-106846108D01*
X133614903Y-106845100D01*
X133607372Y-106831846D01*
X133594777Y-106816525D01*
X133583156Y-106799755D01*
X133584950Y-106794300D01*
X133585288Y-106786493D01*
X133572250Y-106768900D01*
X133558871Y-106750622D01*
X133559550Y-106743500D01*
X133559888Y-106735693D01*
X133546850Y-106718100D01*
X133533338Y-106699809D01*
X133533737Y-106692700D01*
X133534994Y-106684831D01*
X133526737Y-106672368D01*
X133511687Y-106648878D01*
X133507656Y-106637443D01*
X133501555Y-106621098D01*
X133486419Y-106586672D01*
X133464392Y-106538892D01*
X133437622Y-106482483D01*
X133431823Y-106470450D01*
X133405142Y-106414301D01*
X133383602Y-106367192D01*
X133369076Y-106333362D01*
X133363439Y-106317048D01*
X133363625Y-106316208D01*
X133360474Y-106306863D01*
X133347730Y-106290808D01*
X133331842Y-106270656D01*
X133327330Y-106260900D01*
X133323093Y-106246971D01*
X133308889Y-106213337D01*
X133284361Y-106159209D01*
X133249153Y-106083798D01*
X133211317Y-106003959D01*
X133188601Y-105955386D01*
X133170694Y-105915446D01*
X133160022Y-105889644D01*
X133158103Y-105883309D01*
X133150133Y-105866862D01*
X133139988Y-105853989D01*
X133128974Y-105834748D01*
X133134401Y-105811493D01*
X133138493Y-105803189D01*
X133151112Y-105776780D01*
X133156517Y-105762143D01*
X133162445Y-105747612D01*
X133177362Y-105714861D01*
X133199124Y-105668499D01*
X133225590Y-105613137D01*
X133230291Y-105603393D01*
X133257436Y-105546470D01*
X133280250Y-105497236D01*
X133296560Y-105460485D01*
X133304191Y-105441010D01*
X133304456Y-105439856D01*
X133313868Y-105418571D01*
X133323537Y-105404931D01*
X133333024Y-105388896D01*
X133330537Y-105384600D01*
X133330504Y-105376780D01*
X133343650Y-105359200D01*
X133357030Y-105340922D01*
X133356350Y-105333800D01*
X133356013Y-105325993D01*
X133369050Y-105308400D01*
X133382430Y-105290122D01*
X133381750Y-105283000D01*
X133380938Y-105275321D01*
X133391577Y-105260775D01*
X133407579Y-105239658D01*
X133412288Y-105228884D01*
X133417522Y-105212871D01*
X133430425Y-105181562D01*
X133443249Y-105152684D01*
X133475959Y-105080898D01*
X133499494Y-105028910D01*
X133515284Y-104993436D01*
X133524761Y-104971195D01*
X133529358Y-104958904D01*
X133530508Y-104953283D01*
X133530469Y-104952800D01*
X133537291Y-104939590D01*
X133549724Y-104924225D01*
X133561345Y-104907455D01*
X133559550Y-104902000D01*
X133559213Y-104894193D01*
X133572250Y-104876600D01*
X133585630Y-104858322D01*
X133584950Y-104851200D01*
X133584613Y-104843393D01*
X133597650Y-104825800D01*
X133611163Y-104807509D01*
X133610764Y-104800400D01*
X133609507Y-104792531D01*
X133617764Y-104780068D01*
X133632865Y-104756570D01*
X133636949Y-104745143D01*
X133643110Y-104728315D01*
X133658022Y-104693961D01*
X133679318Y-104647396D01*
X133700017Y-104603550D01*
X133724329Y-104551965D01*
X133743767Y-104509255D01*
X133756149Y-104480318D01*
X133759492Y-104470200D01*
X133765843Y-104456814D01*
X133775450Y-104444800D01*
X133789952Y-104424709D01*
X133793168Y-104416027D01*
X133798459Y-104399960D01*
X133813917Y-104364053D01*
X133839860Y-104307614D01*
X133876607Y-104229951D01*
X133924475Y-104130373D01*
X133929032Y-104120950D01*
X133953769Y-104069383D01*
X133973864Y-104026684D01*
X133987040Y-103997741D01*
X133991101Y-103987600D01*
X133997583Y-103972374D01*
X134000407Y-103967660D01*
X134013015Y-103934727D01*
X134014745Y-103899850D01*
X134005256Y-103874560D01*
X134003214Y-103872605D01*
X133990783Y-103855847D01*
X133991013Y-103848445D01*
X133986414Y-103837183D01*
X133957061Y-103828431D01*
X133902836Y-103822178D01*
X133823623Y-103818413D01*
X133719302Y-103817124D01*
X133661150Y-103817375D01*
X133581756Y-103818481D01*
X133509733Y-103820277D01*
X133449442Y-103822590D01*
X133405245Y-103825248D01*
X133381502Y-103828079D01*
X133380107Y-103828464D01*
X133362446Y-103843676D01*
X133338801Y-103876318D01*
X133312624Y-103920235D01*
X133287369Y-103969274D01*
X133266488Y-104017283D01*
X133255175Y-104051100D01*
X133249152Y-104065798D01*
X133235152Y-104097479D01*
X133215905Y-104140090D01*
X133194142Y-104187581D01*
X133174940Y-104228900D01*
X133161294Y-104258972D01*
X133153560Y-104277825D01*
X133153021Y-104279700D01*
X133147464Y-104293599D01*
X133133983Y-104323806D01*
X133116210Y-104362250D01*
X133088104Y-104423463D01*
X133070039Y-104466077D01*
X133060379Y-104494048D01*
X133058517Y-104501950D01*
X133048731Y-104520695D01*
X133035977Y-104536875D01*
X133024356Y-104553644D01*
X133026150Y-104559100D01*
X133026963Y-104566778D01*
X133016324Y-104581325D01*
X133000908Y-104600971D01*
X132996803Y-104609900D01*
X132994658Y-104618999D01*
X132986568Y-104640472D01*
X132971174Y-104677676D01*
X132947121Y-104733974D01*
X132940384Y-104749600D01*
X132929675Y-104775224D01*
X132925003Y-104787700D01*
X132919146Y-104801607D01*
X132905448Y-104831831D01*
X132887610Y-104870250D01*
X132860784Y-104928307D01*
X132839328Y-104976365D01*
X132825632Y-105009022D01*
X132822950Y-105016300D01*
X132806120Y-105057939D01*
X132790389Y-105082022D01*
X132777953Y-105086310D01*
X132771086Y-105069216D01*
X132764819Y-105049450D01*
X132748267Y-105010058D01*
X132720891Y-104949787D01*
X132707491Y-104921050D01*
X132689075Y-104881382D01*
X132675586Y-104851612D01*
X132670065Y-104838500D01*
X132661617Y-104815569D01*
X132644334Y-104774807D01*
X132621693Y-104724200D01*
X132606374Y-104689939D01*
X132596372Y-104666299D01*
X132594378Y-104660700D01*
X132588740Y-104646798D01*
X132575200Y-104616586D01*
X132557410Y-104578150D01*
X132529727Y-104518234D01*
X132508578Y-104470717D01*
X132495811Y-104439807D01*
X132493203Y-104432100D01*
X132487341Y-104418195D01*
X132473630Y-104387977D01*
X132455766Y-104349550D01*
X132437075Y-104308333D01*
X132423320Y-104275392D01*
X132417721Y-104258756D01*
X132408242Y-104237465D01*
X132398564Y-104223831D01*
X132388914Y-104207783D01*
X132391150Y-104203500D01*
X132392074Y-104195615D01*
X132383737Y-104183168D01*
X132368650Y-104159672D01*
X132364580Y-104148243D01*
X132358297Y-104129861D01*
X132344124Y-104096151D01*
X132326535Y-104057450D01*
X132308182Y-104017797D01*
X132294884Y-103988032D01*
X132289626Y-103974900D01*
X132280408Y-103948511D01*
X132262695Y-103911754D01*
X132241617Y-103874067D01*
X132222300Y-103844889D01*
X132213939Y-103835595D01*
X132193470Y-103829097D01*
X132152321Y-103823775D01*
X132095188Y-103819668D01*
X132026764Y-103816814D01*
X131951745Y-103815254D01*
X131874826Y-103815026D01*
X131800702Y-103816169D01*
G36*
X147935652Y-100707615D02*
X147888112Y-100709714D01*
X147851604Y-100714041D01*
X147848117Y-100714748D01*
X147829247Y-100719072D01*
X147811121Y-100724191D01*
X147792676Y-100731082D01*
X147772850Y-100740721D01*
X147750581Y-100754083D01*
X147724805Y-100772146D01*
X147694460Y-100795885D01*
X147658483Y-100826277D01*
X147615812Y-100864297D01*
X147565384Y-100910922D01*
X147506136Y-100967128D01*
X147437007Y-101033890D01*
X147356932Y-101112186D01*
X147264851Y-101202991D01*
X147159699Y-101307282D01*
X147040415Y-101426034D01*
X146905936Y-101560224D01*
X146755199Y-101710827D01*
X146657557Y-101808428D01*
X146500461Y-101965487D01*
X146360385Y-102105593D01*
X146236378Y-102229744D01*
X146127487Y-102338938D01*
X146032762Y-102434171D01*
X145951250Y-102516441D01*
X145882001Y-102586744D01*
X145824063Y-102646079D01*
X145776483Y-102695442D01*
X145738311Y-102735830D01*
X145708594Y-102768240D01*
X145686382Y-102793670D01*
X145670723Y-102813118D01*
X145660664Y-102827579D01*
X145655255Y-102838051D01*
X145653544Y-102845532D01*
X145654579Y-102851019D01*
X145657409Y-102855508D01*
X145657836Y-102856043D01*
X145679418Y-102876010D01*
X145695378Y-102882699D01*
X145705495Y-102887067D01*
X145703827Y-102890206D01*
X145707498Y-102902278D01*
X145724747Y-102923865D01*
X145749238Y-102948718D01*
X145774634Y-102970585D01*
X145794599Y-102983217D01*
X145799207Y-102984300D01*
X145807171Y-102989212D01*
X145805427Y-102991806D01*
X145809098Y-103003878D01*
X145826347Y-103025465D01*
X145850838Y-103050318D01*
X145876234Y-103072185D01*
X145896199Y-103084817D01*
X145900807Y-103085899D01*
X145908771Y-103090812D01*
X145907027Y-103093406D01*
X145910698Y-103105478D01*
X145927947Y-103127065D01*
X145952438Y-103151918D01*
X145977834Y-103173785D01*
X145997799Y-103186417D01*
X146002407Y-103187499D01*
X146010371Y-103192412D01*
X146008627Y-103195006D01*
X146012298Y-103207078D01*
X146029547Y-103228665D01*
X146054038Y-103253518D01*
X146079434Y-103275385D01*
X146099399Y-103288017D01*
X146104007Y-103289099D01*
X146111971Y-103294012D01*
X146110227Y-103296606D01*
X146113898Y-103308678D01*
X146131147Y-103330265D01*
X146155638Y-103355118D01*
X146181034Y-103376985D01*
X146200999Y-103389617D01*
X146205607Y-103390700D01*
X146213571Y-103395612D01*
X146211827Y-103398206D01*
X146215498Y-103410278D01*
X146232747Y-103431865D01*
X146257238Y-103456718D01*
X146282634Y-103478585D01*
X146302599Y-103491217D01*
X146307207Y-103492300D01*
X146315171Y-103497212D01*
X146313427Y-103499806D01*
X146317098Y-103511878D01*
X146334347Y-103533465D01*
X146358838Y-103558318D01*
X146384234Y-103580185D01*
X146404199Y-103592817D01*
X146408807Y-103593899D01*
X146416771Y-103598812D01*
X146415027Y-103601406D01*
X146418698Y-103613478D01*
X146435947Y-103635065D01*
X146460438Y-103659918D01*
X146485834Y-103681785D01*
X146505799Y-103694417D01*
X146510407Y-103695499D01*
X146518371Y-103700412D01*
X146516627Y-103703006D01*
X146520298Y-103715078D01*
X146537547Y-103736665D01*
X146562038Y-103761518D01*
X146587434Y-103783385D01*
X146607399Y-103796017D01*
X146612007Y-103797100D01*
X146619971Y-103802012D01*
X146618227Y-103804606D01*
X146621898Y-103816678D01*
X146639147Y-103838265D01*
X146663638Y-103863118D01*
X146689034Y-103884985D01*
X146708999Y-103897617D01*
X146713607Y-103898700D01*
X146721571Y-103903612D01*
X146719827Y-103906206D01*
X146723498Y-103918278D01*
X146740747Y-103939865D01*
X146765238Y-103964718D01*
X146790634Y-103986585D01*
X146810599Y-103999217D01*
X146815207Y-104000300D01*
X146823171Y-104005212D01*
X146821427Y-104007806D01*
X146825098Y-104019878D01*
X146842347Y-104041465D01*
X146866838Y-104066318D01*
X146892234Y-104088185D01*
X146912199Y-104100817D01*
X146916807Y-104101900D01*
X146924771Y-104106812D01*
X146923027Y-104109406D01*
X146926698Y-104121478D01*
X146943947Y-104143065D01*
X146968438Y-104167918D01*
X146993834Y-104189785D01*
X147013799Y-104202417D01*
X147018407Y-104203499D01*
X147026371Y-104208412D01*
X147024627Y-104211006D01*
X147028298Y-104223078D01*
X147045547Y-104244665D01*
X147070038Y-104269518D01*
X147095434Y-104291385D01*
X147115399Y-104304017D01*
X147120007Y-104305100D01*
X147127971Y-104310012D01*
X147126227Y-104312606D01*
X147129898Y-104324678D01*
X147147147Y-104346265D01*
X147171638Y-104371118D01*
X147197034Y-104392985D01*
X147216999Y-104405617D01*
X147221607Y-104406700D01*
X147229571Y-104411612D01*
X147227827Y-104414206D01*
X147231498Y-104426278D01*
X147248747Y-104447865D01*
X147273238Y-104472718D01*
X147298634Y-104494585D01*
X147318599Y-104507217D01*
X147323207Y-104508299D01*
X147331171Y-104513212D01*
X147329427Y-104515806D01*
X147333098Y-104527878D01*
X147350347Y-104549465D01*
X147374838Y-104574318D01*
X147400234Y-104596185D01*
X147420199Y-104608817D01*
X147424807Y-104609900D01*
X147432771Y-104614812D01*
X147431027Y-104617406D01*
X147434698Y-104629478D01*
X147451947Y-104651065D01*
X147476438Y-104675918D01*
X147501834Y-104697785D01*
X147521799Y-104710417D01*
X147526407Y-104711500D01*
X147534371Y-104716412D01*
X147532627Y-104719006D01*
X147536298Y-104731078D01*
X147553547Y-104752665D01*
X147578038Y-104777518D01*
X147603434Y-104799385D01*
X147623399Y-104812017D01*
X147628007Y-104813100D01*
X147635971Y-104818012D01*
X147634227Y-104820606D01*
X147638028Y-104832558D01*
X147655230Y-104854174D01*
X147679504Y-104879120D01*
X147704522Y-104901062D01*
X147723956Y-104913666D01*
X147728240Y-104914700D01*
X147734807Y-104922545D01*
X147732750Y-104927400D01*
X147734709Y-104937505D01*
X147749937Y-104939765D01*
X147767187Y-104932982D01*
X147769101Y-104931265D01*
X147788993Y-104920647D01*
X147793443Y-104919563D01*
X147818643Y-104914977D01*
X147834350Y-104912155D01*
X147861682Y-104905038D01*
X147872450Y-104900543D01*
X147897136Y-104895371D01*
X147940094Y-104894369D01*
X147994622Y-104897065D01*
X148054020Y-104902985D01*
X148111589Y-104911657D01*
X148151850Y-104920265D01*
X148179240Y-104929435D01*
X148218323Y-104944860D01*
X148257807Y-104961986D01*
X148272500Y-104968937D01*
X148300891Y-104985368D01*
X148335882Y-105009048D01*
X148372707Y-105036224D01*
X148406599Y-105063141D01*
X148432792Y-105086048D01*
X148446518Y-105101191D01*
X148445574Y-105105200D01*
X148449257Y-105113396D01*
X148466105Y-105134135D01*
X148477222Y-105146475D01*
X148508721Y-105187015D01*
X148538559Y-105240338D01*
X148570062Y-105312413D01*
X148570997Y-105314750D01*
X148593245Y-105393115D01*
X148604592Y-105483547D01*
X148604869Y-105576776D01*
X148593905Y-105663531D01*
X148578389Y-105718288D01*
X148571448Y-105742715D01*
X148573221Y-105752899D01*
X148573233Y-105752900D01*
X148571884Y-105760779D01*
X148558250Y-105778300D01*
X148544871Y-105796577D01*
X148545550Y-105803700D01*
X148545708Y-105811553D01*
X148531644Y-105830433D01*
X148514931Y-105852377D01*
X148510090Y-105865358D01*
X148503591Y-105878329D01*
X148484050Y-105903454D01*
X148462779Y-105927525D01*
X148437269Y-105956261D01*
X148421961Y-105975839D01*
X148419838Y-105981500D01*
X148418336Y-105987401D01*
X148399977Y-106002852D01*
X148369768Y-106024475D01*
X148332714Y-106048891D01*
X148293823Y-106072721D01*
X148258101Y-106092589D01*
X148247100Y-106098063D01*
X148197619Y-106120775D01*
X148159225Y-106135331D01*
X148120543Y-106145435D01*
X148075650Y-106153853D01*
X148006147Y-106160883D01*
X147931700Y-106160405D01*
X147861923Y-106152988D01*
X147806434Y-106139199D01*
X147802600Y-106137717D01*
X147774719Y-106128556D01*
X147766605Y-106126598D01*
X147711951Y-106106517D01*
X147649295Y-106069252D01*
X147583907Y-106019274D01*
X147521062Y-105961052D01*
X147466032Y-105899058D01*
X147424087Y-105837763D01*
X147422391Y-105834729D01*
X147384475Y-105758534D01*
X147360697Y-105689025D01*
X147348367Y-105615658D01*
X147344801Y-105530650D01*
X147345691Y-105469640D01*
X147349728Y-105423409D01*
X147358392Y-105381388D01*
X147371956Y-105336650D01*
X147386552Y-105292421D01*
X146333149Y-104239017D01*
X145279745Y-103185613D01*
X144972723Y-103493218D01*
X144900330Y-103566190D01*
X144834019Y-103633883D01*
X144775858Y-103694116D01*
X144727921Y-103744711D01*
X144692276Y-103783486D01*
X144670996Y-103808261D01*
X144665700Y-103816456D01*
X144656816Y-103836960D01*
X144646344Y-103848154D01*
X144633344Y-103863983D01*
X144633533Y-103870766D01*
X144632675Y-103884610D01*
X144627743Y-103892178D01*
X144614772Y-103917101D01*
X144610711Y-103931446D01*
X144601848Y-103963745D01*
X144596951Y-103976638D01*
X144588681Y-104011299D01*
X144584801Y-104060842D01*
X144585530Y-104115096D01*
X144591090Y-104163888D01*
X144592722Y-104171750D01*
X144601228Y-104209487D01*
X144607707Y-104239074D01*
X144608643Y-104243533D01*
X144620333Y-104276843D01*
X144640904Y-104318591D01*
X144664109Y-104356805D01*
X144675550Y-104371775D01*
X144686875Y-104388642D01*
X144685154Y-104394000D01*
X144692499Y-104402762D01*
X144716730Y-104428294D01*
X144756715Y-104469466D01*
X144811321Y-104525146D01*
X144879415Y-104594203D01*
X144959865Y-104675505D01*
X145051537Y-104767921D01*
X145153300Y-104870321D01*
X145264020Y-104981573D01*
X145382565Y-105100545D01*
X145507803Y-105226106D01*
X145638599Y-105357126D01*
X145773822Y-105492473D01*
X145912339Y-105631016D01*
X146053017Y-105771623D01*
X146194723Y-105913164D01*
X146336325Y-106054507D01*
X146476690Y-106194521D01*
X146614686Y-106332075D01*
X146749179Y-106466037D01*
X146879037Y-106595276D01*
X147003127Y-106718662D01*
X147120316Y-106835063D01*
X147229472Y-106943347D01*
X147329462Y-107042383D01*
X147419153Y-107131041D01*
X147497413Y-107208189D01*
X147563108Y-107272696D01*
X147615107Y-107323430D01*
X147652276Y-107359261D01*
X147673482Y-107379057D01*
X147677654Y-107382528D01*
X147732608Y-107415504D01*
X147788476Y-107442341D01*
X147835712Y-107458551D01*
X147842272Y-107459941D01*
X147865302Y-107465181D01*
X147872450Y-107468292D01*
X147883925Y-107470742D01*
X147913467Y-107472472D01*
X147953753Y-107473442D01*
X147997457Y-107473611D01*
X148037258Y-107472938D01*
X148065831Y-107471383D01*
X148075752Y-107469415D01*
X148092882Y-107461805D01*
X148105996Y-107458949D01*
X148134669Y-107451555D01*
X148165994Y-107440293D01*
X148194073Y-107430136D01*
X148210572Y-107426728D01*
X148210663Y-107426745D01*
X148224171Y-107419566D01*
X148241207Y-107403395D01*
X148262989Y-107384619D01*
X148277614Y-107378500D01*
X148288246Y-107369695D01*
X148315662Y-107344038D01*
X148358711Y-107302662D01*
X148416242Y-107246704D01*
X148487106Y-107177296D01*
X148570152Y-107095575D01*
X148664231Y-107002674D01*
X148768191Y-106899728D01*
X148880882Y-106787872D01*
X149001155Y-106668241D01*
X149127859Y-106541969D01*
X149259844Y-106410191D01*
X149304347Y-106365704D01*
X150317202Y-105352908D01*
X149261049Y-104296698D01*
X149100928Y-104136595D01*
X148957764Y-103993530D01*
X148830576Y-103866563D01*
X148718380Y-103754750D01*
X148620195Y-103657151D01*
X148535037Y-103572822D01*
X148461924Y-103500822D01*
X148399875Y-103440209D01*
X148347905Y-103390041D01*
X148305033Y-103349376D01*
X148270277Y-103317273D01*
X148242653Y-103292788D01*
X148221180Y-103274980D01*
X148204874Y-103262907D01*
X148192754Y-103255627D01*
X148183837Y-103252199D01*
X148177140Y-103251679D01*
X148172337Y-103252868D01*
X148105236Y-103270239D01*
X148020533Y-103279131D01*
X147961350Y-103280001D01*
X147914461Y-103278047D01*
X147871079Y-103274301D01*
X147838036Y-103269561D01*
X147822163Y-103264625D01*
X147821650Y-103263672D01*
X147811184Y-103260089D01*
X147798439Y-103257357D01*
X147772227Y-103249062D01*
X147736724Y-103234101D01*
X147728589Y-103230235D01*
X147697882Y-103215764D01*
X147678134Y-103207363D01*
X147675600Y-103206610D01*
X147653574Y-103196537D01*
X147619504Y-103173462D01*
X147579510Y-103142142D01*
X147539712Y-103107332D01*
X147510033Y-103077935D01*
X147476692Y-103037128D01*
X147442686Y-102987270D01*
X147411644Y-102934746D01*
X147387192Y-102885942D01*
X147372960Y-102847241D01*
X147370800Y-102832921D01*
X147366119Y-102808844D01*
X147361725Y-102801658D01*
X147352507Y-102779080D01*
X147346867Y-102737739D01*
X147344593Y-102683989D01*
X147345469Y-102624183D01*
X147349281Y-102564672D01*
X147355817Y-102511811D01*
X147364861Y-102471952D01*
X147373435Y-102454075D01*
X147385008Y-102437613D01*
X147385783Y-102433073D01*
X147385882Y-102421490D01*
X147395768Y-102394727D01*
X147412392Y-102359522D01*
X147432705Y-102322614D01*
X147443802Y-102304850D01*
X147475341Y-102261484D01*
X147511160Y-102219068D01*
X147546542Y-102182463D01*
X147576775Y-102156529D01*
X147597141Y-102146125D01*
X147597811Y-102146100D01*
X147609776Y-102141908D01*
X147608154Y-102137920D01*
X147614623Y-102129134D01*
X147638468Y-102113181D01*
X147673826Y-102093144D01*
X147714833Y-102072109D01*
X147755627Y-102053159D01*
X147790344Y-102039381D01*
X147802479Y-102035675D01*
X147830346Y-102031448D01*
X147874345Y-102027981D01*
X147928207Y-102025408D01*
X147985663Y-102023859D01*
X148040446Y-102023468D01*
X148086285Y-102024365D01*
X148116913Y-102026683D01*
X148125494Y-102028879D01*
X148149960Y-102038525D01*
X148159684Y-102040619D01*
X148180342Y-102047828D01*
X148216164Y-102063953D01*
X148260017Y-102085748D01*
X148267634Y-102089719D01*
X148308379Y-102114226D01*
X148353415Y-102146227D01*
X148398464Y-102181990D01*
X148439245Y-102217781D01*
X148471479Y-102249867D01*
X148490885Y-102274516D01*
X148493943Y-102287106D01*
X148496890Y-102301390D01*
X148501135Y-102304871D01*
X148513070Y-102318854D01*
X148529616Y-102345645D01*
X148547099Y-102378095D01*
X148561849Y-102409052D01*
X148570191Y-102431366D01*
X148569609Y-102438200D01*
X148569206Y-102445932D01*
X148575463Y-102455035D01*
X148588653Y-102484600D01*
X148598145Y-102532757D01*
X148603850Y-102592955D01*
X148605677Y-102658643D01*
X148603537Y-102723271D01*
X148597342Y-102780287D01*
X148587001Y-102823142D01*
X148580666Y-102836556D01*
X148570531Y-102860331D01*
X148569515Y-102865061D01*
X148578045Y-102875687D01*
X148603457Y-102903117D01*
X148644644Y-102946224D01*
X148700497Y-103003884D01*
X148769907Y-103074971D01*
X148851766Y-103158358D01*
X148944965Y-103252921D01*
X149048396Y-103357533D01*
X149160949Y-103471069D01*
X149281516Y-103592404D01*
X149408989Y-103720411D01*
X149542259Y-103853965D01*
X149623324Y-103935073D01*
X150679282Y-104990975D01*
X150969082Y-104700969D01*
X151040322Y-104629275D01*
X151106286Y-104562117D01*
X151164670Y-104501902D01*
X151213169Y-104451039D01*
X151249477Y-104411933D01*
X151271288Y-104386992D01*
X151276230Y-104380256D01*
X151325735Y-104279636D01*
X151354731Y-104186001D01*
X151364144Y-104092714D01*
X151354901Y-103993135D01*
X151339896Y-103924100D01*
X151336288Y-103912099D01*
X151330959Y-103899114D01*
X151323113Y-103884314D01*
X151311950Y-103866867D01*
X151296673Y-103845941D01*
X151276484Y-103820705D01*
X151250586Y-103790328D01*
X151218180Y-103753979D01*
X151178469Y-103710825D01*
X151130654Y-103660036D01*
X151073938Y-103600780D01*
X151007523Y-103532226D01*
X150930611Y-103453543D01*
X150842405Y-103363898D01*
X150742105Y-103262461D01*
X150628915Y-103148399D01*
X150502036Y-103020883D01*
X150360672Y-102879080D01*
X150204023Y-102722159D01*
X150031292Y-102549288D01*
X149841681Y-102359637D01*
X149763555Y-102281515D01*
X149599733Y-102117786D01*
X149440753Y-101959046D01*
X149287543Y-101806215D01*
X149141031Y-101660213D01*
X149002144Y-101521959D01*
X148871812Y-101392374D01*
X148750963Y-101272378D01*
X148640523Y-101162891D01*
X148541423Y-101064833D01*
X148454588Y-100979124D01*
X148380949Y-100906684D01*
X148321433Y-100848432D01*
X148276967Y-100805290D01*
X148248481Y-100778176D01*
X148236901Y-100768012D01*
X148236694Y-100767973D01*
X148223500Y-100765912D01*
X148209366Y-100755781D01*
X148180133Y-100738405D01*
X148157536Y-100731297D01*
X148134076Y-100726335D01*
X148126450Y-100723700D01*
X148114773Y-100717589D01*
X148083786Y-100712730D01*
X148039558Y-100709318D01*
X147988157Y-100707548D01*
X147935652Y-100707615D01*
X147935652Y-100707615D01*
G37*
X147935652Y-100707615D02*
X147888112Y-100709714D01*
X147851604Y-100714041D01*
X147848117Y-100714748D01*
X147829247Y-100719072D01*
X147811121Y-100724191D01*
X147792676Y-100731082D01*
X147772850Y-100740721D01*
X147750581Y-100754083D01*
X147724805Y-100772146D01*
X147694460Y-100795885D01*
X147658483Y-100826277D01*
X147615812Y-100864297D01*
X147565384Y-100910922D01*
X147506136Y-100967128D01*
X147437007Y-101033890D01*
X147356932Y-101112186D01*
X147264851Y-101202991D01*
X147159699Y-101307282D01*
X147040415Y-101426034D01*
X146905936Y-101560224D01*
X146755199Y-101710827D01*
X146657557Y-101808428D01*
X146500461Y-101965487D01*
X146360385Y-102105593D01*
X146236378Y-102229744D01*
X146127487Y-102338938D01*
X146032762Y-102434171D01*
X145951250Y-102516441D01*
X145882001Y-102586744D01*
X145824063Y-102646079D01*
X145776483Y-102695442D01*
X145738311Y-102735830D01*
X145708594Y-102768240D01*
X145686382Y-102793670D01*
X145670723Y-102813118D01*
X145660664Y-102827579D01*
X145655255Y-102838051D01*
X145653544Y-102845532D01*
X145654579Y-102851019D01*
X145657409Y-102855508D01*
X145657836Y-102856043D01*
X145679418Y-102876010D01*
X145695378Y-102882699D01*
X145705495Y-102887067D01*
X145703827Y-102890206D01*
X145707498Y-102902278D01*
X145724747Y-102923865D01*
X145749238Y-102948718D01*
X145774634Y-102970585D01*
X145794599Y-102983217D01*
X145799207Y-102984300D01*
X145807171Y-102989212D01*
X145805427Y-102991806D01*
X145809098Y-103003878D01*
X145826347Y-103025465D01*
X145850838Y-103050318D01*
X145876234Y-103072185D01*
X145896199Y-103084817D01*
X145900807Y-103085899D01*
X145908771Y-103090812D01*
X145907027Y-103093406D01*
X145910698Y-103105478D01*
X145927947Y-103127065D01*
X145952438Y-103151918D01*
X145977834Y-103173785D01*
X145997799Y-103186417D01*
X146002407Y-103187499D01*
X146010371Y-103192412D01*
X146008627Y-103195006D01*
X146012298Y-103207078D01*
X146029547Y-103228665D01*
X146054038Y-103253518D01*
X146079434Y-103275385D01*
X146099399Y-103288017D01*
X146104007Y-103289099D01*
X146111971Y-103294012D01*
X146110227Y-103296606D01*
X146113898Y-103308678D01*
X146131147Y-103330265D01*
X146155638Y-103355118D01*
X146181034Y-103376985D01*
X146200999Y-103389617D01*
X146205607Y-103390700D01*
X146213571Y-103395612D01*
X146211827Y-103398206D01*
X146215498Y-103410278D01*
X146232747Y-103431865D01*
X146257238Y-103456718D01*
X146282634Y-103478585D01*
X146302599Y-103491217D01*
X146307207Y-103492300D01*
X146315171Y-103497212D01*
X146313427Y-103499806D01*
X146317098Y-103511878D01*
X146334347Y-103533465D01*
X146358838Y-103558318D01*
X146384234Y-103580185D01*
X146404199Y-103592817D01*
X146408807Y-103593899D01*
X146416771Y-103598812D01*
X146415027Y-103601406D01*
X146418698Y-103613478D01*
X146435947Y-103635065D01*
X146460438Y-103659918D01*
X146485834Y-103681785D01*
X146505799Y-103694417D01*
X146510407Y-103695499D01*
X146518371Y-103700412D01*
X146516627Y-103703006D01*
X146520298Y-103715078D01*
X146537547Y-103736665D01*
X146562038Y-103761518D01*
X146587434Y-103783385D01*
X146607399Y-103796017D01*
X146612007Y-103797100D01*
X146619971Y-103802012D01*
X146618227Y-103804606D01*
X146621898Y-103816678D01*
X146639147Y-103838265D01*
X146663638Y-103863118D01*
X146689034Y-103884985D01*
X146708999Y-103897617D01*
X146713607Y-103898700D01*
X146721571Y-103903612D01*
X146719827Y-103906206D01*
X146723498Y-103918278D01*
X146740747Y-103939865D01*
X146765238Y-103964718D01*
X146790634Y-103986585D01*
X146810599Y-103999217D01*
X146815207Y-104000300D01*
X146823171Y-104005212D01*
X146821427Y-104007806D01*
X146825098Y-104019878D01*
X146842347Y-104041465D01*
X146866838Y-104066318D01*
X146892234Y-104088185D01*
X146912199Y-104100817D01*
X146916807Y-104101900D01*
X146924771Y-104106812D01*
X146923027Y-104109406D01*
X146926698Y-104121478D01*
X146943947Y-104143065D01*
X146968438Y-104167918D01*
X146993834Y-104189785D01*
X147013799Y-104202417D01*
X147018407Y-104203499D01*
X147026371Y-104208412D01*
X147024627Y-104211006D01*
X147028298Y-104223078D01*
X147045547Y-104244665D01*
X147070038Y-104269518D01*
X147095434Y-104291385D01*
X147115399Y-104304017D01*
X147120007Y-104305100D01*
X147127971Y-104310012D01*
X147126227Y-104312606D01*
X147129898Y-104324678D01*
X147147147Y-104346265D01*
X147171638Y-104371118D01*
X147197034Y-104392985D01*
X147216999Y-104405617D01*
X147221607Y-104406700D01*
X147229571Y-104411612D01*
X147227827Y-104414206D01*
X147231498Y-104426278D01*
X147248747Y-104447865D01*
X147273238Y-104472718D01*
X147298634Y-104494585D01*
X147318599Y-104507217D01*
X147323207Y-104508299D01*
X147331171Y-104513212D01*
X147329427Y-104515806D01*
X147333098Y-104527878D01*
X147350347Y-104549465D01*
X147374838Y-104574318D01*
X147400234Y-104596185D01*
X147420199Y-104608817D01*
X147424807Y-104609900D01*
X147432771Y-104614812D01*
X147431027Y-104617406D01*
X147434698Y-104629478D01*
X147451947Y-104651065D01*
X147476438Y-104675918D01*
X147501834Y-104697785D01*
X147521799Y-104710417D01*
X147526407Y-104711500D01*
X147534371Y-104716412D01*
X147532627Y-104719006D01*
X147536298Y-104731078D01*
X147553547Y-104752665D01*
X147578038Y-104777518D01*
X147603434Y-104799385D01*
X147623399Y-104812017D01*
X147628007Y-104813100D01*
X147635971Y-104818012D01*
X147634227Y-104820606D01*
X147638028Y-104832558D01*
X147655230Y-104854174D01*
X147679504Y-104879120D01*
X147704522Y-104901062D01*
X147723956Y-104913666D01*
X147728240Y-104914700D01*
X147734807Y-104922545D01*
X147732750Y-104927400D01*
X147734709Y-104937505D01*
X147749937Y-104939765D01*
X147767187Y-104932982D01*
X147769101Y-104931265D01*
X147788993Y-104920647D01*
X147793443Y-104919563D01*
X147818643Y-104914977D01*
X147834350Y-104912155D01*
X147861682Y-104905038D01*
X147872450Y-104900543D01*
X147897136Y-104895371D01*
X147940094Y-104894369D01*
X147994622Y-104897065D01*
X148054020Y-104902985D01*
X148111589Y-104911657D01*
X148151850Y-104920265D01*
X148179240Y-104929435D01*
X148218323Y-104944860D01*
X148257807Y-104961986D01*
X148272500Y-104968937D01*
X148300891Y-104985368D01*
X148335882Y-105009048D01*
X148372707Y-105036224D01*
X148406599Y-105063141D01*
X148432792Y-105086048D01*
X148446518Y-105101191D01*
X148445574Y-105105200D01*
X148449257Y-105113396D01*
X148466105Y-105134135D01*
X148477222Y-105146475D01*
X148508721Y-105187015D01*
X148538559Y-105240338D01*
X148570062Y-105312413D01*
X148570997Y-105314750D01*
X148593245Y-105393115D01*
X148604592Y-105483547D01*
X148604869Y-105576776D01*
X148593905Y-105663531D01*
X148578389Y-105718288D01*
X148571448Y-105742715D01*
X148573221Y-105752899D01*
X148573233Y-105752900D01*
X148571884Y-105760779D01*
X148558250Y-105778300D01*
X148544871Y-105796577D01*
X148545550Y-105803700D01*
X148545708Y-105811553D01*
X148531644Y-105830433D01*
X148514931Y-105852377D01*
X148510090Y-105865358D01*
X148503591Y-105878329D01*
X148484050Y-105903454D01*
X148462779Y-105927525D01*
X148437269Y-105956261D01*
X148421961Y-105975839D01*
X148419838Y-105981500D01*
X148418336Y-105987401D01*
X148399977Y-106002852D01*
X148369768Y-106024475D01*
X148332714Y-106048891D01*
X148293823Y-106072721D01*
X148258101Y-106092589D01*
X148247100Y-106098063D01*
X148197619Y-106120775D01*
X148159225Y-106135331D01*
X148120543Y-106145435D01*
X148075650Y-106153853D01*
X148006147Y-106160883D01*
X147931700Y-106160405D01*
X147861923Y-106152988D01*
X147806434Y-106139199D01*
X147802600Y-106137717D01*
X147774719Y-106128556D01*
X147766605Y-106126598D01*
X147711951Y-106106517D01*
X147649295Y-106069252D01*
X147583907Y-106019274D01*
X147521062Y-105961052D01*
X147466032Y-105899058D01*
X147424087Y-105837763D01*
X147422391Y-105834729D01*
X147384475Y-105758534D01*
X147360697Y-105689025D01*
X147348367Y-105615658D01*
X147344801Y-105530650D01*
X147345691Y-105469640D01*
X147349728Y-105423409D01*
X147358392Y-105381388D01*
X147371956Y-105336650D01*
X147386552Y-105292421D01*
X146333149Y-104239017D01*
X145279745Y-103185613D01*
X144972723Y-103493218D01*
X144900330Y-103566190D01*
X144834019Y-103633883D01*
X144775858Y-103694116D01*
X144727921Y-103744711D01*
X144692276Y-103783486D01*
X144670996Y-103808261D01*
X144665700Y-103816456D01*
X144656816Y-103836960D01*
X144646344Y-103848154D01*
X144633344Y-103863983D01*
X144633533Y-103870766D01*
X144632675Y-103884610D01*
X144627743Y-103892178D01*
X144614772Y-103917101D01*
X144610711Y-103931446D01*
X144601848Y-103963745D01*
X144596951Y-103976638D01*
X144588681Y-104011299D01*
X144584801Y-104060842D01*
X144585530Y-104115096D01*
X144591090Y-104163888D01*
X144592722Y-104171750D01*
X144601228Y-104209487D01*
X144607707Y-104239074D01*
X144608643Y-104243533D01*
X144620333Y-104276843D01*
X144640904Y-104318591D01*
X144664109Y-104356805D01*
X144675550Y-104371775D01*
X144686875Y-104388642D01*
X144685154Y-104394000D01*
X144692499Y-104402762D01*
X144716730Y-104428294D01*
X144756715Y-104469466D01*
X144811321Y-104525146D01*
X144879415Y-104594203D01*
X144959865Y-104675505D01*
X145051537Y-104767921D01*
X145153300Y-104870321D01*
X145264020Y-104981573D01*
X145382565Y-105100545D01*
X145507803Y-105226106D01*
X145638599Y-105357126D01*
X145773822Y-105492473D01*
X145912339Y-105631016D01*
X146053017Y-105771623D01*
X146194723Y-105913164D01*
X146336325Y-106054507D01*
X146476690Y-106194521D01*
X146614686Y-106332075D01*
X146749179Y-106466037D01*
X146879037Y-106595276D01*
X147003127Y-106718662D01*
X147120316Y-106835063D01*
X147229472Y-106943347D01*
X147329462Y-107042383D01*
X147419153Y-107131041D01*
X147497413Y-107208189D01*
X147563108Y-107272696D01*
X147615107Y-107323430D01*
X147652276Y-107359261D01*
X147673482Y-107379057D01*
X147677654Y-107382528D01*
X147732608Y-107415504D01*
X147788476Y-107442341D01*
X147835712Y-107458551D01*
X147842272Y-107459941D01*
X147865302Y-107465181D01*
X147872450Y-107468292D01*
X147883925Y-107470742D01*
X147913467Y-107472472D01*
X147953753Y-107473442D01*
X147997457Y-107473611D01*
X148037258Y-107472938D01*
X148065831Y-107471383D01*
X148075752Y-107469415D01*
X148092882Y-107461805D01*
X148105996Y-107458949D01*
X148134669Y-107451555D01*
X148165994Y-107440293D01*
X148194073Y-107430136D01*
X148210572Y-107426728D01*
X148210663Y-107426745D01*
X148224171Y-107419566D01*
X148241207Y-107403395D01*
X148262989Y-107384619D01*
X148277614Y-107378500D01*
X148288246Y-107369695D01*
X148315662Y-107344038D01*
X148358711Y-107302662D01*
X148416242Y-107246704D01*
X148487106Y-107177296D01*
X148570152Y-107095575D01*
X148664231Y-107002674D01*
X148768191Y-106899728D01*
X148880882Y-106787872D01*
X149001155Y-106668241D01*
X149127859Y-106541969D01*
X149259844Y-106410191D01*
X149304347Y-106365704D01*
X150317202Y-105352908D01*
X149261049Y-104296698D01*
X149100928Y-104136595D01*
X148957764Y-103993530D01*
X148830576Y-103866563D01*
X148718380Y-103754750D01*
X148620195Y-103657151D01*
X148535037Y-103572822D01*
X148461924Y-103500822D01*
X148399875Y-103440209D01*
X148347905Y-103390041D01*
X148305033Y-103349376D01*
X148270277Y-103317273D01*
X148242653Y-103292788D01*
X148221180Y-103274980D01*
X148204874Y-103262907D01*
X148192754Y-103255627D01*
X148183837Y-103252199D01*
X148177140Y-103251679D01*
X148172337Y-103252868D01*
X148105236Y-103270239D01*
X148020533Y-103279131D01*
X147961350Y-103280001D01*
X147914461Y-103278047D01*
X147871079Y-103274301D01*
X147838036Y-103269561D01*
X147822163Y-103264625D01*
X147821650Y-103263672D01*
X147811184Y-103260089D01*
X147798439Y-103257357D01*
X147772227Y-103249062D01*
X147736724Y-103234101D01*
X147728589Y-103230235D01*
X147697882Y-103215764D01*
X147678134Y-103207363D01*
X147675600Y-103206610D01*
X147653574Y-103196537D01*
X147619504Y-103173462D01*
X147579510Y-103142142D01*
X147539712Y-103107332D01*
X147510033Y-103077935D01*
X147476692Y-103037128D01*
X147442686Y-102987270D01*
X147411644Y-102934746D01*
X147387192Y-102885942D01*
X147372960Y-102847241D01*
X147370800Y-102832921D01*
X147366119Y-102808844D01*
X147361725Y-102801658D01*
X147352507Y-102779080D01*
X147346867Y-102737739D01*
X147344593Y-102683989D01*
X147345469Y-102624183D01*
X147349281Y-102564672D01*
X147355817Y-102511811D01*
X147364861Y-102471952D01*
X147373435Y-102454075D01*
X147385008Y-102437613D01*
X147385783Y-102433073D01*
X147385882Y-102421490D01*
X147395768Y-102394727D01*
X147412392Y-102359522D01*
X147432705Y-102322614D01*
X147443802Y-102304850D01*
X147475341Y-102261484D01*
X147511160Y-102219068D01*
X147546542Y-102182463D01*
X147576775Y-102156529D01*
X147597141Y-102146125D01*
X147597811Y-102146100D01*
X147609776Y-102141908D01*
X147608154Y-102137920D01*
X147614623Y-102129134D01*
X147638468Y-102113181D01*
X147673826Y-102093144D01*
X147714833Y-102072109D01*
X147755627Y-102053159D01*
X147790344Y-102039381D01*
X147802479Y-102035675D01*
X147830346Y-102031448D01*
X147874345Y-102027981D01*
X147928207Y-102025408D01*
X147985663Y-102023859D01*
X148040446Y-102023468D01*
X148086285Y-102024365D01*
X148116913Y-102026683D01*
X148125494Y-102028879D01*
X148149960Y-102038525D01*
X148159684Y-102040619D01*
X148180342Y-102047828D01*
X148216164Y-102063953D01*
X148260017Y-102085748D01*
X148267634Y-102089719D01*
X148308379Y-102114226D01*
X148353415Y-102146227D01*
X148398464Y-102181990D01*
X148439245Y-102217781D01*
X148471479Y-102249867D01*
X148490885Y-102274516D01*
X148493943Y-102287106D01*
X148496890Y-102301390D01*
X148501135Y-102304871D01*
X148513070Y-102318854D01*
X148529616Y-102345645D01*
X148547099Y-102378095D01*
X148561849Y-102409052D01*
X148570191Y-102431366D01*
X148569609Y-102438200D01*
X148569206Y-102445932D01*
X148575463Y-102455035D01*
X148588653Y-102484600D01*
X148598145Y-102532757D01*
X148603850Y-102592955D01*
X148605677Y-102658643D01*
X148603537Y-102723271D01*
X148597342Y-102780287D01*
X148587001Y-102823142D01*
X148580666Y-102836556D01*
X148570531Y-102860331D01*
X148569515Y-102865061D01*
X148578045Y-102875687D01*
X148603457Y-102903117D01*
X148644644Y-102946224D01*
X148700497Y-103003884D01*
X148769907Y-103074971D01*
X148851766Y-103158358D01*
X148944965Y-103252921D01*
X149048396Y-103357533D01*
X149160949Y-103471069D01*
X149281516Y-103592404D01*
X149408989Y-103720411D01*
X149542259Y-103853965D01*
X149623324Y-103935073D01*
X150679282Y-104990975D01*
X150969082Y-104700969D01*
X151040322Y-104629275D01*
X151106286Y-104562117D01*
X151164670Y-104501902D01*
X151213169Y-104451039D01*
X151249477Y-104411933D01*
X151271288Y-104386992D01*
X151276230Y-104380256D01*
X151325735Y-104279636D01*
X151354731Y-104186001D01*
X151364144Y-104092714D01*
X151354901Y-103993135D01*
X151339896Y-103924100D01*
X151336288Y-103912099D01*
X151330959Y-103899114D01*
X151323113Y-103884314D01*
X151311950Y-103866867D01*
X151296673Y-103845941D01*
X151276484Y-103820705D01*
X151250586Y-103790328D01*
X151218180Y-103753979D01*
X151178469Y-103710825D01*
X151130654Y-103660036D01*
X151073938Y-103600780D01*
X151007523Y-103532226D01*
X150930611Y-103453543D01*
X150842405Y-103363898D01*
X150742105Y-103262461D01*
X150628915Y-103148399D01*
X150502036Y-103020883D01*
X150360672Y-102879080D01*
X150204023Y-102722159D01*
X150031292Y-102549288D01*
X149841681Y-102359637D01*
X149763555Y-102281515D01*
X149599733Y-102117786D01*
X149440753Y-101959046D01*
X149287543Y-101806215D01*
X149141031Y-101660213D01*
X149002144Y-101521959D01*
X148871812Y-101392374D01*
X148750963Y-101272378D01*
X148640523Y-101162891D01*
X148541423Y-101064833D01*
X148454588Y-100979124D01*
X148380949Y-100906684D01*
X148321433Y-100848432D01*
X148276967Y-100805290D01*
X148248481Y-100778176D01*
X148236901Y-100768012D01*
X148236694Y-100767973D01*
X148223500Y-100765912D01*
X148209366Y-100755781D01*
X148180133Y-100738405D01*
X148157536Y-100731297D01*
X148134076Y-100726335D01*
X148126450Y-100723700D01*
X148114773Y-100717589D01*
X148083786Y-100712730D01*
X148039558Y-100709318D01*
X147988157Y-100707548D01*
X147935652Y-100707615D01*
G36*
X141154553Y-102234622D02*
X141121234Y-102265923D01*
X141128750Y-102812539D01*
X141166850Y-102831314D01*
X141177800Y-102835205D01*
X141194895Y-102838540D01*
X141219982Y-102841360D01*
X141254905Y-102843708D01*
X141301509Y-102845625D01*
X141361639Y-102847155D01*
X141437140Y-102848339D01*
X141529857Y-102849220D01*
X141641635Y-102849840D01*
X141774319Y-102850241D01*
X141929755Y-102850465D01*
X142005050Y-102850519D01*
X142805150Y-102850950D01*
X142811792Y-103860600D01*
X142141078Y-103860600D01*
X141986833Y-103860655D01*
X141855999Y-103860925D01*
X141746589Y-103861560D01*
X141656614Y-103862712D01*
X141584087Y-103864535D01*
X141527020Y-103867179D01*
X141483423Y-103870798D01*
X141451310Y-103875544D01*
X141428692Y-103881568D01*
X141413581Y-103889024D01*
X141403989Y-103898062D01*
X141397927Y-103908836D01*
X141394636Y-103917745D01*
X141391841Y-103938076D01*
X141389161Y-103979339D01*
X141386782Y-104037067D01*
X141384886Y-104106794D01*
X141383658Y-104184052D01*
X141383654Y-104184450D01*
X141383084Y-104272173D01*
X141383593Y-104337908D01*
X141385390Y-104385050D01*
X141388682Y-104416995D01*
X141393677Y-104437140D01*
X141399789Y-104447975D01*
X141410905Y-104464990D01*
X141409618Y-104470200D01*
X141409261Y-104477765D01*
X141417175Y-104488481D01*
X141423984Y-104492551D01*
X141437817Y-104495999D01*
X141460600Y-104498880D01*
X141494257Y-104501247D01*
X141540713Y-104503151D01*
X141601894Y-104504645D01*
X141679725Y-104505784D01*
X141776129Y-104506619D01*
X141893034Y-104507203D01*
X142032363Y-104507590D01*
X142118497Y-104507736D01*
X142247874Y-104507984D01*
X142369400Y-104508340D01*
X142480744Y-104508788D01*
X142579575Y-104509315D01*
X142663561Y-104509903D01*
X142730372Y-104510539D01*
X142777676Y-104511206D01*
X142803143Y-104511890D01*
X142806987Y-104512253D01*
X142807713Y-104525246D01*
X142808519Y-104561335D01*
X142809383Y-104618215D01*
X142810280Y-104693582D01*
X142811188Y-104785130D01*
X142812081Y-104890557D01*
X142812938Y-105007557D01*
X142813733Y-105133826D01*
X142814190Y-105216554D01*
X142817850Y-105917312D01*
X142846711Y-105946164D01*
X142856807Y-105955477D01*
X142868270Y-105962538D01*
X142884512Y-105967660D01*
X142908945Y-105971159D01*
X142944979Y-105973349D01*
X142996027Y-105974546D01*
X143065499Y-105975064D01*
X143156807Y-105975219D01*
X143161459Y-105975222D01*
X143254081Y-105975185D01*
X143324786Y-105974723D01*
X143377054Y-105973540D01*
X143414366Y-105971341D01*
X143440204Y-105967827D01*
X143458050Y-105962704D01*
X143471385Y-105955674D01*
X143481815Y-105947945D01*
X143516284Y-105920460D01*
X143516350Y-104089692D01*
X143516417Y-102258924D01*
X143486823Y-102231122D01*
X143457230Y-102203321D01*
X141187871Y-102203321D01*
X141154553Y-102234622D01*
X141154553Y-102234622D01*
G37*
X141154553Y-102234622D02*
X141121234Y-102265923D01*
X141128750Y-102812539D01*
X141166850Y-102831314D01*
X141177800Y-102835205D01*
X141194895Y-102838540D01*
X141219982Y-102841360D01*
X141254905Y-102843708D01*
X141301509Y-102845625D01*
X141361639Y-102847155D01*
X141437140Y-102848339D01*
X141529857Y-102849220D01*
X141641635Y-102849840D01*
X141774319Y-102850241D01*
X141929755Y-102850465D01*
X142005050Y-102850519D01*
X142805150Y-102850950D01*
X142811792Y-103860600D01*
X142141078Y-103860600D01*
X141986833Y-103860655D01*
X141855999Y-103860925D01*
X141746589Y-103861560D01*
X141656614Y-103862712D01*
X141584087Y-103864535D01*
X141527020Y-103867179D01*
X141483423Y-103870798D01*
X141451310Y-103875544D01*
X141428692Y-103881568D01*
X141413581Y-103889024D01*
X141403989Y-103898062D01*
X141397927Y-103908836D01*
X141394636Y-103917745D01*
X141391841Y-103938076D01*
X141389161Y-103979339D01*
X141386782Y-104037067D01*
X141384886Y-104106794D01*
X141383658Y-104184052D01*
X141383654Y-104184450D01*
X141383084Y-104272173D01*
X141383593Y-104337908D01*
X141385390Y-104385050D01*
X141388682Y-104416995D01*
X141393677Y-104437140D01*
X141399789Y-104447975D01*
X141410905Y-104464990D01*
X141409618Y-104470200D01*
X141409261Y-104477765D01*
X141417175Y-104488481D01*
X141423984Y-104492551D01*
X141437817Y-104495999D01*
X141460600Y-104498880D01*
X141494257Y-104501247D01*
X141540713Y-104503151D01*
X141601894Y-104504645D01*
X141679725Y-104505784D01*
X141776129Y-104506619D01*
X141893034Y-104507203D01*
X142032363Y-104507590D01*
X142118497Y-104507736D01*
X142247874Y-104507984D01*
X142369400Y-104508340D01*
X142480744Y-104508788D01*
X142579575Y-104509315D01*
X142663561Y-104509903D01*
X142730372Y-104510539D01*
X142777676Y-104511206D01*
X142803143Y-104511890D01*
X142806987Y-104512253D01*
X142807713Y-104525246D01*
X142808519Y-104561335D01*
X142809383Y-104618215D01*
X142810280Y-104693582D01*
X142811188Y-104785130D01*
X142812081Y-104890557D01*
X142812938Y-105007557D01*
X142813733Y-105133826D01*
X142814190Y-105216554D01*
X142817850Y-105917312D01*
X142846711Y-105946164D01*
X142856807Y-105955477D01*
X142868270Y-105962538D01*
X142884512Y-105967660D01*
X142908945Y-105971159D01*
X142944979Y-105973349D01*
X142996027Y-105974546D01*
X143065499Y-105975064D01*
X143156807Y-105975219D01*
X143161459Y-105975222D01*
X143254081Y-105975185D01*
X143324786Y-105974723D01*
X143377054Y-105973540D01*
X143414366Y-105971341D01*
X143440204Y-105967827D01*
X143458050Y-105962704D01*
X143471385Y-105955674D01*
X143481815Y-105947945D01*
X143516284Y-105920460D01*
X143516350Y-104089692D01*
X143516417Y-102258924D01*
X143486823Y-102231122D01*
X143457230Y-102203321D01*
X141187871Y-102203321D01*
X141154553Y-102234622D01*
G36*
X139468743Y-103789377D02*
X139467469Y-103789607D01*
X139436523Y-103799851D01*
X139395706Y-103818886D01*
X139354832Y-103841524D01*
X139323712Y-103862577D01*
X139315814Y-103869804D01*
X139295647Y-103903576D01*
X139288228Y-103940580D01*
X139295558Y-103970116D01*
X139296752Y-103971725D01*
X139302803Y-103985313D01*
X139299537Y-103987600D01*
X139299504Y-103995419D01*
X139312650Y-104013000D01*
X139326639Y-104031334D01*
X139327227Y-104038400D01*
X139329410Y-104047727D01*
X139343455Y-104072038D01*
X139363450Y-104101900D01*
X139385497Y-104134937D01*
X139398575Y-104157902D01*
X139400087Y-104165400D01*
X139400360Y-104173345D01*
X139409025Y-104185804D01*
X139434667Y-104222103D01*
X139463250Y-104273894D01*
X139480106Y-104308275D01*
X139497970Y-104338006D01*
X139515142Y-104354630D01*
X139519596Y-104355900D01*
X139530275Y-104362918D01*
X139528550Y-104368600D01*
X139531475Y-104380269D01*
X139540501Y-104382887D01*
X139568781Y-104385833D01*
X139576175Y-104386833D01*
X139599642Y-104384662D01*
X139623487Y-104378122D01*
X139664051Y-104367491D01*
X139718854Y-104357799D01*
X139776756Y-104350941D01*
X139788900Y-104349994D01*
X139856950Y-104355271D01*
X139931655Y-104377360D01*
X140004354Y-104412815D01*
X140066387Y-104458185D01*
X140070661Y-104462170D01*
X140090559Y-104480595D01*
X140107402Y-104496386D01*
X140121443Y-104511713D01*
X140132937Y-104528746D01*
X140142136Y-104549655D01*
X140149294Y-104576610D01*
X140154665Y-104611782D01*
X140158502Y-104657340D01*
X140161060Y-104715454D01*
X140162591Y-104788295D01*
X140163349Y-104878034D01*
X140163588Y-104986839D01*
X140163562Y-105116881D01*
X140163521Y-105256794D01*
X140163610Y-105936736D01*
X140201680Y-105955471D01*
X140228912Y-105962424D01*
X140276158Y-105967996D01*
X140338271Y-105972147D01*
X140410103Y-105974839D01*
X140486503Y-105976032D01*
X140562325Y-105975689D01*
X140632420Y-105973771D01*
X140691639Y-105970239D01*
X140734834Y-105965055D01*
X140754535Y-105959620D01*
X140773658Y-105948319D01*
X140775418Y-105943587D01*
X140774610Y-105936201D01*
X140784790Y-105923595D01*
X140788441Y-105917857D01*
X140791620Y-105907342D01*
X140794360Y-105890407D01*
X140796692Y-105865408D01*
X140798648Y-105830703D01*
X140800259Y-105784648D01*
X140801559Y-105725601D01*
X140802578Y-105651919D01*
X140803348Y-105561958D01*
X140803901Y-105454076D01*
X140804269Y-105326629D01*
X140804484Y-105177975D01*
X140804578Y-105006470D01*
X140804589Y-104901495D01*
X140804455Y-104696585D01*
X140804049Y-104516297D01*
X140803360Y-104359854D01*
X140802378Y-104226479D01*
X140801091Y-104115395D01*
X140799490Y-104025826D01*
X140797564Y-103956995D01*
X140795302Y-103908125D01*
X140792694Y-103878439D01*
X140790494Y-103868275D01*
X140778713Y-103848909D01*
X140761101Y-103835340D01*
X140733316Y-103826469D01*
X140691015Y-103821196D01*
X140629856Y-103818422D01*
X140590540Y-103817622D01*
X140530941Y-103817034D01*
X140491061Y-103818214D01*
X140465229Y-103822212D01*
X140447774Y-103830077D01*
X140433025Y-103842858D01*
X140428478Y-103847598D01*
X140408228Y-103871691D01*
X140398728Y-103888206D01*
X140398621Y-103889308D01*
X140393551Y-103906237D01*
X140380689Y-103934381D01*
X140379382Y-103936933D01*
X140367790Y-103962297D01*
X140365133Y-103974664D01*
X140365671Y-103974900D01*
X140364778Y-103984579D01*
X140354439Y-104007962D01*
X140353947Y-104008914D01*
X140343077Y-104035724D01*
X140341861Y-104051925D01*
X140338393Y-104066381D01*
X140330196Y-104075217D01*
X140311653Y-104081925D01*
X140297030Y-104070306D01*
X140287853Y-104054846D01*
X140290035Y-104051100D01*
X140286530Y-104043471D01*
X140268315Y-104023419D01*
X140239841Y-103995194D01*
X140205558Y-103963047D01*
X140169918Y-103931228D01*
X140137372Y-103903987D01*
X140129656Y-103897940D01*
X140026398Y-103834554D01*
X139908705Y-103792009D01*
X139776549Y-103770300D01*
X139629904Y-103769425D01*
X139468743Y-103789377D01*
X139468743Y-103789377D01*
G37*
X139468743Y-103789377D02*
X139467469Y-103789607D01*
X139436523Y-103799851D01*
X139395706Y-103818886D01*
X139354832Y-103841524D01*
X139323712Y-103862577D01*
X139315814Y-103869804D01*
X139295647Y-103903576D01*
X139288228Y-103940580D01*
X139295558Y-103970116D01*
X139296752Y-103971725D01*
X139302803Y-103985313D01*
X139299537Y-103987600D01*
X139299504Y-103995419D01*
X139312650Y-104013000D01*
X139326639Y-104031334D01*
X139327227Y-104038400D01*
X139329410Y-104047727D01*
X139343455Y-104072038D01*
X139363450Y-104101900D01*
X139385497Y-104134937D01*
X139398575Y-104157902D01*
X139400087Y-104165400D01*
X139400360Y-104173345D01*
X139409025Y-104185804D01*
X139434667Y-104222103D01*
X139463250Y-104273894D01*
X139480106Y-104308275D01*
X139497970Y-104338006D01*
X139515142Y-104354630D01*
X139519596Y-104355900D01*
X139530275Y-104362918D01*
X139528550Y-104368600D01*
X139531475Y-104380269D01*
X139540501Y-104382887D01*
X139568781Y-104385833D01*
X139576175Y-104386833D01*
X139599642Y-104384662D01*
X139623487Y-104378122D01*
X139664051Y-104367491D01*
X139718854Y-104357799D01*
X139776756Y-104350941D01*
X139788900Y-104349994D01*
X139856950Y-104355271D01*
X139931655Y-104377360D01*
X140004354Y-104412815D01*
X140066387Y-104458185D01*
X140070661Y-104462170D01*
X140090559Y-104480595D01*
X140107402Y-104496386D01*
X140121443Y-104511713D01*
X140132937Y-104528746D01*
X140142136Y-104549655D01*
X140149294Y-104576610D01*
X140154665Y-104611782D01*
X140158502Y-104657340D01*
X140161060Y-104715454D01*
X140162591Y-104788295D01*
X140163349Y-104878034D01*
X140163588Y-104986839D01*
X140163562Y-105116881D01*
X140163521Y-105256794D01*
X140163610Y-105936736D01*
X140201680Y-105955471D01*
X140228912Y-105962424D01*
X140276158Y-105967996D01*
X140338271Y-105972147D01*
X140410103Y-105974839D01*
X140486503Y-105976032D01*
X140562325Y-105975689D01*
X140632420Y-105973771D01*
X140691639Y-105970239D01*
X140734834Y-105965055D01*
X140754535Y-105959620D01*
X140773658Y-105948319D01*
X140775418Y-105943587D01*
X140774610Y-105936201D01*
X140784790Y-105923595D01*
X140788441Y-105917857D01*
X140791620Y-105907342D01*
X140794360Y-105890407D01*
X140796692Y-105865408D01*
X140798648Y-105830703D01*
X140800259Y-105784648D01*
X140801559Y-105725601D01*
X140802578Y-105651919D01*
X140803348Y-105561958D01*
X140803901Y-105454076D01*
X140804269Y-105326629D01*
X140804484Y-105177975D01*
X140804578Y-105006470D01*
X140804589Y-104901495D01*
X140804455Y-104696585D01*
X140804049Y-104516297D01*
X140803360Y-104359854D01*
X140802378Y-104226479D01*
X140801091Y-104115395D01*
X140799490Y-104025826D01*
X140797564Y-103956995D01*
X140795302Y-103908125D01*
X140792694Y-103878439D01*
X140790494Y-103868275D01*
X140778713Y-103848909D01*
X140761101Y-103835340D01*
X140733316Y-103826469D01*
X140691015Y-103821196D01*
X140629856Y-103818422D01*
X140590540Y-103817622D01*
X140530941Y-103817034D01*
X140491061Y-103818214D01*
X140465229Y-103822212D01*
X140447774Y-103830077D01*
X140433025Y-103842858D01*
X140428478Y-103847598D01*
X140408228Y-103871691D01*
X140398728Y-103888206D01*
X140398621Y-103889308D01*
X140393551Y-103906237D01*
X140380689Y-103934381D01*
X140379382Y-103936933D01*
X140367790Y-103962297D01*
X140365133Y-103974664D01*
X140365671Y-103974900D01*
X140364778Y-103984579D01*
X140354439Y-104007962D01*
X140353947Y-104008914D01*
X140343077Y-104035724D01*
X140341861Y-104051925D01*
X140338393Y-104066381D01*
X140330196Y-104075217D01*
X140311653Y-104081925D01*
X140297030Y-104070306D01*
X140287853Y-104054846D01*
X140290035Y-104051100D01*
X140286530Y-104043471D01*
X140268315Y-104023419D01*
X140239841Y-103995194D01*
X140205558Y-103963047D01*
X140169918Y-103931228D01*
X140137372Y-103903987D01*
X140129656Y-103897940D01*
X140026398Y-103834554D01*
X139908705Y-103792009D01*
X139776549Y-103770300D01*
X139629904Y-103769425D01*
X139468743Y-103789377D01*
G36*
X138344446Y-103851482D02*
X138309431Y-103886496D01*
X138309431Y-105904803D01*
X138344531Y-105939902D01*
X138379630Y-105975002D01*
X138640284Y-105975229D01*
X138900938Y-105975457D01*
X138935304Y-105939586D01*
X138969670Y-105903716D01*
X138969670Y-103886496D01*
X138934655Y-103851482D01*
X138899641Y-103816467D01*
X138379460Y-103816467D01*
X138344446Y-103851482D01*
X138344446Y-103851482D01*
G37*
X138344446Y-103851482D02*
X138309431Y-103886496D01*
X138309431Y-105904803D01*
X138344531Y-105939902D01*
X138379630Y-105975002D01*
X138640284Y-105975229D01*
X138900938Y-105975457D01*
X138935304Y-105939586D01*
X138969670Y-105903716D01*
X138969670Y-103886496D01*
X138934655Y-103851482D01*
X138899641Y-103816467D01*
X138379460Y-103816467D01*
X138344446Y-103851482D01*
G36*
X136646177Y-103817186D02*
X136524208Y-103817973D01*
X136423820Y-103819196D01*
X136343744Y-103820879D01*
X136282708Y-103823047D01*
X136239439Y-103825721D01*
X136212667Y-103828928D01*
X136204301Y-103831002D01*
X136179929Y-103841002D01*
X136172366Y-103846604D01*
X136173483Y-103846933D01*
X136174621Y-103854876D01*
X136165865Y-103865949D01*
X136154202Y-103893167D01*
X136154088Y-103932243D01*
X136163717Y-103973430D01*
X136181283Y-104006980D01*
X136194224Y-104018993D01*
X136202684Y-104033662D01*
X136201150Y-104038400D01*
X136202982Y-104054040D01*
X136205978Y-104056509D01*
X136218560Y-104071417D01*
X136236440Y-104100394D01*
X136243596Y-104113604D01*
X136272623Y-104168336D01*
X136293954Y-104205909D01*
X136310945Y-104232036D01*
X136320594Y-104244775D01*
X136330584Y-104261856D01*
X136328150Y-104267000D01*
X136327813Y-104274806D01*
X136340850Y-104292400D01*
X136354230Y-104310677D01*
X136353550Y-104317800D01*
X136352145Y-104325823D01*
X136361248Y-104340025D01*
X136374844Y-104358819D01*
X136392191Y-104387092D01*
X136416058Y-104429556D01*
X136441515Y-104476550D01*
X136461381Y-104508408D01*
X136472994Y-104524175D01*
X136482984Y-104541256D01*
X136480550Y-104546400D01*
X136480213Y-104554206D01*
X136493250Y-104571800D01*
X136506630Y-104590077D01*
X136505950Y-104597200D01*
X136504504Y-104605246D01*
X136513507Y-104619425D01*
X136529496Y-104641379D01*
X136547784Y-104671301D01*
X136571726Y-104714903D01*
X136590505Y-104750595D01*
X136608883Y-104782676D01*
X136624218Y-104804113D01*
X136628123Y-104807690D01*
X136634387Y-104822418D01*
X136632950Y-104825800D01*
X136635230Y-104841218D01*
X136639877Y-104845206D01*
X136655518Y-104862879D01*
X136665368Y-104881008D01*
X136677113Y-104904943D01*
X136697441Y-104943373D01*
X136722337Y-104988736D01*
X136727103Y-104997250D01*
X136758188Y-105053143D01*
X136791039Y-105113073D01*
X136817623Y-105162350D01*
X136841413Y-105204928D01*
X136863442Y-105240845D01*
X136877723Y-105260775D01*
X136888921Y-105277626D01*
X136886950Y-105283000D01*
X136886301Y-105290723D01*
X136897710Y-105306255D01*
X136911306Y-105326172D01*
X136912071Y-105336195D01*
X136914773Y-105348392D01*
X136924744Y-105358945D01*
X136938763Y-105372071D01*
X136943993Y-105382367D01*
X136938168Y-105390172D01*
X136919025Y-105395829D01*
X136884298Y-105399679D01*
X136831724Y-105402063D01*
X136759037Y-105403323D01*
X136663972Y-105403800D01*
X136626860Y-105403844D01*
X136527973Y-105404048D01*
X136451368Y-105404665D01*
X136393927Y-105405902D01*
X136352532Y-105407967D01*
X136324066Y-105411068D01*
X136305411Y-105415412D01*
X136293449Y-105421207D01*
X136287135Y-105426491D01*
X136278983Y-105437429D01*
X136272876Y-105454129D01*
X136268432Y-105480295D01*
X136265263Y-105519628D01*
X136262987Y-105575832D01*
X136261217Y-105652609D01*
X136260721Y-105680549D01*
X136256792Y-105912154D01*
X136290290Y-105943624D01*
X136323788Y-105975095D01*
X137041887Y-105975178D01*
X137759985Y-105975262D01*
X137794756Y-105939698D01*
X137821608Y-105895142D01*
X137826522Y-105840823D01*
X137809594Y-105779607D01*
X137787822Y-105738887D01*
X137768127Y-105706218D01*
X137755915Y-105683108D01*
X137753832Y-105676700D01*
X137747334Y-105663509D01*
X137734977Y-105648125D01*
X137723356Y-105631355D01*
X137725150Y-105625900D01*
X137725488Y-105618093D01*
X137712450Y-105600500D01*
X137699071Y-105582222D01*
X137699750Y-105575100D01*
X137700088Y-105567293D01*
X137687050Y-105549700D01*
X137674055Y-105531393D01*
X137675557Y-105524105D01*
X137678013Y-105518900D01*
X137672705Y-105514580D01*
X137660237Y-105499386D01*
X137640440Y-105467792D01*
X137617257Y-105426159D01*
X137613503Y-105419003D01*
X137589777Y-105374783D01*
X137568693Y-105337934D01*
X137554390Y-105315651D01*
X137553268Y-105314228D01*
X137544908Y-105299170D01*
X137547764Y-105295700D01*
X137548710Y-105287739D01*
X137539183Y-105273475D01*
X137523442Y-105250413D01*
X137501742Y-105213655D01*
X137484205Y-105181400D01*
X137456256Y-105128112D01*
X137437172Y-105092419D01*
X137424121Y-105069369D01*
X137414273Y-105054010D01*
X137404795Y-105041390D01*
X137402507Y-105038525D01*
X137392364Y-105021430D01*
X137394537Y-105016300D01*
X137396109Y-105008532D01*
X137388997Y-104997728D01*
X137376332Y-104978343D01*
X137355939Y-104942782D01*
X137331507Y-104897559D01*
X137322478Y-104880253D01*
X137296904Y-104832504D01*
X137273328Y-104791521D01*
X137255732Y-104764130D01*
X137251818Y-104759125D01*
X137240443Y-104742266D01*
X137242137Y-104736900D01*
X137243709Y-104729132D01*
X137236597Y-104718328D01*
X137223932Y-104698943D01*
X137203539Y-104663382D01*
X137179107Y-104618159D01*
X137170078Y-104600853D01*
X137144504Y-104553104D01*
X137120928Y-104512121D01*
X137103332Y-104484730D01*
X137099418Y-104479725D01*
X137088192Y-104462878D01*
X137090150Y-104457500D01*
X137090488Y-104449693D01*
X137077450Y-104432100D01*
X137062348Y-104413135D01*
X137059607Y-104405175D01*
X137073188Y-104404687D01*
X137108709Y-104404110D01*
X137162710Y-104403482D01*
X137231733Y-104402838D01*
X137312316Y-104402215D01*
X137384860Y-104401744D01*
X137704969Y-104399836D01*
X137740639Y-104365661D01*
X137776310Y-104331487D01*
X137776046Y-104110594D01*
X137775241Y-104019075D01*
X137772989Y-103951010D01*
X137769162Y-103904488D01*
X137763634Y-103877597D01*
X137760102Y-103870807D01*
X137750288Y-103852112D01*
X137751569Y-103844765D01*
X137752385Y-103839151D01*
X137741834Y-103834305D01*
X137718465Y-103830175D01*
X137680822Y-103826711D01*
X137627453Y-103823860D01*
X137556904Y-103821572D01*
X137467722Y-103819794D01*
X137358453Y-103818477D01*
X137227645Y-103817568D01*
X137073843Y-103817017D01*
X136959951Y-103816824D01*
X136791001Y-103816811D01*
X136646177Y-103817186D01*
X136646177Y-103817186D01*
G37*
X136646177Y-103817186D02*
X136524208Y-103817973D01*
X136423820Y-103819196D01*
X136343744Y-103820879D01*
X136282708Y-103823047D01*
X136239439Y-103825721D01*
X136212667Y-103828928D01*
X136204301Y-103831002D01*
X136179929Y-103841002D01*
X136172366Y-103846604D01*
X136173483Y-103846933D01*
X136174621Y-103854876D01*
X136165865Y-103865949D01*
X136154202Y-103893167D01*
X136154088Y-103932243D01*
X136163717Y-103973430D01*
X136181283Y-104006980D01*
X136194224Y-104018993D01*
X136202684Y-104033662D01*
X136201150Y-104038400D01*
X136202982Y-104054040D01*
X136205978Y-104056509D01*
X136218560Y-104071417D01*
X136236440Y-104100394D01*
X136243596Y-104113604D01*
X136272623Y-104168336D01*
X136293954Y-104205909D01*
X136310945Y-104232036D01*
X136320594Y-104244775D01*
X136330584Y-104261856D01*
X136328150Y-104267000D01*
X136327813Y-104274806D01*
X136340850Y-104292400D01*
X136354230Y-104310677D01*
X136353550Y-104317800D01*
X136352145Y-104325823D01*
X136361248Y-104340025D01*
X136374844Y-104358819D01*
X136392191Y-104387092D01*
X136416058Y-104429556D01*
X136441515Y-104476550D01*
X136461381Y-104508408D01*
X136472994Y-104524175D01*
X136482984Y-104541256D01*
X136480550Y-104546400D01*
X136480213Y-104554206D01*
X136493250Y-104571800D01*
X136506630Y-104590077D01*
X136505950Y-104597200D01*
X136504504Y-104605246D01*
X136513507Y-104619425D01*
X136529496Y-104641379D01*
X136547784Y-104671301D01*
X136571726Y-104714903D01*
X136590505Y-104750595D01*
X136608883Y-104782676D01*
X136624218Y-104804113D01*
X136628123Y-104807690D01*
X136634387Y-104822418D01*
X136632950Y-104825800D01*
X136635230Y-104841218D01*
X136639877Y-104845206D01*
X136655518Y-104862879D01*
X136665368Y-104881008D01*
X136677113Y-104904943D01*
X136697441Y-104943373D01*
X136722337Y-104988736D01*
X136727103Y-104997250D01*
X136758188Y-105053143D01*
X136791039Y-105113073D01*
X136817623Y-105162350D01*
X136841413Y-105204928D01*
X136863442Y-105240845D01*
X136877723Y-105260775D01*
X136888921Y-105277626D01*
X136886950Y-105283000D01*
X136886301Y-105290723D01*
X136897710Y-105306255D01*
X136911306Y-105326172D01*
X136912071Y-105336195D01*
X136914773Y-105348392D01*
X136924744Y-105358945D01*
X136938763Y-105372071D01*
X136943993Y-105382367D01*
X136938168Y-105390172D01*
X136919025Y-105395829D01*
X136884298Y-105399679D01*
X136831724Y-105402063D01*
X136759037Y-105403323D01*
X136663972Y-105403800D01*
X136626860Y-105403844D01*
X136527973Y-105404048D01*
X136451368Y-105404665D01*
X136393927Y-105405902D01*
X136352532Y-105407967D01*
X136324066Y-105411068D01*
X136305411Y-105415412D01*
X136293449Y-105421207D01*
X136287135Y-105426491D01*
X136278983Y-105437429D01*
X136272876Y-105454129D01*
X136268432Y-105480295D01*
X136265263Y-105519628D01*
X136262987Y-105575832D01*
X136261217Y-105652609D01*
X136260721Y-105680549D01*
X136256792Y-105912154D01*
X136290290Y-105943624D01*
X136323788Y-105975095D01*
X137041887Y-105975178D01*
X137759985Y-105975262D01*
X137794756Y-105939698D01*
X137821608Y-105895142D01*
X137826522Y-105840823D01*
X137809594Y-105779607D01*
X137787822Y-105738887D01*
X137768127Y-105706218D01*
X137755915Y-105683108D01*
X137753832Y-105676700D01*
X137747334Y-105663509D01*
X137734977Y-105648125D01*
X137723356Y-105631355D01*
X137725150Y-105625900D01*
X137725488Y-105618093D01*
X137712450Y-105600500D01*
X137699071Y-105582222D01*
X137699750Y-105575100D01*
X137700088Y-105567293D01*
X137687050Y-105549700D01*
X137674055Y-105531393D01*
X137675557Y-105524105D01*
X137678013Y-105518900D01*
X137672705Y-105514580D01*
X137660237Y-105499386D01*
X137640440Y-105467792D01*
X137617257Y-105426159D01*
X137613503Y-105419003D01*
X137589777Y-105374783D01*
X137568693Y-105337934D01*
X137554390Y-105315651D01*
X137553268Y-105314228D01*
X137544908Y-105299170D01*
X137547764Y-105295700D01*
X137548710Y-105287739D01*
X137539183Y-105273475D01*
X137523442Y-105250413D01*
X137501742Y-105213655D01*
X137484205Y-105181400D01*
X137456256Y-105128112D01*
X137437172Y-105092419D01*
X137424121Y-105069369D01*
X137414273Y-105054010D01*
X137404795Y-105041390D01*
X137402507Y-105038525D01*
X137392364Y-105021430D01*
X137394537Y-105016300D01*
X137396109Y-105008532D01*
X137388997Y-104997728D01*
X137376332Y-104978343D01*
X137355939Y-104942782D01*
X137331507Y-104897559D01*
X137322478Y-104880253D01*
X137296904Y-104832504D01*
X137273328Y-104791521D01*
X137255732Y-104764130D01*
X137251818Y-104759125D01*
X137240443Y-104742266D01*
X137242137Y-104736900D01*
X137243709Y-104729132D01*
X137236597Y-104718328D01*
X137223932Y-104698943D01*
X137203539Y-104663382D01*
X137179107Y-104618159D01*
X137170078Y-104600853D01*
X137144504Y-104553104D01*
X137120928Y-104512121D01*
X137103332Y-104484730D01*
X137099418Y-104479725D01*
X137088192Y-104462878D01*
X137090150Y-104457500D01*
X137090488Y-104449693D01*
X137077450Y-104432100D01*
X137062348Y-104413135D01*
X137059607Y-104405175D01*
X137073188Y-104404687D01*
X137108709Y-104404110D01*
X137162710Y-104403482D01*
X137231733Y-104402838D01*
X137312316Y-104402215D01*
X137384860Y-104401744D01*
X137704969Y-104399836D01*
X137740639Y-104365661D01*
X137776310Y-104331487D01*
X137776046Y-104110594D01*
X137775241Y-104019075D01*
X137772989Y-103951010D01*
X137769162Y-103904488D01*
X137763634Y-103877597D01*
X137760102Y-103870807D01*
X137750288Y-103852112D01*
X137751569Y-103844765D01*
X137752385Y-103839151D01*
X137741834Y-103834305D01*
X137718465Y-103830175D01*
X137680822Y-103826711D01*
X137627453Y-103823860D01*
X137556904Y-103821572D01*
X137467722Y-103819794D01*
X137358453Y-103818477D01*
X137227645Y-103817568D01*
X137073843Y-103817017D01*
X136959951Y-103816824D01*
X136791001Y-103816811D01*
X136646177Y-103817186D01*
G36*
X135039530Y-103815852D02*
X134979987Y-103815887D01*
X134824458Y-103816012D01*
X134692332Y-103816211D01*
X134581612Y-103816552D01*
X134490300Y-103817101D01*
X134416400Y-103817926D01*
X134357915Y-103819095D01*
X134312846Y-103820674D01*
X134279198Y-103822730D01*
X134254973Y-103825330D01*
X134238175Y-103828543D01*
X134226805Y-103832434D01*
X134218866Y-103837071D01*
X134213313Y-103841659D01*
X134182406Y-103877968D01*
X134174015Y-103914942D01*
X134186927Y-103959552D01*
X134191230Y-103968550D01*
X134211518Y-104005445D01*
X134231220Y-104035494D01*
X134236099Y-104041575D01*
X134247314Y-104058423D01*
X134245350Y-104063800D01*
X134245013Y-104071606D01*
X134258050Y-104089200D01*
X134271430Y-104107477D01*
X134270750Y-104114600D01*
X134270593Y-104122453D01*
X134284657Y-104141333D01*
X134301249Y-104162066D01*
X134306120Y-104172828D01*
X134310056Y-104186833D01*
X134324749Y-104216267D01*
X134347046Y-104255307D01*
X134373790Y-104298131D01*
X134375143Y-104300199D01*
X134390871Y-104326800D01*
X134396481Y-104341901D01*
X134395399Y-104343200D01*
X134396799Y-104351081D01*
X134410450Y-104368600D01*
X134423830Y-104386877D01*
X134423150Y-104394000D01*
X134422813Y-104401806D01*
X134435850Y-104419400D01*
X134449230Y-104437677D01*
X134448550Y-104444800D01*
X134447577Y-104452574D01*
X134457778Y-104467025D01*
X134473732Y-104489533D01*
X134496107Y-104526338D01*
X134517878Y-104565450D01*
X134545515Y-104616660D01*
X134578425Y-104676670D01*
X134608398Y-104730550D01*
X134633698Y-104776365D01*
X134655169Y-104816641D01*
X134668797Y-104843814D01*
X134670133Y-104846791D01*
X134685020Y-104871994D01*
X134695624Y-104882593D01*
X134704299Y-104896923D01*
X134702897Y-104901438D01*
X134705873Y-104916878D01*
X134715390Y-104927516D01*
X134731285Y-104945949D01*
X134734300Y-104954607D01*
X134740603Y-104971188D01*
X134756663Y-105000744D01*
X134768214Y-105019727D01*
X134787470Y-105051755D01*
X134799146Y-105074144D01*
X134800869Y-105079800D01*
X134807367Y-105092990D01*
X134819724Y-105108375D01*
X134831345Y-105125144D01*
X134829550Y-105130600D01*
X134829213Y-105138406D01*
X134842250Y-105156000D01*
X134855630Y-105174277D01*
X134854950Y-105181400D01*
X134853888Y-105189226D01*
X134863856Y-105203625D01*
X134876516Y-105221923D01*
X134895666Y-105253550D01*
X134917940Y-105292420D01*
X134939973Y-105332447D01*
X134958401Y-105367545D01*
X134969860Y-105391629D01*
X134971794Y-105398854D01*
X134958940Y-105399361D01*
X134924225Y-105399950D01*
X134871186Y-105400581D01*
X134803362Y-105401215D01*
X134724291Y-105401814D01*
X134669300Y-105402161D01*
X134563443Y-105403166D01*
X134480151Y-105405125D01*
X134416593Y-105408528D01*
X134369939Y-105413865D01*
X134337359Y-105421625D01*
X134316020Y-105432298D01*
X134303094Y-105446373D01*
X134295749Y-105464341D01*
X134295083Y-105466879D01*
X134293090Y-105488027D01*
X134291787Y-105529814D01*
X134291227Y-105587488D01*
X134291466Y-105656298D01*
X134292251Y-105715224D01*
X134296150Y-105936748D01*
X134334250Y-105955503D01*
X134345865Y-105959639D01*
X134363871Y-105963145D01*
X134390242Y-105966072D01*
X134426950Y-105968471D01*
X134475970Y-105970394D01*
X134539275Y-105971892D01*
X134618837Y-105973015D01*
X134716631Y-105973816D01*
X134834630Y-105974346D01*
X134974807Y-105974655D01*
X135075792Y-105974761D01*
X135228802Y-105974811D01*
X135358448Y-105974686D01*
X135466766Y-105974331D01*
X135555792Y-105973690D01*
X135627561Y-105972706D01*
X135684110Y-105971324D01*
X135727473Y-105969487D01*
X135759688Y-105967140D01*
X135782790Y-105964226D01*
X135798815Y-105960690D01*
X135809798Y-105956474D01*
X135813451Y-105954456D01*
X135837695Y-105934781D01*
X135848296Y-105916461D01*
X135848303Y-105916298D01*
X135851214Y-105890859D01*
X135855483Y-105866481D01*
X135853583Y-105830457D01*
X135839092Y-105785155D01*
X135815752Y-105740752D01*
X135802720Y-105723004D01*
X135792674Y-105706667D01*
X135794750Y-105702100D01*
X135795986Y-105694317D01*
X135788833Y-105683571D01*
X135775688Y-105663655D01*
X135755236Y-105628258D01*
X135731617Y-105584575D01*
X135728598Y-105578796D01*
X135705239Y-105536149D01*
X135684637Y-105502524D01*
X135670733Y-105484283D01*
X135669396Y-105483219D01*
X135662873Y-105474839D01*
X135666544Y-105473694D01*
X135667764Y-105465779D01*
X135655050Y-105448100D01*
X135641671Y-105429822D01*
X135642350Y-105422700D01*
X135642688Y-105414893D01*
X135629650Y-105397300D01*
X135616271Y-105379022D01*
X135616950Y-105371900D01*
X135617108Y-105364046D01*
X135603044Y-105345166D01*
X135587379Y-105325522D01*
X135584189Y-105316591D01*
X135581403Y-105305835D01*
X135568302Y-105280574D01*
X135558501Y-105263950D01*
X135534874Y-105223405D01*
X135513908Y-105184440D01*
X135509260Y-105175050D01*
X135490561Y-105140901D01*
X135472655Y-105114725D01*
X135462265Y-105097718D01*
X135464550Y-105092500D01*
X135464888Y-105084693D01*
X135451850Y-105067100D01*
X135438338Y-105048809D01*
X135438737Y-105041700D01*
X135439848Y-105033874D01*
X135431181Y-105021094D01*
X135415375Y-104997644D01*
X135388414Y-104951496D01*
X135350350Y-104882747D01*
X135301238Y-104791493D01*
X135242138Y-104679750D01*
X135215927Y-104631510D01*
X135191815Y-104590002D01*
X135173723Y-104561877D01*
X135169106Y-104555925D01*
X135157817Y-104539091D01*
X135159750Y-104533700D01*
X135160088Y-104525893D01*
X135147050Y-104508300D01*
X135133671Y-104490022D01*
X135134350Y-104482900D01*
X135135441Y-104475057D01*
X135125549Y-104460675D01*
X135110215Y-104442373D01*
X135101098Y-104428189D01*
X135100619Y-104417602D01*
X135111201Y-104410092D01*
X135135266Y-104405138D01*
X135175235Y-104402221D01*
X135233529Y-104400820D01*
X135312572Y-104400415D01*
X135405794Y-104400474D01*
X135505009Y-104400062D01*
X135591039Y-104398638D01*
X135661071Y-104396309D01*
X135712293Y-104393176D01*
X135741889Y-104389344D01*
X135746524Y-104387902D01*
X135774024Y-104366072D01*
X135787799Y-104345777D01*
X135792078Y-104323651D01*
X135795478Y-104281506D01*
X135797969Y-104224706D01*
X135799523Y-104158617D01*
X135800109Y-104088605D01*
X135799699Y-104020036D01*
X135798263Y-103958275D01*
X135795772Y-103908689D01*
X135792197Y-103876642D01*
X135790404Y-103869802D01*
X135785418Y-103858690D01*
X135778646Y-103849204D01*
X135768176Y-103841218D01*
X135752097Y-103834605D01*
X135728497Y-103829236D01*
X135695464Y-103824986D01*
X135651086Y-103821726D01*
X135593452Y-103819330D01*
X135520651Y-103817670D01*
X135430769Y-103816620D01*
X135321896Y-103816051D01*
X135192121Y-103815838D01*
X135039530Y-103815852D01*
X135039530Y-103815852D01*
G37*
X135039530Y-103815852D02*
X134979987Y-103815887D01*
X134824458Y-103816012D01*
X134692332Y-103816211D01*
X134581612Y-103816552D01*
X134490300Y-103817101D01*
X134416400Y-103817926D01*
X134357915Y-103819095D01*
X134312846Y-103820674D01*
X134279198Y-103822730D01*
X134254973Y-103825330D01*
X134238175Y-103828543D01*
X134226805Y-103832434D01*
X134218866Y-103837071D01*
X134213313Y-103841659D01*
X134182406Y-103877968D01*
X134174015Y-103914942D01*
X134186927Y-103959552D01*
X134191230Y-103968550D01*
X134211518Y-104005445D01*
X134231220Y-104035494D01*
X134236099Y-104041575D01*
X134247314Y-104058423D01*
X134245350Y-104063800D01*
X134245013Y-104071606D01*
X134258050Y-104089200D01*
X134271430Y-104107477D01*
X134270750Y-104114600D01*
X134270593Y-104122453D01*
X134284657Y-104141333D01*
X134301249Y-104162066D01*
X134306120Y-104172828D01*
X134310056Y-104186833D01*
X134324749Y-104216267D01*
X134347046Y-104255307D01*
X134373790Y-104298131D01*
X134375143Y-104300199D01*
X134390871Y-104326800D01*
X134396481Y-104341901D01*
X134395399Y-104343200D01*
X134396799Y-104351081D01*
X134410450Y-104368600D01*
X134423830Y-104386877D01*
X134423150Y-104394000D01*
X134422813Y-104401806D01*
X134435850Y-104419400D01*
X134449230Y-104437677D01*
X134448550Y-104444800D01*
X134447577Y-104452574D01*
X134457778Y-104467025D01*
X134473732Y-104489533D01*
X134496107Y-104526338D01*
X134517878Y-104565450D01*
X134545515Y-104616660D01*
X134578425Y-104676670D01*
X134608398Y-104730550D01*
X134633698Y-104776365D01*
X134655169Y-104816641D01*
X134668797Y-104843814D01*
X134670133Y-104846791D01*
X134685020Y-104871994D01*
X134695624Y-104882593D01*
X134704299Y-104896923D01*
X134702897Y-104901438D01*
X134705873Y-104916878D01*
X134715390Y-104927516D01*
X134731285Y-104945949D01*
X134734300Y-104954607D01*
X134740603Y-104971188D01*
X134756663Y-105000744D01*
X134768214Y-105019727D01*
X134787470Y-105051755D01*
X134799146Y-105074144D01*
X134800869Y-105079800D01*
X134807367Y-105092990D01*
X134819724Y-105108375D01*
X134831345Y-105125144D01*
X134829550Y-105130600D01*
X134829213Y-105138406D01*
X134842250Y-105156000D01*
X134855630Y-105174277D01*
X134854950Y-105181400D01*
X134853888Y-105189226D01*
X134863856Y-105203625D01*
X134876516Y-105221923D01*
X134895666Y-105253550D01*
X134917940Y-105292420D01*
X134939973Y-105332447D01*
X134958401Y-105367545D01*
X134969860Y-105391629D01*
X134971794Y-105398854D01*
X134958940Y-105399361D01*
X134924225Y-105399950D01*
X134871186Y-105400581D01*
X134803362Y-105401215D01*
X134724291Y-105401814D01*
X134669300Y-105402161D01*
X134563443Y-105403166D01*
X134480151Y-105405125D01*
X134416593Y-105408528D01*
X134369939Y-105413865D01*
X134337359Y-105421625D01*
X134316020Y-105432298D01*
X134303094Y-105446373D01*
X134295749Y-105464341D01*
X134295083Y-105466879D01*
X134293090Y-105488027D01*
X134291787Y-105529814D01*
X134291227Y-105587488D01*
X134291466Y-105656298D01*
X134292251Y-105715224D01*
X134296150Y-105936748D01*
X134334250Y-105955503D01*
X134345865Y-105959639D01*
X134363871Y-105963145D01*
X134390242Y-105966072D01*
X134426950Y-105968471D01*
X134475970Y-105970394D01*
X134539275Y-105971892D01*
X134618837Y-105973015D01*
X134716631Y-105973816D01*
X134834630Y-105974346D01*
X134974807Y-105974655D01*
X135075792Y-105974761D01*
X135228802Y-105974811D01*
X135358448Y-105974686D01*
X135466766Y-105974331D01*
X135555792Y-105973690D01*
X135627561Y-105972706D01*
X135684110Y-105971324D01*
X135727473Y-105969487D01*
X135759688Y-105967140D01*
X135782790Y-105964226D01*
X135798815Y-105960690D01*
X135809798Y-105956474D01*
X135813451Y-105954456D01*
X135837695Y-105934781D01*
X135848296Y-105916461D01*
X135848303Y-105916298D01*
X135851214Y-105890859D01*
X135855483Y-105866481D01*
X135853583Y-105830457D01*
X135839092Y-105785155D01*
X135815752Y-105740752D01*
X135802720Y-105723004D01*
X135792674Y-105706667D01*
X135794750Y-105702100D01*
X135795986Y-105694317D01*
X135788833Y-105683571D01*
X135775688Y-105663655D01*
X135755236Y-105628258D01*
X135731617Y-105584575D01*
X135728598Y-105578796D01*
X135705239Y-105536149D01*
X135684637Y-105502524D01*
X135670733Y-105484283D01*
X135669396Y-105483219D01*
X135662873Y-105474839D01*
X135666544Y-105473694D01*
X135667764Y-105465779D01*
X135655050Y-105448100D01*
X135641671Y-105429822D01*
X135642350Y-105422700D01*
X135642688Y-105414893D01*
X135629650Y-105397300D01*
X135616271Y-105379022D01*
X135616950Y-105371900D01*
X135617108Y-105364046D01*
X135603044Y-105345166D01*
X135587379Y-105325522D01*
X135584189Y-105316591D01*
X135581403Y-105305835D01*
X135568302Y-105280574D01*
X135558501Y-105263950D01*
X135534874Y-105223405D01*
X135513908Y-105184440D01*
X135509260Y-105175050D01*
X135490561Y-105140901D01*
X135472655Y-105114725D01*
X135462265Y-105097718D01*
X135464550Y-105092500D01*
X135464888Y-105084693D01*
X135451850Y-105067100D01*
X135438338Y-105048809D01*
X135438737Y-105041700D01*
X135439848Y-105033874D01*
X135431181Y-105021094D01*
X135415375Y-104997644D01*
X135388414Y-104951496D01*
X135350350Y-104882747D01*
X135301238Y-104791493D01*
X135242138Y-104679750D01*
X135215927Y-104631510D01*
X135191815Y-104590002D01*
X135173723Y-104561877D01*
X135169106Y-104555925D01*
X135157817Y-104539091D01*
X135159750Y-104533700D01*
X135160088Y-104525893D01*
X135147050Y-104508300D01*
X135133671Y-104490022D01*
X135134350Y-104482900D01*
X135135441Y-104475057D01*
X135125549Y-104460675D01*
X135110215Y-104442373D01*
X135101098Y-104428189D01*
X135100619Y-104417602D01*
X135111201Y-104410092D01*
X135135266Y-104405138D01*
X135175235Y-104402221D01*
X135233529Y-104400820D01*
X135312572Y-104400415D01*
X135405794Y-104400474D01*
X135505009Y-104400062D01*
X135591039Y-104398638D01*
X135661071Y-104396309D01*
X135712293Y-104393176D01*
X135741889Y-104389344D01*
X135746524Y-104387902D01*
X135774024Y-104366072D01*
X135787799Y-104345777D01*
X135792078Y-104323651D01*
X135795478Y-104281506D01*
X135797969Y-104224706D01*
X135799523Y-104158617D01*
X135800109Y-104088605D01*
X135799699Y-104020036D01*
X135798263Y-103958275D01*
X135795772Y-103908689D01*
X135792197Y-103876642D01*
X135790404Y-103869802D01*
X135785418Y-103858690D01*
X135778646Y-103849204D01*
X135768176Y-103841218D01*
X135752097Y-103834605D01*
X135728497Y-103829236D01*
X135695464Y-103824986D01*
X135651086Y-103821726D01*
X135593452Y-103819330D01*
X135520651Y-103817670D01*
X135430769Y-103816620D01*
X135321896Y-103816051D01*
X135192121Y-103815838D01*
X135039530Y-103815852D01*
G36*
X147897889Y-105286855D02*
X147831007Y-105318832D01*
X147795481Y-105347050D01*
X147750872Y-105402127D01*
X147728171Y-105465791D01*
X147724046Y-105516538D01*
X147725423Y-105569522D01*
X147730354Y-105604631D01*
X147740404Y-105629310D01*
X147750737Y-105643668D01*
X147760064Y-105659691D01*
X147757329Y-105664000D01*
X147756932Y-105671100D01*
X147770622Y-105688712D01*
X147792796Y-105711298D01*
X147817853Y-105733324D01*
X147840189Y-105749254D01*
X147847050Y-105752656D01*
X147869319Y-105761202D01*
X147886123Y-105766600D01*
X147908883Y-105772176D01*
X147932140Y-105777440D01*
X147963293Y-105783364D01*
X147981512Y-105784741D01*
X147982940Y-105784233D01*
X147996854Y-105779963D01*
X148024850Y-105775061D01*
X148097461Y-105753033D01*
X148156494Y-105710967D01*
X148199457Y-105651679D01*
X148223860Y-105577985D01*
X148227825Y-105545704D01*
X148222095Y-105469228D01*
X148196232Y-105403009D01*
X148154035Y-105348792D01*
X148099304Y-105308322D01*
X148035836Y-105283346D01*
X147967432Y-105275608D01*
X147897889Y-105286855D01*
X147897889Y-105286855D01*
G37*
X147897889Y-105286855D02*
X147831007Y-105318832D01*
X147795481Y-105347050D01*
X147750872Y-105402127D01*
X147728171Y-105465791D01*
X147724046Y-105516538D01*
X147725423Y-105569522D01*
X147730354Y-105604631D01*
X147740404Y-105629310D01*
X147750737Y-105643668D01*
X147760064Y-105659691D01*
X147757329Y-105664000D01*
X147756932Y-105671100D01*
X147770622Y-105688712D01*
X147792796Y-105711298D01*
X147817853Y-105733324D01*
X147840189Y-105749254D01*
X147847050Y-105752656D01*
X147869319Y-105761202D01*
X147886123Y-105766600D01*
X147908883Y-105772176D01*
X147932140Y-105777440D01*
X147963293Y-105783364D01*
X147981512Y-105784741D01*
X147982940Y-105784233D01*
X147996854Y-105779963D01*
X148024850Y-105775061D01*
X148097461Y-105753033D01*
X148156494Y-105710967D01*
X148199457Y-105651679D01*
X148223860Y-105577985D01*
X148227825Y-105545704D01*
X148222095Y-105469228D01*
X148196232Y-105403009D01*
X148154035Y-105348792D01*
X148099304Y-105308322D01*
X148035836Y-105283346D01*
X147967432Y-105275608D01*
X147897889Y-105286855D01*
G36*
X138569445Y-102319441D02*
X138497077Y-102338315D01*
X138480800Y-102345373D01*
X138418977Y-102385097D01*
X138360973Y-102439883D01*
X138316303Y-102500428D01*
X138309631Y-102512758D01*
X138283489Y-102584775D01*
X138271948Y-102663132D01*
X138274700Y-102741022D01*
X138291437Y-102811642D01*
X138321850Y-102868185D01*
X138325949Y-102873175D01*
X138337326Y-102890125D01*
X138336075Y-102895400D01*
X138336602Y-102902695D01*
X138351144Y-102920965D01*
X138374320Y-102944783D01*
X138400748Y-102968723D01*
X138425047Y-102987358D01*
X138430810Y-102990929D01*
X138496124Y-103023697D01*
X138549025Y-103040815D01*
X138549207Y-103040850D01*
X138570552Y-103045820D01*
X138576050Y-103048301D01*
X138587318Y-103051476D01*
X138615532Y-103052932D01*
X138652307Y-103052837D01*
X138689262Y-103051361D01*
X138718011Y-103048673D01*
X138730061Y-103045193D01*
X138746464Y-103036768D01*
X138761122Y-103035100D01*
X138799411Y-103024846D01*
X138844701Y-102997525D01*
X138891698Y-102958292D01*
X138935107Y-102912305D01*
X138969633Y-102864721D01*
X138989982Y-102820697D01*
X138992397Y-102809841D01*
X138999866Y-102783041D01*
X139004115Y-102774288D01*
X139009044Y-102752055D01*
X139010363Y-102712717D01*
X139008552Y-102664237D01*
X139004093Y-102614579D01*
X138997468Y-102571705D01*
X138990328Y-102546150D01*
X138979934Y-102518838D01*
X138976346Y-102504028D01*
X138976447Y-102503688D01*
X138969986Y-102492705D01*
X138951298Y-102470957D01*
X138945412Y-102464707D01*
X138926161Y-102440473D01*
X138919865Y-102423627D01*
X138920889Y-102421444D01*
X138918751Y-102414032D01*
X138909922Y-102412800D01*
X138886088Y-102403745D01*
X138873504Y-102392549D01*
X138852728Y-102375573D01*
X138818151Y-102354499D01*
X138795188Y-102342624D01*
X138728338Y-102321510D01*
X138649811Y-102313811D01*
X138569445Y-102319441D01*
X138569445Y-102319441D01*
G37*
X138569445Y-102319441D02*
X138497077Y-102338315D01*
X138480800Y-102345373D01*
X138418977Y-102385097D01*
X138360973Y-102439883D01*
X138316303Y-102500428D01*
X138309631Y-102512758D01*
X138283489Y-102584775D01*
X138271948Y-102663132D01*
X138274700Y-102741022D01*
X138291437Y-102811642D01*
X138321850Y-102868185D01*
X138325949Y-102873175D01*
X138337326Y-102890125D01*
X138336075Y-102895400D01*
X138336602Y-102902695D01*
X138351144Y-102920965D01*
X138374320Y-102944783D01*
X138400748Y-102968723D01*
X138425047Y-102987358D01*
X138430810Y-102990929D01*
X138496124Y-103023697D01*
X138549025Y-103040815D01*
X138549207Y-103040850D01*
X138570552Y-103045820D01*
X138576050Y-103048301D01*
X138587318Y-103051476D01*
X138615532Y-103052932D01*
X138652307Y-103052837D01*
X138689262Y-103051361D01*
X138718011Y-103048673D01*
X138730061Y-103045193D01*
X138746464Y-103036768D01*
X138761122Y-103035100D01*
X138799411Y-103024846D01*
X138844701Y-102997525D01*
X138891698Y-102958292D01*
X138935107Y-102912305D01*
X138969633Y-102864721D01*
X138989982Y-102820697D01*
X138992397Y-102809841D01*
X138999866Y-102783041D01*
X139004115Y-102774288D01*
X139009044Y-102752055D01*
X139010363Y-102712717D01*
X139008552Y-102664237D01*
X139004093Y-102614579D01*
X138997468Y-102571705D01*
X138990328Y-102546150D01*
X138979934Y-102518838D01*
X138976346Y-102504028D01*
X138976447Y-102503688D01*
X138969986Y-102492705D01*
X138951298Y-102470957D01*
X138945412Y-102464707D01*
X138926161Y-102440473D01*
X138919865Y-102423627D01*
X138920889Y-102421444D01*
X138918751Y-102414032D01*
X138909922Y-102412800D01*
X138886088Y-102403745D01*
X138873504Y-102392549D01*
X138852728Y-102375573D01*
X138818151Y-102354499D01*
X138795188Y-102342624D01*
X138728338Y-102321510D01*
X138649811Y-102313811D01*
X138569445Y-102319441D01*
G36*
X147943730Y-102395749D02*
X147903269Y-102402861D01*
X147898421Y-102404362D01*
X147872433Y-102415611D01*
X147841641Y-102432167D01*
X147812172Y-102450177D01*
X147790154Y-102465789D01*
X147781713Y-102475152D01*
X147783992Y-102476300D01*
X147783696Y-102484098D01*
X147769122Y-102503097D01*
X147767049Y-102505337D01*
X147745880Y-102535203D01*
X147735529Y-102562160D01*
X147729146Y-102587488D01*
X147724009Y-102597224D01*
X147716986Y-102619460D01*
X147719588Y-102656591D01*
X147729634Y-102701938D01*
X147744944Y-102748821D01*
X147763338Y-102790562D01*
X147782636Y-102820481D01*
X147800618Y-102831900D01*
X147812627Y-102836267D01*
X147810818Y-102840616D01*
X147813703Y-102851380D01*
X147835310Y-102865085D01*
X147869514Y-102879398D01*
X147910189Y-102891988D01*
X147951210Y-102900524D01*
X147974050Y-102902754D01*
X148030033Y-102899087D01*
X148078623Y-102880531D01*
X148088350Y-102874978D01*
X148121680Y-102854755D01*
X148146456Y-102839050D01*
X148152155Y-102835139D01*
X148166340Y-102819554D01*
X148186149Y-102792768D01*
X148204791Y-102764579D01*
X148215476Y-102744788D01*
X148216005Y-102743000D01*
X148219216Y-102727585D01*
X148225531Y-102697318D01*
X148227369Y-102688517D01*
X148229918Y-102635464D01*
X148219689Y-102577940D01*
X148199368Y-102527109D01*
X148182964Y-102503942D01*
X148168406Y-102483176D01*
X148167432Y-102471301D01*
X148164142Y-102464819D01*
X148153967Y-102463600D01*
X148135739Y-102458049D01*
X148132800Y-102452347D01*
X148121568Y-102438188D01*
X148092852Y-102422299D01*
X148054126Y-102407674D01*
X148012863Y-102397306D01*
X147987776Y-102394246D01*
X147943730Y-102395749D01*
X147943730Y-102395749D01*
G37*
X147943730Y-102395749D02*
X147903269Y-102402861D01*
X147898421Y-102404362D01*
X147872433Y-102415611D01*
X147841641Y-102432167D01*
X147812172Y-102450177D01*
X147790154Y-102465789D01*
X147781713Y-102475152D01*
X147783992Y-102476300D01*
X147783696Y-102484098D01*
X147769122Y-102503097D01*
X147767049Y-102505337D01*
X147745880Y-102535203D01*
X147735529Y-102562160D01*
X147729146Y-102587488D01*
X147724009Y-102597224D01*
X147716986Y-102619460D01*
X147719588Y-102656591D01*
X147729634Y-102701938D01*
X147744944Y-102748821D01*
X147763338Y-102790562D01*
X147782636Y-102820481D01*
X147800618Y-102831900D01*
X147812627Y-102836267D01*
X147810818Y-102840616D01*
X147813703Y-102851380D01*
X147835310Y-102865085D01*
X147869514Y-102879398D01*
X147910189Y-102891988D01*
X147951210Y-102900524D01*
X147974050Y-102902754D01*
X148030033Y-102899087D01*
X148078623Y-102880531D01*
X148088350Y-102874978D01*
X148121680Y-102854755D01*
X148146456Y-102839050D01*
X148152155Y-102835139D01*
X148166340Y-102819554D01*
X148186149Y-102792768D01*
X148204791Y-102764579D01*
X148215476Y-102744788D01*
X148216005Y-102743000D01*
X148219216Y-102727585D01*
X148225531Y-102697318D01*
X148227369Y-102688517D01*
X148229918Y-102635464D01*
X148219689Y-102577940D01*
X148199368Y-102527109D01*
X148182964Y-102503942D01*
X148168406Y-102483176D01*
X148167432Y-102471301D01*
X148164142Y-102464819D01*
X148153967Y-102463600D01*
X148135739Y-102458049D01*
X148132800Y-102452347D01*
X148121568Y-102438188D01*
X148092852Y-102422299D01*
X148054126Y-102407674D01*
X148012863Y-102397306D01*
X147987776Y-102394246D01*
X147943730Y-102395749D01*
M02*
