%TF.GenerationSoftware,KiCad,Pcbnew,4.0.7*%
%TF.CreationDate,2018-06-08T10:12:50+02:00*%
%TF.ProjectId,Grape,47726170652E6B696361645F70636200,rev?*%
%TF.FileFunction,Soldermask,Top*%
%FSLAX46Y46*%
G04 Gerber Fmt 4.6, Leading zero omitted, Abs format (unit mm)*
G04 Created by KiCad (PCBNEW 4.0.7) date 06/08/18 10:12:50*
%MOMM*%
%LPD*%
G01*
G04 APERTURE LIST*
%ADD10C,0.150000*%
%ADD11C,0.127000*%
%ADD12C,0.010000*%
%ADD13C,2.000000*%
%ADD14C,2.133600*%
%ADD15C,3.378200*%
%ADD16R,1.100000X1.350000*%
%ADD17R,2.050000X1.600000*%
%ADD18R,0.900000X0.850000*%
%ADD19R,3.600000X1.700000*%
%ADD20R,1.700000X3.600000*%
%ADD21R,1.350000X1.100000*%
%ADD22R,2.600000X1.900000*%
%ADD23R,0.900000X0.900000*%
%ADD24C,4.900000*%
%ADD25R,4.900000X4.900000*%
%ADD26R,3.100000X7.600000*%
%ADD27R,0.800000X1.400000*%
%ADD28R,1.300000X1.300000*%
%ADD29R,1.800000X1.800000*%
%ADD30O,1.800000X1.800000*%
%ADD31R,1.800000X1.300000*%
%ADD32O,1.800000X1.300000*%
%ADD33R,0.800000X0.550000*%
%ADD34R,1.000000X0.900000*%
%ADD35R,1.400000X0.800000*%
%ADD36C,2.200000*%
%ADD37C,1.850000*%
%ADD38C,1.000000*%
%ADD39R,1.600000X0.800000*%
%ADD40R,0.900000X1.100000*%
%ADD41R,0.506400X1.370000*%
%ADD42R,1.650000X0.700000*%
%ADD43R,2.100000X3.900000*%
%ADD44R,2.100000X1.600000*%
%ADD45R,1.300000X1.700000*%
%ADD46C,0.652780*%
%ADD47R,2.000000X1.600000*%
%ADD48C,1.550000*%
%ADD49R,1.450000X0.500000*%
%ADD50O,2.000000X1.300000*%
%ADD51R,2.000000X1.300000*%
G04 APERTURE END LIST*
D10*
D11*
X176276000Y-114300000D02*
X112776000Y-114300000D01*
X177800000Y-112776000D02*
X177800000Y-111760000D01*
X177800000Y-112776000D02*
X176276000Y-114300000D01*
X176276000Y-60960000D02*
X112776000Y-60960000D01*
X111760000Y-61976000D02*
X111760000Y-113284000D01*
X111760000Y-113284000D02*
G75*
G03X112776000Y-114300000I1016000J0D01*
G01*
X112776000Y-60960000D02*
G75*
G03X111760000Y-61976000I0J-1016000D01*
G01*
X180340000Y-109220000D02*
X177800000Y-111760000D01*
X180340000Y-76454000D02*
X180340000Y-109220000D01*
X177800000Y-73914000D02*
X180340000Y-76454000D01*
X177800000Y-62484000D02*
X177800000Y-73914000D01*
X176276000Y-60960000D02*
X177800000Y-62484000D01*
D12*
G36*
X119617085Y-67297626D02*
X119741426Y-67347580D01*
X119758680Y-67359148D01*
X119809830Y-67394164D01*
X119831885Y-67400189D01*
X119837091Y-67377748D01*
X119837200Y-67362529D01*
X119842809Y-67332237D01*
X119867728Y-67316456D01*
X119924093Y-67310623D01*
X119976900Y-67310000D01*
X120116600Y-67310000D01*
X120115493Y-67697350D01*
X120112647Y-67905827D01*
X120104150Y-68070492D01*
X120088074Y-68198198D01*
X120062489Y-68295796D01*
X120025466Y-68370138D01*
X119975075Y-68428076D01*
X119909389Y-68476462D01*
X119893414Y-68486083D01*
X119806828Y-68518163D01*
X119688006Y-68537891D01*
X119554251Y-68544180D01*
X119422863Y-68535942D01*
X119340992Y-68520804D01*
X119243520Y-68494084D01*
X119188380Y-68470811D01*
X119168287Y-68443523D01*
X119175959Y-68404758D01*
X119192823Y-68369008D01*
X119221507Y-68313689D01*
X119238640Y-68282696D01*
X119239741Y-68281105D01*
X119265212Y-68283362D01*
X119326048Y-68295967D01*
X119400679Y-68314084D01*
X119546649Y-68336347D01*
X119668353Y-68324535D01*
X119760714Y-68280959D01*
X119818655Y-68207932D01*
X119837200Y-68115334D01*
X119834633Y-68066646D01*
X119820405Y-68062205D01*
X119793757Y-68086414D01*
X119715253Y-68141167D01*
X119613729Y-68182439D01*
X119516912Y-68198997D01*
X119515835Y-68199000D01*
X119413159Y-68178840D01*
X119305486Y-68126082D01*
X119212896Y-68052306D01*
X119171407Y-68000347D01*
X119135380Y-67926829D01*
X119117584Y-67842638D01*
X119113300Y-67741800D01*
X119380000Y-67741800D01*
X119400503Y-67846315D01*
X119455275Y-67921764D01*
X119534204Y-67963802D01*
X119627181Y-67968088D01*
X119724094Y-67930276D01*
X119759051Y-67904642D01*
X119820512Y-67825600D01*
X119839923Y-67737224D01*
X119821707Y-67650683D01*
X119770291Y-67577151D01*
X119690100Y-67527798D01*
X119603981Y-67513200D01*
X119498442Y-67534201D01*
X119423726Y-67593919D01*
X119384666Y-67687420D01*
X119380000Y-67741800D01*
X119113300Y-67741800D01*
X119128883Y-67589319D01*
X119178089Y-67471388D01*
X119264597Y-67381518D01*
X119344596Y-67334094D01*
X119481073Y-67292904D01*
X119617085Y-67297626D01*
X119617085Y-67297626D01*
G37*
X119617085Y-67297626D02*
X119741426Y-67347580D01*
X119758680Y-67359148D01*
X119809830Y-67394164D01*
X119831885Y-67400189D01*
X119837091Y-67377748D01*
X119837200Y-67362529D01*
X119842809Y-67332237D01*
X119867728Y-67316456D01*
X119924093Y-67310623D01*
X119976900Y-67310000D01*
X120116600Y-67310000D01*
X120115493Y-67697350D01*
X120112647Y-67905827D01*
X120104150Y-68070492D01*
X120088074Y-68198198D01*
X120062489Y-68295796D01*
X120025466Y-68370138D01*
X119975075Y-68428076D01*
X119909389Y-68476462D01*
X119893414Y-68486083D01*
X119806828Y-68518163D01*
X119688006Y-68537891D01*
X119554251Y-68544180D01*
X119422863Y-68535942D01*
X119340992Y-68520804D01*
X119243520Y-68494084D01*
X119188380Y-68470811D01*
X119168287Y-68443523D01*
X119175959Y-68404758D01*
X119192823Y-68369008D01*
X119221507Y-68313689D01*
X119238640Y-68282696D01*
X119239741Y-68281105D01*
X119265212Y-68283362D01*
X119326048Y-68295967D01*
X119400679Y-68314084D01*
X119546649Y-68336347D01*
X119668353Y-68324535D01*
X119760714Y-68280959D01*
X119818655Y-68207932D01*
X119837200Y-68115334D01*
X119834633Y-68066646D01*
X119820405Y-68062205D01*
X119793757Y-68086414D01*
X119715253Y-68141167D01*
X119613729Y-68182439D01*
X119516912Y-68198997D01*
X119515835Y-68199000D01*
X119413159Y-68178840D01*
X119305486Y-68126082D01*
X119212896Y-68052306D01*
X119171407Y-68000347D01*
X119135380Y-67926829D01*
X119117584Y-67842638D01*
X119113300Y-67741800D01*
X119380000Y-67741800D01*
X119400503Y-67846315D01*
X119455275Y-67921764D01*
X119534204Y-67963802D01*
X119627181Y-67968088D01*
X119724094Y-67930276D01*
X119759051Y-67904642D01*
X119820512Y-67825600D01*
X119839923Y-67737224D01*
X119821707Y-67650683D01*
X119770291Y-67577151D01*
X119690100Y-67527798D01*
X119603981Y-67513200D01*
X119498442Y-67534201D01*
X119423726Y-67593919D01*
X119384666Y-67687420D01*
X119380000Y-67741800D01*
X119113300Y-67741800D01*
X119128883Y-67589319D01*
X119178089Y-67471388D01*
X119264597Y-67381518D01*
X119344596Y-67334094D01*
X119481073Y-67292904D01*
X119617085Y-67297626D01*
G36*
X122850055Y-67323432D02*
X122962444Y-67392769D01*
X123052199Y-67498085D01*
X123061879Y-67514663D01*
X123113118Y-67654475D01*
X123127346Y-67810898D01*
X123104562Y-67965749D01*
X123061879Y-68072320D01*
X122978440Y-68179260D01*
X122869753Y-68252889D01*
X122746939Y-68290281D01*
X122621119Y-68288509D01*
X122503415Y-68244645D01*
X122476156Y-68226461D01*
X122402600Y-68172079D01*
X122402600Y-68554600D01*
X122123200Y-68554600D01*
X122123200Y-67827369D01*
X122397375Y-67827369D01*
X122424063Y-67917463D01*
X122473220Y-67994226D01*
X122540480Y-68048852D01*
X122621474Y-68072537D01*
X122711835Y-68056474D01*
X122734206Y-68045847D01*
X122792378Y-67991032D01*
X122837385Y-67905869D01*
X122859130Y-67810716D01*
X122859800Y-67792600D01*
X122841178Y-67679857D01*
X122791195Y-67592362D01*
X122718670Y-67535624D01*
X122632424Y-67515155D01*
X122541275Y-67536467D01*
X122495800Y-67565155D01*
X122428877Y-67642410D01*
X122397524Y-67732749D01*
X122397375Y-67827369D01*
X122123200Y-67827369D01*
X122123200Y-67310000D01*
X122262900Y-67310000D01*
X122343461Y-67312109D01*
X122385430Y-67321479D01*
X122400942Y-67342673D01*
X122402600Y-67362529D01*
X122404701Y-67395252D01*
X122419171Y-67399704D01*
X122458255Y-67375356D01*
X122481119Y-67359148D01*
X122598990Y-67303835D01*
X122725436Y-67292859D01*
X122850055Y-67323432D01*
X122850055Y-67323432D01*
G37*
X122850055Y-67323432D02*
X122962444Y-67392769D01*
X123052199Y-67498085D01*
X123061879Y-67514663D01*
X123113118Y-67654475D01*
X123127346Y-67810898D01*
X123104562Y-67965749D01*
X123061879Y-68072320D01*
X122978440Y-68179260D01*
X122869753Y-68252889D01*
X122746939Y-68290281D01*
X122621119Y-68288509D01*
X122503415Y-68244645D01*
X122476156Y-68226461D01*
X122402600Y-68172079D01*
X122402600Y-68554600D01*
X122123200Y-68554600D01*
X122123200Y-67827369D01*
X122397375Y-67827369D01*
X122424063Y-67917463D01*
X122473220Y-67994226D01*
X122540480Y-68048852D01*
X122621474Y-68072537D01*
X122711835Y-68056474D01*
X122734206Y-68045847D01*
X122792378Y-67991032D01*
X122837385Y-67905869D01*
X122859130Y-67810716D01*
X122859800Y-67792600D01*
X122841178Y-67679857D01*
X122791195Y-67592362D01*
X122718670Y-67535624D01*
X122632424Y-67515155D01*
X122541275Y-67536467D01*
X122495800Y-67565155D01*
X122428877Y-67642410D01*
X122397524Y-67732749D01*
X122397375Y-67827369D01*
X122123200Y-67827369D01*
X122123200Y-67310000D01*
X122262900Y-67310000D01*
X122343461Y-67312109D01*
X122385430Y-67321479D01*
X122400942Y-67342673D01*
X122402600Y-67362529D01*
X122404701Y-67395252D01*
X122419171Y-67399704D01*
X122458255Y-67375356D01*
X122481119Y-67359148D01*
X122598990Y-67303835D01*
X122725436Y-67292859D01*
X122850055Y-67323432D01*
G36*
X118655661Y-66134310D02*
X118807101Y-66196250D01*
X118941621Y-66289588D01*
X119052774Y-66412045D01*
X119134114Y-66561345D01*
X119179196Y-66735212D01*
X119186199Y-66840100D01*
X119164043Y-67037909D01*
X119096844Y-67212292D01*
X118984877Y-67362772D01*
X118828419Y-67488875D01*
X118798766Y-67507058D01*
X118719772Y-67545749D01*
X118632124Y-67569324D01*
X118516859Y-67582491D01*
X118487210Y-67584383D01*
X118380711Y-67588624D01*
X118304047Y-67583897D01*
X118236509Y-67566316D01*
X118157388Y-67531993D01*
X118125527Y-67516487D01*
X118042997Y-67477133D01*
X117978443Y-67448707D01*
X117945149Y-67437039D01*
X117944446Y-67437000D01*
X117913263Y-67449568D01*
X117855506Y-67481623D01*
X117817046Y-67505186D01*
X117709267Y-67573373D01*
X117722251Y-67716562D01*
X117715651Y-67905106D01*
X117664260Y-68083188D01*
X117572615Y-68242099D01*
X117445253Y-68373132D01*
X117345906Y-68438987D01*
X117214511Y-68490507D01*
X117061118Y-68519927D01*
X116905267Y-68525492D01*
X116766495Y-68505447D01*
X116731226Y-68494219D01*
X116556281Y-68404114D01*
X116417277Y-68279606D01*
X116317014Y-68124791D01*
X116258292Y-67943766D01*
X116247031Y-67822292D01*
X116599015Y-67822292D01*
X116630240Y-67937577D01*
X116695020Y-68037213D01*
X116785216Y-68114449D01*
X116892688Y-68162534D01*
X117009296Y-68174716D01*
X117126900Y-68144243D01*
X117139711Y-68137913D01*
X117253451Y-68054544D01*
X117326934Y-67949949D01*
X117360301Y-67833370D01*
X117353689Y-67714051D01*
X117307238Y-67601232D01*
X117221086Y-67504157D01*
X117129313Y-67446675D01*
X117007774Y-67414823D01*
X116884841Y-67427002D01*
X116771395Y-67477951D01*
X116678318Y-67562406D01*
X116616490Y-67675104D01*
X116609485Y-67698111D01*
X116599015Y-67822292D01*
X116247031Y-67822292D01*
X116243100Y-67779900D01*
X116266252Y-67587966D01*
X116332441Y-67417682D01*
X116436764Y-67273889D01*
X116574317Y-67161432D01*
X116740197Y-67085153D01*
X116929502Y-67049895D01*
X116984033Y-67048036D01*
X117101989Y-67052589D01*
X117194234Y-67070404D01*
X117285195Y-67106564D01*
X117300082Y-67113807D01*
X117433997Y-67180080D01*
X117702159Y-67017900D01*
X117702879Y-66876460D01*
X117705385Y-66853480D01*
X118061871Y-66853480D01*
X118085087Y-66972375D01*
X118116954Y-67032589D01*
X118217418Y-67144957D01*
X118334054Y-67211580D01*
X118462031Y-67230803D01*
X118596515Y-67200968D01*
X118601851Y-67198777D01*
X118710349Y-67128853D01*
X118784172Y-67030729D01*
X118821603Y-66914857D01*
X118820929Y-66791691D01*
X118780434Y-66671686D01*
X118704762Y-66571327D01*
X118643962Y-66520330D01*
X118582232Y-66492718D01*
X118497242Y-66479487D01*
X118472232Y-66477543D01*
X118378087Y-66475196D01*
X118311776Y-66487403D01*
X118251310Y-66518810D01*
X118239580Y-66526702D01*
X118141756Y-66619761D01*
X118081641Y-66732315D01*
X118061871Y-66853480D01*
X117705385Y-66853480D01*
X117724354Y-66679554D01*
X117784945Y-66505437D01*
X117870260Y-66375261D01*
X118009613Y-66246061D01*
X118164276Y-66159643D01*
X118327802Y-66113730D01*
X118493746Y-66106044D01*
X118655661Y-66134310D01*
X118655661Y-66134310D01*
G37*
X118655661Y-66134310D02*
X118807101Y-66196250D01*
X118941621Y-66289588D01*
X119052774Y-66412045D01*
X119134114Y-66561345D01*
X119179196Y-66735212D01*
X119186199Y-66840100D01*
X119164043Y-67037909D01*
X119096844Y-67212292D01*
X118984877Y-67362772D01*
X118828419Y-67488875D01*
X118798766Y-67507058D01*
X118719772Y-67545749D01*
X118632124Y-67569324D01*
X118516859Y-67582491D01*
X118487210Y-67584383D01*
X118380711Y-67588624D01*
X118304047Y-67583897D01*
X118236509Y-67566316D01*
X118157388Y-67531993D01*
X118125527Y-67516487D01*
X118042997Y-67477133D01*
X117978443Y-67448707D01*
X117945149Y-67437039D01*
X117944446Y-67437000D01*
X117913263Y-67449568D01*
X117855506Y-67481623D01*
X117817046Y-67505186D01*
X117709267Y-67573373D01*
X117722251Y-67716562D01*
X117715651Y-67905106D01*
X117664260Y-68083188D01*
X117572615Y-68242099D01*
X117445253Y-68373132D01*
X117345906Y-68438987D01*
X117214511Y-68490507D01*
X117061118Y-68519927D01*
X116905267Y-68525492D01*
X116766495Y-68505447D01*
X116731226Y-68494219D01*
X116556281Y-68404114D01*
X116417277Y-68279606D01*
X116317014Y-68124791D01*
X116258292Y-67943766D01*
X116247031Y-67822292D01*
X116599015Y-67822292D01*
X116630240Y-67937577D01*
X116695020Y-68037213D01*
X116785216Y-68114449D01*
X116892688Y-68162534D01*
X117009296Y-68174716D01*
X117126900Y-68144243D01*
X117139711Y-68137913D01*
X117253451Y-68054544D01*
X117326934Y-67949949D01*
X117360301Y-67833370D01*
X117353689Y-67714051D01*
X117307238Y-67601232D01*
X117221086Y-67504157D01*
X117129313Y-67446675D01*
X117007774Y-67414823D01*
X116884841Y-67427002D01*
X116771395Y-67477951D01*
X116678318Y-67562406D01*
X116616490Y-67675104D01*
X116609485Y-67698111D01*
X116599015Y-67822292D01*
X116247031Y-67822292D01*
X116243100Y-67779900D01*
X116266252Y-67587966D01*
X116332441Y-67417682D01*
X116436764Y-67273889D01*
X116574317Y-67161432D01*
X116740197Y-67085153D01*
X116929502Y-67049895D01*
X116984033Y-67048036D01*
X117101989Y-67052589D01*
X117194234Y-67070404D01*
X117285195Y-67106564D01*
X117300082Y-67113807D01*
X117433997Y-67180080D01*
X117702159Y-67017900D01*
X117702879Y-66876460D01*
X117705385Y-66853480D01*
X118061871Y-66853480D01*
X118085087Y-66972375D01*
X118116954Y-67032589D01*
X118217418Y-67144957D01*
X118334054Y-67211580D01*
X118462031Y-67230803D01*
X118596515Y-67200968D01*
X118601851Y-67198777D01*
X118710349Y-67128853D01*
X118784172Y-67030729D01*
X118821603Y-66914857D01*
X118820929Y-66791691D01*
X118780434Y-66671686D01*
X118704762Y-66571327D01*
X118643962Y-66520330D01*
X118582232Y-66492718D01*
X118497242Y-66479487D01*
X118472232Y-66477543D01*
X118378087Y-66475196D01*
X118311776Y-66487403D01*
X118251310Y-66518810D01*
X118239580Y-66526702D01*
X118141756Y-66619761D01*
X118081641Y-66732315D01*
X118061871Y-66853480D01*
X117705385Y-66853480D01*
X117724354Y-66679554D01*
X117784945Y-66505437D01*
X117870260Y-66375261D01*
X118009613Y-66246061D01*
X118164276Y-66159643D01*
X118327802Y-66113730D01*
X118493746Y-66106044D01*
X118655661Y-66134310D01*
G36*
X121540664Y-67326067D02*
X121615992Y-67333981D01*
X121669557Y-67351340D01*
X121708545Y-67375305D01*
X121769107Y-67427528D01*
X121812739Y-67487708D01*
X121841993Y-67564802D01*
X121859424Y-67667767D01*
X121867585Y-67805562D01*
X121869160Y-67938650D01*
X121869200Y-68275200D01*
X121742200Y-68275200D01*
X121663808Y-68271601D01*
X121625077Y-68258486D01*
X121615200Y-68234178D01*
X121610803Y-68208444D01*
X121588813Y-68211987D01*
X121550561Y-68235510D01*
X121456876Y-68273965D01*
X121341005Y-68290557D01*
X121227463Y-68283411D01*
X121165993Y-68264912D01*
X121081033Y-68202190D01*
X121028197Y-68113822D01*
X121007551Y-68012143D01*
X121011810Y-67974481D01*
X121264499Y-67974481D01*
X121277019Y-68042974D01*
X121324503Y-68089789D01*
X121394594Y-68111711D01*
X121474931Y-68105529D01*
X121553155Y-68068029D01*
X121570285Y-68053973D01*
X121606936Y-67990518D01*
X121610052Y-67946325D01*
X121582355Y-67889707D01*
X121524616Y-67857577D01*
X121450663Y-67848808D01*
X121374321Y-67862274D01*
X121309419Y-67896847D01*
X121269784Y-67951401D01*
X121264499Y-67974481D01*
X121011810Y-67974481D01*
X121019162Y-67909489D01*
X121063097Y-67818196D01*
X121139421Y-67750601D01*
X121163152Y-67739027D01*
X121238575Y-67719726D01*
X121344707Y-67708525D01*
X121431050Y-67706841D01*
X121535590Y-67705587D01*
X121594929Y-67694897D01*
X121614349Y-67670983D01*
X121599135Y-67630055D01*
X121579153Y-67600604D01*
X121542733Y-67569418D01*
X121483112Y-67554458D01*
X121407703Y-67551300D01*
X121316091Y-67554848D01*
X121235168Y-67563876D01*
X121205470Y-67570075D01*
X121162087Y-67577543D01*
X121137149Y-67560605D01*
X121118276Y-67508062D01*
X121112537Y-67486016D01*
X121098389Y-67419993D01*
X121104086Y-67384998D01*
X121135248Y-67363292D01*
X121153967Y-67355239D01*
X121211243Y-67341671D01*
X121301675Y-67331071D01*
X121407630Y-67325378D01*
X121429145Y-67324999D01*
X121540664Y-67326067D01*
X121540664Y-67326067D01*
G37*
X121540664Y-67326067D02*
X121615992Y-67333981D01*
X121669557Y-67351340D01*
X121708545Y-67375305D01*
X121769107Y-67427528D01*
X121812739Y-67487708D01*
X121841993Y-67564802D01*
X121859424Y-67667767D01*
X121867585Y-67805562D01*
X121869160Y-67938650D01*
X121869200Y-68275200D01*
X121742200Y-68275200D01*
X121663808Y-68271601D01*
X121625077Y-68258486D01*
X121615200Y-68234178D01*
X121610803Y-68208444D01*
X121588813Y-68211987D01*
X121550561Y-68235510D01*
X121456876Y-68273965D01*
X121341005Y-68290557D01*
X121227463Y-68283411D01*
X121165993Y-68264912D01*
X121081033Y-68202190D01*
X121028197Y-68113822D01*
X121007551Y-68012143D01*
X121011810Y-67974481D01*
X121264499Y-67974481D01*
X121277019Y-68042974D01*
X121324503Y-68089789D01*
X121394594Y-68111711D01*
X121474931Y-68105529D01*
X121553155Y-68068029D01*
X121570285Y-68053973D01*
X121606936Y-67990518D01*
X121610052Y-67946325D01*
X121582355Y-67889707D01*
X121524616Y-67857577D01*
X121450663Y-67848808D01*
X121374321Y-67862274D01*
X121309419Y-67896847D01*
X121269784Y-67951401D01*
X121264499Y-67974481D01*
X121011810Y-67974481D01*
X121019162Y-67909489D01*
X121063097Y-67818196D01*
X121139421Y-67750601D01*
X121163152Y-67739027D01*
X121238575Y-67719726D01*
X121344707Y-67708525D01*
X121431050Y-67706841D01*
X121535590Y-67705587D01*
X121594929Y-67694897D01*
X121614349Y-67670983D01*
X121599135Y-67630055D01*
X121579153Y-67600604D01*
X121542733Y-67569418D01*
X121483112Y-67554458D01*
X121407703Y-67551300D01*
X121316091Y-67554848D01*
X121235168Y-67563876D01*
X121205470Y-67570075D01*
X121162087Y-67577543D01*
X121137149Y-67560605D01*
X121118276Y-67508062D01*
X121112537Y-67486016D01*
X121098389Y-67419993D01*
X121104086Y-67384998D01*
X121135248Y-67363292D01*
X121153967Y-67355239D01*
X121211243Y-67341671D01*
X121301675Y-67331071D01*
X121407630Y-67325378D01*
X121429145Y-67324999D01*
X121540664Y-67326067D01*
G36*
X123899454Y-67316990D02*
X124017798Y-67383687D01*
X124110194Y-67485416D01*
X124169945Y-67617037D01*
X124190206Y-67753520D01*
X124193300Y-67881500D01*
X123869450Y-67888608D01*
X123747885Y-67892985D01*
X123647133Y-67899864D01*
X123576716Y-67908355D01*
X123546157Y-67917564D01*
X123545600Y-67918942D01*
X123560807Y-67952165D01*
X123598055Y-68003014D01*
X123604418Y-68010547D01*
X123659860Y-68058711D01*
X123728530Y-68077397D01*
X123768690Y-68078927D01*
X123853647Y-68068451D01*
X123928375Y-68042608D01*
X123939379Y-68036183D01*
X123985419Y-68010304D01*
X124020574Y-68011815D01*
X124067684Y-68043276D01*
X124078502Y-68051769D01*
X124127149Y-68094143D01*
X124152734Y-68124134D01*
X124153794Y-68127420D01*
X124134162Y-68157395D01*
X124081060Y-68196356D01*
X124008690Y-68235734D01*
X123931253Y-68266959D01*
X123913900Y-68272175D01*
X123791740Y-68296179D01*
X123684736Y-68290891D01*
X123587641Y-68263550D01*
X123459927Y-68194622D01*
X123365040Y-68096409D01*
X123302762Y-67977520D01*
X123272877Y-67846566D01*
X123275167Y-67712156D01*
X123286329Y-67670027D01*
X123545600Y-67670027D01*
X123551100Y-67693310D01*
X123574314Y-67707244D01*
X123625313Y-67714144D01*
X123714169Y-67716321D01*
X123747478Y-67716400D01*
X123949357Y-67716400D01*
X123922524Y-67639428D01*
X123879771Y-67571738D01*
X123813968Y-67521550D01*
X123742679Y-67499807D01*
X123705958Y-67504464D01*
X123638876Y-67542135D01*
X123581026Y-67597226D01*
X123548231Y-67653404D01*
X123545600Y-67670027D01*
X123286329Y-67670027D01*
X123309414Y-67582903D01*
X123375403Y-67467414D01*
X123472915Y-67374302D01*
X123601733Y-67312177D01*
X123611710Y-67309269D01*
X123761860Y-67290470D01*
X123899454Y-67316990D01*
X123899454Y-67316990D01*
G37*
X123899454Y-67316990D02*
X124017798Y-67383687D01*
X124110194Y-67485416D01*
X124169945Y-67617037D01*
X124190206Y-67753520D01*
X124193300Y-67881500D01*
X123869450Y-67888608D01*
X123747885Y-67892985D01*
X123647133Y-67899864D01*
X123576716Y-67908355D01*
X123546157Y-67917564D01*
X123545600Y-67918942D01*
X123560807Y-67952165D01*
X123598055Y-68003014D01*
X123604418Y-68010547D01*
X123659860Y-68058711D01*
X123728530Y-68077397D01*
X123768690Y-68078927D01*
X123853647Y-68068451D01*
X123928375Y-68042608D01*
X123939379Y-68036183D01*
X123985419Y-68010304D01*
X124020574Y-68011815D01*
X124067684Y-68043276D01*
X124078502Y-68051769D01*
X124127149Y-68094143D01*
X124152734Y-68124134D01*
X124153794Y-68127420D01*
X124134162Y-68157395D01*
X124081060Y-68196356D01*
X124008690Y-68235734D01*
X123931253Y-68266959D01*
X123913900Y-68272175D01*
X123791740Y-68296179D01*
X123684736Y-68290891D01*
X123587641Y-68263550D01*
X123459927Y-68194622D01*
X123365040Y-68096409D01*
X123302762Y-67977520D01*
X123272877Y-67846566D01*
X123275167Y-67712156D01*
X123286329Y-67670027D01*
X123545600Y-67670027D01*
X123551100Y-67693310D01*
X123574314Y-67707244D01*
X123625313Y-67714144D01*
X123714169Y-67716321D01*
X123747478Y-67716400D01*
X123949357Y-67716400D01*
X123922524Y-67639428D01*
X123879771Y-67571738D01*
X123813968Y-67521550D01*
X123742679Y-67499807D01*
X123705958Y-67504464D01*
X123638876Y-67542135D01*
X123581026Y-67597226D01*
X123548231Y-67653404D01*
X123545600Y-67670027D01*
X123286329Y-67670027D01*
X123309414Y-67582903D01*
X123375403Y-67467414D01*
X123472915Y-67374302D01*
X123601733Y-67312177D01*
X123611710Y-67309269D01*
X123761860Y-67290470D01*
X123899454Y-67316990D01*
G36*
X120929400Y-67418298D02*
X120927982Y-67498587D01*
X120918676Y-67542009D01*
X120893904Y-67562494D01*
X120846088Y-67573975D01*
X120844562Y-67574262D01*
X120766377Y-67604781D01*
X120698512Y-67655265D01*
X120671117Y-67688695D01*
X120652769Y-67726954D01*
X120641185Y-67781247D01*
X120634081Y-67862776D01*
X120629175Y-67982744D01*
X120628702Y-67997776D01*
X120620105Y-68275200D01*
X120345200Y-68275200D01*
X120345200Y-67310000D01*
X120484900Y-67310000D01*
X120564763Y-67311269D01*
X120606331Y-67319648D01*
X120622108Y-67341994D01*
X120624599Y-67385163D01*
X120624600Y-67386600D01*
X120624600Y-67463201D01*
X120694450Y-67386537D01*
X120761189Y-67331997D01*
X120835123Y-67296881D01*
X120846850Y-67294061D01*
X120929400Y-67278250D01*
X120929400Y-67418298D01*
X120929400Y-67418298D01*
G37*
X120929400Y-67418298D02*
X120927982Y-67498587D01*
X120918676Y-67542009D01*
X120893904Y-67562494D01*
X120846088Y-67573975D01*
X120844562Y-67574262D01*
X120766377Y-67604781D01*
X120698512Y-67655265D01*
X120671117Y-67688695D01*
X120652769Y-67726954D01*
X120641185Y-67781247D01*
X120634081Y-67862776D01*
X120629175Y-67982744D01*
X120628702Y-67997776D01*
X120620105Y-68275200D01*
X120345200Y-68275200D01*
X120345200Y-67310000D01*
X120484900Y-67310000D01*
X120564763Y-67311269D01*
X120606331Y-67319648D01*
X120622108Y-67341994D01*
X120624599Y-67385163D01*
X120624600Y-67386600D01*
X120624600Y-67463201D01*
X120694450Y-67386537D01*
X120761189Y-67331997D01*
X120835123Y-67296881D01*
X120846850Y-67294061D01*
X120929400Y-67278250D01*
X120929400Y-67418298D01*
G36*
X124688600Y-68275200D02*
X124409200Y-68275200D01*
X124409200Y-67995800D01*
X124688600Y-67995800D01*
X124688600Y-68275200D01*
X124688600Y-68275200D01*
G37*
X124688600Y-68275200D02*
X124409200Y-68275200D01*
X124409200Y-67995800D01*
X124688600Y-67995800D01*
X124688600Y-68275200D01*
G36*
X116004713Y-64083010D02*
X116160116Y-64164143D01*
X116295115Y-64278887D01*
X116401898Y-64421543D01*
X116472653Y-64586413D01*
X116486756Y-64644676D01*
X116516535Y-64796040D01*
X117094983Y-64978222D01*
X117199332Y-64883949D01*
X117348096Y-64773281D01*
X117504076Y-64708012D01*
X117680280Y-64683072D01*
X117716300Y-64682474D01*
X117910025Y-64705827D01*
X118082723Y-64772756D01*
X118229195Y-64878565D01*
X118344244Y-65018559D01*
X118422670Y-65188043D01*
X118456584Y-65351111D01*
X118455464Y-65533155D01*
X118410058Y-65697352D01*
X118317882Y-65850374D01*
X118236225Y-65942491D01*
X118088314Y-66063539D01*
X117929910Y-66137055D01*
X117753669Y-66166212D01*
X117716300Y-66167000D01*
X117534908Y-66142859D01*
X117366264Y-66074776D01*
X117218014Y-65969263D01*
X117097805Y-65832829D01*
X117013284Y-65671985D01*
X116977743Y-65538186D01*
X116962042Y-65439997D01*
X116809430Y-65392513D01*
X117333426Y-65392513D01*
X117343236Y-65508227D01*
X117399938Y-65627460D01*
X117406274Y-65637111D01*
X117500312Y-65736213D01*
X117616884Y-65793476D01*
X117746199Y-65805914D01*
X117864351Y-65776753D01*
X117966777Y-65709890D01*
X118048360Y-65611402D01*
X118094596Y-65499053D01*
X118095716Y-65493409D01*
X118092817Y-65382703D01*
X118050257Y-65269779D01*
X117976040Y-65169982D01*
X117894100Y-65106967D01*
X117761627Y-65057340D01*
X117633728Y-65054405D01*
X117518282Y-65095736D01*
X117423165Y-65178909D01*
X117369333Y-65268578D01*
X117333426Y-65392513D01*
X116809430Y-65392513D01*
X116656265Y-65344857D01*
X116350489Y-65249716D01*
X116280129Y-65317125D01*
X116209770Y-65384533D01*
X116253722Y-65513836D01*
X116280137Y-65585866D01*
X116307350Y-65627698D01*
X116350513Y-65652135D01*
X116424776Y-65671984D01*
X116446803Y-65677009D01*
X116633806Y-65743025D01*
X116790828Y-65846497D01*
X116913617Y-65982222D01*
X116997921Y-66144996D01*
X117039489Y-66329616D01*
X117043200Y-66406968D01*
X117020027Y-66588533D01*
X116954955Y-66752946D01*
X116854651Y-66895419D01*
X116725784Y-67011165D01*
X116575022Y-67095396D01*
X116409032Y-67143323D01*
X116234484Y-67150158D01*
X116061044Y-67112195D01*
X115882890Y-67023630D01*
X115739456Y-66899564D01*
X115634013Y-66743707D01*
X115569833Y-66559771D01*
X115568474Y-66553352D01*
X115558254Y-66411404D01*
X115917264Y-66411404D01*
X115939035Y-66534204D01*
X115998358Y-66639174D01*
X116085756Y-66721147D01*
X116191755Y-66774958D01*
X116306880Y-66795439D01*
X116421654Y-66777424D01*
X116506031Y-66732440D01*
X116605952Y-66637400D01*
X116660394Y-66531553D01*
X116674900Y-66421000D01*
X116653746Y-66296490D01*
X116596284Y-66193680D01*
X116511509Y-66115063D01*
X116408416Y-66063132D01*
X116296001Y-66040382D01*
X116183261Y-66049307D01*
X116079190Y-66092401D01*
X115992784Y-66172158D01*
X115960830Y-66223026D01*
X115931766Y-66305938D01*
X115917545Y-66399306D01*
X115917264Y-66411404D01*
X115558254Y-66411404D01*
X115555827Y-66377712D01*
X115585594Y-66199771D01*
X115653517Y-66033278D01*
X115755340Y-65891982D01*
X115781169Y-65866295D01*
X115844773Y-65806890D01*
X115800317Y-65676102D01*
X115771623Y-65599737D01*
X115743115Y-65558217D01*
X115700784Y-65537613D01*
X115650730Y-65527366D01*
X115459536Y-65471497D01*
X115296930Y-65376655D01*
X115167213Y-65247482D01*
X115074688Y-65088621D01*
X115023654Y-64904715D01*
X115016924Y-64843247D01*
X115017511Y-64831465D01*
X115370276Y-64831465D01*
X115408760Y-64948165D01*
X115461801Y-65026618D01*
X115568714Y-65119520D01*
X115690740Y-65167058D01*
X115820085Y-65167462D01*
X115925093Y-65131910D01*
X116029810Y-65054373D01*
X116097482Y-64952553D01*
X116128069Y-64836908D01*
X116121534Y-64717894D01*
X116077835Y-64605967D01*
X115996934Y-64511584D01*
X115927608Y-64466224D01*
X115798399Y-64423105D01*
X115676438Y-64422919D01*
X115567294Y-64458966D01*
X115476536Y-64524544D01*
X115409734Y-64612954D01*
X115372457Y-64717494D01*
X115370276Y-64831465D01*
X115017511Y-64831465D01*
X115026581Y-64649744D01*
X115081297Y-64473055D01*
X115176602Y-64318697D01*
X115308028Y-64192188D01*
X115471105Y-64099048D01*
X115661362Y-64044794D01*
X115663943Y-64044378D01*
X115836718Y-64041189D01*
X116004713Y-64083010D01*
X116004713Y-64083010D01*
G37*
X116004713Y-64083010D02*
X116160116Y-64164143D01*
X116295115Y-64278887D01*
X116401898Y-64421543D01*
X116472653Y-64586413D01*
X116486756Y-64644676D01*
X116516535Y-64796040D01*
X117094983Y-64978222D01*
X117199332Y-64883949D01*
X117348096Y-64773281D01*
X117504076Y-64708012D01*
X117680280Y-64683072D01*
X117716300Y-64682474D01*
X117910025Y-64705827D01*
X118082723Y-64772756D01*
X118229195Y-64878565D01*
X118344244Y-65018559D01*
X118422670Y-65188043D01*
X118456584Y-65351111D01*
X118455464Y-65533155D01*
X118410058Y-65697352D01*
X118317882Y-65850374D01*
X118236225Y-65942491D01*
X118088314Y-66063539D01*
X117929910Y-66137055D01*
X117753669Y-66166212D01*
X117716300Y-66167000D01*
X117534908Y-66142859D01*
X117366264Y-66074776D01*
X117218014Y-65969263D01*
X117097805Y-65832829D01*
X117013284Y-65671985D01*
X116977743Y-65538186D01*
X116962042Y-65439997D01*
X116809430Y-65392513D01*
X117333426Y-65392513D01*
X117343236Y-65508227D01*
X117399938Y-65627460D01*
X117406274Y-65637111D01*
X117500312Y-65736213D01*
X117616884Y-65793476D01*
X117746199Y-65805914D01*
X117864351Y-65776753D01*
X117966777Y-65709890D01*
X118048360Y-65611402D01*
X118094596Y-65499053D01*
X118095716Y-65493409D01*
X118092817Y-65382703D01*
X118050257Y-65269779D01*
X117976040Y-65169982D01*
X117894100Y-65106967D01*
X117761627Y-65057340D01*
X117633728Y-65054405D01*
X117518282Y-65095736D01*
X117423165Y-65178909D01*
X117369333Y-65268578D01*
X117333426Y-65392513D01*
X116809430Y-65392513D01*
X116656265Y-65344857D01*
X116350489Y-65249716D01*
X116280129Y-65317125D01*
X116209770Y-65384533D01*
X116253722Y-65513836D01*
X116280137Y-65585866D01*
X116307350Y-65627698D01*
X116350513Y-65652135D01*
X116424776Y-65671984D01*
X116446803Y-65677009D01*
X116633806Y-65743025D01*
X116790828Y-65846497D01*
X116913617Y-65982222D01*
X116997921Y-66144996D01*
X117039489Y-66329616D01*
X117043200Y-66406968D01*
X117020027Y-66588533D01*
X116954955Y-66752946D01*
X116854651Y-66895419D01*
X116725784Y-67011165D01*
X116575022Y-67095396D01*
X116409032Y-67143323D01*
X116234484Y-67150158D01*
X116061044Y-67112195D01*
X115882890Y-67023630D01*
X115739456Y-66899564D01*
X115634013Y-66743707D01*
X115569833Y-66559771D01*
X115568474Y-66553352D01*
X115558254Y-66411404D01*
X115917264Y-66411404D01*
X115939035Y-66534204D01*
X115998358Y-66639174D01*
X116085756Y-66721147D01*
X116191755Y-66774958D01*
X116306880Y-66795439D01*
X116421654Y-66777424D01*
X116506031Y-66732440D01*
X116605952Y-66637400D01*
X116660394Y-66531553D01*
X116674900Y-66421000D01*
X116653746Y-66296490D01*
X116596284Y-66193680D01*
X116511509Y-66115063D01*
X116408416Y-66063132D01*
X116296001Y-66040382D01*
X116183261Y-66049307D01*
X116079190Y-66092401D01*
X115992784Y-66172158D01*
X115960830Y-66223026D01*
X115931766Y-66305938D01*
X115917545Y-66399306D01*
X115917264Y-66411404D01*
X115558254Y-66411404D01*
X115555827Y-66377712D01*
X115585594Y-66199771D01*
X115653517Y-66033278D01*
X115755340Y-65891982D01*
X115781169Y-65866295D01*
X115844773Y-65806890D01*
X115800317Y-65676102D01*
X115771623Y-65599737D01*
X115743115Y-65558217D01*
X115700784Y-65537613D01*
X115650730Y-65527366D01*
X115459536Y-65471497D01*
X115296930Y-65376655D01*
X115167213Y-65247482D01*
X115074688Y-65088621D01*
X115023654Y-64904715D01*
X115016924Y-64843247D01*
X115017511Y-64831465D01*
X115370276Y-64831465D01*
X115408760Y-64948165D01*
X115461801Y-65026618D01*
X115568714Y-65119520D01*
X115690740Y-65167058D01*
X115820085Y-65167462D01*
X115925093Y-65131910D01*
X116029810Y-65054373D01*
X116097482Y-64952553D01*
X116128069Y-64836908D01*
X116121534Y-64717894D01*
X116077835Y-64605967D01*
X115996934Y-64511584D01*
X115927608Y-64466224D01*
X115798399Y-64423105D01*
X115676438Y-64422919D01*
X115567294Y-64458966D01*
X115476536Y-64524544D01*
X115409734Y-64612954D01*
X115372457Y-64717494D01*
X115370276Y-64831465D01*
X115017511Y-64831465D01*
X115026581Y-64649744D01*
X115081297Y-64473055D01*
X115176602Y-64318697D01*
X115308028Y-64192188D01*
X115471105Y-64099048D01*
X115661362Y-64044794D01*
X115663943Y-64044378D01*
X115836718Y-64041189D01*
X116004713Y-64083010D01*
G36*
X117309259Y-63192129D02*
X117480844Y-63257744D01*
X117624390Y-63364579D01*
X117737323Y-63510572D01*
X117817074Y-63693660D01*
X117832124Y-63747356D01*
X117873681Y-63912443D01*
X118157173Y-64003079D01*
X118440664Y-64093715D01*
X118522982Y-64015495D01*
X118672377Y-63905161D01*
X118835720Y-63838730D01*
X119005789Y-63813925D01*
X119175363Y-63828468D01*
X119337220Y-63880084D01*
X119484139Y-63966495D01*
X119608900Y-64085424D01*
X119704281Y-64234595D01*
X119761919Y-64406129D01*
X119775502Y-64593721D01*
X119740241Y-64780361D01*
X119657624Y-64958198D01*
X119657298Y-64958724D01*
X119579610Y-65083949D01*
X119623362Y-65180974D01*
X119653265Y-65239598D01*
X119685611Y-65268076D01*
X119738944Y-65277250D01*
X119789304Y-65278000D01*
X119965003Y-65302251D01*
X120133070Y-65370591D01*
X120282885Y-65476396D01*
X120403823Y-65613040D01*
X120449554Y-65689701D01*
X120497438Y-65827161D01*
X120518711Y-65987534D01*
X120512021Y-66149658D01*
X120486279Y-66264446D01*
X120422757Y-66394600D01*
X120325535Y-66522374D01*
X120209239Y-66631240D01*
X120101987Y-66698631D01*
X119939023Y-66751251D01*
X119762665Y-66767617D01*
X119592527Y-66746636D01*
X119537605Y-66730099D01*
X119366225Y-66644183D01*
X119227756Y-66524972D01*
X119124721Y-66379774D01*
X119059641Y-66215897D01*
X119035039Y-66040648D01*
X119040427Y-65988121D01*
X119399263Y-65988121D01*
X119408135Y-66112953D01*
X119454754Y-66217895D01*
X119538725Y-66310701D01*
X119646615Y-66380541D01*
X119764993Y-66416586D01*
X119787368Y-66418709D01*
X119831905Y-66409044D01*
X119900655Y-66381914D01*
X119938281Y-66363850D01*
X120053079Y-66286667D01*
X120124346Y-66190835D01*
X120158429Y-66067339D01*
X120160510Y-66048242D01*
X120162087Y-65957743D01*
X120142144Y-65888622D01*
X120112513Y-65839135D01*
X120010585Y-65723767D01*
X119897282Y-65657734D01*
X119773097Y-65641197D01*
X119638520Y-65674320D01*
X119626973Y-65679273D01*
X119510393Y-65755842D01*
X119433272Y-65861206D01*
X119399263Y-65988121D01*
X119040427Y-65988121D01*
X119053435Y-65861336D01*
X119117351Y-65685269D01*
X119154564Y-65620000D01*
X119231644Y-65498458D01*
X119187664Y-65400929D01*
X119157657Y-65342010D01*
X119125332Y-65313384D01*
X119072128Y-65304157D01*
X119021495Y-65303400D01*
X118844133Y-65279712D01*
X118678985Y-65213113D01*
X118533728Y-65110302D01*
X118416037Y-64977977D01*
X118333590Y-64822835D01*
X118295998Y-64670366D01*
X118287799Y-64601131D01*
X118649507Y-64601131D01*
X118688091Y-64723036D01*
X118738401Y-64798018D01*
X118845795Y-64892460D01*
X118966120Y-64938597D01*
X119095214Y-64935546D01*
X119202840Y-64896673D01*
X119312156Y-64815689D01*
X119382490Y-64710295D01*
X119412199Y-64590526D01*
X119399638Y-64466420D01*
X119343160Y-64348015D01*
X119301075Y-64297288D01*
X119188560Y-64210991D01*
X119067237Y-64174278D01*
X118938840Y-64187585D01*
X118907026Y-64198323D01*
X118786103Y-64267687D01*
X118701130Y-64364149D01*
X118654726Y-64478400D01*
X118649507Y-64601131D01*
X118287799Y-64601131D01*
X118281601Y-64548807D01*
X117990340Y-64455652D01*
X117699079Y-64362496D01*
X117650071Y-64424799D01*
X117601919Y-64468463D01*
X117524885Y-64520624D01*
X117445074Y-64565051D01*
X117265372Y-64629012D01*
X117083908Y-64646649D01*
X116907901Y-64621059D01*
X116744574Y-64555337D01*
X116601147Y-64452580D01*
X116484842Y-64315883D01*
X116402879Y-64148344D01*
X116391836Y-64113456D01*
X116363680Y-63931984D01*
X116364755Y-63920278D01*
X116719742Y-63920278D01*
X116745868Y-64035236D01*
X116806686Y-64136328D01*
X116894142Y-64216734D01*
X117000183Y-64269634D01*
X117116754Y-64288207D01*
X117235803Y-64265633D01*
X117270035Y-64250212D01*
X117364102Y-64180609D01*
X117441196Y-64085376D01*
X117486453Y-63983462D01*
X117489205Y-63970807D01*
X117487779Y-63844923D01*
X117437943Y-63722442D01*
X117358810Y-63625168D01*
X117304847Y-63577069D01*
X117256653Y-63550935D01*
X117195073Y-63540151D01*
X117106700Y-63538100D01*
X117014651Y-63540427D01*
X116954190Y-63551818D01*
X116906161Y-63578888D01*
X116854589Y-63625168D01*
X116793662Y-63696529D01*
X116746892Y-63772800D01*
X116736362Y-63798274D01*
X116719742Y-63920278D01*
X116364755Y-63920278D01*
X116380395Y-63750075D01*
X116438678Y-63578044D01*
X116535225Y-63426203D01*
X116646029Y-63319867D01*
X116776117Y-63237025D01*
X116908023Y-63189388D01*
X117061183Y-63170698D01*
X117112206Y-63169799D01*
X117309259Y-63192129D01*
X117309259Y-63192129D01*
G37*
X117309259Y-63192129D02*
X117480844Y-63257744D01*
X117624390Y-63364579D01*
X117737323Y-63510572D01*
X117817074Y-63693660D01*
X117832124Y-63747356D01*
X117873681Y-63912443D01*
X118157173Y-64003079D01*
X118440664Y-64093715D01*
X118522982Y-64015495D01*
X118672377Y-63905161D01*
X118835720Y-63838730D01*
X119005789Y-63813925D01*
X119175363Y-63828468D01*
X119337220Y-63880084D01*
X119484139Y-63966495D01*
X119608900Y-64085424D01*
X119704281Y-64234595D01*
X119761919Y-64406129D01*
X119775502Y-64593721D01*
X119740241Y-64780361D01*
X119657624Y-64958198D01*
X119657298Y-64958724D01*
X119579610Y-65083949D01*
X119623362Y-65180974D01*
X119653265Y-65239598D01*
X119685611Y-65268076D01*
X119738944Y-65277250D01*
X119789304Y-65278000D01*
X119965003Y-65302251D01*
X120133070Y-65370591D01*
X120282885Y-65476396D01*
X120403823Y-65613040D01*
X120449554Y-65689701D01*
X120497438Y-65827161D01*
X120518711Y-65987534D01*
X120512021Y-66149658D01*
X120486279Y-66264446D01*
X120422757Y-66394600D01*
X120325535Y-66522374D01*
X120209239Y-66631240D01*
X120101987Y-66698631D01*
X119939023Y-66751251D01*
X119762665Y-66767617D01*
X119592527Y-66746636D01*
X119537605Y-66730099D01*
X119366225Y-66644183D01*
X119227756Y-66524972D01*
X119124721Y-66379774D01*
X119059641Y-66215897D01*
X119035039Y-66040648D01*
X119040427Y-65988121D01*
X119399263Y-65988121D01*
X119408135Y-66112953D01*
X119454754Y-66217895D01*
X119538725Y-66310701D01*
X119646615Y-66380541D01*
X119764993Y-66416586D01*
X119787368Y-66418709D01*
X119831905Y-66409044D01*
X119900655Y-66381914D01*
X119938281Y-66363850D01*
X120053079Y-66286667D01*
X120124346Y-66190835D01*
X120158429Y-66067339D01*
X120160510Y-66048242D01*
X120162087Y-65957743D01*
X120142144Y-65888622D01*
X120112513Y-65839135D01*
X120010585Y-65723767D01*
X119897282Y-65657734D01*
X119773097Y-65641197D01*
X119638520Y-65674320D01*
X119626973Y-65679273D01*
X119510393Y-65755842D01*
X119433272Y-65861206D01*
X119399263Y-65988121D01*
X119040427Y-65988121D01*
X119053435Y-65861336D01*
X119117351Y-65685269D01*
X119154564Y-65620000D01*
X119231644Y-65498458D01*
X119187664Y-65400929D01*
X119157657Y-65342010D01*
X119125332Y-65313384D01*
X119072128Y-65304157D01*
X119021495Y-65303400D01*
X118844133Y-65279712D01*
X118678985Y-65213113D01*
X118533728Y-65110302D01*
X118416037Y-64977977D01*
X118333590Y-64822835D01*
X118295998Y-64670366D01*
X118287799Y-64601131D01*
X118649507Y-64601131D01*
X118688091Y-64723036D01*
X118738401Y-64798018D01*
X118845795Y-64892460D01*
X118966120Y-64938597D01*
X119095214Y-64935546D01*
X119202840Y-64896673D01*
X119312156Y-64815689D01*
X119382490Y-64710295D01*
X119412199Y-64590526D01*
X119399638Y-64466420D01*
X119343160Y-64348015D01*
X119301075Y-64297288D01*
X119188560Y-64210991D01*
X119067237Y-64174278D01*
X118938840Y-64187585D01*
X118907026Y-64198323D01*
X118786103Y-64267687D01*
X118701130Y-64364149D01*
X118654726Y-64478400D01*
X118649507Y-64601131D01*
X118287799Y-64601131D01*
X118281601Y-64548807D01*
X117990340Y-64455652D01*
X117699079Y-64362496D01*
X117650071Y-64424799D01*
X117601919Y-64468463D01*
X117524885Y-64520624D01*
X117445074Y-64565051D01*
X117265372Y-64629012D01*
X117083908Y-64646649D01*
X116907901Y-64621059D01*
X116744574Y-64555337D01*
X116601147Y-64452580D01*
X116484842Y-64315883D01*
X116402879Y-64148344D01*
X116391836Y-64113456D01*
X116363680Y-63931984D01*
X116364755Y-63920278D01*
X116719742Y-63920278D01*
X116745868Y-64035236D01*
X116806686Y-64136328D01*
X116894142Y-64216734D01*
X117000183Y-64269634D01*
X117116754Y-64288207D01*
X117235803Y-64265633D01*
X117270035Y-64250212D01*
X117364102Y-64180609D01*
X117441196Y-64085376D01*
X117486453Y-63983462D01*
X117489205Y-63970807D01*
X117487779Y-63844923D01*
X117437943Y-63722442D01*
X117358810Y-63625168D01*
X117304847Y-63577069D01*
X117256653Y-63550935D01*
X117195073Y-63540151D01*
X117106700Y-63538100D01*
X117014651Y-63540427D01*
X116954190Y-63551818D01*
X116906161Y-63578888D01*
X116854589Y-63625168D01*
X116793662Y-63696529D01*
X116746892Y-63772800D01*
X116736362Y-63798274D01*
X116719742Y-63920278D01*
X116364755Y-63920278D01*
X116380395Y-63750075D01*
X116438678Y-63578044D01*
X116535225Y-63426203D01*
X116646029Y-63319867D01*
X116776117Y-63237025D01*
X116908023Y-63189388D01*
X117061183Y-63170698D01*
X117112206Y-63169799D01*
X117309259Y-63192129D01*
G36*
X118142668Y-61550338D02*
X118218867Y-61601261D01*
X118287696Y-61677102D01*
X118452683Y-61917085D01*
X118580098Y-62171981D01*
X118669081Y-62435556D01*
X118718775Y-62701580D01*
X118728320Y-62963819D01*
X118696858Y-63216041D01*
X118623530Y-63452014D01*
X118552017Y-63595427D01*
X118458271Y-63735703D01*
X118369156Y-63829829D01*
X118286196Y-63876892D01*
X118210917Y-63875981D01*
X118152036Y-63834549D01*
X118115480Y-63769609D01*
X118121414Y-63696935D01*
X118170903Y-63609321D01*
X118188764Y-63586042D01*
X118317714Y-63384500D01*
X118401902Y-63162110D01*
X118438707Y-62926348D01*
X118440200Y-62867812D01*
X118422462Y-62689929D01*
X118372819Y-62491479D01*
X118296627Y-62286429D01*
X118199240Y-62088740D01*
X118086014Y-61912379D01*
X118061485Y-61880319D01*
X117989958Y-61774598D01*
X117961210Y-61690225D01*
X117974343Y-61622605D01*
X118004050Y-61586236D01*
X118072503Y-61545791D01*
X118142668Y-61550338D01*
X118142668Y-61550338D01*
G37*
X118142668Y-61550338D02*
X118218867Y-61601261D01*
X118287696Y-61677102D01*
X118452683Y-61917085D01*
X118580098Y-62171981D01*
X118669081Y-62435556D01*
X118718775Y-62701580D01*
X118728320Y-62963819D01*
X118696858Y-63216041D01*
X118623530Y-63452014D01*
X118552017Y-63595427D01*
X118458271Y-63735703D01*
X118369156Y-63829829D01*
X118286196Y-63876892D01*
X118210917Y-63875981D01*
X118152036Y-63834549D01*
X118115480Y-63769609D01*
X118121414Y-63696935D01*
X118170903Y-63609321D01*
X118188764Y-63586042D01*
X118317714Y-63384500D01*
X118401902Y-63162110D01*
X118438707Y-62926348D01*
X118440200Y-62867812D01*
X118422462Y-62689929D01*
X118372819Y-62491479D01*
X118296627Y-62286429D01*
X118199240Y-62088740D01*
X118086014Y-61912379D01*
X118061485Y-61880319D01*
X117989958Y-61774598D01*
X117961210Y-61690225D01*
X117974343Y-61622605D01*
X118004050Y-61586236D01*
X118072503Y-61545791D01*
X118142668Y-61550338D01*
G36*
X120081169Y-61930740D02*
X120177712Y-61945651D01*
X120292856Y-61967372D01*
X120415112Y-61993339D01*
X120532991Y-62020991D01*
X120635005Y-62047763D01*
X120709664Y-62071095D01*
X120745195Y-62088128D01*
X120746043Y-62118955D01*
X120733641Y-62187846D01*
X120710836Y-62284684D01*
X120680473Y-62399349D01*
X120645400Y-62521724D01*
X120608461Y-62641691D01*
X120572504Y-62749132D01*
X120540375Y-62833927D01*
X120526901Y-62864126D01*
X120414916Y-63040409D01*
X120263167Y-63198232D01*
X120081571Y-63329746D01*
X119880042Y-63427101D01*
X119772811Y-63461064D01*
X119631853Y-63488815D01*
X119489983Y-63496197D01*
X119334428Y-63482518D01*
X119152418Y-63447085D01*
X119051085Y-63421932D01*
X118936427Y-63391199D01*
X118840761Y-63364104D01*
X118774260Y-63343627D01*
X118747221Y-63332888D01*
X118746067Y-63301788D01*
X118758156Y-63232825D01*
X118780627Y-63136319D01*
X118810618Y-63022586D01*
X118845267Y-62901944D01*
X118881711Y-62784711D01*
X118917088Y-62681203D01*
X118948536Y-62601740D01*
X118952397Y-62593262D01*
X119071191Y-62396500D01*
X119227669Y-62227930D01*
X119414531Y-62092143D01*
X119624475Y-61993730D01*
X119850200Y-61937284D01*
X120014717Y-61925200D01*
X120081169Y-61930740D01*
X120081169Y-61930740D01*
G37*
X120081169Y-61930740D02*
X120177712Y-61945651D01*
X120292856Y-61967372D01*
X120415112Y-61993339D01*
X120532991Y-62020991D01*
X120635005Y-62047763D01*
X120709664Y-62071095D01*
X120745195Y-62088128D01*
X120746043Y-62118955D01*
X120733641Y-62187846D01*
X120710836Y-62284684D01*
X120680473Y-62399349D01*
X120645400Y-62521724D01*
X120608461Y-62641691D01*
X120572504Y-62749132D01*
X120540375Y-62833927D01*
X120526901Y-62864126D01*
X120414916Y-63040409D01*
X120263167Y-63198232D01*
X120081571Y-63329746D01*
X119880042Y-63427101D01*
X119772811Y-63461064D01*
X119631853Y-63488815D01*
X119489983Y-63496197D01*
X119334428Y-63482518D01*
X119152418Y-63447085D01*
X119051085Y-63421932D01*
X118936427Y-63391199D01*
X118840761Y-63364104D01*
X118774260Y-63343627D01*
X118747221Y-63332888D01*
X118746067Y-63301788D01*
X118758156Y-63232825D01*
X118780627Y-63136319D01*
X118810618Y-63022586D01*
X118845267Y-62901944D01*
X118881711Y-62784711D01*
X118917088Y-62681203D01*
X118948536Y-62601740D01*
X118952397Y-62593262D01*
X119071191Y-62396500D01*
X119227669Y-62227930D01*
X119414531Y-62092143D01*
X119624475Y-61993730D01*
X119850200Y-61937284D01*
X120014717Y-61925200D01*
X120081169Y-61930740D01*
D13*
X123190000Y-63246000D03*
X118364000Y-91440000D03*
D14*
X147320000Y-111760000D03*
X149860000Y-111760000D03*
X162560000Y-111760000D03*
X165100000Y-111760000D03*
X167640000Y-111760000D03*
X170180000Y-111760000D03*
X172720000Y-111760000D03*
X175260000Y-111760000D03*
X135636000Y-63500000D03*
X175260000Y-63500000D03*
X172720000Y-63500000D03*
X170180000Y-63500000D03*
X167640000Y-63500000D03*
X165100000Y-63500000D03*
X162560000Y-63500000D03*
X160020000Y-63500000D03*
X157480000Y-63500000D03*
X153416000Y-63500000D03*
X150876000Y-63500000D03*
X148336000Y-63500000D03*
X145796000Y-63500000D03*
X143256000Y-63500000D03*
X140716000Y-63500000D03*
X152400000Y-111760000D03*
X154940000Y-111760000D03*
X138176000Y-63500000D03*
X177939700Y-88948260D03*
X142240000Y-111760000D03*
X175399700Y-83870800D03*
X177939700Y-86410800D03*
X139700000Y-111760000D03*
X144780000Y-111760000D03*
X175399700Y-88948260D03*
X175399700Y-86410800D03*
X130556000Y-63500000D03*
X133096000Y-63500000D03*
X177939700Y-83870800D03*
X157480000Y-111760000D03*
D15*
X127000000Y-63500000D03*
X177800000Y-78740000D03*
X177800000Y-106680000D03*
X125730000Y-111760000D03*
D16*
X129778000Y-69342000D03*
X127778000Y-69342000D03*
X119872000Y-76962000D03*
X117872000Y-76962000D03*
D17*
X119485000Y-84074000D03*
X116735000Y-84074000D03*
D16*
X117872000Y-70612000D03*
X119872000Y-70612000D03*
D18*
X150229000Y-100076000D03*
X148729000Y-100076000D03*
X139688000Y-80772000D03*
X138188000Y-80772000D03*
D19*
X137762000Y-103124000D03*
X143162000Y-103124000D03*
D16*
X144542000Y-91567000D03*
X146542000Y-91567000D03*
D20*
X126492000Y-92169000D03*
X126492000Y-97569000D03*
D16*
X144542000Y-89662000D03*
X146542000Y-89662000D03*
X144542000Y-85852000D03*
X146542000Y-85852000D03*
D18*
X150229000Y-106807000D03*
X148729000Y-106807000D03*
X150229000Y-104521000D03*
X148729000Y-104521000D03*
X150229000Y-102362000D03*
X148729000Y-102362000D03*
D16*
X144542000Y-96012000D03*
X146542000Y-96012000D03*
D21*
X130937000Y-97393000D03*
X130937000Y-95393000D03*
D16*
X121174000Y-75057000D03*
X123174000Y-75057000D03*
X121174000Y-72517000D03*
X123174000Y-72517000D03*
X127238000Y-89281000D03*
X125238000Y-89281000D03*
X123587000Y-78867000D03*
X125587000Y-78867000D03*
X123968000Y-100457000D03*
X125968000Y-100457000D03*
D22*
X122015000Y-88265000D03*
X118015000Y-88265000D03*
D23*
X139192000Y-70523000D03*
X139192000Y-68923000D03*
X170523000Y-81407000D03*
X172123000Y-81407000D03*
D20*
X119788000Y-80518000D03*
X114908000Y-80518000D03*
D24*
X117344000Y-106172000D03*
D25*
X123444000Y-106172000D03*
D24*
X119634000Y-111252000D03*
D26*
X129326000Y-102997000D03*
X134326000Y-102997000D03*
D27*
X144592000Y-93853000D03*
X146492000Y-93853000D03*
D28*
X136228000Y-73406000D03*
X134028000Y-73406000D03*
X136228000Y-75311000D03*
X134028000Y-75311000D03*
D29*
X175133000Y-73152000D03*
D30*
X175133000Y-70612000D03*
X175133000Y-68072000D03*
D29*
X162433000Y-73152000D03*
D30*
X162433000Y-70612000D03*
X162433000Y-68072000D03*
D29*
X149733000Y-73152000D03*
D30*
X149733000Y-70612000D03*
X149733000Y-68072000D03*
D29*
X153543000Y-101727000D03*
D30*
X153543000Y-104267000D03*
X153543000Y-106807000D03*
D29*
X171323000Y-101727000D03*
D30*
X171323000Y-104267000D03*
X171323000Y-106807000D03*
D29*
X172593000Y-73152000D03*
D30*
X172593000Y-70612000D03*
X172593000Y-68072000D03*
D29*
X159893000Y-73152000D03*
D30*
X159893000Y-70612000D03*
X159893000Y-68072000D03*
D29*
X147193000Y-73152000D03*
D30*
X147193000Y-70612000D03*
X147193000Y-68072000D03*
D29*
X156083000Y-101727000D03*
D30*
X156083000Y-104267000D03*
X156083000Y-106807000D03*
D29*
X168783000Y-101727000D03*
D30*
X168783000Y-104267000D03*
X168783000Y-106807000D03*
D29*
X170053000Y-73152000D03*
D30*
X170053000Y-70612000D03*
X170053000Y-68072000D03*
D29*
X157353000Y-73152000D03*
D30*
X157353000Y-70612000D03*
X157353000Y-68072000D03*
D29*
X144653000Y-73152000D03*
D30*
X144653000Y-70612000D03*
X144653000Y-68072000D03*
D29*
X158623000Y-101727000D03*
D30*
X158623000Y-104267000D03*
X158623000Y-106807000D03*
D29*
X167513000Y-73152000D03*
D30*
X167513000Y-70612000D03*
X167513000Y-68072000D03*
D29*
X154813000Y-73152000D03*
D30*
X154813000Y-70612000D03*
X154813000Y-68072000D03*
D29*
X142113000Y-73152000D03*
D30*
X142113000Y-70612000D03*
X142113000Y-68072000D03*
D29*
X161163000Y-101727000D03*
D30*
X161163000Y-104267000D03*
X161163000Y-106807000D03*
D29*
X164973000Y-73152000D03*
D30*
X164973000Y-70612000D03*
X164973000Y-68072000D03*
D29*
X152273000Y-73152000D03*
D30*
X152273000Y-70612000D03*
X152273000Y-68072000D03*
D29*
X163703000Y-101727000D03*
D30*
X163703000Y-104267000D03*
X163703000Y-106807000D03*
D29*
X166243000Y-101727000D03*
D30*
X166243000Y-104267000D03*
X166243000Y-106807000D03*
D31*
X175133000Y-99822000D03*
D32*
X175133000Y-97822000D03*
X175133000Y-95822000D03*
X175133000Y-93822000D03*
D33*
X134763000Y-78217000D03*
X134763000Y-79517000D03*
X136763000Y-78867000D03*
D34*
X135493000Y-84008000D03*
X135493000Y-82108000D03*
X133493000Y-83058000D03*
X135493000Y-87564000D03*
X135493000Y-85664000D03*
X133493000Y-86614000D03*
D27*
X137861000Y-75311000D03*
X139761000Y-75311000D03*
D35*
X137287000Y-68773000D03*
X137287000Y-70673000D03*
X146494500Y-103952000D03*
X146494500Y-105852000D03*
D27*
X137861000Y-73406000D03*
X139761000Y-73406000D03*
D35*
X174752000Y-76647000D03*
X174752000Y-78547000D03*
X172593000Y-76647000D03*
X172593000Y-78547000D03*
X138557000Y-97221000D03*
X138557000Y-99121000D03*
D27*
X170373000Y-83312000D03*
X172273000Y-83312000D03*
D35*
X148844000Y-92263000D03*
X148844000Y-90363000D03*
X140081000Y-99121000D03*
X140081000Y-97221000D03*
D27*
X146492000Y-87757000D03*
X144592000Y-87757000D03*
X119822000Y-72517000D03*
X117922000Y-72517000D03*
X119822000Y-75057000D03*
X117922000Y-75057000D03*
D35*
X132842000Y-79944000D03*
X132842000Y-78044000D03*
D27*
X137988000Y-78613000D03*
X139888000Y-78613000D03*
X137988000Y-87376000D03*
X139888000Y-87376000D03*
X125288000Y-87376000D03*
X127188000Y-87376000D03*
X128844000Y-87376000D03*
X130744000Y-87376000D03*
X137988000Y-83947000D03*
X139888000Y-83947000D03*
D36*
X128352000Y-109270000D03*
D37*
X129612000Y-111760000D03*
X134112000Y-111760000D03*
D36*
X135362000Y-109270000D03*
D38*
X113462000Y-87146000D03*
X113462000Y-90146000D03*
D39*
X115222000Y-86396000D03*
X115222000Y-89396000D03*
X115222000Y-90896000D03*
D40*
X112362000Y-84996000D03*
X112362000Y-92296000D03*
X114572000Y-92296000D03*
X114572000Y-84996000D03*
D41*
X130937000Y-70993000D03*
X130302000Y-70993000D03*
X129641600Y-70993000D03*
X128981200Y-70993000D03*
X128346200Y-70993000D03*
X127685800Y-70993000D03*
X127025400Y-70993000D03*
X126390400Y-70993000D03*
X125730000Y-70993000D03*
X125095000Y-70993000D03*
X125095000Y-76327000D03*
X125730000Y-76327000D03*
X126390400Y-76327000D03*
X127025400Y-76327000D03*
X127685800Y-76327000D03*
X128346200Y-76327000D03*
X128981200Y-76327000D03*
X129641600Y-76327000D03*
X130302000Y-76327000D03*
X130937000Y-76327000D03*
D42*
X124808000Y-80645000D03*
X124808000Y-81915000D03*
X124808000Y-83185000D03*
X124808000Y-84455000D03*
X130208000Y-84455000D03*
X130208000Y-83185000D03*
X130208000Y-81915000D03*
X130208000Y-80645000D03*
D43*
X114706000Y-97536000D03*
D44*
X121006000Y-97536000D03*
X121006000Y-95236000D03*
X121006000Y-99836000D03*
D10*
G36*
X164106334Y-84503845D02*
X164565953Y-84963464D01*
X163363872Y-86165545D01*
X162904253Y-85705926D01*
X164106334Y-84503845D01*
X164106334Y-84503845D01*
G37*
G36*
X163540648Y-83938160D02*
X164000267Y-84397779D01*
X162798186Y-85599860D01*
X162338567Y-85140241D01*
X163540648Y-83938160D01*
X163540648Y-83938160D01*
G37*
G36*
X162974963Y-83372474D02*
X163434582Y-83832093D01*
X162232501Y-85034174D01*
X161772882Y-84574555D01*
X162974963Y-83372474D01*
X162974963Y-83372474D01*
G37*
G36*
X162409278Y-82806789D02*
X162868897Y-83266408D01*
X161666816Y-84468489D01*
X161207197Y-84008870D01*
X162409278Y-82806789D01*
X162409278Y-82806789D01*
G37*
G36*
X161843592Y-82241103D02*
X162303211Y-82700722D01*
X161101130Y-83902803D01*
X160641511Y-83443184D01*
X161843592Y-82241103D01*
X161843592Y-82241103D01*
G37*
G36*
X161277907Y-81675418D02*
X161737526Y-82135037D01*
X160535445Y-83337118D01*
X160075826Y-82877499D01*
X161277907Y-81675418D01*
X161277907Y-81675418D01*
G37*
G36*
X160712221Y-81109733D02*
X161171840Y-81569352D01*
X159969759Y-82771433D01*
X159510140Y-82311814D01*
X160712221Y-81109733D01*
X160712221Y-81109733D01*
G37*
G36*
X160146536Y-80544047D02*
X160606155Y-81003666D01*
X159404074Y-82205747D01*
X158944455Y-81746128D01*
X160146536Y-80544047D01*
X160146536Y-80544047D01*
G37*
G36*
X156893845Y-81003666D02*
X157353464Y-80544047D01*
X158555545Y-81746128D01*
X158095926Y-82205747D01*
X156893845Y-81003666D01*
X156893845Y-81003666D01*
G37*
G36*
X156328160Y-81569352D02*
X156787779Y-81109733D01*
X157989860Y-82311814D01*
X157530241Y-82771433D01*
X156328160Y-81569352D01*
X156328160Y-81569352D01*
G37*
G36*
X155762474Y-82135037D02*
X156222093Y-81675418D01*
X157424174Y-82877499D01*
X156964555Y-83337118D01*
X155762474Y-82135037D01*
X155762474Y-82135037D01*
G37*
G36*
X155196789Y-82700722D02*
X155656408Y-82241103D01*
X156858489Y-83443184D01*
X156398870Y-83902803D01*
X155196789Y-82700722D01*
X155196789Y-82700722D01*
G37*
G36*
X154631103Y-83266408D02*
X155090722Y-82806789D01*
X156292803Y-84008870D01*
X155833184Y-84468489D01*
X154631103Y-83266408D01*
X154631103Y-83266408D01*
G37*
G36*
X154065418Y-83832093D02*
X154525037Y-83372474D01*
X155727118Y-84574555D01*
X155267499Y-85034174D01*
X154065418Y-83832093D01*
X154065418Y-83832093D01*
G37*
G36*
X153499733Y-84397779D02*
X153959352Y-83938160D01*
X155161433Y-85140241D01*
X154701814Y-85599860D01*
X153499733Y-84397779D01*
X153499733Y-84397779D01*
G37*
G36*
X152934047Y-84963464D02*
X153393666Y-84503845D01*
X154595747Y-85705926D01*
X154136128Y-86165545D01*
X152934047Y-84963464D01*
X152934047Y-84963464D01*
G37*
G36*
X154136128Y-86554455D02*
X154595747Y-87014074D01*
X153393666Y-88216155D01*
X152934047Y-87756536D01*
X154136128Y-86554455D01*
X154136128Y-86554455D01*
G37*
G36*
X154701814Y-87120140D02*
X155161433Y-87579759D01*
X153959352Y-88781840D01*
X153499733Y-88322221D01*
X154701814Y-87120140D01*
X154701814Y-87120140D01*
G37*
G36*
X155267499Y-87685826D02*
X155727118Y-88145445D01*
X154525037Y-89347526D01*
X154065418Y-88887907D01*
X155267499Y-87685826D01*
X155267499Y-87685826D01*
G37*
G36*
X155833184Y-88251511D02*
X156292803Y-88711130D01*
X155090722Y-89913211D01*
X154631103Y-89453592D01*
X155833184Y-88251511D01*
X155833184Y-88251511D01*
G37*
G36*
X156398870Y-88817197D02*
X156858489Y-89276816D01*
X155656408Y-90478897D01*
X155196789Y-90019278D01*
X156398870Y-88817197D01*
X156398870Y-88817197D01*
G37*
G36*
X156964555Y-89382882D02*
X157424174Y-89842501D01*
X156222093Y-91044582D01*
X155762474Y-90584963D01*
X156964555Y-89382882D01*
X156964555Y-89382882D01*
G37*
G36*
X157530241Y-89948567D02*
X157989860Y-90408186D01*
X156787779Y-91610267D01*
X156328160Y-91150648D01*
X157530241Y-89948567D01*
X157530241Y-89948567D01*
G37*
G36*
X158095926Y-90514253D02*
X158555545Y-90973872D01*
X157353464Y-92175953D01*
X156893845Y-91716334D01*
X158095926Y-90514253D01*
X158095926Y-90514253D01*
G37*
G36*
X158944455Y-90973872D02*
X159404074Y-90514253D01*
X160606155Y-91716334D01*
X160146536Y-92175953D01*
X158944455Y-90973872D01*
X158944455Y-90973872D01*
G37*
G36*
X159510140Y-90408186D02*
X159969759Y-89948567D01*
X161171840Y-91150648D01*
X160712221Y-91610267D01*
X159510140Y-90408186D01*
X159510140Y-90408186D01*
G37*
G36*
X160075826Y-89842501D02*
X160535445Y-89382882D01*
X161737526Y-90584963D01*
X161277907Y-91044582D01*
X160075826Y-89842501D01*
X160075826Y-89842501D01*
G37*
G36*
X160641511Y-89276816D02*
X161101130Y-88817197D01*
X162303211Y-90019278D01*
X161843592Y-90478897D01*
X160641511Y-89276816D01*
X160641511Y-89276816D01*
G37*
G36*
X161207197Y-88711130D02*
X161666816Y-88251511D01*
X162868897Y-89453592D01*
X162409278Y-89913211D01*
X161207197Y-88711130D01*
X161207197Y-88711130D01*
G37*
G36*
X161772882Y-88145445D02*
X162232501Y-87685826D01*
X163434582Y-88887907D01*
X162974963Y-89347526D01*
X161772882Y-88145445D01*
X161772882Y-88145445D01*
G37*
G36*
X162338567Y-87579759D02*
X162798186Y-87120140D01*
X164000267Y-88322221D01*
X163540648Y-88781840D01*
X162338567Y-87579759D01*
X162338567Y-87579759D01*
G37*
G36*
X162904253Y-87014074D02*
X163363872Y-86554455D01*
X164565953Y-87756536D01*
X164106334Y-88216155D01*
X162904253Y-87014074D01*
X162904253Y-87014074D01*
G37*
D42*
X134968000Y-90551000D03*
X134968000Y-91821000D03*
X134968000Y-93091000D03*
X134968000Y-94361000D03*
X140368000Y-94361000D03*
X140368000Y-93091000D03*
X140368000Y-91821000D03*
X140368000Y-90551000D03*
D45*
X138268000Y-93256000D03*
X138268000Y-91656000D03*
X137068000Y-93256000D03*
X137068000Y-91656000D03*
D46*
X162385167Y-81372305D02*
X163414305Y-80343167D01*
X161537431Y-80524569D02*
X162566569Y-79495431D01*
X160689695Y-79676833D02*
X161718833Y-78647695D01*
D47*
X112934000Y-74152000D03*
D48*
X115634000Y-70652000D03*
D49*
X115634000Y-72502000D03*
X115634000Y-71852000D03*
X115634000Y-74452000D03*
X115634000Y-73802000D03*
X115634000Y-73152000D03*
D48*
X115634000Y-75652000D03*
D47*
X112934000Y-72152000D03*
D50*
X112934000Y-69652000D03*
X112934000Y-76652000D03*
D51*
X112934000Y-76052000D03*
X112934000Y-70252000D03*
D13*
X174498000Y-106680000D03*
M02*
